<svg id="a39af813-f1ca-40ea-badb-5f98bfd65b95" data-name="lline" xmlns="http://www.w3.org/2000/svg" viewBox="0 0 64 64"><title>1</title><path d="M55.62244,30.32959c-4.23377-6.97284-9.53449-8.53717-13.51935-8.48a17.80932,17.80932,0,0,0-7.74664-10.77734,1.00049,1.00049,0,0,0-1.09273,1.67582,15.85651,15.85651,0,0,1,6.81624,9.265c-5.61415.92842-8.35889,3.37352-11.14154,7.47339a14.62754,14.62754,0,0,0-7.92511-4.1936c1.14209-7.8172-1.49689-11.31726-3.19825-12.70594a4.89867,4.89867,0,0,0,1.38143-3.91779A31.49143,31.49143,0,0,1,29.8501,10.95117a1.00013,1.00013,0,0,0,.78027-1.84179A33.84232,33.84232,0,0,0,18.59265,6.65179a5.06736,5.06736,0,1,0-2.52532,7.12561c.9959.60193,4.16064,3.2132,2.964,11.278a18.81052,18.81052,0,0,0-6.22931.7052,4.03194,4.03194,0,1,0-.82172,5.56838c.0575.03629,4.52576,2.9412,4.319,12.44016-5.73294,1.31227-6.53635,9.66782-.39925,11.09935l-.00017,2.322A2.81333,2.81333,0,0,0,18.71,60H42.6499A2.81333,2.81333,0,0,0,45.46,57.19043V54.86169a5.594,5.594,0,0,0,3.70557-2.79821c1.7556-3.1563-.53273-7.45941-3.947-8.25319a26.705,26.705,0,0,1,.33078-6.13549c.63613-3.10531,2.3352-4.67615,4.88425-3.66968a4.02985,4.02985,0,1,0,5.18887-3.67553ZM11.08154,9.07813a3.07832,3.07832,0,0,1,6.15625.00009A3.07832,3.07832,0,0,1,11.08154,9.07813ZM35.82959,25.42188a12.72763,12.72763,0,0,1,2.52692-1.00062,3.38315,3.38315,0,0,1-5.73139,3.56684A15.52752,15.52752,0,0,1,35.82959,25.42188ZM27.9035,31.29694a21.79817,21.79817,0,0,0-1.77642,5.29162c-3.15247-6.756-10.21127-8.31432-12.59456-8.96882C15.69714,26.97931,22.639,25.53937,27.9035,31.29694Zm-18.36-1.129a2.04016,2.04016,0,0,1,.00006-4.08008A2.04016,2.04016,0,0,1,9.54346,30.168Zm3.68634-.40247C15.97236,29.88436,25.18026,32.899,25.68,43.01941a6.519,6.519,0,0,0-3.94658,2.32043,6.25474,6.25474,0,0,0-3.43616-1.68243C18.45654,34.122,14.19543,30.46722,13.2298,29.7655ZM47.562,48.42969a3.4587,3.4587,0,0,1-3.18363,4.59274.98929.98929,0,0,0-.8229.60312A28.29045,28.29045,0,0,0,43.46,57.19044a.81071.81071,0,0,1-.81.80956H18.71a.81073.81073,0,0,1-.81006-.80957V55.04H40.46a1,1,0,0,0,0-2H17.31982A3.77385,3.77385,0,0,1,13.9585,51.1416c-1.1477-2.11162.51826-4.939,2.76272-5.42086a4.23946,4.23946,0,0,1,4.227,1.71871.99968.99968,0,0,0,1.62305.0293c1.248-1.67187,2.49121-2.50391,3.77783-2.48926,1.98535.03028,3.49561,2.15039,3.50879,2.16992a1.00151,1.00151,0,0,0,1.64307.002c.01465-.02149,1.52441-2.1416,3.50976-2.17188,1.27846-.013,2.52648.82048,3.77784,2.48926a1.03058,1.03058,0,0,0,.82031.40137.9978.9978,0,0,0,.8042-.43262,4.26249,4.26249,0,0,1,4.231-1.71582A4.16492,4.16492,0,0,1,47.562,48.42969Zm-.61963-16.294c-3.363,1.89235-3.83966,5.796-3.7384,11.501a6.18753,6.18753,0,0,0-3.57849,1.70217,5.68366,5.68366,0,0,0-8.94532-.28987,7.16326,7.16326,0,0,0-2.97845-1.86455c0-.16654-.02822-.34434-.03589-.50458A22.002,22.002,0,0,1,29.9873,31.60352,15.85982,15.85982,0,0,1,31.311,29.55579a5.38234,5.38234,0,0,0,9.03978-5.5622c4.18091-.48776,8.52429.21059,12.907,6.34612a4.03413,4.03413,0,0,0-2.24326,1.75081A5.35341,5.35341,0,0,0,46.94238,32.13574Zm7.51416,4.082a2.04016,2.04016,0,0,1,.00007-4.08007A2.04016,2.04016,0,0,1,54.45654,36.21777Z"/><path d="M39.05518,34.627a3.29506,3.29506,0,0,0,.00007,6.58985A3.29506,3.29506,0,0,0,39.05518,34.627Zm0,4.58985a1.29506,1.29506,0,0,1,.00005-2.58984A1.29506,1.29506,0,0,1,39.05518,39.2168Z"/></svg>