<svg id="a907c157-bc2e-4854-8aff-318e362ee5ba" data-name="glyph" xmlns="http://www.w3.org/2000/svg" viewBox="0 0 64 64"><title>1</title><path d="M56.78937,26.75092C55.137,19.687,58.33246,5.428,58.34949,5.22888c.08685-1.016-1.21222-1.76269-1.82013-.74139-3.39057,5.49084-10.47168,9.17145-12.34192,10.07159a24.32274,24.32274,0,0,0-24.36377,0c-1.87024-.90014-8.95136-4.58075-12.34192-10.07159a.998.998,0,0,0-1.82019.74017c.03.14,3.09045,14.09216,1.6402,21.29328-.78082,1.84606-4.23523,9.59747.75006,15.38238-.27,1.85022-.66,8.2312,4.30072,17.12256a1.93234,1.93234,0,0,0,3.5805-.62012c.37012-2.21033,2.51044-13.232,8.51136-12.78192A4.24245,4.24245,0,0,0,28.275,42.69336c.18873-.28656,1.3545-1.955,2.85041-1.88025h1.8703c1.47021.03,2.55035,1.59027,2.74035,1.88025a4.24678,4.24678,0,0,0,3.88062,2.93048c5.9505-.46008,8.09094,10.56995,8.46124,12.78149a1.93877,1.93877,0,0,0,3.58063.62055c4.96075-8.89136,4.57068-15.27234,4.30066-17.12262C60.88,36.3324,57.52948,28.33118,56.78937,26.75092ZM29.59521,35.12219a7.92018,7.92018,0,0,1-6.87109,1.83032c-6.10773-1.31951-10.467-9.73266-10.65131-10.101a1.025,1.025,0,0,1,.98981-1.45074C25.66437,26.58752,31.38861,34.20593,29.59521,35.12219ZM51.9386,26.851c-.07477.48407-5.95319,10.621-12.272,10.28137a8.3008,8.3008,0,0,1-5.25067-2.01013,1.01284,1.01284,0,0,1-.26-1.25018c.16-.29,3.98059-7.22107,16.79261-8.47125A1.00812,1.00812,0,0,1,51.9386,26.851Z"/><path d="M36.4162,34.10205c5.07,3.58991,10.661-2.96045,12.74194-6.46112C41.207,28.90131,37.61639,32.55182,36.4162,34.10205Z"/><path d="M14.85291,27.64111c2.08111,3.50074,7.6723,10.05078,12.74206,6.46076C26.37469,32.55182,22.75415,28.90131,14.85291,27.64111Z"/></svg>