<?xml version="1.0" encoding="utf-8"?>
<!-- Generator: Adobe Illustrator 22.1.0, SVG Export Plug-In . SVG Version: 6.00 Build 0)  -->
<svg version="1.1" id="Layer_2" xmlns="http://www.w3.org/2000/svg" xmlns:xlink="http://www.w3.org/1999/xlink" x="0px" y="0px"
	 viewBox="0 0 64 64" style="enable-background:new 0 0 64 64;" xml:space="preserve">
<g>
	<path d="M40.5,24.3c-1-1-2.4-1.3-3.7-1L34.5,24c-0.2,0.1-0.4,0.1-0.6,0.1c0,0,0,0,0,0l-2.2-0.2c-0.1,0-0.2,0-0.3-0.1l-0.6-0.2
		c-1.9-0.5-3.9,0.5-4.6,2.4l-0.9,2.6c-0.3,0.7-0.3,1.5-0.1,2.2l1.1,4.3c0.3,1.1,1.1,2.1,2.1,2.5l3.7,1.7c0.5,0.2,1,0.3,1.6,0.3
		c0.6,0,1.3-0.2,1.8-0.5l5.3-2.9c0.9-0.5,1.6-1.3,1.8-2.3l1.1-3.9c0.4-1.3,0-2.7-1-3.7L40.5,24.3z M41.7,29.6l-1.1,3.9
		c-0.1,0.5-0.5,0.9-0.9,1.1l-5.3,2.9c-0.5,0.3-1.1,0.3-1.6,0.1l-3.7-1.7c-0.5-0.2-0.9-0.7-1-1.2l-1.1-4.3c-0.1-0.4-0.1-0.7,0.1-1.1
		l0.9-2.6c0.3-0.7,1-1.2,1.7-1.2c0.2,0,0.3,0,0.5,0.1l0.6,0.2c0.2,0.1,0.5,0.1,0.7,0.1l2.2,0.2c0.4,0,0.9,0,1.3-0.1l2.3-0.7
		c0.6-0.2,1.3,0,1.8,0.5l2.1,2.1C41.7,28.3,41.9,29,41.7,29.6z"/>
	<path d="M60.9,20.1c-0.2-0.4-0.7-0.6-1.1-0.5l-6.7,1.6l4.2-7.3c0.2-0.4,0.2-0.8-0.1-1.1c-0.3-0.3-0.7-0.4-1.1-0.3l-3.2,1.2l4.4-7.9
		c0.2-0.4,0.2-0.9-0.2-1.2s-0.8-0.4-1.2-0.1l-11.8,7.4L44.4,4c0-0.4-0.2-0.8-0.6-1C43.5,2.9,43,3,42.7,3.3L24.9,21.1
		C13.1,20,3,29.3,3,41c0,9.3,6.3,17.1,14.9,19.3c0.1,0.1,0.2,0.1,0.4,0.1c1.4,0.3,2.8,0.5,4.3,0.6c0.1,0,0.1,0,0.2,0c0,0,0,0,0,0
		c0.1,0,0.2,0,0.3,0c7.9,0,14.7-4.6,18-11.3c0,0,0,0,0,0c0-0.1,0.1-0.1,0.1-0.2C42.3,46.9,43,44,43,41c0-0.6,0-1.3-0.1-1.9
		l17.8-17.8C61,20.9,61.1,20.5,60.9,20.1z M23.2,23c-1.6,2.2-2.5,4.8-2.5,7.5c0,3.4,1.3,6.6,3.7,9c2.4,2.4,5.6,3.7,9,3.7
		c2.7,0,5.3-0.9,7.5-2.5c0,0.1,0,0.2,0,0.2c0,2.3-0.5,4.6-1.3,6.6L37.4,46c-0.9-0.6-1.9-0.9-2.9-0.8l-3.7,0.2
		c-2.5,0.1-4.5,2.2-4.5,4.7v0.4c0,1-0.5,1.9-1.4,2.4l-0.2,0.1c-1.2,0.7-2,1.9-2.3,3.2l-0.5,2.8c-0.9-0.1-1.8-0.2-2.6-0.3l-0.3-2.5
		c-0.1-1-0.5-2-1.2-2.7L17,52.7c-0.7-0.8-1-1.9-0.6-3l0.9-3c0.4-1.5,0.2-3-0.6-4.3l-1.9-3c-0.4-0.6-0.5-1.2-0.5-1.9l0.3-5.2
		c0.1-1.2-0.3-2.4-1.1-3.4l-1.6-2.1C15,24.4,19,22.9,23.2,23z M5,41c0-5,2.1-9.6,5.4-12.8l1.5,2c0.5,0.6,0.7,1.3,0.7,2.1l-0.3,5.2
		c-0.1,1.1,0.2,2.1,0.8,3.1l1.9,3c0.5,0.8,0.6,1.7,0.4,2.6l-0.9,3c-0.5,1.7-0.1,3.6,1.1,4.9l0.6,0.7c0.4,0.5,0.7,1.1,0.8,1.7
		l0.2,1.6C10.1,55.6,5,48.9,5,41z M23.9,59l0.5-2.4c0.1-0.8,0.6-1.5,1.3-1.9l0.2-0.1c1.4-0.8,2.3-2.4,2.3-4.1V50
		c0-1.5,1.1-2.7,2.6-2.7l3.7-0.2c0.6,0,1.2,0.1,1.7,0.5l2.7,1.8C36,54.9,30.4,58.6,23.9,59z M41.1,38.1c-2,2-4.7,3.1-7.6,3.1
		c-2.9,0-5.5-1.1-7.6-3.1s-3.1-4.7-3.1-7.6s1.1-5.5,3.1-7.6L42.3,6.5L42,13.7c0,0.4,0.2,0.7,0.5,0.9c0.3,0.2,0.7,0.2,1,0l10-6.3
		L49.7,15c-0.2,0.4-0.2,0.8,0.1,1.1c0.3,0.3,0.7,0.4,1.1,0.3l3.2-1.2l-4,6.9C50,22.6,50,23,50.3,23.3c0.2,0.3,0.6,0.5,1,0.4l5.5-1.3
		L41.1,38.1z"/>
	<path d="M35.4,21.2c0.3,0,0.5-0.1,0.7-0.3l3.1-3.1c0.4-0.4,0.4-1,0-1.4s-1-0.4-1.4,0l-3.1,3.1c-0.4,0.4-0.4,1,0,1.4
		C34.9,21.1,35.2,21.2,35.4,21.2z"/>
	<path d="M41.2,21.9c0.3,0,0.5-0.1,0.7-0.3l4.3-4.3c0.4-0.4,0.4-1,0-1.4s-1-0.4-1.4,0l-4.3,4.3c-0.4,0.4-0.4,1,0,1.4
		C40.7,21.8,40.9,21.9,41.2,21.9z"/>
	<path d="M48.4,20.7c-0.4-0.4-1-0.4-1.4,0l-3,3c-0.4,0.4-0.4,1,0,1.4c0.2,0.2,0.5,0.3,0.7,0.3s0.5-0.1,0.7-0.3l3-3
		C48.8,21.7,48.8,21,48.4,20.7z"/>
	<path d="M48.1,25.8L45.8,28c-0.4,0.4-0.4,1,0,1.4c0.2,0.2,0.5,0.3,0.7,0.3s0.5-0.1,0.7-0.3l2.3-2.3c0.4-0.4,0.4-1,0-1.4
		S48.5,25.4,48.1,25.8z"/>
</g>
</svg>
