<?xml version="1.0" encoding="utf-8"?>
<!-- Generator: Adobe Illustrator 25.3.1, SVG Export Plug-In . SVG Version: 6.00 Build 0)  -->
<svg version="1.1" id="Outline" xmlns="http://www.w3.org/2000/svg" xmlns:xlink="http://www.w3.org/1999/xlink" x="0px" y="0px"
	 viewBox="0 0 64 64" enable-background="new 0 0 64 64" xml:space="preserve">
<g id="XMLID_4303_">
	<path id="XMLID_5408_" d="M51,43c-0.6,0-1,0.4-1,1v17c0,0.6,0.4,1,1,1s1-0.4,1-1V44C52,43.4,51.6,43,51,43z"/>
	<path id="XMLID_5407_" d="M10,39c0-0.6-0.4-1-1-1H4.4l5.5-14.6c0-0.1,0.1-0.2,0.1-0.4c0-3,0.7-5.8,2-8.5c0.2-0.5,0.1-1.1-0.4-1.3
		c-0.5-0.2-1.1-0.1-1.3,0.4c-1.5,2.9-2.2,6-2.3,9.2L2.1,38.6C1.9,39,2,39.3,2.2,39.6C2.4,39.8,2.7,40,3,40h5c0.2,2.6,1.2,5,2.8,7.1
		c0.2,0.2,0.5,0.4,0.8,0.4c0.2,0,0.4-0.1,0.6-0.2c0.4-0.3,0.5-1,0.2-1.4C10.8,43.9,10,41.5,10,39z"/>
	<path id="XMLID_5404_" d="M61,23c-0.6,0-1,0.4-1,1v3h-3.6c-0.4,0-0.8,0.3-1,0.7c-0.2,0.6-0.4,1.2-0.7,1.8c-0.2,0.4-0.1,0.9,0.2,1.2
		l2.6,2.6l-4.2,4.2l-2.6-2.6c-0.3-0.3-0.8-0.4-1.2-0.2c-0.6,0.3-1.2,0.5-1.8,0.7c-0.4,0.1-0.7,0.5-0.7,1V41c0,0.6,0.4,1,1,1
		s1-0.4,1-1v-3.9c0.2-0.1,0.5-0.2,0.7-0.3l2.8,2.8c0.4,0.4,1,0.4,1.4,0l1.1-1.1l2,2v2.7c-1.7,0.4-3,2-3,3.9c0,2.2,1.8,4,4,4
		s4-1.8,4-4c0-1.9-1.3-3.4-3-3.9V40c0-0.3-0.1-0.5-0.3-0.7L56.4,37l3.1-3.1c0.4-0.4,0.4-1,0-1.4l-2.8-2.8c0.1-0.2,0.2-0.5,0.3-0.7
		H61c0.6,0,1-0.4,1-1v-4C62,23.4,61.6,23,61,23z M60,47c0,1.1-0.9,2-2,2s-2-0.9-2-2s0.9-2,2-2S60,45.9,60,47z"/>
	<path id="XMLID_5403_" d="M53,25c0.6,0,1-0.4,1-1s-0.4-1-1-1h-2v-2h1c0.6,0,1-0.4,1-1s-0.4-1-1-1h-1v-1c0-0.6-0.4-1-1-1h-1v-1
		c0-0.6-0.4-1-1-1s-1,0.4-1,1v2c0,0.6,0.4,1,1,1h1v10H39V19h5c0.6,0,1-0.4,1-1v-3c0-0.6-0.4-1-1-1s-1,0.4-1,1v2h-2v-1
		c0-0.6-0.4-1-1-1s-1,0.4-1,1v1h-1c-0.6,0-1,0.4-1,1v1h-1c-0.6,0-1,0.4-1,1s0.4,1,1,1h1v2h-2c-0.6,0-1,0.4-1,1s0.4,1,1,1h2v2h-1
		c-0.6,0-1,0.4-1,1s0.4,1,1,1h1v1c0,0.6,0.4,1,1,1h1v1c0,0.6,0.4,1,1,1s1-0.4,1-1v-1h2v3c0,0.6,0.4,1,1,1s1-0.4,1-1v-3h2v1
		c0,0.6,0.4,1,1,1s1-0.4,1-1v-1h1c0.6,0,1-0.4,1-1v-1h1c0.6,0,1-0.4,1-1s-0.4-1-1-1h-1v-2H53z"/>
	<path id="XMLID_5400_" d="M41,22v4c0,0.6,0.4,1,1,1h4c0.6,0,1-0.4,1-1v-4c0-0.6-0.4-1-1-1h-4C41.4,21,41,21.4,41,22z M43,23h2v2h-2
		V23z"/>
	<path id="XMLID_5395_" d="M16,13c1.9,0,3.4-1.3,3.9-3h7.7l2.5,2.5l-1.6,1.6c-0.4,0.4-0.4,1,0,1.4l2.8,2.8c-0.1,0.2-0.2,0.5-0.3,0.7
		H27c-0.6,0-1,0.4-1,1v3h-5.1c-0.4-1.7-2-3-3.9-3c-2.2,0-4,1.8-4,4s1.8,4,4,4c1.9,0,3.4-1.3,3.9-3H27c0.6,0,1-0.4,1-1v-3h3.6
		c0.4,0,0.8-0.3,1-0.7c0.2-0.6,0.4-1.2,0.7-1.8c0.2-0.4,0.1-0.9-0.2-1.2l-2.6-2.6l4.2-4.2l2.6,2.6c0.3,0.3,0.8,0.4,1.2,0.2
		c0.6-0.3,1.2-0.5,1.8-0.7c0.4-0.1,0.7-0.5,0.7-1V8h6v3.6c0,0.4,0.3,0.8,0.7,1c0.6,0.2,1.2,0.4,1.8,0.7c0.4,0.2,0.9,0.1,1.2-0.2
		l2.6-2.6l4.2,4.2l-2.6,2.6c-0.3,0.3-0.4,0.8-0.2,1.2c0.3,0.6,0.5,1.2,0.7,1.8c0.1,0.4,0.5,0.7,1,0.7H61c0.6,0,1-0.4,1-1s-0.4-1-1-1
		h-3.9c-0.1-0.2-0.2-0.5-0.3-0.7l2.8-2.8c0.4-0.4,0.4-1,0-1.4l-5.7-5.7c-0.4-0.4-1-0.4-1.4,0l-2.8,2.8c-0.2-0.1-0.5-0.2-0.7-0.3V7
		c0-0.6-0.4-1-1-1h-6.7C37.7,3.4,33.4,2,29,2c-4.1,0-8,1.2-11.4,3.4C17.1,5.1,16.6,5,16,5c-2.2,0-4,1.8-4,4S13.8,13,16,13z M17,26
		c-1.1,0-2-0.9-2-2s0.9-2,2-2s2,0.9,2,2S18.1,26,17,26z M39,6.9c0,0,0,0.1,0,0.1v3.9c-0.2,0.1-0.5,0.2-0.7,0.3l-2.8-2.8
		c-0.4-0.4-1-0.4-1.4,0l-2.6,2.6l-2.8-2.8C28.5,8.1,28.3,8,28,8h-8.1c-0.1-0.5-0.3-0.9-0.6-1.3C22.2,4.9,25.5,4,29,4
		C32.6,4,36,5,39,6.9z M16,7c1.1,0,2,0.9,2,2s-0.9,2-2,2s-2-0.9-2-2S14.9,7,16,7z"/>
	<path id="XMLID_4318_" d="M45,50.1V41c0-0.6-0.4-1-1-1h-3v-3.6c0-0.4-0.3-0.8-0.7-1c-0.6-0.2-1.2-0.4-1.8-0.7
		c-0.4-0.2-0.9-0.1-1.2,0.2l-2.6,2.6l-4.2-4.2l2.6-2.6c0.3-0.3,0.4-0.8,0.2-1.2c-0.3-0.6-0.5-1.2-0.7-1.8c-0.1-0.4-0.5-0.7-1-0.7H27
		c-0.6,0-1,0.4-1,1s0.4,1,1,1h3.9c0.1,0.2,0.2,0.5,0.3,0.7l-2.8,2.8c-0.4,0.4-0.4,1,0,1.4l1.1,1.1l-3.4,3.4l-2.3-3.9
		C23.7,34.2,23.4,34,23,34h-2.1c-0.4-1.7-2-3-3.9-3c-2.2,0-4,1.8-4,4s1.8,4,4,4c1.9,0,3.4-1.3,3.9-3h1.6l2.7,4.5
		c0.2,0.3,0.4,0.4,0.7,0.5c0,0,0.1,0,0.1,0c0.3,0,0.5-0.1,0.7-0.3l4.3-4.3l0.8,0.8L26.3,50H21c0,0-0.1,0-0.1,0c-0.4-1.7-2-3-3.9-3
		c-2.2,0-4,1.8-4,4s1.8,4,4,4c1.9,0,3.4-1.3,3.9-3H24v9c0,0.6,0.4,1,1,1s1-0.4,1-1v-9h1c0.4,0,0.8-0.2,0.9-0.6l5.4-12.6l0.8,0.8
		c0.4,0.4,1,0.4,1.4,0l2.8-2.8c0.2,0.1,0.5,0.2,0.7,0.3v8.4l-7.5,4.7C31.2,50.3,31,50.7,31,51v3.1c-1.7,0.4-3,2-3,3.9
		c0,2.2,1.8,4,4,4s4-1.8,4-4c0-1.9-1.3-3.4-3-3.9v-2.6l7.5-4.7c0.3-0.2,0.5-0.5,0.5-0.8v-4h2v8.1c-1.7,0.4-3,2-3,3.9
		c0,2.2,1.8,4,4,4s4-1.8,4-4C48,52.1,46.7,50.6,45,50.1z M17,37c-1.1,0-2-0.9-2-2s0.9-2,2-2s2,0.9,2,2S18.1,37,17,37z M17,53
		c-1.1,0-2-0.9-2-2s0.9-2,2-2c1.1,0,2,0.9,2,2c0,0,0,0,0,0.1C19,52.1,18.1,53,17,53z M34,58c0,1.1-0.9,2-2,2s-2-0.9-2-2s0.9-2,2-2
		S34,56.9,34,58z M44,56c-1.1,0-2-0.9-2-2s0.9-2,2-2s2,0.9,2,2S45.1,56,44,56z"/>
</g>
</svg>
