<?xml version="1.0" encoding="UTF-8"?>
<!DOCTYPE svg PUBLIC "-//W3C//DTD SVG 1.1//EN" "http://www.w3.org/Graphics/SVG/1.1/DTD/svg11.dtd">
<!-- Creator: CorelDRAW -->
<svg xmlns="http://www.w3.org/2000/svg" xml:space="preserve" width="512px" height="512px" version="1.1" style="shape-rendering:geometricPrecision; text-rendering:geometricPrecision; image-rendering:optimizeQuality; fill-rule:evenodd; clip-rule:evenodd"
viewBox="0 0 512 512"
 xmlns:xlink="http://www.w3.org/1999/xlink"
 xmlns:xodm="http://www.corel.com/coreldraw/odm/2003">
 <defs>
  <style type="text/css">
   <![CDATA[
    .fil0 {fill:black}
   ]]>
  </style>
 </defs>
 <g id="Layer_x0020_1">
  <metadata id="CorelCorpID_0Corel-Layer"/>
  <g id="_1822595269488">
   <g>
    <g>
     <g id="_185748208">
      <path class="fil0" d="M227.73 501.52c-38.31,0 -69.64,-28.25 -71.07,-63.47 -36.84,-2.49 -65.94,-31.05 -65.94,-65.79 0,-11.41 3.1,-22.41 9.04,-32.21 -35.23,-13.88 -58.39,-45.93 -58.39,-81.87 0,-37.02 25.02,-70.13 61.81,-83.15 -7.22,-10.53 -11.12,-22.84 -11.12,-35.43 0,-34.87 29.31,-63.51 66.28,-65.83 1.53,-35.14 32.82,-63.29 71.07,-63.29 26.89,0 51.19,13.82 63.4,36.06 1.53,2.78 0.51,6.28 -2.28,7.81 -2.78,1.53 -6.28,0.51 -7.81,-2.27 -10.19,-18.56 -30.62,-30.09 -53.31,-30.09 -32.87,0 -59.62,24.44 -59.62,54.47 0,0.87 0.03,1.75 0.07,2.62 0.09,1.59 -0.49,3.14 -1.59,4.29 -1.1,1.15 -2.62,1.8 -4.21,1.77l-0.94 -0.01c-32.81,0 -59.55,24.43 -59.55,54.47 0,12.6 4.83,24.9 13.6,34.62 1.34,1.49 1.81,3.58 1.24,5.5 -0.58,1.93 -2.12,3.41 -4.07,3.92 -36.19,9.4 -61.46,40.05 -61.46,74.54 0,33.3 23.14,62.81 57.58,73.43 1.81,0.56 3.23,1.97 3.79,3.78 0.57,1.8 0.21,3.77 -0.95,5.26 -7.24,9.27 -11.07,20.2 -11.07,31.61 0,30.03 26.74,54.46 59.61,54.46l0.54 -0.01c1.59,0 3.11,0.62 4.22,1.77 1.1,1.14 1.68,2.7 1.59,4.28 -0.05,1.01 -0.07,1.92 -0.07,2.78 0,30.03 26.74,54.47 59.61,54.47 23.89,0 45.41,-12.98 54.82,-33.06 1.35,-2.88 4.78,-4.12 7.65,-2.77 2.88,1.35 4.12,4.78 2.77,7.65 -11.29,24.11 -36.9,39.69 -65.24,39.69z"/>
     </g>
     <g id="_185748640">
      <path class="fil0" d="M207.33 117.78c-15.26,0 -27.33,-3.79 -35.98,-11.34 -12.84,-11.2 -12.99,-26.41 -12.99,-27.05 0,-3.18 2.58,-5.76 5.76,-5.76 3.16,0 5.73,2.56 5.75,5.72 0.01,0.52 0.29,10.89 9.18,18.54 8.74,7.51 22.82,10 41.85,7.39 3.15,-0.44 6.05,1.77 6.49,4.92 0.43,3.15 -1.78,6.05 -4.92,6.48 -5.35,0.74 -10.4,1.1 -15.14,1.1z"/>
     </g>
     <g id="_185750080">
      <path class="fil0" d="M287.76 465.15c-3.17,0 -5.75,-2.58 -5.75,-5.76l0 -410.08c0,-3.18 2.58,-5.76 5.75,-5.76 3.18,0 5.76,2.58 5.76,5.76l0 410.08c0,3.18 -2.58,5.76 -5.76,5.76z"/>
     </g>
     <g id="_185749528">
      <path class="fil0" d="M252.59 315.31c-9.4,0 -19.91,-2.31 -31.44,-6.92 -2.95,-1.18 -4.39,-4.53 -3.21,-7.48 1.18,-2.95 4.53,-4.39 7.48,-3.21 17.52,7.01 31.77,7.99 42.35,2.92 11.1,-5.32 14.35,-15.58 14.48,-16.01 0.92,-3.03 4.12,-4.76 7.15,-3.85 3.03,0.9 4.77,4.06 3.89,7.1 -0.18,0.62 -4.63,15.38 -20.3,23.02 -6.06,2.95 -12.88,4.43 -20.4,4.43z"/>
     </g>
     <g id="_185748472">
      <path class="fil0" d="M189.33 381.32c-15.26,0 -27.32,-3.79 -35.97,-11.35 -12.84,-11.19 -12.99,-26.4 -12.99,-27.05 0,-3.17 2.58,-5.75 5.76,-5.75 3.16,0 5.73,2.56 5.75,5.72 0.01,0.51 0.29,10.89 9.18,18.53 8.74,7.52 22.82,10.01 41.85,7.4 3.15,-0.44 6.05,1.77 6.48,4.92 0.44,3.15 -1.77,6.05 -4.91,6.48 -5.35,0.73 -10.41,1.1 -15.15,1.1z"/>
     </g>
     <g id="_185747584">
      <path class="fil0" d="M168.64 261.44c-0.75,0 -1.52,-0.15 -2.26,-0.46 -2.92,-1.25 -4.27,-4.64 -3.02,-7.56 7.9,-18.46 18.87,-30.27 32.59,-35.1 17.73,-6.25 33.23,1.81 33.88,2.16 2.81,1.49 3.87,4.98 2.38,7.78 -1.49,2.8 -4.96,3.87 -7.76,2.39 -0.23,-0.12 -11.98,-6.03 -24.82,-1.43 -10.49,3.76 -19.14,13.42 -25.69,28.73 -0.94,2.19 -3.06,3.49 -5.3,3.49z"/>
     </g>
     <g id="_185749840">
      <path class="fil0" d="M142.83 199.29c-2.78,0 -5.52,-0.26 -8.21,-0.77 -17.65,-3.39 -26.24,-16.82 -26.6,-17.39 -1.69,-2.7 -0.87,-6.25 1.82,-7.93 2.68,-1.69 6.22,-0.88 7.91,1.79 0.3,0.46 6.55,9.91 19.23,12.26 11.53,2.14 24.83,-2.23 39.52,-12.98 2.56,-1.88 6.16,-1.32 8.04,1.25 1.88,2.56 1.32,6.16 -1.25,8.04 -14.29,10.46 -27.86,15.73 -40.46,15.73z"/>
     </g>
     <g id="_185748448">
      <path class="fil0" d="M143.17 311.07c-1.03,0 -2.07,-0.04 -3.14,-0.12 -14.84,-1.11 -28.97,-9.89 -42,-26.09 -1.99,-2.48 -1.6,-6.1 0.88,-8.09 2.48,-1.99 6.1,-1.6 8.09,0.88 10.9,13.55 22.24,20.89 33.72,21.81 13.4,1.07 22.78,-7.22 22.88,-7.3 2.35,-2.12 5.98,-1.95 8.11,0.39 2.13,2.34 1.99,5.95 -0.34,8.09 -0.49,0.46 -11.52,10.43 -28.2,10.43z"/>
     </g>
     <g id="_185750152">
      <path class="fil0" d="M229.28 439.28c-0.76,0 -1.53,-0.15 -2.26,-0.47 -2.93,-1.25 -4.28,-4.63 -3.03,-7.56 7.91,-18.46 18.87,-30.27 32.59,-35.1 17.74,-6.25 33.23,1.81 33.88,2.16 2.81,1.49 3.88,4.98 2.38,7.78 -1.49,2.8 -4.96,3.87 -7.76,2.39 -0.23,-0.12 -11.98,-6.03 -24.82,-1.43 -10.49,3.76 -19.13,13.42 -25.69,28.74 -0.93,2.18 -3.06,3.49 -5.29,3.49z"/>
     </g>
    </g>
    <g>
     <g id="_185750272">
      <path class="fil0" d="M353.81 260.1l-66.05 0c-3.17,0 -5.75,-2.57 -5.75,-5.75 0,-3.18 2.58,-5.75 5.75,-5.75l66.05 0c3.17,0 5.75,2.57 5.75,5.75 0,3.18 -2.58,5.75 -5.75,5.75z"/>
     </g>
     <g id="_185750344">
      <path class="fil0" d="M376.32 282.62c-15.59,0 -28.27,-12.68 -28.27,-28.27 0,-15.59 12.68,-28.27 28.27,-28.27 15.59,0 28.27,12.68 28.27,28.27 0,15.59 -12.68,28.27 -28.27,28.27zm0 -45.03c-9.24,0 -16.76,7.52 -16.76,16.76 0,9.24 7.52,16.76 16.76,16.76 9.24,0 16.76,-7.52 16.76,-16.76 0,-9.24 -7.52,-16.76 -16.76,-16.76z"/>
     </g>
     <g id="_185750416">
      <path class="fil0" d="M419.85 172.6l-66.04 0c-3.18,0 -5.76,-2.57 -5.76,-5.75 0,-3.18 2.58,-5.75 5.76,-5.75l66.04 0c3.17,0 5.75,2.57 5.75,5.75 0,3.18 -2.58,5.75 -5.75,5.75z"/>
     </g>
     <g id="_185750488">
      <path class="fil0" d="M442.36 195.12c-15.59,0 -28.27,-12.68 -28.27,-28.27 0,-15.59 12.68,-28.27 28.27,-28.27 15.59,0 28.27,12.68 28.27,28.27 0,15.59 -12.68,28.27 -28.27,28.27zm0 -45.03c-9.24,0 -16.76,7.52 -16.76,16.76 0,9.24 7.52,16.76 16.76,16.76 9.24,0 16.76,-7.52 16.76,-16.76 0,-9.24 -7.52,-16.76 -16.76,-16.76z"/>
     </g>
     <g id="_185750560">
      <path class="fil0" d="M353.81 205.63c-3.18,0 -5.76,-2.58 -5.76,-5.76l0 -33.02c0,-3.17 2.58,-5.75 5.76,-5.75 3.17,0 5.75,2.58 5.75,5.75l0 33.02c0,3.18 -2.58,5.76 -5.75,5.76z"/>
     </g>
     <g id="_185750632">
      <path class="fil0" d="M353.81 205.63l-66.05 0c-3.17,0 -5.75,-2.58 -5.75,-5.76 0,-3.18 2.58,-5.75 5.75,-5.75l66.05 0c3.17,0 5.75,2.57 5.75,5.75 0,3.18 -2.58,5.76 -5.75,5.76z"/>
     </g>
     <g id="_185750704">
      <path class="fil0" d="M419.85 347.61l-66.04 0c-3.18,0 -5.76,-2.58 -5.76,-5.76 0,-3.17 2.58,-5.75 5.76,-5.75l66.04 0c3.17,0 5.75,2.58 5.75,5.75 0,3.18 -2.58,5.76 -5.75,5.76z"/>
     </g>
     <g id="_185750776">
      <path class="fil0" d="M442.36 370.12c-15.59,0 -28.27,-12.68 -28.27,-28.27 0,-15.59 12.68,-28.27 28.27,-28.27 15.59,0 28.27,12.68 28.27,28.27 0,15.59 -12.68,28.27 -28.27,28.27zm0 -45.03c-9.24,0 -16.76,7.52 -16.76,16.76 0,9.24 7.52,16.76 16.76,16.76 9.24,0 16.76,-7.52 16.76,-16.76 0,-9.24 -7.52,-16.76 -16.76,-16.76z"/>
     </g>
     <g id="_185750848">
      <path class="fil0" d="M353.81 347.61c-3.18,0 -5.76,-2.58 -5.76,-5.76l0 -33.02c0,-3.18 2.58,-5.75 5.76,-5.75 3.17,0 5.75,2.57 5.75,5.75l0 33.02c0,3.18 -2.58,5.76 -5.75,5.76z"/>
     </g>
     <g id="_185750920">
      <path class="fil0" d="M353.81 314.59l-66.05 0c-3.17,0 -5.75,-2.58 -5.75,-5.76 0,-3.18 2.58,-5.75 5.75,-5.75l66.05 0c3.17,0 5.75,2.57 5.75,5.75 0,3.18 -2.58,5.76 -5.75,5.76z"/>
     </g>
     <g id="_185750992">
      <path class="fil0" d="M353.81 83.01l-66.05 0c-3.17,0 -5.75,-2.58 -5.75,-5.76 0,-3.17 2.58,-5.75 5.75,-5.75l66.05 0c3.17,0 5.75,2.58 5.75,5.75 0,3.18 -2.58,5.76 -5.75,5.76z"/>
     </g>
     <g id="_185751064">
      <path class="fil0" d="M376.32 105.52c-15.59,0 -28.27,-12.68 -28.27,-28.27 0,-15.58 12.68,-28.26 28.27,-28.26 15.59,0 28.27,12.68 28.27,28.26 0,15.59 -12.68,28.27 -28.27,28.27zm0 -45.02c-9.24,0 -16.76,7.51 -16.76,16.75 0,9.25 7.52,16.77 16.76,16.77 9.24,0 16.76,-7.52 16.76,-16.77 0,-9.24 -7.52,-16.75 -16.76,-16.75z"/>
     </g>
     <g id="_185751136">
      <path class="fil0" d="M353.81 437.2l-66.05 0c-3.17,0 -5.75,-2.57 -5.75,-5.75 0,-3.18 2.58,-5.75 5.75,-5.75l66.05 0c3.17,0 5.75,2.57 5.75,5.75 0,3.18 -2.58,5.75 -5.75,5.75z"/>
     </g>
     <g id="_185751208">
      <path class="fil0" d="M376.32 459.72c-15.59,0 -28.27,-12.68 -28.27,-28.27 0,-15.59 12.68,-28.27 28.27,-28.27 15.59,0 28.27,12.68 28.27,28.27 0,15.59 -12.68,28.27 -28.27,28.27zm0 -45.03c-9.24,0 -16.76,7.52 -16.76,16.76 0,9.24 7.52,16.76 16.76,16.76 9.24,0 16.76,-7.52 16.76,-16.76 0,-9.24 -7.52,-16.76 -16.76,-16.76z"/>
     </g>
    </g>
   </g>
  </g>
 </g>
</svg>
