<svg id="f95e896a-9641-4e16-8b4f-ba0080d74ab5" data-name="glyph" xmlns="http://www.w3.org/2000/svg" viewBox="0 0 64 64"><path d="M25.8486,20.78246H21.748a.96557.96557,0,0,0-.96552.96552V25.8486a.96552.96552,0,0,0,1.931,0V22.7135h3.1351a.96552.96552,0,0,0,0-1.931Z"/><path d="M25.8486,41.2865H22.7135V38.1514a.96552.96552,0,0,0-1.931,0V42.252a.96557.96557,0,0,0,.96552.96552H25.8486a.96552.96552,0,1,0,0-1.931Z"/><path d="M38.1514,22.7135h3.1351v3.1351a.96552.96552,0,0,0,1.931,0V21.748a.96557.96557,0,0,0-.96552-.96552H38.1514a.96552.96552,0,1,0,0,1.931Z"/><circle cx="32.00001" cy="31.99999" r="4.38343" transform="translate(-13.25482 32.00001) rotate(-45)"/><path d="M42.25379,37.18482a.96838.96838,0,0,0-.96552.96552v3.13793H38.15034a.96552.96552,0,0,0,0,1.931h4.10345a.96838.96838,0,0,0,.96552-.96552V38.15034A.96838.96838,0,0,0,42.25379,37.18482Z"/><path d="M59.03448,31.03448H54.96A23.00843,23.00843,0,0,0,32.96552,9.04V4.96552a.96552.96552,0,1,0-1.931,0V9.04A23.00842,23.00842,0,0,0,9.04,31.03448H4.96552a.96552.96552,0,0,0,0,1.931H9.04A23.00841,23.00841,0,0,0,31.03448,54.96v4.07451a.96552.96552,0,1,0,1.931,0V54.96A23.00842,23.00842,0,0,0,54.96,32.96552h4.07445a.96552.96552,0,0,0,0-1.931Zm-26.069,21.98479v-6.4955a.96552.96552,0,0,0-1.931,0v6.4955A21.046,21.046,0,0,1,10.98073,32.96552h6.4955a.96552.96552,0,0,0,0-1.931h-6.4955A21.04606,21.04606,0,0,1,31.03448,10.98067v6.49556a.96552.96552,0,0,0,1.931,0V10.98067A21.04611,21.04611,0,0,1,53.01933,31.03448H46.52377a.96552.96552,0,0,0,0,1.931h6.49556A21.0461,21.0461,0,0,1,32.96552,53.01927Z"/></svg>