<?xml version="1.0" encoding="UTF-8" standalone="no"?>
<!DOCTYPE svg PUBLIC "-//W3C//DTD SVG 1.1//EN" "http://www.w3.org/Graphics/SVG/1.1/DTD/svg11.dtd">
<svg width="100%" height="100%" viewBox="0 0 64 64" version="1.1" xmlns="http://www.w3.org/2000/svg" xmlns:xlink="http://www.w3.org/1999/xlink" xml:space="preserve" xmlns:serif="http://www.serif.com/" style="fill-rule:evenodd;clip-rule:evenodd;stroke-linejoin:round;stroke-miterlimit:2;">
    <path d="M48.442,11.521C48.589,11.368 48.753,11.231 48.931,11.112C49.314,10.857 49.75,10.692 50.206,10.632C50.663,10.572 51.127,10.618 51.562,10.766C51.998,10.914 52.394,11.16 52.719,11.485C53.045,11.811 53.291,12.207 53.439,12.642C53.587,13.078 53.632,13.542 53.572,13.998C53.512,14.455 53.348,14.891 53.092,15.273C52.974,15.451 52.836,15.615 52.684,15.763C53.327,16.734 53.221,18.055 52.366,18.91C51.51,19.765 50.19,19.871 49.219,19.228L43.922,24.525L44.671,25.595C45.09,25.438 45.535,25.352 45.986,25.342C46.777,25.325 47.556,25.543 48.223,25.968C48.89,26.393 49.416,27.006 49.735,27.73C50.054,28.454 50.15,29.257 50.013,30.036C49.876,30.815 49.51,31.536 48.963,32.107C48.416,32.679 47.712,33.075 46.939,33.246C46.167,33.418 45.361,33.356 44.624,33.069C43.887,32.783 43.251,32.283 42.797,31.636L40.914,28.947L37.362,32.499C37.318,32.543 37.271,32.583 37.221,32.617C37.598,33.438 37.81,34.351 37.81,35.317C37.81,36.952 37.731,39.202 36.035,41.932C34.365,44.622 31.182,47.689 25.191,51.167C24.88,51.348 24.497,51.348 24.187,51.167C22.942,50.445 21.819,49.741 20.807,49.054L19.277,50.584C19.143,50.719 18.972,50.812 18.786,50.853L13.338,52.06C13.004,52.133 12.656,52.032 12.414,51.79C12.173,51.549 12.071,51.201 12.145,50.867L13.351,45.418C13.392,45.232 13.486,45.062 13.62,44.927L14.727,43.821C13.323,42.163 12.529,40.637 12.089,39.245C11.597,37.689 11.568,36.355 11.568,35.317C11.568,31.614 14.672,28.697 18.309,28.697C20.12,28.697 21.939,29.417 23.31,30.571C23.835,31.013 24.307,31.529 24.689,32.106C25.07,31.529 25.542,31.013 26.067,30.571C27.096,29.704 28.379,29.082 29.721,28.826L35.865,22.683C35.615,22.737 35.358,22.768 35.1,22.774C34.309,22.791 33.531,22.573 32.863,22.148C32.196,21.723 31.67,21.11 31.351,20.386C31.033,19.662 30.936,18.859 31.073,18.08C31.211,17.301 31.576,16.58 32.123,16.009C32.67,15.437 33.374,15.041 34.147,14.87C34.919,14.698 35.725,14.76 36.462,15.047C37.2,15.333 37.835,15.832 38.289,16.48L40.428,19.534L41.837,18.125C41.863,18.087 41.894,18.051 41.929,18.017C41.958,17.989 41.989,17.963 42.021,17.941L43.604,16.357C43.631,16.319 43.662,16.283 43.697,16.249C43.726,16.221 43.757,16.195 43.789,16.173L44.976,14.985C44.333,14.015 44.439,12.694 45.295,11.839C46.15,10.983 47.471,10.877 48.442,11.521ZM21.584,39.763C21.938,40.03 22.265,40.298 22.572,40.572L16.726,46.418C16.433,46.711 16.433,47.186 16.726,47.479C17.019,47.772 17.494,47.772 17.787,47.479L23.636,41.63C23.913,41.938 24.181,42.264 24.448,42.617C24.389,42.654 24.334,42.698 24.284,42.749L18.069,48.964L14.437,49.768L15.241,46.135L21.455,39.921C21.504,39.872 21.547,39.819 21.584,39.763ZM22.248,47.613L25.581,44.28C25.724,44.509 25.869,44.747 26.017,44.997C26.228,45.353 26.688,45.47 27.044,45.259C27.401,45.048 27.518,44.588 27.307,44.231C26.278,42.496 25.349,41.196 24.212,40.057C23.075,38.919 21.756,37.968 19.977,36.9C19.622,36.687 19.161,36.802 18.948,37.157C18.734,37.512 18.849,37.973 19.205,38.186C19.454,38.336 19.693,38.482 19.921,38.626L16.146,42.401C14.967,40.979 14.338,39.726 13.996,38.643C13.599,37.387 13.568,36.303 13.568,35.317C13.568,32.776 15.719,30.697 18.309,30.697C19.611,30.697 20.982,31.226 22.023,32.101C23.061,32.975 23.689,34.12 23.689,35.317C23.689,35.869 24.136,36.317 24.689,36.317C25.241,36.317 25.689,35.869 25.689,35.317C25.689,34.12 26.316,32.975 27.355,32.101C28.395,31.226 29.766,30.697 31.068,30.697C33.658,30.697 35.81,32.776 35.81,35.317C35.81,36.804 35.743,38.612 34.336,40.877C32.946,43.116 30.193,45.881 24.689,49.143C23.807,48.621 22.995,48.111 22.248,47.613ZM36.64,17.612L36.651,17.628L45.255,29.915C45.571,30.367 46.195,30.477 46.647,30.16C47.1,29.844 47.21,29.22 46.893,28.768L45.899,27.349C45.943,27.345 45.986,27.343 46.03,27.342C46.426,27.333 46.815,27.442 47.148,27.654C47.482,27.867 47.745,28.174 47.904,28.536C48.064,28.898 48.112,29.299 48.043,29.689C47.975,30.078 47.792,30.439 47.518,30.724C47.245,31.01 46.893,31.208 46.507,31.294C46.12,31.379 45.718,31.349 45.349,31.205C44.98,31.062 44.662,30.812 44.435,30.488L44.43,30.481L37.56,20.669C37.557,20.666 37.555,20.662 37.553,20.659C37.55,20.655 37.547,20.651 37.545,20.648L35.832,18.201C35.515,17.749 34.891,17.639 34.439,17.956C33.987,18.272 33.877,18.896 34.193,19.348L35.187,20.767C35.143,20.771 35.1,20.773 35.056,20.774C34.661,20.783 34.272,20.674 33.938,20.461C33.604,20.249 33.341,19.942 33.182,19.58C33.023,19.218 32.974,18.817 33.043,18.427C33.112,18.038 33.294,17.677 33.568,17.392C33.841,17.106 34.194,16.908 34.58,16.822C34.966,16.736 35.369,16.767 35.737,16.911C36.1,17.052 36.414,17.296 36.64,17.612ZM38.898,28.135L36.104,30.929C35.823,30.62 35.514,30.337 35.181,30.085L37.142,28.124C37.198,28.121 37.262,28.118 37.333,28.115C37.62,28.104 38.007,28.096 38.412,28.109C38.576,28.114 38.74,28.123 38.898,28.135ZM36.069,25.307C36.082,25.465 36.09,25.628 36.096,25.792C36.109,26.197 36.101,26.584 36.09,26.872C36.087,26.942 36.084,27.006 36.081,27.063L33.943,29.201C33.912,29.232 33.884,29.265 33.86,29.299C33.434,29.107 32.986,28.957 32.521,28.855L36.069,25.307ZM39.32,26.669C39.03,26.636 38.736,26.618 38.461,26.61C38.151,26.6 37.855,26.601 37.598,26.606C37.604,26.35 37.605,26.053 37.595,25.744C37.581,25.297 37.543,24.801 37.455,24.357C37.433,24.247 37.406,24.127 37.371,24.005L37.42,23.956L39.32,26.669ZM42.822,19.968L42.113,20.678L43.527,22.092L44.236,21.383L42.822,19.968ZM43.88,18.91L45.295,20.324L46.004,19.615L44.59,18.201L43.88,18.91ZM45.648,17.142L47.062,18.556L47.77,17.849L47.062,17.142L46.355,16.435L45.648,17.142ZM50.25,17.501L48.477,15.728L46.709,13.96C46.514,13.765 46.514,13.448 46.709,13.253C46.904,13.058 47.221,13.058 47.416,13.253L50.952,16.789C51.147,16.984 51.147,17.3 50.952,17.496C50.758,17.689 50.446,17.691 50.25,17.501ZM51.305,14.314L49.891,12.9C49.937,12.853 49.988,12.812 50.042,12.775C50.17,12.69 50.315,12.635 50.467,12.615C50.62,12.595 50.774,12.61 50.919,12.66C51.065,12.709 51.197,12.791 51.305,12.9C51.414,13.008 51.496,13.14 51.545,13.285C51.594,13.431 51.609,13.585 51.589,13.737C51.569,13.889 51.515,14.035 51.429,14.162C51.393,14.217 51.351,14.268 51.305,14.314Z"/>
</svg>
