<svg id="bb0726c1-74ee-4d3e-87ec-d2faa7992f14" data-name="Line" xmlns="http://www.w3.org/2000/svg" viewBox="0 0 64 64"><title>1</title><path d="M19.25822,38.77553a.96294.96294,0,0,0,1.38044-1.306c-2.52364-3.59791-4.66234-5.105-6.53282-4.62154-2.58182.67335-3.08121,4.86306-3.1295,5.33854A.96631.96631,0,0,0,12.483,39.07,5.6686,5.6686,0,0,1,19.25822,38.77553Zm-5.93077-2.33424c.819-2.12121,1.56719-2.37246,3.56554-.51208A7.66454,7.66454,0,0,0,13.32745,36.44129Z"/><path d="M24.3609,38.00464a.96049.96049,0,0,0,.85295-.51909,5.708,5.708,0,0,1,6.30074-2.5232.9669.9669,0,0,0,1.01234-1.42129c-3.03547-5.10089-7.57986-5.47121-9.10847,3.32046A.96429.96429,0,0,0,24.3609,38.00464Zm3.461-6.15538c.61456-.071,1.223.42008,1.85361,1.0644a7.69423,7.69423,0,0,0-3.461.99786C26.90755,32.1728,27.57528,31.89052,27.82193,31.84926Z"/><path d="M18.51453,50.608a8.06514,8.06514,0,0,0,12.11613-2.59273,12.21149,12.21149,0,0,0,1.2-4.96188,1.56018,1.56018,0,0,0-2.80036-.94665C25.905,46.364,22.14621,47.16422,17.557,44.56169a1.56169,1.56169,0,0,0-1.84559.23792,1.51087,1.51087,0,0,0-.32214,1.77154A12.18926,12.18926,0,0,0,18.51453,50.608Zm2.104-2.82893c3.49367.93031,6.99648-.92784,9.18494-3.58121-.25322,2.71091-2.09493,5.58507-5.02066,6.09634-2.87961.73109-5.73688-1.13833-7.07568-3.50795A16.20529,16.20529,0,0,0,20.61853,47.77907Z"/><path d="M53.05444,12.0575a.95813.95813,0,0,0-1.03723.04268,5.66808,5.66808,0,0,1-6.77434.29494A.96286.96286,0,0,0,43.862,13.7006c4.79922,7.17876,8.92528,5.42834,9.66187-.71758A.96.96,0,0,0,53.05444,12.0575Zm-3.145,4.40635c-.241.0619-.96455.0769-2.30188-1.22292a7.65035,7.65035,0,0,0,3.56559-.51205C50.8712,15.58793,50.437,16.32693,49.90946,16.46385Z"/><path d="M40.45483,13.21946a.96033.96033,0,0,0-1.16852.46563,5.71616,5.71616,0,0,1-6.30075,2.52321.96674.96674,0,0,0-1.01234,1.42128c3.08262,5.15794,7.59295,5.402,9.10847-3.32045A.95913.95913,0,0,0,40.45483,13.21946Zm-3.7766,6.10146c-.5294.09331-1.23042-.40561-1.8536-1.064a7.6938,7.6938,0,0,0,3.461-.99784C37.5926,18.99737,36.92488,19.27966,36.67823,19.32092Z"/><path d="M38.94541,34.33448a1.53874,1.53874,0,0,0,1.75325-.5294c1.68283-2.32464,4.55247-4.47594,7.60624-3.63955a13.27056,13.27056,0,0,1,3.36157,1.29266,1.53614,1.53614,0,0,0,2.134-1.98027,11.744,11.744,0,0,0-3.01081-3.88814,7.78714,7.78714,0,0,0-11.69177,2.50177A11.75157,11.75157,0,0,0,37.941,32.87148,1.49026,1.49026,0,0,0,38.94541,34.33448Zm1.86485-5.37418c2.36291-4.43342,8.29374-3.94973,10.63007.2417-2.95034-1.43238-6.70462-1.63552-9.37667.52793a15.63945,15.63945,0,0,0-2.082,1.92332A8.95933,8.95933,0,0,1,40.81026,28.9603Z"/><path d="M57.608,16.83664c-1.47689-2.84888.02769-5.886-.83241-8.98338a4.79016,4.79016,0,0,0-6.11266-3.619c-.60814.19406-1.46952.43461-2.55927.71455A.96056.96056,0,0,0,48.582,6.80946c2.0453-.38529,3.20762-1.43465,4.96014-.48778,3.0199,2.22218.7107,6.5428,1.69566,9.503.77927,2.98335,2.70741,4.73764,1.17881,9.70888-4.21548,14.01864-8.70278,21.0646-20.88791,6.36934.33547-3.67566.71026-9.14859-4.216-9.85723.05665-3.16333-2.3305-5.25739-2.85119-8.35164a2.86976,2.86976,0,0,1,2.50544-3.43051c2.9269-.28232,9.2314-1.52165,13.85016-2.55372a.96062.96062,0,0,0-.41926-1.87468c-4.7078,1.05221-10.896,2.254-13.61662,2.51662a4.80311,4.80311,0,0,0-4.19762,5.74466c.404,2.85589,2.27241,4.53406,2.716,7.10482-.00762.22651.24357.89125-.0066,1.02092A154.91115,154.91115,0,0,1,9.41393,26.33863a4.80043,4.80043,0,0,0-4.18636,5.762c.48523,3.23629,3.022,5.34624,2.821,8.59083a12.25091,12.25091,0,0,0,3.31374,8.99466c.8229.874,1.6735,1.77811,2.4261,2.69483a1.008,1.008,0,0,0,1.56665.23113.98851.98851,0,0,0-.07319-1.43857c-.858-1.04642-1.787-2.02213-2.69153-2.98555-4.4529-5.131-1.16317-8.16578-3.95622-12.58271-1.371-2.23566-3.02629-6.68512.96466-7.35489,4.5038-.40732,16.5149-3.04023,20.85281-4.322,4.96546.01435,2.68364,6.34531,3.2954,9.25729.67848,3.49209,2.95849,5.33151,1.312,10.34471-.44294,1.25091-.91,2.5094-1.28522,3.8089C33.17589,50.01075,29.89586,57.507,26.37751,58.018c-2.22688.42088-5.19888-.99739-8.4177-3.98979a.96062.96062,0,0,0-1.30916,1.40582C28.55414,66.629,33.6429,55.04757,36.86834,44.17434a11.72573,11.72573,0,0,0-.02652-7.8964c10.02462,10.39313,16.483,5.58474,20.13556-6.40384.35769-1.23592.81757-2.48316,1.24867-3.69631A12.19165,12.19165,0,0,0,57.608,16.83664Z"/></svg>