<?xml version="1.0" encoding="utf-8"?>
<!-- Generator: Adobe Illustrator 24.0.0, SVG Export Plug-In . SVG Version: 6.00 Build 0)  -->
<svg version="1.1" id="icon" xmlns="http://www.w3.org/2000/svg" xmlns:xlink="http://www.w3.org/1999/xlink" x="0px" y="0px"
	 viewBox="0 0 340 340" style="enable-background:new 0 0 340 340;" xml:space="preserve">
<g>
	<path d="M105.9,147.5c-10.7-7.9-23.4-11.5-23.9-11.7c-1.8-0.6-4.5,0.3-4.5,3.4v27.3c0,1.5,1,2.9,2.5,3.4
		c12.2,3.6,21.6,10.5,21.7,10.5c3,1.6,5.6-0.5,5.6-2.8v-27.1C107.3,149.2,106.8,148.2,105.9,147.5z M100.3,171.1
		c-3.8-2.2-9.4-5.1-15.8-7.2v-19.8c4,1.5,10.1,4.2,15.8,8.1V171.1z"/>
	<path d="M80.2,67.5c1.1,0.2,3.8,0.9,4.1,0.9c4,0,4.8-5.9,0.9-6.9c-1.2-0.3-2.3-0.6-3.5-0.9C77.2,59.8,75.7,66.4,80.2,67.5z"/>
	<path d="M104.2,76.2c22.5,10,38.6,27.4,38.8,27.5c0.7,0.8,3.2,1.6,4.9,0.2c1.5-1.2,1.5-3.5,0.2-4.9c-0.7-0.8-17.2-18.6-41.1-29.2
		C102.8,68,100.1,74.2,104.2,76.2z"/>
	<path d="M80.2,93.4c35.2,8,62.5,36,62.8,36.3c2.1,1.9,4.2,0.9,4.9,0.1c1.3-1.4,1.4-3.6,0.1-4.9c-1.2-1.2-29-29.8-66.3-38.2
		C77.3,85.6,75.7,92.2,80.2,93.4z"/>
	<path d="M81.8,112.4c-4.5-0.9-6,5.7-1.5,6.8c35.2,8,62.6,36,62.8,36.3c0.7,0.7,3.2,1.6,4.9,0.1c1.5-1.2,1.4-3.6,0.1-4.9
		C146.9,149.4,119.1,120.9,81.8,112.4z"/>
	<path d="M122.7,156.2c-4.1-2.1-7.4,3.8-3.4,6.1c12.5,6.9,23.6,18.8,23.7,18.9c0.7,0.7,3.3,1.7,4.9,0.2c1.4-1.3,1.5-3.5,0.2-4.9
		C147.7,176,136.2,163.7,122.7,156.2z"/>
	<path d="M122.7,182.1c-4.1-2.1-7.4,3.8-3.4,6.1c12.5,6.9,23.6,18.8,23.7,18.9c0.7,0.7,3.3,1.7,4.9,0.2c1.4-1.3,1.5-3.5,0.2-4.9
		C147.7,201.9,136.2,189.6,122.7,182.1z"/>
	<path d="M331.1,94.6c-20.9-10.5-41.8-15.4-61-17.2c-2.1-0.2-3.8,1.4-3.8,3.5c0,1.8,1.4,3.3,3.2,3.5c17.8,1.7,37.2,6.2,56.6,15.6
		v178.7c-56.7-25.2-111-16.4-153,0.1V99.9c1.6-0.7,8.3-3.6,11.5-4.8c1.3-0.5,2.3-1.7,2.4-3.2c0.1-2.5-2.4-4.4-4.8-3.5
		c-2.9,1.1-9.5,3.9-11.2,4.6c-23.5-36.4-61-64.4-126-70.3c-1-0.1-3.8,0.5-3.8,3.5v56c-5.9,1.6-20.6,6-32.4,12.3
		C7.7,95.2,7,96.4,7,97.7v215.8c0,2.5,2.2,3.9,4.5,3.5c86.6-24.2,145.2-3.1,158.1-0.1c12.9-3,72.5-24.1,159,0.1
		c2.9,0.5,4.5-0.9,4.5-3.5V97.7C333,96.4,332.3,95.2,331.1,94.6z M14,99.8c9.7-4.8,21.2-8.4,27.3-10.2v122.8c0,1.8,1.4,3.4,3.2,3.5
		c59.4,5.4,92.7,28.9,116.5,60.7c-43.5-15.3-90.4-22.4-147,1.9V99.8z M166,308.8c-44-12.3-88.6-15.5-152,0.3v-7.5
		c68-29.7,141.1-4.2,152-0.1V308.8z M166,294c-40.9-14-97.5-22.2-152-0.1v-7.7c54.7-26.5,113.4-16.7,152,0V294z M166,271.6
		c-4.5-6.4-36.4-56.5-117.8-62.4V30.2c59.8,5.7,98.1,35.3,117.8,68.4V271.6z M326,309.1c-53-15.5-117.2-11.5-153-0.3v-7.2
		c10.3-3.9,84.6-29.9,153,0V309.1z M326,294c-54.4-22.2-112.2-13.8-153,0.2v-7.7c12.5-5.6,83.1-33.9,153-0.1V294z"/>
	<path d="M234.7,26.6h-17.5c-1.9,0-3.5,1.6-3.5,3.5v10.6h-4.5l-1.6-11.1c-0.2-1.7-1.7-3-3.5-3h-17c-2.1,0-3.8,1.9-3.5,4
		c0,0,3.9,29.8,3.9,29.8c0.7,5.4,4.9,9.7,10.2,10.6v112.2c0,1.9,1.6,3.5,3.5,3.5c1.2-0.1,110.2-0.3,110.8,0c1.9,0,3.5-1.6,3.5-3.5
		v-74.9c0-1.9-1.6-3.5-3.5-3.5h-21.5c-1.9,0-3.5,1.6-3.5,3.5v9.5h-11.2v-9.5c0-1.9-1.6-3.5-3.5-3.5h-18V70.9
		c5.3-0.9,9.5-5.1,10.2-10.6l3.9-29.8c0.3-2-1.4-4-3.5-4c0,0-17,0-17,0c-1.7,0-3.2,1.3-3.5,3l-1.6,11.1h-4.5V30.1
		C238.2,28.2,236.6,26.6,234.7,26.6z M231.4,179.6h-10.9v-10.8c0-3,2.4-5.4,5.4-5.4s5.4,2.4,5.4,5.4V179.6z M247.2,179.6h-8.8v-10.8
		c0-6.9-5.6-12.4-12.4-12.4c-6.9,0-12.4,5.6-12.4,12.4v10.8h-8.8v-27.3h42.5V179.6z M247.2,145.3h-42.5v-19.2H238
		c4.6-0.1,4.6-6.9,0-7c0,0-8.6,0-8.6,0v-10.7h3.2c1.9,0,3.5-1.6,3.5-3.5v-5.9h11V145.3z M219.2,108.4h3.2v10.7h-17.8V99.1h11v5.9
		C215.7,106.9,217.3,108.4,219.2,108.4z M222.7,101.4V89.7h6.5v11.7H222.7z M247.2,92.1h-11v-5.9c0-1.9-1.6-3.5-3.5-3.5h-13.5
		c-1.9,0-3.5,1.6-3.5,3.5v5.9h-11v-21h42.5V92.1z M308.5,179.6h-23.8v-9.1c0-1.9-1.6-3.5-3.5-3.5s-3.5,1.6-3.5,3.5v9.1h-23.5v-17.9
		h54.3V179.6z M254.2,154.7v-15.1h12v15.1H254.2z M273.2,154.7v-15.1h15.9v15.1H273.2z M308.5,154.7h-12.3v-15.1h12.3V154.7z
		 M284.7,124.8h5.8c1.9,0,3.5-1.6,3.5-3.5v-9.5h14.5v20.9h-23.8V124.8z M268.7,111.8v9.5c0,1.9,1.6,3.5,3.5,3.5h5.5v7.9h-23.5v-20.9
		H268.7z M245.8,47.7c1.7,0,3.2-1.3,3.5-3l1.6-11.1h10l-3.4,25.8c-0.3,2.7-2.6,4.7-5.3,4.7h-52.4c-2.7,0-5-2-5.3-4.7l-3.4-25.8h10
		l1.6,11.1c0.2,1.7,1.7,3,3.5,3c16.4-0.3,14.6,2.8,14.6-14.1h10.5C231.2,50.5,229.4,47.4,245.8,47.7z"/>
</g>
</svg>
