<?xml version="1.0" encoding="utf-8"?>
<!-- Generator: Adobe Illustrator 26.0.1, SVG Export Plug-In . SVG Version: 6.00 Build 0)  -->
<svg version="1.1" id="Outline" xmlns="http://www.w3.org/2000/svg" xmlns:xlink="http://www.w3.org/1999/xlink" x="0px" y="0px"
	 viewBox="0 0 64 64" enable-background="new 0 0 64 64" xml:space="preserve">
<g>
	<circle cx="28" cy="19" r="1"/>
	<circle cx="36" cy="19" r="1"/>
	<path d="M31.293,23.707C31.488,23.902,31.744,24,32,24s0.512-0.098,0.707-0.293c0.391-0.391,0.391-1.023,0-1.414l-0.49-0.49
		l0.678-1.355c0.247-0.494,0.047-1.095-0.447-1.342c-0.495-0.248-1.095-0.046-1.342,0.447l-1,2c-0.192,0.385-0.117,0.85,0.188,1.154
		L31.293,23.707z"/>
	<path d="M29.707,16.293l-1-1c-0.941-0.941-2.473-0.941-3.414,0c-0.391,0.391-0.391,1.023,0,1.414s1.023,0.391,1.414,0
		c0.211-0.211,0.375-0.211,0.586,0l1,1C28.488,17.902,28.744,18,29,18s0.512-0.098,0.707-0.293
		C30.098,17.316,30.098,16.684,29.707,16.293z"/>
	<path d="M33.553,25.105c-0.973,0.486-2.133,0.486-3.105,0c-0.495-0.248-1.095-0.046-1.342,0.447
		c-0.247,0.494-0.047,1.095,0.447,1.342c0.766,0.383,1.607,0.575,2.447,0.575s1.681-0.192,2.447-0.575
		c0.494-0.247,0.694-0.848,0.447-1.342C34.647,25.059,34.047,24.857,33.553,25.105z"/>
	<path d="M29.586,41l1.707,1.707C31.488,42.902,31.744,43,32,43s0.512-0.098,0.707-0.293L34.414,41H39c0.552,0,1-0.448,1-1
		s-0.448-1-1-1h-5c-0.265,0-0.52,0.105-0.707,0.293L32,40.586l-1.293-1.293C30.52,39.105,30.265,39,30,39h-5c-0.552,0-1,0.448-1,1
		s0.448,1,1,1H29.586z"/>
	<path d="M35,57h-2v-1c0-0.552-0.448-1-1-1s-1,0.448-1,1v1h-2c-0.552,0-1,0.448-1,1s0.448,1,1,1h2v2c0,0.552,0.448,1,1,1
		s1-0.448,1-1v-2h2c0.552,0,1-0.448,1-1S35.552,57,35,57z"/>
	<path d="M38.707,55.293c-0.391-0.391-1.023-0.391-1.414,0s-0.391,1.023,0,1.414L38,57.414V61c0,0.552,0.448,1,1,1s1-0.448,1-1v-4
		c0-0.265-0.105-0.52-0.293-0.707L38.707,55.293z"/>
	<path d="M25.293,55.293l-1,1C24.105,56.48,24,56.735,24,57v4c0,0.552,0.448,1,1,1s1-0.448,1-1v-3.586l0.707-0.707
		c0.391-0.391,0.391-1.023,0-1.414S25.684,54.902,25.293,55.293z"/>
	<path d="M56.694,51.752l-0.701-3.88l-0.536-6.949c-0.043-0.551-0.519-0.964-1.074-0.92c-0.55,0.042-0.962,0.523-0.92,1.074
		L53.92,47H49v-4h2c0.552,0,1-0.448,1-1s-0.448-1-1-1h-4c-1.103,0-2-0.897-2-2v-4c0-1.103,0.897-2,2-2h4
		c1.103,0,2,0.897,2.003,2.075l0.15,2c0.041,0.551,0.516,0.957,1.072,0.922c0.551-0.041,0.964-0.521,0.922-1.072L55,35
		c0-2.206-1.794-4-4-4h-4c-1.8,0-3.308,1.203-3.808,2.841C41.78,33.291,40.28,33,38.783,33H38v-3.019c2.423-1.827,4-4.719,4-7.981
		v-0.101c2.279-0.465,4-2.484,4-4.899c0-1.404-0.973-2.576-2.277-2.902l0.211-1.148c0.316-1.736,0.13-3.52-0.538-5.158
		c-0.208-0.512-0.792-0.76-1.304-0.548c-0.511,0.208-0.757,0.792-0.548,1.304c0.524,1.284,0.67,2.682,0.422,4.042l-0.157,0.856
		C41.629,13.183,41.342,13,41,13h-3.021c-3.518,0-6.884-1.499-9.236-4.113c-0.242-0.27-0.612-0.387-0.966-0.306
		s-0.636,0.347-0.737,0.696c-0.518,1.784-1.959,3.172-3.761,3.623l-0.521,0.13C22.312,13.141,22,13.541,22,14v0.184
		c-0.203-0.072-0.414-0.12-0.634-0.147c-0.617-1.975-0.804-4.055-0.514-6.089c1.871-0.227,3.619-1.192,4.793-2.679
		c0.597-0.757,1.493-1.209,2.451-1.24L34.8,4c1.261,0,2.511,0.332,3.607,0.954c0.412,0.24,0.758,0.482,1.059,0.743
		c0.417,0.36,1.049,0.314,1.411-0.103c0.361-0.418,0.315-1.049-0.103-1.411c-0.396-0.342-0.841-0.655-1.37-0.963
		C37.999,2.422,36.406,2,34.8,2l-5.626,0l-1.136,0.03c-1.556,0.049-3,0.779-3.963,2C23.1,5.264,21.577,6,20,6
		c-0.477,0-0.887,0.336-0.98,0.804c-0.508,2.542-0.372,5.178,0.377,7.67C18.56,15.007,18,15.937,18,17c0,2.414,1.721,4.434,4,4.899
		V22c0,3.262,1.577,6.154,4,7.981V33h-0.783c-0.516,0-1.04,0.034-1.555,0.101c-0.548,0.071-0.934,0.573-0.863,1.121
		c0.065,0.504,0.496,0.871,0.99,0.871c0.043,0,0.087-0.002,0.13-0.008C24.35,35.028,24.787,35,25.217,35H27c0.552,0,1-0.448,1-1
		v-2.841C29.226,31.697,30.578,32,32,32s2.774-0.303,4-0.841V34c0,0.552,0.448,1,1,1h1.783c1.441,0,2.883,0.337,4.217,0.945V39
		c0,2.206,1.794,4,4,4v12c0,0.552,0.448,1,1,1s1-0.448,1-1v-6h5.165l0.563,3.116c0.056,0.295,0.083,0.59,0.083,0.904
		c0,2.746-2.243,4.98-5,4.98c-2.389,0-4.514-1.605-5.168-3.906L44,51.859V46c0-0.552-0.448-1-1-1s-1,0.448-1,1v4.465L39.697,52
		h-5.283l-1.707-1.707c-0.391-0.391-1.023-0.391-1.414,0L29.586,52h-5.283L22,50.465V46c0-0.552-0.448-1-1-1s-1,0.448-1,1v5.861
		L19.36,54.1c-0.656,2.296-2.783,3.9-5.171,3.9c-1.487,0-2.886-0.655-3.839-1.796c-0.953-1.142-1.346-2.635-1.08-4.098
		c0.099-0.543-0.262-1.064-0.805-1.163c-0.539-0.098-1.063,0.262-1.163,0.805c-0.373,2.048,0.179,4.139,1.512,5.737
		C10.148,59.083,12.107,60,14.189,60c2.318,0,4.439-1.115,5.811-2.874V61c0,0.552,0.448,1,1,1s1-0.448,1-1v-8.132l1.445,0.964
		C23.609,53.941,23.803,54,24,54h6c0.265,0,0.52-0.105,0.707-0.293L32,52.414l1.293,1.293C33.48,53.895,33.735,54,34,54h6
		c0.197,0,0.391-0.059,0.555-0.168L42,52.868V61c0,0.552,0.448,1,1,1s1-0.448,1-1v-3.876C45.37,58.884,47.492,60,49.81,60
		c3.86,0,7-3.131,7-6.98C56.81,52.58,56.771,52.163,56.694,51.752z M42,19.829V17c0-0.551,0.449-1,1-1s1,0.449,1,1
		C44,18.304,43.164,19.416,42,19.829z M20,17c0-0.551,0.449-1,1-1s1,0.449,1,1v2.829C20.836,19.416,20,18.304,20,17z M24,22v-7.223
		c1.862-0.534,3.423-1.798,4.346-3.465c2.126,1.906,4.779,3.125,7.6,3.529c-0.234,0.114-0.458,0.258-0.652,0.453l-1,1
		c-0.391,0.391-0.391,1.023,0,1.414C34.488,17.902,34.744,18,35,18s0.512-0.098,0.707-0.293l1-1c0.211-0.211,0.375-0.211,0.586,0
		c0.391,0.391,1.023,0.391,1.414,0s0.391-1.023,0-1.414c-0.112-0.112-0.233-0.208-0.359-0.293H40v7c0,4.411-3.589,8-8,8
		S24,26.411,24,22z"/>
	<path d="M9,49h6v6c0,0.552,0.448,1,1,1s1-0.448,1-1V43c2.206,0,4-1.794,4-4v-4c0-2.206-1.794-4-4-4h-4
		c-2.206,0-4,1.794-3.997,3.923l-1,13c-0.021,0.278,0.074,0.552,0.263,0.756C8.456,48.884,8.722,49,9,49z M11,35
		c0-1.103,0.897-2,2-2h4c1.103,0,2,0.897,2,2v4c0,1.103-0.897,2-2,2h-4c-0.552,0-1,0.448-1,1s0.448,1,1,1h2v4h-4.92L11,35z"/>
</g>
</svg>
