<?xml version="1.0" encoding="utf-8"?>
<!-- Generator: Adobe Illustrator 23.0.1, SVG Export Plug-In . SVG Version: 6.00 Build 0)  -->
<svg version="1.1" xmlns="http://www.w3.org/2000/svg" xmlns:xlink="http://www.w3.org/1999/xlink" x="0px" y="0px"
	 viewBox="0 0 72 72" style="enable-background:new 0 0 72 72;" xml:space="preserve">
<g id="Layer_2">
</g>
<g id="Layer_3">
</g>
<g id="Layer_4">
</g>
<g id="Layer_5">
</g>
<g id="Layer_6">
</g>
<g id="Layer_7">
</g>
<g id="Layer_8">
</g>
<g id="Layer_9">
</g>
<g id="Layer_10">
</g>
<g id="Layer_11">
</g>
<g id="Layer_12">
</g>
<g id="Layer_13">
</g>
<g id="Layer_14">
</g>
<g id="Layer_15">
</g>
<g id="Layer_16">
</g>
<g id="Layer_17">
</g>
<g id="Layer_18">
</g>
<g id="Layer_19">
</g>
<g id="Layer_20">
</g>
<g id="Layer_21">
</g>
<g id="Layer_22">
</g>
<g id="Layer_23">
</g>
<g id="Layer_25">
	<g>
		<path d="M66,28h-2c-1.51099,0-2.75183,1.1264-2.9577,2.58148C58.44958,28.2937,55.12708,27,51.59668,27H32.47949
			c-11.43945,0-21.06885,9.07715-21.46582,20.23486c-0.20459,5.75928,1.88135,11.20898,5.87402,15.34668
			C20.88232,66.7207,26.24902,69,32,69h1c4.07178,0,7.43591-3.06006,7.93054-7h7.25891C52.77197,62,57.2478,60.59229,61,58.00793V59
			c0,1.6543,1.3457,3,3,3h2c1.6543,0,3-1.3457,3-3V31C69,29.3457,67.6543,28,66,28z M48.18945,60H37.27441
			c-2.72217,0-5.11279-1.4505-6.35876-3.60071c0.10321-0.23657,0.11646-0.51208,0.01306-0.77087
			c-0.02942-0.07336-0.28784-0.69055-0.83954-1.52148c-0.03406-0.21002-0.06006-0.42267-0.07404-0.63867
			c-0.10626-1.64233,0.35028-3.21387,1.28424-4.5202c0.20978-0.0661,0.401-0.19604,0.53265-0.39337
			c0.02252-0.03381,0.16345-0.2533,0.33429-0.60547C33.47357,46.69409,35.17249,46,37,46h0.16895
			c3.99609,0,7.91895-1.08643,11.3457-3.14258c0.47363-0.28418,0.62695-0.89844,0.34277-1.37207
			c-0.28418-0.47314-0.89746-0.62744-1.37207-0.34277C44.37012,43.01172,40.80273,44,37.16895,44H37
			c-1.44104,0-2.84888,0.36011-4.11206,1.00934c0.02234-1.0849-0.22583-2.31891-1.05591-3.56403
			c-0.30713-0.45996-0.92822-0.58447-1.38672-0.27734c-0.45947,0.30615-0.5835,0.92725-0.27734,1.38672
			c1.10712,1.66071,0.70612,3.32593,0.33618,4.22272c-0.02283,0.0238-0.04846,0.04425-0.07104,0.0683
			c-1.30536,1.39246-2.11047,3.10999-2.35309,4.95837c-1.36426-1.21155-3.28052-2.35126-5.91547-2.79041
			c-0.54883-0.09033-1.06006,0.27832-1.15088,0.82178c-0.09082,0.54492,0.27734,1.06006,0.82178,1.15088
			c3.40717,0.56799,5.37714,2.52643,6.38,3.91992C29.11414,58.97327,32.85364,62,37.27441,62h1.63525
			C38.43134,64.83313,35.96722,67,33,67h-1c-5.20313,0-10.05908-2.0625-13.67334-5.80762
			c-3.6123-3.74316-5.49951-8.6748-5.31396-13.88623C13.37158,37.21191,22.104,29,32.47949,29h19.11719
			c3.6535,0,7.05658,1.59894,9.40332,4.38031v22.12531C57.36725,58.39911,52.84204,60,48.18945,60z M67,59c0,0.55127-0.44824,1-1,1
			h-2c-0.55176,0-1-0.44873-1-1V31c0-0.55127,0.44824-1,1-1h2c0.55176,0,1,0.44873,1,1V59z"/>
		<path d="M5.40576,42.15625c2.521-2.13623,9.82959-9.33301,8.72949-20.15967c4.34766-0.12012,19.33398-1.55078,22.44824-15.41357
			c2.37744,2.96582,7.74561,8.05176,16.84521,8.48682c-2.73535,1.20215-7.43457,2.20703-14.1123-0.01855
			c-0.44434-0.14648-0.93262,0.03223-1.17383,0.43408c-0.05664,0.09473-5.85645,9.45508-20.07617,8.51709
			c-0.54932-0.0459-1.02783,0.37988-1.06396,0.93115c-0.03711,0.55078,0.37988,1.02734,0.93115,1.06396
			c13.30566,0.89355,19.78613-6.50146,21.47363-8.81689c11.96484,3.67773,18.04297-2.21582,18.2998-2.47363
			c0.29688-0.29688,0.37695-0.74756,0.2002-1.12842c-0.17773-0.38135-0.5791-0.61279-0.99219-0.5752
			c-14.1377,1.20801-19.79883-9.03857-20.0332-9.47461c-0.20801-0.38623-0.64355-0.59277-1.07129-0.50977
			c-0.42969,0.08301-0.75586,0.43555-0.8042,0.87061C33.13428,20.7334,13.8623,20.03906,13.04688,20.00098
			c-0.29639-0.01367-0.58936,0.10742-0.79004,0.33057s-0.29102,0.52393-0.24512,0.82031
			C13.89209,33.375,3.51611,41.11523,3.41113,41.19189c-0.2207,0.16113-0.36572,0.40527-0.40186,0.67578
			s0.03955,0.54395,0.20996,0.75684l4,5C7.4165,47.87158,7.70703,48,8.00049,48c0.21924,0,0.43994-0.07178,0.62402-0.21924
			c0.43164-0.34473,0.50146-0.97412,0.15625-1.40527L5.40576,42.15625z"/>
	</g>
</g>
</svg>
