<svg xmlns="http://www.w3.org/2000/svg" viewBox="0 0 64 64"><g id="Layer_32" data-name="Layer 32"><path d="M41.9,34.424l3.961.566a1,1,0,0,0,1.083-.654l4.924-13.787,2.842-2.842-1.414-1.414-1.751,1.751-.572-2.286-1.94.484.927,3.707L45.333,32.9l-2.5-.357a4.864,4.864,0,0,0-.829-4.193L40.32,26.094l.161-.161a5.127,5.127,0,0,0,1.289-2.218l1.675,1.117A1.007,1.007,0,0,0,44,25a1.028,1.028,0,0,0,.285-.041,1,1,0,0,0,.634-.565l3-7a1,1,0,0,0,.067-.558l-.959-5.756.921-2.764-1.9-.632-.586,1.757L43.555,8.168l-1.11,1.664,2.64,1.76.881,5.283L43.555,22.5l-1.631-1.087a5.144,5.144,0,0,0-.8-2.022l-1-1.509,1.117-2.792a10.62,10.62,0,0,0-3.97-12.779L35.555,1.168a1,1,0,0,0-1.5,1.148L35.54,6.784A8.9,8.9,0,0,1,36,9.614a11.354,11.354,0,0,1-.814,4.23,3.432,3.432,0,0,1-6.372,0A11.354,11.354,0,0,1,28,9.614a8.932,8.932,0,0,1,.459-2.83l1.489-4.468a1,1,0,0,0-1.5-1.148L26.729,2.312a10.62,10.62,0,0,0-3.97,12.779l1.117,2.792-1,1.508a5.15,5.15,0,0,0-.8,2.023L20.445,22.5l-2.411-5.626.881-5.283,2.64-1.76-1.11-1.664L18.534,9.441l-.586-1.757-1.9.632.921,2.764-.959,5.756a1,1,0,0,0,.067.558l3,7a1,1,0,0,0,.634.565A1.028,1.028,0,0,0,20,25a1.007,1.007,0,0,0,.555-.168l1.675-1.117a5.127,5.127,0,0,0,1.289,2.218l.161.161-1.688,2.25a4.866,4.866,0,0,0-.829,4.194l-2.5.357L14.043,19.949l.927-3.707-1.94-.484-.572,2.286-1.751-1.751L9.293,17.707l2.842,2.842,4.924,13.787a1,1,0,0,0,1.083.654l3.961-.566c.094.117.189.232.294.34a5.006,5.006,0,0,0-1.739,1.791l-5.9,1.475a1,1,0,0,0-.72.7l-2,7A1.007,1.007,0,0,0,12,46v6.7l-1.832,2.748,1.664,1.11L13,54.8l1.168,1.752,1.664-1.11L14,52.7V46.14l1.8-6.31,4.216-1.054c0,.075-.019.148-.019.224v5.819c0,.267.021.53.035.794l-2.55,1.53A1,1,0,0,0,17,48v6a1.006,1.006,0,0,0,.168.555L20.8,60l-1.63,2.445,1.664,1.11L22,61.8l1.168,1.752,1.664-1.11-2-3L19,53.7V48.566l1.317-.79a14.383,14.383,0,0,0,11.5,11.207.951.951,0,0,0,.358,0,14.383,14.383,0,0,0,11.5-11.207l1.317.79V53.7l-3.832,5.748-2,3,1.664,1.11L42,61.8l1.168,1.752,1.664-1.11L43.2,60l3.63-5.445A1.006,1.006,0,0,0,47,54V48a1,1,0,0,0-.485-.857l-2.55-1.53c.014-.264.035-.527.035-.794V39c0-.076-.015-.149-.019-.224L48.2,39.83,50,46.14V52.7l-1.832,2.748,1.664,1.11L51,54.8l1.168,1.752,1.664-1.11L52,52.7V46a1.007,1.007,0,0,0-.038-.274l-2-7a1,1,0,0,0-.72-.7l-5.9-1.475A5.006,5.006,0,0,0,41.6,34.764C41.708,34.656,41.8,34.541,41.9,34.424ZM25.929,17.629l-1.313-3.28A8.623,8.623,0,0,1,27.1,4.523l-.542,1.628A10.944,10.944,0,0,0,26,9.614a13.333,13.333,0,0,0,.957,4.972,5.432,5.432,0,0,0,10.086,0A13.333,13.333,0,0,0,38,9.614a10.944,10.944,0,0,0-.562-3.463L36.9,4.523a8.623,8.623,0,0,1,2.488,9.826l-1.313,3.28a1,1,0,0,0,.1.926l1.3,1.947a3.184,3.184,0,0,1-.4,4.017l-.659.659-1.172.586a3.307,3.307,0,0,1-2.894-.211,5.329,5.329,0,0,0-4.684,0,3.307,3.307,0,0,1-2.894.211l-1.172-.586-.659-.659a3.183,3.183,0,0,1-.4-4.018l1.3-1.946A1,1,0,0,0,25.929,17.629ZM23.592,29.544,25.3,27.268l.57.285a5.347,5.347,0,0,0,4.684-.211,3.29,3.29,0,0,1,2.894,0A6.28,6.28,0,0,0,36.236,28a4.251,4.251,0,0,0,1.9-.447l.57-.285,1.707,2.277A2.972,2.972,0,0,1,41,31.319a2.941,2.941,0,0,1-1.859,2.747A12.974,12.974,0,0,1,34.3,35h-4.59a12.974,12.974,0,0,1-4.846-.934A2.941,2.941,0,0,1,23,31.319,2.977,2.977,0,0,1,23.592,29.544ZM32,39.057,30.766,37h2.468ZM22,44.819V39a2.989,2.989,0,0,1,2.159-2.862l.316-.09a14.938,14.938,0,0,0,3.922.89L31,41.277V56.74A12.389,12.389,0,0,1,22,44.819Zm20,0A12.389,12.389,0,0,1,33,56.74V41.277l2.6-4.339a14.938,14.938,0,0,0,3.922-.89l.316.09A2.989,2.989,0,0,1,42,39Z"/></g></svg>