<?xml version="1.0" encoding="utf-8"?>
<!-- Generator: Adobe Illustrator 25.2.1, SVG Export Plug-In . SVG Version: 6.00 Build 0)  -->
<svg version="1.1" id="Layer_1" xmlns="http://www.w3.org/2000/svg" xmlns:xlink="http://www.w3.org/1999/xlink" x="0px" y="0px"
	 viewBox="0 0 64 64" enable-background="new 0 0 64 64" xml:space="preserve">
<path d="M60,37.9c2.3-8.9,3.9-18.5-2.3-22c-1.5-0.9-3.3-2.9-4.4-4.2L53,11.4c-0.3-0.3-0.6-0.7-0.9-1.1c-1.8-2.2-4-4.9-6.9-5.3
	c-2.1-0.2-3.5,0.9-4.7,1.9c-0.6,0.5-1.2,1-1.8,1.3c-1.4,0.6-2.7,0.6-4.2,0.6l-0.6,0c0,0-0.1,0-0.1,0c-3.3,0-6.1,3.3-7.9,5.4
	l-0.3,0.3c-1.7,2-3.1,3-5.7,2.3c-1.6-0.4-1.6-3.6-1.7-6.4c0-1.4,0-2.7-0.2-3.7c0.1-0.2,0.1-0.5,0.1-0.8l0-0.2c0-0.6,0-1.4-0.5-1.9
	c-0.3-0.3-0.7-0.5-1.3-0.5c-0.2,0-0.3,0-0.5,0C14.3,2.7,12.2,3,11,3.7c-0.3,0.1-0.6,0.4-0.9,0.6C9.7,4.5,9.1,5,8.9,5
	c-0.5,0.1-1.2,0-1.9,0C5.4,4.9,3.8,4.9,2.8,5.8C2.3,6.3,2,7,2,7.8v1.6c0,0.3,0.1,0.6,0.4,0.8c-0.3,0.2-0.5,0.7-0.4,1
	c0.1,0.4,0.4,0.7,0.8,0.7l3.4,0.4c0,0,0.1,0,0.1,0c1.3,0,3.2,0.5,4.3,1.1l0.6,0.3c0,0,0.1,0,0.1,0.1c0.1,0,0.1,0,0.2,0
	c0,7.2,0.8,12.6,7.1,13.1l0.3,0c1.3,0.1,2.7,0.2,3.7,0.8c1.3,0.7,1.9,1.6,2.1,2.7c-1.1,2.2-3.8,6-4.9,7.6c-0.2,0.3-0.5,0.5-0.9,0.8
	c-0.8,0.6-1.3,1.5-1.3,2.5c0,1.1,0.6,2.1,1.5,2.7c0.3,0.2,0.6,0.4,0.9,0.7l6.3,7.4c-1.1,0.7-1.8,1.9-1.9,3c0,0.3,0.1,0.6,0.3,0.8
	s0.5,0.3,0.7,0.3h2c0,0.1,0,0.1,0,0.2c-0.1,0.1-0.5,0.2-1.2,0.3c-0.5,0-1,0.3-1.4,0.7c-0.4,0.4-0.5,1-0.5,1.5c0,0.3,0.1,0.8,0.1,0.8
	c0,0.5,0.5,0.9,1,0.9h5c0.4,0,0.8-0.3,0.9-0.6l0.4-1c0.1-0.1,0.1-0.3,0.1-0.5l-0.1-1.3l0.7-11.5c0-0.2,0.1-0.5,0.3-0.6l0.6-0.6
	c0.9-0.9,1-2.2,0.5-3.3c-0.2-0.7-0.8-6.1-0.8-8.4c2.2,1,6.7,2.8,12.2,2.8c0.2,0.7,0.2,1.8,0.1,2.7c0,0.9,0,1.8,0.1,2.5l-3.9,14.4
	l0,0.1c-0.4,0.6-1,1.3-1.2,1.3c-0.5,0-1,0.3-1.4,0.7c-0.4,0.4-0.5,1-0.5,1.5c0,0.3,0.1,0.8,0.1,0.8c0,0.5,0.5,0.9,1,0.9h5
	c0.4,0,0.8-0.3,0.9-0.6l0.5-1.2c0.1-0.2,0.1-0.3,0.1-0.5l-0.2-1.1c1.7-4.4,4.5-11.2,5-12.2l0.4-0.4c0.9-0.9,1.1-2.3,0.5-3.5
	c-0.1-0.2-0.2-1.2,1-6.2c0.4,1.9,0.9,3.9,1.4,6l-3.9,15.4l0,0.1c-0.1,0.1-0.4,0.3-1.2,0.3c-0.5,0-1,0.3-1.4,0.7
	c-0.4,0.4-0.5,1-0.5,1.5c0,0.3,0.1,0.8,0.1,0.8c0,0.5,0.5,0.9,1,0.9h5c0.4,0,0.8-0.3,0.9-0.6l0.5-1.2c0.1-0.2,0.1-0.3,0.1-0.5
	l-0.2-1.1c1.7-4.4,4.5-11.2,5-12.2l0.4-0.4c0.9-0.9,1.1-2.3,0.5-3.5C59.9,40.4,59.7,38.8,60,37.9z M27,42.7c0,0.4,0,0.8,0,1.2
	l-1.7-2.2l1.5-1.5C26.9,41,27,41.9,27,42.7z M21.7,43.7c-0.4-0.5-0.9-0.8-1.3-1.1c-0.3-0.2-0.6-0.6-0.6-1c0-0.4,0.2-0.7,0.5-0.9
	c0.5-0.3,0.9-0.7,1.3-1.3c0.8-1.2,2.4-3.5,3.7-5.6c0.2,1.2,0.5,2.3,0.9,3.6c0,0.1,0.1,0.3,0.1,0.4l-3,3.1c-0.3,0.4-0.4,0.9-0.1,1.3
	l3.9,5.1c0,0.9,0.1,1.9,0.1,2.9L21.7,43.7z M27.1,54.5c0.1-0.1,0.2-0.2,0.4-0.3c0,0.1,0,0.2,0,0.3H27.1z M49.8,43.6L49.3,44
	c-0.2,0.2-0.5,0.5-5.5,13c-0.1,0.2-0.1,0.3-0.1,0.5l0.2,1.1L43.8,59h-3.4c0,0,0,0,0,0c1.4-0.1,2.6-2.1,2.8-2.3l0.1-0.2
	c0-0.1,0.1-0.2,0.1-0.3l4-14.7c0-0.2,0-0.3,0-0.5c-0.1-0.5-0.1-1.4-0.1-2.2c0-1,0-1.9-0.1-2.8c1.1-0.1,2.3-0.2,3.4-0.4
	c-1.2,4.8-1,6.1-0.7,6.8C50.1,42.8,50.1,43.3,49.8,43.6z M58.6,42.3c0.2,0.5,0.2,0.9-0.1,1.2L58,44c-0.2,0.2-0.5,0.5-5.5,13
	c-0.1,0.2-0.1,0.3-0.1,0.5l0.2,1.1L52.5,59h-3.4c0,0,0,0,0,0c1.4-0.1,2.3-0.5,2.8-1.3l0.1-0.2c0.1-0.1,0.1-0.2,0.1-0.3l4-15.7
	c0-0.2,0-0.3,0-0.5c-1.8-6.9-2.8-13-3.2-18.4c0-0.6-0.5-1-1.1-0.9c-0.6,0-1,0.5-0.9,1.1c0.2,3.1,0.6,6.6,1.3,10.3
	c-8.6,2.6-16.7-0.8-19-2c0.2-0.5,0.3-1,0.6-1.5l0.6-1.1c0.8-1.4,1.2-2.9,1.2-4.5c0-0.6-0.4-1-1-1s-1,0.4-1,1c0,1.2-0.3,2.5-0.9,3.5
	l-0.6,1.1c-0.5,0.9-0.8,1.8-1,2.8c0,0.1,0,0.1,0,0.2c-0.1,0.5-0.2,1-0.2,1.5c0,1.9,0.6,8.5,1,9.3c0.2,0.3,0.2,0.8-0.1,1.1L31.4,44
	c-0.5,0.5-0.8,1.2-0.9,1.9l-0.7,11.6c0,0.1,0,0.1,0,0.2l0.1,1.2l0,0.1h-3.4c0,0,0,0,0,0c1.4-0.1,2.3-0.5,2.8-1.3l0.1-0.2
	c0.1-0.2,0.2-0.4,0.1-0.6C29.4,53.6,29,45.8,29,42.6c0-1.8-0.3-3.7-0.9-5.7c-0.6-2.2-1-4.2-1.2-6.1l0-0.2c-0.2-1.9-1.2-3.3-3.1-4.3
	c-1.4-0.8-3.1-1-4.6-1.1l-0.3,0c-4.4-0.4-5.2-3.8-5.3-11.2c0.2-0.1,0.4-0.1,0.5-0.2c0.8-0.4,1.4-1.2,1.7-2.1
	c0.1-0.5-0.2-1.1-0.7-1.2c-0.5-0.1-1.1,0.2-1.2,0.7c-0.1,0.4-0.3,0.7-0.7,0.8c-0.3,0.2-0.7,0.2-1,0.1l-0.5-0.3
	c-1.4-0.8-3.7-1.4-5.3-1.4l-1.1-0.1c0.1-0.2,0.1-0.3,0.1-0.5C5.4,9.4,5.2,9.1,4.8,9L4,8.7V7.8c0-0.4,0.1-0.5,0.2-0.5
	C4.5,6.9,5.9,7,6.8,7c0.8,0,1.6,0.1,2.3,0c0.7-0.1,1.4-0.6,2.1-1.1c0.3-0.2,0.5-0.4,0.7-0.5c0.4-0.2,0.9-0.3,1.4-0.4
	C13.1,5.3,13,5.6,13,6c0,0.6,0.4,1,1,1c0.6,0,1-0.4,1-1c0.1-0.2,0.7-0.5,1.2-0.6c0,0.1,0,0.2,0,0.3l0,0.2c0,0.3-0.3,0.6-0.6,0.6
	c-0.6,0-1,0.4-1,1s0.4,1,1,1c0.2,0,0.4,0,0.6-0.1c0,0.6,0,1.3,0.1,2.1c0,3.5,0.1,7.5,3.2,8.3c3.5,0.9,5.6-0.5,7.7-2.9l0.3-0.3
	c1.6-1.9,4-4.8,6.5-4.7l0.5,0c1.7,0,3.4,0.1,5.1-0.8c0.9-0.4,1.6-1,2.2-1.6c1.2-1,2-1.6,3.1-1.5c2.1,0.2,4.1,2.6,5.6,4.5
	c0.3,0.4,0.7,0.8,1,1.2l0.3,0.3c1.2,1.4,3.1,3.6,4.9,4.6c5,2.8,3.3,12,1.3,19.7C57.6,38.9,58,41.1,58.6,42.3z"/>
</svg>
