<?xml version="1.0" encoding="utf-8"?>
<!-- Generator: Adobe Illustrator 26.0.1, SVG Export Plug-In . SVG Version: 6.00 Build 0)  -->
<svg version="1.1" id="Outline" xmlns="http://www.w3.org/2000/svg" xmlns:xlink="http://www.w3.org/1999/xlink" x="0px" y="0px"
	 viewBox="0 0 64 64" enable-background="new 0 0 64 64" xml:space="preserve">
<g>
	<path d="M34.707,18.707c0.713-0.713,1.873-0.713,2.586,0C37.488,18.902,37.744,19,38,19s0.512-0.098,0.707-0.293
		c0.391-0.391,0.391-1.023,0-1.414c-1.492-1.493-3.922-1.493-5.414,0c-0.391,0.391-0.391,1.023,0,1.414S34.316,19.098,34.707,18.707
		z"/>
	<circle cx="36" cy="20" r="1"/>
	<path d="M26.707,18.707c0.713-0.713,1.873-0.713,2.586,0C29.488,18.902,29.744,19,30,19s0.512-0.098,0.707-0.293
		c0.391-0.391,0.391-1.023,0-1.414c-1.492-1.493-3.922-1.493-5.414,0c-0.391,0.391-0.391,1.023,0,1.414S26.316,19.098,26.707,18.707
		z"/>
	<circle cx="28" cy="20" r="1"/>
	<circle cx="37" cy="50" r="1"/>
	<circle cx="27" cy="50" r="1"/>
	<path d="M38,56H26c-0.553,0-1,0.448-1,1v4c0,0.552,0.447,1,1,1s1-0.448,1-1v-3h10v3c0,0.552,0.447,1,1,1s1-0.448,1-1v-4
		C39,56.448,38.553,56,38,56z"/>
	<path d="M33.2,10.4C31.509,12.654,28.817,14,26,14h-3c-0.28,0-0.532,0.116-0.713,0.301c-0.093-0.045-0.189-0.082-0.287-0.117V12.69
		c0-1.499,0.368-2.92,1.094-4.224c0.269-0.482,0.095-1.091-0.388-1.36c-0.485-0.27-1.091-0.095-1.36,0.387
		C20.466,9.075,20,10.872,20,12.69v1.494c-1.161,0.414-2,1.514-2,2.816c0,2.414,1.721,4.434,4,4.899V23
		c0,0.819,0.111,1.625,0.31,2.413c-0.458,0.091-0.81,0.477-0.81,0.962c0,1.423,0.646,2.739,1.774,3.611
		c0.719,0.556,1.615,0.847,2.566,0.861c0.053,0.042,0.107,0.089,0.159,0.129v1.371c0,0.272-0.064,0.545-0.187,0.789
		c-0.263,0.525-0.791,0.885-1.414,0.962c-0.551,0.068-1.121,0.198-1.708,0.358c-0.552-0.498-1.354-0.666-2.065-0.373
		c-0.574,0.236-1.134,0.51-1.66,0.814c-0.704,0.407-1.078,1.174-1.011,1.934c-1.328,1.046-2.438,2.3-3.277,3.763
		C13.58,42.509,13,44.812,13,47.255v7.167l-2.499-3.926C10.814,50.079,11,49.561,11,49c0-0.562-0.187-1.082-0.501-1.5
		C10.813,47.082,11,46.562,11,46c0-1.207-0.86-2.217-2-2.449V42h2c0.553,0,1-0.448,1-1v-4.205c0-2.585-0.257-5.18-0.764-7.712
		c-0.856-4.28-3.204-8.138-6.611-10.863c-0.301-0.241-0.714-0.287-1.059-0.121C3.221,18.265,3,18.616,3,19v11c0,0.552,0.447,1,1,1
		s1-0.448,1-1v-8.731c2.162,2.263,3.656,5.111,4.275,8.206C9.756,31.878,10,34.341,10,36.795V40H5v-6c0-0.552-0.447-1-1-1
		s-1,0.448-1,1v10.28c-0.609,0.549-1,1.337-1,2.22v5c0,0.883,0.391,1.67,1,2.22V57c0,0.552,0.447,1,1,1h2.189l1.937,3.486
		C8.309,61.814,8.649,62,9.001,62c0.164,0,0.331-0.041,0.484-0.126c0.483-0.268,0.657-0.877,0.389-1.36L8.422,57.9
		C8.761,57.74,9,57.4,9,57v-2.551c0.473-0.096,0.895-0.329,1.231-0.652l4.926,7.74C15.347,61.836,15.671,62,16.001,62
		c0.184,0,0.369-0.05,0.536-0.156c0.466-0.296,0.604-0.915,0.307-1.381L15,57.566v-8.178l4,1.333V61c0,0.552,0.447,1,1,1
		s1-0.448,1-1v-7.101c2.279-0.464,4-2.485,4-4.899v-1h14v1c0,2.415,1.721,4.435,4,4.899V61c0,0.552,0.447,1,1,1s1-0.448,1-1V50.721
		l1.356-0.452l-0.962,6.253c-0.084,0.546,0.29,1.057,0.836,1.141c0.052,0.008,0.103,0.012,0.153,0.012
		c0.485,0,0.911-0.354,0.987-0.848L48.575,49h4.062l-0.563,7.307C51.915,58.378,50.163,60,48.086,60c-0.553,0-1,0.448-1,1
		s0.447,1,1,1c3.116,0,5.744-2.434,5.982-5.54L54.643,49h0.397c2.011,0,3.877-0.999,4.993-2.672l1.487-2.232
		c0.872-1.309,0.518-3.083-0.791-3.956c-1.26-0.838-2.957-0.549-3.864,0.662L55.217,43H55.21c0.221-1.597-0.572-3.157-2.046-3.894
		c-0.466-0.233-1.036-0.067-1.305,0.379l-1.723,2.872c-0.23-0.624-0.5-1.214-0.814-1.762c-0.84-1.464-1.95-2.719-3.279-3.765
		c0.068-0.762-0.307-1.531-1.016-1.939c-0.543-0.31-1.085-0.574-1.646-0.802c-0.714-0.304-1.518-0.136-2.073,0.367
		c-0.587-0.16-1.157-0.289-1.708-0.358c-0.623-0.078-1.151-0.438-1.415-0.964C38.064,32.893,38,32.62,38,32.348v-1.371
		c0.053-0.041,0.108-0.088,0.162-0.131c0.951-0.014,1.846-0.303,2.564-0.859c1.128-0.872,1.774-2.188,1.774-3.611
		c0-0.485-0.352-0.87-0.81-0.962C41.889,24.625,42,23.819,42,23v-1.101c2.279-0.465,4-2.484,4-4.899c0-0.883-0.391-1.67-1-2.22V11
		c0-3.86-3.141-7-7-7c-0.893,0-1.777,0.179-2.605,0.513C34.357,2.946,32.644,2,30.69,2c-2.348,0-4.579,0.748-6.453,2.162
		c-0.44,0.333-0.528,0.96-0.195,1.401c0.332,0.44,0.958,0.528,1.4,0.196C26.967,4.608,28.781,4,30.69,4
		c1.812,0,2.944,1.175,3.4,2.274c0.456,1.101,0.485,2.735-0.798,4.019L33.2,10.4z M5,42h2v1.5H5V42z M5,54.5h2V56H5V54.5z M8.5,52.5
		H5c-0.552,0-1-0.449-1-1v-5c0-0.551,0.448-1,1-1h3.5C8.775,45.5,9,45.724,9,46s-0.225,0.5-0.5,0.5c-0.553,0-1,0.448-1,1
		s0.447,1,1,1C8.775,48.5,9,48.724,9,49s-0.225,0.5-0.5,0.5c-0.553,0-1,0.448-1,1s0.447,1,1,1C8.775,51.5,9,51.724,9,52
		S8.775,52.5,8.5,52.5z M52.972,41.519c0.263,0.404,0.356,0.909,0.231,1.409L53.185,43h-1.102L52.972,41.519z M42,19.829V17
		c0-0.551,0.448-1,1-1s1,0.449,1,1C44,18.304,43.164,19.416,42,19.829z M43,11v3c-0.462,0-0.895,0.114-1.287,0.301
		C41.532,14.116,41.28,14,41,14c-2.191,0-4.285-1.047-5.601-2.8l-0.119-0.159c1.009-1.361,1.345-3.055,0.933-4.7
		C36.784,6.122,37.389,6,38,6C40.757,6,43,8.243,43,11z M24,16h2c3.005,0,5.893-1.252,7.953-3.402
		c1.489,1.873,3.685,3.078,6.047,3.345V23c0,0.774-0.114,1.537-0.335,2.275c-1.507-0.219-3.083-0.816-4.785-1.816
		c-0.717-0.419-1.556-0.544-2.385-0.378l-0.263-0.263l0.722-1.346c0.262-0.486,0.079-1.093-0.408-1.354
		c-0.487-0.262-1.094-0.078-1.354,0.409l-1.073,2c-0.099,0.184-0.13,0.388-0.108,0.586c-0.31,0.077-0.612,0.182-0.892,0.347
		c-1.701,1-3.277,1.596-4.784,1.815C24.114,24.537,24,23.774,24,23V16z M20,17c0-0.551,0.448-1,1-1s1,0.449,1,1v2.829
		C20.836,19.416,20,18.304,20,17z M23.693,27.355c2.057-0.124,4.171-0.838,6.438-2.171c0.217-0.127,0.575-0.253,1.04-0.14
		c0.107,0.026,0.218,0.071,0.327,0.135c0.309,0.18,0.693,0.18,1.002,0c0.109-0.063,0.22-0.108,0.328-0.135
		c0.468-0.114,0.822,0.013,1.038,0.14c2.269,1.333,4.383,2.047,6.439,2.171c-0.168,0.407-0.442,0.769-0.804,1.049
		c-0.548,0.422-1.355,0.556-2.164,0.353l-1.333-0.333c-0.505-0.126-0.984-0.335-1.426-0.623c-1.611-1.048-3.548-1.048-5.161,0
		c-0.44,0.287-0.92,0.496-1.425,0.622l-1.334,0.333c-0.808,0.203-1.615,0.07-2.163-0.353C24.136,28.124,23.861,27.763,23.693,27.355
		z M35.716,30.413C35.126,31.962,33.647,33,32,33s-3.126-1.038-3.716-2.587l0.194-0.049c0.721-0.18,1.404-0.478,2.031-0.886
		c0.963-0.626,2.019-0.625,2.979,0c0.628,0.409,1.312,0.707,2.032,0.887L35.716,30.413z M24.646,36.083
		c1.289-0.16,2.395-0.927,2.956-2.052c0.115-0.229,0.196-0.474,0.262-0.723C28.956,34.364,30.424,35,32,35
		c1.576,0,3.043-0.636,4.136-1.691c0.066,0.248,0.147,0.493,0.261,0.721c0.261,0.523,0.643,0.964,1.102,1.307
		C36.565,37.54,34.419,39,32,39c-1.544,0-3.01-0.586-4.128-1.651c-0.398-0.379-1.033-0.365-1.414,0.035
		c-0.381,0.4-0.365,1.033,0.035,1.414C27.985,40.218,29.94,41,32,41c3.24,0,6.112-1.962,7.349-4.917
		c0.002,0,0.003,0.001,0.005,0.001c0.294,0.037,0.596,0.093,0.905,0.162L35.382,46h-6.764l-4.878-9.755
		C24.05,36.177,24.351,36.12,24.646,36.083z M21,51.816V46c0-0.552-0.447-1-1-1s-1,0.448-1,1v2.612l-4-1.333v-0.024
		c0-2.094,0.488-4.053,1.412-5.665c0.619-1.079,1.406-2.031,2.342-2.845L23,47.236V49C23,50.302,22.161,51.402,21,51.816z M24.62,46
		l-4.654-9.37c0.45-0.26,0.928-0.495,1.389-0.684L26.382,46H24.62z M46.698,48.046L45,48.612V46c0-0.552-0.447-1-1-1s-1,0.448-1,1
		v5.816c-1.161-0.414-2-1.514-2-2.816v-1.765l1.595-3.199c0.247-0.494,0.046-1.095-0.448-1.341
		c-0.495-0.245-1.095-0.045-1.341,0.449L39.382,46h-1.768l4.998-10.064c0.492,0.201,0.957,0.427,1.443,0.707l-1.46,2.92
		c-0.247,0.494-0.047,1.095,0.447,1.342s1.094,0.047,1.342-0.447l0.858-1.715c0.938,0.815,1.725,1.768,2.346,2.848
		c0.396,0.691,0.691,1.487,0.926,2.332c-0.641,0.53-1.122,1.255-1.335,2.109L46.698,48.046z M59.856,42.987l-1.487,2.232
		C57.625,46.334,56.381,47,55.04,47h-6.043l0.121-0.485C49.342,45.623,50.14,45,51.059,45h4.658c0.314,0,0.611-0.148,0.8-0.4
		l1.948-2.598c0.271-0.361,0.778-0.45,1.155-0.198C60.011,42.065,60.117,42.596,59.856,42.987z"/>
	<path d="M53.44,37.519C54.388,38.476,55.656,39,56.985,39c0.181,0,0.362-0.01,0.544-0.029c1.523-0.164,2.877-1.014,3.714-2.331
		c1.016-1.598,1.017-3.669,0.001-5.276c-0.494-0.783-1.18-1.411-1.982-1.817c-0.736-0.372-1.187-1.149-1.204-2.08
		c-0.037-1.933-0.981-3.684-2.59-4.804c-1.955-1.36-4.608-1.412-6.602-0.126c-1.556,1.003-2.562,2.616-2.759,4.424
		s0.423,3.585,1.702,4.876L53.44,37.519z M49.95,24.216c0.637-0.411,1.376-0.615,2.115-0.615c0.794,0,1.588,0.235,2.26,0.702
		c1.076,0.75,1.708,1.917,1.732,3.202c0.031,1.659,0.913,3.125,2.302,3.827c0.487,0.246,0.889,0.616,1.193,1.1c0,0,0,0,0,0.001
		c0.596,0.941,0.597,2.202,0.003,3.135c-0.517,0.812-1.312,1.315-2.24,1.415c-0.819,0.085-1.625-0.178-2.252-0.708l-0.194-0.994
		c-0.147-0.758,0.294-1.511,1.026-1.751c0.525-0.172,0.811-0.737,0.639-1.262c-0.173-0.524-0.736-0.809-1.262-0.638
		c-1.199,0.394-2.048,1.386-2.325,2.552l-3.717-3.752c-0.853-0.861-1.267-2.046-1.135-3.252
		C48.229,25.953,48.888,24.901,49.95,24.216z"/>
	<path d="M52.059,30.613h0.014c0.796,0,1.545-0.308,2.11-0.869c1.176-1.164,1.186-3.067,0.021-4.243
		c-1.163-1.175-3.067-1.184-4.243-0.02c-1.175,1.164-1.183,3.067-0.019,4.242C50.505,30.293,51.257,30.609,52.059,30.613z
		 M51.367,26.902c0.195-0.193,0.45-0.289,0.705-0.289c0.258,0,0.516,0.099,0.71,0.295c0.389,0.392,0.386,1.026-0.006,1.415
		c-0.001,0-0.001,0-0.001,0c-0.188,0.187-0.438,0.289-0.703,0.289c-0.31,0.011-0.521-0.104-0.711-0.296
		C50.974,27.925,50.977,27.291,51.367,26.902z"/>
</g>
</svg>
