<?xml version="1.0" encoding="utf-8"?>
<!-- Generator: Adobe Illustrator 24.0.0, SVG Export Plug-In . SVG Version: 6.00 Build 0)  -->
<svg version="1.1" id="stroke" xmlns="http://www.w3.org/2000/svg" xmlns:xlink="http://www.w3.org/1999/xlink" x="0px" y="0px"
	 viewBox="0 0 340 340" style="enable-background:new 0 0 340 340;" xml:space="preserve">
<g>
	<path d="M213.6,174.5l-0.5,0.3c-2,1-2.7,3.4-1.7,5.4c0.7,1.4,2.1,2.2,3.6,2.2c0.6,0,1.3-0.1,1.8-0.5l0.5-0.3c2-1,2.7-3.5,1.7-5.4
		C218,174.3,215.5,173.5,213.6,174.5z"/>
	<path d="M304.7,82.9c-12.7-1.7-24.6-6.7-24.8-6.8c-11.2-4.5-22.8-7-34.5-7.4c0.2-3.2-0.8-6.4-2.8-8.9c-2.4-2.9-5.9-4.5-9.6-4.5
		c0,0,0,0,0,0c-6.7,0-17.2,0.6-28.4,3.5c-6,1.5-12.4,0.1-17.2-3.8c-12.4-10.1-38.9-25.2-76.3-13c-6.2,2-10.4,7.8-10.4,14.3v7.2
		c0,1.3,0.6,2.5,1.7,3.2s2.4,1,3.6,0.6c0.4-0.1,43.1-13.8,65.2,9.8c6.4,6.9,10.1,16.1,10.3,26l2,84.4c-0.1,1.1-0.3,6.7,0.3,14
		c-5.2,8.6-15.3,19.8-33.8,26.9c-20.3,7.8-38.4,19.4-50.1,27.9c-8.3,6-16.1,12.7-23.2,19.9c-5.1,5.1-15.2,14.3-26.3,18.1
		c-2.3,0.8-4.8,0.5-6.8-0.8c-2.1-1.3-3.5-3.5-3.7-6c-0.8-6.9-1.1-14.2-0.9-21.6c0.2-8.7-1.2-17.1-4.2-25.1
		c-2.3-6.1-3.5-12.4-3.7-18.7c-1-32,3-110.3,61.7-147.3c1.9-1.2,2.4-3.6,1.3-5.5s-3.6-2.4-5.5-1.3c-62.2,39.2-66.4,121-65.4,154.3
		c0.2,7.3,1.7,14.4,4.2,21.3c2.6,7,3.9,14.5,3.7,22.1c-0.2,7.8,0.2,15.4,1,22.7c0.5,4.9,3.2,9.2,7.4,11.9c2.6,1.7,5.6,2.5,8.6,2.5
		c1.7,0,3.4-0.3,5.1-0.8c11.5-3.9,21.7-12.4,28.5-19.1c6.2-2.5,15.7-5.4,26.9-5.4c0.1,0,0.1,0,0.2,0c0.5,0,12.9-0.7,21.1-10.2
		c5.1-6,7.4-14,6.7-23.8c5.2-2.7,10.8-5.2,16.4-7.3c15.6-6,25.8-14.7,32.4-22.7c0.6,3.4,1.5,7,2.6,10.3c1.7,5.1,6.3,8.5,11.7,8.6
		c0.1,0,0.1,0,0.2,0c5.3,0,9.9-3.2,11.8-8.3c0.3-0.7,0.5-1.4,0.7-2.2c2-6.7,1.3-14-1.8-20.5c-0.2-0.4-0.4-0.9-0.6-1.4
		c0.7,0,1.3,0.1,2,0.1c35.3,0,61.6-46.8,62.8-49c3-5.7,6.3-11.1,9.7-15.9c15.3-9.5,25-21.3,30.7-29.9c2.7-4.1,3.1-9.2,1-13.7
		C313.9,86.7,309.7,83.6,304.7,82.9z M123.5,261.7c-5.6,6.6-14.6,7.4-15.4,7.5c-4.9,0-9.5,0.5-13.7,1.3c3.2-2.7,6.6-5.3,10-7.8
		c6.3-4.5,14.5-10,23.9-15.3C128.2,253.2,126.6,258,123.5,261.7z M204.5,219.3c-0.2,0.6-0.4,1.1-0.6,1.7c-1,2.9-3.6,3-4.4,3
		c-0.8,0-3.3-0.3-4.3-3.1c-4.9-14.6-4-33-4-33.2c0-0.1,0-0.2,0-0.3l-2-84.5c-0.3-11.9-4.7-23-12.5-31.3c-12.2-13-29-16.5-43.4-16.5
		c-10.3,0-19.4,1.8-24.9,3.1v-1.9c0-3.1,1.9-5.8,4.8-6.7c33.8-11,57.6,2.6,68.8,11.6c6.8,5.5,15.8,7.5,24.2,5.3
		c10.5-2.7,20.2-3.3,26.5-3.3c0,0,0,0,0,0c1.8,0,2.9,1,3.4,1.6c0.9,1,1.2,2.4,0.9,3.7l0,0.1c-8.9,0.6-16.7,2.5-23.1,5.9
		c-11,5.7-17.9,17.1-17.9,29.7v63.4c0,18.7,3.7,30.4,6.9,36.9C205.5,209.2,205.9,214.5,204.5,219.3z M308.3,100.5
		c-5.9,9.1-16.8,21.9-34.7,31.2c-6.4,3.3-12.5,7.6-18,12.7c-6.7,6.2-17.4,15.4-30.3,23.7c-1.9,1.2-2.4,3.7-1.2,5.5
		c0.8,1.2,2.1,1.8,3.4,1.8c0.7,0,1.5-0.2,2.2-0.6c13.3-8.6,24.4-18.1,31.4-24.5c2.7-2.5,5.5-4.7,8.4-6.7c-0.6,1.1-1.2,2.2-1.8,3.3
		c-0.3,0.5-27.7,49.3-60.5,44.4c-1.5-5.7-2.7-13.5-2.7-23.7v-63.4c0-9.6,5.2-18.3,13.6-22.6c6.1-3.2,13.7-4.9,22.8-5.1c0,0,0,0,0,0
		c12.3-0.1,24.5,2.3,36.1,6.9c0.5,0.2,13,5.5,26.8,7.3c2.2,0.3,4.1,1.7,5.1,3.8C309.6,96.5,309.5,98.7,308.3,100.5z"/>
</g>
</svg>
