<?xml version="1.0" encoding="iso-8859-1"?>
<!-- Generator: Adobe Illustrator 23.1.0, SVG Export Plug-In . SVG Version: 6.00 Build 0)  -->
<svg version="1.1" id="_x33_0" xmlns="http://www.w3.org/2000/svg" xmlns:xlink="http://www.w3.org/1999/xlink" x="0px" y="0px"
	 viewBox="0 0 62 62" style="enable-background:new 0 0 62 62;" xml:space="preserve">
<g>
	<path d="M37,14c-1.654,0-3,1.346-3,3s1.346,3,3,3s3-1.346,3-3S38.654,14,37,14z M37,18c-0.551,0-1-0.449-1-1s0.449-1,1-1
		s1,0.449,1,1S37.551,18,37,18z"/>
	<path d="M2,42h8c1.103,0,2-0.897,2-2v-2h10v4.434l-8.544,5.126C12.558,48.1,12,49.086,12,50.133v3.013C12,54.72,13.28,56,14.854,56
		c1.088,0,2.066-0.604,2.553-1.578l0.317-0.635L27.193,50h9.15c0.79,0,1.563,0.32,2.121,0.879l4.243,4.242
		C43.273,55.688,44.027,56,44.829,56H50c1.103,0,2-0.897,2-2c0-2.058-1.562-3.758-3.562-3.977l-5.388-5.388
		c-1.7-1.7-3.96-2.636-6.364-2.636H36v-4h14c2.206,0,4-1.794,4-4c0-2.206-1.794-4-4-4h-7.026C43.609,29.162,44,28.13,44,27v-5.586
		L46.414,19l-0.707-0.707C44.606,17.192,44,15.729,44,14.171v-1.936c0-1.004-0.327-1.944-0.893-2.718C44.81,8.72,46,7.001,46,5
		c0-2.757-2.243-5-5-5H30.766c-3.895,0-7.432,1.527-10.074,4H6v2h12.911c-0.468,0.632-0.891,1.297-1.255,2H10v2h6.804
		c-0.222,0.649-0.405,1.314-0.535,2H0v2h16.039C16.026,14.255,16,14.508,16,14.766c0,3.621,1.325,7.104,3.729,9.81L24,29.38V30H12
		v-2c0-1.103-0.897-2-2-2H2c-1.103,0-2,0.897-2,2v12C0,41.103,0.897,42,2,42z M8,34c0-1.103,0.897-2,2-2h2v4h-2
		C8.897,36,8,35.103,8,34z M24.121,49.074l-6.739,2.696l-2.016-3.024L22,44.766V45C22,46.683,22.842,48.168,24.121,49.074z
		 M14.854,54C14.383,54,14,53.616,14,53.146v-2.843l1.846,2.769l-0.228,0.456C15.473,53.819,15.18,54,14.854,54z M50,54h-5.171
		c-0.144,0-0.28-0.035-0.408-0.092l3.776-1.888C49.206,52.12,50,52.965,50,54z M41.636,46.05l4.676,4.676l-3.448,1.724l-2.986-2.985
		C38.934,48.521,37.678,48,36.343,48H27c-1.654,0-3-1.346-3-3v-1h12.687C38.556,44,40.314,44.729,41.636,46.05z M34.47,32H46v4
		H35.963C35.848,34.536,35.328,33.155,34.47,32z M52,34c0,1.103-0.897,2-2,2h-2v-4h2C51.103,32,52,32.897,52,34z M41,26
		c-1.304,0-2.416-0.836-2.829-2H42v2H41z M42,20.586V22h-6v1c0,2.757,2.243,5,5,5h0.816c-0.414,1.161-1.514,2-2.816,2h-9v2h1.666
		C33.128,33.08,34,34.776,34,36.605v1.878l-4.249-1.821l1.746-1.746L26,30.52v-1.059c2.506-2.077,4-5.193,4-8.461v-1h-2
		c-1.103,0-2-0.897-2-2s0.897-2,2-2h2v-1c0-1.654,1.346-3,3-3h5c1.316,0,2.476-0.647,3.206-1.631C41.703,10.852,42,11.515,42,12.236
		v1.936c0,1.754,0.573,3.42,1.63,4.784L42,20.586z M21.225,23.247C19.145,20.908,18,17.896,18,14.766C18,7.727,23.727,2,30.766,2H41
		c1.654,0,3,1.346,3,3c0,1.309-0.847,2.412-2.018,2.821C41.886,5.7,40.144,4,38,4c-2.206,0-4,1.794-4,4h2c0-1.103,0.897-2,2-2
		s2,0.897,2,2s-0.897,2-2,2h-5c-2.415,0-4.435,1.721-4.899,4H28c-2.206,0-4,1.794-4,4c0,2.187,1.764,3.969,3.943,4
		c-0.243,2.142-1.256,4.147-2.839,5.612L21.225,23.247z M24.65,32l3.853,3.083l-2.254,2.254L34,40.659V42H24v-7h-2v1h-8v-4H24.65z
		 M2,28h8v2c-2.206,0-4,1.794-4,4c0,2.206,1.794,4,4,4v2H2V28z"/>
	<path d="M56,52v8H32v-8h-6v8H6v-8H0v10h62V52H56z M4,60H2v-6h2V60z M28,54h2v6h-2V54z M60,60h-2v-6h2V60z"/>
</g>
</svg>
