<svg xmlns="http://www.w3.org/2000/svg" viewBox="0 0 512 512"><defs><style>.cls-1{font-size:64px;font-family:DBHelvethaicaX-MedCond, DBHelvethaicaX MedCond;}.cls-2{letter-spacing:0em;}.cls-3{letter-spacing:-0.02em;}.cls-4{fill:#020202;}</style></defs><g id="text"><text class="cls-1" transform="translate(61.15 565.44)"><tspan class="cls-2">C</tspan><tspan x="37.38" y="0">APRI</tspan><tspan class="cls-3" x="160.32" y="0">C</tspan><tspan x="196.09" y="0">ORNUS </tspan></text></g><g id="outline_copy_2" data-name="outline copy 2"><path class="cls-4" d="M479.8,292.72,432,276.29V209.38A35.37,35.37,0,0,0,452.6,216H472a16,16,0,0,0,16-16V131.4a35.45,35.45,0,0,0-24.28-33.6A72.09,72.09,0,0,0,392,32H320a16,16,0,0,1-16-16H288a31.71,31.71,0,0,0,4.31,16H288a16,16,0,0,1-16-16H256V40a40,40,0,0,0,40,40h64a24,24,0,0,1,22.62,16H368a8,8,0,0,0-7.67,5.76,125.71,125.71,0,0,0-67.62,51l-92.69,78a42.4,42.4,0,0,1-23.36,9.73l-5.29-3c-17-9.55-33.21-18.7-43.73-29.53H152a56.06,56.06,0,0,0,56-56V136a8,8,0,0,0-8-8H160a56,56,0,0,0-48,27.19A56,56,0,0,0,64,128H24a8,8,0,0,0-8,8v16a56.06,56.06,0,0,0,56,56h32.21c.8,16.07,4,28.94,8.67,39.65a105.07,105.07,0,0,0-44,33.84A104,104,0,1,0,256,344h99.8a82.11,82.11,0,0,0,7,6.12L390.39,376H344a8,8,0,0,0-8-8H296a8,8,0,0,0-7.84,9.57l5.42,27.14A24.07,24.07,0,0,0,317.12,424H424v32a8,8,0,0,0,8,8,8.59,8.59,0,0,0,1.13-.08l42.27-6A24.12,24.12,0,0,0,496,434.12V315.42A24,24,0,0,0,479.8,292.72ZM104,192H72a40,40,0,0,1-40-40v-8H64a40,40,0,0,1,40,40ZM447.42,96H431.54a71.82,71.82,0,0,0-23.63-45.68A56.14,56.14,0,0,1,447.42,96ZM360,64H296a24,24,0,0,1-23.68-20.12A31.77,31.77,0,0,0,288,48h72a56.09,56.09,0,0,1,55.42,48H399.2A40.07,40.07,0,0,0,360,64ZM120,184a40,40,0,0,1,40-40h32v8a40,40,0,0,1-40,40H120ZM248,344h-8a88,88,0,0,1-176,0,87.17,87.17,0,0,1,17.66-52.88,88.77,88.77,0,0,1,38.9-29.31c7.77,11.81,17.29,20.69,26.27,29.05C163.13,306,176,318,176,344a16,16,0,0,1-16,16,8,8,0,0,1,0-16V328a24,24,0,0,0,0,48,32,32,0,0,0,32-32c0-32.94-17.42-49.16-34.27-64.85-14.55-13.55-29.5-27.47-35.26-54.1,11.43,9.74,26,17.94,41.05,26.42C201.12,272.65,240,294.55,240,344v0l8,0Zm184,64H317.12a8,8,0,0,1-7.85-6.43L305.76,384H328a8,8,0,0,0,8,8h74.59a8,8,0,0,0,5.48-13.83l-42.59-40c-.22-.2-.44-.39-.68-.57-13-9.72-28.8-31.52-28.8-43.1V288H328v6.5c0,10.83,6.19,23,13.86,33.5H254.78c-3.07-19.51-12-36.52-27.07-51.63C218.27,266.89,207.35,259,196,251.9A58.23,58.23,0,0,0,210.33,243L277,186.93A126,126,0,0,0,272,222v42h16V222a110,110,0,0,1,74.49-104.12A40,40,0,0,0,400,144h16V128H400a24,24,0,0,1-22.63-16H452.6A19.42,19.42,0,0,1,472,131.4V200H452.6a19.39,19.39,0,0,1-14.73-6.77l-39.8-46.44-12.14,10.42L416,192.29V336h0a8,8,0,0,0,1.48,4.67L448,383.12V408Zm7.6-64H448v11.7ZM480,434.12a8,8,0,0,1-6.87,7.92L440,446.78V424h16a8,8,0,0,0,8-8V336a8,8,0,0,0-8-8H432V293.21l42.6,14.64a8,8,0,0,1,5.4,7.57Z"/><rect class="cls-4" x="440" y="124.69" width="16" height="22.63" transform="translate(35.05 356.62) rotate(-45)"/></g></svg>