<?xml version="1.0" encoding="utf-8"?>
<!-- Generator: Adobe Illustrator 25.2.3, SVG Export Plug-In . SVG Version: 6.00 Build 0)  -->
<svg version="1.1" id="Outline" xmlns="http://www.w3.org/2000/svg" xmlns:xlink="http://www.w3.org/1999/xlink" x="0px" y="0px"
	 viewBox="0 0 64 64" enable-background="new 0 0 64 64" xml:space="preserve">
<g id="XMLID_3399_">
	<path id="XMLID_5631_" d="M59.5,2.4c-1.4-0.8-3.3-0.3-4.1,1.1l-3.4,5.8c-0.3,0.5-0.1,1.1,0.4,1.4c0.5,0.3,1.1,0.1,1.4-0.4l3.4-5.8
		C57.4,4,58,3.9,58.5,4.1C59,4.4,59.1,5,58.9,5.5L48.2,24h-2.3l5.9-10.2c0.3-0.5,0.1-1.1-0.4-1.4c-0.5-0.3-1.1-0.1-1.4,0.4L43.6,24
		H32.8c-0.5-2.2-2.3-3.8-4.5-4c-0.7,0-1.4,0.1-2.1,0.3C24.9,18.9,23,18,21,18c-3.5,0-6.4,2.6-6.9,6H14c-1.7,0-3,1.3-3,3
		c0,1.4,1,2.6,2.4,2.9c-0.7,1-1.4,2-1.9,3.1H6c-0.6,0-1,0.4-1,1c0,1.3,0.5,2.6,1.5,3.5c0.8,0.8,1.8,1.3,2.9,1.4
		C9.1,40.3,9,41.6,9,43c0,0.7,0,1.4,0.1,2.1c0,0.5,0.5,0.9,1,0.9c0,0,0.1,0,0.1,0c0.6-0.1,1-0.5,0.9-1.1C11,44.3,11,43.6,11,43
		c0-4.8,1.7-9.4,4.8-13H19v4c0,1.7,1.3,3,3,3s3-1.3,3-3v-2c0-0.6,0.4-1,1-1s1,0.4,1,1c0,0.6,0.4,1,1,1s1-0.4,1-1c0-1.7-1.3-3-3-3
		s-3,1.3-3,3v2c0,0.6-0.4,1-1,1s-1-0.4-1-1v-9c0-0.6-0.4-1-1-1h-3.9c0.5-2.3,2.5-4,4.9-4c1.6,0,3.2,0.8,4.1,2.2
		c0.3,0.4,0.9,0.6,1.3,0.3c0.5-0.3,1.1-0.5,1.7-0.4c1.5,0.1,2.8,1.6,2.8,3.2V39c0,0.6-0.4,1-1,1s-1-0.4-1-1v-3c0-0.6-0.4-1-1-1
		s-1,0.4-1,1v3c0,1.7,1.3,3,3,3s3-1.3,3-3V26h17c0.6,0,1,0.4,1,1s-0.4,1-1,1H36c-0.6,0-1,0.4-1,1s0.4,1,1,1h14c1.7,0,3-1.3,3-3
		c0-1.5-1.1-2.7-2.5-3L60.6,6.5C61.4,5.1,60.9,3.2,59.5,2.4z M7.9,36.1c-0.3-0.3-0.6-0.7-0.7-1.1h3.4c-0.3,0.7-0.5,1.3-0.7,2
		C9.1,36.9,8.4,36.7,7.9,36.1z M19,26v2h-5c-0.6,0-1-0.4-1-1s0.4-1,1-1H19z"/>
	<path id="XMLID_5628_" d="M58,32h-6.6c-0.4,0-0.7,0.2-0.9,0.5c-0.2,0.3-0.2,0.7,0,1c1.6,2.9,2.4,6.2,2.4,9.5c0,6-2.7,11.6-7.3,15.4
		c-1.2,1-2.8,1.6-4.4,1.6h-2.5c-0.9-2.9-5.3-5-10.8-5c-0.7,0-1.5,0-2.2,0.1c-1.7-2-4.2-3.1-6.8-3.1c-1.8,0-3.5,0.6-5,1.5
		c-1-1.5-1.7-3.2-2.2-4.9c-0.2-0.5-0.7-0.8-1.2-0.7c-0.5,0.2-0.8,0.7-0.7,1.2c0.6,2,1.5,3.9,2.6,5.7c-0.4,0.4-0.7,0.8-1,1.2
		c-3-0.3-5.5,2-5.5,5c0,0.6,0.4,1,1,1h14c0.6,0,1-0.4,1-1s-0.4-1-1-1H8.2c0.4-1.2,1.5-2,2.8-2c0.2,0,0.5,0,0.7,0.1
		c0.4,0.1,0.9-0.1,1.1-0.5c1.2-2.2,3.6-3.6,6.1-3.6c2.2,0,4.2,1,5.6,2.8c0.2,0.3,0.6,0.4,0.9,0.4c0.8-0.1,1.7-0.2,2.5-0.2
		c4.4,0,7.7,1.4,8.7,3H25c-0.6,0-1,0.4-1,1s0.4,1,1,1h16.3c2.1,0,4.1-0.7,5.7-2c5.1-4.2,8-10.4,8-17c0-1.7-0.2-3.4-0.6-5
		c1.2-0.1,2.3-0.6,3.1-1.5c0.9-1,1.5-2.2,1.5-3.5C59,32.4,58.6,32,58,32z M56.1,35.1C55.6,35.7,54.8,36,54,36h-0.2
		c-0.2-0.7-0.5-1.3-0.8-2h3.8C56.7,34.4,56.4,34.8,56.1,35.1z"/>
	<path id="XMLID_5625_" d="M23,14c0,1.7,1.3,3,3,3s3-1.3,3-3s-1.3-3-3-3S23,12.3,23,14z M26,13c0.6,0,1,0.4,1,1s-0.4,1-1,1
		s-1-0.4-1-1S25.4,13,26,13z"/>
	<path id="XMLID_5622_" d="M17,15c1.7,0,3-1.3,3-3s-1.3-3-3-3s-3,1.3-3,3S15.3,15,17,15z M17,11c0.6,0,1,0.4,1,1s-0.4,1-1,1
		s-1-0.4-1-1S16.4,11,17,11z"/>
	<circle id="XMLID_5621_" cx="20" cy="3" r="1"/>
	<circle id="XMLID_5620_" cx="23" cy="7" r="1"/>
	<path id="XMLID_5617_" d="M36,14c0.6,0,1-0.4,1-1v-2c0-5-4-9-9-9c-0.6,0-1,0.4-1,1v2C27,10,31,14,36,14z M29,4.1
		c3.1,0.4,5.5,2.9,5.9,6l-2.1-2.7c-0.3-0.4-1-0.5-1.4-0.2c-0.4,0.3-0.5,1-0.2,1.4l2.3,2.9C30.9,10.6,29,8,29,5V4.1z"/>
	<path id="XMLID_5613_" d="M35.5,15.5C34.5,16.4,34,17.7,34,19s0.5,2.6,1.5,3.5c1,1,2.3,1.5,3.5,1.5s2.6-0.5,3.5-1.5
		c0.9-0.9,1.5-2.2,1.5-3.5s-0.5-2.6-1.5-3.5C40.6,13.5,37.4,13.5,35.5,15.5z M38.3,21.1C38.3,21.1,38.3,21.1,38.3,21.1
		c-0.4,0.4-1,0.4-1.4,0c-0.2-0.2-0.3-0.4-0.3-0.7c0-0.3,0.1-0.5,0.3-0.7c0.2-0.2,0.5-0.3,0.7-0.3c0.3,0,0.5,0.1,0.7,0.3
		c0.2,0.2,0.3,0.4,0.3,0.7C38.6,20.7,38.5,20.9,38.3,21.1z M42,19c0,0.8-0.3,1.6-0.9,2.1c-0.2,0.2-0.5,0.4-0.8,0.6
		c0.2-0.4,0.3-0.8,0.3-1.3c0-0.8-0.3-1.6-0.9-2.1c-0.9-0.9-2.3-1.1-3.4-0.6c0.1-0.3,0.3-0.6,0.6-0.8c0.6-0.6,1.4-0.9,2.1-0.9
		c0.8,0,1.5,0.3,2.1,0.9C41.7,17.4,42,18.2,42,19z"/>
	<path id="XMLID_3421_" d="M44,14c0.6,0,1-0.4,1-1V8c0-0.6-0.4-1-1-1s-1,0.4-1,1v5C43,13.6,43.4,14,44,14z"/>
	<path id="XMLID_3418_" d="M40,10c0.6,0,1-0.4,1-1V3c0-0.6-0.4-1-1-1s-1,0.4-1,1v6C39,9.6,39.4,10,40,10z"/>
	<circle id="XMLID_3411_" cx="44" cy="4" r="1"/>
	<path id="XMLID_3402_" d="M25,44c0-1.6-1.2-4-3-4s-3,2.4-3,4c0,1.7,1.3,3,3,3S25,45.7,25,44z M21,44c0-0.8,0.7-2,1-2
		c0.3,0,1,1.2,1,2c0,0.6-0.4,1-1,1S21,44.6,21,44z"/>
</g>
</svg>
