<?xml version="1.0" encoding="UTF-8"?><svg id="Layer_1" xmlns="http://www.w3.org/2000/svg" viewBox="0 0 512 512"><path d="m433,199.159V56c0-2.762-2.238-5-5-5h-72c-2.762,0-5,2.238-5,5v23.096H105v-23.096c0-2.762-2.238-5-5-5H28c-2.762,0-5,2.238-5,5v400c0,2.762,2.238,5,5,5h72c2.762,0,5-2.238,5-5v-23.096h246v23.096c0,2.762,2.238,5,5,5h72c2.762,0,5-2.238,5-5v-71.159c33.276-17.634,56-52.631,56-92.841s-22.724-75.207-56-92.841ZM95,451h-62v-70h62v70Zm0-80h-62v-70h62v70Zm0-80h-62v-70h62v70Zm0-80h-62v-70h62v70Zm0-80h-62V61h62v70ZM361,61h62v70h-62V61Zm0,80h62v53.515c-12.063-4.844-25.225-7.515-39-7.515-7.899,0-15.595.883-23,2.544v-48.544ZM105,89.096h246v103.222c-28.681,9.519-51.913,31.088-63.662,58.682H105V89.096Zm246,333.809H105v-161.904h178.672c-3.035,9.802-4.672,20.213-4.672,31,0,46.374,30.221,85.816,72,99.683v31.222Zm72,28.096h-62v-56.544c7.405,1.661,15.101,2.544,23,2.544,13.775,0,26.937-2.671,39-7.515v61.515Zm-39-64c-52.383,0-95-42.617-95-95s42.617-95,95-95,95,42.617,95,95-42.617,95-95,95Z"/><path d="m448.027,265.811c-3.958-19.62-18.225-32.298-36.347-32.298-8.864,0-18.358,3.196-27.641,9.278-9.397-6.359-18.761-9.579-27.877-9.579-18.232,0-32.444,12.818-36.205,32.645-5.342,27.844,11.353,64.701,60.691,84.278.086.034.174.066.263.096.763.255,1.917.558,3.085.558s2.323-.303,3.086-.558c.1-.033.199-.069.297-.109,49.322-19.983,66.003-56.726,60.654-84.275-.002-.012-.005-.023-.007-.035Zm-64.033,74.893c-43.759-17.498-58.77-49.227-54.214-72.973,2.869-15.123,12.979-24.519,26.383-24.519,7.756,0,16.347,3.351,24.844,9.69,1.755,1.309,4.156,1.323,5.927.039,8.499-6.169,17.056-9.429,24.747-9.429,13.347,0,23.515,9.294,26.54,24.256,4.544,23.458-10.472,55.063-54.227,72.935Z"/></svg>