<?xml version="1.0" encoding="iso-8859-1"?>
<!-- Generator: Adobe Illustrator 23.0.4, SVG Export Plug-In . SVG Version: 6.00 Build 0)  -->
<svg version="1.1" id="OutlineExpand" xmlns="http://www.w3.org/2000/svg" xmlns:xlink="http://www.w3.org/1999/xlink" x="0px"
	 y="0px" viewBox="0 0 64 64" style="enable-background:new 0 0 64 64;" xml:space="preserve">
<path d="M3,62h58c0.553,0,1-0.448,1-1V3c0-0.552-0.447-1-1-1H3C2.447,2,2,2.448,2,3v58C2,61.552,2.447,62,3,62z M4,4h56v56H4V4z"/>
<path d="M8,27h23c0.412,0,0.782-0.253,0.932-0.638l7-18c0.12-0.308,0.08-0.654-0.106-0.927S38.33,7,38,7H8C7.447,7,7,7.448,7,8v18
	C7,26.552,7.447,27,8,27z M9,9h27.538l-6.222,16H9V9z"/>
<path d="M56,7H42c-0.412,0-0.782,0.253-0.932,0.638l-7,18c-0.12,0.308-0.08,0.654,0.106,0.927S34.67,27,35,27h21
	c0.553,0,1-0.448,1-1V8C57,7.448,56.553,7,56,7z M55,25H36.462l6.222-16H55V25z"/>
<path d="M8,45h16c0.553,0,1-0.448,1-1V30c0-0.552-0.447-1-1-1H8c-0.553,0-1,0.448-1,1v14C7,44.552,7.447,45,8,45z M9,31h14v12H9V31z
	"/>
<path d="M56,29H28c-0.553,0-1,0.448-1,1v14c0,0.552,0.447,1,1,1h28c0.553,0,1-0.448,1-1V30C57,29.448,56.553,29,56,29z M55,43H29V31
	h26V43z"/>
<path d="M56,47H8c-0.553,0-1,0.448-1,1v8c0,0.552,0.447,1,1,1h48c0.553,0,1-0.448,1-1v-8C57,47.448,56.553,47,56,47z M55,55H9v-6h46
	V55z"/>
</svg>
