<?xml version="1.0" encoding="utf-8"?>
<!-- Generator: Adobe Illustrator 24.0.0, SVG Export Plug-In . SVG Version: 6.00 Build 0)  -->
<svg version="1.1" id="outline" xmlns="http://www.w3.org/2000/svg" xmlns:xlink="http://www.w3.org/1999/xlink" x="0px" y="0px"
	 viewBox="0 0 512 512" enable-background="new 0 0 512 512" xml:space="preserve">
<path d="M408.1,111.6c-5.8-25.1-23.2-46.4-46.7-57l-68.6-31.1c-25.6-11.6-55.8-9.4-79.3,5.8c-26.8,0.7-52.3,12.4-70.2,32.3l-19,21.1
	c-18.2,20.2-27.2,47.3-24.7,74.3c2.3,24.8,10.3,49,23.3,70.2c-2.5,4.9-3.9,10.5-3.9,16.2c0.1,17.2,12.5,31.8,29.4,34.6
	c0.1,0,0.3,0,0.4,0.1l13.5,1.5c10.5,22.8,27.2,42.7,48.8,57.1c0.6,0.4,1.2,0.8,1.8,1.1v4.9c0,10.5-3.9,19.3-12.4,27.8
	c-2,2-4.3,2.3-9,2.9c-2.8,0.3-5.9,0.7-9.3,1.7c-29.7,8.5-53.3,31.1-63.1,60.4l-17.7,50.1c-0.9,2.4-0.5,5.2,1,7.3s3.9,3.4,6.5,3.4
	h288c2.6,0,5-1.3,6.5-3.4s1.9-4.8,1-7.3l-17.7-50.1c-9.8-29.3-33.4-51.9-63.1-60.4c-3.4-1-6.6-1.3-9.3-1.7c-4.7-0.5-7-0.9-9-2.9
	C297,361.9,293,353,293,342.6v-3.7c1.3-0.7,2.5-1.5,3.8-2.3c25.1-16.7,43.5-40.8,53.3-68.4l5.6-0.9c17-2.8,29.4-17.4,29.4-34.6
	c0-0.6,0-1.3,0-1.9C409.3,196.1,417.7,152.8,408.1,111.6z M150.9,262.1c-9.2-1.6-15.8-9.5-15.9-18.8c0-5.1,2-10,5.6-13.6
	c2.6-2.6,5.9-4.4,9.4-5.2c0.2,13.1,2.3,26,6,38.2L150.9,262.1z M319.4,390.2c24.7,7,44.2,25.8,52.3,50.1c0,0,0,0.1,0,0.1l13.9,39.5
	H341v-29c0-4.4-3.6-8-8-8s-8,3.6-8,8v29H189v-29c0-4.4-3.6-8-8-8s-8,3.6-8,8v29h-52.7l13.9-39.5c0,0,0-0.1,0-0.1
	c8.1-24.3,27.7-43.1,52.3-50.1c2.2-0.6,4.4-0.9,6.8-1.2c1.7-0.2,3.5-0.4,5.3-0.8c17.7,6.9,36.4,10.3,55,10.3
	c18.4,0,36.9-3.4,54.5-10.2c1.5,0.3,2.9,0.4,4.3,0.6C315,389.4,317.2,389.6,319.4,390.2z M290.4,377.6c-24.4,6.8-50.1,6.7-74.4-0.3
	c8.3-9.7,12.5-20.4,13-32.4c5.9,1.7,12,2.6,18.3,2.6h13.6c5.5,0,11-0.7,16.3-2.1C277.7,357.3,282,367.9,290.4,377.6z M287.9,323.3
	c-8.1,5.4-17.4,8.2-27.1,8.2h-13.6c-9.7,0-19.1-2.8-27.1-8.2c-20.1-13.4-35.4-32.2-44.5-53.8c-0.1-0.3-0.2-0.6-0.4-0.9
	c-6-14.4-9.2-30.1-9.2-46.3l1.2-35.5c0.4-12.6,4.1-25,10.6-35.8c5.7-9.5,17.1-13.7,27.6-10.2c2,0.7,4.2,0.5,6.1-0.4l14.3-7.1
	c8.2-4.1,17.8-3.2,25.2,2.3c7.4,5.5,11,14.9,9.2,24c-2.7,13.3,2.7,26.8,13.2,34.8c-0.9,2.1-1.4,4.4-1.4,6.8c0,9.4,7.6,17,17,17
	c7.1,0,13.1-4.3,15.7-10.4c12.1,3.4,24.7,5.3,37.3,5.6v9c0,12.5-1.9,24.6-5.5,36.2c-0.1,0.3-0.2,0.6-0.3,0.9
	C328,285.1,311.2,307.8,287.9,323.3z M354.9,251.1c2-9.4,3.1-19.1,3.1-28.9v-7c2,0.9,3.9,2.2,5.6,3.9c3.6,3.6,5.6,8.5,5.6,13.6
	C369.1,241.4,363.3,248.9,354.9,251.1z M378.3,211.7c-1-1.4-2.2-2.7-3.4-3.9c-6.2-6.2-14.3-9.8-23-10.3c-0.6-0.1-6.8-0.2-6.8-0.2
	c-20.4,0-40.8-4.8-59.1-13.9c-7.6-3.8-11.8-12.3-10.1-20.7c3-15-3-30.7-15.2-39.9c-12.2-9.2-28.3-10.6-41.9-3.8l-11.5,5.8
	c-16.7-4-34.1,3.1-43.1,18.1c-7.9,13.1-12.3,28.2-12.9,43.5l-0.8,22c-6,0.6-11.6,2.8-16.5,6.2c-10.2-18-16.6-38.2-18.5-58.9
	c-2.1-22.6,5.5-45.3,20.7-62.1l19-21.1c15.5-17.2,37.7-27.1,60.8-27.1c1.6,0,3.2-0.5,4.5-1.4c19.3-13.2,44.5-15.4,65.7-5.8
	l68.6,31.1c18.9,8.6,33,25.8,37.7,46C400.2,148.1,394.9,182.6,378.3,211.7z"/>
<path d="M274.1,259.7l-0.1,0.1c-8.1,5.2-24.2,9.7-33.8,9.4c-4.4-0.1-8.1,3.4-8.2,7.8c-0.1,4.4,3.4,8.1,7.8,8.2c0.4,0,0.8,0,1.2,0
	c12.8,0,31.2-5.3,41.7-12l0.1-0.1c3.7-2.4,4.8-7.3,2.4-11.1S277.8,257.3,274.1,259.7z"/>
<circle cx="207" cy="200.5" r="17"/>
<path d="M240,253.2h16c4.4,0,8-3.6,8-8s-3.6-8-8-8h-5.5l5.2-19.1c1.2-4.3-1.3-8.7-5.6-9.8c-4.3-1.2-8.7,1.3-9.8,5.6l-8,29.2
	c-0.7,2.4-0.2,5,1.4,7C235.2,252,237.5,253.2,240,253.2z"/>
</svg>
