<?xml version="1.0" encoding="utf-8"?>
<!-- Generator: Adobe Illustrator 27.9.0, SVG Export Plug-In . SVG Version: 6.00 Build 0)  -->
<svg version="1.1" id="Outline" xmlns="http://www.w3.org/2000/svg" xmlns:xlink="http://www.w3.org/1999/xlink" x="0px" y="0px"
	 viewBox="0 0 2500 2500" enable-background="new 0 0 2500 2500" xml:space="preserve">
<g>
	<path d="M2062.25439,1532.91699l-57.42773-114.85547c-29.32617-58.65234-99.03223-83.37012-158.76428-56.20312l-205.73425,93.52148
		c-48.82324,22.2041-77.55322,74.76562-69.8833,127.81055l3.06152,21.2373c3.8833,26.90918-12.10107,52.59375-37.979,61.10156
		c-184.14258,60.19922-386.94434,60.19922-571.02246,0c-25.91016-8.50781-41.89453-34.19238-38.01123-61.10156l3.06152-21.20508
		c7.66992-53.07715-21.06006-105.63867-69.8833-127.84277l-205.75049-93.52148
		c-59.68359-27.23145-129.42188-2.44922-158.74805,56.20312l-57.42773,114.85547
		c-24.57275,49.14551-12.66504,109.28027,28.97168,146.17969C682.5708,1870.55469,960.73438,1976,1250,1976
		s567.4292-105.44531,783.28271-296.90332C2074.91943,1642.19727,2086.82715,1582.0625,2062.25439,1532.91699z
		 M1989.48682,1629.72559C1785.71826,1810.45215,1523.104,1910,1250,1910s-535.71826-99.54785-739.48682-280.27441
		c-19.31982-17.14453-24.97559-44.79492-13.72852-67.28906c0,0,57.28174-114.56348,57.42743-114.85486
		c13.16937-26.33875,45.69495-37.73804,72.39728-25.65295l205.73438,93.52148
		c22.26855,10.15137,35.38477,34.12793,31.88818,58.33008l-3.06152,21.2373c-8.4917,58.68457,26.3291,114.72656,82.80615,133.22461
		c197.30713,64.51758,414.67529,64.51758,612.0791,0c56.44482-18.49805,91.26562-74.54004,82.77393-133.22461l-3.06152-21.26953
		c-3.49658-24.16992,9.61963-48.14648,31.88818-58.29785l205.71826-93.52148c27.21533-12.34277,59.00684-1.0957,72.41309,25.65234
		l57.42773,114.85547C2014.4624,1584.93066,2008.80664,1612.58105,1989.48682,1629.72559z"/>
	<path d="M1160.71631,1438.84766l62.85791,84.01465c6.23584,8.34668,16.03271,13.24512,26.42578,13.24512
		s20.18994-4.89844,26.42578-13.24512l62.82568-83.9502c42.08789-8.18555,83.16064-22.55859,122.26758-42.76465
		c16.17773-8.37891,22.52637-28.29492,14.14746-44.47266c-8.37891-16.20996-28.2627-22.52637-44.47266-14.17969
		c-37.02832,19.1748-76.00647,32.16211-115.87061,38.63965c-8.42725,1.38574-16.00049,5.96191-21.12451,12.82617L1250,1448.03223
		l-44.19873-59.07129c-5.0918-6.83203-12.60059-11.4082-20.97949-12.79395C993.12207,1344.13379,854,1180.03613,854,986
		c0-218.36719,177.64893-396,396-396c22.53247,0,44.48682,2.33038,66,5.96191v99.11884c-38.32947,13.66608-66,49.9552-66,92.91925
		s27.67053,79.25116,66,92.91724V1052c0,36.38379-29.6001,66-66,66s-66-29.61621-66-66v-12.60059l18.24023,9.12012
		c16.35498,8.12109,36.10986,1.51465,44.2793-14.75977c8.15332-16.30664,1.54688-36.12598-14.75977-44.2793
		c0,0-65.97217-32.98608-66-33C1145.17346,946.18732,1118,961.26917,1118,986v66c0,72.7998,59.21631,132,132,132
		s132-59.2002,132-132V880.91925c38.32947-13.66608,66-49.9552,66-92.91925s-27.67053-79.25317-66-92.91925v-81.97833
		C1535.54956,667.63782,1646,813.97058,1646,986c0,64.03418-14.85645,125.10352-44.13428,181.46777
		c-8.41113,16.17773-2.11084,36.09375,14.06689,44.50488c16.09717,8.31445,36.07764,2.09473,44.48877-14.08301
		C1694.646,1132.05078,1712,1060.7334,1712,986c0-254.75098-207.24902-462-462-462S788,731.24902,788,986
		C788,1207.94434,943.94434,1396.27637,1160.71631,1438.84766z M1349,755c18.19189,0,33,14.79199,33,33s-14.80811,33-33,33
		s-33-14.79199-33-33S1330.80811,755,1349,755z"/>
	<circle cx="1553.34863" cy="1289.34863" r="33"/>
</g>
</svg>
