<svg id="line" xmlns="http://www.w3.org/2000/svg" viewBox="0 0 64 64"><title>1</title><path d="M56.626,58.64746l-4.24024-11.25A9.06806,9.06806,0,0,0,46.752,41.97363l-7.2373-2.46777-1.82227-1.98334V35.07538a10.90724,10.90724,0,0,0,4.98194-8.22894,4.5259,4.5259,0,0,0,3.935-5.39042,4.41228,4.41228,0,0,0-1.54-2.50473v-3.7677C45.06934,9.0166,40.8252,4,35.60742,4H27.542C22.3988,4,18.2099,8.87762,18.09167,14.92407a21.99322,21.99322,0,0,0-5.52282,1.49,2.30593,2.30593,0,0,0-1.729,2.16607l0,3.75971a1.00009,1.00009,0,0,0,2,0V18.58008a.16421.16421,0,0,1,.12159-.1543l.395-.17285a19.832,19.832,0,0,1,15.31005-.00388l.4336.18552a.15271.15271,0,0,1,.1001.14551V29.04a.18175.18175,0,0,1-.07715.14258l-4.86182,3.81152a5.88909,5.88909,0,0,1-6.42529.041l-4.917-3.748a.19281.19281,0,0,1-.07911-.14746V26.33984a1.00012,1.00012,0,0,0-2,.00006v2.79975A2.2016,2.2016,0,0,0,11.7041,30.875l4.977,3.791A7.90307,7.90307,0,0,0,25.324,34.676c.24689.18451.50513.35633.77216.52082V37.5401L24.39355,39.582l-7.14013,2.38965a9.07164,9.07164,0,0,0-5.63916,5.42578l-4.23975,11.25A1.00707,1.00707,0,0,0,8.31008,60L45.7002,60a1.0001,1.0001,0,0,0-.00005-2H35.94379l-2.80512-7.40039,1.85639-2.29608,1.86139,1.61835A1.00771,1.00771,0,0,0,38.5,49.32809l1.24312-7.6315,6.37018,2.17157a7.08123,7.08123,0,0,1,4.40137,4.23438L54.24512,58H49.7002a1.0001,1.0001,0,0,0,0,2h5.9902A1.00726,1.00726,0,0,0,56.626,58.64746ZM27.17139,47.24707l-1.12281-6.52643,1.00684-1.20752L30.63776,44.233Zm.9248-9.67023V36.16223a10.80675,10.80675,0,0,0,7.59619-.06338V37.5874l-3.71032,5.10926ZM43.96,24.1543a2.50527,2.50527,0,0,1-1.22168.67279V19.95978A2.49532,2.49532,0,0,1,43.96,24.1543Zm-23.8609-9.42054C20.29156,9.87982,23.55109,6,27.542,6h8.06543c4.11426,0,7.46192,4.12012,7.46192,9.18359v2.80469a5.099,5.099,0,0,0-1.459-.11816c-2.62695.34277-5.5-4.06543-6.37793-5.793a1.00553,1.00553,0,0,0-1.8623.21294c-.82364,2.78259-1.18367,4.064-2.48371,5.19275a2.538,2.538,0,0,0-1.43722-1.07363A21.69251,21.69251,0,0,0,20.09906,14.73376ZM30.34473,30.7666A2.17925,2.17925,0,0,0,31.2002,29.04v-9.4856A4.21789,4.21789,0,0,0,33.25586,17.874a14.2366,14.2366,0,0,0,1.38769-2.877c1.2851,1.91687,3.489,4.51086,6.09473,4.85211v6.04535c.1236,6.92422-7.98219,11.349-13.75522,7.50418ZM13.48535,48.10254a7.07965,7.07965,0,0,1,4.40186-4.23438l6.31042-2.11151L25.502,49.33691a1.00677,1.00677,0,0,0,1.64161.58493l1.86163-1.61856,1.85663,2.29633L28.05713,58H9.75537ZM33.8042,58H30.196l1.80439-4.76093Zm-1.80365-9.17389-1.48468-1.8363L32,45.69946l1.48492,1.29108Zm4.8139-1.59173-3.46673-3.014,3.43591-4.73041,1.09729,1.19452Z"/><path d="M14.03516,20.84082a1.00049,1.00049,0,0,0,1.27348,1.54293,2.2345,2.2345,0,0,1,2.73042.04594.9906.9906,0,0,0,.57471.18261,1.00606,1.00606,0,0,0,.5766-1.81739A4.26819,4.26819,0,0,0,14.03516,20.84082Z"/><path d="M27.11279,22.6123a1.00645,1.00645,0,0,0,.57612-1.81836,4.26852,4.26852,0,0,0-5.15473.04786.99382.99382,0,0,0-.13672,1.39453,1.00493,1.00493,0,0,0,1.40186.1543,2.2533,2.2533,0,0,1,2.73925.04A.99393.99393,0,0,0,27.11279,22.6123Z"/><path d="M19.77,24.28027a1.00011,1.00011,0,0,0-1.11469,1.66019A4.79223,4.79223,0,0,0,21.145,26.667a4.20768,4.20768,0,0,0,2.34521-.71875A.99992.99992,0,0,0,22.3935,24.2764,2.49238,2.49238,0,0,1,19.77,24.28027Z"/><path d="M24.646,28.38379a6.65041,6.65041,0,0,1-7.14307.06348.99973.99973,0,0,0-1.19044,1.60644,8.20983,8.20983,0,0,0,4.62306,1.38867c.74115.07929,6.0742-.72566,5.07478-2.68646A.99826.99826,0,0,0,24.646,28.38379Z"/></svg>