<svg id="Layer_1" data-name="Layer 1" xmlns="http://www.w3.org/2000/svg" viewBox="0 0 512 512"><title>604 - Police Badge</title><path d="M256,489a21.46,21.46,0,0,1-16.2-7.41c-7.56-8.68-16.09-12-26.07-10.27a38,38,0,0,1-6.58.57c-34.52,0-75.6-44.92-102.33-91.95C86.11,347,73.57,311.89,69.51,281c-4.85-37,2.31-67.79,20.72-89.11A42.6,42.6,0,0,0,98,149.72c-4.49-12.54-13.36-24.12-26.36-34.4a8,8,0,0,1-.47-12.15l64.8-59.93a8,8,0,0,1,8.83-1.37,117,117,0,0,0,37.12,8.8c27.4,1.86,50.4-6.62,68.35-25.22a8,8,0,0,1,11.52,0C305,70.28,366.61,42.16,367.23,41.87a8,8,0,0,1,8.83,1.37l64.8,59.93a8,8,0,0,1-.47,12.15c-13,10.28-21.87,21.86-26.36,34.4a42.6,42.6,0,0,0,7.74,42.16C440.18,213.2,447.34,244,442.49,281c-4.06,30.9-16.6,66-35.31,98.95C378.73,430,334,477.66,298.27,471.32c-10-1.77-18.51,1.59-26.07,10.27A21.46,21.46,0,0,1,256,489Zm-37.24-34.14c12.47,0,23.79,5.52,33.11,16.23a5.42,5.42,0,0,0,8.26,0c11.23-12.91,25.39-18.28,40.94-15.53,23.15,4.12,62.8-31.8,92.2-83.53,29.84-52.49,52-128.43,16.39-169.69a58.62,58.62,0,0,1-10.69-58c4.62-12.91,12.82-24.83,24.42-35.52L368.94,58.45a136.1,136.1,0,0,1-37.15,8.14c-29.3,2.14-55.34-6.32-75.79-24.5-20.45,18.18-46.49,26.64-75.79,24.5a136.1,136.1,0,0,1-37.15-8.14L88.61,108.8c11.6,10.69,19.8,22.61,24.42,35.52a58.62,58.62,0,0,1-10.69,58C66.7,243.6,88.89,319.54,118.73,372c29.4,51.73,69,87.64,92.2,83.53A44.94,44.94,0,0,1,218.76,454.86Z"/><path d="M256,452.2a8,8,0,0,1-4.67-1.5,55,55,0,0,0-32.62-10.63,59.65,59.65,0,0,0-10.17.89,8.34,8.34,0,0,1-1.58.11c-6.75-.17-21.09-7.23-39.29-26.55-18-19.1-35.51-45.78-48.06-73.2-10.64-23.24-17.74-47.43-20-68.11-2.9-26.55,1.79-47.14,13.94-61.2a73.31,73.31,0,0,0,14.16-70.52A96.2,96.2,0,0,0,114,115.07a8,8,0,0,1,1-10.58l28.28-26.15a8,8,0,0,1,7.52-1.85,145.83,145.83,0,0,0,38.17,5.22c23.17,0,44.24-6,62.63-17.8a8,8,0,0,1,8.64,0c18.4,11.81,39.47,17.8,62.63,17.8a145.83,145.83,0,0,0,38.17-5.22,8,8,0,0,1,7.53,1.85l28.27,26.15a8,8,0,0,1,1,10.58,96.2,96.2,0,0,0-13.67,26.42A73.31,73.31,0,0,0,398.45,212c12.15,14.05,16.84,34.64,13.94,61.17-2.25,20.67-9.35,44.85-20,68.07-12.55,27.44-30.07,54.13-48.07,73.24-18.21,19.33-32.55,26.4-39.3,26.58a7.64,7.64,0,0,1-1.59-.11,59.65,59.65,0,0,0-10.17-.89,54.88,54.88,0,0,0-32.62,10.63A8,8,0,0,1,256,452.2Zm-37.29-28.13A70.23,70.23,0,0,1,256,434.6a70.23,70.23,0,0,1,37.29-10.53,75,75,0,0,1,11.53.9c3.33-1,13.56-6.25,27.88-21.45,16.85-17.89,33.31-43,45.17-68.92,16.82-36.78,29.14-88.22,8.48-112.13a89.38,89.38,0,0,1-17.25-86A110.19,110.19,0,0,1,381,111.55l-20-18.5a160.72,160.72,0,0,1-38,4.66c-24.5,0-47-5.94-66.95-17.68-20,11.74-42.45,17.68-66.94,17.68a161.26,161.26,0,0,1-38-4.66l-20,18.5a110.19,110.19,0,0,1,11.9,24.93,89.38,89.38,0,0,1-17.25,86c-20.67,23.93-8.34,75.39,8.51,112.19,11.85,25.9,28.31,51,45.15,68.89C193.63,418.74,203.85,424,207.18,425A75,75,0,0,1,218.71,424.07Z"/><path d="M311,396.08a7.91,7.91,0,0,1-3.72-.92L256,368.22l-51.25,26.94a8,8,0,0,1-11.61-8.43l9.79-57.06-41.46-40.42a8,8,0,0,1,4.43-13.64l57.3-8.33,25.62-51.92a8,8,0,0,1,14.35,0l25.63,51.92,57.29,8.33a8,8,0,0,1,4.44,13.64l-41.46,40.42,9.78,57.06a8,8,0,0,1-7.88,9.35Zm-55-44.9a8,8,0,0,1,3.72.92l40.62,21.36-7.75-45.23a8,8,0,0,1,2.3-7.08l32.86-32-45.42-6.6a8,8,0,0,1-6-4.38L256,237l-20.31,41.15a8,8,0,0,1-6,4.38l-45.41,6.6,32.86,32a8,8,0,0,1,2.3,7.08l-7.76,45.23,40.63-21.36A8,8,0,0,1,256,351.18Z"/><path d="M339,134.76H173a8,8,0,0,1,0-16H339a8,8,0,1,1,0,16Z"/><path d="M339,190H173a8,8,0,0,1,0-16H339a8,8,0,0,1,0,16Z"/></svg>