<svg id="e11bb691-5bb8-4e71-b682-aceb39ea4e50" data-name="line" xmlns="http://www.w3.org/2000/svg" viewBox="0 0 64 64"><title>1</title><path d="M59.17188,14.35449a.99425.99425,0,0,0-1.14063.73926c-.30957,1.21777-1.76562,1.53027-2.94336,1.57715,3.28906-5.94629.80957-10.709.69336-10.92481a1,1,0,0,0-1.87891.41309c-.22453,4.32091-5.614,7.04255-10.09764,6.92081C37.00488,13.11035,33.4873,16.11816,32,17.89746c-1.4873-1.7793-5.00391-4.78711-11.80078-4.81738-4.49013.12193-9.87876-2.60175-10.10159-6.921a1,1,0,0,0-1.87888-.413c-.11621.21582-2.5957,4.97852.69336,10.92481-1.17773-.04688-2.63379-.35938-2.94336-1.57715a.99962.99962,0,0,0-1.96387.34277c.03168.33045.8338,8.051,5.35547,13.97144v26.2727a3.09473,3.09473,0,1,0,6.18945,0V34.51117C20.81219,36.89964,26.21929,36.23084,32,34.14751c6.34278,2.34175,11.84474,2.48335,16.35646.42183a.99994.99994,0,0,0-.83208-1.81835c-4.08688,1.86913-9.19332,1.666-15.1689-.60548a.99142.99142,0,0,0-.71094,0C17.71733,37.69,9.28035,30.37948,6.53816,18.25758c1.3155.51894,6.10026,1.086,4.94038-1.25168a11.276,11.276,0,0,1-2.25-7.19145,10.71079,10.71079,0,0,0,4.05273,3.63379,14.55,14.55,0,0,0,6.9043,1.63184c8.1875.03613,10.82031,4.81055,10.92578,5.00879a1.04186,1.04186,0,0,0,1.77734,0c.02539-.04883,2.667-4.97168,10.92969-5.00879,4.42651.01321,8.74331-1.82074,10.95317-5.26565a11.28078,11.28078,0,0,1-2.25005,7.19143,1.00685,1.00685,0,0,0,.65041,1.56054,8.744,8.744,0,0,0,4.29-.30859c-.79687,3.419-2.665,8.97266-6.79785,12.46875a1,1,0,0,0,1.291,1.52731c6.91208-5.84567,7.997-16.373,8.04-16.81832A.99921.99921,0,0,0,59.17188,14.35449ZM11.36035,31.62836a16.4844,16.4844,0,0,0,2.18945,1.7489v22.3034a1.09478,1.09478,0,0,1-2.18945-.00005Z"/><path d="M21.49023,20.67578a1.00013,1.00013,0,0,0,.43942-1.95118,19.37665,19.37665,0,0,0-7.59371-.07128,1.00511,1.00511,0,0,0-.74706,1.25294c2.56178,9.65976,10.02248,11.29126,16.44734,7.47739a1.00016,1.00016,0,0,0,.412-1.161,10.8109,10.8109,0,0,0-4.48144-5.86621A1.00031,1.00031,0,0,0,24.89261,22.044a8.69,8.69,0,0,1,3.36423,4.03416c-1.34766.6621-4.39746,1.85156-7.23633.76953-2.2666-.86426-4.002-3.01856-5.168-6.40918A17.24853,17.24853,0,0,1,21.49023,20.67578Z"/><path d="M50.30957,19.12012c.047-.83231-13.27645-3.19123-16.75781,7.09746a.99934.99934,0,0,0,.41113,1.16328c6.43691,3.82006,13.88461,2.17833,16.44814-7.4728A.99884.99884,0,0,0,50.30957,19.12012Zm-7.332,7.72656c-2.83789,1.08105-5.88574-.1084-7.23438-.77051,2.63575-6.19531,9.67579-5.97949,12.40625-5.64258C46.98242,23.82715,45.24512,25.98242,42.97754,26.84668Z"/></svg>