<svg xmlns="http://www.w3.org/2000/svg" viewBox="0 0 64 64"><g id="Layer_32" data-name="Layer 32"><path d="M59.344,51.035A2.6,2.6,0,0,1,58,48.764V48a1,1,0,0,0-1-1H37a1,1,0,0,0-1,1v.764a2.6,2.6,0,0,1-1.344,2.271A3.991,3.991,0,0,0,31,55v1a1,1,0,0,0,1,1H62a1,1,0,0,0,1-1V55A3.991,3.991,0,0,0,59.344,51.035ZM56.006,49a4.6,4.6,0,0,0,.578,2H37.416a4.6,4.6,0,0,0,.578-2ZM33,55a2,2,0,0,1,2-2H59a2,2,0,0,1,2,2Z"/><path d="M14.031,38.937,7.054,44.054A14.866,14.866,0,0,0,1,56a1,1,0,0,0,1,1,14.868,14.868,0,0,0,11.946-6.053l5.117-6.978a37.585,37.585,0,0,1,3.729-4.347,13.926,13.926,0,0,1,5.174-3.242l.327.327a1,1,0,0,0,1.414,0L31.5,34.914l.793.793a1,1,0,0,0,1.414,0l.65-.65a1.955,1.955,0,0,1,1.329.894A3.1,3.1,0,0,0,38.121,41a5.823,5.823,0,0,0,2.053-.372A17.858,17.858,0,0,0,50.627,30.174,5.8,5.8,0,0,0,51,28.121,3.124,3.124,0,0,0,47.879,25a3.091,3.091,0,0,0-1.928.684,1.989,1.989,0,0,1-.892-1.329l.648-.648a1,1,0,0,0,0-1.414l-10-10a1,1,0,0,0-1.414,0l-.648.648a1.987,1.987,0,0,1-1.329-.893A3.086,3.086,0,0,0,33,10.121,3.124,3.124,0,0,0,29.879,7a5.823,5.823,0,0,0-2.053.372A17.855,17.855,0,0,0,17.373,17.826,5.8,5.8,0,0,0,17,19.879,3.124,3.124,0,0,0,20.121,23a3.091,3.091,0,0,0,1.928-.684,1.989,1.989,0,0,1,.892,1.329l-.648.648a1,1,0,0,0,0,1.414l.793.793-1.793,1.793a1,1,0,0,0,0,1.414l.327.327a13.916,13.916,0,0,1-3.243,5.174A37.6,37.6,0,0,1,14.031,38.937ZM47.879,27A1.122,1.122,0,0,1,49,28.121a3.845,3.845,0,0,1-.245,1.351,15.86,15.86,0,0,1-9.283,9.283A3.823,3.823,0,0,1,38.121,39a1.121,1.121,0,0,1-.793-1.914l9.758-9.758A1.117,1.117,0,0,1,47.879,27Zm-3.394.1L37.1,34.485a3.934,3.934,0,0,0-1.179-.993l7.57-7.57A3.934,3.934,0,0,0,44.485,27.1ZM35,14.414,43.586,23,33,33.586,24.414,25ZM20.121,21A1.122,1.122,0,0,1,19,19.879a3.845,3.845,0,0,1,.245-1.351,15.858,15.858,0,0,1,9.283-9.283A3.845,3.845,0,0,1,29.879,9a1.121,1.121,0,0,1,.793,1.914l-9.758,9.758A1.117,1.117,0,0,1,20.121,21Zm3.394-.1L30.9,13.515a3.934,3.934,0,0,0,1.179.993l-7.57,7.57A3.934,3.934,0,0,0,23.515,20.9Zm6.571,12.6L29,34.586,23.414,29,24.5,27.914Zm-6.917-1.917,3.248,3.248a15.949,15.949,0,0,0-5.04,3.377,39.749,39.749,0,0,0-3.927,4.577l-5.117,6.979a12.864,12.864,0,0,1-9.29,5.193,12.862,12.862,0,0,1,5.193-9.29l6.978-5.117a39.7,39.7,0,0,0,4.578-3.928A15.934,15.934,0,0,0,23.169,31.583Z"/><rect x="50.595" y="34" width="7.81" height="2" transform="translate(-7.286 54.435) rotate(-50.169)"/><rect x="54" y="41" width="7" height="2"/></g></svg>