<?xml version="1.0" encoding="utf-8"?>
<!-- Generator: Adobe Illustrator 24.3.0, SVG Export Plug-In . SVG Version: 6.00 Build 0)  -->
<svg version="1.1" id="Layer_1" xmlns="http://www.w3.org/2000/svg" xmlns:xlink="http://www.w3.org/1999/xlink" x="0px" y="0px"
	 viewBox="0 0 64 64" enable-background="new 0 0 64 64" xml:space="preserve">
<path d="M51.8,2.5C51.8,2.5,51.8,2.4,51.8,2.5C51.5,2,51,1.9,50.5,2.1c0,0,0,0-0.1,0l-17,11c-0.3,0.2-0.4,0.5-0.5,0.8l-1.4,22.6l0,0
	L30,24.9c0-0.3-0.3-0.6-0.6-0.8l-16-7c-0.4-0.2-0.9,0-1.2,0.3l-10,14c-0.2,0.3-0.2,0.8,0,1.1l13.3,20.7L6.8,55
	c-0.2,0-0.4,0.2-0.6,0.4l-4,5l1.6,1.2l3.8-4.7l9.1-1.8l3.5,5.5c0.2,0.3,0.5,0.5,0.8,0.5h6c0.3,0,0.5-0.1,0.7-0.3l4.7-4.7l0.7,2.3
	c0.1,0.4,0.5,0.7,1,0.7h11c0.5,0,0.9-0.3,1-0.8l0.9-3.9l10.5,3.5l2.8,3.8l1.6-1.2l-3-4c-0.1-0.2-0.3-0.3-0.5-0.3l-11-3.7l2.3-9.8
	l12.2-23.1c0.2-0.3,0.2-0.7,0-1L51.8,2.5z M43.6,41.8l-2.9-7l6.4,5.8L43.6,41.8z M37.7,32.8l3.7,8.9L31,40.3L37.7,32.8z M51.8,17.8
	l-8.2-1.5l6.7-10.4L51.8,17.8z M41.6,15.8l-5.4-2l11.4-7.4L41.6,15.8z M42.8,18.2l8.8,1.6l-6.3,16.5l-5.1-4.6L42.8,18.2z M49,39.6
	l-2-1.8L53.7,20h5.7L49,39.6z M53.9,18L52.6,7.4L59.2,18H53.9z M34.9,15.4l5.9,2.2l-2.4,12.5C38.3,30.1,38.1,30,38,30
	c-0.3,0-0.5,0.1-0.7,0.3l-3.5,3.9L34.9,15.4z M13.8,31H4.9l7.4-10.4L13.8,31z M15.8,30.5l-1.5-10.8l12.4,5.4L15.8,30.5z M4.8,33h9.5
	l11.1,26h-3.9L4.8,33z M27.3,58.2l-11-25.8l11.9-6l1.7,12l-1.6,1.8c-0.2,0.3-0.3,0.6-0.2,1l3.7,12.5L27.3,58.2z M30.4,42.2l11.4,1.6
	L39.2,57h-4.4L30.4,42.2z M44.2,57h-3l2.6-13.2l3.7-1.2L44.2,57z"/>
<polygon points="24,4 24,8 22,8 22,10 24,10 24,14 26,14 26,10 28,10 28,8 26,8 26,4 "/>
<rect x="16" y="12" width="2" height="2"/>
<rect x="28" y="18" width="2" height="2"/>
<rect x="39" y="3" width="2" height="2"/>
</svg>
