<svg id="Bahan_copy" data-name="Bahan copy" xmlns="http://www.w3.org/2000/svg" viewBox="0 0 64 64"><defs><style>.cls-1{fill:#231f20;}</style></defs><path class="cls-1" d="M52.73926,33.38184l-4.72266-7.333a1.02623,1.02623,0,0,0-1.28566-.35445l-5.13841,2.55037,1.70435-12.18518a3.19708,3.19708,0,0,0-1.02832-2.834L32.23389,4.25488a1.02783,1.02783,0,0,0-1.03553-.18045c-.10124.05778-10.32678,9.14627-10.32678,9.14627a3.19455,3.19455,0,0,0-1.03516,2.82813l1.50635,10.73-4.07373-2.022a.97637.97637,0,0,0-1.15607.21705c-.04363.04564-4.85272,7.47045-4.85272,7.47045a2.42074,2.42074,0,0,0-.186,2.27343l9.95166,23.00586a2.22891,2.22891,0,0,0,2.62744,1.25879c.008-.00221,2.188-.6031,2.19486-.605.986-.33616,2.92435-.513,3.46136-1.54436l5.0477,0a2.2264,2.2264,0,0,0,1.60614,1.8789l4.38379,1.208a2.23262,2.23262,0,0,0,2.627-1.25879L52.92529,35.6543A2.41337,2.41337,0,0,0,52.73926,33.38184Zm-7.1214-4.90265-1.553,5.634-3.65137-3.0506Zm1.92773.53137,3.1463,4.88562-4.6994.74841Zm-8.62762.56171a2.4171,2.4171,0,0,0-1.32471,1.85644L34.54071,54.833H32.56738V20.50781l8.63776-3.93054L39.42236,29.3219ZM32.56738,7.23566l8.21021,7.33905-8.21021,3.7359Zm-2,11.075-8.21026-3.7359,8.21026-7.339Zm-8.63727-1.7331,8.63727,3.9303V54.833H29.5813l-3.17456-24.3418C26.3,28.98964,24.653,28.42093,23.51342,27.85626Zm-5.4757,11.49555,1.553,5.634L13.308,32.95868Zm1.92767-.53137,5.20508,2.58368-3.652,3.05047Zm4.739,29.513a.223.223,0,0,1-.25927-.125L13.37347,34.994l5.2179.83148,5.75848,20.89069Zm4.38428-1.208-1.22778.33832L20.51917,35.29456,24.57434,31.907,27.665,55.60645A.22029.22029,0,0,1,27.50537,55.84668ZM36.335,56.542l3.09076-23.69818,4.05505,3.38812-5.7586,20.89045-1.227-.3382A.22221.22221,0,0,1,36.335,56.542Zm4.80322,1.3252a.2234.2234,0,0,1-.26025.125l-1.22809-.3385,5.75873-20.89075,5.21753-.83142Z"/></svg>