<?xml version="1.0" encoding="UTF-8"?><svg id="Layer_1" xmlns="http://www.w3.org/2000/svg" viewBox="0 0 512 512"><path d="M231.349,151.266c8.043,.492,16.105,.734,24.652,.734s16.609-.242,24.652-.734h.051c11.859-.812,23.309-2.102,34.023-3.844,60.578-9.859,101.273-34.547,101.273-51.422,0-12.945-22.43-26.852-43.414-35.547-18.91-7.844-41.727-13.758-65.965-17.094-31.927-4.432-68.817-4.445-100.768-.055-.024,.002-.047,.006-.071,.008-.128,.018-.263,.029-.392,.047-24.25,3.336-47.066,9.25-65.973,17.094-20.988,8.695-43.418,22.602-43.418,35.547,0,16.875,40.695,41.562,101.273,51.422,10.715,1.742,22.164,3.031,34.074,3.844Zm168.293-55.25c-4.16,6.289-31.086,26.43-87.484,35.609-7.374,1.201-15.216,2.094-23.227,2.835,3.044-32.092,13.417-58.603,21.104-74.326,15.17,2.377,29.664,5.711,42.655,10.004-9.644,7.738-21.324,19.042-31.395,34.533-2.41,3.703-1.359,8.656,2.348,11.07,4.707,2.464,9.535,.008,11.066-2.352,11.866-18.252,26.284-30.08,35.582-36.465,18.011,7.983,27.101,15.727,29.352,19.09Zm-106.222-38.125c-8.152,17.7-17.952,45.096-20.634,77.719-13.401,.576-27.33,.501-40.402-.313-9.714-.661-19.02-1.726-27.933-3.041-11.036-30.157-30.591-50.443-45.115-62.125,12.989-4.292,27.483-7.624,42.659-9.999,6.212,12.713,13.625,31.118,18.115,53.446,.766,3.797,4.824,7.097,9.422,6.266,4.349-.786,7.137-5.086,6.266-9.422-4.285-21.301-11.042-39.22-17.179-52.535,24.196-2.482,50.593-2.481,74.801,.004ZM112.36,96.016c2.25-3.362,11.328-11.096,29.317-19.074,11.409,7.812,31.549,24.552,44.154,52.022-46.83-9.953-69.674-27.208-73.471-32.948Z"/><path d="M412.517,353.383c-14.148-10.898-25.129-22.289-33.578-34.836-8.988-13.242-14.855-27.859-17.441-43.438-.992-6.094-1.496-12.523-1.496-19.109,0-10.203,1.285-20.32,3.801-29.992,9.011-33.373,31.852-56.524,49.488-70.109,27.921-16.897,42.711-37.589,42.711-59.898C456.001,42.172,368.149,0,256.001,0S56.001,42.172,56.001,96c0,22.31,14.79,43.001,42.711,59.898,17.637,13.585,40.477,36.737,49.469,70.039,2.535,9.742,3.82,19.859,3.82,30.062,0,6.586-.504,13.016-1.492,19.086-2.59,15.602-8.457,30.219-17.465,43.484-8.43,12.523-19.41,23.914-33.559,34.812-27.238,16.453-43.484,39.836-43.484,62.617,0,17.633,9.516,34.664,27.484,49.227,21.68,17.781,54.461,31.414,94.797,39.414,24.57,4.883,50.719,7.359,77.719,7.359s53.148-2.477,77.715-7.359c40.34-8,73.121-21.633,94.762-39.383,18.008-14.594,27.523-31.625,27.523-49.258,0-22.781-16.246-46.164-43.484-62.617Zm-14.098,9.088c-3.235,6.559-11.605,19.175-31.543,30.605-9.91-14.329-17.981-29.755-24.112-46.058,12.407-4.359,21.492-9.148,27.714-13.041,7.646,10.081,16.886,19.496,27.941,28.493Zm-85.359,65.009c18.34-3.12,34.685-7.857,48.799-14.153,16.839,21.47,34.735,36.595,47.736,45.939-18.183,12.103-43.553,21.939-73.047,28.373-5.974-12.322-14.938-32.926-23.488-60.159Zm-137.605,60.16c-29.478-6.431-54.839-16.264-73.043-28.376,13.001-9.344,30.896-24.469,47.73-45.938,14.113,6.295,30.457,11.034,48.802,14.153-8.547,27.228-17.514,47.836-23.489,60.161Zm-8.962-251.496c5.056,1.579,10.363,3,15.898,4.264,.984,7.856,1.61,15.759,1.61,23.593,0,5.001-.18,9.793-.454,14.527-7.042-2.215-12.501-4.517-16.566-6.561,.609-5.208,1.021-10.52,1.021-15.966,0-6.669-.542-13.297-1.509-19.856Zm178.53,35.822c-4.063,2.042-9.521,4.343-16.568,6.559-.273-4.724-.454-9.516-.454-14.525,0-7.851,.626-15.76,1.608-23.59,5.542-1.267,10.849-2.688,15.898-4.266-.964,6.551-1.507,13.182-1.507,19.856,0,5.442,.413,10.753,1.021,15.966Zm-36.535,140.07c-5.029-17.761-9.167-35.999-12.357-54.448,11.046-1.399,21.508-3.395,31.281-5.964,6.338,17.103,14.67,33.321,24.878,48.438-12.682,5.302-27.352,9.305-43.801,11.975Zm-109.626-168.35c7.835,1.296,16.065,2.266,24.554,2.956,.35,5.793,.585,11.542,.585,17.357,0,7.307-.21,14.821-.52,22.38-8.564-.888-16.646-2.152-24.196-3.776,.428-6.046,.716-12.164,.716-18.604,0-6.736-.464-13.524-1.14-20.313Zm113.854,38.917c-7.539,1.622-15.623,2.889-24.195,3.777-.31-7.561-.52-15.075-.52-22.38,0-5.826,.235-11.577,.585-17.356,8.512-.693,16.741-1.664,24.553-2.955-.674,6.777-1.139,13.566-1.139,20.311,0,6.455,.288,12.573,.714,18.604Zm-40.159,4.953c-10.85,.521-22.258,.521-33.111,0,.333-7.956,.556-15.865,.556-23.557,0-5.479-.2-10.902-.494-16.357,5.187,.213,10.575,.357,16.494,.357s11.319-.144,16.494-.356c-.293,5.446-.494,10.869-.494,16.356,0,7.69,.224,15.599,.556,23.557Zm-34.099,15.968c5.716,.281,11.543,.475,17.543,.475s11.828-.194,17.543-.475c.946,13.288,2.36,26.553,4.217,39.708-14.14,.908-29.402,.906-43.521,.003,1.857-13.154,3.271-26.42,4.217-39.711Zm55.243,38.243c-1.861-13.055-3.267-26.23-4.204-39.418,8.722-.884,17.04-2.106,24.816-3.703,1.648,12.865,4.315,25.511,7.962,37.797-8.923,2.289-18.487,4.063-28.575,5.325Zm21.912-114.797c-8.066,1.509-16.586,2.7-25.561,3.515,2.377-18.517,6.215-32.231,9.138-40.741,10.143-1.039,20.126-2.465,29.879-4.271-6.171,12.97-10.592,26.885-13.456,41.498Zm-41.772,4.587c-5.555,.263-11.356,.442-17.839,.442s-12.265-.179-17.837-.443c-2.002-17.09-5.201-30.694-8.128-40.441,8.53,.523,17.173,.884,25.966,.884s17.441-.361,25.966-.885c-2.925,9.742-6.122,23.341-8.127,40.443Zm-61.026-41.812c2.917,8.492,6.745,22.155,9.121,40.577-8.929-.814-17.487-1.947-25.565-3.464-2.858-14.551-7.272-28.434-13.436-41.385,9.758,1.807,19.743,3.234,29.879,4.272Zm-15.124,108.9c7.785,1.599,16.1,2.82,24.814,3.703-.938,13.191-2.342,26.367-4.204,39.421-10.087-1.265-19.647-3.039-28.575-5.328,3.652-12.308,6.321-24.958,7.964-37.796Zm-13.098,52.978c9.777,2.569,20.235,4.565,31.279,5.967-3.189,18.442-7.326,36.675-12.357,54.444-16.454-2.67-31.124-6.672-43.803-11.974,10.212-15.12,18.546-31.342,24.881-48.437Zm47.252,7.487c7.762,.533,15.776,.889,24.157,.889s16.39-.356,24.156-.893c3.186,18.671,7.319,37.138,12.333,55.131-11.411,1.156-23.623,1.762-36.489,1.762s-25.083-.606-36.49-1.763c5.017-18,9.148-36.462,12.333-55.126Zm129.72-38.423c-5.348,3.311-13.173,7.38-23.962,11.18-3.567-12.025-6.122-24.426-7.64-37.075,7.285-2.128,13.271-4.406,18.082-6.565,2.917,11.403,7.477,22.247,13.52,32.46Zm-11.863-102.909c-5.253,1.997-10.911,3.798-16.952,5.391,3.612-15.05,9.244-29.159,16.826-42.118,7.798-1.944,15.338-4.131,22.536-6.557-9.185,11.997-17.239,26.45-22.41,43.284ZM72.001,96c0-43.367,84.262-80,184-80s184,36.633,184,80c0,16.312-12.625,32.852-35.551,46.57-16.438,9.836-37.895,18.07-62.062,23.805-15.848,3.766-32.582,6.453-49.766,7.977-23.609,2.188-49.602,2.188-73.273,0-17.152-1.523-33.887-4.211-49.738-7.977-24.164-5.734-45.621-13.969-62.059-23.805-22.922-13.719-35.551-30.258-35.551-46.57Zm67.895,78.497c7.196,2.426,14.735,4.612,22.531,6.556,7.589,12.971,13.222,27.089,16.828,42.117-6.034-1.59-11.693-3.391-16.951-5.39-5.16-16.828-13.217-31.282-22.408-43.284Zm24.06,113.73c4.814,2.161,10.801,4.442,18.084,6.569-1.513,12.619-4.067,25.026-7.641,37.073-10.788-3.798-18.615-7.869-23.964-11.183,6.046-10.217,10.604-21.057,13.521-32.459Zm-22.433,45.75c6.224,3.894,15.31,8.686,27.715,13.043-6.126,16.294-14.199,31.721-24.114,46.054-19.936-11.429-28.306-24.046-31.541-30.604,11.06-9.001,20.301-18.418,27.94-28.493Zm-69.522,82.022c0-14.936,10.748-31.31,28.523-44.127,4.909,8.872,15.053,22.227,35.044,34.11-16.846,20.837-34.612,35.001-46.343,43.023-8.644-8.005-17.224-19.358-17.224-33.006Zm119.698,74.717c6.332-13.471,15.031-34.209,23.266-60.896,12.791,1.419,26.518,2.179,41.036,2.179s28.24-.761,41.036-2.179c8.238,26.692,16.935,47.427,23.266,60.896-20.537,3.436-42.074,5.283-64.302,5.283s-43.763-1.848-64.302-5.283Zm231.075-41.712c-11.731-8.022-29.496-22.186-46.342-43.021,19.993-11.883,30.137-25.239,35.046-34.111,17.775,12.817,28.523,29.191,28.523,44.127,0,13.637-8.566,24.981-17.227,33.005Z"/></svg>