<?xml version="1.0" encoding="UTF-8"?>
<svg id="_Слой_1" data-name="Слой 1" xmlns="http://www.w3.org/2000/svg" viewBox="0 0 956.95 704.67">
  <path d="M954.63,208.31c-6.97-11.02-14.4-17.6-24.91-25.28-8.5-6.21-16.85-11.89-26.9-15.37-6.03-2.08-12.68-3.66-18.36-6.66-17.74-9.39-33.82-18.55-53.79-23.13-5.36-1.23-30.1-9.76-33.53-5.93-4.37-3.65-14.79-4.47-20.38-5.12-9.82-1.14-20.45,.04-30.39,.04-6.34,0-12.7-.19-19.03-.03-4.26,.11-11.34,2.57-15.28,1.01-2.11-.83-2.49-4.56-6.49-4.64,5.38-5.86,14.43-4.86,19.71-10.9-9.45-4.1-25.81,.61-34.9,3.94-4.99,1.83-9.3,5.69-14.25,7.35-3.02,1.01-5.91,.28-9.02,.62-7.03,.76-10.95,5.58-16.87,8.95-5.81,3.31-11.67,6.15-17.24,9.94-10.82,7.35-19.02,16.85-31.69,22.09-15,6.21-32.92,12.29-49.14,11.54-9.68-.44-12.29-4.4-20.07-8.45-6.3-3.28-15.34,.95-20.86-2.07-.09-.03-.18-.07-.27-.1-.75-2.1-.95-4.3-1.79-6.6-1.51-4.12-4.53-7.73-4.85-12.21-.26-3.62,.21-6.85-1.1-10.31-1.05-2.78-1.87-4.22-1.65-7.15,.22-2.96-1.15-6.46-1.58-9.39-.48-3.27-1.02-6.6-1.28-9.9-.4-5.21,.51-10.26,.98-15.42,.18-1.94,.73-4.17,.9-5.84,.16-1.58-.63-3.19-.41-4.79,.09-.64-.09-1.11,.19-1.68,.09-.2,.78,.16,.91-.05,.37-.61,.36-1.31,.68-1.94,.65-1.23,.13-.49,1.13-1.18,.19-.13,1.12-.11,1.38-.18,.07-.02,.88-1.08,.98-1.18,1.8,3.67,4.11,7.58,6.73,10.76,1.52,1.85,3.33,3.3,4.98,5,1.15,1.19,2.04,2.92,3.87,2.88-2.74-5.27-5.68-9.87-7.04-15.87-1.41-6.19,.84-13.25-1.89-19.12-1.17-2.5-2.85-4.8-4.64-6.89-.95-1.11-3.8-3.5-4.1-4.92-.29-1.38,.75-1.68,1.56-2.32,.89-.7,1.74-1.46,2.7-2.33,.42,.31,.96,.28,1.36,.5-.09-1.75-1.13-3.83-1.45-5.69-.4-2.35-.81-4.62-2.02-6.69-2.44-4.18-5.93-6.9-9.22-10.22-3.22-3.25-3.4-4.94-3.17-9.5,.26-5.12-1.23-7.82-4.83-11.07-3.21-2.9-5.7-3.55-7.22-2.11-1.52-1.44-4.02-.78-7.22,2.11-3.59,3.25-5.09,5.95-4.83,11.07,.23,4.57,.05,6.26-3.17,9.5-3.3,3.32-6.78,6.04-9.22,10.22-1.21,2.07-1.62,4.34-2.02,6.69-.32,1.86-1.37,3.94-1.46,5.69,.4-.22,.94-.19,1.36-.5,.95,.87,1.81,1.63,2.7,2.33,.81,.64,1.85,.94,1.56,2.32-.3,1.42-3.15,3.81-4.1,4.92-1.79,2.09-3.47,4.39-4.64,6.89-2.73,5.87-.48,12.93-1.89,19.12-1.36,6-4.3,10.59-7.04,15.87,1.84,.04,2.72-1.7,3.87-2.88,1.65-1.7,3.46-3.15,4.98-5,2.62-3.18,4.93-7.1,6.73-10.76,.1,.1,.91,1.16,.98,1.18,.26,.08,1.19,.05,1.38,.18,1,.69,.48-.06,1.13,1.18,.33,.63,.32,1.33,.68,1.94,.13,.21,.81-.14,.91,.05,.27,.57,.1,1.04,.19,1.68,.22,1.6-.57,3.2-.41,4.79,.17,1.67,.72,3.9,.9,5.84,.47,5.16,1.38,10.21,.98,15.42-.25,3.3-.8,6.63-1.28,9.9-.43,2.92-1.8,6.42-1.58,9.39,.22,2.93-.61,4.37-1.65,7.15-1.3,3.46-.84,6.69-1.1,10.31-.32,4.47-3.34,8.08-4.85,12.21-.49,1.32-.75,2.62-1.04,3.88-1.98,1.16-4.07,2.15-6.26,2.82-5.52,3.02-14.56-1.2-20.86,2.07-7.77,4.04-10.39,8.01-20.07,8.45-16.22,.74-34.14-5.33-49.14-11.54-12.67-5.25-20.86-14.74-31.69-22.09-5.57-3.78-11.42-6.62-17.24-9.94-5.92-3.37-9.84-8.2-16.87-8.95-3.11-.34-6.01,.39-9.02-.62-4.95-1.66-9.26-5.52-14.25-7.35-9.09-3.33-25.45-8.04-34.9-3.94,5.28,6.04,14.33,5.04,19.71,10.9-4,.09-4.38,3.81-6.49,4.64-3.94,1.56-11.02-.9-15.28-1.01-6.33-.17-12.69,.03-19.03,.03-9.93,0-20.57-1.17-30.39-.04-5.6,.65-16.01,1.46-20.38,5.12-3.43-3.83-28.17,4.7-33.53,5.93-19.97,4.59-36.04,13.75-53.79,23.13-5.68,3-12.32,4.57-18.36,6.66-10.06,3.48-18.4,9.16-26.9,15.37-10.51,7.68-17.94,14.26-24.91,25.28-5.41,8.54-.4,6.49,5.32,2.1,3.14-2.4,4.74-3.77,8.44-3.93,4.13-.17,8.09,1.66,12.59,.81,9.82-1.85,12.2-5.49,20.33,2.97,8.9,9.25,10.83,23.91,9.36,36.27-1.62,13.59-9.5,24.48-18.3,34.64-7.06,8.15-8.61,16.49-12.52,25.99,4.4-3.23,7.24-8.26,11.96-11.34,6.35-4.16,13.6-4.23,21.07-4.19,16.87,.09,29.28,11.98,39.21,24.55,10.13,12.82,17.1,28.09,27.02,41.3,7.22,9.61,14.06,20.86,13.51,33.24-.61,13.68-4.81,26.48,.09,39.92,3.21-3.41,4.53-11.17,7.24-15.73,3.32-5.57,7.39-9.65,12.6-13.48,13.54-9.96,28.26-21.24,43.98-27.8,15.6-6.5,32.32-9.83,48.57-14.3,13.5-3.71,26.85-7.41,41-6.33,11.97,.91,20.08,6.21,30.48,11.04,7.02,3.26,14.44,6.11,21.23,9.66,5.48,2.86,11.13,7.24,15.65,11.81,3.8,3.85,6.85,9.34,10.93,12.59,4.29-9.82-1-21.87-3.26-31.45-4.59-19.44-.57-38.58,15.83-51.28,12.14-9.41,25.53-15.24,41.12-14.36,7.35,.42,14.67,1.27,22.04,1.92-.27,3.5-.45,7.01-1.04,10.43-.12,.1-.21,.19-.28,.26-3.78,3.85-5.81,8.91-7.87,13.81-2.64,6.27-3.78,11.96-7.87,17.58-2.76,3.8-4.92,7.81-5.99,12.41-.58,2.51-.51,4.3-.12,6.76,.69,4.42,1.44,9.57-.24,13.71-1.24,3.05-2,6-1.58,9.36,.15,1.16,.92,2.2,.69,3.34-.34,1.65-2.35,4.88-1.45,6.52,1.07-1.41,1.94-2.76,3.76-3.31,.76,1.7,.64,3.52,1.33,5.23,.18-.11,.5-.1,.69-.22,.65,1.25-.21,2.73,.12,4.01,.79-.21,1.61-.74,2.44-.72,.34,.89,.3,1.88,.72,2.74,.09-.03,.2-.05,.29-.08,.67,2.15,1.25,4.42,1.84,6.55,.06,.21,.08,.42,.11,.63-.14,.19-.27,.39-.37,.59-.55,1.12-.35,2.77-.44,3.98-.28,3.64-1.07,7.34-1.74,10.92-.28,1.53-.07,3.11-.44,4.62-.26,1.06-.58,1.96-1.17,2.86-.54,.83-1.05,1.79-1.26,2.77-.31,1.43-.22,2.67-.8,4.04-.47,1.08-.67,2.16-1.35,3.16-.68,1.01-1.75,1.91-2.13,3.09-.38,1.15-.22,2.2,.16,3.3,.36,1.05,.8,2.25,.7,3.38-.11,1.15-.78,2.5-.29,3.61,.5,1.16,1.85,1.72,3,1.8,1.04,.08,1.15,.9,2.02,1.49,1.44,.98,4.33,1.97,5.99,.81-.49-.62-3.31-.69-3.08-2,1.18,.02,2.65,.37,3.15-1.04,1.44,.59,2.35,1.48,3.99,1.62,1.26,.1,3.33,.26,4.34-.63-1.84-.58-3.52-.63-5.21-1.77-.37-.25-1.69-.92-1.78-1.44-.02-.13,.21-.4,.24-.51,.08-.34,.07-.72,.09-1.06,.07-1.05-.02-1.98-.35-2.98-.21-.65-.85-1.46-.87-2.1,0-.47,.36-1.1,.45-1.58,.14-.74,.2-1.49,.4-2.23,.48,1.03,.52,2.24,1.05,3.26,.59,1.13,1.09,2.3,1.62,3.45,.64,1.4,1.91,2.63,3.49,2.9,.73,.12,1.51,.12,2.22-.04,.66-.15,1.15-.8,1.7-.89,.49-.08,1.31,.23,1.91,.15,.85-.1,1.72-.34,2.52-.64,1.12-.42,3.23-1.41,3.09-2.89-.46-.11-.83,.16-1.25,.31-.83,.31-1.67,.46-2.57,.43-.74-.02-1.62,0-2.03-.62-.32-.5-.15-1.11-.44-1.64-.57-1.05-1.95-1.37-2.28-2.56-.3-1.1-.19-2.31-.5-3.44-.17-.62-.79-1.47-.69-2.03,.06-.37,.38-.75,.47-1.14,.11-.47,.14-.98,.14-1.47,0-.87-.07-1.68,.05-2.54,.28-2.15,.83-4.42,2.18-6.17,.38-.49,.72-1.01,1.24-1.15,.62-.17,1.45,.04,2.08,.08,.63,.05,1.28,.15,1.91,.14,.32,0,.64-.16,.97-.06,.43,.12,.5,.45,.79,.82,.77,1,1.46,2.15,2.4,3,1.08,.97,1.84,1.09,3.23,1.27,.02,.98-.4,2.25-.94,3.05-.49,.72-1.24,1.18-.93,2.15,1.23,.17,2.76-1.63,3.46-2.44,1.07-1.23,2.47-3.68,1.5-5.3,1.37-.85,1.09-3.33,.46-4.59-.78-1.55-2.45-2.46-3.72-3.58-1.19-1.04-.91-3.36-2.9-3.23-1.05,.07-1.99,.25-3.05,.21-.97-.04-2.47-.11-3.06-1.01-.76-1.16,.26-2.55,.22-3.76-.07-1.7,.06-3.03,.84-4.61,.5-1.02,1.27-1.94,.58-3.04-.19-.3-.47-.57-.8-.81,.3-1.21,.71-2.41,.6-3.66-.07-.85-.33-1.73-.24-2.58,.06-.61,.43-1.08,.43-1.72,0-1.38-.91-2.24-1.23-3.37-.24-.84,.4-1.6,.45-2.44,.08-1.42-1.41-2.18-1.56-3.32-.07-.52,.48-1.14,.56-1.67,.09-.63-.08-1.11-.29-1.69-.45-1.24-.88-2.55-1.69-3.58-.59-.75-1.72-1.35-1.7-2.43,.02-1.07,1.4-2.18,2.13-2.86,1.04-.97,2.25-1.77,2.89-3.09,.73-1.5,.29-3.27,1.02-4.76,.13-.26,.56-.46,.75-.72,.66-.91,.97-2.16,1.38-3.19,.43-1.08,.93-2.36,1.06-3.52,.06-.59-.2-.98,.12-1.5,.25-.4,.96-.57,1.32-.93,.78-.79,1.11-1.98,1.38-3.02,.35-1.32,.29-2.5,.35-3.82,.02-.35-.11-.6,.07-.98,1.68-3.48,3.98-6.7,6.39-9.88,.31,.52,.56,1.07,.67,1.71,.11,.66-.37,1.6-.21,2.37,.24,1.17,1.17,1.94,1.14,3.14-.02,1.04-.65,1.89-.6,3.07,.07,1.8,.45,3.29-.15,5.07-.86,2.56-.92,2.08-.17,4.45,.31,.97,.49,1.73,.34,2.78-.42,3.03-1.76,5.7-.92,8.84,.37,1.37,1.45,2.58,1.14,4.1-.29,1.42-1.86,2.56-2.13,4.17-.52,3.05,2.58,4.38,2.11,7.08-.31,1.82-1.82,3.2-2.13,5.03-.21,1.22,.01,2.64,.3,3.79,.58,2.29,.15,2.6,.1,4.75-.03,1.66,1.23,2.94,1.21,4.57-.02,1.55-.95,3.03-1,4.61-.04,1.15,.23,1.71,.36,2.74,.31,2.51-.22,5.04,.9,7.33,.12,0,.3,.02,.41,0,.54,3.89-1.56,7.76-1.39,11.61,.06,1.36,.66,2.62,1.76,2.47,.17,2.07-2.78,12.23,.65,11.52,.06,1.89-1.23,11.26,1.06,10.93,.34,3.13-2.69,10.35,.45,11.53,.08,1.02-.16,1.99-.27,2.99-.23,2.09-.94,6.51-.27,8.48,.24,.7,1,.71,1.23,1.35,.26,.71-.09,1.81-.13,2.57-.06,1.16-.35,3.81,1.28,4.1,.12,1.79-1.43,7.09,1.38,7.08,.37,2.77-2.71,7.59,.98,8.85,.45,3.26-1.5,6.78-1.33,10.18,.56-.01,1.11,.34,1.73,.24,.08,1.86-.11,3.64-.28,5.49-.05,.55-.32,1.73-.09,2.27,.13,.29,.68,.27,.78,.49,.37,.84,.65,1.53,.55,3.07-.09,1.44-.96,3.91,.03,4.98,.63,.69,1.63,.19,1.99,1.19,.73,2.04-1.49,4.96-.69,7.29,.55,1.58,1.94,2.38,2.37,4.02,.34,1.29,0,2.9-.04,4.22-.04,1.51-.61,5.97,2.14,5.29-.74,2.37-1.61,4.85-1.93,7.46-.07,.55-.44,1.96-.16,2.56,.34,.73,.99,.61,1.31,1.11,.68,1.07,.91,.33,1.03,1.99,.09,1.27-.94,2.86-1.07,4.2-.37,3.77,3.21,3.84,2.59,7.29-.37,2.05-5.19,9.75-.47,10.03,.11,1.84-1.28,15.62,3.7,13.1-1.65,2.94-2.73,5.7-2.6,9.12,.62-.01,1.35,.47,2.04,.36,.3,2.5-.97,4.8-.75,7.32,.17,1.97,1.1,3.06,1.58,4.98,.78,3.14-.9,4.37-1.81,7.68-.38,1.38-1.3,5.23-.55,6.73,.36,.72,1.36,.94,1.57,1.33,2.35,4.22-.96,8.59-.8,13.42,.07,1.97,1.02,3.79,1.2,5.68-1.31,.06-2.37-.96-3.44-1.62-4.35,7.24,1.22,16.71,2.98,23.87,.98,3.99,1.25,8.57,2.28,12.75,.42,1.68,.95,3.29,1.71,4.77,1.94,3.8,5.35,8.54,7.56,2.31,1.59-4.48,1.9-9.43,3.49-13.9,1.49-4.2,3.37-7.84,4.66-12.31,1.22-4.22,6.24-12.91,3.08-17.29-2.7-3.76-4.46,3.13-6.71-2.67-1.07-2.77-.77-6.2-1.2-9.12-.66-4.53,1.95-6.01,2.47-9.93,.5-3.71-1.6-6.97-.57-10.72,.44-1.59,1.28-1.94,1.39-3.56,.13-1.92-.88-3.14-1.23-4.93-1-5.11,1.27-4.36,2.38-8.03,1.03-3.41-1.93-7.57-1.39-10.64,0,.03,1.23-1.15,1.39-1.72,.57-1.98-.02-4.88,0-6.95,.03-3.64,1.37-3.79,1.97-6.65,.84-4.01-3.62-8.21-2.09-12.51,.4-1.11,2.17-1.16,2.53-2.25,.7-2.17-1.34-4.68-1.76-6.7-.94-4.58,1.42-5.13,2.42-9.07,1.22-4.81-3.1-9.6-2.39-13.49,.65-3.58,2.36-1.51,.9-6.03-.7-2.16-1.78-4.09-1.49-6.36,.13-1.04,1.3-.69,1.51-1.66,.84-3.75-1.61-7.9-1.13-11.46,.28-2.11,2.05-3.28,1.9-5.46-.21-2.9-2.85-3.87-2.69-7.11,.15-3.14,1.12-4.58,.25-7.74-.66-2.39-1.04-1.65-.84-4.04,.36-4.27,1.62-8.05-.07-12.74,3.74-1.28,2.4-9.34,1.74-13.43,2.96-.4,1.99-8.91,1.54-11.68,4.04,.51,1.64-12.99,1.55-15.88,.37,.08,.83-.11,1.2-.02,.14-3.14,.32-6.68-.19-9.79,4.45,1.4,1.87-10.35,2.07-13.84,.32,.26,1.07,.31,1.46,.69-.68-.66-.34-7.91-.43-9.33-.22-3.73-.4-7.79,.39-11.48,.81-3.79,3.24-7.39-.85-10.62,4.82-2.04,.22-9.44,.74-12.41,.2-1.18,2.13-3.15,2.37-4.99,.38-2.91-.72-5.96-.38-9.06,.36-3.29,.66-6.64,1.23-9.92,2.01,2.72,3.88,5.48,5.31,8.44,.18,.38,.05,.63,.07,.98,.06,1.33,0,2.5,.35,3.82,.27,1.04,.6,2.23,1.38,3.02,.36,.36,1.07,.53,1.32,.93,.32,.52,.06,.92,.12,1.5,.12,1.16,.63,2.44,1.06,3.52,.41,1.03,.72,2.28,1.38,3.19,.19,.27,.63,.46,.75,.72,.73,1.49,.28,3.26,1.02,4.76,.64,1.31,1.85,2.12,2.89,3.09,.73,.68,2.11,1.79,2.13,2.86,.02,1.08-1.11,1.68-1.7,2.43-.82,1.04-1.25,2.34-1.69,3.58-.21,.59-.38,1.07-.29,1.69,.08,.53,.63,1.15,.56,1.67-.15,1.14-1.64,1.9-1.56,3.32,.05,.84,.69,1.6,.45,2.44-.32,1.13-1.23,1.99-1.23,3.37,0,.64,.37,1.1,.43,1.72,.09,.86-.17,1.73-.24,2.58-.11,1.26,.3,2.46,.6,3.66-.33,.24-.61,.5-.8,.81-.69,1.1,.08,2.01,.58,3.04,.77,1.58,.9,2.91,.84,4.61-.05,1.21,.97,2.6,.22,3.76-.59,.9-2.08,.97-3.06,1.01-1.06,.05-2.01-.14-3.05-.21-1.99-.13-1.71,2.19-2.9,3.23-1.27,1.12-2.94,2.03-3.72,3.58-.63,1.26-.92,3.74,.46,4.59-.97,1.62,.43,4.07,1.5,5.3,.7,.81,2.23,2.61,3.46,2.44,.32-.97-.44-1.43-.93-2.15-.54-.8-.97-2.07-.94-3.05,1.38-.17,2.15-.3,3.23-1.27,.94-.85,1.63-1.99,2.4-3,.29-.37,.37-.7,.79-.82,.32-.09,.65,.06,.97,.06,.63,.01,1.28-.09,1.91-.14,.63-.05,1.46-.25,2.08-.08,.52,.14,.86,.66,1.24,1.15,1.35,1.75,1.9,4.01,2.18,6.17,.11,.86,.05,1.67,.05,2.54,0,.49,.03,1,.14,1.47,.09,.39,.4,.78,.47,1.14,.1,.57-.52,1.42-.69,2.03-.32,1.13-.2,2.34-.5,3.44-.33,1.19-1.71,1.51-2.28,2.56-.29,.54-.12,1.14-.44,1.64-.41,.63-1.29,.6-2.03,.62-.9,.03-1.73-.13-2.57-.43-.42-.15-.79-.43-1.25-.31-.14,1.48,1.97,2.47,3.09,2.89,.8,.3,1.67,.54,2.52,.64,.6,.07,1.42-.23,1.91-.15,.56,.09,1.04,.75,1.7,.89,.72,.16,1.5,.17,2.22,.04,1.58-.27,2.85-1.51,3.49-2.9,.53-1.15,1.03-2.31,1.62-3.45,.53-1.02,.57-2.23,1.05-3.26,.2,.73,.25,1.49,.4,2.23,.09,.48,.46,1.11,.45,1.58-.01,.64-.66,1.45-.87,2.1-.32,1-.42,1.93-.35,2.98,.02,.35,.01,.72,.09,1.06,.02,.11,.26,.38,.24,.51-.09,.52-1.41,1.19-1.78,1.44-1.69,1.13-3.37,1.19-5.21,1.77,1,.89,3.08,.73,4.34,.63,1.64-.13,2.55-1.03,3.99-1.62,.5,1.4,1.97,1.05,3.15,1.04,.23,1.31-2.59,1.38-3.08,2,1.66,1.16,4.55,.18,5.99-.81,.87-.59,.98-1.42,2.02-1.49,1.15-.08,2.49-.64,3-1.8,.48-1.12-.19-2.47-.29-3.61-.1-1.12,.34-2.33,.7-3.38,.38-1.11,.53-2.15,.16-3.3-.39-1.18-1.45-2.08-2.13-3.09-.67-1-.88-2.08-1.35-3.16-.59-1.36-.5-2.61-.8-4.04-.21-.98-.72-1.94-1.26-2.77-.59-.91-.91-1.81-1.17-2.86-.36-1.51-.15-3.09-.44-4.62-.66-3.58-1.46-7.28-1.74-10.92-.09-1.21,.11-2.86-.44-3.98-.1-.2-.23-.4-.37-.59,.02-.21,.05-.42,.11-.63,.59-2.13,1.16-4.4,1.84-6.55,.09,.03,.2,.05,.29,.08,.41-.86,.38-1.85,.72-2.74,.83-.02,1.65,.51,2.44,.72,.33-1.28-.53-2.77,.12-4.01,.19,.11,.52,.11,.69,.22,.69-1.71,.57-3.53,1.33-5.23,1.81,.54,2.69,1.9,3.76,3.31,.9-1.64-1.11-4.87-1.45-6.52-.23-1.13,.54-2.17,.69-3.34,.42-3.35-.33-6.31-1.58-9.36-1.69-4.14-.94-9.29-.24-13.71,.38-2.46,.46-4.25-.12-6.76-1.07-4.6-3.23-8.61-5.99-12.41-4.08-5.62-5.23-11.31-7.87-17.58-2.06-4.9-4.09-9.96-7.87-13.81-.42-.42-1.67-1.34-3.42-2.55-.31-2.78-.32-5.61-.86-8.37-.1-.52-.22-1.04-.35-1.56,.48-.04,.96-.1,1.44-.13,15.59-.88,28.98,4.95,41.12,14.36,16.4,12.71,20.42,31.84,15.83,51.28-2.26,9.58-7.55,21.64-3.26,31.45,4.08-3.25,7.12-8.74,10.93-12.59,4.52-4.57,10.17-8.94,15.65-11.81,6.79-3.55,14.21-6.4,21.23-9.66,10.4-4.83,18.51-10.13,30.48-11.04,14.15-1.08,27.5,2.62,41,6.33,16.25,4.46,32.97,7.8,48.57,14.3,15.73,6.55,30.44,17.83,43.98,27.8,5.21,3.83,9.28,7.91,12.6,13.48,2.72,4.56,4.03,12.32,7.24,15.73,4.9-13.44,.7-26.24,.09-39.92-.55-12.38,6.3-23.64,13.51-33.24,9.92-13.21,16.89-28.48,27.02-41.3,9.93-12.57,22.34-24.46,39.21-24.55,7.48-.04,14.72,.04,21.07,4.19,4.71,3.08,7.56,8.12,11.96,11.34-3.91-9.51-5.45-17.84-12.52-25.99-8.8-10.16-16.68-21.05-18.3-34.64-1.47-12.36,.45-27.02,9.36-36.27,8.14-8.46,10.51-4.82,20.33-2.97,4.5,.85,8.46-.98,12.59-.81,3.7,.16,5.3,1.52,8.44,3.93,5.72,4.39,10.73,6.44,5.32-2.1Z"/>
</svg>