<?xml version="1.0" encoding="UTF-8" standalone="no"?>
<!DOCTYPE svg PUBLIC "-//W3C//DTD SVG 1.1//EN" "http://www.w3.org/Graphics/SVG/1.1/DTD/svg11.dtd">
<svg width="100%" height="100%" viewBox="0 0 1182 1182" version="1.1" xmlns="http://www.w3.org/2000/svg" xmlns:xlink="http://www.w3.org/1999/xlink" xml:space="preserve" xmlns:serif="http://www.serif.com/" style="fill-rule:evenodd;clip-rule:evenodd;stroke-linejoin:round;stroke-miterlimit:2;">
    <g transform="matrix(0.872787,0,0,0.872787,-367.639,-726.118)">
        <path d="M1021.81,1861.78C1001.82,1876.2 981.343,1889.94 960.38,1902.99C943.579,1913.44 927.159,1924.02 908.999,1932.06C895.553,1938.02 881.295,1941.92 867.377,1946.6C833.884,1957.86 798.494,1964.07 763.826,1960.46C762.322,1960.65 760.815,1960.8 759.309,1960.94C748.599,1961.92 737.64,1961.92 726.939,1960.77C721.096,1960.14 715.368,1958.9 709.582,1957.92C703.505,1956.88 697.532,1956.19 691.761,1953.88C689.85,1953.12 687.221,1952.06 685.998,1950.29C685.827,1950.05 686.598,1950.26 686.898,1950.26C687.536,1950.26 688.174,1950.25 688.811,1950.24C690.732,1950.2 692.63,1950.3 694.547,1950.39C696.748,1950.5 698.956,1950.38 701.165,1950.2C695.441,1949.58 689.549,1949.17 683.355,1949.17L715.524,1948.31C718.355,1949.49 721.2,1950.59 724.057,1951.59L728.161,1952.22C731.552,1953.21 734.936,1954.21 738.347,1955.1C749.587,1956.15 761.358,1956.23 774.726,1953.76C844.001,1940.97 893.926,1913.93 948.841,1870.9C969.72,1854.55 990.616,1836.6 1008.15,1816.6C1031.59,1789.86 1049.36,1758.76 1069.45,1729.56C1069.33,1729.45 1069.22,1729.35 1069.1,1729.26C1067.82,1728.18 1066.26,1727.55 1064.94,1726.56C1064.78,1726.43 1063.66,1725.62 1063.8,1725.3C1064.59,1723.42 1067.09,1721.95 1068.46,1720.51C1071.31,1717.5 1074.24,1715.17 1077.49,1712.63C1078.21,1712.06 1078.92,1711.47 1079.64,1710.91C1078.86,1710.11 1078.15,1709.18 1077.58,1708.62C1077.13,1708.18 1075.82,1707.02 1076.06,1706.27C1076.53,1704.77 1078.79,1702.77 1079.82,1701.68C1083.33,1697.96 1087.86,1694.92 1092.32,1692.21C1091.87,1691.96 1091.41,1691.74 1090.94,1691.55C1089.51,1690.97 1088.04,1690.52 1086.5,1690.32C1086.23,1690.29 1083.97,1690.09 1083.97,1689.87C1083.97,1689.59 1085.1,1688.69 1085.3,1688.49C1086.63,1687.17 1088.02,1685.89 1089.54,1684.78C1093.54,1681.86 1097.53,1678.95 1101.43,1675.89C1102.15,1675.32 1102.83,1674.69 1103.49,1674.05C1102.76,1673.36 1101.96,1672.72 1100.93,1672.21C1100.4,1671.94 1097.71,1670.97 1097.73,1670.28C1097.73,1670.07 1098.4,1669.47 1098.53,1669.32C1099.4,1668.28 1100.49,1667.49 1101.66,1666.81C1105.7,1664.47 1109.98,1661.66 1114.43,1660.02C1113.48,1659.08 1112.69,1657.84 1112.3,1657.02C1111.99,1656.38 1111.72,1655.47 1112.03,1654.78C1112.54,1653.68 1115.69,1652.68 1116.69,1652.16C1120.42,1650.23 1123.72,1647.63 1127.62,1646.12C1128.03,1645.67 1128.43,1645.22 1128.83,1644.78C1128.24,1644.13 1127.66,1643.44 1127.03,1642.89C1126.6,1642.51 1124.94,1641.29 1125,1640.73C1125.01,1640.6 1125.82,1640.2 1125.92,1640.14C1126.83,1639.62 1127.76,1639.12 1128.69,1638.64C1130.99,1637.43 1133.54,1636.87 1135.97,1635.98C1136.62,1635.75 1137.26,1635.48 1137.89,1635.2C1138.78,1634.31 1139.67,1633.42 1140.56,1632.55C1139.69,1632.06 1138.81,1631.58 1137.99,1631.03C1137.41,1630.64 1135.38,1629.33 1135.48,1628.44C1135.49,1628.35 1136.13,1628.04 1136.2,1628C1137.02,1627.45 1137.84,1626.88 1138.68,1626.38C1142.17,1624.33 1146.79,1622.84 1150.88,1622.52C1150.66,1622.33 1150.44,1622.14 1150.22,1621.96C1148.78,1620.8 1145.47,1619.21 1145.1,1617.24C1145.07,1617.04 1146.95,1616.18 1147.18,1616.07C1148.75,1615.26 1150.34,1614.56 1151.94,1613.88C1152.9,1610 1154.71,1606.54 1157,1603.34C1151.5,1605.1 1146,1606.78 1140.78,1609.33C1137.98,1610.7 1135.78,1613.33 1133.55,1615.42C1126.54,1622.02 1121.33,1629.21 1119.58,1638.83L1117.82,1618.15C1117.04,1616.43 1116.07,1614.81 1114.79,1613.41C1110.53,1608.73 1104.36,1606.48 1098.66,1604.08C1093.67,1601.97 1088.75,1599.81 1083.63,1598.17C1075.44,1597.58 1067.36,1597.78 1059.24,1599.8C1038.75,1604.88 1020.53,1613.97 1004,1627.13C998.677,1631.37 993.712,1635.63 989.382,1640.89C988.082,1642.47 986.905,1644.19 985.81,1645.92C985.457,1646.47 985.093,1647.02 984.769,1647.6C984.506,1648.06 984.096,1649.51 983.972,1648.99C983.761,1648.11 984.739,1645.8 984.914,1644.81C985.708,1640.3 986.675,1635.91 987.746,1631.46C989.457,1624.35 991.343,1617.26 992.997,1610.12C992.552,1607.92 992.062,1605.74 991.554,1603.56C987.21,1585 978.469,1567.22 965.458,1553.21C949.607,1536.15 927.735,1532.3 905.61,1533.05C868.572,1534.31 830.313,1545.15 800.353,1567.54L801.703,1565.57C801.452,1565.79 801.198,1566.01 800.943,1566.23C800.607,1566.52 800.045,1567.5 799.922,1567.08C799.763,1566.53 800.718,1564.86 800.904,1564.29C801.716,1561.79 802.578,1559.32 803.239,1556.77C805.268,1548.97 805.843,1540.86 806.354,1532.84C807.293,1518.11 803.538,1504.41 801.664,1490C801.15,1486.04 800.736,1482.11 800.244,1478.23C798.118,1474.62 796.628,1470.67 794.55,1467.03C790.97,1460.77 786.643,1455 782.313,1449.24C781.512,1448.18 780.728,1447.09 779.934,1446.01C778.388,1444.67 776.765,1443.39 775.024,1442.19C770.755,1439.26 765.58,1437.43 760.734,1435.62C752.042,1432.39 743.3,1430.22 733.995,1429.9C720.736,1429.44 706.364,1430.18 693.637,1434.25C684.957,1437.03 676.786,1440.99 668.948,1445.59C663.889,1448.57 658.773,1451.27 653.779,1454.27C651.594,1456.61 649.407,1458.96 646.927,1460.95C646.533,1461.26 645.706,1461.95 644.788,1462.59C644.046,1463.86 643.322,1465.14 642.617,1466.43C639.2,1472.69 637.892,1479.96 634.281,1486.11C634.152,1486.33 634.296,1485.6 634.305,1485.34C634.324,1484.85 634.347,1484.35 634.373,1483.85C634.456,1482.27 634.609,1480.69 634.742,1479.12C635.142,1474.36 635.732,1469.65 636.877,1465.01C639.016,1456.35 643.982,1448.63 648.047,1440.82C650.335,1436.42 652.08,1431.82 653.869,1427.21L653.921,1427.21C654.083,1426.4 654.247,1425.6 654.412,1424.8C655.601,1419.05 656.623,1413.37 657.032,1407.61C656.791,1405.05 656.493,1402.54 656.174,1400.09C652.347,1370.72 615.632,1325.01 583.78,1327.51L583.693,1327.71C583.379,1327.67 583.064,1327.64 582.748,1327.61C582.604,1327.62 582.462,1327.64 582.321,1327.66L582.345,1327.57C575.377,1326.95 568.275,1327.86 561.331,1328.29C543.763,1329.39 526.173,1332.67 508.98,1336.27C501.394,1337.85 493.87,1339.88 486.376,1341.86C483.583,1342.59 480.794,1343.34 478.001,1344.08C477.019,1344.34 476.013,1344.5 475.03,1344.76C474.685,1344.86 474.05,1345.38 473.993,1345.03C473.86,1344.21 475.076,1342.81 475.498,1342.27C477.056,1340.27 478.94,1338.52 480.845,1336.87C482.857,1335.12 484.884,1333.38 486.924,1331.65C496.476,1316.72 510.841,1303.88 525.306,1293.83C532.345,1288.93 538.665,1282.95 545.881,1278.29C559.976,1269.18 574.943,1262.86 590.658,1257.08C596.781,1254.82 602.613,1252.29 608.732,1250.33C616.483,1246.48 625.582,1245.09 633.951,1243.45C647.978,1240.71 662.155,1238.37 676.3,1236.33C722.532,1229.66 769.581,1233.23 815.672,1238.82C853.023,1243.36 888.946,1250.44 924.711,1262.15C926.755,1262.82 928.804,1263.51 930.856,1264.21C933.609,1264.96 936.335,1265.76 938.986,1266.37C956.982,1270.49 974.666,1277.71 991.414,1285.38C996.305,1287.62 1001.17,1289.61 1005.86,1292.17C1009.43,1285.02 1008.55,1277.18 1006.92,1268.8C1006.34,1265.82 1005.94,1262.69 1006.22,1259.65C1006.25,1259.36 1006.31,1256.81 1006.54,1256.71C1007.9,1256.13 1007.36,1259.55 1007.77,1260.97C1008.63,1263.93 1009.35,1266.93 1010.35,1269.85C1013.38,1278.64 1016.99,1288.29 1023.5,1295.18C1025.68,1297.49 1029.01,1296.72 1031.17,1298.38C1034.44,1300.89 1034.33,1306.77 1038.37,1308.65C1043.52,1311.05 1048.31,1308.85 1053.12,1313.32C1057.82,1317.68 1057.08,1323.56 1060.37,1328.17C1062.44,1331.08 1064.36,1334.1 1065.67,1337.19C1075.57,1349.67 1085.87,1361.95 1097.3,1372.91C1114.84,1389.71 1135.1,1401.46 1155.27,1414.59C1175.3,1427.64 1194.62,1441.04 1216.25,1451.39C1221.92,1454.11 1227.65,1456.66 1233.42,1459.14L1241.81,1450.07C1242.38,1448.82 1242.8,1447.51 1242.96,1446.16C1243.5,1441.65 1241.82,1437.37 1240.45,1433.27C1239.25,1429.66 1238.1,1426.07 1236.59,1422.64C1233.06,1418.16 1229.15,1414.13 1224.24,1410.99C1211.85,1403.06 1198.36,1398.29 1183.45,1396.4C1178.65,1395.8 1174.01,1395.39 1169.12,1395.8C1167.65,1395.93 1166.17,1396.18 1164.72,1396.48C1164.25,1396.58 1163.78,1396.67 1163.32,1396.79C1162.94,1396.89 1161.96,1397.4 1162.18,1397.08C1162.56,1396.53 1164.28,1395.88 1164.9,1395.47C1167.71,1393.63 1170.55,1391.93 1173.47,1390.26C1178.13,1387.59 1182.86,1385.01 1187.51,1382.3C1188.49,1380.97 1189.45,1379.63 1190.39,1378.29C1198.41,1366.81 1203.95,1353.47 1205.43,1339.83C1207.24,1323.22 1199.05,1310.13 1188.24,1299.2C1170.15,1280.9 1146.29,1266.77 1120.07,1262.63L1121.77,1262.34C1121.53,1262.32 1121.29,1262.3 1121.06,1262.28C1120.74,1262.25 1119.94,1262.45 1120.12,1262.18C1120.34,1261.82 1121.69,1261.48 1122.09,1261.29C1123.83,1260.46 1125.57,1259.66 1127.26,1258.73C1132.45,1255.88 1137.12,1252.12 1141.71,1248.38C1150.14,1241.51 1155.8,1232.76 1162.74,1224.61C1164.65,1222.37 1166.58,1220.2 1168.45,1218.02C1169.41,1215.13 1170.86,1212.39 1171.85,1209.52C1173.57,1204.56 1174.66,1199.48 1175.75,1194.39C1175.95,1193.45 1176.17,1192.51 1176.38,1191.57C1176.39,1190.1 1176.32,1188.63 1176.15,1187.15C1175.73,1183.51 1174.3,1179.95 1173,1176.57C1170.66,1170.52 1167.74,1164.97 1163.54,1160.05C1157.55,1153.05 1150.4,1146.08 1142.21,1141.61C1136.62,1138.56 1130.63,1136.36 1124.45,1134.65C1120.46,1133.55 1116.59,1132.29 1112.62,1131.23C1110.32,1131.29 1108.02,1131.34 1105.78,1131.06C1105.42,1131.02 1104.66,1130.94 1103.88,1130.79C1102.84,1131.05 1101.81,1131.31 1100.78,1131.6C1095.78,1132.97 1091.22,1135.93 1086.19,1137.16C1086.01,1137.2 1086.47,1136.91 1086.61,1136.79C1086.89,1136.55 1087.17,1136.31 1087.45,1136.08C1088.35,1135.33 1089.28,1134.62 1090.19,1133.9C1092.96,1131.74 1095.8,1129.68 1098.85,1127.96C1104.55,1124.73 1111.07,1123.41 1117.22,1121.59C1120.68,1120.57 1124,1119.16 1127.34,1117.78L1127.36,1117.81C1127.88,1117.49 1128.39,1117.17 1128.9,1116.85C1132.58,1114.59 1136.14,1112.28 1139.46,1109.61C1140.73,1108.21 1141.95,1106.81 1143.13,1105.42C1157.26,1088.82 1164.8,1047.25 1148.47,1032.22L1148.32,1032.28C1148.2,1032.1 1148.07,1031.92 1147.93,1031.75C1147.86,1031.68 1147.78,1031.62 1147.71,1031.55L1147.77,1031.52C1144.83,1027.65 1141,1024.48 1137.5,1021.15C1128.64,1012.72 1118.6,1005.37 1108.57,998.378C1104.14,995.295 1099.51,992.465 1094.92,989.62C1093.2,988.559 1091.49,987.508 1089.78,986.448C1089.17,986.076 1088.61,985.646 1088.01,985.274C1087.79,985.143 1087.21,985.082 1087.37,984.878C1087.76,984.399 1089.09,984.322 1089.58,984.268C1091.4,984.067 1093.23,984.157 1095.02,984.304C1096.92,984.459 1098.81,984.628 1100.71,984.808C1113.3,982.237 1127.01,983.173 1139.26,985.546C1145.22,986.7 1151.44,986.943 1157.36,988.302C1168.93,990.959 1179.38,995.455 1189.91,1000.6C1194.01,1002.6 1198.12,1004.32 1202.06,1006.47C1207.79,1008.5 1212.82,1012.46 1217.64,1015.92C1225.72,1021.72 1233.66,1027.79 1241.41,1034C1266.75,1054.29 1286.93,1080.11 1305.56,1106.45C1320.65,1127.79 1333.69,1149.68 1344.15,1173.8C1344.75,1175.17 1345.34,1176.56 1345.92,1177.96C1346.81,1179.74 1347.65,1181.54 1348.57,1183.19C1354.79,1194.44 1359.19,1207.08 1362.9,1219.46C1363.98,1223.08 1365.19,1226.56 1366,1230.23C1371.56,1228.49 1375.4,1224.13 1379.18,1219.12C1380.52,1217.33 1382.03,1215.56 1383.81,1214.19C1383.98,1214.06 1385.39,1212.82 1385.56,1212.89C1386.51,1213.29 1384.4,1214.72 1383.83,1215.64C1382.62,1217.56 1381.33,1219.42 1380.22,1221.39C1376.88,1227.32 1373.34,1233.98 1372.66,1240.75C1372.43,1243.01 1374.42,1244.33 1374.53,1246.26C1374.71,1249.19 1371.47,1252.06 1372.35,1255.06C1373.46,1258.89 1376.91,1260.24 1376.75,1264.93C1376.59,1269.5 1373.05,1272.06 1372.1,1276.04C1371.49,1278.55 1370.76,1281.04 1369.7,1283.25C1367.58,1294.54 1365.76,1305.93 1365.19,1317.23C1364.32,1334.58 1367.47,1350.79 1369.82,1367.64C1372.16,1384.39 1373.97,1400.94 1378.52,1417.16C1381.78,1428.79 1385.9,1440.05 1389.69,1451.46C1390.12,1452.25 1390.56,1453.02 1391,1453.79C1391.05,1453.68 1391.1,1453.58 1391.15,1453.47C1391.37,1452.99 1391.52,1452.48 1391.64,1451.96C1391.71,1451.67 1391.53,1450.99 1391.82,1451.08C1393.19,1451.5 1394.11,1453.71 1394.72,1455.24C1395.07,1452.7 1395.73,1450.13 1396.81,1448.05C1397.03,1447.63 1398.18,1445.33 1398.82,1445.41C1399.09,1445.45 1399.36,1446.39 1399.43,1446.63C1399.89,1448.13 1400.07,1449.7 1400.35,1451.23C1401.04,1455.02 1402.32,1458.59 1403.74,1462.15C1404.12,1463.11 1404.44,1464.09 1404.83,1465.04C1406.09,1465.78 1407.34,1466.52 1408.59,1467.26C1408.54,1466.73 1408.5,1466.19 1408.56,1465.66C1408.59,1465.37 1409.17,1462.81 1409.19,1462.83C1410.46,1463.74 1411.39,1464.71 1412.35,1465.91C1412.36,1465.92 1413.39,1467.46 1413.62,1467.49C1414.98,1467.65 1415.71,1467.69 1416.8,1469.02C1417.63,1470.03 1418.39,1471.1 1419.1,1472.2C1420.01,1470.65 1420.93,1469.12 1421.66,1467.46C1422.71,1465.13 1423.34,1462.7 1424.91,1460.62C1425.55,1459.77 1426.23,1458.94 1426.92,1458.12C1426.99,1458.04 1427.5,1457.38 1427.61,1457.44C1428.25,1457.77 1428.41,1459.17 1428.45,1459.8C1428.61,1461.92 1428.31,1464.07 1428.12,1466.18C1428.1,1466.41 1428.08,1466.64 1428.05,1466.87C1428.4,1466.42 1428.75,1465.95 1429.09,1465.49C1429.22,1465.31 1430.02,1463.99 1430.15,1464.01C1430.51,1464.07 1430.86,1465.96 1430.91,1466.24C1431.14,1467.32 1431.26,1468.43 1431.35,1469.55C1431.57,1469.31 1431.77,1469.05 1431.95,1468.76C1431.95,1468.75 1432.23,1469.11 1432.24,1469.12C1432.39,1469.32 1432.5,1469.55 1432.61,1469.75C1432.96,1470.37 1433.28,1471.02 1433.67,1471.61C1434.33,1472.63 1435.35,1473.21 1436.09,1474.02C1436.19,1473.09 1436.27,1472.15 1436.33,1471.22C1436.36,1470.89 1436.38,1470.55 1436.39,1470.21C1436.4,1470.04 1436.31,1469.56 1436.42,1469.7C1437.23,1470.75 1437.61,1472.16 1438.07,1473.38C1438.82,1475.4 1439.51,1477.51 1440.34,1479.55L1440.66,1478.65C1440.69,1478.46 1440.73,1478.28 1440.76,1478.09C1440.91,1477.26 1441.05,1476.41 1441.18,1475.58C1441.24,1475.13 1440.9,1474.14 1441.34,1474.25C1441.67,1474.33 1442.18,1475.92 1442.32,1476.2C1443.11,1477.82 1443.84,1479.48 1444.69,1481.07C1444.79,1481.14 1444.88,1481.2 1444.98,1481.25C1446.05,1481.78 1446.88,1481.48 1447.94,1481.18C1448.18,1481.11 1448.93,1481.9 1449.15,1482.02C1449.35,1482.13 1449.59,1482.11 1449.81,1482.09C1449.93,1481.31 1450.06,1480.54 1450.2,1479.77C1450.36,1478.87 1450.44,1477.96 1450.63,1477.06C1450.64,1477.01 1450.77,1476.18 1450.81,1476.18C1451.32,1476.2 1452.13,1477.25 1452.39,1477.56C1453.54,1478.92 1454.19,1480.7 1454.78,1482.35C1455.27,1483.7 1455.69,1485.08 1456.1,1486.47C1456.34,1485.22 1456.6,1483.98 1456.86,1482.79C1456.88,1482.67 1457.36,1480.01 1457.43,1480.02C1457.56,1480.04 1457.68,1480.09 1457.81,1480.15L1457.8,1480.08C1457.83,1480.12 1457.87,1480.16 1457.9,1480.2C1458.95,1480.82 1459.89,1482.74 1460.42,1483.58C1461.09,1484.65 1461.72,1485.76 1462.35,1486.87C1462.87,1487.23 1463.38,1487.34 1464.08,1487.26C1464.4,1487.22 1465.32,1486.88 1465.56,1487.15C1466.25,1487.92 1466.11,1489.43 1466.57,1490.36C1466.99,1491.19 1467.57,1491.38 1468.23,1491.94C1468.66,1492.31 1468.94,1492.83 1469.4,1493.16C1470,1493.61 1471.26,1493.74 1471.98,1493.51C1472.5,1493.35 1472.49,1492.75 1472.86,1492.51C1472.93,1492.46 1473.47,1493.13 1473.51,1493.18C1474.19,1494.06 1474.54,1495.13 1475.2,1496.02C1475.51,1496.43 1476.06,1496.51 1476.36,1497.02C1476.94,1498 1477.15,1499.19 1477.86,1500.1C1478.11,1500.41 1478.62,1500.91 1479.07,1500.86C1479.97,1500.76 1480.22,1499.7 1480.9,1499.45C1481,1499.41 1481.27,1500.02 1481.3,1500.1C1481.59,1500.78 1481.73,1501.54 1481.89,1502.26C1482.25,1503.86 1483.27,1504.77 1484.06,1506.18C1484.28,1506.58 1484.51,1506.97 1484.74,1507.37C1484.95,1507.47 1485.16,1507.56 1485.39,1507.64C1486.09,1507.87 1487.12,1507.49 1487.69,1507.85C1489.34,1508.88 1489.91,1510.49 1492.02,1511.05C1493.17,1511.36 1494.33,1511.15 1495.42,1510.74C1495.78,1510.61 1496.29,1510.19 1496.56,1510.52C1497.38,1511.51 1497.43,1513.26 1497.68,1514.45C1498.21,1517.02 1499.13,1519.5 1499.78,1522.04C1500.03,1523 1500.16,1525.31 1500.97,1525.98C1501.36,1526.3 1503.1,1527.74 1503.28,1527.5C1503.8,1526.77 1503.85,1525.59 1503.85,1524.71C1503.85,1524.38 1503.85,1524.05 1503.85,1523.72C1503.85,1523.59 1503.77,1523.24 1503.85,1523.34C1505.2,1525.04 1505.86,1527.19 1507.01,1528.99C1507.52,1529.76 1508.03,1530.48 1508.4,1531.33C1509.03,1532.78 1509.51,1534.23 1510.4,1535.56C1510.74,1536.05 1510.77,1534.76 1510.77,1534.51C1510.78,1534.36 1510.97,1534.73 1511.06,1534.84C1511.27,1535.07 1511.45,1535.31 1511.62,1535.57C1512.06,1536.23 1512.42,1536.93 1512.76,1537.65C1513.83,1539.95 1514.58,1542.27 1515.2,1544.73C1515.82,1547.19 1516.54,1549.22 1518.35,1551.11C1519.27,1552.07 1520.64,1552.86 1521.66,1553.82C1521.6,1553.59 1521.54,1553.37 1521.49,1553.14C1521.02,1551.28 1520.81,1549.21 1520.04,1547.43C1518.8,1544.57 1516.43,1542.37 1514.61,1539.88C1514.16,1539.26 1513.73,1538.61 1513.27,1537.99C1513.24,1537.94 1512.86,1537.46 1512.87,1537.45C1512.91,1537.41 1514.03,1538.33 1514.15,1538.44C1515.6,1539.69 1517.19,1540.75 1518.58,1542.08C1521.49,1544.86 1524.54,1548.3 1526.43,1551.86C1527.89,1554.59 1528.86,1557.66 1530.49,1560.32C1530.48,1560.02 1530.47,1559.73 1530.46,1559.43C1530.44,1558.9 1530.15,1556.7 1530.54,1556.31C1530.67,1556.18 1532.38,1558.23 1532.55,1558.44C1533.59,1559.75 1534.73,1560.94 1535.87,1562.17C1536.17,1562.49 1536.52,1562.78 1536.83,1563.09C1536.88,1563.14 1537.41,1563.72 1537.41,1563.72C1537.73,1563.44 1537.22,1562 1537.14,1561.47C1536.85,1559.56 1536.11,1556.86 1536.5,1554.95C1536.55,1554.7 1536.7,1555.42 1536.79,1555.66C1536.99,1556.21 1537.18,1556.76 1537.35,1557.31C1537.86,1558.88 1538.39,1560.44 1538.96,1562C1539.6,1563.75 1540.54,1565.43 1541.67,1567C1541.17,1561.34 1541.06,1555.61 1540.55,1549.95C1540.2,1546.12 1539.95,1544.57 1537.24,1541.92C1537.22,1541.9 1538.55,1541.47 1538.67,1541.46C1541.67,1541.13 1543.67,1545.03 1544.3,1547.38C1546.38,1555.19 1544.36,1563.14 1549.79,1570.14C1550.42,1570.97 1551.15,1571.7 1551.94,1572.35C1550.53,1570.2 1549.08,1568.19 1548.06,1565.78C1547.78,1565.12 1547.05,1564.1 1547.01,1563.38C1546.99,1563.12 1547.44,1563.68 1547.64,1563.85C1547.91,1564.08 1548.18,1564.33 1548.44,1564.58C1549.37,1565.48 1550.25,1566.45 1551.14,1567.39C1552.22,1568.53 1553.37,1568.91 1554.62,1569.82C1555.24,1570.27 1555.85,1570.75 1556.45,1571.23C1554.96,1568.52 1553.71,1565.66 1552.8,1562.56C1550.63,1555.11 1551.58,1547.08 1549.69,1539.54C1546.73,1527.68 1542.86,1514.19 1544.46,1501.81C1544.55,1501.17 1545,1502.99 1545.27,1503.58C1545.79,1504.76 1546.23,1505.99 1546.64,1507.2C1547.78,1510.59 1549.06,1513.93 1550.29,1517.3C1554,1527.49 1558.14,1537.62 1560.34,1548.29C1562.17,1557.18 1566.68,1566.18 1573.29,1572.73C1572.21,1568.41 1571.45,1564.02 1569.59,1559.91C1568.43,1557.34 1566.89,1554.83 1565.99,1552.14C1564.89,1548.88 1564.72,1544.85 1565.22,1541.47C1565.56,1539.17 1566.18,1537.67 1567.55,1535.83C1567.9,1535.35 1568.23,1534.56 1568.72,1534.2C1568.89,1534.08 1568.85,1534.6 1568.88,1534.81C1568.94,1535.29 1568.98,1535.76 1568.99,1536.25C1569.02,1537.68 1568.83,1539.12 1568.75,1540.56C1568.5,1545.01 1569.23,1548.27 1571.26,1552.21C1573.04,1555.67 1575.22,1559.16 1577.46,1562.34C1577.68,1562.65 1577.91,1562.97 1578.15,1563.29C1578.25,1562.07 1578.3,1560.83 1578.31,1559.55C1578.34,1556.63 1578.36,1553.71 1578.15,1550.79C1578.09,1549.88 1578.04,1548.97 1577.87,1548.07C1577.8,1547.74 1577.73,1547.41 1577.64,1547.09C1577.59,1546.91 1577.4,1546.39 1577.49,1546.56C1579.39,1550.1 1580.42,1554.26 1581.72,1558.05C1582.48,1560.26 1583.08,1562.51 1583.69,1564.77C1584.03,1563.77 1584.4,1562.78 1584.8,1561.81C1585.25,1560.72 1585.69,1559.64 1586.14,1558.55C1586.35,1558.04 1586.29,1556.66 1586.72,1557.01C1589.3,1559.09 1587.76,1565.16 1589.45,1567.9C1589.81,1568.49 1590.35,1570.02 1590.89,1570.38C1592.8,1571.65 1596.9,1575.01 1599.06,1575.42C1599.99,1575.6 1601.25,1576.25 1602.13,1575.77C1604.83,1574.32 1605.04,1569.04 1605.1,1566.39C1605.11,1565.95 1605.12,1567.26 1605.12,1567.7C1605.14,1568.57 1605.15,1569.44 1605.16,1570.31C1605.18,1573 1605.36,1575.85 1606.27,1578.4C1606.8,1579.87 1607.92,1580.98 1609.24,1581.94L1609.24,1581.93C1609.75,1581.09 1610.18,1580.21 1610.51,1579.28C1610.66,1578.86 1610.43,1577.98 1610.88,1578C1611.36,1578.01 1611.51,1578.81 1611.97,1578.95C1612.62,1579.14 1613.21,1579.5 1613.81,1579.79C1613.9,1578.85 1613.97,1577.91 1614.05,1576.95C1613.65,1574.71 1613.49,1572.4 1613.45,1570.2C1613.35,1564.5 1613.82,1558.31 1615.39,1552.58C1614.57,1551.62 1613.68,1550.71 1612.7,1549.87C1611.65,1548.96 1610.45,1548.09 1609.15,1547.56C1608.25,1547.19 1607.29,1546.97 1606.37,1546.64C1603.06,1545.49 1598.52,1544.7 1598.36,1540.42C1598.34,1539.95 1598.22,1538.84 1598.44,1538.4C1598.5,1538.27 1598.64,1538.61 1598.75,1538.71C1598.97,1538.94 1599.2,1539.16 1599.44,1539.37C1600.09,1539.95 1600.8,1540.47 1601.6,1540.85C1603.93,1541.95 1606.54,1542.48 1609.01,1543.19C1611.91,1544.04 1614.71,1545.47 1617.21,1547.33C1617.58,1546.49 1617.98,1545.66 1618.41,1544.86C1618.49,1544.7 1618.26,1545.19 1618.19,1545.36C1618.03,1545.73 1617.86,1546.09 1617.7,1546.46C1617.57,1546.78 1617.44,1547.09 1617.33,1547.41C1619.6,1549.12 1621.63,1551.19 1623.26,1553.49C1623.94,1554.13 1624.59,1554.8 1625.21,1555.5L1625.23,1555.53C1625.81,1549.91 1625.71,1544.27 1624.37,1538.41C1622.64,1530.83 1620.23,1523.7 1617.33,1516.5C1617,1515.68 1614.09,1510.41 1614.58,1509.72C1614.72,1509.52 1618.27,1514.03 1618.52,1514.4C1622.19,1519.89 1625.85,1525.48 1628.82,1531.38C1630.7,1535.13 1632.86,1538.9 1633.97,1542.98C1636.98,1553.96 1636.3,1565.23 1635.7,1576.44C1635.83,1577.02 1635.94,1577.6 1636.04,1578.19C1636.26,1578.11 1636.49,1578.04 1636.73,1577.96C1640.7,1576.7 1646.24,1575.31 1649.32,1572.39C1651.46,1570.36 1653.22,1567.13 1652.33,1564.14C1652.03,1563.12 1651.21,1562.5 1650.82,1561.59C1650.81,1561.58 1651.51,1561.71 1651.52,1561.71C1652.09,1561.91 1652.56,1562.17 1652.99,1562.6C1654.11,1563.7 1654.56,1565.56 1654.84,1567.05C1655.84,1572.32 1654.98,1575.98 1652.23,1580.56C1651.35,1582.03 1650.28,1583.32 1649.1,1584.52C1649.49,1584.38 1649.85,1584.27 1649.78,1584.54C1649.35,1586.27 1648.15,1587.8 1647.33,1589.36C1647.15,1589.69 1646.43,1590.65 1646.53,1591.07C1646.58,1591.32 1647.24,1591.49 1647.34,1591.85C1647.58,1592.67 1646.91,1593.91 1647.38,1594.59C1647.77,1595.17 1648.79,1594.93 1649.13,1595.38C1649.47,1595.83 1649.29,1596.34 1649.87,1596.62C1651.88,1597.58 1655.02,1596.5 1657.07,1595.95C1658.24,1595.63 1659.7,1594.79 1659.76,1596.64C1659.89,1600.28 1655.2,1604.19 1652.83,1606.41C1652.19,1607.02 1651.15,1607.73 1650.45,1608.58C1651.07,1609.22 1651.66,1609.89 1652.21,1610.61C1653.37,1612.14 1654.46,1613.72 1655.5,1615.32C1664.56,1618.72 1669.93,1628.41 1669.98,1638.2C1672.2,1641.43 1674.41,1644.67 1676.51,1648C1678.42,1651.03 1680.49,1654 1681.05,1657.61C1681.39,1659.86 1681.03,1662 1680.34,1664.06C1680.75,1664.89 1681.16,1665.72 1681.57,1666.55C1683.28,1669.97 1685.21,1673.31 1686.64,1676.87C1688.02,1680.3 1689.54,1683.62 1690.99,1686.95C1695.5,1690.94 1696.74,1696.88 1696.53,1702.98L1696.54,1703.01C1697.36,1706.97 1698.16,1711.42 1696.57,1715.31C1695.66,1717.5 1693.89,1719.25 1692.25,1720.92C1692.18,1722.53 1692.02,1724.13 1691.52,1725.68C1691.33,1726.29 1691,1727.64 1690.44,1728.05C1690.32,1728.14 1690.38,1727.75 1690.36,1727.6C1690.27,1727.1 1690.2,1726.6 1690.11,1726.1C1690,1725.53 1689.94,1724.94 1689.89,1724.36C1687.49,1727.99 1683.87,1731.11 1680.67,1733.54C1679.51,1734.42 1677.93,1735.05 1676.48,1735.22C1676.21,1735.26 1675.39,1735.37 1675.15,1735.18C1675,1735.06 1675.42,1734.9 1675.55,1734.76C1675.77,1734.52 1676,1734.28 1676.21,1734.04C1676.87,1733.27 1677.49,1732.42 1677.98,1731.53C1678.88,1729.88 1679.71,1728.18 1680.5,1726.45C1680.07,1726.46 1679.64,1726.46 1679.22,1726.46C1678.48,1727.07 1677.71,1727.64 1676.88,1728.02C1675.12,1728.83 1674.84,1727.79 1675.47,1726.52C1673.63,1726.52 1671.79,1726.41 1670.04,1725.88C1669.89,1726 1669.74,1726.11 1669.58,1726.22C1668.89,1726.7 1665.85,1728.51 1665.04,1727.24C1664.91,1727.03 1665.22,1726.25 1665.26,1726.02C1665.4,1725.26 1665.53,1724.5 1665.65,1723.74C1665.19,1723.44 1664.74,1723.13 1664.3,1722.81C1663.7,1722.65 1663.11,1722.46 1662.53,1722.23C1661.63,1723.53 1660.02,1724.53 1658.85,1725.41C1655.27,1728.12 1651.28,1730.08 1646.83,1730.84C1644.78,1731.2 1642.63,1731.41 1640.61,1730.8C1640.14,1730.66 1639.68,1730.51 1639.25,1730.28C1639.25,1730.28 1638.45,1729.81 1638.47,1729.78C1638.88,1729.36 1640.1,1729.17 1640.62,1728.95C1642.16,1728.31 1643.72,1727.64 1645.15,1726.76C1648.92,1724.44 1652.24,1721.06 1654.67,1717.3C1653.71,1716.49 1652.78,1715.64 1651.88,1714.8C1651,1715.29 1650.11,1715.68 1649.28,1715.97C1648.01,1716.41 1646.58,1716.62 1645.23,1716.52C1645.08,1716.5 1643.88,1716.25 1643.9,1716.21C1644.95,1714.32 1646.03,1712.53 1646.88,1710.62C1646.8,1710.68 1646.73,1710.73 1646.65,1710.78C1646.2,1711.08 1645.71,1711.41 1645.2,1711.62C1640.3,1713.61 1642,1708.08 1642.89,1704.84C1642.26,1704.05 1641.63,1703.25 1641.01,1702.44C1640.33,1702.91 1639.62,1703.32 1638.92,1703.62C1637.91,1704.05 1636.86,1704.37 1635.77,1704.54C1635.23,1704.62 1633.91,1705.14 1634.12,1704.63C1634.48,1703.76 1635.45,1702.97 1635.98,1702.18C1636.74,1701.05 1637.45,1699.81 1637.98,1698.51C1637.39,1697.73 1636.79,1696.96 1636.18,1696.18C1634.67,1697.22 1632.88,1698.04 1631.92,1696.98C1631.83,1696.89 1632.62,1695.74 1632.71,1695.6C1633.15,1694.88 1633.55,1694.13 1633.93,1693.37C1632.62,1691.77 1631.27,1690.19 1629.87,1688.68C1629,1689.36 1628.1,1689.97 1627.21,1690.48C1626.3,1690.99 1624.11,1692.1 1623.07,1691.41C1623.06,1691.41 1623.65,1690.58 1623.7,1690.51C1624.11,1689.89 1624.48,1689.25 1624.83,1688.59C1625.41,1687.48 1625.92,1686.34 1626.35,1685.17C1625.19,1684.11 1623.98,1683.09 1622.72,1682.13C1621.27,1683.61 1619.71,1684.97 1617.77,1685.77C1617.09,1686.04 1615.33,1686.58 1614.61,1686.15C1614.59,1686.14 1614.95,1685.49 1614.98,1685.44C1615.25,1684.92 1615.52,1684.41 1615.8,1683.88C1616.03,1683.42 1616.27,1682.96 1616.5,1682.5C1616.02,1682.87 1615.51,1683.17 1614.97,1683.4C1614.08,1683.79 1613.08,1684.1 1612.1,1684.04C1611.99,1684.04 1611.31,1683.98 1611.29,1683.85C1611.18,1683.24 1611.87,1681.98 1612.01,1681.38C1612.13,1680.86 1612.22,1680.33 1612.27,1679.8L1612.26,1679.8C1611.09,1680.74 1609.84,1681.56 1608.41,1681.99C1607.97,1682.12 1605.95,1682.75 1605.58,1682.23C1605.51,1682.13 1606.13,1680.85 1606.18,1680.7C1606.49,1679.74 1606.67,1678.74 1606.79,1677.73C1605.18,1677.01 1603.61,1676.19 1602.06,1675.29C1601.72,1675.54 1601.4,1675.81 1601.09,1676.1C1600.31,1676.82 1599.62,1677.63 1598.81,1678.33C1598.78,1678.36 1598.27,1678.86 1598.15,1678.85C1598.05,1678.83 1598.03,1677.74 1598.02,1677.7C1597.99,1676.55 1598.12,1675.34 1598.4,1674.23C1598.49,1673.88 1598.6,1673.52 1598.72,1673.17C1595.57,1671.02 1592.65,1668.56 1590.08,1665.91C1589.18,1664.98 1588.33,1663.99 1587.5,1663C1587.46,1663.03 1587.42,1663.05 1587.38,1663.08L1587.57,1663.25C1586.11,1670.91 1583.02,1678.4 1583.02,1686.34C1583.02,1690.09 1584.84,1693.92 1586.08,1697.38C1587.68,1701.83 1589.12,1706.36 1590.94,1710.72C1592.35,1710.07 1593.73,1709.39 1595,1708.46C1595.59,1708.02 1596.19,1707.59 1596.76,1707.13C1597.07,1706.89 1597.53,1706.04 1597.68,1706.4C1597.74,1706.57 1597.43,1707.26 1597.37,1707.43C1597.03,1708.49 1596.6,1709.53 1596.18,1710.57C1595.54,1712.15 1594.9,1713.77 1594.23,1715.39C1595.35,1714.63 1596.44,1713.83 1597.49,1713C1598.12,1712.49 1599.14,1711.06 1599.91,1710.91C1599.94,1710.9 1599.84,1712.24 1599.82,1712.38C1599.58,1713.92 1599.02,1715.39 1598.32,1716.79C1597.74,1717.94 1596.89,1719.5 1595.86,1721.02C1596.09,1721.5 1596.31,1721.98 1596.53,1722.46C1597.52,1722.09 1598.5,1721.7 1599.48,1721.27C1599.94,1721.06 1601.82,1719.8 1602.18,1719.94C1602.35,1720.01 1602.44,1720.9 1602.41,1721.06C1602.11,1722.69 1601.74,1724.24 1600.94,1725.69C1600.48,1726.5 1599.92,1727.36 1599.26,1728.2C1600.34,1728.03 1601.36,1727.65 1602.41,1727.28C1602.79,1727.14 1603.17,1727.04 1603.57,1726.95C1603.58,1726.94 1603.88,1726.85 1603.9,1726.87C1604.02,1726.99 1603.89,1727.45 1603.85,1727.58C1603.63,1728.4 1603.19,1729.17 1602.8,1729.91C1602.3,1730.88 1601.53,1731.63 1600.73,1732.36C1600.66,1732.42 1600.58,1732.5 1600.5,1732.56C1600.58,1732.88 1600.66,1733.19 1600.71,1733.51C1602.25,1732.65 1603.63,1731.54 1605.03,1730.42C1605.94,1729.69 1606.81,1728.92 1607.67,1728.14C1607.74,1728.07 1608.26,1727.55 1608.28,1727.57C1608.97,1728.1 1607.13,1731.9 1606.93,1732.34C1605.88,1734.67 1604.58,1737.24 1602.93,1739.46C1604.02,1739.41 1605.08,1739.13 1606.18,1738.81C1606.59,1738.68 1607,1738.54 1607.39,1738.38C1607.54,1738.31 1607.72,1738.05 1607.85,1738.16C1607.96,1738.26 1607.76,1738.78 1607.72,1738.9C1607.49,1739.52 1607.05,1740.08 1606.65,1740.6C1605.94,1741.55 1605.07,1742.32 1604.1,1742.95C1604.16,1743.12 1604.23,1743.3 1604.29,1743.48C1604.34,1743.63 1604.4,1743.78 1604.45,1743.94C1605.87,1744.11 1607.38,1743.96 1608.75,1743.68C1609.3,1743.57 1609.84,1743.42 1610.37,1743.25C1610.56,1743.18 1610.75,1743.12 1610.94,1743.04C1611.02,1743.01 1611.19,1742.85 1611.19,1742.94C1611.18,1743.87 1610.23,1744.78 1609.68,1745.42C1608.6,1746.7 1607.52,1747.89 1606.22,1748.92C1606.4,1749.36 1606.58,1749.8 1606.77,1750.23C1608.64,1749.63 1610.48,1748.72 1611.98,1747.58C1613.02,1746.78 1614.69,1744.84 1615.95,1744.32C1616.38,1744.14 1615.96,1745.25 1615.93,1745.71C1615.84,1746.91 1615.44,1748.12 1615.02,1749.23C1614.39,1750.88 1613.61,1752.59 1612.59,1754.1C1613.1,1754.01 1613.6,1753.87 1614.09,1753.69C1614.44,1753.57 1614.79,1753.44 1615.15,1753.36C1615.28,1753.33 1615.41,1753.3 1615.54,1753.27C1615.61,1753.25 1615.75,1753.13 1615.76,1753.21C1615.81,1753.76 1614.89,1754.67 1614.56,1755.05C1613.99,1755.69 1613.42,1756.36 1612.85,1757.02C1614.12,1756.8 1615.34,1756.34 1616.51,1755.73C1617.07,1755.43 1617.61,1755.09 1618.13,1754.74C1618.4,1754.55 1618.8,1753.86 1618.93,1754.16C1619.47,1755.33 1618.34,1757.56 1617.83,1758.61C1617.53,1759.24 1617.22,1759.81 1616.9,1760.34L1616.96,1760.36C1618.49,1759.79 1619.91,1758.56 1620.98,1757.42C1621.41,1756.95 1621.87,1756.51 1622.32,1756.05C1622.38,1755.98 1622.74,1755.51 1622.85,1755.52C1622.88,1755.52 1622.95,1755.9 1622.95,1755.91C1623.02,1756.78 1622.95,1757.6 1622.78,1758.45C1622.63,1759.15 1622.42,1759.85 1622.16,1760.51C1622.13,1760.59 1622.1,1760.67 1622.07,1760.75C1622.14,1760.75 1622.21,1760.74 1622.28,1760.74C1622.82,1759.64 1623.39,1758.5 1624.13,1757.58C1624.48,1757.15 1624.83,1756.72 1625.18,1756.29C1625.21,1756.25 1625.61,1755.68 1625.62,1755.68C1626.34,1755.94 1626.33,1758.36 1626.24,1759.58C1626.88,1759.03 1627.3,1758.12 1627.64,1757.45C1627.79,1757.14 1627.92,1756.82 1628.03,1756.5C1628.08,1756.36 1628.13,1756.22 1628.17,1756.08C1628.19,1756.03 1628.21,1755.88 1628.22,1755.93C1628.31,1756.37 1628.39,1756.8 1628.54,1757.23C1628.65,1757.53 1628.78,1757.83 1628.9,1758.12C1628.97,1758.27 1629.03,1758.42 1629.1,1758.57C1629.14,1758.47 1629.19,1758.37 1629.23,1758.27C1629.64,1757.34 1629.7,1756.37 1629.85,1755.38C1629.85,1755.36 1629.89,1755.43 1629.91,1755.45C1629.93,1755.48 1629.96,1755.51 1629.98,1755.54C1630.06,1755.65 1630.13,1755.77 1630.19,1755.89C1630.42,1756.27 1630.65,1756.64 1630.9,1757C1631.07,1757.23 1631.25,1757.44 1631.44,1757.65C1631.58,1757.79 1631.71,1757.94 1631.85,1758.08C1631.93,1757.36 1631.94,1756.63 1631.96,1755.89C1631.97,1755.54 1631.99,1755.18 1631.98,1754.83C1631.98,1754.81 1631.97,1754.79 1631.97,1754.77C1631.93,1754.63 1631.91,1754.48 1631.92,1754.35C1631.92,1754.33 1631.93,1754.39 1631.93,1754.41C1631.94,1754.45 1631.95,1754.49 1631.95,1754.53C1631.97,1754.61 1631.97,1754.69 1631.97,1754.77C1632,1754.88 1632.04,1754.98 1632.07,1755.08C1632.34,1755.96 1632.97,1756.6 1633.45,1757.37C1633.51,1757.46 1633.57,1757.55 1633.62,1757.64C1633.67,1757.17 1633.68,1756.69 1633.65,1756.22C1633.62,1755.79 1633.59,1755.26 1633.53,1754.8C1633.51,1754.64 1633.49,1754.48 1633.45,1754.32C1633.44,1754.27 1633.42,1754.18 1633.41,1754.13C1633.4,1754.09 1633.35,1754.02 1633.38,1754.03C1633.41,1754.03 1633.52,1754.32 1633.54,1754.34C1633.76,1754.76 1634,1755.18 1634.2,1755.62C1634.44,1756.19 1634.62,1756.78 1634.92,1757.32C1635.05,1757.56 1635.18,1757.79 1635.32,1758.03C1635.53,1757.93 1635.74,1757.86 1635.95,1757.79C1636.46,1757.62 1637.25,1757.35 1637.76,1757.64C1638.25,1757.91 1638.3,1758.44 1638.32,1758.95C1638.34,1759.32 1638.26,1759.68 1638.17,1760.04C1637.97,1760.84 1637.71,1761.64 1636.95,1762.05C1636.79,1762.14 1636.63,1762.22 1636.46,1762.29C1635.9,1763.58 1634.89,1764.62 1633.88,1765.61C1632.4,1767.06 1630.5,1768.51 1628.46,1769.08C1628.15,1769.16 1627.84,1769.23 1627.53,1769.28C1626.91,1769.8 1626.24,1770.25 1625.56,1770.67C1623.27,1772.08 1621.01,1773.26 1618.3,1773.65C1614.45,1774.21 1609.55,1772.18 1606.15,1770.47C1598.17,1766.46 1592.27,1759.9 1586.57,1753.19C1581.47,1747.19 1576.6,1741.01 1572.11,1734.55C1571.02,1734.52 1569.83,1733.59 1569.01,1733.03C1565.23,1730.44 1561.2,1728.35 1557.4,1725.81C1551.54,1721.88 1545.64,1718.03 1540.13,1713.6C1536.88,1710.99 1534.12,1709.28 1532.64,1705.16C1531.75,1702.64 1532.35,1700.9 1532.48,1698.37C1532.55,1696.97 1532.54,1695.57 1532.62,1694.18C1531.67,1694.96 1530.62,1695.6 1529.41,1695.97C1529.14,1696.05 1527.16,1696.43 1527.09,1696.12C1526.91,1695.32 1527.5,1693.78 1527.63,1693.04C1527.78,1692.2 1527.9,1691.35 1527.99,1690.5C1526.44,1692.28 1524.09,1695.07 1521.96,1695.23C1521.73,1695.25 1522.08,1694.77 1522.14,1694.54C1522.23,1694.15 1522.29,1693.75 1522.34,1693.35C1522.49,1692.12 1522.4,1690.83 1522.43,1689.59C1522.44,1689.4 1522.45,1689.21 1522.46,1689.02C1521.93,1689.38 1521.39,1689.71 1520.82,1690C1520.45,1690.19 1519.41,1690.76 1518.98,1690.61C1518.95,1690.6 1519.04,1689.39 1519.03,1689.28C1519.01,1688.16 1518.58,1685.86 1516.99,1686.08C1514.02,1686.51 1512.05,1690.1 1509.03,1690.62C1506.98,1690.97 1507.49,1687.92 1505.41,1688.22C1504.2,1688.39 1503.11,1689.02 1501.91,1689.15C1501.83,1689.16 1500.86,1689.27 1500.84,1689.18C1500.74,1688.77 1501.15,1687.94 1501.2,1687.48C1501.38,1685.95 1501.08,1684.05 1499.93,1682.94C1497.39,1680.46 1496.55,1682.42 1493.63,1682.36C1493.1,1682.35 1492.54,1681.94 1492.03,1682.01C1491.25,1682.11 1490.7,1682.37 1489.9,1682.21C1488.51,1681.93 1487.35,1681.2 1485.88,1681.3C1484.29,1681.4 1482.83,1682.37 1481.45,1683.03C1480.98,1683.25 1479.92,1683.34 1479.55,1683.66C1479.01,1684.14 1478.58,1684.78 1478.17,1685.37C1477.98,1685.64 1477.43,1686.48 1477.59,1686.19C1479.38,1682.93 1482.06,1677.16 1478.15,1674.21C1476.77,1673.17 1474.78,1673.26 1473.18,1673.6C1468.64,1674.59 1466.27,1677.46 1462.74,1680.21C1462.53,1680.38 1463.08,1679.78 1463.25,1679.56C1463.58,1679.13 1463.91,1678.7 1464.2,1678.25C1465.08,1676.87 1466.57,1674.69 1465.8,1672.97C1465.48,1672.26 1464.32,1672.56 1463.81,1671.98C1463.66,1671.8 1463.77,1671.02 1463.74,1670.77C1463.65,1669.93 1463.36,1669.16 1462.71,1668.6C1461.93,1667.91 1460.65,1667.97 1459.69,1667.66C1458.76,1667.36 1458.28,1666.56 1457.43,1666.18C1456.16,1665.61 1455.02,1665.88 1453.75,1665C1452.81,1664.36 1454.41,1661.46 1452.51,1661C1451.25,1660.69 1449.53,1662.02 1448.67,1662.67C1445.69,1664.92 1442.74,1667.19 1440.28,1670.02C1439.56,1670.84 1438.9,1671.73 1438.24,1672.61C1437.63,1673.52 1436.99,1674.4 1436.31,1675.26C1436.21,1675.38 1436.49,1675.02 1436.58,1674.89C1436.98,1674.35 1437.36,1673.8 1437.76,1673.26C1437.92,1673.04 1438.08,1672.83 1438.24,1672.61C1439.07,1671.36 1439.83,1670.07 1440.53,1668.72C1441.16,1667.5 1441.69,1666.22 1442.11,1664.91C1442.38,1664.08 1442.63,1663.21 1442.72,1662.33C1442.79,1661.62 1442.72,1660.94 1442.62,1660.24C1441.9,1655.46 1436.49,1659.63 1434.11,1659.6C1433.63,1659.6 1433.24,1658.2 1432.62,1657.94C1431.95,1657.64 1431.16,1657.91 1430.46,1657.95C1429.13,1658.03 1427.69,1657.52 1426.42,1658.13C1424.66,1658.96 1423.52,1660.66 1422.09,1661.9C1421.81,1662.14 1420.39,1663.48 1419.84,1663.21C1419.68,1663.13 1419.56,1662.51 1419.4,1662.34C1419.34,1662.29 1418.37,1663.52 1418.33,1663.5C1418.31,1663.48 1418.66,1662.63 1418.7,1662.52C1419.11,1661.51 1419.54,1660.52 1419.94,1659.51C1420.7,1657.64 1421.74,1655.12 1422.06,1652.71C1420.85,1652.78 1419.65,1652.9 1418.47,1653.19C1418.34,1653.22 1418.22,1653.26 1418.09,1653.29C1407.74,1664.66 1401.98,1679.46 1392.52,1691.56C1388.04,1697.28 1383.28,1703.7 1377.7,1708.36C1373.93,1711.5 1369.72,1714 1365.89,1717.05C1358.3,1723.1 1350.87,1729.06 1342.28,1733.72C1329.5,1740.63 1315.28,1744.71 1300.87,1746.41C1305.7,1749.55 1309.64,1752.81 1310.84,1755.7C1313.35,1761.78 1301.61,1774.32 1298.37,1777.95C1292.25,1784.82 1284.98,1790.62 1279.15,1797.75C1271.67,1806.88 1268.8,1815.06 1261.26,1818.97C1260.2,1820.81 1259.15,1822.65 1258.05,1824.46C1255.3,1828.98 1254.13,1834.66 1254.84,1839.96C1256.68,1841.3 1258.52,1842.69 1260.23,1844.23C1264.06,1847.7 1267.54,1851.6 1270.12,1855.97C1271.84,1858.87 1273.23,1861.88 1274.19,1865.08C1275.59,1867.83 1276.64,1870.76 1277.54,1873.55C1277.99,1875.04 1278.43,1876.71 1278.61,1878.37C1278.76,1879.82 1278.62,1881.25 1278.28,1882.61C1277.94,1883.85 1277.33,1885.02 1276.59,1886.13C1275.81,1887.31 1274.83,1888.39 1274.01,1889.43C1272.49,1891.24 1270.84,1893.54 1268.79,1895.08C1267.56,1895.99 1266.24,1896.72 1264.78,1897.08C1264.07,1897.24 1263.34,1897.38 1262.6,1897.48C1261.7,1898.28 1260.69,1898.92 1259.55,1899.31L1259.17,1899.7L1259.3,1899.39C1259.28,1899.39 1259.26,1899.4 1259.24,1899.4C1257.64,1899.88 1255.93,1899.85 1254.27,1900.03C1254,1900.29 1253.73,1900.54 1253.47,1900.78C1251.09,1902.8 1248.76,1904.8 1246.01,1906.13C1243.96,1907.12 1241.89,1908 1239.55,1908.38C1237.08,1908.72 1234.77,1908.96 1232.42,1908.57C1229.41,1908.07 1226.6,1907.21 1223.67,1906.07C1220.54,1904.8 1217.71,1903.61 1214.81,1902.07C1211.94,1900.54 1209.39,1898.96 1206.6,1897.11C1209.21,1897.42 1211.57,1897.59 1214.12,1897.76C1217.84,1898 1221.3,1898.05 1225.15,1897.93C1225.97,1897.92 1226.77,1897.88 1227.56,1897.83C1227.47,1896.3 1228.73,1895.61 1229.95,1894.73C1231.29,1893.75 1232.7,1892.86 1234.1,1891.97C1232.29,1891.45 1230.47,1890.94 1228.64,1890.45C1226.34,1889.83 1224.09,1889.24 1221.77,1888.72C1224.95,1888.63 1228.07,1888.64 1231.27,1888.77C1233.51,1888.85 1235.74,1888.99 1237.95,1889.14C1237.92,1888.54 1237.93,1887.95 1238,1887.36C1237.57,1886.53 1237.21,1885.67 1237,1884.76C1236.2,1881.24 1237.43,1877.95 1237.32,1874.47C1237.23,1871.64 1236.03,1868.61 1234.95,1866.03C1234.34,1864.57 1233.35,1863.04 1232.54,1861.45C1232.24,1862.01 1231.86,1862.53 1231.58,1863.1L1226.49,1869.82L1224.41,1876.26C1224.15,1877.36 1223.95,1878.42 1223.84,1879.56C1223.55,1882.48 1223.52,1885.28 1223.12,1888.13C1222.25,1885.35 1221,1882.8 1220.07,1879.98C1219.63,1878.66 1219.38,1877.39 1219.17,1876.05C1219.01,1874.93 1218.98,1873.86 1218.97,1872.73C1218.95,1870.41 1219.21,1868.14 1219.2,1865.83L1219.2,1865.76C1216.23,1864.87 1216.26,1860.39 1216.76,1857.83C1217.27,1855.18 1218.43,1852.51 1219.9,1850.14L1219.59,1850.19C1219.43,1850.26 1219.27,1850.33 1219.12,1850.4C1215.43,1852.12 1210.73,1855.06 1206.54,1854.53C1208.5,1855.57 1210.96,1856.72 1212.79,1858.33C1213.98,1859.39 1214.89,1860.67 1215.5,1862.06C1216.24,1863.93 1216.55,1865.92 1216.32,1867.94C1216.06,1870.18 1215.28,1872.42 1214.65,1874.42C1213.53,1877.64 1212.38,1880.76 1211.01,1883.86C1209.64,1886.95 1208.16,1889.87 1206.56,1892.87C1205.9,1894.07 1205.27,1895.58 1204.5,1896.93C1204.15,1897.54 1203.79,1898.09 1203.39,1898.57C1203.61,1898 1203.76,1897.38 1203.9,1896.7C1204.2,1895.17 1204.35,1893.53 1204.61,1892.17C1204.93,1890.55 1205.22,1888.95 1205.48,1887.36C1204.92,1887.43 1204.34,1887.34 1203.75,1887.04C1202.45,1886.39 1202.07,1883.7 1201.67,1882.41C1201.26,1881.07 1200.62,1879.66 1200.57,1878.24C1200.49,1876.42 1201.12,1874.7 1201.43,1872.93C1201.68,1871.46 1201.88,1869.97 1202.06,1868.48C1200.05,1867.66 1198.01,1866.32 1196.24,1864.8C1196.35,1865.36 1196.47,1865.9 1196.6,1866.44C1197.12,1869.45 1197.89,1872.8 1198.06,1876.09C1198.19,1878.61 1198.07,1881.08 1197.42,1883.37C1196.78,1885.51 1195.84,1887.34 1194.5,1888.93C1192.8,1890.97 1190.68,1892.63 1188.62,1894.43L1175.95,1905.29L1185.73,1891.75C1185.93,1891.49 1186.12,1891.24 1186.32,1890.98C1184.75,1890.12 1183.62,1888.59 1183.87,1886.73C1183.98,1885.86 1184.43,1885.11 1185.04,1884.47C1184.92,1881.5 1184.64,1878.14 1185.54,1875.6C1184.76,1874.98 1184.03,1874.04 1183.59,1873.45C1183.37,1873.16 1183.15,1872.87 1182.93,1872.59C1182.9,1872.81 1182.86,1873.03 1182.83,1873.26C1182.72,1872.86 1182.62,1872.45 1182.51,1872.04C1182.07,1871.47 1181.63,1870.9 1181.19,1870.33L1181.77,1868.82C1181.46,1867.35 1181.2,1865.83 1181.01,1864.28C1180.97,1864.12 1180.92,1863.97 1180.88,1863.81C1180.28,1861.56 1180.27,1859.42 1180.59,1857.24C1180.42,1857.4 1180.26,1857.56 1180.12,1857.72C1178.8,1859.18 1177.67,1860.78 1176.14,1861.98C1175.76,1865.05 1174.7,1867.76 1174.25,1870.87C1173.56,1875.49 1175.66,1879.92 1175.38,1884.47C1175.18,1887.95 1172.71,1890.35 1169.25,1890.55C1168.72,1890.58 1168.2,1890.57 1167.67,1890.51C1167.13,1895.07 1166.71,1899.52 1166.36,1904.07C1165.07,1899.11 1163.71,1894.27 1162.83,1889.16C1162.77,1888.8 1162.71,1888.44 1162.65,1888.08C1160.76,1886.57 1160.89,1883.46 1161.37,1881.31C1161.51,1880.64 1161.7,1879.98 1161.91,1879.34L1161.89,1878.72C1161.93,1876.42 1162.07,1874.16 1162.42,1871.91C1162.67,1870.31 1163.02,1868.72 1163.4,1867.14C1163.76,1865.63 1164.23,1864.15 1164.58,1862.63C1164.91,1861.43 1165.17,1860.28 1165.36,1859.1C1165.55,1857.85 1165.75,1856.63 1165.84,1855.33C1165.91,1854.62 1165.74,1853.11 1165.93,1852.08C1166.07,1851.31 1166.16,1850.65 1166.5,1850.23C1167.16,1849.4 1167.94,1848.61 1168.92,1847.95C1169.19,1847.38 1169.45,1846.8 1169.71,1846.24L1169.47,1846.28C1168.74,1847.33 1167.82,1848.24 1166.75,1848.9C1165.53,1849.64 1164.08,1849.71 1162.75,1850.14C1161.31,1850.61 1160.1,1851.63 1158.72,1852.25C1157.57,1852.77 1156.26,1852.78 1155.12,1853.32C1154.07,1853.82 1153.3,1854.68 1152.75,1855.69C1152.53,1858.81 1152.95,1862.13 1151.35,1864.93C1149.78,1867.68 1146.76,1868.59 1144.36,1866.66C1144.31,1866.8 1144.27,1866.94 1144.23,1867.08C1143.79,1868.53 1143.45,1869.98 1143.19,1871.48C1142.56,1875.11 1142.27,1878.75 1141.7,1882.36C1141.41,1879.22 1140.89,1876.12 1140.59,1872.94C1140.38,1870.74 1140.31,1868.59 1140.44,1866.4C1140.53,1865.09 1140.72,1863.77 1140.99,1862.45C1140.03,1860.78 1140.12,1858.52 1140.63,1856.73C1141.13,1854.96 1142.17,1853.46 1143.19,1851.96C1145.05,1849.26 1146.8,1847.25 1149.45,1845.23C1149.97,1844.83 1150.52,1844.46 1151.08,1844.11C1152.33,1842.88 1153.66,1841.74 1155.07,1840.69C1157.8,1838.66 1160.75,1836.92 1163.64,1835.12C1166.28,1833.48 1168.95,1831.94 1171.24,1829.8C1172.29,1828.9 1173.26,1827.95 1174.18,1826.96C1174.25,1826.71 1174.33,1826.45 1174.41,1826.17C1174.72,1825.14 1175.07,1824.24 1175.59,1823.29C1175.9,1822.71 1176.29,1822.16 1176.73,1821.66C1177.01,1821.34 1177.32,1821.05 1177.65,1820.78C1177.07,1819.41 1176.25,1817.97 1176.76,1816.66C1177.38,1815.06 1178.37,1815.92 1179.64,1815.87C1180.37,1815.85 1180.97,1815.47 1181.49,1815C1182.98,1813.64 1183.49,1811.62 1184.35,1809.88C1184.65,1809.26 1185.09,1808.68 1185.56,1808.13C1186.65,1803.14 1187.4,1799.68 1187.4,1799.68L1190.56,1798.76C1190.12,1797.07 1190.33,1795.47 1192.15,1794.25C1192.77,1792.92 1193.53,1791.64 1194.46,1790.51C1194.59,1788.6 1195.04,1786.76 1195.96,1785.07C1195.09,1782.35 1194.36,1779.57 1193,1777.85C1188.52,1772.22 1180.94,1770.5 1174.94,1767.12C1174.11,1766.66 1173.31,1766.15 1172.55,1765.61C1168.33,1765.08 1164.33,1764.12 1160.7,1762.54C1150.59,1768.91 1140.58,1775.29 1131.6,1783.31C1125.08,1789.13 1120.7,1797.61 1113.63,1803.07C1105.28,1809.52 1096.15,1814.52 1087.69,1820.69C1070.26,1833.41 1052.89,1846.06 1033.55,1855.68C1029.59,1857.65 1025.68,1859.69 1021.81,1861.78ZM1256.03,1871.92C1256.6,1873.04 1257.38,1874.04 1258.03,1875.12C1259.03,1876.8 1259.86,1878.52 1260.48,1880.29C1261.31,1879.06 1262.64,1878.18 1264.03,1877.69C1263.32,1877.05 1262.91,1876.06 1262.53,1875.2C1262.31,1874.7 1262.15,1874.18 1262.03,1873.65C1260.05,1873.86 1257.69,1873.02 1256.03,1871.92ZM1149.39,1857.26L1148.83,1858.12L1148.82,1858.04C1149.01,1857.78 1149.2,1857.51 1149.39,1857.26ZM1202.71,1852.79C1202.41,1852.54 1202.13,1852.25 1201.85,1851.92C1201.38,1851.39 1200.98,1850.8 1200.62,1850.19C1200.43,1850.21 1200.24,1850.23 1200.05,1850.25C1199.78,1850.56 1199.52,1850.88 1199.24,1851.22C1199.18,1851.3 1199.11,1851.38 1199.05,1851.47C1199.98,1851.79 1200.92,1852.11 1201.87,1852.47C1202.15,1852.57 1202.43,1852.68 1202.71,1852.79ZM1195.96,1835.45C1196.02,1836.23 1196.03,1837.01 1196,1837.79C1197.14,1837.32 1198.27,1836.91 1199.34,1836.56C1202.77,1835.57 1206.36,1835.14 1209.99,1834.86C1212.73,1834.64 1215.45,1834.47 1218.08,1833.99C1219.65,1833.7 1221.25,1833.48 1222.7,1832.57C1223.49,1832.14 1224.26,1831.69 1225,1831.22C1224.31,1830.62 1224.78,1829.73 1225.16,1828.92C1225.97,1827.15 1226.69,1825.63 1226.83,1823.66C1226.89,1822.82 1226.17,1822.68 1225.83,1822.05C1225.5,1821.44 1225.45,1820.63 1224.8,1820.24C1224.32,1819.94 1223.66,1820.06 1223.19,1819.78C1223.06,1819.7 1223.38,1819.56 1223.47,1819.45C1223.62,1819.29 1223.75,1819.12 1223.87,1818.95C1224.36,1818.31 1224.75,1817.61 1225.14,1816.9C1225.76,1815.79 1226.29,1814.7 1226.66,1813.57C1225.65,1812.16 1224.89,1810.74 1224.32,1809.32C1223.95,1809.45 1223.58,1809.58 1223.21,1809.69C1220.16,1810.67 1217.01,1811.17 1213.83,1811.48C1212.31,1811.63 1210.58,1812.11 1209.04,1811.94C1208.59,1811.88 1208.15,1811.81 1207.72,1811.72C1206.43,1815.41 1204.31,1819.01 1202.16,1822.03C1200.71,1824.06 1198.83,1825.76 1197.68,1828.01C1196.51,1830.28 1196.33,1832.91 1195.96,1835.45ZM1153.02,1613.44L1153.13,1613.2L1152.8,1613.53L1153.02,1613.44ZM1616.04,1553.37C1615.84,1555.74 1615.92,1558.17 1616.02,1560.49C1616.26,1566.37 1618.01,1571.92 1620.98,1576.84C1621.18,1575.97 1621.39,1575.1 1621.6,1574.24C1622.12,1572.07 1622.64,1569.92 1623.11,1567.79C1621.4,1562.68 1619.37,1557.59 1616.04,1553.37ZM1272.07,1464.71C1271.72,1464.54 1271.38,1464.37 1271.04,1464.19C1266.52,1461.83 1262.23,1459.16 1257.39,1457.4C1255.33,1456.65 1252.87,1456.84 1250.68,1456.75C1244.95,1456.5 1239.58,1457.11 1234.45,1459.59C1243.38,1463.41 1252.37,1467.06 1261.32,1470.83C1263.95,1468.81 1266.87,1467.03 1270.2,1465.55C1270.82,1465.28 1271.44,1465 1272.07,1464.71Z"/>
    </g>
</svg>
