<?xml version="1.0" encoding="utf-8"?>
<!-- Generator: Adobe Illustrator 21.0.0, SVG Export Plug-In . SVG Version: 6.00 Build 0)  -->
<svg version="1.1" id="Layer_1" xmlns="http://www.w3.org/2000/svg" xmlns:xlink="http://www.w3.org/1999/xlink" x="0px" y="0px"
	 viewBox="0 0 512 512" style="enable-background:new 0 0 512 512;" xml:space="preserve">
<path d="M428.369,252.536c-2.117-2.714-5.736-3.765-8.977-2.607l-81.281,29.056c-3.708,1.326-5.894,5.158-5.148,9.024
	c5.623,29.135,14.837,52.509,27.386,69.473c11.398,15.408,25.237,24.94,40.021,27.565c2.714,0.483,5.414,0.718,8.083,0.718
	c16.193,0,31.16-8.699,40.317-23.902C462.432,339.181,464.248,298.548,428.369,252.536z M435.101,353.631
	c-7.284,12.094-19.223,17.966-31.942,15.706c-23.641-4.198-43.268-33.042-53.145-77.661l69.225-24.746
	C446.626,304.558,445.605,336.194,435.101,353.631z M301.443,317.731h-7.016v-12.985c0-4.492-1.721-8.499-4.927-11.54
	c-3.193-3.082-7.403-4.649-11.846-4.436c-3.091,0.152-6.18,0.335-9.268,0.519c-0.195,0.012-0.388,0.023-0.582,0.034v-14.179
	c16.727-3.783,32.275-10.708,45.99-20.119c4.54,5.85,9.187,10.803,13.874,14.764c1.462,1.236,3.293,1.885,5.151,1.885
	c0.902,0,1.81-0.153,2.684-0.466l81.847-29.253c2.463-0.88,4.338-2.912,5.018-5.437c19.142-71.046,7.69-155.689-27.23-201.263
	C377.716,12.518,355.257,0.5,330.187,0.5c-12.045,0-21.296,1.758-32.961,10.76c-3.351,2.604-6.472,5.642-9.339,9.055
	c-15.352-6.152-32.096-9.544-49.619-9.544c-73.803,0-133.847,60.043-133.847,133.847c0,62.704,43.363,115.464,101.68,129.902v12.237
	c-1.526,0.126-3.069,0.3-4.657,0.55c-20.052,3.212-39.138,14.26-57.594,24.945c-4.799,2.778-9.451,5.466-14.051,7.991v-4.886
	c0-4.406-3.572-7.979-7.978-7.979H62.154c-4.406,0-7.978,3.572-7.978,7.979s3.572,7.979,7.978,7.979h51.688v146.152H62.154
	c-4.406,0-7.978,3.572-7.978,7.979s3.572,7.979,7.978,7.979h59.667c4.406,0,7.978-3.572,7.978-7.979v-7.609
	c23.275,8.869,49.402,17.034,77.056,17.531c3.089,13.781,15.413,24.113,30.112,24.113c16.833,0,30.551-13.573,30.825-30.357h18.912
	c14.555,0,26.396-11.841,26.396-26.396c0-4.308-1.042-8.375-2.876-11.972c10.266-3.624,17.644-13.411,17.644-24.892
	c0-7.169-2.874-13.676-7.525-18.442c4.651-4.76,7.525-11.261,7.525-18.422c0-7.169-2.874-13.676-7.525-18.442
	c4.651-4.76,7.525-11.261,7.525-18.422C327.867,329.585,316.013,317.731,301.443,317.731z M306.996,23.876
	c7.458-5.755,12.659-7.42,23.191-7.42c20.202,0,37.794,9.59,52.286,28.503c30.983,40.435,41.718,118.583,25.531,183.391
	l-73.366,26.222c-2.749-2.677-5.505-5.805-8.248-9.342c27.992-24.544,45.697-60.547,45.697-100.614
	c0-50.358-27.953-94.303-69.151-117.145C304.241,26.166,305.596,24.964,306.996,23.876z M120.378,144.617
	c0-65.005,52.885-117.89,117.89-117.89c64.99,0,117.862,52.885,117.862,117.89c0,64.989-52.873,117.861-117.862,117.861
	C173.263,262.478,120.378,209.606,120.378,144.617z M251.848,277.75v12.333c-9.817,0.251-19.377-0.108-28.865-2.16
	c-0.312-0.068-0.616-0.118-0.926-0.181v-10.292c5.316,0.644,10.724,0.984,16.211,0.984
	C242.851,278.435,247.382,278.202,251.848,277.75z M208.175,379.07c-7.304,8.438-17.228,14.116-28.23,16.079
	c-4.338,0.774-7.227,4.917-6.453,9.255c0.69,3.864,4.053,6.578,7.845,6.578c0.465,0,0.937-0.041,1.41-0.126
	c8.389-1.496,16.297-4.628,23.354-9.13v69.694c-24.451-0.605-48.623-7.869-76.302-18.678V338.296
	c7.429-3.784,14.839-8.066,22.044-12.237c17.201-9.957,34.987-20.253,52.102-22.994c5.512-0.867,10.195-0.733,15.662,0.454
	c16.87,3.646,33.571,2.658,49.725,1.698c3.034-0.179,6.069-0.36,9.106-0.509c0,0,0.001,0,0.002,0
	c0.009,0.009,0.019,0.02,0.031,0.031c0,0.002,0,0.005,0,0.007v13.042c0,8.814-7.171,15.984-15.985,15.984
	c-3.39,0-7.386-0.401-11.25-0.787c-10.527-1.056-20.47-2.054-26.681,3.565c-2.043,1.849-4.478,5.189-4.478,10.604
	C220.077,353.558,215.174,370.958,208.175,379.07z M251.848,480.633c0,8.221-6.675,14.909-14.881,14.909
	c-8.221,0-14.909-6.688-14.909-14.909v-1.273v-92.051c0.149-0.188,0.306-0.368,0.453-0.558c0.326-0.421,0.6-0.865,0.83-1.323
	c7.924-11.751,12.243-28.881,12.663-37.125c0.941-0.164,2.248-0.208,3.725-0.18c0.695,4.586,2.58,8.784,5.323,12.28
	c-6.043,4.847-9.922,12.285-9.922,20.616c0,7.161,2.874,13.662,7.525,18.422c-4.651,4.765-7.525,11.273-7.525,18.442
	c0,7.927,3.521,15.043,9.076,19.885c-3.86,4.596-6.191,10.519-6.191,16.979c0,10.01,5.601,18.737,13.834,23.21V480.633z
	 M286.703,465.186h-22.294c-5.756,0-10.44-4.682-10.44-10.439c0-5.772,4.683-10.468,10.44-10.468h22.294
	c5.756,0,10.44,4.696,10.44,10.468C297.143,460.503,292.459,465.186,286.703,465.186z M301.443,428.322h-14.74h-22.294h-2.857
	c-5.772,0-10.468-4.682-10.468-10.439c0-5.772,4.696-10.467,10.468-10.467h39.891c5.772,0,10.468,4.695,10.468,10.467
	C311.911,423.64,307.215,428.322,301.443,428.322z M301.443,391.459h-39.891c-5.772,0-10.468-4.683-10.468-10.44
	c0-5.772,4.696-10.467,10.468-10.467h4.3h35.59c5.772,0,10.468,4.695,10.468,10.467
	C311.911,386.776,307.215,391.459,301.443,391.459z M301.443,354.595h-35.59c-3.81,0-7.142-2.048-8.973-5.091
	c1.888,0.131,3.769,0.225,5.606,0.225c11.826,0,22.163-6.465,27.684-16.041h11.273c5.772,0,10.468,4.695,10.468,10.467
	C311.911,349.912,307.215,354.595,301.443,354.595z M92.002,350.918c-4.406,0-7.978-3.572-7.978-7.979v-0.424
	c0-4.406,3.572-7.979,7.978-7.979c4.406,0,7.978,3.572,7.978,7.979v0.424C99.98,347.346,96.408,350.918,92.002,350.918z
	 M297.176,228.526c-24.62-47.908-41.568-127.202-24.483-179.793c1.361-4.191,5.863-6.484,10.053-5.123
	c4.191,1.361,6.484,5.862,5.123,10.053c-15.18,46.729,0.027,121.896,23.499,167.57c2.014,3.919,0.47,8.729-3.449,10.743
	c-1.167,0.599-2.413,0.884-3.64,0.884C301.383,232.859,298.59,231.278,297.176,228.526z"/>
</svg>
