<?xml version="1.0" encoding="UTF-8" standalone="no"?>
<!DOCTYPE svg PUBLIC "-//W3C//DTD SVG 1.1//EN" "http://www.w3.org/Graphics/SVG/1.1/DTD/svg11.dtd">
<svg width="100%" height="100%" viewBox="0 0 904 899" version="1.1" xmlns="http://www.w3.org/2000/svg" xmlns:xlink="http://www.w3.org/1999/xlink" xml:space="preserve" xmlns:serif="http://www.serif.com/" style="fill-rule:evenodd;clip-rule:evenodd;stroke-linejoin:round;stroke-miterlimit:2;">
    <g transform="matrix(1,0,0,1,-4182,-2136)">
        <g transform="matrix(1.3487,-4.89954,4.90524,1.34713,3319.51,3860.12)">
            <circle cx="328.21" cy="184.047" r="4.707"/>
        </g>
        <g transform="matrix(1.3487,-4.89954,4.90524,1.34713,3256.6,4090.17)">
            <circle cx="328.21" cy="184.047" r="4.707"/>
        </g>
        <g transform="matrix(9.7161,3.84185,-3.84632,9.70481,2269.49,-377.78)">
            <circle cx="328.236" cy="166.634" r="2.59"/>
        </g>
        <g transform="matrix(13.6577,5.40038,-5.40666,13.6418,1127.38,-1627.12)">
            <path d="M317.495,162.841L322.153,162.841C322.666,162.841 323.083,162.426 323.084,161.916C323.086,161.405 322.671,160.99 322.159,160.99L317.5,160.99C316.988,160.99 316.571,161.405 316.569,161.916C316.568,162.426 316.983,162.841 317.495,162.841Z"/>
        </g>
        <g transform="matrix(13.6577,5.40038,-5.40666,13.6418,1114.08,-1593.55)">
            <path d="M317.495,162.841L322.153,162.841C322.666,162.841 323.083,162.426 323.084,161.916C323.086,161.405 322.671,160.99 322.159,160.99L317.5,160.99C316.988,160.99 316.571,161.405 316.569,161.916C316.568,162.426 316.983,162.841 317.495,162.841Z"/>
        </g>
        <g transform="matrix(13.6577,5.40038,-5.40666,13.6418,1128.48,-1637.82)">
            <path d="M346.157,166.637L346.157,169.003C346.157,169.513 346.573,169.927 347.086,169.925C347.598,169.924 348.014,169.508 348.014,168.997L348.014,166.632C348.014,166.121 347.598,165.708 347.086,165.709C346.573,165.711 346.157,166.126 346.157,166.637Z"/>
        </g>
        <g transform="matrix(13.6432,0,0,13.5694,159.989,89.0692)">
            <path d="M325.096,176.795C324.908,177.889 325.08,178.979 325.536,179.926L322.682,190.348C322.49,190.476 322.307,190.616 322.134,190.768L311.522,190.768L311.522,188.775C311.522,187.057 310.133,185.666 308.422,185.666L306.858,185.666L306.858,183.662C306.858,181.944 305.469,180.553 303.759,180.553C303.331,180.553 302.881,180.553 302.453,180.553C300.742,180.553 299.353,181.944 299.353,183.662C299.353,188.711 299.353,201.448 299.353,206.497C299.353,208.215 300.742,209.606 302.453,209.606C302.881,209.606 303.331,209.606 303.759,209.606C305.469,209.606 306.858,208.215 306.858,206.497L306.858,204.493L308.422,204.493C310.133,204.493 311.522,203.102 311.522,201.384L311.522,198.597L322.134,198.597C323.044,199.394 324.235,199.877 325.537,199.877C328.393,199.877 330.714,197.551 330.714,194.682C330.714,193.877 330.531,193.114 330.205,192.433L333.061,182.001C333.632,181.621 334.13,181.127 334.518,180.541L342.408,183.678C343.187,183.987 344.056,183.973 344.824,183.639C345.591,183.306 346.195,182.681 346.503,181.9L346.656,181.511L349.361,184.175C350.116,184.919 351.191,185.233 352.226,185.013C353.259,184.793 354.114,184.068 354.503,183.082C355.298,181.066 356.338,178.427 357.133,176.411C357.521,175.427 357.392,174.313 356.79,173.444C356.186,172.573 355.187,172.064 354.131,172.087L350.338,172.171L350.485,171.798C350.792,171.019 350.778,170.15 350.447,169.381C350.115,168.611 349.491,168.005 348.714,167.696C343.578,165.654 329.981,160.248 324.845,158.206C324.066,157.897 323.197,157.91 322.429,158.244C321.662,158.578 321.058,159.203 320.75,159.983C319.692,162.669 317.827,167.4 316.768,170.085C316.461,170.864 316.475,171.734 316.806,172.503C317.138,173.273 317.762,173.879 318.539,174.188L325.096,176.795ZM304.858,183.662L304.858,206.497C304.858,207.108 304.367,207.606 303.759,207.606L302.453,207.606C301.845,207.606 301.353,207.108 301.353,206.497C301.353,206.497 301.353,183.662 301.353,183.662C301.353,183.051 301.845,182.553 302.453,182.553L303.759,182.553C304.367,182.553 304.858,183.051 304.858,183.662ZM309.522,188.775L309.522,201.384C309.522,201.995 309.031,202.493 308.422,202.493C308.422,202.493 306.858,202.493 306.858,202.493C306.858,202.493 306.858,187.666 306.858,187.666C306.858,187.666 308.422,187.666 308.422,187.666C309.031,187.666 309.522,188.164 309.522,188.775ZM325.537,191.487C327.292,191.487 328.714,192.92 328.714,194.682C328.714,196.444 327.292,197.877 325.537,197.877C323.782,197.877 322.359,196.444 322.359,194.682C322.359,192.92 323.782,191.487 325.537,191.487ZM320.722,192.768L311.522,192.768L311.522,196.597L320.722,196.597C320.488,196.004 320.359,195.358 320.359,194.682C320.359,194.006 320.488,193.36 320.722,192.768ZM327.089,181.827L324.984,189.516C325.165,189.497 325.35,189.487 325.537,189.487C326.705,189.487 327.784,189.876 328.651,190.533L330.758,182.838C330.128,182.907 329.474,182.86 328.826,182.681C328.179,182.503 327.595,182.208 327.089,181.827ZM347.453,179.488L350.764,182.751C351.04,183.022 351.432,183.137 351.809,183.057C352.187,182.976 352.5,182.71 352.642,182.349L355.272,175.678C355.415,175.315 355.368,174.904 355.146,174.583C354.925,174.265 354.561,174.078 354.175,174.086L349.542,174.189L347.453,179.488ZM335.277,178.69L343.147,181.819C343.43,181.932 343.747,181.927 344.027,181.805C344.308,181.683 344.529,181.453 344.642,181.167C345.701,178.481 347.565,173.751 348.624,171.065C348.737,170.777 348.732,170.456 348.61,170.173C348.488,169.89 348.26,169.668 347.975,169.554L324.106,160.065C323.822,159.952 323.506,159.957 323.226,160.079C322.945,160.201 322.724,160.431 322.611,160.717C321.552,163.403 319.688,168.133 318.629,170.819C318.516,171.106 318.521,171.427 318.643,171.711C318.765,171.994 318.993,172.216 319.278,172.33L325.804,174.924C326.985,173.022 329.312,172.039 331.573,172.663C334.207,173.39 335.807,176.041 335.277,178.69ZM327.136,176.824C327.601,175.126 329.35,174.124 331.041,174.591C332.734,175.058 333.728,176.82 333.263,178.52C332.798,180.219 331.049,181.221 329.358,180.754C327.665,180.286 326.67,178.525 327.136,176.824Z"/>
        </g>
    </g>
</svg>
