<?xml version="1.0" encoding="UTF-8"?>
<svg id="Layer_1" data-name="Layer 1" xmlns="http://www.w3.org/2000/svg" viewBox="0 0 2000.55 2555.27">
  <defs>
    <style>
      .cls-1 {
        stroke-width: 0px;
      }
    </style>
  </defs>
  <path class="cls-1" d="M1998.71,2344.42c-12.66-78.07-26.54-155.94-39.87-233.9-26.15-152.87-52.46-305.71-78.27-458.63-6.49-38.47-16.91-76.6-14.07-116.14.96-13.29.43-26.1-1.99-39.21-5.9-31.97-10.6-64.17-16.52-96.14-2.18-11.76,1.4-12.4,11.19-9.07,30.26,10.28,44.49,32.8,40.19,63.3-.85,6.04-7.73,14.61-1.05,17.84,6.41,3.09,11.4-6.29,16.1-11.11,21.71-22.32,22.95-27.76,4.2-52.63-14.96-19.85-20.47-39.36-8.51-62.16,1-1.9,1.23-4.21,1.78-6.34.64-2.51,1.96-5.58-.77-7.17-2.73-1.58-5.01.88-6.64,2.87-11.25,13.73-24.99,12.23-39.57,6.88-13.22-4.85-26.54-9.23-40.91-9.4-21.18-.25-25.42-3.62-29.88-24.27-4.26-19.75-8.07-39.6-11.87-59.45-1.57-8.19-3.35-16.45,6.23-21.95,2.01-1.16,3.27-5.49,3.1-8.25-.62-10.12,1.91-19.05,7.72-27.3,2.04-2.89,3.27-6.71,1.7-10.06-7.12-15.13-10.58-31.9-27.55-41.51-20.31-11.5-21.19-23.41-5.78-41.15,4.5-5.18,6.69-9.99,3.2-16.57-9.83-18.56-40.85-25.98-56.81-12.59-7.31,6.13-12.11,6.5-16.17-2.12-8.99-19.09-25.31-33.49-24.59-58.9.5-17.53-11.42-36.61-24.38-51.38-6.99-7.97-9.87-17.47-13.41-26.79-2.97-7.82,5.61-9.96,8.55-14.91,2.51-4.22,2.11-8.5.51-12.7-8.76-23.04-19.61-45.14-30.89-67.01-3.42-6.63-9.36-11.72-17.19-6.25-7.3,5.1-10.84,2.08-14.5-4.13-3.12-5.29-6.51-10.5-10.39-15.25-10.48-12.85-13.22-26.75-9.74-43.16,3.27-15.4,4.83-31.33,5.43-47.08.45-11.68,4.2-18.58,14.7-24.99,44.54-27.18,52.5-83.62,18.7-122.95-7.38-8.58-16.19-16.4-20.88-28.92,5.3.54,8.72,1.11,12.16,1.19,6.25.16,12.75-.08,16.46-6.05,3.57-5.76.62-11.09-2.95-15.75-3.17-4.13-3.29-8.98-4.06-13.71-4.99-30.38-14.89-58.83-34-83.35-5.52-7.08-10.01-13.77-10.7-23.26-.69-9.49-7.24-19.79-16.29-16.94-16.19,5.08-27.72-4.47-41.31-7.46-10.83-2.39-12.28-6.68-6.31-16.04,17.17-26.93,30.97-55.68,33.92-87.81,4.72-51.47,3.82-102.87-11.7-152.82-11.09-35.7-29.03-67.05-62.29-86.98-16.2-9.71-32.67-19.02-49.38-27.83-11.05-5.83-23.04-8.49-35.74-6.05-25.31,4.87-49.27,13.13-70.12,28.73-30.23,22.61-51.67,52.51-69.09,85.45-20.99,39.7-43.45,78.38-70.65,114.28-20.05,26.46-43.52,47.09-77.45,52.75-9.1,1.52-18.19,3.23-27.36,4.13-57.82,5.71-105.06,30.24-139.09,78.1-5.63,7.91-13.35,12.39-21.44,16.94-44.83,25.2-82.04,58.23-101.14,107.16-12.15,31.13-32.05,54.72-57.98,74.92-33.62,26.18-58.1,58.51-62.7,102.88-2.67,25.78,2.78,50.75,5.99,75.98,1.85,14.57,2.32,29.08-3.83,42.79-10.97,24.46-22.31,48.76-33.63,73.06-2.98,6.38-6.47,12.62-11.84,17.31-7.74,6.76-14.77,5.06-18.51-4.47-3.26-8.29-3.72-17.09-3.99-25.93-.13-4.45,1.21-9.38-3.6-13.18-2.56,18.27-6.99,36.73,2.7,54.29,7.39,13.4,20.86,14.61,31.8,3.4,9.4-9.62,14.16-22.13,19.96-33.95,6.49-13.21,11.14-27.42,21.46-38.83-2.15,16.05,4.11,34.54-9.2,47.25-51.57,49.25-66.03,115.66-83.77,180.18-9.69,35.26,6.94,66.55,37.61,79.81,4.48,1.94,9.15,5.1,16.16.48-29.92-20.04-39.85-48.25-35.57-81.61,4.16-32.47,22.52-56.88,46.87-77.46-5.8,16.99-14.21,32.78-19.36,49.88-8.14,27.04-9.38,40.46-4.32,51.67,4.18-2.6,2.87-7.01,3.42-10.65,2.78-18.43,7.89-36.15,17.18-52.34,23.65-41.23,52.71-77.5,92.46-104.91,41.18-28.4,75.31-63.34,93.73-111.29,2.27-5.9,6.15-11.18,9.28-16.75-8.25,43.82-26.26,81.91-62.5,109.23-31.2,23.53-58.8,50.29-77.08,85.41-2.56,4.93-6.76,9.91-2.75,19.19,21.44-30.25,44.46-55.95,76.08-76.07-1.65,8.93-3.3,15.28-3.92,21.74-2.21,23.23-4.58,46.59,6.92,68.41,2.18,4.14,4.65,10.11,10.1,8.94,5.3-1.14,3.5-7.32,3.61-11.46,1.04-41.4,17.69-74.63,51.44-99.01,11.2-8.09,21.78-17.22,26.44-30.46,12.96-36.86,34.8-68.75,54.51-101.96,13-21.91,28.53-41.1,47.55-57.66,19.7-17.15,42.43-29.58,65.18-42.2-1.25,6.89-2.49,13.23-5.74,18.26-17.64,27.34-32.91,58.21-73.85,53.79-8.51-.92-14.25,3.65-17.77,11.04-9.45,19.86-18.5,39.89-23.78,61.36-1.16,4.7-2.9,9.92.42,14,5.16,6.35,2.75,12.23.56,18.53-5.8,16.63-14.6,31.88-21.66,47.85-9.41,21.29-16.98,42.9-19.2,67.42-2.19,24.15-15.42,47.31-23.87,70.88-.42,1.17-1.32,2.6-2.36,3.06-11.94,5.31-16.02,16.92-18.49,27.53-7.37,31.62-23.25,59.7-34.72,89.58-2.54,6.63-5.65,12.69-10.44,18.11-9.06,10.28-7.67,16.46,5.49,21.41,7.34,2.76,9.66,6.12,7.19,13.61-4.23,12.82-5.82,25.8-6.68,39.57-1.8,28.87,8.75,51.41,27.15,71.46,14.32,15.59,14.72,15.17-3.58,27.97-89.53,62.61-184.18,116.6-281.24,166.48-61.38,31.54-124.68,59.13-185.71,91.46-82.62,43.77-147.56,105.26-194.59,186.13-41.39,71.16-76.23,145.64-112.73,219.28-13.85,27.95-25.96,56.68-35.75,86.44-12.56,38.18-4.82,70.25,23.58,98.87,31.88,32.13,70.21,52.32,112.66,65.84,9.21,2.93,18.54,5.47,27.89,7.91,2.37.62,5.5,1.17,6.81-2.04.97-2.39-.83-4.23-2.33-5.75-4.63-4.69-9.72-8.96-14.05-13.9-5.16-5.87-5.13-12.69,3.33-13.9,18.1-2.61,35.67-12.23,54.73-5.09,2.39.9,5.23,1.01,7.83.89,6.72-.33,16.27,2.68,18.48-5.51,2.25-8.38-7.41-10.53-13.35-13.69-58.21-30.92-95.39-80.81-122.33-138.84-11.92-25.68-4.33-36.58,22.83-44.07,22.86-6.3,45.54-13.29,68.14-20.45,9.22-2.92,17.04-7.89,15.15-19.73-1.13-7.06,4.39-5.63,7.69-5.51,19.3.75,38.58,1.9,57.87,2.94,2.74.15,5.34.99,6.85,3.36l38.85,22.09c1.49.83,2.68,3.81,2.54,5.69-1.54,20.06,6.74,39.57,3.15,59.77-.81,4.53-1.58,10.79,4.18,12.63,6.38,2.04,9.15-4.04,11.89-8.33,10.68-16.73,19.53-34.43,26.27-53.09,9.54-26.43,26.83-46.88,48.57-63.88,1.95-1.52,3.86-2.79,5.74-3.84.44-.41.9-.81,1.39-1.18,13.14-10.09,30.64-11.47,46.45-8.62,26.26,4.73,53.07,20.86,66.74,44.12,5.55,9.44,9.21,19.89,10.84,30.61,5.84,9.67,7.57,21.34,4.03,35.82-2.47,10.13,1.28,18.61,11.03,23.74,11.36,1.5,21.97,5.9,32.48,10.65,3,1.35,5.99,2.74,9.01,4.04,1.22.53,2.44,1.04,3.66,1.54.55.23,1.1.44,1.66.66.12.04.29.1.53.18,6.33,2.09,12.89,3.63,19.33,5.34,10.96,2.91,21.96,4.88,33.03,6.93,4.7-1.72,5.45-5.68.71-12.08-6.45-8.71-1.96-12.53,5.79-15.58,11.74-4.62,42.08,3.65,47.16,15.59,5.89,13.87,15.82,13.25,26.83,12.47,11.4-.81,22.59-2.66,33.33-7.19,12.21-5.15,25-7.94,38.45-8.12,18.42-.24,34.51-5.77,45.52-22,2.37-3.49,6.04-7.22,9.87-8.39,16.23-4.97,25.89-17.57,35.99-29.62,6.87-8.19,14.63-13.75,25.78-13.57,3.86.06,8.57.46,9.96-4.42,1.4-4.92-1.73-8.45-5.5-11.03-11.35-7.78-22.96-11.4-37.15-6.45-7.75,2.7-14.04,1.89-18.18-1.57-3.84-2.09-6.7-5.95-6.89-11.67-.68-19.98,12.12-37.53,23.18-53.08,8.43-11.85,17.22-23.23,31.76-27.62,11.69-3.53,26.17-3.31,38.12-1.19,16.4,2.92,29.14,15.59,26.24,33.02-2.1,12.61-12.56,24.03-23.37,30.54-.1,1.27.2,2.6,1.1,4,3.41,5.28,8.77,3.23,13.15,1.58,8.62-3.25,16.95-7.27,25.49-10.75,8.08-3.3,12.61-1.15,12.7,8.33.39,42.19,3.81,84.32,2.58,126.54-.13,4.33-.94,8.77-2.26,12.9-3.04,9.5-3.89,18.62-.03,28.29,3.54,8.88,1.91,16.18-8.74,19.64-10.07,3.27-11.45,10.2-8.03,19.91,16.1,45.69-1.09,88.55-12.44,131.71-2.62,9.96-12.36,18.19-11.41,29.03,1.09,12.39-3.31,23.23-5.4,34.8-3.55,19.65-12.96,39.2-6.08,59.5,7.99,23.58,12.38,47.52,12.41,72.32.01,10.77,4.14,19.64,11.57,27.13,10.98,11.07,24.67,16.78,39.82,18.81,35.56,4.75,71,3.7,106.23-3.22,10.42-2.04,15.91-8.67,17.2-18.98,1.6-12.81-2.67-23.54-12.46-31.71-14.74-12.3-21.89-27.84-23.28-46.94-1.28-17.5-4.2-34.88-6.22-52.34-1.1-9.53-2.91-18.89,6.5-26.46,5.77-4.65,3.87-11.92,1.94-18.51-3.95-13.49-8.07-26.91-.25-40.73,1.72-3.05,1.34-7.86.65-11.62-6.4-34.52,1.19-66.55,16.66-97.29,2.57-5.1,4.98-10.29,7.1-15.59,2.14-5.33,2.2-11.85-3.08-14.18-16.84-7.45-13.03-17.64-5.42-29.18,1.14-1.73,1.73-4.18,1.7-6.29-.3-27.7,10.49-53.3,15.01-80.07,1.18-6.99,3.8-12.95,8.18-18.94,6.71-9.18,11.51-20.06,11.01-31.84-.99-22.99,6.02-43.36,17.56-62.86,6.03-10.19,11.33-21.66,8.34-33.75-3.07-12.41-.94-23.37,4.13-34.41,4.64-10.11,6.2-20.64,6.53-31.87.33-11.3-3.09-24.1,7.97-33.13,41.82-34.16,69.46-79,93.75-126.09,35.75-69.32,62.47-142.43,89.06-215.57,2.19-6.03,4.4-12.05,6.82-18.66,5.09,3.98,5.92,8.49,7.33,12.47,6.39,18.09,16.67,34.79,17.73,54.81.68,12.71,11.94,21,16.16,32.77,15.59,43.46,18.96,89.27,27.03,134.15,4.51,25.1-2,50.81,2.72,76.3,1.92,10.35-2.97,21.53-2.62,32.64,1.05,33.29,1.79,66.59,2.38,99.9.85,48.24,12.71,93.81,32.35,137.63,18.72,41.77,42.39,81,62.48,122.06,2.94,6.02,5.87,10.88-1.22,17.23-12.11,10.84-11.21,18.29,2.73,26.84,9.62,5.9,15.42,14.01,19.37,24.1,5.45,13.93,10.38,27.99,13.71,42.63,2.77,12.18-.76,24.9,2.72,36.57,2.9,9.69.73,16.82-4.32,24.57-5.51,8.48-14.51,16.24-7.62,28.41.78,1.37-1.2,5.06-2.79,6.91-23.68,27.47-18.65,60.65-18.39,92.78.03,4.14,1.97,8.72,4.25,12.32,15.2,24.01,26.75,49.27,30.82,77.81,1.5,10.56,14.67,14.87,30.78,12.16,11.45-1.93,13.89-8.9,12.09-19.17-2.23-12.69-1.82-25.39,1.13-37.97,1.09-4.65,1.15-10.63,6.57-11.94,5.32-1.28,8.46,3.9,11.64,7.37,12.24,13.38,22.02,28.57,30.26,44.59,5.18,10.07,12.61,15.8,23.5,16.53,40.78,2.74,81.59,5.51,122.16-2.42,8.84-1.73,17.6-3.61,19.4-14.65,1.84-11.27-.48-21.41-10.3-27.99-6.87-4.6-14.45-8.56-22.24-11.27-17.82-6.2-30.28-18.35-42.16-32.46-8.1-9.62-4.35-21.24-8.74-30.48-11.4-24.02-17.06-51.22-37.4-71.06,1.65-.68,3.21-1.36,4.8-1.98,6.95-2.71,15.62-4.68,17.02-12.87,1.32-7.68-8.44-7.48-12.38-11.75-8.6-9.31-19.6-18.46-17.77-32.11,1.05-7.81.11-14.41-1.17-21.66-6.23-35.33-16.81-71.2,14.55-101.45,7.1-6.85,2.82-12.76-5.39-15.83-12.43-4.64-25.17-7.87-38.57-7.72-5.49.06-9.74-.88-12.87-6.75-7.33-13.73-12.09-27.96-14.01-43.45-3.73-30.08-8.11-60.09-12.26-90.11-.54-3.92-1.75-7.89,1-11.42,9.73-12.51,6.1-26.59-.49-37.17-10.28-16.5-11.79-33.04-9.82-51.24,1.08-10.01,2.47-21.1-3.76-29.54-11.6-15.69-8.18-33.01-9.42-50.83,15.3,7.37,19.11,5.98,22.94-9.52,6.23-25.23,14.04-49.88,23.33-74.14,6.62-17.28,10.25-35.3,12.24-53.8,4.07-37.78,1.69-75.45-.24-113.17-.23-4.41.11-9.41-5.08-11.08-5.74-1.85-9.4,2.46-11.69,6.54-8.74,15.63-22.4,25.68-37.41,34.3-3.27,1.88-6.27,6.7-10.16,4.54-3.76-2.09-1.97-7.27-1.78-11,1.49-28.83-1.53-57.61,2.93-86.65,2.67-17.38-2.1-36.2-4.33-54.32-2.2-17.93-6.71-36.43-5.6-54.78-.02-1.57,0-3.13.12-4.7.24-3.5.97-6.87,1.79-10.27.76-3.15,1.59-6.32,2.19-9.5.27-1.45.6-3.57,1.9-4.52.69-.88,1.77-1.48,3.27-1.47,4.04.04,8.16.36,12.24.37-.76-2.66-1.24-6.07-1.59-10.37-1.48-18.5-8.85-35.58-13.34-53.28-9.57-37.78-13.63-76.76-25.7-113.92-.79-2.44-1.78-6.19-.59-7.69,12.52-15.88,4.26-32.07.16-47.55-3.14-11.87-3.36-24.45-16.03-34.15-7.22-5.52-6.12-21.93-8.77-33.43.7-.61,1.4-1.21,2.1-1.82,6.24,8.33,13.9,15.96,18.44,25.14,9.28,18.74,21.99,35.62,35.58,50.34,15.02,16.26,22.72,35.74,34.05,53.52,7.96,12.5,19.59,20.2,33.43,24.13,9.27,2.63,13.64,7.66,15.31,17.09,3.44,19.46,6.81,39.05,12.33,57.97,3.48,11.93-3.28,22.34-1.42,33.67.54,3.27-3.67,4.66-6.48,5.73-17.33,6.59-30.88,18.26-43.16,31.72-3.55,3.89-7.26,7.38-12.8,8.77-3.74.94-6.86,1.56-9.48,1.81-7.73,1.71-15.68,1.04-23.95.96-1.39-.01-2.46-.55-3.21-1.35,1.35,5.06,3.98,9.55,8.66,12.84,18.95,13.32,22.96,31.95,19.06,53.47-1.02,5.62-1.54,11.32-2.31,16.98-3.07,22.55-.62,27.11,20.18,36.42,4.39,1.96,9.04,3.4,13.66,4.79,4.54,1.36,10.47,4.55,13.59.44,3.96-5.2-3-8.29-5.79-11.48-13.8-15.85-20.88-32.72-9.48-52.82,3.89-6.85,8.49-13.35,13.28-19.62,2.51-3.29,5.01-8.48,10.04-7.09,4.33,1.2,3.76,6.62,4.54,10.27,5.83,27.51,11.35,55.08,17.02,82.63,2.29,11.15,3.78,22.49,10.2,32.45,9.93,15.41,14.71,32.77,18.13,50.58,46.75,243.38,94.26,486.62,139.64,730.25,8.8,47.23,31.86,85.9,56.68,124.77,1.8,2.83,3.56,6.54,7.81,6.1,3.22-.34,3.85-3.5,4.25-5.98,5.94-36.76,16.49-73.35,10.4-110.95ZM679.52,908.91c-15.85,18.1-35.12,32.37-54.27,47.21,8.76-28.81,24.09-53.15,46.3-73.04,1.58-1.42,3.15-3.07,5.59-1.1,4.32,3.48,6.44,22.3,2.38,26.92ZM694.82,887.09c-7.86-20.51-3.79-29.03,27.55-55.6-7.26,21.66-16.07,39.06-27.55,55.6ZM695.48,832.17c5.28-38.92,25.22-75.15,48.02-88.64-7.12,33.84-23.85,61.18-48.02,88.64ZM883.49,440.12c-.15,4.84-3.78,7.66-7.24,10.47-34.26,27.78-63.23,59.61-78.3,102.12-2.12,5.98-6.73,10.2-11.05,14.58-21.37,21.67-32.16,47.91-32.76,78.15-.46,23.04-5.74,43.87-21.22,61.88-12.49,14.54-23.68,30.2-35.45,45.36-3.99-28.88-12.01-55.79-8.72-83.75,1.67-14.23,7.05-26.03,17.17-35.99,10.95-10.78,21.35-22.13,32.58-32.61,26.43-24.67,46.11-53.74,60.13-87.06,14.97-35.59,40.62-62.17,73.28-82.2,3.61-2.21,7.89-6.87,11.65-4.33,4.8,3.24.08,8.82-.06,13.38ZM878.94,1285.28c-2.21,1.99-4.27,5.11-7.71,3.85-3.62-1.33-2.7-5.1-2.93-8.02-1.18-15.13,8.74-27.05,11.29-44.66,11.66,22.21,10.78,38.52-.66,48.83ZM907.43,428.78c-2.35-2-1.25-4.85-.65-7.36,1.54-6.44,5.42-10.83,11.75-12.96,19.98-6.73,40.36-10.75,61.99-8.45-10.02,7.37-21.93,10.05-33.12,14.49-10.95,4.35-21.79,8.98-32.7,13.44-2.34.96-4.84,2.91-7.27.84ZM915.07,754.32c12.21-40.71,38.62-70.05,73.15-92.93-26.87,29.07-52.94,58.77-73.15,92.93ZM937.58,366.16c15.39-40.57,84.21-72.46,145.4-66.54-45.97,30.64-94.02,51.53-145.4,66.54ZM1253.18,836.19c-4.33,7.63-8.29,15.49-12.18,23.36-7.21,14.59-17.51,19.38-32.99,15.08-29.92-8.31-44.1-3.18-59.16,23.66-11.3,20.14-24.04,40.34-18.01,65.46.78,3.24-.76,6.07-2.52,8.61-7.69,11.09-15.44,22.14-23.92,32.97-12.78,24.08-32.15,44.66-48.3,66.36-9.33,12.54-18.6,25.2-29.47,36.47-5.31,5.5-10.57,10.91-15.7,16.44-6.06,8.82-13.33,17.38-21.62,25.69-22.24,22.28-40.97,48.04-61.43,72.11-2.34,2.76-4.48,7.74-9.16,5.71-3.74-1.62-1.98-6.25-2.4-9.59-2.18-17.36-4.04-34.77-6.62-52.07-.94-6.3-1.13-12.22,1.4-18.03,10.11-23.23,19.49-46.88,28.11-70.57,8.36-22.96,16.58-45.48,30.13-65.87,3.87-5.83,7.71-10.67,14.92-13.79,2.84-1.23,5.13-2.96,7.07-5.02,2.07-3.48,4.05-7,5.76-10.7,4.2-9.1,7.88-18.46,12.89-27.17,7.99-13.89,15.25-28.53,26.73-39.71,4.18-5.68,8.48-10.13,15.38-12.07,4.78-1.35,7.6-5.85,10.41-9.76,7.68-10.7,14.29-22.32,22.97-32.12,13.46-15.2,15.27-30.75,5.38-48.05-4.66-8.14-2.99-14.92,3.67-21.17,31.34-29.38,51.71-66.99,75.82-101.75,8.23-11.86,14.65-24.98,21.93-37.51,1.51-2.6,2.37-6.57,5.65-6.72,4.61-.21,4.6,4.69,5.81,7.68,8.89,21.97,17.75,43.96,26.26,66.09,7.57,19.67,14.76,39.47,24.57,58.2,10.17,19.41,9.42,38.72-1.39,57.79Z"/>
</svg>