<?xml version="1.0" encoding="UTF-8"?>
<svg id="Layer_1" data-name="Layer 1" xmlns="http://www.w3.org/2000/svg" viewBox="0 0 751.47 943.83">
  <defs>
    <style>
      .cls-1 {
        stroke-width: 0px;
      }
    </style>
  </defs>
  <path class="cls-1" d="M553.39,60.78v7.74c-2.67-3.23-3.12-6.14-3.2-9.06-.15-5.88.86-11.58,2.94-17.12,2.07-5.52,5.27-10.48,6.31-16.56.9-5.28,5.18-8.86,10.5-10.43,2.61-.77,3.68-1.79,3.51-4.86-.29-5.4,3.14-9.1,9.14-10.48-1.7,3.39-5.49,5.88-3.56,10.2,2.54-.41,4.08-2.33,5.99-3.55,8.33-5.33,17.24-5.81,26.41-3.04,8.26,2.49,16.41,5.4,25.47,2.19q-3.28,6.07,2.08,10.8c3.87,3.4,5.71,9.37,12.49,9-1.24,2.86-3.17,1.15-4.9,1.79,4.25,7.53,8.79,15.06,5.64,25.15-2.28-2.61-.43-5.39-2.26-7.08-3.95,9.37,2.61,21.4-7.36,29.23.64-3.56,3.27-6.55,2.94-10.4-8.33,9.43-8.63,11.5-3.03,22.33.87,1.68,2.13,3.53.14,4.89-6.39,4.37-8.11,11.77-11.92,17.81-1,1.59-1.03,3.47-1.22,5.31-.7,6.82-5.15,9.48-11.57,6.87-2-.81-3.87-1.95-5.82-2.89-.88-.42-2-1.11-2.69-.01-.96,1.51.58,1.98,1.49,2.54,9.29,5.67,17.41,12.86,25.77,19.74,2.57,2.11,4.08,3.92,3.6,8.22-.53,4.77,3.49,9.21,7.39,12.34,4.93,3.95,10.17,7.59,15.6,10.8,4.1,2.42,5.58,5.77,6.1,10.16,1.58,13.4,3.39,26.77,4.93,40.17.38,3.32,1.29,6.11,3.93,8.3,1.71,1.42,2.9,3.32,3.12,5.55.24,2.51,2.07,3.26,3.91,4.01,2.21.9,2.87-1.13,3.85-2.32,5.29-6.45,10.45-12.96,13.77-20.75,1.28-3.01,1.11-5.51-1.11-7.78-3.7-3.77-5.16-9.44-11.16-11.4-3.39-1.11-3.99-7.18-2.21-10.9,2.15-4.49,1.64-9.48,2.4-14.22,4.63-28.86,8.27-57.85,11.89-86.85.51-4.05.88-8.25,6.9-5.51,1.78.81,2.07-.97,2.91-1.91,2.05-2.29,4.75-1.98,5.52.6.82,2.75,2.28,4.1,4.51,5.41,2.4,1.42,2.92,3.87,2.63,6.55-1.17,10.93-2.28,21.86-3.46,32.79-.72,6.67-1.38,13.21,7.1,15.84,2.22.69,2.46,3.01,2.49,5.05.08,5,.28,10-.57,14.96-.4,2.31.19,3.8,2.38,5.36,10.95,7.8,15.38,18.98,13.96,31.97-.71,6.44-5.7,11.55-9.23,16.95-1.62,2.49-2.06,4.16-.34,6.6,7.33,10.42,8,23.48,13.53,34.63.89,1.79.35,3.59-.94,5.12-.86,1.02-1.6,2.17-2.57,3.06-19.05,17.43-32.88,39.35-50.16,58.31-1.54,1.69-2.57,3.87-3.65,5.92-1.4,2.64-3.31,4.8-6.28,5.26-3.88.6-4.28,2.88-3.8,6.09,2.81,18.95,5.59,37.89,8.31,56.85,4.76,33.15,9.31,66.31,9.59,99.89.06,7.1-1.42,8.08-7.78,4.87-5.2-2.63-10.33-5.42-15.43-8.25-2.64-1.46-3.88-1.52-3.52,2.17.86,8.79,1.51,17.6,4.21,26.08.63,1.98.78,3.98,0,5.88-2.55,6.18-2.5,12.66-2.57,19.18-.33,32.82-.5,65.65-1.26,98.47-.29,12.46-2.31,24.87-3,37.33-1.39,25.44-2.39,50.89-.21,76.37,1.22,14.26,1.62,28.6,2.37,42.9.75,14.3,1.47,28.61,2.25,42.91.16,3.01.83,5.93,1.87,8.77,5.65,15.49,10.63,31.28,17.22,46.36,3.13,7.17,10.7,11.17,18.5,13.14,7.26,1.84,14.71,2.88,21.97,4.73,7.26,1.85,13.24,13.59,11,20.75-.75,2.39-2.78,2.81-4.75,2.92-17.97,1.06-35.96,1.41-53.96.99-1.9-.04-3.5-.74-4.89-2.14-2.47-2.49-5.74-3.24-9.07-3.72-1.71-.25-3.6-.19-4.2,1.79-1.18,3.93-4.15,4.28-7.5,4.25-8.17-.09-16.33-.14-24.5-.19-4.69-.03-7.6-1.68-7.48-7.03.05-2.45-.56-4.98-1.26-7.36-3.68-12.56-6.01-25.32-5.26-38.44.3-5.17-.79-9.49-4.54-13.14-4.35-4.23-5.15-8.87-1.96-14.34,6.3-10.83,6.24-22.61,5.97-34.82-.76-35.42-9.5-69.57-15.21-104.2-1.4-8.47-1.33-16.44,3.3-24.09,6.85-11.31,6.89-23.14,1.28-34.9-3.02-6.32-3.57-12.21.03-18.5,2.22-3.88,2.01-8.21,1.28-12.65-4.49-27.38-12.56-53.84-20.44-80.34-.27-.92-.71-1.79-1.54-3.82-2.23,6.5-4.14,11.94-5.98,17.4-13.12,39-24.03,78.73-38.4,117.31-17.93,48.16-32.23,97.39-43.9,147.42-1.64,7.03.5,13.6,1.97,20.18,1.8,8.03,2.67,15.87-1.37,23.34-3.67,6.78-2.96,13.74-1.93,20.86.75,5.17,2.27,10.16-3.33,14.37-2.8,2.1-.75,6.4,1.49,8.43,5.55,5.03,4.39,11.57,4.78,17.73.23,3.63-3.22,3.88-5.73,4.35-12.84,2.37-25.79,3.06-38.81,1.89-4.47-.4-8.95-.85-13.41-1.38-3.11-.37-4.6-2.14-4.73-5.37-.19-4.73,0-9.32,2.37-13.59,1.9-3.42,2.18-7.31,3.14-11.01.72-2.79-1.19-4.13-2.93-5.22-6.23-3.9-6.99-8.98-4.94-15.74,4.32-14.25,5.79-28.82,5.51-43.86-.25-13.46,4.19-26.58,6.66-39.83,4.97-26.68,10.8-53.22,12.48-80.42.81-13.16,6.41-24.67,13.09-35.79,4.89-8.15,8.92-16.76,12.64-25.52,3.5-8.23,5.72-16.68,5.14-25.73-.52-8.07,2.21-15.49,5.34-22.66,6.19-14.15,8.77-28.81,8.65-44.26-.14-18.15.56-36.31,1.12-54.47.1-3.1-.84-4.36-3.73-5.29-10.31-3.32-20.37-7.32-30.26-11.77-3.48-1.57-4.7-3.65-4.55-7.72,1.24-33.29,7.84-65.78,14.49-98.26.76-3.72.16-6.38-2.48-8.97-2.61-2.56-4.87-5.48-7.39-8.14-4.25-4.49-7.75-9.06-5.55-15.93.97-3.05-.68-5.69-2.7-8.16-14.31-17.55-11.85-11-9.39-33.71,2.42-22.35,5.93-44.57,8.36-66.92.8-7.35,3.43-14.85.04-22.43-1.29-2.88.39-5.88,2.19-8.39,3.68-5.13,4.81-10.44,1.86-16.38-3.59-7.21-2.89-13.79,2.13-20.46,3.79-5.03,3.14-11.41,2.19-17.4-1.13-7.17.83-10.02,7.89-10.61,2.43-.2,4.42-1.41,6.57-2.27,10.05-4.03,20.11-8.04,30.11-12.21,6.62-2.76,10.3-7.95,13.3-14.48,2.28-4.94,4.57-11.11,12.22-11.39,2.49-.09,3.73-3.59,5.17-5.78,1.87-2.84,3.94-4.89,7.65-4.5,2.12.22,3.36-1.03,4.16-2.9,2.53-5.89,3.39-11.72.56-17.86-3.61-7.83-8.27-15.22-10.8-23.61Z"/>
  <path class="cls-1" d="M330.22,561.85c-16.36-44.76-37.58-87.16-61.87-128.09-10.23-17.24-18.65-35.36-24.85-54.46-1.4-4.31,4.54-11.61,8.69-10.82,8.23,1.56,13.22-.54,17.88-7.44,2.05-3.03,3.82-6.39,6.39-8.91,7.47-7.33,9.65-16.47,9.96-26.39.08-2.47.01-4.95.01-7.43,3.89,5.4,4.95,11.31,5.27,17.29.34,6.27-.73,12.19-7.41,15.52,5.72.46,8.09-3.24,9.03-7.43,3.76-16.65,4.84-33.23-2.92-49.27-.77-1.58-3.15-3.66-.81-5.2,1.94-1.28,3.54,1.13,5,2.38,6.87,5.87,11.35,13.44,15.02,21.55,1.96,4.33,2.71,8.88,2.45,13.64-.27,4.94-2.2,8.74-7.33,10.2,1.34,1.88,2.56,1.76,3.68,1.56,5.43-1,10.79-9.17,9.2-14.55-2.47-8.33-6.3-16.13-10.49-23.71-1.47-2.66-1.57-4.29,1.04-6.26,4.73-3.56,6.52-8.54,6.38-14.47-.16-6.74-2.58-12.71-5.7-18.43-3.58-6.56-7.77-12.78-10.11-20-1.92-5.91-5.33-11.11-9.09-16.02-2.84-3.7-6.64-6.86-8.67-10.93-9.62-19.25-23.52-35.53-35.9-52.86-2.03-2.84-4.5-5.51-5.44-8.92-4.35-15.72-9.59-31.23-12.29-47.36-2.01-11.98-5.46-23.33-12.66-33.32-7.43-10.31-17.02-17.65-29.73-19.39-31.71-4.33-51.79,7.83-65.26,33.74-7.27,13.99-2.19,25.35,3.55,37.33.14.29.38.62.66.73.73.3,1.64.85,2.24.64.97-.35.54-1.36.28-2.14-1.06-3.11-1.66-6.28-1.68-10.84,1.85,3,2.68,5.32,4.29,6.78,3.98,3.63,2.65,7.08-.46,9.76-4.01,3.45-2.76,6.06.17,9.07,1.83,1.88,3.95,3.64,2.7,6.89-4.53,11.81-7.21,24.25-12.42,35.86-4.91,10.94-9.97,21.96-12.78,33.6-4.67,19.31-9.46,38.71-9.03,59-1.25-.46-2.8-1.01-4.33-1.6-9.24-3.61-17.13-9.57-25.54-14.64-2.7-1.63-5.13-4.48-9.04-2.64-1.28.6-2.07-.83-2.39-1.98-.49-1.76-.79-3.57-1.54-7.1,2.46,2.56,4.16,2.55,6.17,1.57,7.15-3.48,8.07-9.73,2.24-15.38-1.04-1-1.86-2.38-2.38-3.74-5.46-14.18-12.93-27.44-18.82-41.43-5.62-13.36-11.94-26.42-16.96-40.03-.97-2.62-8.56-8.66-11.19-8.61-1.53.03-3.45.63-3.46,2.26-.02,3.17-2.05,3.59-4.33,4.44-4.38,1.62-6.83,7.43-5.07,11.67,3.83,9.23,7.78,18.41,11.6,27.65,3.39,8.2,3.33,8.22-3.79,13.34-.54.39-1.09.82-1.7,1.04-3.6,1.31-3.7,3.78-2.42,6.83,2.58,6.14,5.05,12.34,7.72,18.44.81,1.85.74,2.69-.72,4.54-4.58,5.81-6.35,13.23-4.68,20.07,1.18,4.81.31,6.97-3.45,8.56-3.44,1.46-3.21,3.34-1.44,5.79,2.34,3.25,4.72,6.46,7.09,9.67q6.78,9.17,14.7,1.19c5.3-5.33,4.8-4.56,10.92-.59,9.9,6.42,13.44,14.13,8.66,25.25-1.45,3.37.23,5.39,3.37,7.09,12.73,6.93,25.7,13.41,38.12,20.92,3.85,2.33,4.83,4.54,3.45,8.82-5.08,15.69-9.59,31.55-13.51,47.58-2.2,8.99-3.38,17.9-1.76,27.19.93,5.33,1.09,10.67-.78,16.2-6.51,19.26-11.38,39.01-16.82,58.59-.74,2.68-.69,5.24,1.68,6.74.92.58,1.61,1.21,2.14,1.9.98.85,1.91,1.76,2.84,2.55,3.9,3.34,7.2,6.73,10.07,11.01,5.93,8.84,9.85,19.08,12.6,29.32,1.48,5.5,2.38,11.13,2.84,16.81.21,1.07.38,2.31.56,3.76,2.69,22.32,5.27,44.67,9.25,66.79,3.74,20.81,6.11,41.94,11.88,62.29,7.04,24.8,10.83,50.11,14.04,75.56,2.89,22.97,4.82,46.05,5.66,69.18.53,14.62,1.55,29.31-.74,43.9-.28,1.8-.21,4.3-1.85,4.97-6.87,2.81-7.84,9.39-10.09,15.1-1.17,2.96-2.26,5.85-4.31,8.37-6.52,8-14.19,13.76-24.84,15.37-4.98.75-9.91.92-14.88,1.22-7.61.46-10.3,2.94-11.97,10.19-.84,3.66.18,5.54,3.9,6.53,16.97,4.49,34.1,7.7,51.75,7.49,4.45-.05,8.05-1.25,10.95-4.82,1.54-1.9,3.58-3.54,5.67-4.83,5.95-3.69,8.14-2.6,8.97,4.37.37,3.12,1.29,5.66,4.81,5.94,6.48.52,12.97.77,19.38-.84,2.83-.71,4.14-2.34,4.08-5.36-.11-5.83-.18-11.67.11-17.49.29-5.69.33-11.22-1.43-16.78-1.95-6.16-3.72-12.42-3.95-18.97-.06-1.84-.27-4.59-2.31-4.39-5.7.54-4.58-3.32-4.61-6.36-.45-35.71,2.43-71.22,6.65-106.64,2.16-18.16,3.42-36.21-4.68-53.49-2.12-4.52-3.85-9.22-5.61-13.9-.85-2.27-2.24-4.45-1.94-7.19,1.76.59,2.15,2.16,2.86,3.37,22.82,38.74,42.24,79.02,55.36,122.18,5.14,16.9,11.05,33.6,10.33,51.67-.11,2.87.25,5.59-3.62,6.6-2.28.6-2.39,3.04-2.02,5.09,1.23,6.67-.24,12.94-2.84,18.99-8.34,19.37-4.35,16.75-25.29,21.48-5.6,1.26-9.45,5.5-9.37,11.15.07,5.59,5,5.16,8.36,6.03,12.42,3.24,25.17,2.12,37.81,2.11,10.09,0,13.39-2.89,14.98-12.9.67-4.22,2.17-8.02,4.36-11.6.86-1.4,1.76-3.13,3.61-3.14,2.2-.02,2.21,2.2,2.77,3.64,1.68,4.37,4.63,5.86,9.09,4.38,4.77-1.57,9.27-3.65,13.52-6.36,2.74-1.75,3.75-3.83,3.1-7.11-.77-3.91-1.42-7.92-1.43-11.89-.04-14.79-5.61-27.11-16.01-37.42-1.05-1.04-1.95-3-3.05-3.1-4.1-.38-4.85-3.61-6.1-6.38-3.42-7.62-5.98-15.52-7.75-23.7-5.3-24.45-8.36-49.25-11.9-73.97-2.74-19.11-7.61-37.2-21.59-51.62-4.04-4.18-7.37-9.04-11.23-13.41-15.17-17.18-21.08-37.33-19.99-59.99,1.03-21.46,2.91-42.85,4.64-64.26.34-4.19.93-4.99,4.66-2.43,12.62,8.67,26.8,13.34,41.91,15.05,3.66.42,5.18,1.96,6.17,5.2,2.88,9.42,6.99,18.36,11.01,27.33,1.97,4.39,4.15,5.97,9.2,3.92,26.06-10.56,50.48-24.11,74-39.41,3.9-2.54,4.53-5.31,2.93-9.67ZM296.67,282.61c5.85-8.57,6.16-17.96,3.95-27.7-.06-.27.17-.6.53-1.71,6.77,9.6,12.33,18.94,10.9,30.86-.5,4.13-3.34,6.72-6.27,9.22-.24.21-.61.46-.88.42-4.04-.52-4.67-4.76-7.37-6.79-1.4-1.05-2.11-2.47-.86-4.3ZM254.93,367.06c-1.93-.32-4.25-.62-3.91-3.44.27-2.28.62-4.07,4.02-4.38,4.64-.42,9.19-1.87,13.95-.85-2.66,5.93-8.52,9.59-14.05,8.67ZM268.32,347.3c-.87,2.98-1.81,6.31-6.37,5.21-1.87-.45-1.73,1.08-2.08,2.48-.64,2.58-2.97,1.49-4.52,1.18-2.03-.41-1.37-2.03-.61-3.13,7.77-11.32,9.33-24.27,10.16-37.54,3.87,10.32,6.65,20.75,3.43,31.8ZM288.57,273.93c-6.6-7.83-14.7-14.32-16.83-25.25-3.31-16.97-9.01-33.32-14.45-49.73,18.05,21.82,31.64,45.47,31.28,74.98ZM275,208.35c-12.39-11.11-20.68-25.18-28.74-39.42,10.24,12.66,21.22,24.79,28.74,39.42ZM267.73,244.75c-10.25-18.57-16.88-38.51-22.35-58.9,13.74,17.21,16.77,38.55,22.35,58.9ZM117.16,189.66c2.74,16.18-6.84,27.87-12.35,40.83,1.62-14.17,7.32-27.07,12.35-40.83ZM117.71,230.36c-2.36,3.91-3.41,8.61-5.07,12.94-.41,1.08-.71,2.26-1.38,3.17-1.17,1.61-2.65,3.43-4.78,3.03-2.15-.4-1.88-2.84-2.41-4.52-.15-.47-.26-1-.18-1.47,2.02-11.54,7.81-21.51,12.64-32.68,3.91,7.09,5.1,12.98,1.17,19.52Z"/>
</svg>