<?xml version="1.0" encoding="utf-8"?>
<!-- Generator: Adobe Illustrator 24.0.1, SVG Export Plug-In . SVG Version: 6.00 Build 0)  -->
<svg version="1.1" id="Layer_1" xmlns="http://www.w3.org/2000/svg" xmlns:xlink="http://www.w3.org/1999/xlink" x="0px" y="0px"
	 viewBox="0 0 500 500" style="enable-background:new 0 0 500 500;" xml:space="preserve">
<path d="M99.6,427.9h0.9v-21.2c-61.1-37-71.9-121.8-20.9-172.7c41.2-41.2,107.4-43.3,151.2-4.7c25.3,22.3,38.9,54.5,37.2,88.2
	c0,1-0.1,1.9-0.2,2.9l26.3,39.7c2.6,4,0.5,9.4-4,10.6l0,0l-22.8,6.1v38.8c0,3.9-3.1,7-7,7h-59.8v5.3h2.5c23.9,0,36.3,29.1,19.1,46.2
	c-4.9,4.9-11.7,7.9-19.1,7.9h-97.7c-14.9,0-27.1-12.2-27.1-27.1v-5.8C78.3,437.4,87.9,427.9,99.6,427.9L99.6,427.9z M114.5,427.9
	h72.1v-12.2c0-3.9,3.1-7,7-7h59.8v-37.2l0,0c0-3.1,2.1-5.9,5.2-6.8l18.6-5L254.9,326l0,0c-1.8-2.7-1-5.5-0.8-9.2
	c2.6-54.5-40.6-101.2-96.4-101.2c-53.3,0-96.5,43.2-96.5,96.5c0,17.9,4.8,34.6,13.3,48.9c8.6,14.7,21.1,26.9,36,35.3
	c2.4,1.1,4.1,3.5,4.1,6.3V427.9z M203.1,441.9H99.6c-4,0-7.3,3.3-7.3,7.3c0,5.8-0.7,10.5,3.8,15.1c2.4,2.4,5.6,3.8,9.2,3.8h97.7
	c11.5,0,17.5-14,9.2-22.3C209.9,443.3,206.7,441.9,203.1,441.9L203.1,441.9z M373.9,204.1c1.9,3.3,0.8,7.6-2.6,9.5
	c-3.3,1.9-7.6,0.8-9.5-2.6l-35.7-61.8l0,0c-5-8.6-21.7,1.1-16.8,9.7h0c1.9,3.3,6.5,3.9,10.2,2.6c3.6-1.3,7.6,0.6,8.9,4.3
	c1.3,3.7-0.6,7.7-4.3,8.9c-10,3.5-21.6,0.5-26.9-8.8h0c-14.1-25.1,26.9-48,40.9-23.7v0L373.9,204.1z M381,141.8
	c-2.9,2.5-7.3,2.2-9.8-0.7c-2.5-2.9-2.2-7.3,0.7-9.9c2.9-2.5,4.7-6.7,2.8-10l0,0c-5-8.6-21.7,1.1-16.8,9.7h0l35.7,61.8
	c1.9,3.3,0.8,7.6-2.6,9.5c-3.3,2-7.6,0.8-9.5-2.5l-35.7-61.8l0,0h0c-8.8-15.1,3.7-30.8,18.5-33.6c8.5-1.6,17.3,0.9,22.5,9.9h0
	C392,123.7,389,134.9,381,141.8L381,141.8z M444.5,233.3c2.4,5.5,3.9,11.3,4.1,16.4c0.1,4.1-0.6,7.9-2.4,11.1
	c1,9.6,0.2,17.6-2.1,23.9c-4.4,12.4-14.8,18.5-27.8,16.1c-6.5-1.2-13.8-4.5-21.7-10.1c-3.7-0.1-7.3-1.3-10.9-3.5
	c-4.4-2.7-8.6-6.9-12.2-11.7c-19.5,5.2-36.4-21.7-25-37.6c-24.2-29-49.3-11.7-74.9-56.1c-11.3-19.6-13.6-41.9-8.2-62.1
	C275,76,319.9,50.1,363.6,61.8c20.1,5.4,38.1,18.3,49.4,37.7c0.2,0.3,0.5,0.7,0.6,1.1c14.3,25.1,11.7,40.4,9,55.9
	c-1.8,10.6-3.7,21.4,1.8,36.4C443.9,190.9,458.7,219,444.5,233.3L444.5,233.3z M370.4,260.8l0.2-0.1l0,0l62.2-35.9
	c8.5-4.9-1.3-22-9.8-17L360.1,244l0,0c-8.5,5,1.4,22,9.9,17.1L370.4,260.8z M434.6,250c-0.1-2.7-0.8-5.8-2-9l-48.4,28
	c2.2,2.8,8.6,9.2,12,7.3l37-21.3C434.2,254.2,434.7,252.3,434.6,250L434.6,250z M396.1,276.3L396.1,276.3L396.1,276.3l36.8-21.2
	L396.1,276.3z M357.6,229.3l53.9-31.1c-15.1-40.2,12.4-52-10.3-91.3c-18.8-32.5-60.4-43.6-92.7-24.9c-32.4,18.8-43.5,60.3-24.8,92.7
	C306.3,214.1,330.2,195.8,357.6,229.3L357.6,229.3z M410.5,284.1c13.9,7,21.1,2.7,22-12.7L410.5,284.1z M442.3,78
	c3.3-1.9,7.6-0.8,9.6,2.6c1.9,3.3,0.8,7.6-2.6,9.5L437,97.1c-3.3,1.9-7.6,0.8-9.5-2.6c-2-3.3-0.8-7.6,2.5-9.5L442.3,78z M245,208
	c-3.3,1.9-7.6,0.8-9.5-2.6c-2-3.3-0.8-7.6,2.5-9.5l12.3-7.1c3.3-1.9,7.6-0.8,9.6,2.6c1.9,3.3,0.8,7.6-2.6,9.5L245,208z M225.7,150
	c-3.9,0-7-3.1-7-7s3.1-7,7-7h14.2c3.9,0,7,3.1,7,7s-3.1,7-7,7H225.7z M238,90c-3.3-1.9-4.5-6.2-2.6-9.5c1.9-3.3,6.2-4.5,9.5-2.6
	l12.3,7.1c3.3,1.9,4.5,6.2,2.6,9.5c-1.9,3.3-6.2,4.5-9.5,2.6L238,90z M279.6,46c-1.9-3.3-0.8-7.6,2.6-9.6c3.3-1.9,7.6-0.8,9.5,2.6
	l6.2,10.7c1.9,3.3,0.8,7.6-2.5,9.6c-3.3,1.9-7.6,0.8-9.6-2.6L279.6,46z M336.7,25c0-3.9,3.1-7,7-7c3.9,0,7,3.1,7,7v14.2
	c0,3.9-3.1,7-7,7c-3.9,0-7-3.1-7-7V25z M396.6,37.3c1.9-3.3,6.2-4.5,9.6-2.6c3.3,2,4.5,6.2,2.5,9.6l-7.1,12.3
	c-1.9,3.3-6.2,4.5-9.5,2.6c-3.3-2-4.5-6.2-2.6-9.6L396.6,37.3z M189.6,85.9c3.9,0,7,3.1,7,6.9c0,3.9-3.1,7-6.9,7l-60.7,0.5
	c-13.5,0.1-24.6,11.2-24.6,24.8v27.2l2.8-4.9c1.9-3.3,6.2-4.5,9.5-2.6c3.3,1.9,4.5,6.2,2.6,9.5L104,181c-2.9,5.3-9.7,4.9-12.3,0.4
	l-15.5-26.9c-1.9-3.3-0.8-7.6,2.6-9.5c3.3-2,7.6-0.8,9.6,2.5l2.2,3.7v-26c0-21.2,17.2-38.6,38.5-38.8L189.6,85.9z M380.9,370.9
	c-1.9,3.3-6.2,4.5-9.5,2.6c-3.3-1.9-4.5-6.2-2.6-9.5l15.5-26.9c2.6-4.5,9.4-4.9,12.3,0.4l15.3,26.5c1.9,3.3,0.8,7.6-2.6,9.5
	c-3.3,1.9-7.6,0.8-9.5-2.6l-3-5.2v40.3c0,21.4-17.4,38.8-38.8,38.8h-49.5c-3.9,0-7-3.1-7-7c0-3.9,3.1-7,7-7h49.5
	c13.7,0,24.8-11.1,24.8-24.8v-38.4L380.9,370.9z"/>
</svg>
