<?xml version="1.0" encoding="iso-8859-1"?>
<!-- Generator: Adobe Illustrator 26.1.0, SVG Export Plug-In . SVG Version: 6.00 Build 0)  -->
<svg version="1.1" id="Layer_1" xmlns="http://www.w3.org/2000/svg" xmlns:xlink="http://www.w3.org/1999/xlink" x="0px" y="0px"
	 viewBox="0 0 2450 2450" style="enable-background:new 0 0 2450 2450;" xml:space="preserve">
<g>
	<path d="M1575.132,1145.371c-12.587,22.394-21.833,46.044-24.907,71.802c-0.696,5.834-2.351,9.653-7.393,13.421
		c-14.519,10.849-28.103,22.941-42.431,34.057c-4.008,3.11-4.134,6.681-3.38,10.4c2.664,13.135-2.29,22.641-12.686,30.378
		c-6.237,4.641-11.799,10.19-18.223,15.82c-1.331-9.956-2.865-20.322-4.078-30.725c-2.466-21.157-5.015-42.31-7.001-63.514
		c-0.809-8.631-7.619-12.596-12.343-18.064c-6.127-7.092-11.013-18.92-19.3-19.55c-8.295-0.631-14.61,10.59-21.835,16.556
		c-7.558,6.242-15.664,11.963-20.943,20.705c-4.522-2.221-4.216-6.66-5.302-10.075c-6.097-19.172-12.769-38.229-17.517-57.745
		c-4.721-19.407-14.294-35.365-27.714-49.756c-12.642-13.556-24.699-27.678-36.582-41.911c-4.79-5.738-8.329-6.031-14.418-1.456
		c-35.293,26.518-70.918,52.595-107.262,79.435c-4.141-17.148-5.563-34.568-7.793-51.834c-2.021-15.652-3.774-31.344-5.342-47.048
		c-0.41-4.108-1.436-7.557-4.178-10.709c-20.139-23.143-40.188-46.364-62.237-71.84c-3.244,61.158-6.354,119.78-9.571,180.435
		c-8.894-7.753-14.729-14.638-14.523-24.931c0.527-26.376-10.993-47.087-28.504-66.034c-13.582-14.696-25.042-31.352-38.967-49.075
		c-5.28,31.069-5.531,60.692-10.278,90.38c-11.191-19.152-30.065-33.383-28.289-60.144c2.085-31.416,0.119-63.109-0.341-94.678
		c-0.096-6.574,0.407-13.328-2.264-20.895c-11.374,7.535-22.265,14.749-35.621,23.597c0-12.781,0.036-23.239-0.008-33.698
		c-0.082-19.733-1.11-39.515-0.035-59.184c0.874-16.01-4.476-28.71-13.309-41.557c-18.262-26.562-35.298-53.966-54.739-83.955
		c-0.434,9.222-0.871,15.628-1.017,22.04c-2.449,107.338-1.026,214.692-1.291,322.039c-0.193,78.144-0.179,156.289,0.15,234.432
		c0.039,9.195-2.413,11.162-10.515,7.526c-19.431-8.721-38.967-17.209-58.395-25.939c-58.404-26.245-118.58-47.628-180.147-65.042
		c-8.197-2.318-10.251-5.846-10.146-13.829c0.368-28.015,0.298-56.045-0.23-84.058c-0.601-31.837-12.861-56.609-44.321-68.659
		c-3.354-1.285-5.303-2.913-5.669-6.566c-0.274-2.734-1.061-5.417-1.604-8.125c-7.499-37.36-25.816-63.93-69.542-66.949
		c16.551-13.213,34.131-16.241,52.253-16.943c7.829-0.303,16.123-0.318,23.493,1.904c11.556,3.483,12.024-1.489,11.603-10.711
		c-1.403-30.789-0.622-61.548,3.455-92.159c18.246-137.013,68.909-259.825,158.478-366.135
		c93.241-110.667,212.232-178.442,351.699-211.146c190.672-44.711,364.693-3.091,522.968,108.148
		c95.424,67.066,164.01,157.25,212.795,262.778c43.495,94.086,63.509,192.845,59.04,296.496
		c-0.627,14.537-0.465,14.067,13.651,12.393c25.543-3.03,50.338-1.2,72.623,13.648c-0.469,0.957-0.736,2.065-1.058,2.081
		c-46.184,2.279-59.705,32.174-65.944,66.109c-1.685,9.168-4.17,14.7-13.61,18.738c-22.628,9.681-32.707,29.403-33.9,52.829
		c-1.443,28.35-1.099,56.805-1.087,85.214c0.087,210.358,0.317,420.716,0.417,631.074c0.018,37.9-2.054,75.728-4.302,113.557
		c-1.924,32.377-11.168,62.613-26.228,94.369c18.415-12.304,33.962-23.728,48.179-36.909c3.966-3.677,2.508-8.929,2.656-13.516
		c3.313-102.947,6.42-205.901,9.815-308.846c1.248-37.856,2.179-75.74,5.595-113.493c0.268-2.957,0.707-5.899,1.79-8.853
		c5.719,32.265,9.683,64.668,13.008,97.17c8.471,82.796,17.152,165.571,25.636,248.366c0.474,4.63,2.777,8.093,5.259,11.646
		c10.613,15.194,20.663,30.822,31.998,45.456c8.982,11.596,8.098,25.335,10.212,38.237c4.558,27.823,9.749,55.119,29.162,78.515
		c5.127-7.454,8.62-15.51,12.357-24.734c7.553,15.489,11.892,31.352,21.921,46.774c7.499-14.068,14.101-26.455,21.207-39.786
		c7.527,18.834,13.14,37.535,16.797,56.703c1.762,9.238,5.832,14.084,14.93,17.025c29.248,9.45,58.206,19.799,87.244,29.892
		c5.003,1.739,9.852,3.923,14.178,8.393c-174.903,0-349.805,0-524.708,0c34.737-15.795,71.88-23.028,108.012-34.52
		c-111.868-9.642-223.884-3.597-335.963-7.633c82.383-27.002,167.732-43.948,248.936-75.519
		c-98.124-6.991-196.528-5.77-294.631-14.069c79.068-18.532,159.49-28.477,238.908-45.358
		c-92.968-10.886-186.401-15.795-279.734-22.874c114.071-18.752,229.36-25.488,344.106-37.484
		c-132.99-5.268-266.043-3.553-399.098-8.294c81.609-16.745,164.371-26.151,245.869-44.887
		c-27.673-3.762-55.346-7.524-83.019-11.286c70.887-15.864,144.009-17.13,215.337-31.357c-142.264-4.974-284.585-2.539-427.132-7.94
		c15.661-2.949,31.297-6.034,46.988-8.812c20.189-3.574,40.398-7.044,60.65-10.238c5.209-0.822,8.161-3.639,11.216-7.595
		c11.329-14.67,23.006-29.074,34.709-43.45c2.139-2.627,4.502-6.539,8.536-5.023c4.369,1.642,2.175,6.203,2.239,9.391
		c0.265,13.26,0.111,26.528,0.111,41.621c25.689-11.324,49.347-21.892,73.149-32.126c4.697-2.02,4.749-5.688,5.369-9.551
		c3.251-20.25,8.486-40.415,9.311-60.76c0.928-22.876,14.996-33.866,32.936-45.549c3.685,29.87,0.697,58.999,5.362,89.208
		c19.315-12.343,37.815-24.156,56.298-35.993c1.659-1.063,3.059-2.694,4.841-3.376c24.501-9.364,31.448-27.88,30.173-52.71
		c-0.987-19.224,1.537-38.613,2.041-57.94c0.153-5.889,2.405-9.079,7.436-12.004c12.93-7.519,29.046-13.185,37.106-24.446
		c8.206-11.464,3.402-29.112,2.774-43.856c-0.938-22.022,3.183-41.987,15.626-60.182c2.819-4.123,3.004-8.788,2.965-13.611
		c-0.24-29.203-0.183-58.41-0.666-87.608c-0.082-4.938,1.332-7.851,5.017-10.911c10.014-8.313,19.213-17.647,29.522-25.55
		c7.948-6.093,11.224-12.824,10.988-22.999c-1.055-45.368-1.753-90.754-1.705-136.133c0.016-15.465-7.033-26.81-17.587-40.312
		c-0.977,12.776-2.072,23.091-2.503,33.434c-1.791,42.977-3.511,85.958-4.905,128.948c-0.208,6.401-1.575,11.616-6.734,15.454
		c-31.788,23.65-42.747,55.355-36.904,93.888c0.994,6.557-0.472,13.459,0.227,20.094c1.404,13.33-1.62,24.817-11.808,33.974
		c-4.519,4.061-5.18,9.241-5.113,15.048c0.191,16.572-0.249,33.152-0.065,49.724c0.059,5.323-1.698,8.367-6.331,11.337
		c-13.605,8.724-26.616,18.369-40.054,27.363c-5.714,3.824-8.186,8.605-8.982,15.527c-1.833,15.94-4.715,31.759-8.62,47.555
		c-4.898-76.396-2.946-152.813-3.288-229.183c-0.344-76.899-0.076-153.8-0.076-230.701
		C1577.383,1145.698,1576.258,1145.534,1575.132,1145.371z M1583.658,753.94c0.162-112.471-89.724-203.405-201.454-203.804
		c-113.754-0.406-204.733,89.605-204.913,202.734c-0.18,112.877,90.032,203.629,202.657,203.872
		C1492.753,956.986,1583.496,866.647,1583.658,753.94z M664.734,1058.721c-5.495-40.537-3.754-81.207-3.669-121.775
		c0.194-92.888,18.1-182.13,60.54-265.141c94.914-185.648,246.387-292.813,454.254-309.472
		c172.35-13.813,319.861,48.311,439.161,173.454c80.893,84.855,129.329,187.157,148.212,302.478
		c11.132,67.987,7.001,136.969,4.798,205.607c-0.101,3.158-0.013,6.322-0.013,9.483c4.26-5.204,6.709-10.525,8.763-15.994
		c28.249-75.207,32.581-152.171,16.543-230.536c-53.247-260.176-259.702-451.658-519.552-480.321
		c-106.352-11.731-208.537,6.421-305.264,52.077c-129.224,60.996-223.035,158.032-284.105,286.509
		c-44.765,94.174-65.573,193.193-51.389,297.706C637.583,996.464,648.007,1028.648,664.734,1058.721z M900.505,593.877
		c37.113,1.653,47.485,25.405,51.156,56.411c2.818-31.798,14.597-54.264,51.221-57.169c-40.706-3.677-47.266-32.411-51.497-63.755
		C948.733,561.864,938.832,587.775,900.505,593.877z M1806.441,1925.009c-0.521,0.036-1.043,0.071-1.564,0.107
		c-6.272,18.185-12.55,36.367-18.811,54.556c-1.672,4.858-3.465,9.449-7.65,13.02c-12.889,10.998-25.638,22.168-38.196,33.543
		c-7.007,6.348-13.698,13.071-20.215,19.926c-6.219,6.541-12.026,13.472-18.014,20.232c33.665-14.587,63.663-34.004,92.997-54.527
		c3.79-2.651,4.05-6.551,4.415-10.448C1801.786,1975.952,1804.102,1950.48,1806.441,1925.009z M1007.583,494.543
		c31.288,1.76,36.287,24.065,41.216,47.838c2.573-25.37,11.013-44.654,40.264-47.572c-30.22-4.096-36.525-25.378-40.543-49.265
		C1044.119,469.423,1036.651,490.064,1007.583,494.543z M1737.417,1545.325c-7.837,13.888-16.189,27.516-23.364,41.738
		c-7.099,14.073-18.751,26.143-17.239,44.12c1.308,15.545,0.272,31.288,0.272,46.943
		C1715.926,1635.322,1727.749,1590.789,1737.417,1545.325z M1457.505,1132.078c25.736,1.7,30.994,19.382,34.328,39.336
		c2.3-19.536,8.822-35.184,31.276-40.664c-22.717-3.723-28.463-19.744-31.974-38.709
		C1489.765,1113.582,1478.204,1125.823,1457.505,1132.078z M1217.741,518.851c4.053-16.945,10.863-29.635,30.055-31.837
		c-20.524-3.89-27.041-17.755-29.099-35.901c-2.35,19.048-12.927,30.318-31.405,36.1
		C1204.959,490.933,1216.108,499.651,1217.741,518.851z M784.116,950.786c-4.73,16.886-11.956,27.424-27.633,30.511
		c16.048,2.844,23.747,12.452,27.152,30.235c3.852-16.43,9.727-27.161,24.771-30.055
		C793.706,977.623,787.677,967.124,784.116,950.786z M1055.778,811.209c2.928-10.859,10.075-17.26,20.393-21.628
		c-12.611-1.894-15.813-11.841-21.429-23.116c-1.6,14.048-10.82,18.608-22.966,23.883
		C1046.471,792.226,1051.514,800.677,1055.778,811.209z M1697.359,942.153c-12.166-2.69-15.558-12.728-20.351-25.042
		c-3.114,14.078-10.733,20.596-21.328,25.794c13.953,0.878,17.68,10.269,20.414,23.106
		C1680.276,953.56,1685.187,944.78,1697.359,942.153z M1676.017,830.48c-10.844-2.21-14.575-10.552-18.924-20.031
		c-3.29,10.445-9.077,16.827-21.323,20.52c12.783,1.688,18.212,7.765,21.18,18.205
		C1660.881,839.11,1666.707,833.225,1676.017,830.48z M1120.406,591.56c3.082-8.317,7.072-14.635,17.358-17.191
		c-8.738-5.015-12.402-12.09-17.207-21.171c-2.881,11.37-8.48,17.468-18.883,21.904
		C1112.536,577.259,1117.58,582.957,1120.406,591.56z M1037.529,679.299c11.03,2.61,18.247,7.195,21.736,17.002
		c1.978-8.849,8.158-12.543,15.297-17.32c-8.217-3.985-12.191-10.57-16.638-18.429
		C1055.237,671.229,1047.53,675.092,1037.529,679.299z M787.597,831.999c-9.934-1.508-11.091-8.625-15.72-14.239
		c-2.903,7.491-7.825,11.895-15.201,15.757c8.336,2.035,11.856,7.103,14.915,13.844C775.143,840.94,778.779,836.006,787.597,831.999
		z M1627.308,1073.315c3.694-7.243,7.227-11.803,14.046-15.013c-7.5-2.894-9.209-9.971-15.124-14.548
		c-1.568,7.279-10.069,10.297-10.139,14.494C1616.012,1062.91,1625.12,1065.093,1627.308,1073.315z"/>
	<path d="M1044.285,1561.767c-8.571-12.084-9.848-23.83-10.26-35.499c-0.983-27.884,8.272-52.689,28.48-71.474
		c13.01-12.094,13.77-28.831,21.883-42.536c2.735-4.62-2.403-4.47-5.332-4.679c-14.45-1.032-27.102,4.089-38.987,11.649
		c-2.592,1.649-5,3.589-8.088,4.462c21.772-54.534,70.781-65.161,122.198-74.181c-13.056-6.207-25.955-7.471-38.698-9.47
		c-9.349-1.467-18.627-3.38-27.95-5.023c-51.698-9.112-77.719-42.675-87.401-91.778c-0.646-3.277-0.955-6.62-1.686-11.826
		c28.888,25.469,43.825,65.283,87.974,71.454c-11.182-16.702-21.56-32.202-31.938-47.702c32.226,15.745,56.617,43.841,92.881,52.092
		c-19.952-19.835-39.921-39.28-47.747-70.255c29.781,31.857,67.128,49.892,98.748,75.656c11.85,9.655,25.538,17.083,38.562,25.249
		c3.199,2.006,7.154,5.188,10.87,2.888c4.725-2.924,1.502-7.898,1.045-11.943c-0.387-3.423-1.503-6.764-2.867-12.57
		c19.104,14.183,27.863,32.045,33.152,52.056c1.729,6.541,3.251,13.028,8.592,17.78c10.293,9.158,15.634,7.982,21.338-4.494
		c1.066-2.332,0.521-5.693,3.791-6.851c18.151,34.418,5.029,97.726-46.407,97.74c5.496-6.157,11.019-11.833,10.272-20.118
		c-0.762-8.459-5.975-14.476-12.109-19.621c-12.802-10.737-27.32-9.944-39.004,2.066c-3.195,3.284-4.879,8.237-10.233,1.424
		c-4.896-6.23-9.98-1.559-13.704,2.74c-7.481,8.637-6.386,17.685,0.546,27.004c-21.938-5.962-25.935-23.975-12.339-51.049
		c-15.627-1.286-28.604,6.561-35.632,23.14c-11.096,26.175-10.264,53.402-3.26,80.168c8.076,30.866,19.119,60.977,26.717,91.944
		c19.651,80.101,7.243,154.976-39.755,223.446c-19.317,28.142-36.498,57.222-41.802,91.765c-4.529,29.492-5.168,58.912,0.886,88.289
		c1.373,6.662,2.141,13.465,12.086,11.422c3.675-0.755,6.533,2.302,8.988,4.94c2.687,2.888,5.247,5.893,7.939,8.775
		c5.684,6.084,11.938,14.428,19.323,14.643c8.022,0.235,7.961-11.509,11.792-17.705c4.115-6.654,7.096-7.582,13.223-2.809
		c6.509,5.07,13.546,9.567,20.739,13.63c19.409,10.964,36.516,8.751,52.528-6.935c10.734-10.517,21.995-20.352,33.86-29.557
		c5.28-4.096,8.277-5.197,10.029,3.158c2.094,9.984,5.919,19.593,8.286,29.534c1.668,7.008,4.848,9.74,12.448,11.06
		c42.723,7.421,84.7,18.355,126.828,28.543c1.059,0.256,1.974,1.109,2.891,4.905c-40.898,0-81.796-0.041-122.694,0.011
		c-41.478,0.053-82.781,1.693-125.704,14.735c71.462,24.454,143.047,38.692,212.824,60.145
		c-112.194,5.143-224.289,0.173-336.588,2.075c41.563,8.675,83.126,17.349,124.689,26.024c-0.132,1.035-0.265,2.071-0.397,3.106
		c-189.476-2.279-378.96-0.633-571.731-1.531c15.358-10.716,29.978-15.872,43.042-25.674c-130.473,0-260.946,0-391.419,0
		c22.078-13.126,45.503-20.954,68.644-29.467c10.724-3.945,21.515-7.803,32.497-10.92c7.891-2.24,11.265-7.05,13.176-14.709
		c5.907-23.674,12.471-47.184,19.494-73.429c8.595,17.94,16.095,33.594,23.72,49.51c32.472-29.419,30.187-72.685,45.846-109.061
		c11.208,17.995,23.678,35.612,30.604,55.617c9.977,28.817,32.898,41.411,60.33,53.605c-11.047-21.678-22.804-40.615-31.412-63.647
		c19.62,7.55,37.532,14.259,55.301,21.326c23.853,9.486,47.957,18.102,73.319,22.651c17.139,3.074,19.247,1.449,20.78-15.273
		c0.901-9.823,3.233-19.729,2.55-29.431c-0.945-13.429,4.905-20.579,16.161-26.549c29.837-15.827,55.251-37.664,79.783-61.942
		c3.69,7.162,3.22,12.464-2.602,17.881c-6.915,6.434-12.982,13.77-19.565,20.572c-5.749,5.939-9.59,12.301-7.615,21.121
		c1.464,6.539-2.959,9.798-7.847,13.078c-17.099,11.473-17.507,42.459-1.03,55.628c4.852,3.878,10.478,4.088,15.672,2.4
		c4.755-1.544,2.671-6.81,3.046-10.458c1.859-18.077,2.568-36.226,2.075-54.384c-0.162-5.956,1.525-10.343,5.753-14.637
		c10.239-10.397,19.777-21.484,29.966-31.933c3.772-3.868,4.976-7.315,3.173-12.58c-4.077-11.9-7.558-24.004-11.265-35.969
		c-48.65,46.928-101.175,85.822-170.997,93.684c-98.235,11.062-149.853-58.706-157.127-126.132
		c-2.115-19.604-2.781-39.359-4.54-59.006c-7.664-85.619-72.582-128.945-154.884-103.381c-26.411,8.203-49.117,23.079-70.552,40.115
		c-2.391,1.9-4.824,3.747-9.358,7.263c7.716-22.547,19.942-38.722,35.14-53.244c59.428-56.782,159.745-60.616,220.956-7.769
		c23.132,19.972,36.179,46.288,44.781,75.195c6.546,21.996,8.317,44.99,14.515,67.015c8.993,31.958,26.373,55.389,62.089,59.839
		c7.585,0.945,14.943,0.14,22.356-1.077c27.776-4.56,63.193-24.594,81.426-46.482c-10.286-2.844-19.342-0.788-28.494,4.682
		c7.568-21.439,28.64-35.801,55.423-37.203c21.642-1.133,33.304-17.923,48.276-29.397c4.471-3.426-0.765-4.933-3.676-5.5
		c-11.297-2.203-21.925,0.004-34.637,7.236c8.396-18.458,20.874-27.696,36.776-33.025c8.29-2.778,16.987-3.502,25.658-4.097
		c32.263-2.213,40.897-5.118,70.585-24.119c-15.343-13.122-32.844-13.634-53.288-9.819c7.398-9.851,15.842-15.062,24.922-18.97
		c19.277-8.298,39.498-11.661,60.162-7.031c16.611,3.722,32.835,2.818,50.607-0.715c-8.295-15.534-21.901-22.895-39.939-28.496
		c22.214-5.787,41.155-8.233,60.682,6.297c-2.595-8.516-6.131-13.993-10.171-19.007c-27.414-34.019-61.323-58.712-103.257-72.074
		c-8.727-2.781-12.226-1.54-11.443,8.426c0.864,10.985,0.357,22.072,0.781,33.101c0.204,5.328-1.312,8.17-6.739,10.483
		c-36.758,15.665-55.681,45-61.616,83.425c-1.069,6.921-3.306,9.942-10.255,11.727c-34.117,8.762-59.032,28.951-73.294,61.533
		c-1.52,3.471-3.571,5.729-7.16,7.244c-18.706,7.897-32.755,21.514-45.291,37.078c-7.168,8.899-14.81,17.43-22.505,25.884
		c-3.172,3.484-6.953,6.56-11.938,7.206c-14.512,1.88-19.763-2.574-19.784-17.14c-0.17-117.589-0.403-235.177-0.149-352.765
		c0.018-8.335-3.062-12.026-9.849-14.996c-37.635-16.47-76.251-17.762-115.883-8.755c-30.629,6.961-59.011,19.744-87.643,32.004
		c-2.745,1.175-5.17,3.848-9.917,1.889c8.862-13.287,19.605-24.435,31.051-34.87c18.38-16.756,36.49-33.722,52.806-52.574
		c43.359-50.096,41.914-108.452-4.375-155.938c-34.808-35.708-77.259-59.523-122.972-78.138c-3.98-1.621-7.976-3.2-14.573-5.844
		c12.855-2.836,23.09-1.406,33.199-0.246c58.685,6.734,115.162,23.019,171.183,40.803c90.03,28.579,177.241,64.075,260.048,109.788
		c25.861,14.276,52.303,27.58,76.994,43.929c1.179,0.781,2.648,1.126,4.647,0.835c-17.039-19.837-36.138-37.451-55.486-54.922
		c40.697,18.119,79.425,39.781,118.002,61.736c16.098,9.161,32.139,18.434,48.461,27.182c9.69,5.194,12.6,11.177,9.427,22.677
		c-21.218,76.905,10.264,135.179,67.127,183.658c13.324,11.359,14.614,10.31,20.648-6.654c9.644-27.113,6.159-54.432,1.828-81.84
		c-1.227-7.766-4.899-6.51-9.67-3.36C1050.716,1528.453,1046.366,1538.929,1044.285,1561.767z M813.297,2015.919
		c1.507,7.324,3.273,14.146,6.608,20.511c6.174,11.786,12.103,23.452,29.135,18.985c4.129-1.083,8.507,1.011,11.997,3.961
		c2.432,2.054,4.823,3.463,8.49,2.938c22.607-3.236,45.26-6.15,67.894-9.201c6.112-0.824,9.881-3.246,6.286-10.104
		c-3.167-6.042-2.577-11.939-0.282-18.185c3.011-8.196,3.962-16.871,4.256-25.571c1.29-38.223,1.76-76.512,9.164-114.24
		c1.191-6.067-0.158-9.007-7.14-7.614c-10.43,2.081-20.914,3.992-31.453,5.385c-6.288,0.831-8.454,4.285-9.474,9.975
		c-3.892,21.719-9.166,43.259-11.714,65.123c-1.385,11.881-6.028,16.817-17.085,19.469c-19.612,4.704-38.305,12.259-55.23,23.447
		C819.292,2004.406,813.481,2008.414,813.297,2015.919z M697.227,1523.47c2.579-0.877,3.737-1.005,4.572-1.594
		c41.359-29.164,87.528-48.014,135.351-63.389c11.239-3.613,22.308-7.766,33.406-11.803c4.412-1.605,7.111-5.109,8.042-9.552
		c1.16-5.533-4.108-6.236-7.212-7.863c-26.144-13.704-51.641-28.504-79.13-39.778c-57.708-23.667-116.726-32.128-178.206-19.864
		c-16.565,3.304-32.754,7.989-48.129,15.505c85.962-4.955,167.665,10.239,249.039,46.955
		C763.886,1450.143,726.401,1480.161,697.227,1523.47z M1024.812,1890.929c-21.746,41.858-29.549,86.102-25.069,132.625
		c0.288,2.987,1.424,5.924,4.653,5.894c12.525-0.116,17.206,9.75,23.217,17.824c3.201,4.3,6.51,8.867,12.354,6.745
		c5.469-1.986,2.77-7.558,2.743-11.47C1042.35,1991.463,1029.351,1941.805,1024.812,1890.929z M933.192,1562.781
		c-8.958-23.204-18.856-45.766-31.279-67.139c-2.718-4.677-6.363-6.833-11.787-4.347c-5.517,2.529-9.558,6.119-7.581,12.768
		c1.446,4.863,3.36,9.681,5.753,14.151C898.621,1537.494,914.972,1550.936,933.192,1562.781z"/>
</g>
</svg>
