<?xml version="1.0" encoding="utf-8"?>
<!-- Generator: Adobe Illustrator 24.0.0, SVG Export Plug-In . SVG Version: 6.00 Build 0)  -->
<svg version="1.1" id="icon" xmlns="http://www.w3.org/2000/svg" xmlns:xlink="http://www.w3.org/1999/xlink" x="0px" y="0px"
	 viewBox="0 0 340 340" style="enable-background:new 0 0 340 340;" xml:space="preserve">
<g>
	<path d="M105.9,163.8c-10.7-7.9-23.4-11.5-23.9-11.7c-1.8-0.6-4.5,0.3-4.5,3.4v27.3c0,1.5,1,2.9,2.5,3.4
		c12.2,3.6,21.6,10.5,21.7,10.5c3,1.6,5.6-0.5,5.6-2.8v-27.1C107.3,165.5,106.8,164.5,105.9,163.8z M100.3,187.4
		c-3.8-2.2-9.4-5.1-15.8-7.2v-19.8c4,1.5,10.1,4.2,15.8,8.1V187.4z"/>
	<path d="M80.2,83.8c1.1,0.2,3.8,0.9,4.1,0.9c4,0,4.8-5.9,0.9-6.9c-1.2-0.3-2.3-0.6-3.5-0.9C77.2,76.1,75.7,82.7,80.2,83.8z"/>
	<path d="M104.2,92.5c22.5,10,38.6,27.4,38.8,27.5c0.7,0.8,3.2,1.6,4.9,0.2c1.5-1.2,1.5-3.5,0.2-4.9c-0.7-0.8-17.2-18.6-41.1-29.2
		C102.8,84.3,100.1,90.5,104.2,92.5z"/>
	<path d="M80.2,109.7c35.2,8,62.5,36,62.8,36.3c2.1,1.9,4.2,0.9,4.9,0.1c1.3-1.4,1.4-3.6,0.1-4.9c-1.2-1.2-29-29.8-66.3-38.2
		C77.3,102,75.7,108.6,80.2,109.7z"/>
	<path d="M81.8,128.7c-4.5-0.9-6,5.7-1.5,6.8c35.2,8,62.6,36,62.8,36.3c0.7,0.7,3.2,1.6,4.9,0.1c1.5-1.2,1.4-3.6,0.1-4.9
		C146.9,165.7,119.1,137.2,81.8,128.7z"/>
	<path d="M122.7,172.6c-4.1-2.1-7.4,3.8-3.4,6.1c12.5,6.9,23.6,18.8,23.7,18.9c0.7,0.7,3.3,1.7,4.9,0.2c1.4-1.3,1.5-3.5,0.2-4.9
		C147.7,192.3,136.2,180,122.7,172.6z"/>
	<path d="M122.7,198.4c-4.1-2.1-7.4,3.8-3.4,6.1c12.5,6.9,23.6,18.8,23.7,18.9c0.7,0.7,3.3,1.7,4.9,0.2c1.4-1.3,1.5-3.5,0.2-4.9
		C147.7,218.2,136.2,205.9,122.7,198.4z"/>
	<path d="M331.1,110.9c-20.2-10.1-40.5-15.1-59.1-17c-2.1-0.2-3.9,1.4-3.9,3.5c0,1.8,1.3,3.3,3.1,3.5c17.3,1.8,36.1,6.3,54.8,15.4
		v178.7c-56.7-25.2-111-16.4-153,0.1V116.3c4.6-2.4,29.4-11.6,51.3-14.4c1.7-0.2,3-1.7,3-3.5c0-2.1-1.9-3.8-4-3.5
		c-21.9,2.8-46.4,11.6-52.3,14.5C147.5,73.1,110,45,45,39.2c-1-0.1-3.8,0.5-3.8,3.5v56c-5.9,1.6-20.6,6-32.4,12.3
		C7.7,111.5,7,112.7,7,114v215.8c0,2.5,2.2,3.9,4.5,3.5c86.6-24.2,145.2-3.1,158.1-0.1c12.9-3,72.5-24.1,159,0.1
		c2.9,0.5,4.5-0.9,4.5-3.5V114C333,112.7,332.3,111.5,331.1,110.9z M14,116.2c9.7-4.8,21.2-8.4,27.3-10.2v122.8
		c0,1.8,1.4,3.4,3.2,3.5c59.4,5.4,92.7,28.9,116.5,60.7c-43.5-15.3-90.4-22.4-147,1.9V116.2z M166,325.1c-44-12.3-88.6-15.5-152,0.3
		v-7.5c68-29.7,141.1-4.2,152-0.1V325.1z M166,310.4c-40.9-14-97.5-22.2-152-0.1v-7.7c54.7-26.5,113.4-16.7,152,0V310.4z M166,288
		c-4.5-6.4-36.4-56.5-117.8-62.4V46.5c59.8,5.7,98.1,35.3,117.8,68.4V288z M326,325.4c-53-15.5-117.2-11.5-153-0.3v-7.2
		c10.3-3.9,84.6-29.9,153,0V325.4z M326,310.3c-54.4-22.2-112.2-13.8-153,0.2v-7.7c12.5-5.6,83.1-33.9,153-0.1V310.3z"/>
	<path d="M216.2,50.3c-0.4,1.2-0.2,2.5,0.6,3.4l10.9,13.4l-6.1,16.2c-0.9,2.2,0.9,4.8,3.3,4.7c-0.2,0.4,12.1-3.6,12.4-3.6l-1.2,48.6
		l-4.8,6.4c-7,9.8-5.6,18.2,0.7,21.8c-4.1,7.1-4.5,16.9,2.9,22.8l-0.8,34.4c-0.2,5.5,3.9,11,9.4,10.9h8.7c5.6,0,9.7-5.4,9.4-10.9
		c-0.1-0.2-1.3-58.2-1.5-58.4l5.9-7.6c4.9-5.5,9-17.6,1.8-23.8c3.4-7.2,1.8-18-8.9-18.9l-0.6-25.3l11.3,3.5c2.7,0.9,5.4-2,4.3-4.6
		c0,0-6.1-16.2-6.1-16.2l10.9-13.4c0.8-1,1-2.3,0.6-3.4s-1.5-2-2.7-2.2l-16.8-2.8l-9.1-13.8c-0.6-1-1.7-1.6-2.9-1.6
		s-2.3,0.6-2.9,1.6l-9.1,13.8l-16.8,2.8C217.7,48.3,216.7,49.1,216.2,50.3z M261.9,119c1.3,4.4-1.4,8.3-1.6,8.6l-14.6,17.5
		c-1.9,2.2-0.2,5.8,2.7,5.7c1,0,2-0.4,2.7-1.3l12.6-15.1c2.4,3.8,0.2,9.3-3.3,13.6c0,0-15.1,19.5-15.1,19.5
		c-2.7,3.7,2.6,7.9,5.5,4.3l2.4-3.1l1.2,49.8c0,1.7-0.6,3.5-2.4,3.7c0,0-8.7,0-8.7,0c-1.8-0.2-2.4-2.1-2.4-3.7
		c0-0.4,0.9-35.4,0.8-35.8c0.1-1.2-0.3-2.5-1.4-3.2c-8.9-5.9-1.9-16.5,0.5-19.2c2.5-2.8-0.8-7.1-4.2-5.4c-1.1,0.5-1.8,0-2.2-0.5
		c-1.4-1.7-1.3-5.8,2.4-10.8l19.7-26.4C258,115.8,261.6,117.5,261.9,119z M243.3,123.4l1-41.1l3.4-1l3.4,1l0.7,29.8
		C251.7,111.9,243.6,123,243.3,123.4z M238.4,51.9c1-0.2,1.8-0.7,2.3-1.5l7-10.6l7,10.6c0.5,0.8,1.4,1.4,2.3,1.5l12.4,2.1l-8.3,10.3
		c-0.8,1-1,2.3-0.6,3.4l4.3,11.5l-16.1-4.9c-0.3-0.1-1-0.4-2,0l-16.1,4.9l4.3-11.5c0.4-1.2,0.2-2.5-0.6-3.4L226,54L238.4,51.9z"/>
	<path d="M212.7,182.2c-0.3-4.3-6.6-4.4-7-0.1c-1.3,17.6-12.8,21.9-13.3,22.1c-3.2,1-3.1,5.7,0,6.6c0.1,0,12.1,4.1,13.3,22
		c0.3,4.3,6.5,4.4,7,0.1c1.5-18.2,12.7-22,13.2-22.1c3.3-0.9,3.3-5.7,0.1-6.7C225.4,204,213.7,200,212.7,182.2z M209.3,218.3
		c-2.5-5.2-5.8-8.6-8.7-10.8c2.8-2.2,6.1-5.5,8.6-10.7c2.4,5.2,5.7,8.6,8.6,10.7C214.9,209.7,211.7,213.1,209.3,218.3z"/>
	<path d="M291.6,176.4c0.3,4.3,6.5,4.4,7,0.1c1.5-18.2,12.7-22,13.2-22.1c3.3-0.9,3.3-5.7,0.1-6.7c-0.5-0.2-12.2-4.2-13.2-22
		c-0.3-4.3-6.6-4.4-7-0.1c-1.3,17.6-12.8,21.9-13.3,22.1c-3.1,1-3.1,5.7,0,6.6C278.8,154.6,290.5,158.7,291.6,176.4z M295,140.4
		c2.4,5.2,5.7,8.6,8.6,10.7c-2.8,2.1-6,5.5-8.5,10.8c-2.5-5.2-5.8-8.6-8.7-10.8C289.3,148.9,292.6,145.5,295,140.4z"/>
	<path d="M247.7,20.4c1.9,0,3.5-1.6,3.5-3.5V10c-0.1-4.6-6.9-4.6-7,0c0,0,0,6.9,0,6.9C244.2,18.8,245.8,20.4,247.7,20.4z"/>
	<path d="M213.7,32.5c3.5,3,8-2.1,4.6-5.2l-4.4-3.9c-1.4-1.3-3.7-1.2-4.9,0.3c-1.3,1.4-1.2,3.7,0.3,4.9L213.7,32.5z"/>
	<path d="M279.4,33.4c0.8,0,1.7-0.3,2.3-0.9l4.4-3.9c1.4-1.3,1.6-3.5,0.3-4.9c-1.3-1.4-3.5-1.6-4.9-0.3l-4.4,3.9
		C274.7,29.3,276.3,33.5,279.4,33.4z"/>
</g>
</svg>
