<svg id="Bahan_copy_2" data-name="Bahan copy 2" xmlns="http://www.w3.org/2000/svg" viewBox="0 0 64 64"><defs><style>.cls-1{fill:#231f20;}</style></defs><path class="cls-1" d="M23.3,31.89a9.64091,9.64091,0,0,0,9.63-9.63c-.52844-12.77426-18.73238-12.773-19.26.00007A9.65451,9.65451,0,0,0,23.3,31.89Zm0-15.18c7.33452.23358,7.33285,10.86758-.00012,11.1C15.97939,27.57358,15.98117,16.9453,23.3,16.71Z"/><path class="cls-1" d="M23.3,25.81a3.55024,3.55024,0,0,0-.00011-7.1A3.55024,3.55024,0,0,0,23.3,25.81Z"/><path class="cls-1" d="M56,28.2H35.4a4.13066,4.13066,0,0,0-3.99989,4.78l-3.44011,0A12.84959,12.84959,0,0,1,21,33.6598L21,51.37a7.05617,7.05617,0,0,0,6.60028-4.78113H31.4A4.13592,4.13592,0,0,0,35.4001,51.37L56,51.37a4.00529,4.00529,0,0,0,4-4V32.2A3.99887,3.99887,0,0,0,56,28.2ZM54.57,46.59H45.7a1.00011,1.00011,0,0,1,.00005-2h8.87A1.00011,1.00011,0,0,1,54.57,46.59Zm-26.61994-2.0011A1.63227,1.63227,0,0,0,27.96,44.37V34.98H31.4v9.60889Z"/><path class="cls-1" d="M9.81,42.93a2.19013,2.19013,0,0,0,4.38-.00006A2.19013,2.19013,0,0,0,9.81,42.93Z"/><path class="cls-1" d="M11.67,22.26A11.63584,11.63584,0,0,1,13.57,15.9H11a7.00771,7.00771,0,0,0-7,7V44.37a7.00771,7.00771,0,0,0,7,7h8V33.06A11.64287,11.64287,0,0,1,11.67,22.26ZM6,30.34c.06-.01,7.43-.02,7.43-.02a1.0001,1.0001,0,0,1,0,2l-7.25,0A.99976.99976,0,0,1,6,30.34Zm-.82,4.83a1.00225,1.00225,0,0,1,1-1l7.25,0a1,1,0,0,1,0,2H6.18A1.00228,1.00228,0,0,1,5.18,35.17Zm11.01,7.76a4.19017,4.19017,0,0,1-8.38-.00009A4.19017,4.19017,0,0,1,16.19,42.93Z"/></svg>