<svg xmlns="http://www.w3.org/2000/svg" viewBox="0 0 64 64"><g id="Cartoon_Outline" data-name="Cartoon Outline"><path d="M51.86,48.6l2.05-1.07a5.135,5.135,0,0,0,2.14-1.74,4.43,4.43,0,0,0,.56-1.65c.29-1.58.59-10.46.53-11.97l-.02-.38a5.184,5.184,0,0,0-.7-2.98,5.008,5.008,0,0,0-2.28-1.57c-.18-.08-.35-.15-.52-.23a6.282,6.282,0,0,1-1.42-.92c.07-.06.15-.11.23-.17l2.18-1.4a4.869,4.869,0,0,0,1.4-1.22,4.853,4.853,0,0,0,.64-2.97A53.38,53.38,0,0,0,55.11,7.95a7.936,7.936,0,0,0-1.77-3.67c-1.58-1.63-3.88-1.83-6.11-1.9-6.76-.21-12.39-.27-18.27-.2-3.68.05-7.74.2-9.93,1.04-1.87.72-6.17,4.7-8.3,7.12-1.79,2.05-3.72,4.48-3.75,7.47l-.05,3.65c-.09,7.17-.17,12.84.21,18.85l.01.32a3.668,3.668,0,0,0,.54,2.08,3.689,3.689,0,0,0,1.82,1.2c.59.22,1.27.47,1.95.71.54.19,1.08.38,1.56.56a31.912,31.912,0,0,1-3.88,1.94,2.4,2.4,0,0,0-1.32,1.03,2.32,2.32,0,0,0-.21,1.2c0,1.1,0,1.68.04,2.57a20.669,20.669,0,0,0,.45,4,6.56,6.56,0,0,0,2.37,3.8,9.2,9.2,0,0,0,4.85,1.31c8.02.55,14.97.82,21.32.82,5.1,0,9.82-.18,14.37-.52a6.324,6.324,0,0,0,3.91-1.28c1.69-1.53,1.5-4.09,1.4-5.46a2.951,2.951,0,0,0-1.37-2.07c-1.05-.79-2.07-1.64-3.04-2.52a2.912,2.912,0,0,1-.6-.65.408.408,0,0,1-.08-.31C51.28,48.9,51.7,48.68,51.86,48.6ZM23.01,9.85c2.88-1.77,6.77-2.56,11.58-2.34a23.105,23.105,0,0,1,11.55,3.55c1.12.65,2.35,1.78,2.46,3.01a4.383,4.383,0,0,1-1.07,2.64c-.38.55-.8,1.11-1.31,1.25-.66.17-1.44-.32-2.2-.8l-.08-.05a20.891,20.891,0,0,0-20.87-.51l-.42.25a10.17,10.17,0,0,1-1.51.76l-.29.11c-.58.23-.87.32-1.2.2a1.1,1.1,0,0,1-.39-.32,4.261,4.261,0,0,0,2.62-1.12,4.888,4.888,0,0,0,1.1-3.36C23.03,11.96,23.04,10.89,23.01,9.85ZM12.24,11.66c2.33-2.65,6.26-6.09,7.51-6.57a5.6,5.6,0,0,1,.72-.22,35.031,35.031,0,0,1,.51,8.17,3.192,3.192,0,0,1-.54,2.04,3.248,3.248,0,0,1-1.99.6,44.961,44.961,0,0,1-8.91-.19A15.8,15.8,0,0,1,12.24,11.66ZM49.58,50.35a4.463,4.463,0,0,0,.98,1.13c1.02.92,2.08,1.81,3.18,2.64.18.14.58.44.59.62.1,1.43.14,3.02-.75,3.83a4.616,4.616,0,0,1-2.72.76c-10.13.77-21.05.68-35.4-.29a7.45,7.45,0,0,1-3.81-.94,4.5,4.5,0,0,1-1.6-2.65,18.14,18.14,0,0,1-.4-3.62c-.04-.86-.04-1.41-.04-2.58a.378.378,0,0,1,0-.15c.08-.04.21-.09.27-.12a35.781,35.781,0,0,0,4.29-2.15l.15-.08a1.826,1.826,0,0,0,1.16-1.79,1.864,1.864,0,0,0-1.4-1.52c-.58-.22-1.27-.47-1.95-.71s-1.33-.47-1.9-.69a2.327,2.327,0,0,1-.93-.5,2.549,2.549,0,0,1-.15-.98c0-.13-.01-.26-.01-.38-.38-5.93-.3-11.57-.21-18.7l.05-3.65a2.328,2.328,0,0,1,.04-.38,47.773,47.773,0,0,0,5.86.37c.89,0,1.78-.03,2.67-.08a3.28,3.28,0,0,0,1.56,1.58,2.973,2.973,0,0,0,2.28-.2l.27-.1a10.906,10.906,0,0,0,1.74-.88l.41-.23a19.386,19.386,0,0,1,19.41.52,5.357,5.357,0,0,0,2.71,1.07,2.334,2.334,0,0,0,.68-.1,4.092,4.092,0,0,0,2.16-1.84,5.685,5.685,0,0,0,1.33-3.63c-.2-2.26-2.51-3.76-3.21-4.16A24.441,24.441,0,0,0,34.66,6.01c-4.75-.21-8.69.52-11.74,2.16-.1-1.2-.25-2.4-.48-3.65,1.97-.24,4.41-.31,6.54-.34,5.85-.07,11.46,0,18.19.2,1.82.05,3.68.2,4.74,1.29a6.232,6.232,0,0,1,1.26,2.78,51.188,51.188,0,0,1,1.48,11.92,3.217,3.217,0,0,1-.27,1.78,3.287,3.287,0,0,1-.86.69l-2.18,1.4a3.843,3.843,0,0,0-.79.65,1.852,1.852,0,0,0-.44,1.5,2.158,2.158,0,0,0,.8,1.24,8.791,8.791,0,0,0,1.85,1.18c.19.09.39.18.58.26a3.608,3.608,0,0,1,1.45.9,3.57,3.57,0,0,1,.33,1.87l.02.42c.06,1.51-.25,10.19-.5,11.52a2.988,2.988,0,0,1-.29.97,3.354,3.354,0,0,1-1.37,1l-2.05,1.08a2.979,2.979,0,0,0-1.58,1.52A2.352,2.352,0,0,0,49.58,50.35Z"/><path d="M45.65,30.47a3.273,3.273,0,0,0-2.1-.96,15.886,15.886,0,0,0,.51-8.8c-.42-1.83-1.36-2.36-2.08-2.49a3.009,3.009,0,0,0-1.65.28l-.22.09a7.9,7.9,0,0,1-3.16.2c-.45-.04-.9-.08-1.35-.13a34.137,34.137,0,0,0-5.08-.22,11.027,11.027,0,0,0-6.45,2.2,9.346,9.346,0,0,0-3.02,4.62,11.835,11.835,0,0,0-.4,4.32,3.086,3.086,0,0,0-1.17.31,3.5,3.5,0,0,0-1.83,2.65,4.588,4.588,0,0,0,1.12,3.78,4.649,4.649,0,0,0,2.93,1.45.67.67,0,0,0,.11.18c.02.21.03.42.06.63a16.5,16.5,0,0,0,2.85,7.71,12.916,12.916,0,0,0,4.1,3.61,8.121,8.121,0,0,0,3.88,1.12,5.824,5.824,0,0,0,.93-.07,7.483,7.483,0,0,0,3.61-1.83,15.712,15.712,0,0,0,4.77-8.48,24.2,24.2,0,0,0,.43-2.5,4.1,4.1,0,0,0,1.87-.94,6.442,6.442,0,0,0,1.51-2.03,5.581,5.581,0,0,0,.66-2.19A3.311,3.311,0,0,0,45.65,30.47ZM21.66,35.76a2.514,2.514,0,0,1-2.03-2.9,1.571,1.571,0,0,1,.73-1.18,2.1,2.1,0,0,1,1.32-.02C21.63,33.01,21.61,34.38,21.66,35.76Zm18.4,4.43a13.756,13.756,0,0,1-4.13,7.41,5.377,5.377,0,0,1-2.62,1.37,5.752,5.752,0,0,1-3.52-.82,10.826,10.826,0,0,1-3.45-3.04,14.617,14.617,0,0,1-2.49-6.79c-.02-.15-.02-.31-.04-.46,3.31-1.19,6.96-2.36,10.5-1.73a22.188,22.188,0,0,1,6.05,2.39C40.28,39.08,40.19,39.64,40.06,40.19Zm.52-3.8a21.1,21.1,0,0,0-5.92-2.23c-3.82-.68-7.7.46-11,1.63-.06-1.7-.01-3.42.05-5.1a5.553,5.553,0,0,1,.99-3.11,3.5,3.5,0,0,1,2.51-1.32.448.448,0,0,1,.11-.01,7.588,7.588,0,0,1,2.63.7,8.344,8.344,0,0,0,3.73.81,9.182,9.182,0,0,0,2.38-.65,4.246,4.246,0,0,1,2.39-.46,2.486,2.486,0,0,1,1.51,1.56,9.96,9.96,0,0,1,.66,3.02A48.756,48.756,0,0,1,40.58,36.39Zm1.39-8.5c-.05-.14-.09-.28-.15-.42a4.411,4.411,0,0,0-2.87-2.76,5.7,5.7,0,0,0-3.49.49,17.109,17.109,0,0,1,1.35-1.79.5.5,0,0,0-.04-.71.514.514,0,0,0-.71.04,17.835,17.835,0,0,0-2.08,2.95,3.471,3.471,0,0,1-1.89-.11,5.516,5.516,0,0,0-1.36-2.93.5.5,0,0,0-.71-.03.513.513,0,0,0-.03.71,4.588,4.588,0,0,1,1,1.87c-.11-.04-.21-.07-.32-.12a8.668,8.668,0,0,0-3.53-.82,5.475,5.475,0,0,0-3.99,2.07,4.561,4.561,0,0,0-.44.67,8.658,8.658,0,0,1,.25-1.17,7.393,7.393,0,0,1,2.36-3.63,9.26,9.26,0,0,1,5.31-1.76,32.337,32.337,0,0,1,4.78.21c.46.05.92.09,1.37.13a9.2,9.2,0,0,0,4.02-.32l.26-.1a2.055,2.055,0,0,1,.58-.17c.09.02.31.27.47.96A13.973,13.973,0,0,1,41.97,27.89Zm2.06,6.38A4.572,4.572,0,0,1,43,35.69a2.262,2.262,0,0,1-.38.25c.07-1.49.06-2.97.01-4.42a2.49,2.49,0,0,1,.62-.04,1.165,1.165,0,0,1,1.24,1.37A3.791,3.791,0,0,1,44.03,34.27Z"/><path d="M42.7,56.37a2.768,2.768,0,0,1-1.55,1.49v.67a.75.75,0,0,1-1.5,0v-.49a3.8,3.8,0,0,1-2.34-1.25.756.756,0,0,1,.07-1.06.748.748,0,0,1,1.06.07,2.328,2.328,0,0,0,1.59.78,1.394,1.394,0,0,0,1.28-.78.952.952,0,0,0-.37-1.17,2.514,2.514,0,0,0-.76-.17,3.33,3.33,0,0,1-1.4-.39,2.306,2.306,0,0,1-.85-2.81,2.665,2.665,0,0,1,1.65-1.44v-.63a.75.75,0,0,1,1.5,0v.58a3.665,3.665,0,0,1,1.66.85.755.755,0,0,1,.04,1.06.746.746,0,0,1-1.06.05,1.878,1.878,0,0,0-1.37-.54,1.183,1.183,0,0,0-1.03.66.781.781,0,0,0,.24.93,2.043,2.043,0,0,0,.8.19,3.553,3.553,0,0,1,1.25.32A2.47,2.47,0,0,1,42.7,56.37Z"/><path d="M26.1,53.36l-.92,2.56a.516.516,0,0,1-.47.33.467.467,0,0,1-.17-.03.493.493,0,0,1-.3-.64l.91-2.56a.5.5,0,0,1,.64-.3A.51.51,0,0,1,26.1,53.36Z"/><path d="M28.43,53.78l-1.04,2.31a.493.493,0,0,1-.45.29.522.522,0,0,1-.21-.04.506.506,0,0,1-.25-.66l1.04-2.31a.5.5,0,0,1,.66-.25A.506.506,0,0,1,28.43,53.78Z"/><path d="M35.64,54.65a.5.5,0,0,1-.46.54c-.84.08-1.68.11-2.53.11a27.278,27.278,0,0,1-3-.16.49.49,0,0,1-.44-.55.485.485,0,0,1,.55-.44,27.118,27.118,0,0,0,5.33.04A.513.513,0,0,1,35.64,54.65Z"/><path d="M26.54,10.56l-.06,1.86a.5.5,0,0,1-.5.48h-.01a.5.5,0,0,1-.49-.51l.06-1.86a.539.539,0,0,1,.52-.49A.5.5,0,0,1,26.54,10.56Z"/><path d="M28.85,10.23a6.273,6.273,0,0,0-.45,1.9.508.508,0,0,1-.5.46h-.05a.5.5,0,0,1-.45-.54,7.227,7.227,0,0,1,.53-2.2.5.5,0,1,1,.92.38Z"/><path d="M31.03,10.77l-.31.62a.5.5,0,0,1-.45.27.442.442,0,0,1-.22-.05.488.488,0,0,1-.22-.67l.31-.62a.5.5,0,0,1,.89.45Z"/><path d="M39.01,11.34a.491.491,0,0,1-.48.39.5.5,0,0,1-.12-.02,17.285,17.285,0,0,0-5.6-.36.519.519,0,0,1-.55-.45.5.5,0,0,1,.45-.55,18.479,18.479,0,0,1,5.93.39A.489.489,0,0,1,39.01,11.34Z"/><path d="M41.1,11l-.98,1.49a.522.522,0,0,1-.42.22.479.479,0,0,1-.28-.08.5.5,0,0,1-.14-.69l.99-1.49a.492.492,0,0,1,.69-.15A.5.5,0,0,1,41.1,11Z"/><path d="M43.1,11.56l-.92,1.38a.5.5,0,0,1-.41.22.538.538,0,0,1-.28-.08.512.512,0,0,1-.14-.7l.92-1.37a.5.5,0,0,1,.83.55Z"/><path d="M37.16,39.91a.5.5,0,0,1-.46.3.477.477,0,0,1-.2-.04,11.167,11.167,0,0,0-8.48-.07.492.492,0,0,1-.65-.27.505.505,0,0,1,.27-.65,12.035,12.035,0,0,1,9.26.07A.5.5,0,0,1,37.16,39.91Z"/><path d="M35.98,44.83a13.046,13.046,0,0,1-3.63.51,13.256,13.256,0,0,1-3.71-.53.514.514,0,0,1-.34-.62.5.5,0,0,1,.62-.34,12.3,12.3,0,0,0,6.78.02.5.5,0,0,1,.28.96Z"/><path d="M14.32,55.38l-.66.74a.473.473,0,0,1-.37.18.507.507,0,0,1-.33-.13.494.494,0,0,1-.05-.7l.65-.75a.5.5,0,1,1,.76.66Z"/><path d="M15.54,56.3l-.75.75a.483.483,0,0,1-.7,0,.483.483,0,0,1,0-.7l.74-.75a.5.5,0,0,1,.71,0A.483.483,0,0,1,15.54,56.3Z"/><path d="M16.87,57.18l-.68.51a.553.553,0,0,1-.3.09.507.507,0,0,1-.4-.2.5.5,0,0,1,.1-.7l.68-.5a.5.5,0,0,1,.6.8Z"/><path d="M14.37,14.38a.523.523,0,0,1-.39.19.5.5,0,0,1-.31-.1l-.81-.63a.5.5,0,0,1-.08-.7.5.5,0,0,1,.7-.09l.8.62A.508.508,0,0,1,14.37,14.38Z"/><path d="M15.27,13.53a.42.42,0,0,1-.24.07.534.534,0,0,1-.44-.26l-.54-.98a.5.5,0,1,1,.87-.48l.55.97A.5.5,0,0,1,15.27,13.53Z"/></g></svg>