<svg id="Layer_1" data-name="Layer 1" xmlns="http://www.w3.org/2000/svg" viewBox="0 0 512 512"><path d="M406.565,309.585a24.161,24.161,0,1,0-24.16,24.16A24.188,24.188,0,0,0,406.565,309.585Zm-36.321,0a12.161,12.161,0,1,1,12.161,12.16A12.174,12.174,0,0,1,370.244,309.585Z"/><path d="M501.418,414.258l-16.29-109.964A112.459,112.459,0,0,0,382.405,147H324v-1.1A24.654,24.654,0,0,0,299.15,121H281v-8.544a19.717,19.717,0,0,0-14-18.819V48.847a21,21,0,1,1,42,0V78.6A40.594,40.594,0,0,0,349.588,119h.085a6.029,6.029,0,0,0,6.042-5.991,6.124,6.124,0,0,0-6.148-6A28.576,28.576,0,0,1,321,78.6V48.847a33,33,0,1,0-66,0V93.965a19.044,19.044,0,0,0-13,18.491V121H223.557C209.646,121,198,131.985,198,145.9V147H129.594c-36.322,1-70.521,18.009-91.483,47.671a111.722,111.722,0,0,0-18.942,83.848,113.406,113.406,0,0,0,8.084,26.8L10.747,416.778a68.728,68.728,0,0,0,47.8,75.773,68.068,68.068,0,0,0,20,3,69.019,69.019,0,0,0,60.432-35.684L201.3,346.054a111.516,111.516,0,0,0,20.016-21.6A41.213,41.213,0,0,1,255.026,307h2.247a41.18,41.18,0,0,1,33.637,17.333,111.467,111.467,0,0,0,20.147,21.694l61.49,114.648a69.018,69.018,0,0,0,60.433,35.687,68.084,68.084,0,0,0,20-3c32.715-10.044,52.645-42.492,48.465-78.907C501.436,414.388,501.428,414.323,501.418,414.258ZM254,112.457a7.5,7.5,0,1,1,15,0V121H254ZM210,145.9c0-7.294,6.263-12.9,13.557-12.9H299.15A12.644,12.644,0,0,1,312,145.9V147H210ZM128.454,454.111A56.708,56.708,0,0,1,22.618,418.567l14.214-95.955a112.323,112.323,0,0,0,92.718,49.149,113.271,113.271,0,0,0,50.492-11.872Zm172.255-136.5A53.388,53.388,0,0,0,257.277,295h-2.261a53.21,53.21,0,0,0-43.51,22.536A100.183,100.183,0,1,1,129.6,159.486l252.8,0A100.261,100.261,0,0,1,382.4,360h-.075A100.161,100.161,0,0,1,300.709,317.614ZM449.457,481.889A56.9,56.9,0,0,1,383.1,454.958L331.99,359.667a111.973,111.973,0,0,0,50.329,11.966c.029,0,.054-.021.087-.023a111.228,111.228,0,0,0,79.425-33.2,114.076,114.076,0,0,0,13.739-16.746l13.963,94.253C493,446.459,476.529,473.578,449.457,481.889Z"/><path d="M286.245,183H236.462a20,20,0,0,0,0,40h49.783a20,20,0,0,0,0-40ZM255,211H236.462a8,8,0,0,1,0-16H255Zm31.245,0H267V195h19.245a8,8,0,0,1,0,16Z"/><path d="M432.346,283.8a24.161,24.161,0,1,0-24.16-24.16A24.188,24.188,0,0,0,432.346,283.8Zm0-36.321a12.161,12.161,0,1,1-12.16,12.161A12.174,12.174,0,0,1,432.346,247.483Z"/><path d="M332.463,235.483a24.161,24.161,0,1,0,24.161,24.161A24.187,24.187,0,0,0,332.463,235.483Zm0,36.321a12.161,12.161,0,1,1,12.161-12.16A12.174,12.174,0,0,1,332.463,271.8Z"/><path d="M382.405,233.862a24.16,24.16,0,1,0-24.161-24.16A24.187,24.187,0,0,0,382.405,233.862Zm0-36.32a12.16,12.16,0,1,1-12.161,12.16A12.174,12.174,0,0,1,382.405,197.542Z"/><path d="M371.552,259.644a10.853,10.853,0,1,0,10.853-10.853A10.865,10.865,0,0,0,371.552,259.644Zm12,0a1.147,1.147,0,1,1-1.147-1.147A1.149,1.149,0,0,1,383.552,259.644Z"/><path d="M165.325,242H148V224.638A5.7,5.7,0,0,0,142,219H118.641A5.4,5.4,0,0,0,113,224.638V242H95.314A6.246,6.246,0,0,0,89,247.965v23.358c0,3.313,3,5.677,6.314,5.677H113v17.649c0,3.313,2.329,6.351,5.643,6.351H142a6.31,6.31,0,0,0,6-6.351V277h17.324A5.462,5.462,0,0,0,171,271.323V247.965a5.814,5.814,0,0,0-1.595-4.225A5.614,5.614,0,0,0,165.325,242ZM159,265H142a6.285,6.285,0,0,0-6,6.323V289H125V271.323A6.6,6.6,0,0,0,118.643,265H101V254h17.641A6.347,6.347,0,0,0,125,247.965V231h11v16.965A6.029,6.029,0,0,0,142,254h17Z"/><path d="M130.319,187.644a72,72,0,1,0,72,72A72.081,72.081,0,0,0,130.319,187.644Zm0,132a60,60,0,1,1,60-60A60.068,60.068,0,0,1,130.319,319.644Z"/><path d="M124,182h5a6,6,0,0,0,0-12h-5a6,6,0,0,0,0,12Z"/><path d="M221,176a6,6,0,0,0-6-6H148a6,6,0,0,0,0,12h67A6,6,0,0,0,221,176Z"/></svg>