<?xml version="1.0" encoding="utf-8"?>
<!-- Generator: Adobe Illustrator 26.5.0, SVG Export Plug-In . SVG Version: 6.00 Build 0)  -->
<svg version="1.1" id="katman_1" xmlns="http://www.w3.org/2000/svg" xmlns:xlink="http://www.w3.org/1999/xlink" x="0px" y="0px"
	 viewBox="0 0 2000 2000" style="enable-background:new 0 0 2000 2000;" xml:space="preserve">
<path id="path6328" d="M981.43,919.14c1.47-0.05,3.24,0.15,5.47,0.4c6.67,0.75,16.26,5.49,21.31,10.53c9.01,9,9,9.44-1.05,26.46
	c-10.87,18.42-5.72,23.3,9.81,9.25c8.46-7.65,9.56-7.69,17.37,0.24c7.88,8,7.86,8.84-1.05,15.44c-11.57,8.58-43.44,9.21-50.18,0.97
	c-2.73-3.33-5.66-19.23-6.59-35.22C975.17,924.02,975.05,919.37,981.43,919.14L981.43,919.14z M1323.53,876.92
	c47.91,0,80.95,1.99,82.75,4.91c1.95,3.16-25.8,4.83-79.69,4.83c-51.9,0-82.75-1.78-82.75-4.83
	C1243.83,878.79,1273.62,876.92,1323.53,876.92z M915.72,867.27c31.46,0,31.71,0.1,36.67,15.76
	c27.66,87.36,19.62,298.85-13.03,342.74c-7.17,9.64-14.2,12.66-32.33,13.83l-23.08,1.53l3.46-13.67
	c20.61-80.72,28.91-168.38,22.2-233.78c-4.73-46.1-14.5-97.83-22.28-117.97C884.42,868.17,887.56,867.27,915.72,867.27
	L915.72,867.27z M529.23,775.11c174.63,0,220.5,1.32,218.9,6.11c-1.57,4.7-50.37,6.34-217.69,7.32
	c-118.62,0.69-217.09-0.21-218.9-2.01c-1.8-1.8-3.3-5.1-3.3-7.32S407.69,775.11,529.23,775.11z M1078.73,755.73
	c198.19,0,306.22,1.76,308.16,4.91c1.99,3.21-101.01,4.83-305.19,4.83c-202.18,0-308.09-1.64-308.08-4.83
	C773.62,757.45,878.55,755.73,1078.73,755.73L1078.73,755.73z M206.75,755.73c22.43,0,38.44,2.08,38.44,4.91
	c0,2.85-17.07,4.83-41.5,4.83c-26.43,0-40.35-1.74-38.44-4.83C166.9,757.97,185.58,755.73,206.75,755.73z M280.58,742.06
	c3.38-0.23,7.08,0.88,9.17,2.98c8,8,10.33,45.18,4.26,67.71c-4.24,15.76-7.91,20.59-15.6,20.59c-7.17,0-9.19-2.22-7.08-7.72
	c6.77-17.64,8.47-44.94,3.78-61.92c-4.11-14.87-3.72-18.7,2.25-20.99C278.36,742.32,279.45,742.13,280.58,742.06z M1313.15,721.79
	c36.43,0,42.52,1.25,46.88,9.41c2.76,5.16,4.99,10.63,4.99,12.14c0,1.51-25.07,2.73-55.73,2.73c-30.66,0-55.73-1.85-55.73-4.1
	c0-2.25,3.97-7.73,8.85-12.14C1269.22,723.67,1281,721.79,1313.15,721.79L1313.15,721.79z M1115.56,718.98
	c1.92-0.44,4.41,4.83,5.79,15.12c0.88,6.56-0.62,11.98-3.38,11.98c-2.76,0-4.99-6.92-4.99-15.36
	C1112.99,723.15,1114.07,719.32,1115.56,718.98z M1254.77,707.32l-18.74,19.38c-17.94,18.5-20.23,19.38-48.81,19.38
	c-27.38,0.01-30.11-0.97-31.52-10.94c-1.98-13.98-31.83-30.09-41.25-22.28c-3.5,2.9-6.35,11.55-6.35,19.22v13.99H933.9
	c-110.93,0-175.34,1.74-177.24,4.83c-1.93,3.12-83.01,4.83-227.26,4.83H305.18l-10.62-14.31c-5.83-7.89-10.62-17.49-10.62-21.31
	c0-8.16-10.75-13.28-18.17-8.69c-2.85,1.76-5.93,9.7-6.84,17.69l-1.61,14.56l-47.45,2.41c-34.93,1.78-48.66,4.3-52.03,9.65
	c-9.6,15.24-4.5,67.22,7.86,71.76c2.59,1.83,5.13,2.09,10.36,2.39c4.78,0,28.05,3.32,57.78,4.98c44.32,2.47,55.06,1.74,59.91-4.1
	c7.98-9.61,149.41-10.58,152.39-1.05c1.04,3.33,3.16,13.84,4.74,23.4c1.58,9.57,11.57,31.84,22.2,49.46
	c11.14,18.48,19.38,38.15,19.38,46.56c0,20.75,8.27,36.45,24.45,46c9.33,5.51,15.77,14.62,19.22,27.42
	c2.96,11.01,10.21,22.51,16.97,26.94c6.98,4.57,13.05,14.49,14.88,24.21c1.7,9.04,9.84,23.06,18.09,31.12
	c11.88,11.61,14.74,18.15,13.83,31.6c-0.87,12.98,1.82,19.74,11.5,28.71c28.05,25.99,65.1,17.67,91.84-20.75
	c13.21-18.98,14.57-24.68,14.48-58.22c-0.13-48.57-12.42-75.79-50.9-112.75c-22.96-22.05-28.95-30.93-28.95-42.62
	c0-15.71,10.56-24.77,28.87-24.77c5.57,0,25.41,7.65,44.07,17.05c40.91,20.6,53.05,18.06,53.16-11.18
	c0.13-36.32,3-39.81,32.33-39.81h26.38l-3.94,35.14c-6.52,58.71-3.66,190.39,5.23,241.18c15.27,87.26,23.4,98.02,76.16,101.01
	c27.35,1.55,35.7,0.25,43.27-6.59c21.22-19.21,36.83-87.39,40.45-176.84l1.85-46l32.49-1.45c31.88-1.42,32.8-1.14,50.9,16.97
	c14.86,14.86,19.07,23.32,21.87,43.75c1.92,13.93,8.08,31.18,13.67,38.28c5.73,7.29,11.71,24.51,13.75,39.57
	c4.01,29.54,8.88,34.79,32.41,34.9c31.01,0.14,56.5-20.61,73.99-60.15c15.84-35.81,6.92-76.41-26.78-121.59
	c-20.61-27.63-28.23-47.7-28.23-74.55c0-30.33,7.74-39.32,33.94-39.32c11.17,0,17.05,2.59,18.9,8.44
	c12.61,39.88,35.86,69.01,60.96,76.4c74.96,22.08,157.15,50.04,179.01,60.96c32.3,16.13,91.3,61.55,135.18,104.06
	c52.62,50.97,182.56,149.2,214.15,161.88c6.19,2.48,14.14,3.58,17.69,2.41c3.55-1.17,8.4-2.17,10.78-2.17
	c2.38,0,7.95-6.86,12.3-15.28c6.81-13.17,7.79-33.54,7.16-145.64c-0.4-71.69-2.56-135.18-4.82-141.05
	c-7.85-20.32-27.33-31.64-97.31-56.61c-38.66-13.8-103.96-37.16-145.08-51.95c-97.72-35.14-99.04-35.46-117.73-29.75
	c-11.66,3.56-23.14,3-42.62-2.01l-26.62-6.84l1.61-31.85c0.97-19.27-0.45-33.1-3.62-35.06c-2.88-1.78-5.31-7.7-5.31-13.19
	s-5.94-17.03-13.27-25.65c-7.33-8.62-17.09-22.57-21.63-30.96l-8.28-15.2H1315L1254.77,707.32L1254.77,707.32z"/>
</svg>
