<?xml version="1.0" encoding="utf-8"?>
<!-- Generator: Adobe Illustrator 22.0.1, SVG Export Plug-In . SVG Version: 6.00 Build 0)  -->
<svg version="1.1" id="Layer_1" xmlns="http://www.w3.org/2000/svg" xmlns:xlink="http://www.w3.org/1999/xlink" x="0px" y="0px"
	 viewBox="0 0 105 105" style="enable-background:new 0 0 105 105;" xml:space="preserve">
<g>
	<g>
		<g>
			<path d="M36.3769836,100.6968231c-1.0947266,0-2.140625-0.4450684-2.9233398-1.2729492
				c-1.0297852-1.0895996-1.3754883-2.595459-0.9248047-4.0280762c0.7290039-2.3144531,2.1508789-4.5075684,4.112793-6.3425293
				c0.3022461-0.2834473,0.7763672-0.2670898,1.0600586,0.0351563c0.2827148,0.3024902,0.2670898,0.7770996-0.0356445,1.0600586
				c-1.7734375,1.6591797-3.0551758,3.6293945-3.706543,5.6977539c-0.2851563,0.90625-0.0668945,1.8586426,0.5844727,2.5471191
				c0.6450195,0.6831055,1.5766602,0.9523926,2.4853516,0.720459l22.5-5.7099609
				c0.9091797-0.2307129,1.5957031-0.9099121,1.8374023-1.8168945c0.2446289-0.9189453-0.0185547-1.8637695-0.7041016-2.5273438
				c-1.6791992-1.6228027-3.9487305-2.7907715-6.5625-3.3769531c-0.4042969-0.0908203-0.6582031-0.4919434-0.5678711-0.8959961
				c0.0908203-0.4038086,0.4916992-0.6577148,0.8959961-0.5678711c2.8828125,0.6467285,5.3994141,1.947998,7.2768555,3.7626953
				c1.0825195,1.0473633,1.4975586,2.5393066,1.1108398,3.9914551c-0.3833008,1.4396973-1.4736328,2.5180664-2.9174805,2.8847656
				l-22.5,5.7102051C37.0576477,100.6543427,36.7148743,100.6968231,36.3769836,100.6968231z"/>
		</g>
		<g>
			<path d="M31.5845013,44.5608368c-0.2333984,0-0.4633789-0.1086426-0.6098633-0.3127441
				c-0.3999023-0.5571289-0.7119141-1.2714844-0.9277344-2.1230469c-0.3837891-1.5144043-0.4545898-3.3391113-0.1894531-4.8813477
				c0.3256836-1.8930664,1.1147461-3.0898438,2.2231464-3.369873c0.5976563-0.1542969,1.2368164-0.0344238,1.8979492,0.3564453
				c1.7797852,1.0532227,3.3027344,3.8339844,3.8325195,5.9157715c0.2148438,0.8598633,0.28125,1.6352539,0.1972656,2.3076172
				c-0.0512695,0.4108887-0.4233398,0.7055664-0.8369141,0.6513672c-0.4111328-0.0512695-0.7026367-0.4257813-0.6513672-0.8369141
				c0.0605469-0.4880371,0.0058594-1.0786133-0.1635742-1.755127c-0.5166016-2.0319824-1.9267578-4.2724609-3.1420898-4.9916992
				c-0.2104492-0.1245117-0.5141602-0.2580566-0.762207-0.1943359c-0.4736347,0.1196289-0.9101582,0.9714355-1.1162128,2.1708984
				c-0.2280273,1.3254395-0.1650391,2.9572754,0.1650391,4.2585449c0.1694336,0.6691895,0.4023438,1.2131348,0.6923847,1.6171875
				c0.2416992,0.3364258,0.1645508,0.8051758-0.171875,1.0466309
				C31.8887005,44.5151825,31.7358685,44.5608368,31.5845013,44.5608368z"/>
		</g>
		<g>
			<g>
				<path d="M11.4155569,58.3726044c-0.3081055,0-0.597168-0.1914063-0.706543-0.4985352
					c-0.1391602-0.3901367,0.0644531-0.8190918,0.4545898-0.958252c2.6914063-0.9592285,5.796874-1.6638184,9.2304678-2.0944824
					c0.4140625-0.0490723,0.7861328,0.2397461,0.8374023,0.6508789c0.0517578,0.4108887-0.2397461,0.7858887-0.6508789,0.8374023
					c-3.3251953,0.4172363-6.3242178,1.0964355-8.913085,2.0192871
					C11.5840139,58.3584442,11.499053,58.3726044,11.4155569,58.3726044z"/>
			</g>
			<g>
				<path d="M5.9697561,61.0935516c-0.2368164,0-0.4697266-0.1118164-0.6157227-0.3208008
					c-0.2368164-0.3398438-0.1538086-0.807373,0.1860352-1.0441895c0.6411133-0.4472656,1.340332-0.8730469,2.0791016-1.2658691
					c0.3662109-0.1938477,0.8198242-0.0554199,1.0141602,0.3103027s0.0556641,0.8198242-0.3100586,1.0144043
					c-0.6855469,0.3642578-1.3330078,0.7585449-1.9248047,1.1711426
					C6.2676077,61.0498505,6.1181936,61.0935516,5.9697561,61.0935516z"/>
			</g>
			<g>
				<path d="M23.5444622,86.0207977c-0.0136719,0-0.0273438-0.0002441-0.0415039-0.0012207
					c-4.1953125-0.2282715-8.7597647-1.8395996-12.5234365-4.420166c-4.597168-3.1452637-7.2714844-7.2446289-7.3354492-11.246582
					c-0.0541992-2.9506836,1.4384768-7.0253906,8.8583984-9.6687012c4.9760733-1.770752,10.4794912-2.1904297,13.3173819-2.282959
					c0.3950195-0.015625,0.7602539,0.3110352,0.7739258,0.7250977s-0.3110352,0.760498-0.7250977,0.7739258
					c-2.7504883,0.0898438-8.0786133,0.4946289-12.8632803,2.1970215c-5.2080078,1.8554688-7.9262695,4.7011719-7.8613281,8.2299805
					c0.0561523,3.510498,2.4921875,7.1672363,6.6831055,10.034668c3.5439453,2.4299316,7.8291006,3.9460449,11.7578115,4.1601563
					c0.4135742,0.0224609,0.7304688,0.3759766,0.7080078,0.7895508
					C24.2710247,85.7112274,23.93997,86.0207977,23.5444622,86.0207977z"/>
			</g>
			<g>
				<path d="M19.1142864,80.9409637c-0.0771484,0-0.15625-0.012207-0.2333984-0.0375977
					c-1.953125-0.6401367-3.8701162-1.5895996-5.5429678-2.7456055c-3.4145508-2.3505859-5.4794922-5.2944336-5.5239258-7.8740234
					c-0.0371094-2.2734375,2.0712891-4.2336426,6.0981445-5.6694336c2.015625-0.7192383,4.5141592-1.2854004,7.2250967-1.637207
					c0.4106445-0.0549316,0.7871094,0.236084,0.840332,0.6472168c0.0532227,0.4106445-0.2363281,0.7868652-0.6469727,0.8400879
					c-2.6064453,0.3383789-4.9975586,0.8789063-6.9145498,1.5627441c-1.9204102,0.6848145-5.1367188,2.1447754-5.1020508,4.2312012
					c0.0351563,2.0646973,1.9033203,4.6186523,4.8754883,6.6647949c1.5571289,1.0756836,3.3403311,1.9589844,5.1582022,2.5549316
					c0.394043,0.1289063,0.6083984,0.5527344,0.4794922,0.9462891
					C19.7231731,80.7402802,19.4297161,80.9409637,19.1142864,80.9409637z"/>
			</g>
		</g>
		<g>
			<path d="M63.3491516,84.0793915c-0.2138672,0-0.4267578-0.0910645-0.574707-0.2678223
				c-0.2666016-0.3171387-0.2250977-0.7902832,0.0917969-1.0566406c0.6591797-0.5532227,1.3051758-1.125,1.9199219-1.6989746
				c0.3017578-0.2822266,0.7768555-0.2670898,1.0595703,0.0361328c0.2832031,0.3027344,0.2666016,0.7773438-0.0361328,1.0600586
				c-0.6337891,0.592041-1.2993164,1.1813965-1.9785156,1.751709
				C63.6904602,84.0217743,63.5190735,84.0793915,63.3491516,84.0793915z"/>
		</g>
		<g>
			<path d="M68.2529602,79.3279266c-0.1772461,0-0.3554688-0.0625-0.4985352-0.1899414
				c-0.309082-0.2753906-0.3364258-0.7495117-0.0610352-1.0588379c3.1132813-3.4956055,5.1489258-6.862793,7.1176758-10.1188965
				c0.2143555-0.3549805,0.6757813-0.4672852,1.0297852-0.2539063c0.3544922,0.2143555,0.4677734,0.675293,0.253418,1.0297852
				c-1.9101563,3.1601563-4.0756836,6.7416992-7.2807617,10.3405762
				C68.6655579,79.2432098,68.4595032,79.3279266,68.2529602,79.3279266z"/>
		</g>
		<g>
			<path d="M37.9082336,90.3516083c-10.0883808,0.0007324-18.6552753-5.0322266-20.680666-12.9858398
				c-1.7021475-6.704834,1.6220703-14.0620117,8.6748047-19.2011719c0.3339844-0.2438965,0.8037109-0.1706543,1.0478516,0.1645508
				c0.2441406,0.3347168,0.1704102,0.8039551-0.1640625,1.0478516c-6.546875,4.7702637-9.652832,11.5217285-8.1049805,17.6191406
				c2.3325195,9.1577148,14.3100605,14.0510254,26.6982441,10.9077148c3.6542969-0.9328613,6.9619141-2.4384766,9.8305664-4.4746094
				c9.1743164-5.9577637,12.7363281-11.8461914,16.1816406-17.5402832c1.5429688-2.5510254,3.1391602-5.1889648,5.1987305-7.7392578
				c4.171875-5.1865234,7.6757813-7.3041992,9.8803711-8.1674805c0.0214844-0.0083008,0.0825195-0.0319824,0.0849609-0.1184082
				c0.0019531-0.0769043-0.0463867-0.0986328-0.0698242-0.1091309l-3.9140625-1.7919922
				c-5.2543945,0.4145508-9.6000977,5.5285645-9.6430664,5.5800781c-1.6308594,1.7209473-3.3227539,3.1818848-5.0600586,4.3759766
				c-2.925293,2.0095215-6.8452148,1.9445801-9.7539063-0.1604004c-2.6171875-1.8996582-5.9194336-3.1875-9.5507813-3.7255859
				c-0.409668-0.060791-0.6928711-0.4421387-0.6318359-0.8518066c0.0605469-0.4099121,0.4443359-0.6918945,0.8515625-0.6320801
				c3.8696289,0.5732422,7.4003906,1.9545898,10.2109375,3.994873c2.3959961,1.7341309,5.6206055,1.7893066,8.0249023,0.1386719
				c1.6503906-1.1345215,3.262207-2.5268555,4.7905273-4.1376953c0.1625977-0.1960449,4.7666016-5.611084,10.5620117-6.0913086
				c0.2324219-0.0317383,0.5166016,0.0134277,0.8081055,0.1384277l3.9257813,1.7971191
				c0.6010742,0.270752,0.9663086,0.8515625,0.9492188,1.513916c-0.0170898,0.6582031-0.425293,1.237793-1.0390625,1.4768066
				c-2.0336914,0.7961426-5.2919922,2.7807617-9.2578125,7.7111816c-1.9970703,2.4726563-3.4960938,4.9506836-5.0834961,7.5744629
				c-3.5327148,5.8388672-7.1855469,11.876709-16.6220703,18.0043945
				c-2.9941406,2.1259766-6.4692383,3.7089844-10.3032227,4.6879883
				C43.0932922,90.0315399,40.4516907,90.3516083,37.9082336,90.3516083z"/>
		</g>
		<g>
			<path d="M26.3862591,59.693161c-0.1337891,0-0.2666016-0.0358887-0.3833008-0.1054688
				c-0.1713867-0.1018066-0.2949219-0.2670898-0.34375-0.4599609l-0.6162109-2.4272461
				c-0.3647461-1.4362793-0.1469727-2.9296875,0.612793-4.2045898c0.7587891-1.2734375,1.9663086-2.1750488,3.3994141-2.5390625
				l13.36133-3.3928223c2.9663086-0.7521973,5.9902344,1.046875,6.7436523,4.012207l0,0l0.6162109,2.4274902
				c0.1015625,0.4016113-0.1411133,0.8095703-0.5424805,0.9116211l-22.6630878,5.7546387
				C26.5097942,59.6855927,26.4477825,59.693161,26.3862591,59.693161z M43.7817688,47.892868
				c-0.3291016,0-0.6630859,0.0405273-0.9960938,0.125l-13.36133,3.3930664
				c-1.0454102,0.2651367-1.9262695,0.9233398-2.4799805,1.8527832c-0.5546875,0.9304199-0.7133789,2.0200195-0.4472656,3.067627
				l0.4316406,1.7001953l21.2089863-5.385498l-0.4316406-1.7006836C47.2412415,49.1147919,45.589386,47.892868,43.7817688,47.892868
				z"/>
		</g>
		<g>
			<path d="M28.4775677,51.6274872c-0.1455078,0-0.2895508-0.0424805-0.4135742-0.1242676
				c-0.1762695-0.1164551-0.2949219-0.3017578-0.3276367-0.5102539c-0.6455078-4.1445313,2.090332-8.0881348,6.3637714-9.1730957
				c4.2744141-1.0861816,8.5600586,1.0749512,9.9697266,5.0256348c0.0708008,0.1987305,0.0546875,0.418457-0.0449219,0.6047363
				c-0.0991211,0.1862793-0.2724609,0.3222656-0.4770508,0.3742676L28.662138,51.604538
				C28.6011028,51.6199188,28.5390911,51.6274872,28.4775677,51.6274872z M36.3125305,43.0410614
				c-0.605957,0-1.2241211,0.0754395-1.8432617,0.232666c-3.2299824,0.8200684-5.3969746,3.5993652-5.3247089,6.6606445
				l13.1826191-3.3476563C41.1982727,44.3838348,38.8696594,43.0410614,36.3125305,43.0410614z"/>
		</g>
	</g>
	<g>
		<path d="M87.2280579,46.4658661c-0.3974609,0-0.7919922-0.1154785-1.1391602-0.3469238
			c-0.7177734-0.4782715-1.0561523-1.3395996-0.8618164-2.1940918c0.4956055-2.1201172-0.0629883-4.8603516-1.6142578-7.9316406
			c-0.2915039-0.4104004-1.8525391-2.7736816-1.4248047-5.7592754c0.315918-2.2062988,1.6254883-4.1799316,3.8925781-5.8664551
			c3.418457-2.5495605,7.8896484-2.8828125,11.1264648-0.8283691c2.3564453,1.4865723,3.7363281,3.7404785,4.0996094,6.6984863l0,0
			c0.2949219,2.4074688-0.715332,4.7626934-2.574707,6.0002422c-1.2260742,0.8300781-3.2036133,1.454834-5.6303711-0.2958984
			c-0.5410156-0.3920898-0.8647461-1.0229492-0.8681641-1.6887207c-0.0029297-0.65625,0.2954102-1.2546387,0.8188477-1.6416016
			c0.6264648-0.4394531,0.9794922-0.8854961,0.9833984-1.2351055c0.0043945-0.3820801-0.4101563-0.7678223-0.7592773-1.0241699
			c-0.8413086-0.6171875-1.453125-0.5683594-2.0449219,0.1635742c-0.7460938,0.8933105-0.8383789,2.2048321-0.2421875,3.3503399
			c1.1655273,2.2421875,3.2519531,7.9177246-2.5249023,12.1967773
			C88.0874329,46.3315887,87.6562805,46.4658661,87.2280579,46.4658661z M92.4438782,23.6965809
			c-1.8647461,0-3.8051758,0.6342773-5.4672852,1.8737793c-1.9350586,1.4396973-3.0463867,3.0803223-3.3037109,4.8764648
			c-0.3735352,2.6071758,1.1650391,4.6818829,1.1806641,4.7023907c0.0263672,0.0354004,0.0498047,0.0727539,0.0698242,0.1120605
			c1.7587891,3.4604492,2.3525391,6.4887695,1.765625,9.0007324c-0.0810547,0.3554688,0.1352539,0.5444336,0.2319336,0.6088867
			c0.0766602,0.0512695,0.3520508,0.2001953,0.6621094-0.0214844c4.4287109-3.2805176,3.5742188-7.4077148,2.0756836-10.2907715
			c-0.8764648-1.6838379-0.7143555-3.6450176,0.4140625-4.9956036c1.1020508-1.3605957,2.5957031-1.5175781,4.0917969-0.4196777
			c0.9189453,0.6757813,1.3803711,1.4326172,1.3710938,2.25c-0.0097656,0.8635235-0.5654297,1.7058086-1.6074219,2.435545
			c-0.168457,0.125-0.1953125,0.3156738-0.1948242,0.4172363c0.0009766,0.1921387,0.0913086,0.3671875,0.2470703,0.4804688
			c1.4023438,1.0114746,2.6831055,1.0991211,3.9160156,0.265625c1.3955078-0.9289551,2.1479492-2.7224121,1.9208984-4.5720196
			c-0.3051758-2.4892578-1.4536133-4.3779297-3.4121094-5.6135254
			C95.2324524,24.0625477,93.8598938,23.6965809,92.4438782,23.6965809z"/>
	</g>
	<g>
		<path d="M83.8926086,22.2695789c-0.512207,0-1-0.2160645-1.3457031-0.6152344
			c-0.487793-0.5634766-0.5717773-1.3579102-0.2138672-2.0239258c0.800293-1.4689941,0.9453125-3.6213379,0.421875-6.2312012
			c-0.1503906-0.420166-0.8286133-2.5681152,0.1328125-4.7705078c0.71875-1.6469727,2.1547852-2.8977051,4.2670898-3.7177734
			c3.1865234-1.2414551,6.7158203-0.5419922,8.7841797,1.7416992c1.5083008,1.6564941,2.0961914,3.697998,1.7451172,6.065918
			v0.0002441c-0.2890625,1.9460449-1.5898438,3.5705566-3.3149414,4.1384277
			c-1.6298828,0.5500488-3.1865234,0.0327148-4.3813477-1.4541016c-0.3598633-0.4504395-0.484375-1.0495605-0.3339844-1.6037598
			c0.1484375-0.5480957,0.5351563-0.9787598,1.0610352-1.1811523c0.6025391-0.2145996,0.8603516-0.4624023,0.9072266-0.625
			c0.0498047-0.1716309-0.0717773-0.4602051-0.3330078-0.7915039c-0.5253906-0.6657715-0.9116211-0.5969238-1.3647461-0.2729492
			c-0.7016602,0.4853516-1.0200195,1.3952637-0.8212891,2.3249512c0.4228516,1.9838867,0.8242188,6.8208008-4.5644531,8.9001465
			C84.3247375,22.2317371,84.1064758,22.2695789,83.8926086,22.2695789z M90.3613586,5.8013172
			c-0.8793945,0-1.7851563,0.1655273-2.6625977,0.5075684c-1.7275391,0.6706543-2.8833008,1.652832-3.4365234,2.9199219
			c-0.8022461,1.8376465-0.09375,3.6699219-0.0864258,3.6882324c0.0161133,0.0410156,0.0288086,0.0834961,0.0375977,0.126709
			c0.6166992,3.0285645,0.4282227,5.4848633-0.5610352,7.3007813c-0.0805664,0.1496582-0.0288086,0.2614746,0.0288086,0.328125
			c0.0478516,0.0561523,0.1547852,0.1401367,0.3305664,0.0769043c3.9350586-1.5185547,4.144043-4.7443848,3.6245117-7.1826172
			c-0.3261719-1.5234375,0.2333984-3.0407715,1.4248047-3.8649902c1.1796875-0.84375,2.4560547-0.6325684,3.4057617,0.5708008
			c0.5893555,0.7470703,0.7900391,1.4655762,0.5966797,2.1357422c-0.2026367,0.7041016-0.8349609,1.2629395-1.8276367,1.6162109
			c-0.0791016,0.0307617-0.1186523,0.1083984-0.1342773,0.166748c-0.0126953,0.0454102-0.03125,0.1628418,0.0571289,0.2736816
			c0.8037109,1.0012207,1.7021484,1.3193359,2.7363281,0.9689941c1.1962891-0.3937988,2.0991211-1.5454102,2.3056641-2.9355469
			c0.28125-1.9008789-0.1801758-3.5285645-1.3725586-4.8376465C93.730011,6.4482899,92.0976868,5.8013172,90.3613586,5.8013172z
			 M96.9424133,12.6086903h0.0097656H96.9424133z"/>
	</g>
	<g>
		<path d="M79.4648743,26.7092762c-0.1704102,0-0.34375-0.0222168-0.515625-0.0681152
			c-6.2514648-1.7883301-6.2875977-7.2434082-6.0136719-9.5058594c0.1357422-1.1149902-0.3374023-2.1530762-1.2055664-2.6452637
			c-0.6987305-0.4106445-1.1787109-0.2712402-1.6665039,0.4750977c-0.2841797,0.4355469-0.3930664,0.7988281-0.3061523,1.0227051
			c0.1020508,0.2631836,0.5283203,0.5146484,1.140625,0.6723633c0.6020508,0.1716309,1.059082,0.5966797,1.2714844,1.1708984
			c0.2148438,0.5817871,0.1391602,1.2385254-0.2036133,1.7563477c-1.1772461,1.7695313-2.8496094,2.4968262-4.7109375,2.0490723
			c-1.9677734-0.4575195-3.5766602-2.1350098-4.0927734-4.2719727c0,0,0,0,0-0.0002441
			c-0.6303711-2.6142578-0.1782227-4.956543,1.3442383-6.9619141c2.0820313-2.7602539,5.9643555-3.8967285,9.6586914-2.826416
			c2.4472656,0.7058105,4.1791992,1.9597168,5.1469727,3.7265625c1.3027344,2.3781738,0.7446289,4.8608398,0.6235352,5.3208008
			c-0.3310547,3.036377,0.0571289,5.4851074,1.1245117,7.0844727c0.4516602,0.6855469,0.4379883,1.5480957-0.0322266,2.2011719
			C80.6587219,26.4216785,80.0786438,26.7092762,79.4648743,26.7092762z M71.0395813,12.7639637
			c0.4663086,0,0.9526367,0.140625,1.4404297,0.427002c1.3867188,0.7861328,2.1538086,2.4077148,1.9448242,4.125
			c-0.3457031,2.8527832,0.2280273,6.5361328,4.9238281,7.8796387c0.2568359,0.0683594,0.4101563-0.0910645,0.4619141-0.1633301
			c0.0512695-0.0710449,0.1538086-0.2614746-0.0004883-0.4953613c-1.2885742-1.9311523-1.746582-4.6704102-1.3583984-8.1379395
			c0.0048828-0.0439453,0.0136719-0.0874023,0.0258789-0.1296387c0.003418-0.0117188,0.3984375-1.4140625,0.0039063-2.9973145
			c-0.5151367-2.0661621-2.1074219-3.4978027-4.7333984-4.2548828c-3.1005859-0.8996582-6.3339844,0.0217285-8.0458984,2.2902832
			c-1.237793,1.6311035-1.6015625,3.5500488-1.0820313,5.7050781l0,0c0.3842773,1.5905762,1.5541992,2.8327637,2.9799805,3.1643066
			c1.2587891,0.3024902,2.2788086-0.1611328,3.1157227-1.4187012c0.1137695-0.1721191,0.0708008-0.3417969,0.046875-0.4067383
			c-0.0263672-0.0710449-0.0947266-0.1970215-0.2578125-0.2436523c-1.1088867-0.2856445-1.8574219-0.8327637-2.1459961-1.5771484
			c-0.2744141-0.706543-0.1235352-1.5092773,0.4487305-2.3857422C69.4023743,13.2346668,70.186554,12.7639637,71.0395813,12.7639637
			z"/>
	</g>
	<g>
		<path d="M81.9145813,45.470993c-0.2470703,0-0.4829102-0.1223145-0.6245117-0.3344727
			c-3.2963867-4.9526367-5.9443359-7.4504395-7.5844727-8.673584c-1.6044922-1.1962891-2.7485352-2.8789063-3.2211914-4.7380352
			c-0.6367188-2.5065918,0.3779297-3.7392578,1.3408203-4.3322754c1.3413086-0.826416,3.144043-0.6779785,4.4829102,0.3710938
			c7.4194336,5.8132305,6.3994141,16.5788555,6.3525391,17.0344219c-0.0327148,0.3146973-0.2592773,0.5751953-0.5664063,0.6508789
			C82.0346985,45.463913,81.9741516,45.470993,81.9145813,45.470993z M73.7441711,28.3591785
			c-0.402832,0-0.7939453,0.1022949-1.1328125,0.310791c-0.2895508,0.1784668-1.171875,0.7216797-0.6728516,2.6855469
			c0.3881836,1.5266094,1.3339844,2.9135723,2.6635742,3.9047832c1.5043945,1.121582,3.7973633,3.2392578,6.6054688,7.1242676
			c-0.1132813-3.3566895-1.0092773-9.6674805-5.8242188-13.4401836
			C74.889679,28.5581532,74.3061829,28.3591785,73.7441711,28.3591785z"/>
	</g>
	<g>
		<path d="M84.6689758,93.9199677c-0.0004883,0-0.0004883,0-0.0009766,0
			c-0.4536133-0.0002441-0.8359375-0.3154297-0.9291992-0.7658691c-0.3466797-1.708252-1.1860352-3.2612305-2.4267578-4.4934082
			c-1.237793-1.2463379-2.7875977-2.0854492-4.4853516-2.4299316c-0.4541016-0.0944824-0.7685547-0.4770508-0.7685547-0.9311523
			s0.3144531-0.8366699,0.7651367-0.9304199c1.6977539-0.3442383,3.2514648-1.184082,4.4960938-2.4287109
			c1.2368164-1.2368164,2.0732422-2.7900391,2.4189453-4.4921875c0.09375-0.4533691,0.4760742-0.7685547,0.9296875-0.769043
			c0.0004883,0,0.0004883,0,0.0009766,0c0.4536133,0,0.8364258,0.3144531,0.9301758,0.7646484
			c0.3466797,1.706543,1.1831055,3.2597656,2.4199219,4.496582c1.2446289,1.244873,2.7978516,2.0844727,4.4921875,2.4279785
			c0.4545898,0.0944824,0.769043,0.4770508,0.769043,0.9311523s-0.3144531,0.8366699-0.7651367,0.9304199
			c-0.0004883,0-0.0009766,0-0.0014648,0.0002441c-3.4814453,0.717041-6.1953125,3.4343262-6.9140625,6.9230957
			C85.5054016,93.6057587,85.1225891,93.9199677,84.6689758,93.9199677z M78.9189758,85.2993622
			c1.2841797,0.5187988,2.4570313,1.2973633,3.4536133,2.3005371c1.0004883,0.9936523,1.7788086,2.168457,2.2978516,3.4584961
			c1.0541992-2.6220703,3.1323242-4.7028809,5.7509766-5.7578125c-1.2836914-0.5178223-2.4599609-1.2961426-3.4628906-2.2995605
			c-0.9970703-0.9968262-1.7719727-2.1706543-2.2890625-3.4562988c-0.5175781,1.2851563-1.2919922,2.4592285-2.2895508,3.4562988
			C81.3774719,84.0034637,80.2026672,84.7812958,78.9189758,85.2993622z M92.3623352,85.4956512h0.0097656H92.3623352z"/>
	</g>
	<g>
		<g>
			<path d="M53.0620422,34.5315399c-2.6245117,0-4.7597656-2.135498-4.7597656-4.760252
				c0-2.6203613,2.1352539-4.7521973,4.7597656-4.7521973c2.6206055,0,4.7524414,2.1318359,4.7524414,4.7521973
				C57.8144836,32.3960419,55.6826477,34.5315399,53.0620422,34.5315399z M53.0620422,26.5190907
				c-1.7973633,0-3.2597656,1.4589844-3.2597656,3.2521973c0,1.7976074,1.4624023,3.260252,3.2597656,3.260252
				c1.793457,0,3.2524414-1.4626446,3.2524414-3.260252C56.3144836,27.978075,54.8554993,26.5190907,53.0620422,26.5190907z"/>
		</g>
	</g>
	<g>
		<g>
			<path d="M10.0620413,99.5315399c-2.6245117,0-4.7597656-2.135498-4.7597656-4.7602539
				c0-2.6203613,2.1352539-4.7521973,4.7597656-4.7521973c2.6206055,0,4.7524414,2.1318359,4.7524414,4.7521973
				C14.8144827,97.3960419,12.6826468,99.5315399,10.0620413,99.5315399z M10.0620413,91.5190887
				c-1.7973633,0-3.2597656,1.4589844-3.2597656,3.2521973c0,1.7976074,1.4624023,3.2602539,3.2597656,3.2602539
				c1.793457,0,3.2524414-1.4626465,3.2524414-3.2602539C13.3144827,92.9780731,11.8554983,91.5190887,10.0620413,91.5190887z"/>
		</g>
	</g>
</g>
</svg>
