<?xml version="1.0" encoding="UTF-8" standalone="no"?>
<!DOCTYPE svg PUBLIC "-//W3C//DTD SVG 1.1//EN" "http://www.w3.org/Graphics/SVG/1.1/DTD/svg11.dtd">
<svg width="100%" height="100%" viewBox="0 0 3786 3724" version="1.1" xmlns="http://www.w3.org/2000/svg" xmlns:xlink="http://www.w3.org/1999/xlink" xml:space="preserve" xmlns:serif="http://www.serif.com/" style="fill-rule:evenodd;clip-rule:evenodd;stroke-linejoin:round;stroke-miterlimit:2;">
    <g transform="matrix(3.125,0,0,3.125,-7981.25,0)">
        <g id="Artboard3" transform="matrix(1,0,0,1,-0.986417,0)">
            <rect x="2554.99" y="0" width="1211.32" height="1191.41" style="fill:none;"/>
            <g transform="matrix(1,-1.15327e-17,6.46689e-18,1,0.986417,-9.09495e-13)">
                <path d="M3463.28,479.407C3474.24,475.042 3485.28,473.344 3495.05,475.506C3509.14,478.628 3527.86,490.622 3529.76,515.015C3531.02,531.18 3525.92,545.738 3517.52,559.375C3509.97,571.62 3499.71,583.129 3489.8,594.556C3480.82,604.898 3472.12,615.135 3466.7,626.05C3462.06,635.412 3460,645.282 3463.3,656.263C3471.46,683.428 3535.95,792.399 3552.32,819.401C3567.89,845.087 3600.83,907.847 3613.13,957.287C3618.93,980.635 3619.86,1001.31 3613.97,1014.91C3607.22,1030.53 3594.9,1038.84 3580.14,1042.74C3567.28,1046.14 3552.44,1045.99 3538.61,1044.88C3526.71,1043.93 3512.58,1040.59 3498.45,1039.02C3486.46,1037.68 3474.42,1037.48 3464.33,1042.7C3461.16,1044.34 3459.28,1047.39 3457.59,1050.9C3455.06,1056.14 3453.22,1062.4 3451.09,1068.9C3446.43,1083.1 3440.45,1098.08 3427.46,1108.81C3418.56,1116.16 3406.4,1121.69 3388.86,1123.34C3360.06,1126.04 3326.32,1108.48 3296.42,1096.15C3286.6,1092.1 3277.77,1089.11 3269.89,1088.07C3263.67,1087.26 3258.18,1087.67 3253.47,1090.41C3249.89,1092.5 3247.43,1095.91 3245.08,1099.65C3241.86,1104.8 3239.02,1110.61 3235.65,1116.12C3227.32,1129.73 3216.17,1141.64 3193.44,1142.98C3177.85,1143.89 3160.77,1135.5 3144.07,1126.52C3130.89,1119.43 3118.08,1111.71 3106.31,1112.46C3096.95,1113.06 3092.31,1119.4 3086.67,1124.92C3077.72,1133.69 3067.67,1141.9 3049,1141.9C3030.76,1141.9 3018.2,1131.86 3007.12,1121.7C3003.66,1118.53 3000.36,1115.4 2996.95,1112.9C2993.61,1110.45 2990.26,1108.52 2986.12,1109.11C2982.66,1109.61 2980.34,1111.3 2978.15,1113.3C2975.85,1115.4 2973.7,1117.82 2971.27,1120.25C2963.68,1127.84 2954.07,1135.54 2934.48,1137.5C2921.28,1138.82 2902.49,1132.38 2881.42,1115.4C2837.79,1080.25 2780.87,998.501 2740.38,857.253C2703.11,727.224 2726.05,603.866 2721.71,570.486C2718.81,548.142 2710.66,527.496 2703.16,506.546C2695.08,483.944 2687.73,461.013 2687.04,435.705C2686.22,405.831 2699.2,388.373 2715.75,382.471C2727.62,378.237 2742.26,379.834 2756.53,388.32C2770,203.543 2925.13,55 3113.12,55C3309.94,55 3469.73,214.791 3469.73,411.608C3469.73,434.788 3467.51,457.455 3463.28,479.407ZM2772.27,414.692C2772.21,414.758 2772.14,414.824 2772.08,414.889C2768.14,418.761 2761.81,418.712 2757.93,414.779C2746.03,402.685 2732.89,397.591 2722.47,401.309C2712.29,404.939 2706.53,416.783 2707.03,435.159C2707.66,458.275 2714.61,479.166 2721.99,499.81C2729.97,522.106 2738.45,544.131 2741.54,567.909C2745.83,600.944 2722.72,723.056 2759.61,851.743C2792.98,968.182 2837.41,1042.88 2875.91,1083.1C2890.5,1098.33 2904.06,1108.47 2915.72,1113.75C2922.15,1116.66 2927.79,1118.07 2932.49,1117.6C2948.64,1115.98 2954.82,1108.51 2960.67,1102.47C2966.95,1095.97 2973.16,1090.76 2983.29,1089.31C2995.41,1087.58 3005.29,1093.29 3014.96,1101.81C3019.21,1105.55 3023.49,1109.82 3028.26,1113.58C3033.95,1118.08 3040.42,1121.9 3049,1121.9C3063.88,1121.9 3070.02,1113.09 3077.1,1106.3C3084.55,1099.15 3092.58,1093.3 3105.03,1092.5C3119.99,1091.54 3136.79,1099.89 3153.54,1108.9C3166.77,1116.02 3179.92,1123.74 3192.27,1123.01C3210.03,1121.97 3216.27,1110.11 3222.24,1099.32C3228.15,1088.65 3234.01,1078.62 3243.4,1073.14C3258.68,1064.22 3278.94,1067.31 3304.05,1077.66C3330.99,1088.78 3361.03,1105.86 3386.99,1103.42C3418.84,1100.43 3426.3,1080.33 3432.09,1062.67C3435.07,1053.59 3437.73,1044.97 3441.68,1038.26C3445.09,1032.46 3449.42,1027.9 3455.13,1024.94C3466.11,1019.26 3478.7,1017.75 3491.66,1018.4C3508.49,1019.23 3525.96,1023.8 3540.21,1024.95C3551.8,1025.88 3564.25,1026.25 3575.03,1023.4C3583.9,1021.06 3591.56,1016.36 3595.62,1006.97C3600.2,996.374 3598.24,980.305 3593.72,962.115C3581.91,914.642 3550.16,854.43 3535.22,829.767C3518.41,802.034 3452.53,689.92 3444.14,662.019C3434.93,631.365 3453.21,606.21 3474.69,581.448C3483.89,570.849 3493.49,560.243 3500.49,548.885C3506.63,538.917 3510.74,528.384 3509.82,516.568C3508.78,503.218 3498.44,496.742 3490.72,495.033C3482.9,493.3 3473.97,496.061 3465.27,500.427C3450.38,507.906 3436.28,520.623 3428.87,530.932C3425.65,535.414 3419.4,536.439 3414.92,533.218C3410.43,529.998 3409.41,523.745 3412.63,519.262C3418.72,510.783 3428.56,500.916 3439.9,492.653C3446.32,466.691 3449.73,439.545 3449.73,411.608C3449.73,225.829 3298.9,75 3113.12,75C2929.68,75 2779.42,224.851 2775.66,407.401C2775.6,410.31 2774.3,412.906 2772.27,414.692ZM2940.99,335.823C2959.36,339.863 2969.48,364.906 2963.58,391.711C2957.69,418.516 2937.99,436.998 2919.62,432.958C2901.25,428.917 2891.12,403.874 2897.02,377.069C2902.92,350.264 2922.62,331.782 2940.99,335.823ZM3061.62,439.215C3061.84,439.989 3061.92,440.816 3061.84,441.664C3060.64,454.006 3060.24,470.984 3056.61,485.66C3053.89,496.668 3049.31,506.404 3041.94,512.785C3024.92,527.52 2994.44,526.038 2983.7,503.01C2978.36,491.578 2977.92,478.374 2979.82,465.788C2982.47,448.292 2989.6,432.104 2992.3,424.846C2992.66,423.893 2993.21,423.068 2993.89,422.402C2994.87,420.506 2996.75,419.113 2999.02,418.841C3002.68,418.406 3006,421.019 3006.43,424.672C3006.69,426.812 3009,428.604 3011.35,428.821C3013.85,429.052 3015.97,427.628 3017.75,426.147C3021.42,423.09 3023.7,419.059 3023.7,419.059C3024.25,418.071 3025.02,417.278 3025.91,416.708C3026.81,416.136 3027.85,415.769 3028.98,415.679C3030.3,415.574 3031.62,415.863 3032.77,416.513C3033.76,417.069 3034.55,417.839 3035.12,418.734C3035.7,419.627 3036.06,420.669 3036.15,421.799C3036.15,421.799 3036.52,426.412 3038.57,430.726C3039.56,432.817 3040.9,435.003 3043.26,435.842C3045.49,436.631 3048.34,435.973 3049.47,434.138C3051.39,431.005 3055.5,430.026 3058.64,431.954C3061.16,433.509 3062.29,436.48 3061.62,439.215ZM3001.2,438.717C2998.25,446.43 2994.66,456.825 2993.01,467.782C2991.49,477.777 2991.54,488.294 2995.78,497.372C3002.66,512.116 3022.32,512.138 3033.21,502.704C3038.66,497.99 3041.66,490.594 3043.67,482.461C3046.34,471.66 3047.12,459.547 3047.86,449.159C3044.84,449.634 3041.7,449.434 3038.81,448.408C3032.97,446.337 3028.98,441.608 3026.53,436.443C3026.5,436.383 3026.47,436.322 3026.44,436.262C3026.39,436.305 3026.34,436.348 3026.29,436.391C3021.89,440.05 3016.29,442.668 3010.12,442.098C3006.91,441.801 3003.83,440.561 3001.2,438.717ZM3146.16,380.953C3164.52,384.994 3174.65,410.037 3168.75,436.842C3162.86,463.647 3143.16,482.129 3124.79,478.089C3106.42,474.048 3096.3,449.005 3102.19,422.2C3108.09,395.395 3127.79,376.913 3146.16,380.953Z"/>
            </g>
        </g>
    </g>
</svg>
