<svg id="Line" xmlns="http://www.w3.org/2000/svg" viewBox="0 0 64 64"><title>1</title><path d="M49.18994,9.00684a1.00027,1.00027,0,0,0-.59956,1.90822c13.50709,4.8,9.40818,20.23166,5.717,26.62544C50.23242,45.18457,41.019,53.45313,32.02979,53.72119,22.981,53.45313,13.76758,45.18457,9.69287,37.541,8.019,34.39307,2.99268,23.52734,8.59863,15.86963a13.12929,13.12929,0,0,1,11.34619-5.5415,13.80482,13.80482,0,0,1,11.19629,6.8247,1.0068,1.0068,0,0,0,1.71534.00388,13.981,13.981,0,0,1,8.18554-6.3364,12.41291,12.41291,0,0,1,2.68128-.4718l-.70423,3.609a.9992.9992,0,0,0,.26465.88867L47.606,19.28711l-1.67481,5.688-4.592,1.45221-4.25226-4.0069a1.00033,1.00033,0,1,0-1.37207,1.45605l4.22181,3.97822L38.37939,32.75l-5.6875,2.33252a1.00006,1.00006,0,1,0,.75879,1.85059l6.11963-2.50977a1.001,1.001,0,0,0,.57373-.62207l1.73242-5.4458,4.43-1.40112,3.28924,5.1892a1.0001,1.0001,0,0,0,1.68942-1.07081l-3.458-5.45513L49.68994,19.291a.99927.99927,0,0,0-.24267-.9795L45.082,13.82666l.8501-4.356a1.03534,1.03534,0,0,0-.79006-1.17284A15.8541,15.8541,0,0,0,32.003,14.83452,15.72819,15.72819,0,0,0,20.03662,8.33057,15.093,15.093,0,0,0,6.98291,14.68994C.86279,23.05078,5.60449,34.1123,7.92773,38.481,12.376,46.82568,22.063,55.42676,32.02979,55.72021c9.90722-.29345,19.59423-8.89453,24.043-17.23974C60.71993,30.41226,63.86875,14.28448,49.18994,9.00684Z"/></svg>