<?xml version="1.0" encoding="iso-8859-1"?>
<!-- Generator: Adobe Illustrator 21.1.0, SVG Export Plug-In . SVG Version: 6.00 Build 0)  -->
<svg version="1.1" id="Layer_1_1_" xmlns="http://www.w3.org/2000/svg" xmlns:xlink="http://www.w3.org/1999/xlink" x="0px" y="0px"
	 viewBox="0 0 64 64" style="enable-background:new 0 0 64 64;" xml:space="preserve">
<g>
</g>
<path d="M38.567,32.102c-0.006,0.003-0.013,0.004-0.019,0.007c-0.129,0.065-0.24,0.161-0.331,0.277
	c-0.005,0.006-0.012,0.008-0.017,0.014l-6,8c-0.031,0.041-0.049,0.088-0.073,0.132c-0.016,0.029-0.038,0.054-0.051,0.085
	c-0.002,0.005-0.002,0.009-0.003,0.014c-0.028,0.071-0.043,0.145-0.055,0.22c-0.003,0.02-0.012,0.038-0.013,0.058
	c-0.009,0.093-0.004,0.187,0.014,0.28c0.006,0.033,0.023,0.064,0.032,0.097c0.016,0.055,0.028,0.11,0.054,0.162
	c0.002,0.004,0.005,0.007,0.007,0.01c0.015,0.03,0.039,0.055,0.058,0.083c0.034,0.053,0.068,0.105,0.111,0.15
	c0.005,0.005,0.007,0.011,0.012,0.016l14,14c0.016,0.016,0.036,0.021,0.053,0.035c0.067,0.059,0.14,0.107,0.22,0.146
	c0.031,0.015,0.059,0.033,0.091,0.045C46.765,55.973,46.879,56,47,56s0.235-0.027,0.344-0.067c0.032-0.012,0.06-0.03,0.091-0.045
	c0.08-0.039,0.153-0.087,0.22-0.146c0.016-0.014,0.037-0.019,0.053-0.035l14-14c0.005-0.005,0.007-0.011,0.012-0.016
	c0.043-0.044,0.076-0.097,0.111-0.149c0.019-0.029,0.042-0.054,0.058-0.084c0.002-0.004,0.005-0.007,0.007-0.01
	c0.026-0.052,0.038-0.108,0.055-0.163c0.01-0.032,0.026-0.062,0.032-0.096c0.018-0.093,0.023-0.187,0.014-0.28
	c-0.002-0.02-0.011-0.04-0.014-0.06c-0.011-0.074-0.026-0.148-0.054-0.218c-0.002-0.004-0.002-0.009-0.003-0.014
	c-0.013-0.031-0.035-0.055-0.051-0.084c-0.024-0.045-0.042-0.092-0.073-0.133l-6-8c-0.005-0.006-0.012-0.008-0.017-0.014
	c-0.091-0.116-0.203-0.211-0.331-0.277c-0.006-0.003-0.013-0.004-0.019-0.007C55.299,32.038,55.153,32,55,32H39
	C38.847,32,38.701,32.038,38.567,32.102z M38.692,35.078L40.482,40H35L38.692,35.078z M43.337,42h7.326L47,52.074L43.337,42z
	 M43.805,40L47,34.887L50.195,40H43.805z M41.209,42l3.311,9.106L35.414,42H41.209z M49.48,51.106L52.791,42h5.795L49.48,51.106z
	 M53.518,40l1.79-4.922L59,40H53.518z M51.818,38.823L48.804,34h4.768L51.818,38.823z M45.196,34l-3.015,4.823L40.428,34H45.196z"/>
<path d="M3,26h2v3c0,0.552,0.447,1,1,1h4c0.553,0,1-0.448,1-1v-3h6v3c0,0.552,0.447,1,1,1h4c0.553,0,1-0.448,1-1v-3h5
	c0.553,0,1-0.448,1-1v-2.133l7.858,1.123C36.905,23.997,36.953,24,37,24c0.239,0,0.473-0.086,0.655-0.245
	C37.874,23.565,38,23.29,38,23V9c0-0.498-0.366-0.919-0.858-0.99L29,6.847V3c0-0.552-0.447-1-1-1H3C2.447,2,2,2.448,2,3v22
	C2,25.552,2.447,26,3,26z M9,28H7v-2h2V28z M21,28h-2v-2h2V28z M22,10h-2v2h2v4h-2v2h2v2H8V8h14V10z M36,21.847l-12-1.714V18h2v-2
	h-2v-4h2v-2h-2V8.153l3.858,0.551c0,0,0,0,0,0L36,9.867V21.847z M4,4h23v2.561L23.142,6.01c-0.023-0.003-0.045,0.007-0.067,0.005
	C23.048,6.013,23.026,6,23,6H7C6.447,6,6,6.448,6,7v14c0,0.552,0.447,1,1,1h15.93L27,22.582V24h-5h-4h-8H6H4V4z"/>
<path d="M18.188,61.584C18.377,61.846,18.679,62,19,62h12c0.321,0,0.623-0.154,0.812-0.416c0.188-0.261,0.239-0.596,0.137-0.901
	l-2-6C29.812,54.275,29.431,54,29,54h-5.28l-1.772-5.316C21.812,48.275,21.431,48,21,48h-8c-0.431,0-0.812,0.275-0.948,0.684
	L10.28,54H5c-0.431,0-0.812,0.275-0.948,0.684l-2,6c-0.103,0.305-0.051,0.64,0.137,0.901C2.377,61.846,2.679,62,3,62h12
	c0.321,0,0.623-0.154,0.812-0.416c0.188-0.261,0.239-0.596,0.137-0.901L14.387,56h5.226l-1.561,4.684
	C17.949,60.989,18.001,61.324,18.188,61.584z M13.721,50h6.559l1.333,4H21h-8h-0.612L13.721,50z M13.612,60H4.388l1.333-4H11h1.279
	L13.612,60z M23,56h5.279l1.333,4h-9.225l1.333-4H23z"/>
<rect x="16" y="41" width="2" height="3"/>
<rect x="21.586" y="42" transform="matrix(0.7071 -0.7071 0.7071 0.7071 -23.669 28.8579)" width="2.828" height="2"/>
<rect x="10" y="41.586" transform="matrix(0.7071 -0.7071 0.7071 0.7071 -27.1838 20.3726)" width="2" height="2.828"/>
<rect x="58.197" y="28.5" transform="matrix(0.5547 -0.8321 0.8321 0.5547 2.1725 63.0594)" width="3.606" height="2"/>
<rect x="34" y="27.697" transform="matrix(0.8321 -0.5547 0.5547 0.8321 -10.4854 24.369)" width="2" height="3.606"/>
<rect x="46" y="25" width="2" height="4"/>
<path d="M13.293,17.707C13.488,17.902,13.744,18,14,18s0.512-0.098,0.707-0.293l3-3c0.391-0.391,0.391-1.023,0-1.414l-3-3
	c-0.391-0.391-1.023-0.391-1.414,0l-3,3c-0.391,0.391-0.391,1.023,0,1.414L13.293,17.707z M14,12.414L15.586,14L14,15.586L12.414,14
	L14,12.414z"/>
</svg>
