<?xml version="1.0" encoding="iso-8859-1"?>
<!-- Generator: Adobe Illustrator 22.1.0, SVG Export Plug-In . SVG Version: 6.00 Build 0)  -->
<svg version="1.1" id="Layer_1_1_" xmlns="http://www.w3.org/2000/svg" xmlns:xlink="http://www.w3.org/1999/xlink" x="0px" y="0px"
	 viewBox="0 0 64 64" style="enable-background:new 0 0 64 64;" xml:space="preserve">
<g>
	<polygon points="15,43 15,49 19,49 19,47 17,47 17,43 	"/>
	<path d="M16,37c-2.531,0-5.003,0.883-6.961,2.485l1.267,1.547c1.342-1.098,2.981-1.776,4.694-1.969V41h2v-1.941
		c4.164,0.463,7.478,3.776,7.941,7.941H23v2h1.937c-0.193,1.714-0.871,3.352-1.969,4.693l1.548,1.268C26.118,53.003,27,50.531,27,48
		C27,41.935,22.065,37,16,37z"/>
	<path d="M17,56.937V55h-2v1.941C10.836,56.478,7.522,53.165,7.059,49H9v-2H7.063c0.193-1.714,0.871-3.352,1.969-4.693l-1.548-1.268
		C5.882,42.997,5,45.469,5,48c0,6.065,4.935,11,11,11c2.531,0,5.003-0.883,6.961-2.485l-1.267-1.547
		C20.352,56.066,18.714,56.744,17,56.937z"/>
	<path d="M63,14h-6V9h-5V1.132l-4,2.666l-4-2.666V9h-2c-3.483,0-6.505,1.993-8,4.896C32.505,10.993,29.483,9,26,9H11v5H5v23.836
		C2.526,40.512,1,44.077,1,48c0,8.271,6.729,15,15,15c4.892,0,9.232-2.365,11.972-6H40v1c0,2.757,2.243,5,5,5s5-2.243,5-5v-1h13V14z
		 M46,4.868l2,1.334l2-1.334V9h-4V4.868z M42,11h13v38h-5V25.697L47.535,22H53v-2h-6.798L45,18.197L43.798,20H39v2h3.465L40,25.697
		V49h-5V18C35,14.141,38.14,11,42,11z M44,40v12h-2V27h2v11h2V27h2v25h-2V40H44z M45,21.803L47.132,25h-4.263L45,21.803z M26,11
		c3.86,0,7,3.141,7,7v31h-2.051C30.971,48.668,31,48.338,31,48c0-3.844-1.466-7.343-3.851-10H29V28H15v5.051
		c-0.678,0.045-1.349,0.119-2,0.252V11H26z M27,36h-2.038c-2.253-1.687-4.987-2.752-7.962-2.949V30h10V36z M11,16v17.875
		c-1.449,0.515-2.794,1.244-4,2.153V16H11z M16,61C8.832,61,3,55.168,3,48s5.832-13,13-13s13,5.832,13,13S23.168,61,16,61z
		 M29.256,55c0.658-1.242,1.153-2.583,1.441-4H40v4H29.256z M45,61c-1.654,0-3-1.346-3-3v-4h6v4C48,59.654,46.654,61,45,61z M61,55
		H50v-4h7V16h4V55z"/>
	<rect x="15" y="16" width="2" height="2"/>
	<rect x="19" y="16" width="10" height="2"/>
	<rect x="15" y="20" width="2" height="2"/>
	<rect x="19" y="20" width="10" height="2"/>
	<rect x="15" y="24" width="14" height="2"/>
	<rect x="39" y="16" width="14" height="2"/>
</g>
</svg>
