<?xml version="1.0" encoding="utf-8"?>
<!-- Generator: Adobe Illustrator 24.0.0, SVG Export Plug-In . SVG Version: 6.00 Build 0)  -->
<svg version="1.1" id="stroke_1_" xmlns="http://www.w3.org/2000/svg" xmlns:xlink="http://www.w3.org/1999/xlink" x="0px" y="0px"
	 viewBox="0 0 340 340" style="enable-background:new 0 0 340 340;" xml:space="preserve">
<g>
	<path d="M187.9,161.6c1.9,0,3.5-1.6,3.5-3.5v-37.4c0-7.4-2.4-14.6-6.9-20.2c-4-5.1-9.2-8.5-15.4-10.3c-0.6-0.2-1.3-0.2-1.9,0
		c-6.1,1.7-11.2,5.1-15.2,10.1V67.2c0-14.8-4.8-29.1-13.6-40.2c-7.9-10-18.2-16.9-30.4-20.4c-0.6-0.2-1.3-0.2-1.9,0
		C93.8,10.1,83.6,17,75.6,27C66.8,38.1,62,52.4,62,67.2v33.1c-4-5-9.1-8.4-15.2-10.1c-0.6-0.2-1.3-0.2-1.9,0
		c-6.2,1.8-11.3,5.2-15.4,10.3c-4.4,5.6-6.9,12.7-6.9,20.2v129.3c0,1.9,1.6,3.5,3.5,3.5s3.5-1.6,3.5-3.5V120.7
		c0-5.9,1.9-11.5,5.3-15.8c2.9-3.6,6.5-6.2,10.8-7.6c4.3,1.4,8,4,10.8,7.6c3.4,4.4,5.3,10,5.3,15.8v34.4c0,1.9,1.6,3.5,3.5,3.5
		c1.9,0,3.5-1.6,3.5-3.5V67.2c0-13.2,4.3-26,12.1-35.9c6.8-8.6,15.5-14.6,25.9-17.7c10.4,3.1,19.1,9.1,25.9,17.7
		C140.7,41.2,145,54,145,67.2v87.9c0,1.9,1.6,3.5,3.5,3.5s3.5-1.6,3.5-3.5v-34.4c0-5.9,1.9-11.5,5.3-15.8c2.9-3.6,6.5-6.2,10.8-7.6
		c4.3,1.4,8,4,10.8,7.6c3.4,4.4,5.3,10,5.3,15.8v37.4C184.4,160,185.9,161.6,187.9,161.6z"/>
	<path d="M146.5,178.6c3.1,4.5,4.9,9.7,5.2,15.1c0.1,1.9,1.7,3.3,3.5,3.3c0.1,0,0.1,0,0.2,0c1.9-0.1,3.4-1.8,3.3-3.7
		c-0.4-6.7-2.6-13.2-6.5-18.7c-3.8-5.4-8.3-11-13.3-16.4v-6.1c0-14.6-3.3-28.7-9.2-39.7c-5.5-10.2-12.7-17.2-21.3-20.7
		c-0.9-0.4-1.8-0.4-2.7,0c-8.6,3.6-15.8,10.6-21.3,20.7c-5.9,11-9.2,25.1-9.2,39.7v6.1c-5.1,5.5-9.6,11-13.3,16.4
		c-3.8,5.5-6.1,12-6.5,18.7l-1.8,29.4c-0.3,5.8-2.4,11.3-5.9,16c-7.5,10-21.8,30.1-33.9,53.4c-2.7,5.1-4.2,10.6-4.6,16.4l-1.5,21.4
		c-0.3,3,2.5,3.7,3.5,3.7h142.4c1.9,0,3.5-1.6,3.5-3.5s-1.6-3.5-3.5-3.5h-11.4v-31.4c0-3.6-1.3-6.8-3.4-9.4v-117
		C141.7,172,144.2,175.3,146.5,178.6z M75.1,285.8c-2.1,2.5-3.4,5.8-3.4,9.4v31.4H15l1.2-17.6c0.3-4.8,1.6-9.4,3.8-13.6
		c11.8-22.8,25.9-42.6,33.2-52.4c4.3-5.7,6.8-12.6,7.3-19.8l1.8-29.4c0.3-5.4,2.1-10.6,5.2-15.1c2.3-3.3,4.8-6.6,7.6-9.9V285.8z
		 M82.1,152.1c0-13.5,3-26.4,8.4-36.4c4.4-8.2,10-13.9,16.5-17c6.5,3.1,12.1,8.8,16.5,17c5.4,10,8.4,22.9,8.4,36.4v129.1
		c-1.3-0.4-2.7-0.6-4.1-0.6H86.2c-1.4,0-2.8,0.2-4.1,0.6V152.1z M135.3,326.5H78.7v-31.4c0-4.1,3.4-7.5,7.5-7.5h41.6
		c4.1,0,7.5,3.4,7.5,7.5V326.5z"/>
	<path d="M320.4,302.3c0.4,0.2,0.8,0.2,1.2,0.2c1.4,0,2.7-0.9,3.3-2.3c4.9-12.9,7.4-26.5,7.4-40.5c0-28.2-10-54.6-28.3-74.8
		c2.9-1.9,4.5-5.2,4-8.7c-0.6-4.9-2.5-11.8-8.2-16.7c-1.1-0.9-2.6-1.1-3.9-0.4c-0.1,0.1-2.4,1.3-6.4,3.5
		c-13.6-6.9-28.8-10.5-44.1-10.5c-53.9,0-97.8,43.9-97.8,97.8c0,22.4,7.8,44.3,21.9,61.6c-1.8,2.2-2.8,4.9-2.8,7.9V330
		c0,1.9,1.6,3.5,3.5,3.5h157.4c1.9,0,3.5-1.6,3.5-3.5v-10.5c0-6.9-5.6-12.6-12.6-12.6h-58c-32.9-7.1-51.6-20.4-58.8-26.4
		c4.2-3.5,6.9-8.9,6.9-14.8c0-3.2-0.8-6.2-2.2-8.9c15.3-15.2,50.7-47.9,90.9-68.6c17.9,19,27.8,44.3,27.8,71.5
		c0,13.1-2.3,25.9-6.9,38C317.6,299.6,318.5,301.6,320.4,302.3z M318.6,314c3.1,0,5.6,2.5,5.6,5.6v7H173.7v-7c0-3.1,2.5-5.6,5.6-5.6
		H318.6z M235.4,307h-56.1c-1.4,0-2.7,0.2-3.9,0.6c-13.3-16.2-20.7-36.6-20.7-57.7c0-50.1,40.7-90.8,90.8-90.8
		c12.7,0,25.3,2.7,36.8,7.8c-21.5,12.9-64.4,41.3-101.5,81.5c-6.3,3.2-10.7,9.7-10.7,17.3c0,10.7,8.7,19.3,19.3,19.3
		c2.1,0,4.1-0.3,5.9-0.9C199.8,288.2,212.7,298.6,235.4,307z M201.8,265.8c0,6.8-5.5,12.3-12.3,12.3c-6.8,0-12.3-5.5-12.3-12.3
		s5.5-12.3,12.3-12.3C196.2,253.4,201.8,259,201.8,265.8z M299.8,179.3c-42.8,20.6-81.1,55.6-97.6,72c-2.8-2.5-6.2-4.1-10.1-4.7
		c43.8-45.3,93.7-74,104.8-80.1c2.7,3.3,3.7,7.4,4.1,10.5C301.2,178,300.7,178.9,299.8,179.3z"/>
	<path d="M93.3,164.5h28.2c1.9,0,3.5-1.6,3.5-3.5v-7.3c0-3.2-1.1-6.4-3-9c-2-2.6-4.1-5-6.5-7c-4.7-4.1-11.7-4.1-16.3,0
		c-2.3,2-4.5,4.4-6.5,7c-1.9,2.6-3,5.7-3,9v7.3C89.8,163,91.4,164.5,93.3,164.5z M96.8,153.8c0-1.7,0.6-3.4,1.6-4.8
		c1.7-2.2,3.5-4.2,5.5-5.9c2-1.8,5.1-1.8,7.1,0c2,1.7,3.8,3.7,5.5,5.9c1,1.4,1.6,3,1.6,4.8v3.8H96.8V153.8z"/>
	<path d="M306.7,283.5c2.2,0.3,3.8-1.1,4.1-2.8c1.1-6.3,1.7-12.8,1.7-19.3c0-10.6-1.5-21-4.5-31.1c-0.6-1.9-2.5-2.9-4.4-2.4
		c-1.9,0.6-2.9,2.5-2.4,4.4c2.8,9.4,4.2,19.2,4.2,29.1c0,6.1-0.5,12.1-1.6,18C303.5,281.3,304.8,283.2,306.7,283.5z"/>
	<path d="M298.4,207.9c-1-1.7-3.1-2.3-4.8-1.3c-1.7,1-2.3,3.1-1.3,4.8c1,1.8,2,3.7,3,5.6c0.6,1.2,1.9,2,3.2,2c0.5,0,1-0.1,1.5-0.4
		c1.7-0.8,2.5-2.9,1.6-4.7C300.6,211.9,299.5,209.9,298.4,207.9z"/>
</g>
</svg>
