<svg id="Layer_1" data-name="Layer 1" xmlns="http://www.w3.org/2000/svg" viewBox="0 0 512 512"><path d="M284.482,100.053a49.349,49.349,0,0,1-5.7,1.449c-4.724.906-9.8,6.029-13.563,10.818a55.052,55.052,0,0,0,19.262-6.355Z"/><path d="M167.573,475.057c-3.947-1.664-7.12-1.919-10.67-.292-1.006.46-2.1,1.155-2.142,1.718-.2,2.5,4.575,7.789,9.96,12.087Z"/><path d="M293.831,81.457c3.146-5.687,2.753-13.686-1.168-23.775-11.679-30.043-25.1-35.291-36.683-36.463-.1-.009-.222-.014-.353-.014-4.541,0-24.973,5.628-36.255,36.387-3.275,8.927-3.119,16.665.465,23a22.874,22.874,0,0,0,8.122,8.245c-2.349-19.722.195-33.939,7.6-42.324,5.54-6.275,13.52-9.218,23.733-8.729,9.263.152,16.357,3.516,21.086,10,8.452,11.586,6.511,30.453,4.357,41.494A18.865,18.865,0,0,0,293.831,81.457Z"/><path d="M227.518,99.782v6.184a52.72,52.72,0,0,0,19.028,6.362c-3.657-4.787-8.636-9.926-13.329-10.826A30.3,30.3,0,0,1,227.518,99.782Z"/><path d="M194.062,159.051l-82.219,312.89a3.718,3.718,0,0,0,.9,3.519c4.882,5.164,16.175,13.4,39.463,15.335-4.225-4.381-7.841-9.764-7.413-15.111a11.27,11.27,0,0,1,.154-1.147l9.944-70.618a5,5,0,1,1,9.9,1.394l-8.31,59.019c9.585-2.51,17.838,2.53,26.517,7.839,5.751,3.517,12.269,7.5,20.336,10.271,16.028,5.5,24.793,6.711,29.323,6.762a3.614,3.614,0,0,0,3.645-3.589c.028-2.945,3.043-287.871,13.609-363.037-12.123-.3-23.413-5.53-27.833-8.217l-15.6,9.441a15.555,15.555,0,0,0-1.513,1.424c-.231,10.316-1.492,63.575-4.171,122.188-4,87.479-9.087,144.6-15.127,169.771a5,5,0,0,1-4.858,3.834,5.064,5.064,0,0,1-1.17-.138,5,5,0,0,1-3.7-6.03C186.643,370.254,192.054,226.669,194.062,159.051Z"/><path d="M357.239,476.482c-.046-.563-1.137-1.257-2.142-1.718-3.551-1.626-6.723-1.37-10.67.294l2.85,13.506C352.663,484.258,357.44,478.969,357.239,476.482Z"/><path d="M317.938,159.051c2.008,67.619,7.419,211.205,18.12,255.8a5,5,0,0,1-3.7,6.03,5.064,5.064,0,0,1-1.17.138,5,5,0,0,1-4.858-3.834c-6.04-25.172-11.13-82.292-15.127-169.771-2.679-58.613-3.94-111.871-4.171-122.188a15.678,15.678,0,0,0-1.513-1.424l-15.6-9.44a63.012,63.012,0,0,1-28.229,8.212c10.612,75.263,13.976,360.118,14,363.041a3.607,3.607,0,0,0,1.089,2.561,3.539,3.539,0,0,0,2.557,1.028c4.529-.051,13.294-1.265,29.322-6.762,8.066-2.767,14.585-6.754,20.336-10.271,8.679-5.309,16.934-10.347,26.517-7.839l-8.31-59.019a5,5,0,0,1,9.9-1.394l9.944,70.618a11.27,11.27,0,0,1,.154,1.147c.428,5.347-3.188,10.73-7.413,15.111,23.29-1.94,34.581-10.171,39.463-15.334a3.721,3.721,0,0,0,.9-3.52Z"/><path d="M273.769,92.575c2.437-9.511,5.547-29.295-1.477-38.909-2.83-3.875-7.158-5.8-13.231-5.887l-.174-.005c-7.165-.352-12.341,1.4-15.833,5.355-5.933,6.721-7.456,20.383-4.461,39.591,7.294,2.895,13.413,9.919,17.275,15.336C259.892,102.56,266.286,95.377,273.769,92.575Z"/></svg>