<?xml version="1.0" encoding="utf-8"?>
<!-- Generator: Adobe Illustrator 25.0.0, SVG Export Plug-In . SVG Version: 6.00 Build 0)  -->
<svg version="1.1" id="Layer_1" xmlns="http://www.w3.org/2000/svg" xmlns:xlink="http://www.w3.org/1999/xlink" x="0px" y="0px"
	 viewBox="0 0 491.5 491.5" style="enable-background:new 0 0 491.5 491.5;" xml:space="preserve">
<style type="text/css">
	.st0{fill-rule:evenodd;clip-rule:evenodd;}
</style>
<g id="Layer_x0020_1">
	<g id="_314778528">
		<path id="_314779320" class="st0" d="M308.5,197c-2.1,0-4.3-0.3-6.5-0.8c-2.6-0.6-4.2-3.2-3.6-5.8c0.6-2.6,3.2-4.2,5.8-3.6
			c5.2,1.2,10.1,0.3,14.5-2.7c5.7-3.9,10-11.2,11-18.6c0.4-2.6,2.8-4.5,5.4-4.1c2.6,0.4,4.5,2.8,4.1,5.4c-1.4,10.1-7.1,19.8-15,25.2
			C319.3,195.4,314,197,308.5,197L308.5,197z"/>
		<path id="_314779344" class="st0" d="M183.1,197c-9.3,0-18-4.7-24-13.3c-7.7-11-9.2-25.5-3.4-34.5c2.8-4.4,10-11.4,25.6-8.5
			c2.6,0.5,4.3,3,3.8,5.6c-0.5,2.6-3,4.3-5.6,3.8c-5.3-1-12.4-1-15.8,4.3c-3.7,5.8-2.3,16,3.2,23.8c2.5,3.5,9.4,11.3,20.4,8.8
			c2.6-0.6,5.2,1,5.8,3.6c0.6,2.6-1,5.2-3.6,5.8C187.4,196.8,185.2,197,183.1,197L183.1,197z"/>
		<path id="_314778912" class="st0" d="M254.3,359.9h-17c-1.8,0-3.4-1-4.2-2.5l-11.6-21.2c-1.3-2.3-0.4-5.2,1.9-6.5
			c2.3-1.3,5.2-0.4,6.5,1.9l10.2,18.7h11.3l10.2-18.7c1.3-2.3,4.2-3.2,6.5-1.9c2.3,1.3,3.2,4.2,1.9,6.5l-11.6,21.2
			C257.7,359,256,359.9,254.3,359.9L254.3,359.9z"/>
		<path id="_314779152" class="st0" d="M223.7,465.6c-0.2,0-0.4,0-0.6,0c-2.6-0.3-4.5-2.7-4.1-5.4l13.5-105.7
			c0.3-2.6,2.7-4.5,5.4-4.2c2.6,0.3,4.5,2.7,4.1,5.4l-13.5,105.7C228.2,463.8,226.1,465.6,223.7,465.6L223.7,465.6z"/>
		<path id="_314778936" class="st0" d="M267.8,465.6c-2.4,0-4.5-1.8-4.8-4.2l-13.5-105.7c-0.3-2.6,1.5-5,4.1-5.4
			c2.6-0.3,5,1.5,5.4,4.2l13.5,105.7c0.3,2.6-1.5,5-4.2,5.4C268.2,465.6,268,465.6,267.8,465.6L267.8,465.6z"/>
		<path id="_314779488" class="st0" d="M166.2,151.1c-1.8,0-3.5-1-4.3-2.7c-1.2-2.5-2.3-5.2-3.3-8c-6.6-19-6.3-41,0.9-57.3
			c8.3-18.9,24.2-33.3,43.8-39.7c8.9-15.4,36.1-21.6,64.8-14.4c36,9.1,73.2,39.2,69.4,96.5c-0.2,2.6-2.5,4.7-5.1,4.5
			c-2.6-0.2-4.6-2.5-4.5-5.1c3.4-51.4-29.9-78.4-62.1-86.5c-25-6.3-49-1.4-54.7,11.1c-0.6,1.3-1.7,2.2-3,2.6
			c-17.8,5.2-32.3,18-39.7,35c-6.1,14-6.4,33.8-0.6,50.3c0.8,2.4,1.8,4.8,2.9,6.9c1.2,2.4,0.2,5.3-2.2,6.4
			C167.6,150.9,166.9,151.1,166.2,151.1L166.2,151.1z"/>
		<path id="_314779176" class="st0" d="M252.3,310.4l27.9,33l25.5-60.7l-12.8-12.8L252.3,310.4L252.3,310.4z M281.5,357.3
			c-1.4,0-2.8-0.6-3.7-1.7l-35.8-42.3c-1.6-1.9-1.5-4.7,0.3-6.5l47.1-47.1c0.9-0.9,2.1-1.4,3.4-1.4c1.3,0,2.5,0.5,3.4,1.4l18.5,18.5
			c1.4,1.4,1.8,3.5,1,5.3l-29.8,70.9c-0.6,1.5-2.1,2.6-3.7,2.9C282,357.3,281.8,357.3,281.5,357.3L281.5,357.3z"/>
		<path id="_314779008" class="st0" d="M404.7,465.6H86.8c-7.3,0-14.1-3.1-18.9-8.5c-4.8-5.4-7-12.6-6.1-19.8l14.3-115.5
			c0.8-6.8,5.1-12.2,11.2-14.2l91.4-30.6c2.5-0.8,5.2,0.5,6.1,3c0.8,2.5-0.5,5.2-3,6.1l-91.4,30.6c-2.6,0.9-4.3,3.2-4.7,6.3
			L71.3,438.5c-0.6,4.5,0.8,8.9,3.7,12.3c3,3.4,7.1,5.2,11.7,5.2h317.9c4.6,0,8.7-1.9,11.7-5.2c3-3.4,4.3-7.7,3.7-12.3L405.9,323
			c-0.4-3.1-2.1-5.4-4.7-6.3l-91.4-30.6c-2.5-0.8-3.9-3.6-3-6.1c0.8-2.5,3.6-3.9,6.1-3l91.4,30.6c6.1,2,10.3,7.5,11.2,14.2
			l14.3,115.5c0.9,7.2-1.3,14.4-6.1,19.8C418.8,462.5,412,465.6,404.7,465.6L404.7,465.6z"/>
		<path id="_314779128" class="st0" d="M185.9,282.7l25.5,60.7l27.9-33l-40.6-40.6L185.9,282.7L185.9,282.7z M210,357.3
			c-0.2,0-0.5,0-0.7-0.1c-1.7-0.2-3.1-1.4-3.7-2.9l-29.8-70.9c-0.8-1.8-0.3-3.9,1-5.3l18.5-18.5c1.9-1.9,4.9-1.9,6.8,0l47.1,47.1
			c1.8,1.8,1.9,4.6,0.3,6.5l-35.8,42.3C212.7,356.7,211.4,357.3,210,357.3L210,357.3z"/>
		<path id="_314778432" class="st0" d="M245.8,244.5C245.8,244.5,245.8,244.5,245.8,244.5c0.3,0,0.5,0,0.8,0
			c27.5,0,50.3-31.9,58.3-81.6h0c4.9-30.5-1.9-49.5-20.6-57.9c-38.4,13.5-63.5,13.7-78.2,0.6c-17.8,8.7-24.1,27.5-19.4,57.3
			c7.9,49.7,30.8,81.6,58.3,81.6C245.2,244.5,245.4,244.5,245.8,244.5C245.7,244.5,245.7,244.5,245.8,244.5L245.8,244.5z
			 M246.5,254.1c-0.2,0-0.5,0-0.7,0c-15.4,0.2-30.5-7.7-42.4-22.5c-12.6-15.7-21.7-38.9-26.2-67.2c-5.7-36,3.7-59.2,28.1-69
			c1.8-0.8,4-0.3,5.3,1.2c11.4,12.4,35,12,72.1-1.3c1.1-0.4,2.3-0.4,3.4,0.1c24.4,9.8,33.8,33,28.1,69
			c-4.5,28.2-13.5,51.4-26.2,67.2C276.4,246.1,261.7,254.1,246.5,254.1L246.5,254.1z"/>
		<path id="_314778672" class="st0" d="M292.8,267.9c-2.7,0-4.8-2.1-4.8-4.8l0-47.2c0-2.7,2.1-4.8,4.8-4.8c2.7,0,4.8,2.2,4.8,4.8
			l0,47.2C297.6,265.7,295.5,267.9,292.8,267.9L292.8,267.9z"/>
		<path id="_314778240" class="st0" d="M198.7,267.9c-2.7,0-4.8-2.1-4.8-4.8l0-47.2c0-2.7,2.1-4.8,4.8-4.8c2.7,0,4.8,2.2,4.8,4.8
			l0,47.2C203.5,265.7,201.3,267.9,198.7,267.9L198.7,267.9z"/>
		<path id="_314778624" class="st0" d="M223.7,465.6c-0.7,0-1.5-0.2-2.2-0.5c-16.5-8.5-28-27.5-35.3-57.9
			c-7-28.9-10.5-70-10.8-125.6c0-2.7,2.1-4.8,4.8-4.8c0,0,0,0,0,0c2.6,0,4.8,2.1,4.8,4.8c0.6,106.7,13.2,160.6,41,175
			c2.4,1.2,3.3,4.1,2.1,6.5C227.2,464.7,225.5,465.6,223.7,465.6L223.7,465.6z"/>
		<path id="_314778816" class="st0" d="M267.8,465.6c-1.7,0-3.4-0.9-4.3-2.6c-1.2-2.3-0.3-5.2,2-6.5c27.7-14.4,40.4-68.3,41-175
			c0-2.6,2.2-4.8,4.8-4.8c0,0,0,0,0,0c2.7,0,4.8,2.2,4.8,4.8c-0.3,55.5-3.9,96.6-10.8,125.6c-7.3,30.4-18.9,49.4-35.3,57.9
			C269.3,465.4,268.5,465.6,267.8,465.6L267.8,465.6z"/>
		<path id="_314778216" class="st0" d="M310.6,141.3H180.9c-2.6,0-4.8-2.2-4.8-4.8c0-2.7,2.2-4.8,4.8-4.8h129.7
			c2.6,0,4.8,2.2,4.8,4.8C315.4,139.2,313.3,141.3,310.6,141.3z"/>
		<path id="_314778336" class="st0" d="M307.1,181.5H184.5c-2.7,0-4.8-2.2-4.8-4.8c0-2.7,2.2-4.8,4.8-4.8h122.6
			c2.7,0,4.8,2.1,4.8,4.8C311.9,179.4,309.7,181.5,307.1,181.5L307.1,181.5z"/>
		<path id="_314778144" class="st0" d="M319.6,135.9c8.6,3.8,19,5.2,29.1,3.7c9.9-1.4,18.7-5.4,24.7-11
			C358.1,124.2,335.4,126.3,319.6,135.9L319.6,135.9z M340.8,149.8c-12,0-23.6-3.2-32.8-9.3c-1.3-0.8-2.1-2.2-2.2-3.7
			c-0.1-1.5,0.5-3,1.7-4c20.8-17.7,56.8-19.8,76.1-10.6c1.3,0.6,2.2,1.7,2.6,3.1c0.4,1.4,0.1,2.8-0.7,4
			c-7.2,10.5-20.1,17.7-35.4,19.9C347,149.6,343.9,149.8,340.8,149.8L340.8,149.8z"/>
		<path id="_314778120" class="st0" d="M355.8,175.5c-9.2,0-18.2-2.1-26.3-6.3c-13.3-6.9-22.2-19-23.7-32.2c-0.3-2.6,1.6-5,4.2-5.3
			c2.6-0.3,5,1.6,5.3,4.2c1.2,10,8.1,19.3,18.6,24.8c9.3,4.8,20.6,6.4,31.2,4.3c-3.4-6.3-9.7-12.5-17-16.6c-2.3-1.3-3.1-4.2-1.8-6.5
			c1.3-2.3,4.2-3.1,6.5-1.8c11.4,6.5,20.4,16.8,23.5,26.9c0.8,2.5-0.6,5.2-3.2,6C367.5,174.7,361.7,175.5,355.8,175.5L355.8,175.5z"
			/>
	</g>
</g>
</svg>
