<?xml version="1.0" encoding="iso-8859-1"?>
<!-- Generator: Adobe Illustrator 22.1.0, SVG Export Plug-In . SVG Version: 6.00 Build 0)  -->
<svg version="1.1" id="Layer_1_1_" xmlns="http://www.w3.org/2000/svg" xmlns:xlink="http://www.w3.org/1999/xlink" x="0px" y="0px"
	 viewBox="0 0 64 64" style="enable-background:new 0 0 64 64;" xml:space="preserve">
<g>
	<polygon points="14,12 14,16 18,16 18,14 16,14 16,12 	"/>
	<path d="M16,22.931V20h-2v2.931C10.388,22.477,7.523,19.612,7.069,16H10v-2H7.069c0.181-1.456,0.75-2.82,1.684-3.989L7.19,8.761
		C5.758,10.554,5,12.711,5,15c0,5.514,4.486,10,10,10c2.289,0,4.446-0.758,6.239-2.19l-1.25-1.562
		C18.82,22.182,17.456,22.751,16,22.931z"/>
	<path d="M15,5c-2.289,0-4.446,0.758-6.239,2.19l1.25,1.562C11.18,7.818,12.544,7.249,14,7.069V10h2V7.069
		c3.612,0.453,6.477,3.319,6.931,6.931H20v2h2.932c-0.181,1.456-0.75,2.82-1.684,3.988l1.561,1.25C24.242,19.447,25,17.29,25,15
		C25,9.486,20.514,5,15,5z"/>
	<path d="M50.536,60.552l5.183-15.547C55.905,44.447,56,43.865,56,43.275c0-1.743-0.842-3.396-2.252-4.422l-8.642-6.285l1.669-8.344
		l6.659,1.664C53.728,25.963,54.03,26,54.332,26c1.411,0,2.679-0.784,3.309-2.045l4.998-9.996C62.875,13.485,63,12.955,63,12.427
		C63,10.537,61.463,9,59.5,9c-1.307,0-2.481,0.726-3.065,1.895L52.382,19h-0.116L46,15.42v-1.96c1.224-1.099,2-2.688,2-4.46V7
		c0-3.309-2.691-6-6-6s-6,2.691-6,6v2c0,1.771,0.776,3.36,2,4.46v1.739l-6.216,1.381c-1.567,0.349-2.88,1.438-3.511,2.912
		l-0.179,0.418C28.67,18.379,29,16.729,29,15c0-7.72-6.28-14-14-14S1,7.28,1,15s6.28,14,14,14c5.548,0,10.337-3.251,12.602-7.941
		l-4.326,10.095C23.093,31.58,23,32.03,23,32.492V32.6c0,1.875,1.525,3.4,3.4,3.4c1.377,0,2.608-0.821,3.138-2.092L33.667,24h1.092
		l-4.674,21.501L19.121,56.465C18.398,57.188,18,58.149,18,59.172c0,0.665,0.186,1.282,0.488,1.828H5v2h41.581h0.559H59v-2h-8.653
		C50.418,60.855,50.484,60.708,50.536,60.552z M15,27C8.383,27,3,21.617,3,15S8.383,3,15,3s12,5.383,12,12S21.617,27,15,27z M38,7
		c0-2.206,1.794-4,4-4s4,1.794,4,4v2c0,2.206-1.794,4-4,4s-4-1.794-4-4V7z M43.384,61H25.558l10.213-9.428
		c0.742-0.685,1.254-1.566,1.481-2.55l2.389-10.354l8.175,5.723l-4.631,13.895C43.062,58.653,43,59.034,43,59.419
		C43,59.989,43.146,60.521,43.384,61z M46.581,61C45.709,61,45,60.291,45,59.419c0-0.17,0.027-0.338,0.081-0.5l5.104-15.311
		l-11.825-8.277l-3.057,13.242c-0.136,0.59-0.443,1.118-0.889,1.529l-11.28,10.413C22.796,60.828,22.355,61,21.828,61
		C20.82,61,20,60.18,20,59.172c0-0.481,0.195-0.953,0.535-1.293l11.38-11.38L37.241,22h-4.908l-4.641,11.139
		C27.475,33.662,26.967,34,26.4,34c-0.772,0-1.4-0.628-1.4-1.4v-0.107c0-0.188,0.039-0.378,0.113-0.552l4.998-11.662
		c0.379-0.885,1.167-1.537,2.106-1.746L40,16.802V14.65c0.627,0.223,1.298,0.35,2,0.35s1.373-0.128,2-0.35v1.93L51.734,21h1.884
		l4.605-9.211C58.467,11.303,58.956,11,59.573,11C60.36,11,61,11.64,61,12.427c0,0.221-0.052,0.441-0.15,0.639l-4.998,9.995
		c-0.351,0.703-1.158,1.078-1.932,0.889l-8.695-2.174l-2.331,11.656l9.679,7.039C53.466,41.121,54,42.17,54,43.275
		c0,0.374-0.06,0.742-0.178,1.096L48.639,59.92C48.424,60.565,47.821,61,47.14,61H46.581z"/>
	<rect x="1" y="61" width="2" height="2"/>
	<rect x="61" y="61" width="2" height="2"/>
	<rect x="5" y="55" width="10" height="2"/>
	<rect x="1" y="51" width="2" height="2"/>
	<rect x="5" y="51" width="15" height="2"/>
	<rect x="10" y="45" width="15" height="2"/>
	<rect x="6" y="41" width="2" height="2"/>
	<rect x="10" y="41" width="10" height="2"/>
	<rect x="5" y="35" width="10" height="2"/>
	<rect x="1" y="31" width="2" height="2"/>
	<rect x="5" y="31" width="16" height="2"/>
</g>
</svg>
