<?xml version="1.0" encoding="utf-8"?><!DOCTYPE svg PUBLIC "-//W3C//DTD SVG 1.1//EN" "http://www.w3.org/Graphics/SVG/1.1/DTD/svg11.dtd"><svg version="1.1" id="Contours" xmlns="http://www.w3.org/2000/svg" xmlns:xlink="http://www.w3.org/1999/xlink" x="0px" y="0px" width="1546.915527px" height="1546.915527px" viewBox="-0.000015 0.000012 1546.915527 1612.004395" enable-background="new 0 0 1546.915527 1546.915527" xml:space="preserve" stroke="black" fill="none" stroke-linecap='round' stroke-linejoin='round'><path class="selected"  fill="#000000" opacity="1.000000" stroke="none" 
 	d="
M441.415512 723.633899 C438.794357 720.346057 436.526962 717.655994 434.582443 714.749988 C430.595444 708.791248 431.410019 703.310291 434.622848 696.790393 C437.940414 690.057849 443.948532 688.482288 449.507431 686.470203 C452.482712 685.393299 457.068527 687.061023 460.306625 688.709461 C474.612411 695.992786 489.056686 702.866809 504.090561 708.582141 C508.083603 710.099964 511.198349 713.989978 514.636215 716.885852 C517.088730 718.952014 517.983993 719.002918 519.114975 715.400134 C520.293686 711.645008 522.597641 707.967029 525.264267 705.031848 C527.987167 702.034900 526.715683 700.431507 524.433334 698.698963 C521.418930 696.410755 518.295028 694.260852 515.155380 692.144641 C507.949264 687.287342 502.508957 681.542346 502.858261 671.936634 C503.326401 659.062366 516.713974 650.175159 529.028183 655.396594 C533.003158 657.081897 536.603622 659.802844 540.107162 662.410510 C545.031357 666.075305 547.803451 666.086414 550.589340 661.398181 C556.141098 652.055408 561.488388 642.590686 566.885483 633.156360 C573.974960 620.763538 581.051498 608.363269 588.090439 595.941516 C590.489609 591.707630 592.073715 588.476184 587.671127 583.323841 C581.047348 575.571887 585.905624 563.845203 595.510116 564.616565 C606.751571 565.519519 609.018539 558.313342 612.943710 551.417468 C617.711532 543.041370 622.971176 534.930042 627.386947 526.378284 C628.576278 524.074817 628.389633 520.162952 627.251694 517.729602 C624.237778 511.283924 620.086654 505.379260 616.894028 499.005725 C613.175278 491.581531 614.280624 487.551135 620.785385 481.264026 C626.812118 475.438953 630.492904 474.765979 637.860092 478.064197 C640.107651 479.070423 642.751449 479.531360 644.596054 481.011585 C646.850570 482.820667 648.454819 485.440174 650.340317 487.709094 C651.754379 484.961658 653.107528 482.180896 654.593490 479.473010 C659.513290 470.507434 663.615707 460.921253 669.681625 452.806629 C675.390732 445.168933 673.553940 437.393909 672.689682 429.746204 C671.641098 420.467639 669.469101 411.213489 666.791000 402.244861 C662.321396 387.276477 662.142441 371.636585 658.782944 356.553699 C656.689560 347.155628 654.650131 337.862415 654.903671 328.182239 C655.155014 318.586292 661.453842 312.311389 671.137314 312.133838 C683.141342 311.913745 691.043442 319.604480 693.062729 331.773059 C695.055038 343.779651 698.550644 355.530139 700.799911 367.503284 C702.103134 374.440418 702.165634 381.604968 702.994491 388.642688 C703.138778 389.868884 704.317856 390.973255 705.019028 392.133899 C705.651230 391.237537 706.404037 390.402576 706.895981 389.434925 C710.394272 382.554431 713.600570 375.514270 717.350937 368.775745 C725.200302 354.671497 733.301864 340.706775 741.361557 326.720447 C743.077865 323.741931 744.879989 320.780994 746.948105 318.042896 C753.635361 309.189136 754.477890 298.613147 754.735458 288.329273 C755.311142 265.344959 754.972153 242.336109 754.886459 219.337696 C754.854111 210.647937 757.986923 203.799488 765.234726 198.763477 C775.386459 191.709705 790.301987 197.495654 792.915756 209.642383 C794.948837 219.089954 796.802109 228.479968 793.031479 238.029712 C792.234482 240.048267 792.915512 242.650318 792.915512 244.983509 C792.915512 261.649280 793.571274 278.350025 792.682968 294.968311 C792.098862 305.895984 795.663315 314.741077 801.224716 323.551624 C808.701156 335.395740 815.835556 347.462024 822.880478 359.570423 C830.369491 372.441394 837.582138 385.473133 844.915634 398.434680 C845.221298 398.974719 845.528671 399.513904 845.835190 400.053577 C846.195175 399.256336 846.786117 398.485462 846.880722 397.657825 C848.264633 385.550037 849.286972 373.392444 851.001694 361.332996 C852.598495 350.104846 854.528671 338.890857 857.046005 327.837757 C858.849472 319.919055 865.019394 315.720020 872.696640 314.199146 C881.864120 312.382923 886.940292 319.002674 892.284530 324.644641 C892.999618 325.399646 892.871200 327.085437 892.893661 328.344592 C893.131454 341.613758 892.273178 354.728015 889.063217 367.721546 C887.537094 373.899402 887.593246 380.466663 886.913193 386.855335 C885.587875 399.303211 884.456161 411.776721 882.830551 424.185413 C881.977646 430.695667 880.263168 437.094226 878.912094 443.537830 C876.977646 452.764148 881.338363 460.285510 885.597397 467.764270 C889.448227 474.526233 893.880112 480.971912 897.471420 487.861560 C899.638534 492.018787 902.224228 492.900623 906.423446 491.674915 C917.405502 488.469226 926.134506 491.823718 929.425278 502.039661 C931.196274 507.537464 930.275375 514.050647 929.845199 520.053821 C929.584945 523.684436 927.638412 527.161121 926.977890 530.802844 C925.603012 538.382190 931.223984 543.682605 933.887070 549.900623 C935.178451 552.916004 937.985946 555.282215 940.107162 557.942249 C941.521225 555.194812 942.648422 552.247547 944.399887 549.735340 C951.358627 539.754749 958.227768 529.821155 962.138412 518.061511 C964.596420 510.669788 969.430771 506.414783 977.679794 503.446643 C984.743515 500.904895 987.902939 505.165027 992.137436 506.876697 C996.319320 508.567005 998.553085 513.389026 999.040878 518.748035 C1000.268783 532.239246 994.696274 543.312122 987.909164 554.206775 C981.822372 563.977527 976.106552 573.978992 970.174667 583.846912 C968.880356 585.999866 967.724472 588.442493 965.878158 590.015979 C961.363632 593.863391 962.284408 597.740222 964.895614 602.025867 C966.994125 605.470569 968.762802 609.122791 970.963119 612.496814 C972.780746 615.283679 975.334823 614.813220 977.263778 612.687854 C980.056869 609.610584 982.263901 605.988391 985.139389 603.001575 C992.304184 595.558948 999.820907 588.454456 1006.966781 580.994495 C1010.987900 576.796375 1014.279770 571.890369 1018.369858 567.769275 C1042.514023 543.442981 1066.795883 519.253528 1091.031479 495.017932 C1097.354599 488.694812 1103.295517 481.918079 1110.109482 476.177478 C1116.779526 470.558216 1125.416366 471.807971 1133.354965 472.429431 C1135.355209 472.585925 1138.341903 476.207996 1138.686630 478.558338 C1139.915634 486.939929 1138.840561 495.053211 1133.750351 502.400501 C1127.835190 510.937976 1121.525741 519.032581 1113.951156 526.218616 C1104.282089 535.391590 1094.941269 544.917957 1085.629257 554.458240 C1063.220077 577.417102 1040.854721 600.419666 1018.591293 623.519763 C1011.320419 631.064075 1004.773056 639.334583 997.216781 646.564319 C992.584213 650.996814 996.009262 654.256214 997.541244 657.600696 C1001.130600 665.436389 1002.229965 665.492908 1009.223007 660.859485 C1020.716293 653.244251 1032.357651 645.851673 1043.816757 638.186023 C1054.543564 631.010120 1065.101181 623.581897 1075.759140 616.302478 C1082.194443 611.906970 1089.426376 610.541858 1096.659286 613.047473 C1107.298080 616.732654 1111.337997 630.271350 1104.380722 639.418689 C1100.229477 644.876819 1095.240219 650.079090 1089.643783 653.987537 C1069.612289 667.976184 1049.383896 681.697376 1028.351913 694.189563 C1021.851059 698.050525 1021.649521 701.228137 1026.850082 707.015125 C1028.722153 709.098499 1029.917831 710.076648 1033.928207 708.752918 C1041.931991 706.110950 1049.379867 702.560901 1056.990097 699.147693 C1072.163315 692.342639 1087.180771 684.978015 1102.861069 679.584705 C1114.890121 675.447254 1123.481796 677.373035 1129.819687 686.054920 C1134.163925 692.005969 1134.335556 699.057971 1129.554062 704.334461 C1125.264877 709.067615 1120.944687 713.722644 1114.547958 716.266101 C1100.531112 721.839466 1086.735946 727.989734 1072.982528 734.197376 C1066.512314 737.117786 1060.596298 741.432483 1053.951034 743.737293 C1049.943588 745.127185 1050.388778 747.268421 1051.331650 749.360217 C1052.983993 753.025989 1054.719101 757.392932 1057.775986 759.471546 C1060.611435 761.399524 1064.854843 759.430652 1068.672470 758.459461 C1077.864120 756.121326 1087.498276 755.558826 1096.925033 754.094715 C1101.567856 753.373767 1106.202621 752.453479 1110.743637 751.254505 C1123.493637 747.888416 1136.457870 746.089099 1149.613510 746.223499 C1156.481430 746.293689 1161.565780 749.934314 1164.160507 756.416126 C1169.052719 768.636829 1160.717636 781.911853 1147.521225 784.230823 C1130.832626 787.163440 1114.278915 790.858631 1097.642074 794.096790 C1092.965927 795.006946 1088.220199 795.734363 1083.473251 796.054675 C1079.188339 796.343738 1080.467636 800.322864 1081.098251 800.992298 C1085.633652 805.805042 1087.567856 812.623035 1097.202621 812.723255 C1107.148422 812.826648 1117.557358 812.622791 1127.305649 814.510242 C1138.155746 816.611072 1148.817734 815.718372 1159.550278 816.076160 C1184.933334 816.922351 1210.371689 816.791492 1235.692001 818.485340 C1245.075912 819.112903 1254.510971 819.436267 1263.869980 820.301624 C1273.986435 821.237049 1281.163070 827.076526 1284.586166 836.851673 C1287.048324 843.882678 1277.666122 856.173328 1269.948959 858.343860 C1261.245346 860.791614 1252.969223 858.388660 1244.555649 857.981433 C1236.166488 857.575794 1227.541122 860.366931 1219.320419 856.249011 C1217.721786 855.448108 1215.377548 856.173328 1213.378647 856.128040 C1184.322983 855.469959 1155.265976 854.848865 1126.213974 854.054920 C1123.474106 853.980091 1120.792099 852.608386 1118.029770 852.210071 C1116.509872 851.990955 1114.878280 852.546131 1113.297104 852.752307 C1113.749740 854.125965 1113.997421 855.613635 1114.687607 856.855213 C1119.812485 866.073841 1125.106796 875.198474 1130.181747 884.443958 C1133.651840 890.765613 1139.859482 891.128528 1145.844589 892.139636 C1148.328598 892.559436 1150.870468 892.815540 1153.268539 893.536731 C1165.606186 897.247547 1163.359360 900.641590 1162.170639 909.859241 C1160.440170 923.278675 1158.672836 936.106922 1167.842270 948.554553 C1176.252426 959.971546 1182.277450 973.147083 1189.333603 985.559070 C1192.552475 991.221301 1195.471176 997.076526 1199.038559 1002.507434 C1200.479599 1004.701038 1203.306259 1007.462879 1205.476303 1007.440418 C1214.348251 1007.348621 1221.653549 1012.167346 1229.763778 1014.314319 C1242.287460 1017.629505 1254.541977 1021.999866 1266.819565 1026.189807 C1273.083603 1028.327503 1277.666488 1032.692127 1280.933822 1038.489246 C1285.222397 1046.098133 1282.404037 1053.300403 1277.312485 1058.176135 C1272.000473 1063.262805 1264.916611 1066.474353 1256.448105 1062.897571 C1249.361435 1059.904651 1241.684433 1058.296863 1234.237533 1056.186511 C1233.412826 1055.952747 1232.381943 1056.446277 1231.446762 1056.602649 C1231.799667 1057.309680 1232.115951 1058.037952 1232.510727 1058.720813 C1240.752548 1072.973865 1248.919784 1087.270862 1257.276108 1101.456409 C1265.177231 1114.869129 1273.358383 1128.116809 1281.253769 1141.532581 C1284.546860 1147.128162 1288.026962 1152.736194 1290.355209 1158.751331 C1295.022079 1170.807483 1285.648666 1183.613269 1272.083237 1184.080799 C1263.760238 1184.367786 1255.416244 1183.996448 1247.087875 1184.191883 C1242.925400 1184.289661 1238.671005 1185.759632 1234.654159 1185.200183 C1231.027450 1184.695300 1228.048935 1185.009143 1224.502304 1185.827136 C1220.357895 1186.783069 1215.589340 1186.534046 1211.250839 1185.977527 C1204.063217 1185.055652 1197.018051 1186.555164 1189.884994 1186.220081 C1181.902939 1185.845081 1173.889877 1186.133899 1165.890243 1186.133899 C1158.223984 1186.133899 1150.540146 1186.455432 1142.897079 1186.034412 C1136.520614 1185.683216 1131.582626 1187.806873 1127.532944 1192.511829 C1127.316025 1192.763782 1127.065536 1192.987049 1126.828110 1193.221057 C1116.889145 1203.014514 1113.108139 1202.532092 1104.612655 1190.960559 C1102.553818 1188.156360 1100.149887 1185.889270 1095.661362 1185.973987 C1076.002914 1186.345447 1056.333237 1186.118274 1036.667831 1186.171619 C1035.455551 1186.174915 1034.244736 1186.722034 1033.033310 1187.016101 C1033.426132 1188.154163 1033.559189 1189.489124 1034.250717 1190.400623 C1045.036728 1204.617542 1056.148422 1218.595447 1066.644272 1233.021839 C1073.266220 1242.123523 1079.557236 1251.567615 1084.956894 1261.427478 C1090.096908 1270.813098 1086.082626 1282.106189 1076.753525 1285.048572 C1069.349472 1287.383899 1061.201401 1288.120593 1055.219101 1281.320667 C1048.206405 1273.349719 1041.124130 1265.344592 1035.033310 1256.678699 C1024.059189 1241.065540 1013.211899 1225.398792 1000.753403 1210.897327 C995.329574 1204.583972 990.412460 1197.838001 985.129623 1191.399890 C982.389023 1188.059802 979.420517 1185.646350 974.320053 1185.973255 C965.357284 1186.547717 956.326034 1186.321887 947.333969 1186.062122 C942.088608 1185.910877 941.882065 1188.119739 943.738022 1191.962390 C945.481430 1195.572009 947.150009 1199.218250 948.923446 1202.812854 C953.566391 1212.224231 958.171982 1221.655506 962.944809 1231.000965 C965.754623 1236.502796 970.132797 1240.951526 971.536362 1247.487781 C973.287826 1255.645252 969.540634 1267.591907 962.494736 1271.554553 C958.031601 1274.064441 944.906601 1271.833728 940.959945 1266.959217 C935.823959 1260.616077 930.114731 1254.127551 927.241318 1246.699939 C922.505234 1234.457263 915.764999 1223.426013 909.786728 1211.917224 C906.524399 1205.636463 903.608017 1199.145862 900.994980 1192.567493 C898.991318 1187.522937 895.626327 1185.877918 890.449936 1186.063098 C882.793564 1186.337024 875.119003 1186.055896 867.454208 1186.161121 C862.332504 1186.231433 861.995712 1186.839466 863.658798 1191.873157 C868.271713 1205.834339 871.769638 1219.954090 870.955185 1234.866809 C870.328720 1246.338855 857.695419 1255.464099 848.112411 1249.799182 C840.821762 1245.489124 834.931991 1238.257800 833.013778 1229.326526 C831.220810 1220.978137 830.035995 1212.479236 828.998276 1203.995960 C828.414047 1199.219837 823.809799 1194.466541 828.540878 1189.508533 C827.256698 1188.383655 825.999496 1186.321399 824.684067 1186.283557 C815.025863 1186.006214 805.344955 1185.899280 795.700546 1186.357898 C794.033920 1186.437122 791.998886 1189.217029 791.072861 1191.190174 C790.303695 1192.829090 790.915512 1195.116199 790.915512 1197.116077 C790.915512 1230.447498 790.918564 1263.779041 790.914047 1297.110462 C790.912216 1310.166614 787.414902 1315.080432 775.010238 1318.939807 C773.139023 1319.522083 770.796127 1319.610095 768.938583 1319.046253 C757.880112 1315.690174 753.092026 1308.741077 752.883529 1297.102893 C752.309311 1265.045764 751.534042 1232.992420 750.991684 1200.934802 C750.939071 1197.825916 751.698471 1194.629016 752.535019 1191.598255 C753.522323 1188.020862 751.343735 1186.424549 748.781601 1186.263538 C742.473495 1185.867420 736.119491 1186.017200 729.795395 1186.254993 C728.804428 1186.292224 727.411362 1187.771961 727.008163 1188.877796 C726.053329 1191.496448 725.211288 1194.260486 724.981918 1197.020618 C724.146957 1207.063342 724.322006 1217.245960 722.745102 1227.157825 C720.278671 1242.662097 705.359970 1250.468006 695.070419 1244.149158 C688.642196 1240.201526 684.378525 1235.119007 684.894760 1227.026111 C685.642196 1215.307971 686.007187 1203.559925 687.027450 1191.867542 C687.472763 1186.763172 685.791611 1185.741687 681.047470 1186.015491 C673.406601 1186.456409 665.702743 1186.461048 658.062362 1186.015857 C653.177963 1185.731067 650.511215 1188.320423 649.002914 1191.958362 C640.158188 1213.293323 632.402328 1235.124500 622.607528 1256.003894 C616.741440 1268.508411 609.940170 1275.570178 597.109237 1274.197254 C588.382675 1273.263538 581.001816 1262.200427 582.295517 1253.518543 C583.768905 1243.630115 589.547226 1235.799915 593.019760 1226.905506 C597.608871 1215.150623 602.962631 1203.695056 607.943588 1192.091785 C610.135849 1186.984607 609.604111 1186.162097 603.691025 1186.154773 C569.359604 1186.112171 534.945297 1184.690174 500.726669 1186.655994 C478.947311 1187.907215 457.248825 1187.406970 435.524826 1187.984607 C431.235702 1188.098743 430.411728 1189.562488 430.917282 1193.105701 C431.640182 1198.172717 430.150070 1202.535022 426.928329 1206.458728 C417.348984 1218.125476 410.005478 1231.549060 398.499191 1241.738391 C394.182968 1245.560291 391.275314 1250.958362 387.012314 1254.858020 C378.424240 1262.714099 369.681686 1270.486804 360.346481 1277.408557 C354.736191 1281.568469 347.676681 1280.993884 340.930343 1279.180652 C331.252426 1276.579456 327.144211 1258.907703 334.913498 1251.136218 C340.097885 1245.950305 345.411606 1240.886218 350.437912 1235.551380 C357.396286 1228.166004 364.015304 1220.459949 371.004928 1213.105335 C379.869308 1203.778064 388.704941 1194.357532 401.439865 1190.048694 C402.731003 1189.612049 403.620285 1187.987659 404.696152 1186.914539 C403.137375 1186.654407 401.306076 1185.730579 400.063644 1186.240711 C391.490585 1189.761096 382.577255 1187.970569 373.848923 1188.042224 C344.519150 1188.283313 315.186203 1188.161121 285.854538 1188.119129 C275.624985 1188.104480 265.924545 1181.576282 265.006576 1173.620349 C264.036606 1165.213733 265.099411 1157.220081 270.107284 1149.753894 C276.693832 1139.933826 282.582260 1129.636707 288.578415 1119.431629 C297.863754 1103.628406 307.021713 1087.749988 316.165756 1071.864246 C322.357895 1061.106922 328.416855 1050.273059 334.565414 1039.490467 C342.561630 1025.467639 350.640243 1011.491565 358.586349 997.440418 C367.134323 982.325061 375.526779 967.121692 384.078415 952.008411 C386.991867 946.859363 390.096420 941.812488 393.273361 936.820545 C395.820053 932.818836 395.744491 932.726428 390.698959 932.073108 C388.263107 931.757678 385.869491 930.918811 383.527939 930.110584 C377.640487 928.078357 375.365463 923.353259 374.966903 917.635242 C374.547592 911.619007 377.392196 906.666126 382.575668 904.275867 C394.053512 898.983509 403.999985 890.766712 416.812179 887.835437 C423.169479 886.380969 425.667526 879.185901 428.937424 873.739612 C432.472030 867.852649 436.080612 862.004749 439.851364 856.267566 C441.688522 853.472156 441.631820 851.896350 437.896713 852.166248 C430.165512 852.725574 422.454757 853.920276 414.722641 854.042957 C396.728195 854.328601 378.636825 853.030261 360.754867 854.477161 C345.995834 855.671375 331.289718 856.483753 316.564926 855.945789 C308.936325 855.666980 302.003525 852.855701 298.387375 844.727039 C293.000229 832.617786 301.273971 818.635974 314.158920 818.193958 C339.541000 817.323474 365.060470 818.125842 390.286667 815.738147 C412.754684 813.611682 435.107162 814.958118 457.493454 814.177112 C460.911484 814.057605 463.627914 814.105579 465.089950 809.860706 C466.479416 805.826404 469.026840 802.077869 471.594101 798.593494 C474.252304 794.985584 473.208908 793.726184 469.318283 794.191150 C461.182236 795.163318 456.115280 790.293079 450.983566 785.243030 C447.193893 781.513538 446.770431 777.362293 448.922897 772.748523 C451.298141 767.656848 454.039352 762.315784 460.403976 762.311145 C466.395859 762.306751 472.573349 763.121936 478.340866 764.743762 C488.592514 767.626697 490.556564 767.237049 494.895248 758.365833 C495.704208 756.711658 496.022262 754.788074 496.978073 753.243396 C497.965317 751.647693 499.453842 750.362415 500.723007 748.941394 C498.777511 748.005603 496.892929 746.904285 494.876755 746.159900 C477.515121 739.749744 459.884933 733.975574 443.954452 724.232044 C443.445236 723.920642 442.602646 724.154285 441.415512 723.633899 M488.915573 847.133899 C485.854782 852.861438 482.947922 858.677722 479.703415 864.299182 C470.850204 879.638172 461.779953 894.851795 452.940414 910.198596 C446.442123 921.480457 440.299850 932.968128 433.770187 944.231311 C424.259872 960.636463 414.381637 976.829456 404.971786 993.291126 C398.525192 1004.568714 392.859604 1016.293445 386.398605 1027.562366 C375.422958 1046.705310 364.080551 1065.637805 352.919723 1084.674793 C342.233444 1102.902210 331.547531 1121.130115 320.955185 1139.412097 C319.474716 1141.967395 318.528976 1144.832508 317.335617 1147.554065 C320.254318 1147.747302 323.172958 1148.109485 326.091659 1148.109973 C522.009628 1148.136585 717.927475 1148.140247 913.845444 1148.077381 C916.989487 1148.076404 920.137924 1146.847522 923.275863 1146.885730 C926.048080 1146.919300 928.871078 1150.078967 931.516830 1146.532581 C935.707626 1150.471424 939.351425 1144.890613 943.744736 1145.889270 C948.497055 1146.969592 953.684799 1146.133899 958.682724 1146.133899 C1047.978622 1146.133899 1137.274643 1146.133899 1226.570541 1146.133899 C1228.569687 1146.133899 1230.568954 1146.119983 1232.567978 1146.137073 C1236.085190 1146.167102 1238.452377 1146.315662 1235.470077 1141.470935 C1229.139877 1131.187488 1223.622299 1120.406604 1217.648666 1109.899646 C1213.041488 1101.796131 1208.310165 1093.761218 1203.522079 1085.762927 C1195.366318 1072.138782 1186.917099 1058.686145 1178.971298 1044.941883 C1170.442367 1030.189441 1162.612533 1015.031116 1154.002060 1000.328235 C1143.928085 983.126819 1133.209945 966.303821 1123.020248 949.168567 C1115.726913 936.903552 1108.943466 924.336536 1101.752060 912.009509 C1092.194443 895.626575 1082.046860 879.574573 1072.900009 862.968616 C1058.977402 837.692737 1041.666000 814.960071 1021.765976 794.283313 C1011.884872 784.016467 1000.237411 775.471546 989.686020 765.822864 C973.726303 751.228626 955.423691 740.140979 936.429062 730.223987 C910.881943 716.886218 884.289413 706.582385 856.062973 699.640125 C836.838241 694.911853 817.495468 691.743762 798.084457 690.539783 C769.869125 688.789661 741.518295 689.566150 713.598617 695.991809 C700.236801 699.067127 686.808212 701.582630 673.758041 706.034656 C647.930527 714.845569 623.175400 725.377185 599.673935 739.744495 C575.469345 754.541614 553.565780 771.792713 533.112778 791.112293 C525.516586 798.287586 518.739364 806.358509 511.862533 814.259509 C503.352524 824.036853 494.903854 833.908801 488.915573 847.133899 M611.915512 632.133899 C610.734970 634.647815 609.751816 637.278797 608.341659 639.656604 C599.450912 654.648548 590.307724 669.492908 581.556015 684.564807 C573.148422 699.044177 565.191025 713.784290 556.860458 728.309314 C554.825302 731.857898 552.006576 734.949573 549.771469 738.396228 C549.236679 739.220813 549.596542 740.625476 549.545028 741.763416 C550.682968 741.539173 551.916488 741.514636 552.929306 741.029285 C553.779770 740.621570 554.374130 739.678089 555.079574 738.969592 C570.903671 723.074085 590.245712 712.093372 609.353988 700.966175 C620.504013 694.473133 632.378647 688.995349 644.412826 684.306751 C659.923691 678.263416 675.629501 672.219470 691.782211 668.451160 C711.754867 663.791736 732.166244 660.102161 752.583969 658.516345 C773.186264 656.915882 794.146347 656.922717 814.653671 660.483142 C819.778061 661.372791 824.904037 661.215320 829.858749 662.250354 C840.830185 664.542591 851.668197 667.472888 862.562973 670.132678 C880.322738 674.468128 897.695541 679.849842 914.118149 688.090076 C926.518783 694.312000 939.617904 699.294666 951.507065 706.344837 C966.615219 715.303821 980.817489 725.790637 995.400619 735.633411 C996.386703 736.299060 997.291611 737.085071 998.234237 737.815051 C997.981552 736.441516 998.082748 734.862659 997.423202 733.725086 C987.130722 715.979846 976.835190 698.234973 966.347519 680.604602 C953.296127 658.664173 939.902450 636.926135 926.969589 614.916736 C917.227279 598.336658 908.141464 581.371570 898.467026 564.750476 C886.105820 543.513660 873.368515 522.495960 860.939926 501.297962 C850.730331 483.884632 840.870224 466.265979 830.607773 448.884387 C819.526962 430.116565 808.124374 411.538928 796.927353 392.839466 C789.257553 380.030628 781.734360 367.133899 774.012436 354.356922 C773.491440 353.494739 772.716171 350.327381 770.675888 354.525501 C765.127426 365.941516 758.475448 376.825672 752.164657 387.865711 C742.457016 404.848133 732.643173 421.769641 722.925033 438.746082 C716.605697 449.784900 710.408920 460.893787 704.099350 471.938098 C694.397690 488.920276 684.632797 505.866199 674.920273 522.842395 C668.602157 533.885486 662.430771 545.013538 656.013290 555.998523 C646.443344 572.379505 636.607162 588.605579 627.097763 605.021472 C622.134750 613.589221 617.628280 622.421253 611.915512 632.133899 z"/><path class="selected"  fill="#000000" opacity="1.000000" stroke="none" 
 	d="
M475.415512 571.633899 C461.501999 557.720447 448.276535 544.111438 434.611923 530.958972 C424.749069 521.465808 427.490829 504.776477 440.662521 499.371082 C449.698044 495.663196 456.936874 499.666370 463.029342 505.440051 C475.344589 517.110584 486.997726 529.476306 499.163864 541.308704 C511.194626 553.009509 523.084457 564.922840 535.882065 575.742298 C543.536850 582.213855 548.354111 590.012561 553.130478 598.470325 C557.296860 605.847888 554.308945 612.444690 550.452011 616.647571 C547.115463 620.283679 541.557113 624.212634 533.657089 620.697864 C527.848007 618.113147 522.072616 615.480457 517.601181 611.493762 C503.343002 598.780872 489.759567 585.311267 475.415512 571.633899 z"/><path class="selected"  fill="#000000" opacity="1.000000" stroke="none" 
 	d="
M210.915512 856.133899 C201.202682 856.777576 192.556015 855.845813 183.690048 857.690418 C176.430588 859.200916 168.086593 857.831897 160.707809 855.894397 C149.382980 852.920642 145.413681 836.187244 152.864670 827.084339 C158.487106 820.215442 165.815231 818.138050 174.158249 818.135974 C198.456955 818.130115 222.756332 818.218372 247.053818 818.044666 C250.776535 818.018054 254.567367 815.981067 258.191452 816.320056 C264.066391 816.869739 270.071274 817.989612 275.544662 820.103015 C278.618637 821.289783 281.740402 824.510364 283.098984 827.584339 C287.468246 837.471179 285.726547 851.353504 270.067795 854.460071 C257.227585 857.007678 244.587082 855.354724 231.883346 856.068225 C225.247116 856.441028 218.572677 856.133899 210.915512 856.133899 z"/><path class="selected"  fill="#000000" opacity="1.000000" stroke="none" 
 	d="
M1302.415512 930.633899 C1303.076401 934.306262 1303.919906 937.625232 1303.275497 940.624622 C1300.967880 951.367175 1295.364487 956.950794 1285.206039 957.952747 C1280.933945 958.374134 1276.422836 957.001575 1272.093490 956.095691 C1259.873642 953.538562 1247.734604 950.574939 1235.476425 948.227527 C1229.204208 947.026477 1222.689804 947.126575 1216.382919 946.059680 C1206.190780 944.335681 1196.029159 942.355579 1185.949203 940.067127 C1177.090072 938.056018 1172.104111 931.651233 1169.293197 923.446033 C1167.915878 919.425281 1172.624496 908.324817 1176.517319 906.163440 C1184.650863 901.647571 1192.799789 900.852283 1202.036117 903.867298 C1210.044174 906.481555 1218.814438 906.725696 1227.224960 908.151477 C1239.638412 910.255725 1252.049179 912.384143 1264.423935 914.701038 C1268.988632 915.555774 1273.414047 917.779407 1277.961899 917.969104 C1287.986191 918.387439 1295.627914 922.741077 1302.415512 930.633899 z"/><path class="selected"  fill="#000000" opacity="1.000000" stroke="none" 
 	d="
M422.415512 489.633899 C411.464096 495.059192 404.444687 494.190784 396.620834 486.820300 C383.905197 474.841419 370.912216 463.130115 358.681137 450.672595 C350.078964 441.911243 342.199692 432.369861 334.640365 422.675647 C327.803512 413.907703 329.471115 403.427478 337.889999 396.159412 C344.991928 390.028430 356.563217 390.659534 363.742172 398.034534 C379.412155 414.132190 395.411972 429.963001 410.160873 446.876209 C415.987411 453.557849 423.032760 459.755359 425.559738 469.407459 C427.507309 476.846179 427.519882 483.041126 422.415512 489.633899 z"/><path class="selected"  fill="#000000" opacity="1.000000" stroke="none" 
 	d="
M1185.415512 765.633899 C1174.803329 759.555408 1173.729721 748.008045 1183.697616 742.690784 C1194.811752 736.762317 1206.758163 732.376331 1219.340561 730.098621 C1233.218979 727.586292 1246.996811 724.482532 1260.917343 722.253772 C1269.176864 720.931507 1277.616928 720.531360 1285.994736 720.213123 C1293.684189 719.921131 1303.246689 726.495716 1304.915634 732.578601 C1307.323105 741.353259 1303.930893 749.440296 1294.871322 753.998035 C1289.425155 756.737781 1283.420761 759.308704 1277.462021 759.904895 C1262.033554 761.448963 1247.201278 766.751331 1231.920273 767.735584 C1218.042587 768.629505 1203.759384 770.269885 1189.889389 766.181629 C1188.666244 765.821155 1187.244858 766.133899 1185.415512 765.633899 z"/><path class="selected"  fill="#000000" opacity="1.000000" stroke="none" 
 	d="
M1040.415512 401.633899 C1044.450058 397.599353 1047.831405 393.893421 1051.549545 390.563953 C1060.792099 382.287219 1076.372665 385.361682 1080.120590 396.499011 C1082.927475 404.840076 1080.304062 412.960681 1075.828354 420.041004 C1069.936386 429.361804 1063.175278 438.129016 1056.935409 447.235340 C1048.587387 459.418079 1040.509018 471.787342 1032.060898 483.899158 C1027.675644 490.185901 1013.032821 494.317737 1005.634018 491.852405 C999.803451 489.909656 994.963974 480.049915 995.992538 473.940662 C997.895370 462.639148 1005.122421 454.242420 1011.005966 445.160877 C1020.399887 430.661365 1030.255234 416.460803 1040.415512 401.633899 z"/><path class="selected"  fill="#000000" opacity="1.000000" stroke="none" 
 	d="
M1406.915512 860.133899 C1398.593612 860.133899 1391.157699 860.959339 1383.972885 859.966907 C1367.621445 857.708240 1351.178329 859.056384 1334.883652 857.780872 C1326.512070 857.125476 1317.964096 853.724842 1310.332016 849.897327 C1301.016342 845.225574 1301.697250 829.390491 1310.775253 824.147693 C1315.492782 821.423206 1320.394150 819.941516 1326.085556 820.014392 C1348.713119 820.304431 1371.347397 820.229602 1393.977768 820.077747 C1401.092880 820.030017 1407.697494 821.471912 1414.327499 824.029041 C1423.482773 827.560169 1426.879013 831.812854 1426.915634 841.738635 C1426.949570 850.990222 1424.027206 854.729602 1414.074692 858.129505 C1412.031723 858.827381 1409.969101 859.467273 1406.915512 860.133899 z"/><path class="selected"  fill="#000000" opacity="1.000000" stroke="none" 
 	d="
M1143.415512 570.633899 C1149.201156 566.848255 1154.613510 563.748157 1159.744858 560.237049 C1169.354965 553.661731 1178.289779 545.876331 1188.505722 540.492053 C1194.805527 537.171985 1201.605331 533.307117 1209.770981 533.992908 C1221.574325 534.984241 1228.102035 545.499378 1222.909164 556.318347 C1218.128525 566.278430 1209.725693 572.837268 1201.020248 578.946277 C1188.703964 587.589343 1176.340805 596.195911 1163.622665 604.223865 C1157.147690 608.311023 1151.146835 613.830799 1143.136093 614.803577 C1137.837143 615.446887 1132.018051 616.498767 1127.140976 615.023303 C1113.768539 610.977893 1113.921493 595.334705 1120.914779 587.514759 C1125.687729 582.177356 1132.337265 578.509632 1138.189194 574.150989 C1139.684311 573.037342 1141.335800 572.133899 1143.415512 570.633899 z"/><path class="selected"  fill="#000000" opacity="1.000000" stroke="none" 
 	d="
M756.915512 1424.133899 C756.915512 1399.171741 756.944320 1375.209583 756.903183 1351.247425 C756.883163 1339.520862 763.082504 1332.654651 772.741195 1329.015125 C778.385727 1326.888172 782.292831 1329.856922 785.572006 1332.225330 C791.629745 1336.600696 795.012436 1343.110706 794.967636 1351.141956 C794.826523 1376.434680 794.945785 1401.728382 794.901230 1427.021839 C794.882431 1437.651721 788.968124 1445.119251 780.933945 1450.937854 C776.076156 1454.455921 770.806137 1452.048694 766.883041 1448.879016 C759.487778 1442.904407 755.811142 1434.906604 756.915512 1424.133899 z"/><path class="selected"  fill="#000000" opacity="1.000000" stroke="none" 
 	d="
M1222.915512 1266.133899 C1226.507919 1272.962024 1228.564194 1278.685169 1224.687973 1285.504993 C1219.535629 1294.570423 1208.459091 1299.757312 1197.978988 1292.108020 C1191.277450 1287.216785 1184.521347 1282.266590 1178.528183 1276.566516 C1166.251205 1264.889636 1154.243637 1252.905994 1142.584945 1240.612537 C1136.936264 1234.656482 1131.862167 1228.158801 1132.764755 1218.734363 C1133.425644 1211.834949 1135.279281 1206.713123 1142.165634 1203.717029 C1149.017929 1200.736072 1155.528671 1201.069080 1161.000229 1205.489002 C1167.124985 1210.436389 1172.212753 1216.647083 1177.939194 1222.111804 C1189.102524 1232.765003 1200.424667 1243.251819 1211.620956 1253.870716 C1215.477524 1257.528430 1219.155746 1261.374134 1222.915512 1266.133899 z"/><path class="selected"  fill="#000000" opacity="1.000000" stroke="none" 
 	d="
M1177.415512 414.633899 C1183.883407 406.711658 1190.817978 400.480579 1198.695053 394.998645 C1203.037582 391.976550 1205.538803 386.444080 1209.494613 382.703723 C1218.441513 374.244007 1235.185409 377.611194 1238.524643 389.258777 C1240.169052 394.994861 1240.702499 402.296131 1236.883285 408.255237 C1231.855453 416.099842 1225.844589 422.766345 1218.096542 428.445789 C1209.877060 434.470813 1203.409530 442.852283 1195.970321 449.989368 C1192.264511 453.544666 1187.865951 456.381458 1184.190414 459.963611 C1177.912582 466.081775 1169.968246 464.876453 1163.023422 463.645496 C1159.199325 462.967517 1154.320663 457.819202 1153.291366 453.818347 C1150.595321 443.338489 1155.284408 434.384265 1162.958847 427.163928 C1167.427963 422.959217 1172.251449 419.131336 1177.415512 414.633899 z"/><path class="selected"  fill="#000000" opacity="1.000000" stroke="none" 
 	d="
M384.915512 656.133899 C395.576217 663.684925 407.363449 667.013538 418.088547 672.447986 C424.716659 675.806262 429.785873 680.448718 431.127243 688.819568 C432.578537 697.875965 425.676437 707.383045 416.642685 708.286243 C405.959945 709.354114 396.627304 705.820667 387.406418 701.551380 C375.668991 696.117175 364.256576 689.956531 352.389877 684.837390 C346.855881 682.450183 342.356735 679.162342 338.636581 674.749378 C334.433090 669.763172 333.337997 664.052478 336.169235 657.863758 C339.144089 651.361194 343.833237 647.107532 351.115707 646.135974 C358.672592 645.127674 365.543625 647.551502 372.262802 650.518176 C376.205063 652.258655 380.035080 654.253406 384.915512 656.133899 z"/><path class="selected"  fill="#000000" opacity="1.000000" stroke="none" 
 	d="
M485.415512 1281.633899 C472.541672 1274.480335 468.357406 1265.073841 477.738144 1250.418567 C486.513656 1236.708972 495.510666 1223.114734 505.033188 1209.919422 C511.057846 1201.570911 518.125839 1193.853626 529.894760 1194.145862 C538.282577 1194.353870 544.220199 1200.807971 545.029403 1209.291248 C545.707626 1216.401233 543.532455 1222.472278 539.853622 1228.125354 C531.663193 1240.711658 523.323959 1253.203601 514.865829 1265.611682 C512.333359 1269.327136 509.258957 1272.681507 506.342209 1276.124378 C500.868271 1282.585681 493.428757 1282.520496 485.415512 1281.633899 z"/><path class="selected"  fill="#000000" opacity="1.000000" stroke="none" 
 	d="
M476.415512 432.633899 C474.744308 429.629383 473.525436 427.145740 472.410019 424.616687 C467.214218 412.835071 475.259140 400.779163 487.945846 399.946521 C496.591049 399.378894 502.319626 403.330921 507.011642 409.355213 C517.330551 422.604114 527.387802 436.062610 537.296249 449.622425 C541.038437 454.743640 543.301742 460.420276 543.072006 467.211536 C542.817856 474.721057 540.227402 480.146472 533.125351 482.880847 C526.060898 485.600452 518.904159 485.472034 513.643417 479.653552 C505.033127 470.130603 496.984054 460.085559 488.970871 450.043201 C484.659653 444.640369 480.915512 438.785022 476.415512 432.633899 z"/><path class="selected"  fill="#000000" opacity="1.000000" stroke="none" 
 	d="
M302.915512 954.133899 C293.224472 956.291736 284.422165 958.511951 275.549728 955.972888 C272.099045 954.985462 268.795090 952.600330 266.065536 950.140369 C257.172409 942.124988 260.778732 931.634387 268.677719 924.094348 C273.092819 919.879749 278.960678 919.860217 284.209091 918.275379 C291.645309 916.029773 299.333114 914.525501 306.990768 913.128528 C316.453659 911.402210 325.945602 909.012073 335.646408 910.223865 C342.914230 911.131824 347.583542 916.190784 350.141037 922.564075 C352.378341 928.139270 351.098312 933.738880 347.373764 938.723377 C341.298202 946.854236 332.519943 948.874622 323.195236 950.211536 C316.714401 951.140735 310.338363 952.800525 302.915512 954.133899 z"/><path class="selected"  fill="#000000" opacity="1.000000" stroke="none" 
 	d="
M116.915512 820.133899 C134.848862 821.450550 141.054672 834.413928 134.945480 847.740344 C131.787277 854.629505 125.446213 857.217639 119.038315 857.913074 C106.068832 859.320423 92.967880 859.668933 79.909530 860.013538 C75.875107 860.120105 71.687851 859.196521 67.770859 858.056384 C57.795151 855.152820 54.271957 849.595935 54.915451 838.709461 C55.351730 831.329944 62.087570 823.444446 69.784469 822.226673 C76.768295 821.121570 83.863937 820.498279 90.932480 820.212634 C99.247665 819.876819 107.586777 820.133899 116.915512 820.133899 z"/><path class="selected"  fill="#000000" opacity="1.000000" stroke="none" 
 	d="
M407.415512 604.633899 C391.801071 609.609851 379.784347 602.783435 368.246567 594.429187 C361.817367 589.773548 355.487228 584.976184 349.209579 580.117298 C339.916122 572.924426 338.394516 565.690906 342.982223 555.215442 C347.433456 545.051502 359.562546 541.664050 370.328537 548.298206 C383.838241 556.622913 397.741134 564.963245 408.267502 576.947986 C415.528000 585.214466 419.165268 595.374378 407.415512 604.633899 z"/><path class="selected"  fill="#000000" opacity="1.000000" stroke="none" 
 	d="
M196.415512 1213.633899 C197.562301 1204.764148 205.649826 1202.771106 210.354843 1198.038806 C216.872543 1191.483264 224.482528 1185.980579 231.837448 1180.302600 C236.590622 1176.633045 241.741134 1173.412830 248.203110 1174.163318 C251.325424 1174.525989 255.185531 1174.229358 257.341415 1175.949085 C261.020981 1178.884265 264.482040 1182.766956 266.472091 1186.988391 C269.434494 1193.272571 264.631759 1203.238025 258.293381 1208.209094 C249.180832 1215.355945 240.653427 1223.251087 231.508041 1230.352649 C227.405502 1233.538562 222.686691 1236.727405 217.766403 1237.906116 C205.591659 1240.822254 192.053879 1230.980335 196.415512 1213.633899 z"/><path class="selected"  fill="#000000" opacity="1.000000" stroke="none" 
 	d="
M668.415512 1350.633899 C661.858993 1343.824573 658.014999 1337.264270 660.666488 1327.649036 C662.605453 1320.617298 661.971420 1312.914173 662.981308 1305.578723 C664.451523 1294.899036 668.270492 1285.085437 675.321274 1276.747547 C680.217514 1270.957630 687.330063 1270.887805 693.277206 1272.519519 C698.516952 1273.957263 699.744003 1280.002918 701.178940 1285.617175 C705.415390 1302.192859 700.228134 1318.075916 698.484726 1334.100452 C697.835434 1340.069324 694.360458 1346.902942 687.737167 1350.334827 C681.559067 1353.536243 675.254745 1352.432239 668.415512 1350.633899 z"/><path class="selected"  fill="#000000" opacity="1.000000" stroke="none" 
 	d="
M784.915512 1484.133899 C791.638412 1490.511096 795.257919 1496.664905 793.386337 1506.543811 C791.322983 1517.434680 793.223617 1529.029895 792.806869 1540.296253 C792.530502 1547.765491 789.740341 1554.338001 782.582504 1558.135120 C770.475326 1564.557971 755.697372 1556.428577 755.050644 1542.360950 C754.426498 1528.785022 753.483383 1514.966419 755.272201 1501.601428 C757.592758 1484.264514 769.741440 1477.978870 784.915512 1484.133899 z"/><path class="selected"  fill="#000000" opacity="1.000000" stroke="none" 
 	d="
M278.915512 726.133899 C286.000473 722.823963 292.301132 725.864978 298.124435 726.533801 C309.455551 727.835437 320.651535 731.024646 331.639389 734.314197 C337.440292 736.050769 342.778305 739.476306 348.153061 742.450550 C352.817550 745.031970 354.090988 749.680774 352.756332 754.331165 C351.431198 758.947986 346.802292 761.576160 342.615341 761.870227 C335.929184 762.339710 329.127487 761.029529 322.366073 760.611316 C317.790695 760.328235 313.187729 759.993152 308.619186 760.190784 C296.692550 760.706897 285.354416 758.287219 274.254135 754.164050 C268.328903 751.963245 263.113083 746.262195 262.915451 741.295520 C262.584945 732.984851 267.453415 728.063953 278.915512 726.133899 z"/><path class="selected"  fill="#000000" opacity="1.000000" stroke="none" 
 	d="
M192.915512 466.133899 C193.664596 459.048206 194.712265 453.276477 200.502060 449.439197 C207.252670 444.965198 218.287033 444.172717 224.376083 448.666004 C233.079635 455.088611 242.035080 461.287830 250.007553 468.544177 C255.943954 473.947254 260.853927 480.427967 257.046860 489.924671 C253.256149 499.380481 244.648666 504.549671 235.252487 501.423572 C219.755844 496.267688 207.282272 486.571033 196.522629 474.581775 C194.752182 472.608997 194.089889 469.641590 192.915512 466.133899 z"/><path class="selected"  fill="#000000" opacity="1.000000" stroke="none" 
 	d="
M933.415512 473.633899 C929.702621 471.254260 926.362045 469.559558 923.307480 467.450550 C919.004623 464.479724 917.159164 459.272571 919.578354 454.618152 C927.413681 439.543079 933.956405 423.993762 939.014267 407.765369 C940.652695 402.508899 944.861557 401.407337 950.365951 404.168811 C956.710922 407.352039 963.064316 410.567981 969.118149 414.255725 C971.341537 415.610095 972.968002 417.567859 971.145737 421.427112 C968.143539 427.784656 967.018661 435.001819 964.355209 441.552844 C960.768417 450.375476 956.637802 458.990711 952.442123 467.548694 C946.431869 479.807605 944.890854 480.255359 933.415512 473.633899 z"/><path class="selected"  fill="#000000" opacity="1.000000" stroke="none" 
 	d="
M259.415512 342.633899 C265.706161 329.797962 269.316330 327.108753 280.612472 328.281848 C284.468674 328.682605 289.031906 329.827136 291.752670 332.302234 C303.579330 343.060657 314.958725 354.353382 320.013778 370.234485 C322.230209 377.197498 315.084884 387.433704 308.057052 388.226062 C298.575119 389.295032 291.238205 385.901355 284.873825 379.165759 C278.953903 372.900501 272.703476 366.947986 266.623276 360.833484 C261.759933 355.942615 258.587570 350.295154 259.415512 342.633899 z"/><path class="selected"  fill="#000000" opacity="1.000000" stroke="none" 
 	d="
M423.415512 283.633899 C430.162033 290.616992 431.844162 298.523425 430.890060 307.150318 C430.043747 314.802967 419.980453 320.636096 412.333786 318.655139 C401.306503 315.798389 392.989548 310.338672 388.737472 299.143909 C386.455978 293.137256 382.162948 287.895862 379.869980 281.891956 C376.324081 272.607532 381.353439 262.619068 390.941940 258.133960 C399.503403 254.129138 407.482101 256.541858 413.002792 265.322009 C416.614425 271.066028 419.631943 277.183582 423.415512 283.633899 z"/><path class="selected"  fill="#000000" opacity="1.000000" stroke="none" 
 	d="
M282.415512 534.633899 C274.204574 529.505847 268.057297 524.187976 268.799850 513.770130 C269.632675 502.084583 281.252243 493.170398 292.387741 496.656970 C304.946701 500.589221 315.314804 508.317249 324.700302 517.147693 C331.057724 523.129138 330.337631 532.899524 326.612961 539.277210 C322.008102 547.162464 313.386642 550.070911 304.900314 547.019031 C300.872177 545.570545 297.049850 543.479480 293.271103 541.427722 C289.725448 539.502551 286.360092 537.245227 282.415512 534.633899 z"/><path class="selected"  fill="#000000" opacity="1.000000" stroke="none" 
 	d="
M957.415512 360.633899 C959.791855 354.924304 961.512070 349.651843 963.578964 344.519031 C967.167587 335.607288 973.353744 333.218372 982.685287 336.936267 C983.253891 337.162830 983.628891 337.854480 984.192978 338.115467 C1000.722275 345.763904 1000.546860 345.687000 993.707626 362.437854 C989.757553 372.112293 986.392685 382.031360 982.943832 391.902942 C979.686142 401.227649 977.035507 402.142444 968.609970 396.889148 C963.621567 393.778919 958.330307 391.157581 953.307602 388.098865 C948.799545 385.353504 946.886093 379.894519 950.031479 376.316516 C954.007187 371.794177 954.801132 366.257434 957.415512 360.633899 z"/><path class="selected"  fill="#000000" opacity="1.000000" stroke="none" 
 	d="
M280.415512 1023.633899 C288.480758 1018.957385 296.273300 1015.094715 304.761215 1013.482898 C309.949753 1012.497547 315.876327 1011.747791 320.718246 1013.277088 C334.847641 1017.739490 334.972702 1030.646839 325.320968 1040.187366 C318.633224 1046.798084 310.927170 1053.252429 300.848251 1055.282825 C293.755356 1056.711658 286.774887 1057.351550 280.706711 1052.812732 C270.534469 1045.204700 270.379257 1034.090442 280.415512 1023.633899 z"/><path class="selected"  fill="#000000" opacity="1.000000" stroke="none" 
 	d="
M476.915512 374.133899 C477.038925 381.163928 475.916366 385.958728 469.382309 388.943592 C461.843796 392.387317 456.046860 388.661487 451.151535 384.959339 C442.708725 378.574207 436.046554 370.218250 431.949753 360.169177 C426.968002 347.949451 434.121811 334.426868 446.785202 332.134021 C453.302597 330.953967 462.927536 336.344592 466.785873 344.433704 C470.079635 351.339099 472.294235 358.764759 474.889450 365.994983 C475.723190 368.317737 476.248825 370.751087 476.915512 374.133899 z"/><path class="selected"  fill="#000000" opacity="1.000000" stroke="none" 
 	d="
M266.915512 1346.133899 C263.117172 1338.224109 263.437546 1331.172595 268.693039 1325.623157 C275.874252 1318.040515 284.201156 1311.556751 291.681503 1304.238635 C296.808029 1299.223377 302.979233 1299.792591 308.987045 1300.272571 C314.403183 1300.705432 320.158493 1310.785022 318.019821 1315.922840 C312.126632 1330.080432 303.093612 1342.101550 289.833114 1349.852649 C282.373153 1354.213489 273.827682 1354.150501 266.915512 1346.133899 z"/><path class="selected"  fill="#000000" opacity="1.000000" stroke="none" 
 	d="
M447.415512 1296.633899 C455.045883 1293.541004 461.726547 1294.166736 468.393356 1298.058826 C475.579696 1302.254138 479.206528 1312.213855 478.025680 1320.306873 C476.689743 1329.463245 471.109054 1335.062976 465.162765 1340.982166 C458.457809 1347.656604 451.023117 1346.812854 443.426193 1343.553821 C436.416611 1340.546741 432.982834 1335.295642 432.754135 1327.213123 C432.395737 1314.548572 438.319443 1305.329578 447.415512 1296.633899 z"/><path class="selected"  fill="#000000" opacity="1.000000" stroke="none" 
 	d="
M884.915512 1346.133899 C877.013168 1353.038196 870.926987 1352.411487 865.709823 1343.657581 C861.144760 1335.997547 858.082138 1327.588733 856.684311 1318.464588 C855.597030 1311.367664 855.391830 1304.153064 853.277817 1297.053577 C851.628647 1291.515125 851.811508 1284.868030 856.363266 1279.646594 C860.389389 1275.027942 865.966171 1274.877307 870.757065 1278.866931 C876.039291 1283.265857 877.299911 1289.541736 878.782211 1295.491931 C881.425766 1306.102405 882.651352 1317.088245 885.652328 1327.578845 C887.447861 1333.855945 887.033676 1339.360706 884.915512 1346.133899 z"/><path class="selected"  fill="#000000" opacity="1.000000" stroke="none" 
 	d="
M478.415512 630.633899 C478.455734 635.593738 479.392929 640.952869 477.228439 644.315418 C473.401352 650.260974 467.486252 651.675037 459.532333 650.639270 C450.693405 649.488391 443.249557 646.372425 436.063034 642.040271 C428.902328 637.723621 426.059372 627.405628 428.915634 618.879505 C432.420578 608.416736 442.695053 602.267932 452.103073 606.660022 C462.869308 611.686145 473.591232 617.630359 478.415512 630.633899 z"/><path class="selected"  fill="#000000" opacity="1.000000" stroke="none" 
 	d="
M160.415512 704.633899 C167.236496 709.366077 166.118332 716.419055 164.210068 721.169666 C162.249374 726.051135 156.936264 729.722400 150.351364 730.245227 C137.926925 731.231677 126.528854 726.938465 114.910385 723.984241 C108.928085 722.463001 104.004013 712.899402 104.915512 706.844470 C105.939316 700.043445 110.992904 695.980945 119.278061 696.228504 C126.007614 696.429431 132.757614 697.177356 139.414108 698.221057 C145.253280 699.136463 150.991318 700.736194 156.734909 702.188098 C157.885544 702.478992 158.859909 703.467273 160.415512 704.633899 z"/><path class="selected"  fill="#000000" opacity="1.000000" stroke="none" 
 	d="
M402.915512 790.133899 C396.474838 790.007556 390.992233 790.749134 385.799484 788.070911 C370.619674 780.241565 372.238449 761.767322 384.081100 753.638904 C392.898727 747.587024 401.271652 746.181751 410.642807 750.910388 C417.847519 754.545886 422.740158 759.602893 423.070053 768.577014 C423.421676 778.139881 417.696335 783.332263 410.999069 788.030628 C409.087082 789.372058 406.300888 789.467273 402.915512 790.133899 z"/><path class="selected"  fill="#000000" opacity="1.000000" stroke="none" 
 	d="
M631.415512 1472.633899 C634.722885 1466.659778 637.292221 1461.045764 640.401596 1455.748889 C643.827865 1449.912219 649.925400 1451.820667 654.754623 1452.389270 C659.519394 1452.949573 661.738510 1457.883655 662.777084 1462.075305 C665.387192 1472.608509 664.121689 1483.102405 660.926742 1493.408069 C657.757919 1503.630237 649.003647 1509.149280 640.311386 1508.335559 C635.355697 1507.871448 633.211044 1505.620716 630.774521 1501.766712 C625.659897 1493.676868 626.918808 1485.900989 630.175644 1477.805774 C630.749252 1476.379993 630.685165 1474.697620 631.415512 1472.633899 z"/><path class="selected"  fill="#000000" opacity="1.000000" stroke="none" 
 	d="
M625.415512 462.633899 C622.675278 464.133777 620.122543 466.349597 618.262558 465.871204 C614.794174 464.979358 611.013778 463.178089 608.631698 460.588611 C601.911850 453.283313 595.420883 445.683338 589.644882 437.622547 C585.543320 431.898548 585.649277 424.786365 587.904892 418.294544 C590.916855 409.625476 604.016586 407.035022 610.924423 413.071887 C622.292465 423.006458 625.941879 436.553943 628.860214 450.448108 C629.745712 454.664539 628.251694 458.577503 625.415512 462.633899 z"/><path class="selected"  fill="#000000" opacity="1.000000" stroke="none" 
 	d="
M1098.415512 372.633899 C1087.127670 372.062244 1078.365707 366.039661 1076.915390 357.699451 C1074.363876 343.025379 1079.609482 334.917224 1092.677719 329.864490 C1098.655746 327.553089 1103.244980 328.959583 1107.341049 331.879138 C1112.112167 335.279895 1117.180771 339.414050 1119.798813 344.439441 C1124.900741 354.232288 1119.471786 366.475574 1109.117904 370.804309 C1105.946640 372.129993 1102.328842 372.387195 1098.415512 372.633899 z"/><path class="selected"  fill="#000000" opacity="1.000000" stroke="none" 
 	d="
M571.415512 509.633899 C575.199692 514.751453 578.584579 519.301258 581.740585 524.004871 C585.087997 528.993884 586.319687 534.384143 583.863510 540.180286 C580.119613 549.015247 566.866684 551.859851 558.856064 544.859729 C551.627304 538.543079 544.633041 531.849109 540.827011 522.510852 C537.823593 515.141712 538.186508 506.743030 543.025863 503.128528 C548.566147 498.990589 558.350082 498.254260 565.246811 503.540759 C567.337265 505.143176 569.036850 507.255237 571.415512 509.633899 z"/><path class="selected"  fill="#000000" opacity="1.000000" stroke="none" 
 	d="
M1094.415512 1344.633899 C1079.602279 1337.777820 1076.126449 1320.788074 1089.699325 1310.422473 C1097.649643 1304.350818 1105.673324 1305.729968 1114.276474 1309.999866 C1129.817001 1317.713123 1131.187118 1337.833606 1119.988144 1345.847766 C1115.577011 1349.004260 1110.536728 1352.156360 1104.396103 1348.735462 C1101.473862 1347.107776 1098.090195 1346.308460 1094.415512 1344.633899 z"/><path class="selected"  fill="#000000" opacity="1.000000" stroke="none" 
 	d="
M258.915512 316.133899 C254.462387 326.538196 247.300339 331.234851 236.665024 330.153308 C228.264328 329.299182 219.711410 322.165149 216.915573 313.465259 C213.867294 303.979663 217.634567 295.261463 226.997543 290.133899 C239.929062 283.051929 254.568527 288.814319 258.836410 302.908985 C260.025131 306.834766 263.578903 311.050952 258.915512 316.133899 z"/><path class="selected"  fill="#000000" opacity="1.000000" stroke="none" 
 	d="
M1249.415512 336.633899 C1255.419540 332.162464 1261.240829 329.573963 1268.358139 330.043201 C1276.207748 330.560779 1283.509628 334.825672 1285.938461 342.318592 C1288.186874 349.255481 1287.883529 356.086414 1282.217270 361.922595 C1275.664902 368.671497 1268.405136 372.988269 1258.517074 372.219348 C1249.833603 371.544055 1243.585922 365.238269 1242.797714 356.577503 C1242.112167 349.044544 1243.908066 342.682971 1249.415512 336.633899 z"/><path class="selected"  fill="#000000" opacity="1.000000" stroke="none" 
 	d="
M161.415512 957.633899 C166.311508 964.480213 166.139572 967.628284 161.631882 972.469226 C156.466171 978.016834 149.424179 980.299304 142.656662 981.853504 C134.577743 983.708972 126.025131 983.649890 117.660080 984.016467 C115.315109 984.119129 112.676437 983.220569 110.570358 982.059436 C102.511398 977.616077 101.673752 970.578723 108.128891 963.910633 C112.656967 959.233264 118.360580 956.423328 124.573898 955.632068 C135.367477 954.257434 146.142685 950.152332 157.156357 954.199451 C158.577011 954.721424 159.670517 956.133899 161.415512 957.633899 z"/><path class="selected"  fill="#000000" opacity="1.000000" stroke="none" 
 	d="
M637.415512 170.633899 C641.572983 170.133899 645.248276 170.362842 648.884140 170.082630 C655.013778 169.610279 659.128769 172.173267 663.061386 176.868152 C668.247665 183.059986 670.347519 190.029468 668.493515 197.304553 C665.427963 209.333423 651.738144 216.288623 640.323105 211.944202 C636.748153 210.583606 633.315536 207.472949 631.096298 204.275867 C628.341903 200.307910 626.500595 195.549854 625.022445 190.892688 C623.242660 185.285510 629.695175 175.101856 637.415512 170.633899 z"/><path class="selected"  fill="#000000" opacity="1.000000" stroke="none" 
 	d="
M638.915512 266.133899 C639.634628 251.457446 648.508285 242.001819 660.500107 242.133899 C673.843612 242.280933 684.149277 256.980335 680.120956 269.967456 C678.653915 274.697376 676.573593 278.969715 672.656479 282.126514 C662.876571 290.008289 644.582260 287.509265 640.914902 274.298999 C640.251571 271.909778 639.582138 269.522205 638.915512 266.133899 z"/><path class="selected"  fill="#000000" opacity="1.000000" stroke="none" 
 	d="
M393.415451 1376.633899 C397.640365 1372.408801 401.140426 1368.413928 405.171799 1365.056995 C407.731552 1362.925403 410.912216 1361.130481 414.107895 1360.250354 C423.204574 1357.744739 432.715256 1365.249866 430.646774 1374.293811 C427.695419 1387.198108 422.708420 1399.655384 409.569015 1406.017932 C406.565231 1407.472278 402.870590 1407.921253 399.466293 1408.039661 C392.266708 1408.289905 387.791672 1403.846790 386.881149 1396.620960 C385.940353 1389.153919 389.890182 1383.312366 393.415451 1376.633899 z"/><path class="selected"  fill="#000000" opacity="1.000000" stroke="none" 
 	d="
M1332.415512 1227.633899 C1328.594589 1228.133899 1325.273422 1228.156848 1321.952743 1228.129627 C1310.848007 1228.038562 1300.717758 1217.609973 1301.232162 1206.817249 C1301.769638 1195.541004 1311.104355 1186.905750 1321.839462 1185.985340 C1340.499740 1184.385730 1350.186264 1205.116199 1342.756820 1217.407459 C1340.443710 1221.234241 1336.248886 1223.923816 1332.415512 1227.633899 z"/><path class="selected"  fill="#000000" opacity="1.000000" stroke="none" 
 	d="
M1434.415512 692.633899 C1443.007919 702.461048 1443.244003 708.660510 1439.223007 719.130481 C1435.119491 729.815174 1414.121933 733.466785 1405.495712 726.186511 C1397.726303 719.629260 1397.817734 711.661975 1399.274399 703.936878 C1400.571396 697.059070 1406.701645 693.116199 1413.392319 689.880725 C1421.259506 686.076282 1427.205429 690.547473 1434.415512 692.633899 z"/><path class="selected"  fill="#000000" opacity="1.000000" stroke="none" 
 	d="
M1180.915512 654.133899 C1184.619736 654.800525 1187.349106 655.380481 1190.021957 656.155384 C1193.591049 657.189929 1198.116562 657.878650 1198.708481 662.125720 C1199.300766 666.375110 1200.126083 671.045642 1195.557236 674.686756 C1189.595932 679.437366 1185.411239 686.406970 1177.445663 688.630237 C1170.014999 690.704212 1163.111191 693.943103 1154.798813 690.349109 C1145.126571 686.167468 1142.045028 678.415149 1149.210068 671.014759 C1156.968979 663.001209 1165.457138 655.759509 1177.765732 656.045642 C1178.467148 656.061878 1179.198227 654.800525 1180.915512 654.133899 z"/><path class="selected"  fill="#000000" opacity="1.000000" stroke="none" 
 	d="
M1245.415512 1341.633899 C1239.809555 1334.240100 1236.576645 1326.982654 1240.926987 1318.462146 C1247.485336 1305.616931 1262.539169 1301.760242 1273.469833 1309.823596 C1286.820541 1319.672107 1284.401230 1336.520984 1270.021957 1344.620227 C1260.217880 1350.142200 1253.489853 1347.257678 1245.415512 1341.633899 z"/><path class="selected"  fill="#000000" opacity="1.000000" stroke="none" 
 	d="
M1126.415512 1400.633899 C1118.593612 1393.761096 1120.385238 1385.011829 1121.405258 1377.366077 C1121.864364 1373.924671 1127.217270 1370.496204 1131.054550 1368.285510 C1137.965805 1364.303333 1150.129989 1364.601184 1156.404403 1372.541126 C1164.926864 1383.325794 1165.593612 1395.737659 1156.869980 1403.240833 C1150.018661 1409.133411 1142.773056 1408.916370 1135.138534 1405.333606 C1132.353744 1404.026966 1129.654037 1402.539173 1126.415512 1400.633899 z"/><path class="selected"  fill="#000000" opacity="1.000000" stroke="none" 
 	d="
M239.415512 598.633899 C245.999069 598.297595 252.207809 597.215198 257.991745 600.191516 C263.825363 603.193347 270.044906 614.603626 268.915451 620.405384 C267.148605 629.481189 257.704880 637.372180 249.158737 638.276233 C239.889877 639.256946 233.673874 634.982044 228.250412 628.458850 C222.152023 621.123767 224.134933 607.594715 234.101669 601.943103 C235.717636 601.026721 237.311447 600.071277 239.415512 598.633899 z"/><path class="selected"  fill="#000000" opacity="1.000000" stroke="none" 
 	d="
M578.415512 1287.633899 C588.074692 1286.232654 599.300033 1293.908313 600.915512 1302.176868 C603.110336 1313.412097 598.104233 1323.322986 587.690414 1328.358997 C575.885116 1334.067859 561.280014 1325.362171 560.915512 1312.399036 C560.487900 1297.197254 565.194320 1290.479480 578.415512 1287.633899 z"/><path class="selected"  fill="#000000" opacity="1.000000" stroke="none" 
 	d="
M1328.915512 736.133899 C1322.850326 727.579212 1324.344101 720.340930 1328.749862 712.378162 C1332.904037 704.870227 1340.020248 703.390491 1346.869613 702.390369 C1354.878036 701.220569 1365.163193 708.809192 1366.915634 715.471057 C1369.697372 726.046863 1365.251327 735.815662 1355.503403 740.546009 C1343.879379 746.186634 1337.519760 745.370593 1328.915512 736.133899 z"/><path class="selected"  fill="#000000" opacity="1.000000" stroke="none" 
 	d="
M1248.915512 658.133899 C1242.806015 660.311878 1238.073593 660.299426 1232.470199 658.496814 C1227.804428 656.995716 1224.043930 654.875842 1223.195297 650.829578 C1222.171982 645.949451 1221.548935 640.149280 1227.314560 636.714099 C1234.267807 632.571399 1240.744858 627.183460 1248.204696 624.465808 C1255.259140 621.895740 1262.724716 624.838489 1268.925888 629.251209 C1272.149277 631.545032 1271.618149 641.756702 1268.654159 645.440784 C1263.688705 651.612781 1257.141098 655.350208 1248.915512 658.133899 z"/><path class="selected"  fill="#000000" opacity="1.000000" stroke="none" 
 	d="
M1442.915512 836.133899 C1444.793564 824.961048 1450.734726 819.138294 1460.261459 818.134021 C1469.040024 817.208362 1478.537704 822.486194 1481.990463 830.208850 C1485.995468 839.166980 1482.831528 848.742420 1473.692367 854.098255 C1458.292221 863.122913 1442.516830 851.497669 1442.915512 836.133899 z"/><path class="selected"  fill="#000000" opacity="1.000000" stroke="none" 
 	d="
M563.415512 371.633899 C562.248886 367.435535 561.203964 363.758289 560.996689 360.034412 C560.603256 352.967761 565.825302 345.840808 572.141952 344.133899 C576.791244 342.877551 582.847397 346.465198 586.957504 352.310047 C593.038193 360.957508 597.321274 369.933948 597.136703 380.990344 C597.039413 386.811878 593.263901 390.098987 589.819198 391.593494 C586.376205 393.087268 580.769150 394.146717 577.235092 389.473621 C572.839218 383.660510 568.359237 377.910877 563.415512 371.633899 z"/><path class="selected"  fill="#000000" opacity="1.000000" stroke="none" 
 	d="
M26.415512 857.633899 C23.252731 858.133899 20.589828 858.153552 17.927292 858.130359 C8.401840 858.047473 4.028488 854.690418 0.757309 844.975696 C-2.470658 835.389392 5.068649 822.124256 14.876327 820.134021 C23.184677 818.447864 34.745651 823.618274 38.465378 830.683826 C42.363022 838.087268 37.910568 851.813098 30.319137 855.711414 C29.228622 856.271350 28.052170 856.663806 26.415512 857.633899 z"/><path class="selected"  fill="#000000" opacity="1.000000" stroke="none" 
 	d="
M1142.415512 311.633899 C1127.181015 309.431079 1120.139755 301.563159 1120.915634 288.668933 C1121.411850 280.423328 1131.893539 270.198474 1139.886093 270.163318 C1148.624496 270.124927 1158.312362 279.414173 1158.915634 288.410083 C1159.730087 300.552295 1154.614364 307.817432 1142.415512 311.633899 z"/><path class="selected"  fill="#000000" opacity="1.000000" stroke="none" 
 	d="
M218.915512 936.133899 C223.317123 936.660999 226.559921 935.648425 230.176071 937.912708 C238.099960 942.874011 239.991073 950.373523 233.378586 956.584705 C226.631149 962.922595 218.151474 966.285633 209.286667 967.979358 C201.435653 969.479602 194.103622 965.133289 190.915573 958.542102 C187.175888 950.810657 191.564804 941.338123 199.789291 938.033801 C205.774887 935.628894 211.829330 936.280261 218.915512 936.133899 z"/><path class="selected"  fill="#000000" opacity="1.000000" stroke="none" 
 	d="
M980.915512 1290.133899 C988.668320 1298.584461 992.323227 1307.194202 985.011581 1317.453845 C981.510238 1322.367298 973.555404 1326.971790 967.695541 1326.133777 C960.052841 1325.040882 951.565536 1318.115222 951.044540 1311.610095 C950.565780 1305.632434 949.850448 1299.378894 954.009506 1294.009998 C961.000351 1284.985095 969.277450 1283.700305 980.915512 1290.133899 z"/><path class="selected"  fill="#000000" opacity="1.000000" stroke="none" 
 	d="
M780.415512 39.633899 C763.896591 41.131397 757.564438 30.181262 756.988144 20.880542 C756.429306 11.860401 765.069565 2.020008 774.611801 0.133960 C780.769394 -1.083081 792.565658 6.210925 794.852402 13.148914 C798.830917 25.219226 792.989364 35.884021 780.415512 39.633899 z"/><path class="selected"  fill="#000000" opacity="1.000000" stroke="none" 
 	d="
M979.415512 1377.633899 C972.396835 1363.319446 975.477524 1354.341663 987.329941 1347.959583 C996.398178 1343.076770 1009.340683 1349.469348 1012.807358 1359.202991 C1015.811752 1367.639026 1009.843124 1380.156360 1001.700180 1384.133899 C993.809799 1387.988147 988.319076 1386.475696 979.415512 1377.633899 z"/><path class="selected"  fill="#000000" opacity="1.000000" stroke="none" 
 	d="
M575.415512 301.633899 C577.408798 309.752674 578.650009 317.155689 572.986313 324.020740 C566.770859 331.554920 554.590805 333.693592 547.799057 328.052356 C536.173935 318.396472 536.470932 307.976001 544.043930 299.979053 C554.285873 289.163928 563.239853 289.458240 575.415512 301.633899 z"/><path class="selected"  fill="#000000" opacity="1.000000" stroke="none" 
 	d="
M1302.915512 322.133899 C1294.305893 317.352649 1289.104965 307.352710 1290.966781 301.082630 C1293.437607 292.761646 1303.223617 284.637073 1311.381454 284.133960 C1319.449081 283.636341 1328.805527 292.549182 1328.915512 300.836597 C1329.108261 315.363391 1326.485824 319.261218 1312.645004 323.193714 C1310.045395 323.932239 1306.840927 322.541858 1302.915512 322.133899 z"/><path class="selected"  fill="#000000" opacity="1.000000" stroke="none" 
 	d="
M888.915512 1384.133899 C896.979477 1384.009632 899.920761 1389.545764 902.798813 1394.338733 C908.331405 1403.552356 903.677475 1419.405139 894.193100 1423.567737 C891.654159 1424.681995 887.631332 1424.196155 885.020004 1422.933948 C881.390243 1421.179553 878.422836 1418.032581 875.218246 1415.424671 C868.323471 1409.813342 867.288803 1402.270862 869.722641 1394.540882 C871.919174 1387.565051 878.850082 1382.514759 888.915512 1384.133899 z"/><path class="selected"  fill="#000000" opacity="1.000000" stroke="none" 
 	d="
M232.415512 1045.633899 C236.946701 1039.731067 241.915512 1037.245716 249.032638 1037.935047 C254.631393 1038.477405 258.926193 1040.517444 262.304977 1044.600208 C267.093735 1050.386585 268.662338 1056.871814 264.884140 1063.824451 C261.680527 1069.719837 257.214889 1073.789050 249.942123 1074.196643 C239.985702 1074.754749 233.500534 1073.199207 230.293625 1064.324817 C228.119430 1058.307971 226.591598 1051.757190 232.415512 1045.633899 z"/><path class="selected"  fill="#000000" opacity="1.000000" stroke="none" 
 	d="
M769.415512 1609.633899 C762.087387 1605.557971 757.016708 1600.868030 756.855209 1592.344104 C756.708969 1584.612171 760.969833 1579.906360 766.922348 1576.141467 C774.617660 1571.274036 781.547226 1575.013294 788.173202 1578.559192 C792.473862 1580.860706 796.219101 1593.393909 794.915512 1598.614612 C793.498276 1604.290149 785.307724 1611.623645 779.049545 1611.989124 C776.051132 1612.164173 772.962997 1610.800647 769.415512 1609.633899 z"/><path class="selected"  fill="#000000" opacity="1.000000" stroke="none" 
 	d="
M1242.915512 512.133899 C1243.500839 499.832996 1250.984360 492.039905 1261.160751 492.133899 C1269.004135 492.206287 1278.506210 499.978504 1278.915512 506.656360 C1279.674057 519.032215 1273.551010 528.666858 1264.157944 530.157215 C1254.737900 531.651599 1244.054672 524.973621 1242.915512 512.133899 z"/><path class="selected"  fill="#000000" opacity="1.000000" stroke="none" 
 	d="
M1414.415512 951.633899 C1422.064194 949.077381 1428.746078 949.280994 1434.563827 954.749622 C1441.375473 961.152210 1442.690170 967.312122 1438.915512 976.261585 C1436.716415 981.475452 1426.850937 986.505481 1419.553207 986.133777 C1412.274521 985.763172 1407.677353 981.805896 1404.915512 973.533801 C1401.391830 962.979968 1403.396103 958.214343 1414.415512 951.633899 z"/><path class="selected"  fill="#000000" opacity="1.000000" stroke="none" 
 	d="
M656.915512 1418.133899 C646.437485 1410.632434 644.726059 1404.352649 648.987900 1392.091907 C651.400986 1385.149280 661.368759 1380.740833 670.088363 1382.133655 C677.198105 1383.269397 684.853500 1396.657092 682.915512 1404.564807 C680.975204 1412.481555 669.255356 1420.891223 661.069076 1420.057971 C659.964096 1419.945423 658.964096 1418.800647 656.915512 1418.133899 z"/><path class="selected"  fill="#000000" opacity="1.000000" stroke="none" 
 	d="
M255.415512 1378.633899 C252.664169 1387.413684 247.708481 1392.023792 238.682785 1392.220081 C229.909469 1392.410510 224.119797 1388.640491 220.562301 1380.811878 C217.857101 1374.858509 219.350326 1366.791126 224.294174 1361.755237 C229.895004 1356.050159 241.157760 1354.081409 247.935287 1358.428089 C250.700668 1360.201282 252.830429 1363.576038 254.247360 1366.679798 C255.840500 1370.169544 259.231247 1373.788684 255.415512 1378.633899 z"/><path class="selected"  fill="#000000" opacity="1.000000" stroke="none" 
 	d="
M764.415512 162.633899 C754.775497 154.843982 754.978622 144.196216 760.936996 137.082263 C768.207870 128.401294 778.501816 127.677478 786.105453 134.349903 C796.479599 143.453418 794.957504 160.280445 782.994247 164.821948 C777.125595 167.049793 770.477524 168.497791 764.415512 162.633899 z"/><path class="selected"  fill="#000000" opacity="1.000000" stroke="none" 
 	d="
M1546.915512 834.133899 C1546.726303 840.242175 1547.770981 845.189319 1542.821762 849.528064 C1534.449814 856.867664 1518.221908 855.572864 1511.972641 846.191028 C1506.695541 838.268665 1513.263901 822.265735 1522.667587 820.134021 C1534.457992 817.461170 1542.040756 821.526355 1546.915512 834.133899 z"/><path class="selected"  fill="#000000" opacity="1.000000" stroke="none" 
 	d="
M873.415512 258.633899 C877.702499 248.374134 885.840927 247.340503 894.591049 248.203845 C901.956161 248.930530 905.290146 254.894336 908.178573 260.573474 C910.735336 265.600879 906.543320 276.974414 901.695175 280.133838 C891.437240 286.818714 879.266830 284.487781 873.906723 273.697498 C871.906967 269.672168 873.150619 264.035755 873.415512 258.633899 z"/><path class="selected"  fill="#000000" opacity="1.000000" stroke="none" 
 	d="
M1354.415512 971.633899 C1344.832748 973.761341 1338.383407 968.699573 1334.394882 962.012439 C1332.065170 958.106677 1332.037338 951.490100 1333.521835 946.920764 C1336.793442 936.849719 1351.155624 932.376087 1359.729233 938.226306 C1365.513656 942.173328 1369.217758 947.973010 1368.829452 955.275012 C1368.401718 963.323230 1363.343979 968.705921 1354.415512 971.633899 z"/><path class="selected"  fill="#000000" opacity="1.000000" stroke="none" 
 	d="
M895.415512 1468.633899 C898.231796 1468.133899 900.548202 1468.127063 902.864487 1468.134876 C912.688827 1468.168811 918.864487 1474.182971 918.841781 1484.157825 C918.832504 1488.272083 919.260605 1493.152210 917.305771 1496.348010 C912.308822 1504.517444 899.745224 1506.928821 893.776230 1502.038684 C882.214584 1492.567005 882.157699 1481.250110 890.696518 1473.337757 C892.151718 1471.989124 893.511703 1470.537952 895.415512 1468.633899 z"/><path class="selected"  fill="#000000" opacity="1.000000" stroke="none" 
 	d="
M1288.415512 1376.633899 C1284.774887 1371.388050 1288.754989 1367.626331 1290.381943 1364.099964 C1291.881820 1360.848743 1295.446640 1357.570911 1298.836166 1356.360217 C1307.873031 1353.132434 1317.574692 1357.677600 1321.464340 1365.640735 C1326.046493 1375.021839 1321.397568 1390.841175 1306.001694 1390.223743 C1296.312118 1389.834583 1290.676498 1385.951526 1288.415512 1376.633899 z"/><path class="selected"  fill="#000000" opacity="1.000000" stroke="none" 
 	d="
M190.415512 738.633899 C184.199447 734.041858 184.704208 728.094226 187.236374 723.217395 C189.497299 718.863147 194.713058 717.793933 199.906235 718.062244 C205.882553 718.370838 211.889328 718.030506 217.878769 718.162464 C224.133346 718.300037 228.572067 721.005359 231.027572 727.129871 C233.060226 732.199573 230.388412 741.952136 225.635177 741.821521 C214.062362 741.503772 202.056320 745.103870 190.415512 738.633899 z"/><path class="selected"  fill="#000000" opacity="1.000000" stroke="none" 
 	d="
M328.915512 656.133899 C324.273727 664.016467 317.500107 664.570911 310.753830 661.983264 C302.132309 658.676135 294.070846 654.031116 288.274765 646.454822 C283.906051 640.744251 288.816025 631.430896 297.080490 630.207630 C304.252060 629.146106 311.034042 631.373645 316.835129 635.305652 C320.890060 638.053943 324.534775 641.836414 327.309982 645.879627 C328.920700 648.226184 328.449753 652.001453 328.915512 656.133899 z"/><path class="selected"  fill="#000000" opacity="1.000000" stroke="none" 
 	d="
M1319.415512 1049.633899 C1327.103866 1059.760120 1326.797104 1067.342395 1317.803573 1074.024768 C1310.622055 1079.361072 1301.456283 1080.223621 1293.291000 1071.515735 C1286.984726 1064.790515 1287.147079 1054.252307 1294.990829 1046.752918 C1298.922958 1042.993396 1302.981186 1044.829578 1306.985214 1044.114002 C1312.091049 1043.201404 1315.971908 1045.005725 1319.415512 1049.633899 z"/><path class="selected"  fill="#000000" opacity="1.000000" stroke="none" 
 	d="
M786.415512 70.633899 C791.946396 75.644641 791.348373 81.722095 790.756332 87.378162 C790.254989 92.166858 787.391464 95.667346 782.483505 97.790943 C778.233017 99.629993 774.970321 100.234546 770.249618 98.371265 C759.667099 94.194141 755.666611 85.741687 760.705185 75.344226 C764.680771 67.140247 770.691513 64.494556 779.105331 67.353565 C781.422836 68.141101 783.647934 69.199695 786.415512 70.633899 z"/><path class="selected"  fill="#000000" opacity="1.000000" stroke="none" 
 	d="
M917.415512 179.633899 C923.253769 187.839343 921.452621 199.106128 914.109970 203.939685 C906.905746 208.681995 894.146957 205.495654 889.600570 197.818775 C884.209091 188.715503 892.385971 174.449817 903.060898 174.086231 C908.454086 173.902637 913.600693 173.857593 917.415512 179.633899 z"/><path class="selected"  fill="#000000" opacity="1.000000" stroke="none" 
 	d="
M1310.915512 464.133899 C1314.826401 459.222034 1318.179672 455.743884 1325.000229 455.719104 C1332.736435 455.690784 1337.244247 459.899158 1340.042587 464.897205 C1342.237167 468.816638 1342.235946 474.726917 1339.021225 479.702747 C1335.701523 484.840564 1327.536850 489.452625 1322.332260 488.133899 C1315.572616 486.421131 1308.796005 478.636463 1309.010605 472.301868 C1309.092148 469.893787 1310.248764 467.522083 1310.915512 464.133899 z"/><path class="selected"  fill="#000000" opacity="1.000000" stroke="none" 
 	d="
M1288.915512 614.133899 C1290.555771 611.493762 1292.029526 609.632678 1293.864487 608.251209 C1301.983383 602.139636 1307.332382 602.306995 1314.111191 608.558216 C1321.035751 614.943592 1320.683700 622.439807 1314.506576 629.513660 C1310.792709 633.766834 1306.108139 637.776721 1300.447738 635.870960 C1294.556503 633.887439 1288.894150 630.158924 1288.462265 622.629016 C1288.319809 620.147571 1288.748276 617.633167 1288.915512 614.133899 z"/><path class="selected"  fill="#000000" opacity="1.000000" stroke="none" 
 	d="
M544.415512 1359.633899 C548.536239 1357.467151 552.009994 1355.133899 555.813217 1354.294544 C561.150986 1353.116809 567.165390 1357.627063 568.823959 1363.042346 C571.031479 1370.249622 565.069443 1380.210315 556.623276 1383.426135 C550.241318 1385.856067 543.994613 1382.178821 540.141098 1374.474475 C537.053818 1368.302356 540.308578 1364.287464 544.415512 1359.633899 z"/><path class="selected"  fill="#000000" opacity="1.000000" stroke="none" 
 	d="
M984.415512 316.633899 C982.260849 309.693225 981.304062 303.584217 987.445663 298.491016 C994.086288 292.984119 999.922104 292.631153 1005.898910 298.117298 C1011.679794 303.423694 1012.667465 311.728015 1008.240951 317.808460 C1001.932968 326.473255 994.438705 326.256580 984.415512 316.633899 z"/><path class="selected"  fill="#000000" opacity="1.000000" stroke="none" 
 	d="
M896.915512 968.133899 C880.588730 975.860706 864.088608 980.109241 847.540756 984.056262 C834.572983 987.149524 821.233383 988.315296 808.114242 990.480335 C790.303940 993.419666 772.455307 993.013416 754.935409 991.686878 C726.499130 989.534168 698.291122 984.127674 671.441025 973.984363 C652.368149 966.779041 634.189316 957.602283 616.565780 947.100452 C592.541977 932.784900 572.769272 913.762683 553.802963 893.759998 C547.074570 886.664173 541.876816 878.114734 536.004745 870.210803 C534.309433 867.929065 531.267319 865.500598 531.396469 863.288440 C531.575302 860.225208 533.587875 856.744129 535.827377 854.415637 C546.642685 843.170764 557.697250 832.149768 568.875961 821.264026 C573.992416 816.281726 579.556991 811.755237 584.974838 807.087512 C605.788681 789.156116 629.148666 775.431018 654.000839 763.788074 C672.640243 755.055774 691.827133 748.608020 711.828232 744.039295 C727.509750 740.457141 743.191513 737.816394 759.351181 738.014026 C765.397445 738.088001 771.460312 736.280261 777.515610 736.280261 C783.570907 736.280261 789.627914 737.452014 795.681015 738.138172 C801.405136 738.787097 807.045761 738.294422 812.956894 739.662219 C820.546615 741.418689 828.531845 742.865222 836.231796 743.673694 C849.624130 745.079822 861.913559 749.931629 873.819198 754.658191 C898.038803 764.273425 921.012802 776.629871 942.321029 792.161487 C960.912460 805.712757 977.579330 821.150745 993.318466 837.699573 C1000.871445 845.640979 1007.691025 854.304187 1014.500595 862.911243 C1016.190536 865.047229 1016.574570 868.378284 1014.873642 871.012073 C1010.783676 877.345325 1007.092026 884.082263 1002.138901 889.682727 C989.700058 903.746936 976.776230 917.117542 961.845444 928.978870 C942.451889 944.385364 921.386215 956.155017 899.347030 966.739368 C898.777939 967.012805 898.388656 967.660633 896.915512 968.133899 M846.915512 877.133899 C840.842148 892.043811 829.321152 902.065662 815.976669 909.857776 C801.365463 918.389514 785.275619 921.357776 768.268051 920.271350 C758.987167 919.678455 750.058945 918.128284 741.873031 913.921131 C735.234115 910.509021 728.831650 906.476428 722.809067 902.058338 C708.770370 891.759632 699.584823 877.581653 695.242782 861.090564 C692.429550 850.405994 690.067245 839.485340 692.543686 827.598865 C696.420639 808.990467 701.402206 791.742420 717.765976 780.054309 C718.458237 779.559802 718.319565 777.902210 718.567978 776.786243 C717.665878 776.586780 716.654281 776.015125 715.878158 776.243762 C704.898666 779.476795 694.050644 783.230335 682.941391 785.906482 C679.144516 786.821277 677.931503 788.528919 676.330429 791.551624 C669.139633 805.126819 666.409653 819.837634 665.017074 834.826404 C664.122299 844.457996 666.831161 853.783801 668.840561 863.164295 C673.304794 884.002674 685.275253 900.643421 699.587753 915.262561 C708.889633 924.763416 720.871567 931.638050 733.812607 936.009632 C746.037704 940.139270 758.379623 944.005115 771.432480 944.025501 C776.153427 944.032947 780.892196 942.145618 785.594833 942.261707 C797.683090 942.560169 808.291244 937.768176 818.828598 933.076526 C835.996322 925.432483 850.509140 914.224475 861.381210 898.664050 C871.701278 883.893665 879.177353 867.662219 880.620590 849.754749 C881.933212 833.464832 881.893539 817.001331 875.132309 801.191272 C871.343368 792.331165 867.396347 785.074573 857.028061 783.125842 C851.273422 782.044177 845.741562 779.821277 840.052597 778.328723 C837.179672 777.574939 834.180893 777.301258 831.238998 776.810413 C832.908066 779.361804 834.141342 782.387927 836.318466 784.385608 C848.274154 795.355701 854.262314 809.930530 856.425644 824.954090 C858.927841 842.330799 857.861313 860.270252 846.915512 877.133899 M957.915512 840.133899 C945.185653 825.865955 928.382919 816.968372 912.985824 806.231189 C911.915512 805.484729 908.173446 801.955799 908.940292 807.742298 C909.479721 811.812366 910.900497 815.867908 910.801742 819.902332 C910.390487 836.725818 911.750229 853.441272 907.264755 870.293079 C900.878647 894.285144 889.522934 915.024524 872.842636 932.945056 C867.916122 938.237781 861.334091 941.979480 855.606674 946.552356 C855.048935 946.997669 855.171249 948.294666 854.978012 949.196399 C855.684433 949.114978 856.466293 949.202747 857.086288 948.926868 C869.179672 943.548816 881.650009 938.851795 893.223617 932.517444 C905.273300 925.922840 917.031601 918.851917 928.204452 910.490344 C945.612655 897.462268 962.024399 883.519031 977.705185 868.546131 C981.223984 865.186145 980.019394 862.687122 977.806503 860.139148 C973.702743 855.414539 969.279403 850.962390 964.893783 846.490100 C963.024277 844.583728 960.915512 842.912219 957.915512 840.133899 M677.915512 946.133899 C681.089462 947.307849 684.259628 948.492420 687.438827 949.652332 C689.752060 950.496326 692.043808 951.437000 694.418320 952.053211 C695.106308 952.231677 696.046737 951.437854 696.871322 951.089710 C696.400741 950.619129 695.994980 950.048816 695.449081 949.694080 C691.784530 947.311756 687.713730 945.403797 684.467636 942.553089 C665.993149 926.327625 651.819076 907.023792 643.490097 883.702259 C635.182113 860.439441 632.255844 836.671619 636.920639 812.213367 C637.293442 810.258289 637.739242 808.317127 638.151108 806.369373 C636.348739 806.681384 634.239609 806.492298 632.790146 807.380481 C610.617172 820.965564 590.830917 837.437366 573.278305 856.645862 C570.142074 860.077869 570.194443 862.430164 573.357895 865.705554 C577.850693 870.357410 582.392685 875.102283 586.028549 880.413318 C594.980209 893.489246 607.155746 903.015613 619.747055 912.077381 C630.192123 919.594470 640.685409 927.137683 651.742538 933.680164 C659.630966 938.347522 668.489731 941.374744 677.915512 946.133899 z"/><path class="selected"  fill="#000000" opacity="1.000000" stroke="none" 
 	d="
M512.415512 940.633899 C506.024154 933.575794 499.991073 927.138294 494.283493 920.424060 C489.133652 914.365955 489.786728 910.483875 496.137497 906.134021 C500.031662 903.466907 504.186264 901.101306 507.734848 898.034290 C510.342819 895.780017 511.923019 895.639026 514.123031 898.281238 C518.449081 903.477161 522.838363 908.632556 527.438827 913.584217 C531.471298 917.924182 535.616928 922.207263 540.093002 926.074939 C546.397201 931.521839 553.255600 936.330676 559.516220 941.823718 C573.154403 953.790149 587.978988 964.098255 603.409775 973.523425 C613.995468 979.989490 624.536239 986.808216 635.854111 991.727161 C650.523300 998.102527 665.921005 1002.815296 681.050033 1008.114978 C697.622299 1013.920276 714.730575 1017.260608 732.010605 1020.416492 C755.096908 1024.633045 778.295273 1025.211658 801.369613 1023.775257 C824.246689 1022.351184 846.897568 1018.138050 869.028427 1011.265247 C887.079941 1005.659412 904.653061 999.094470 921.436264 990.517932 C938.736801 981.676624 955.181503 971.514759 970.710434 959.656726 C985.456772 948.396106 999.632919 936.580554 1012.524154 923.321033 C1020.159164 915.467761 1026.978744 906.781848 1033.744736 898.141223 C1036.999985 893.983997 1040.477890 894.306140 1044.286850 896.192371 C1048.728256 898.392322 1053.175522 900.716419 1057.209823 903.567615 C1062.098495 907.022571 1062.515610 912.532092 1058.151230 917.805774 C1043.499130 935.509998 1028.972030 953.499378 1011.388534 968.325183 C992.389267 984.345081 971.835556 998.321643 949.876816 1010.276111 C928.884994 1021.704090 906.830673 1030.518543 884.172714 1037.476917 C868.072372 1042.421619 851.548446 1046.291248 834.603256 1048.441272 C820.153183 1050.274768 805.840683 1052.362171 791.228866 1052.248279 C785.844955 1052.206287 780.446518 1054.028919 775.062485 1053.988391 C768.668564 1053.940296 762.285019 1052.777942 755.892929 1052.140247 C749.500473 1051.502551 743.165756 1052.774524 736.617904 1050.435901 C730.740341 1048.336536 723.916244 1049.011951 717.566025 1048.079090 C710.085434 1046.980091 702.667099 1045.458240 695.218979 1044.135730 C681.410873 1041.683704 668.083725 1037.417102 654.846054 1032.971790 C634.624740 1026.181262 615.379501 1017.122547 596.655136 1006.912708 C579.479233 997.547351 562.755966 987.489490 548.196274 974.318103 C536.225815 963.489002 524.660507 952.212146 512.415512 940.633899 z"/></svg>