<?xml version="1.0" encoding="utf-8"?>
<!-- Generator: Adobe Illustrator 25.2.0, SVG Export Plug-In . SVG Version: 6.00 Build 0)  -->
<svg version="1.1" id="Layer_1" xmlns="http://www.w3.org/2000/svg" xmlns:xlink="http://www.w3.org/1999/xlink" x="0px" y="0px"
	 viewBox="0 0 3873 3873" style="enable-background:new 0 0 3873 3873;" xml:space="preserve">
<style type="text/css">
	.st0{fill-rule:evenodd;clip-rule:evenodd;}
	.st1{fill:none;}
</style>
<g id="Layer_x0020_1">
	<g id="_598001360">
		<path id="_598001624" class="st0" d="M312.8,3231.6l311.3,311.3L3423.8,933c16.5-134.7,63-293.1,100.9-422.4
			c14.2-48.9,30.7-103.2,41.8-148.1c-130.8,115-278.2,97.7-420.8,81.2c-71.7-8.7-145.8-17.3-223.8-11L312.8,3231.6L312.8,3231.6z
			 M623.3,3669.7c-13.4,0-26.8-5.5-37.8-15.8l-383.8-383.8c-20.5-20.5-20.5-52.8-1.6-74.1L2858.8,345c8.7-9.5,20.5-15,33.1-16.5
			c96.1-10.2,186.8,0.8,266.3,10.2c142.6,16.5,254.5,29.9,354.6-70.1c30.7-30.7,86.7-86.7,140.3-55.2
			c59.9,35.5,35.5,121.4-25.2,327.8c-38.6,130.8-86.7,293.9-100.1,423.2c-1.6,12.6-7.1,24.4-16.5,33.1l-2851.8,2658
			C649.3,3665,635.9,3669.7,623.3,3669.7L623.3,3669.7z"/>
		<path id="_598001528" class="st0" d="M1423.1,2921.9c-13.4,0-26.8-5.5-37.8-15.8L948,2468.8c-20.5-20.5-20.5-54.4,0-74.9
			s54.4-20.5,74.9,0l437.3,437.3c20.5,20.5,20.5,54.4,0,74.9C1450.7,2917.1,1437.3,2921.9,1423.1,2921.9z"/>
		<path id="_598001504" class="st0" d="M3320.6,1154.4c-11,0-22.9-3.9-32.3-11c-163.9-126.9-232.5-301.8-197.8-505.9
			c25.2-149.7,97.7-261.6,100.9-266.3c15.8-24.4,48.9-31.5,73.3-15.8c24.4,15.8,31.5,48.9,15.8,73.3l0,0
			c-0.8,0.8-64.6,100.9-85.1,229.3c-26.8,163.9,26,299.4,158.4,401.9c22.9,18.1,27.6,51.2,9.5,74.1
			C3352.1,1147.3,3336.4,1154.4,3320.6,1154.4z"/>
		<path id="_598001048" class="st0" d="M3495.5,882.6c-13.4,0-27.6-5.5-37.8-15.8c-186.8-189.9-110.3-477.5-106.4-489.3
			c7.9-28.4,37-44.9,65.4-37s44.9,37,37,65.4c-0.8,2.4-63.8,240.3,80.4,386.9c20.5,21.3,20.5,54.4-0.8,74.9
			C3522.3,877.8,3508.9,882.6,3495.5,882.6L3495.5,882.6z"/>
		<path id="_598001312" class="st0" d="M2450.7,1965.3c-28.4,0-52-22.1-52.8-51.2c-15.8-394.8,178.9-825.8,187.5-843.9
			c11.8-26.8,43.3-38.6,70.1-26c26.8,11.8,38.6,43.3,26,70.1c-2.4,4.7-192.3,427.1-178.1,795.1c0.8,29.2-21.3,54.4-51.2,55.2
			C2452.2,1965.3,2451.4,1965.3,2450.7,1965.3z"/>
	</g>
</g>
<rect class="st1" width="3873" height="3873"/>
</svg>
