<?xml version="1.0" encoding="utf-8"?>
<!-- Generator: Adobe Illustrator 24.0.0, SVG Export Plug-In . SVG Version: 6.00 Build 0)  -->
<svg version="1.1" id="stroke" xmlns="http://www.w3.org/2000/svg" xmlns:xlink="http://www.w3.org/1999/xlink" x="0px" y="0px"
	 viewBox="0 0 340 340" style="enable-background:new 0 0 340 340;" xml:space="preserve">
<g>
	<path d="M183.5,174.3c0,1.9,1.5,3.4,3.4,3.4h21h32.5c3.3,1.1,6.9,1.8,10.5,1.8h40.6h10.6c1.4,0,2.7,0.6,3.6,1.7
		c2.2,2.7,5.4,4.3,8.9,4.3h3.8c6.4,0,11.6-5.2,11.6-11.6v-8.4c0-9.3-7.3-17-16.6-17.4l-21.2-1.1c-5.1-1.8-45.5-15.7-79.4-16
		c-1,0-2,0.4-2.6,1.2c-0.7,0.8-0.9,1.8-0.8,2.8c0.1,0.3,0.6,3.5,2.2,8.2c-3.3-0.2-6.9-0.4-10.8-0.6c0,0,0,0,0,0
		c-8.5-0.5-17-1.1-22.5-1.5c-3.6-0.3-6.9-1.2-10-2.8c-8.5-4.4-17.3-6.4-20.1-6.9c-0.6-0.4-1.2-0.9-1.8-1.3c0-2.6,0.1-5.3,0.1-8
		c1.2,0.4,2.3,0.7,3.3,0.9c1,0.2,2.1,0.4,3.1,0.4c3.4,0,6.7-1.3,9.3-3.6c4.5-4.1,7.5-9.5,8.7-15.4c1.9-9.4,3.2-20.1,3.5-23.5
		c8.3-9.5,9.5-21.2,9.5-27.4c0-2.8-0.4-5.6-1.2-8.5c-2.5-9.3-6.9-15.4-12.9-18.2c-4.9-2.3-9.7-1.7-12.5-1c-2.3-2.5-7-6.6-13.3-7.9
		c-15-3-26.9-0.5-35.4,7.4c-1.5,1.4-3,3-4.4,4.7C96,39.8,91.8,53.1,92.7,67c0.5,8.3,2.6,15,5.7,20.5c-7,1.5-13.4,4.5-18.7,9
		c-4-1.2-12.8-3-21.4,2.1c-2.7-2.5-8-6.5-15.6-8.4c-1.4-8.9-5.4-15-8.1-18.1C42.3,61.9,40,50,37,43.7c2-5,6.7-20.2-4.4-31.5
		c-1-1-2.5-1.3-3.8-0.7c-0.3,0.1-26.5,12.5-16.5,51.4c-6.1,13.6,1.6,27.7,4.2,31.9c0,0.1,0.1,0.1,0.1,0.2
		c1.2,20,18.9,22.6,24.3,22.9c3.9,4.7,9.8,7.6,16.2,7.9c0.5,0,0.9,0,1.4,0c5.4,0,10.1-1.4,13.8-4.1c1.6,0.3,4.2,0.7,7.2,0.7
		c5.8,0,13.3-1.4,18-7.5c1.2,0.4,2.8,0.7,4.8,1c0.2,0,0.3,0,0.5,0c1.7,0,3.1-1.2,3.4-3c0.3-1.9-1-3.6-2.9-3.9
		c-3-0.4-4.9-1.1-5.5-1.4l-11.5-7.5c5.7-4.2,11.8-5.8,16.4-6.4c3.2,3.8,6.7,6.7,10.2,8.9v21c-4.2,2.7-11.2,6-21.3,7.4
		c-3.5-0.3-18.1,0.9-34.8,33.1c0,0,0,0,0,0c-0.8,1.4-1.5,2.9-2.2,4.4c-11.5,23.9-15.2,39.1-16.3,47.3c-11.4-1.8-20.1-1.3-21-1.2
		c-1.2,0.1-2.2,0.7-2.8,1.7c-0.6,1-0.6,2.2,0,3.3c23.4,44.8,57.8,57.7,62.6,59.3c2,1.4,10.9,7.2,22.5,11.5c2.2,0.8,4.5,1.2,6.8,1.2
		c6.8,0,13.3-3.5,16.7-9.6c0.2-0.4,0.5-0.8,0.7-1.3c1.2-2.4,1.8-5,1.9-7.6c3.9,0.1,7.7,0.2,11.2,0.2c0.8,0,1.6,0,2.3,0
		c-10.1,8.7-16.2,21.1-19.8,31.1C115.7,315,105.8,322,94.8,322H44.4c6.2-13.4,14.5-25.2,24.5-35.2c1.3-1.3,1.3-3.5,0-4.8
		c-1.3-1.3-3.5-1.3-4.8,0c-11.9,11.8-21.3,26-28.1,42.2c-0.4,1.1-0.3,2.3,0.3,3.2c0.6,1,1.7,1.5,2.9,1.5h55.7c13.9,0,26.3-8.8,31-22
		c2-5.7,5-12.3,9.1-18.3c5.7,5.1,14.4,14.4,20.3,27.9c3.3,7.5,10.6,12.4,18.7,12.4h37.6c1.2,0,2.2-0.6,2.9-1.5
		c0.6-1,0.7-2.2,0.3-3.2c-0.6-1.5-15.5-35.5-52.4-56.8v-10.8c6.7,1.1,17.6,2,31-0.4c0.1,0,0.2,0,0.3-0.1c1.6-0.4,38.7-9.5,53.9,22
		l-6.8,22.4c-6.3-10.4-21.4-27.3-53.3-30c-2.4-0.2-4.7-0.4-6.8-0.7c-1.9-0.2-3.6,1.1-3.8,3c-0.2,1.9,1.1,3.6,3,3.8
		c2.2,0.3,4.6,0.5,7,0.7c41,3.5,50.9,32.3,51.3,33.5c0.5,1.4,1.8,2.4,3.3,2.4c0,0,0,0,0,0c1.5,0,2.8-1,3.3-2.4l9.7-32
		c0.2-0.8,0.2-1.7-0.2-2.4c-4.6-10.2-11.7-17.8-20.9-22.6l15.7-16.6c0.8-0.8,1.1-1.9,0.9-3c-0.2-1.1-0.9-2-1.9-2.5
		c-30.4-14.6-56.4,4.6-58.2,6c-6.9,4.9-14,9.1-21,12.5c-0.1,0-0.2,0.1-0.3,0.2c-2.4-0.2-4.5-0.5-6.1-0.8v-15.9v-11.7
		c0-3.1,1-6.1,2.9-8.6c2-2.6,4.1-5.1,6.3-7.2c5.8-5.6,8.7-13.7,7.6-21.5c-1.7-12.2-6.6-28.3-19.6-42.9c1.9,0.7,3.8,1.6,5.7,2.6
		c3.9,2,8.2,3.3,12.7,3.6c4.8,0.4,11.6,0.8,18.8,1.3c-0.7,5.8-0.3,13.8,4.5,21.7h-14.2C185,170.9,183.5,172.4,183.5,174.3z M29.4,19
		c6.2,8.4,2.5,19.2,1.2,22.4c-2.3,1.4-7.4,5.1-13.1,13C14,32.1,24.6,22.2,29.4,19z M18,81.8c-1.6-5.4-2.1-12.1,1.6-18.2
		c4.7-7.9,9.3-12.4,12.1-14.6c1.6,4.6,2.9,13.2-3.9,20.6C24.6,71.2,20.3,74.8,18,81.8z M23.3,93.8C23,84,26.1,79.1,29.4,76.6
		c2.2,2.5,5.8,7.9,6.7,16.1c-0.6,2.4-2.2,9.7,0.5,17.7C31.1,109,23.7,105,23.3,93.8z M57.3,118.9c-5.8-0.2-10.9-3.5-13.3-8.5
		c-2.4-5-2.3-10.1-1.9-13.2c8.3,2.5,12.9,7.9,13,8c0,0,0,0,0.1,0.1c0,0,0,0,0,0.1l10.8,12C63.7,118.5,60.7,119,57.3,118.9z
		 M91.1,111.5c-5.3,5.2-14.9,3.9-17.9,3.3l-10-11.1c7.2-3.4,14.4-0.8,15.7-0.3L91.1,111.5z M193.7,243.2c0,0,0.1-0.1,0.1-0.1
		c0.9-0.7,21.7-16.4,46.7-7.2l-14,14.8c-3.2-1.1-6.7-2-10.3-2.5c-12.4-1.7-22.9,0.7-24.3,1c-3.3,0.6-6.5,0.9-9.4,1.2
		C186.3,248.2,190,245.8,193.7,243.2z M54.1,186c3.1,0.5,13.3,2.7,19.4,11.1c-1.4,3.5-2.7,6.9-3.8,10.2c-6.9-5.3-15.8-7.2-20.6-7.9
		C50.4,195.5,52,191.1,54.1,186z M60.6,171.5c0.3-0.5,0.5-1.1,0.8-1.6c5.9,2,14,5.9,18.9,12.8c-1.4,2.5-2.6,5-3.8,7.5
		c-6.5-7-15.1-9.6-19.7-10.5C58,177,59.2,174.3,60.6,171.5z M78.4,203.3L89,217.5c1.2,1.6,1.8,3.5,1.8,5.5v10.5l-0.9,12.8
		c-5.2-8-11.8-14-18.9-18.5C72.3,222.3,74.7,213.1,78.4,203.3z M126.7,231.3c-8.9-0.1-18.6-0.4-29.1-0.9V223c0-3.4-1.1-6.8-3.1-9.6
		l-13-17.6c1.7-3.9,3.7-7.9,5.8-11.6c0,0,0,0,0,0c1.8-3.1,3.7-5.9,5.6-8.5c3.5-4.7,5.9-9.8,7.1-15.3c1.8-8.2,0.8-16.2-2.9-23.4
		c6.7-1.4,12-3.5,15.9-5.6c1,5.3,6.1,24,28,33.4c2,4.6,8.7,22.4,1.6,36.9c-0.7,1.4-1.7,2.9-3,4.6
		C136.2,210.6,128.4,221.3,126.7,231.3z M157.6,114.5c-1.7,1.6-4,2.2-6.1,1.7c-5.4-1.3-13.1-4.4-19.3-11.9
		c-1.2-5.6-1.8-11.3-1.6-16.9c0.2-5.8,3.3-11,8.3-13.9c9.7-5.6,14.7-12.7,17.4-18.5c1.6,3,3.5,5.6,5.2,8c1.2,1.7,2.4,3.4,3.3,5
		c2,3.4,2.7,6.9,2.9,9.1c-0.8,0.2-2.6,0.5-3.8,0.9c-1.8,0.5-2.9,2.4-2.3,4.3c0.4,1.5,1.8,2.5,3.3,2.5c0.3,0,1.8-0.4,2.4-0.5
		c-0.6,4.8-1.6,12.1-2.9,18.6C163.4,107.3,161.1,111.3,157.6,114.5z M99.5,66.6c-0.7-12.2,2.9-23.8,10.1-32.7c1.2-1.4,2.4-2.8,3.8-4
		c4.8-4.5,11.2-6.8,19.1-6.8c3.2,0,6.6,0.4,10.2,1.1c6.4,1.3,10.8,7.1,10.8,7.2c0.9,1.3,2.7,1.8,4.2,1.1c0,0,4.7-2,9.4,0.2
		c4.1,2,7.2,6.6,9.1,13.8c0.6,2.3,0.9,4.5,1,6.7c0,4-0.5,10.7-3.9,17.1c-0.6-1.9-1.4-3.9-2.6-5.9c-1.1-1.8-2.3-3.6-3.7-5.5
		c-3.3-4.7-6.7-9.5-7.9-16.1c-0.3-1.7-1.9-2.9-3.6-2.8c-1.8,0.1-3.1,1.6-3.2,3.4c0,0.6-0.5,14.5-16.9,24.1
		c-7.1,4.1-11.4,11.4-11.7,19.6c-0.2,4.6,0.1,9.3,0.9,13.9C116.4,98.1,100.8,89.5,99.5,66.6z M127.1,108.8c4,4.7,8.4,8,12.7,10.2
		c-0.5,16.1-0.2,30.2,0.1,37.7c-17.2-9.2-20-25.3-20.3-27.3v-23.2C122.9,107.7,125.6,108.5,127.1,108.8z M89.7,138
		c4,6.3,5.2,13.4,3.5,21c-1,4.4-3,8.8-5.9,12.6c-1.1,1.5-2.2,3.1-3.3,4.8c-5.6-6.5-13.4-10.4-19.4-12.6
		C76.6,142.2,86.3,138.6,89.7,138z M47.1,206.1c4.1,0.5,14.3,2.3,20.3,8.4c-1.1,3.6-1.9,6.9-2.6,9.8c-6.7-3.4-13.6-5.6-19.9-7.1
		C45.2,214.4,45.9,210.8,47.1,206.1z M23.2,221.4c13.4,0.4,47.4,4.2,62.9,31.9c-2.3,2.9-6.5,9.1-9.7,18
		C67.7,267.6,42.2,254.5,23.2,221.4z M117.5,277.8c-0.2,0.3-0.3,0.6-0.5,0.9c-2.9,5.2-9.4,7.4-15.1,5.3c-8.7-3.2-15.9-7.5-19.3-9.6
		c4-11.4,10.1-18.2,10.2-18.3c0.1-0.2,0.3-0.3,0.4-0.5c1.7-2.8,4.1-4.9,7.1-6.3c1.8-0.8,3.9-0.7,5.6,0.3c1.7,1,2.8,2.8,2.8,4.8
		l0.1,3.2c0.1,1.1,0.7,2.2,1.6,2.8l2.3,1.4C118.3,265.2,120.3,272.1,117.5,277.8z M124.6,266.3c-1.4-4.1-4.2-7.8-8.2-10.3l-0.7-0.5
		l-0.1-1.4c-0.2-4.3-2.5-8.1-6.1-10.3c-3.6-2.2-8.1-2.5-12-0.7c-0.1,0.1-0.3,0.1-0.4,0.2l0.4-5.9c5.7,0.6,17.4,1.7,31.2,1.7
		c8.5,0,17.8-0.4,26.8-1.5v10.3c-9.4,2.5-20.6,3.2-28.5,3.3c-1.9,0-3.4,1.6-3.4,3.5c0,1.9,1.6,3.4,3.4,3.4c0,0,0,0,0.1,0
		c7.8-0.1,18.7-0.8,28.4-3.1V266C149.9,266.3,137.7,266.8,124.6,266.3z M206,322h-32.1c-5.4,0-10.3-3.2-12.5-8.3
		c-6.5-15-16.2-25.2-22.4-30.6c3.6-4,7.8-7.5,12.8-10c2.8-0.1,4.9-0.2,6.1-0.3C185.5,288.3,200.5,311.9,206,322z M166.7,201.1
		c-2.5,2.4-4.9,5.1-7.1,8.1c-2.8,3.7-4.2,8.1-4.2,12.7v8.6c-6.6,0.5-13.8,0.8-21.7,0.9c1.9-8.4,9-17.9,11.3-20.8
		c1.6-2,2.8-3.9,3.7-5.8c8.9-18.2,0.1-39.4-1.8-43.4c-0.1-2.4-0.5-11-0.6-22.7c18,15,24,33.5,25.9,46.9
		C173.1,191.2,171,197,166.7,201.1z M222.1,170.9c-0.2-1.9-0.6-5-0.5-8.6c1.9,2.7,4.2,5.3,6.8,7.9c0.2,0.2,0.5,0.5,0.7,0.7H222.1z
		 M323.2,165.5v8.4c0,2.6-2.1,4.7-4.7,4.7h-3.8c-1.4,0-2.7-0.6-3.6-1.7c-2.2-2.7-5.4-4.3-8.9-4.3H294c-1.9-6.5-0.6-14.6,0.3-18.6
		l18.9,1C318.8,155.2,323.2,159.9,323.2,165.5z M287.5,152.6c-0.9,4.4-2.2,12.5-0.6,20H251c-6.6,0-13.1-2.7-17.8-7.3
		c-9.9-9.8-14.2-21.3-16-27.3C245.4,139.2,277.8,149.4,287.5,152.6z M215.7,152.7c0,0,0,0.1,0,0.1c-1.4,6.9-0.9,14.1-0.4,18.1h-5.7
		c-6.3-7.6-6.7-15.8-6-21.3c4.1,0.2,7.7,0.4,11,0.6C214.8,151,215.3,151.8,215.7,152.7z"/>
	<path d="M151.8,77.8c-1.2-0.3-2.5-0.6-3.5-0.8c-1.9-0.3-3.7,0.9-4,2.7c-0.3,1.9,0.9,3.7,2.7,4c0.7,0.1,1.9,0.4,2.8,0.6
		c0.3,0.1,0.6,0.1,1,0.1c1.5,0,2.8-1,3.3-2.5C154.6,80.2,153.6,78.3,151.8,77.8z"/>
</g>
</svg>
