<?xml version="1.0" encoding="iso-8859-1"?>
<!-- Generator: Adobe Illustrator 26.0.1, SVG Export Plug-In . SVG Version: 6.00 Build 0)  -->
<svg version="1.1" id="outline" xmlns="http://www.w3.org/2000/svg" xmlns:xlink="http://www.w3.org/1999/xlink" x="0px" y="0px"
	 viewBox="0 0 64 64" style="enable-background:new 0 0 64 64;" xml:space="preserve">
<path d="M44,6c-2.757,0-5,2.243-5,5c0,1.654-1.346,3-3,3h-1v-3.021C36.246,10.04,37,8.563,37,7c0-2.757-2.243-5-5-5s-5,2.243-5,5
	c0,1.563,0.754,3.04,2,3.979V14h-1c-1.654,0-3-1.346-3-3c0-2.757-2.243-5-5-5H2v1c0,2.446,1.768,4.479,4.092,4.908
	c0.375,2.028,1.972,3.625,4,4C10.521,18.232,12.554,20,15,20h14v10h-6h-1c-0.551,0-1-0.448-1-1s0.449-1,1-1h2c1.654,0,3-1.346,3-3
	s-1.346-3-3-3h-2c-3.86,0-7,3.141-7,7c0,2.154,0.982,4.078,2.517,5.363C17.178,35.196,17,36.092,17,37
	c0,2.154,0.98,4.083,2.515,5.368C19.178,43.2,19,44.096,19,45c0,2.153,0.979,4.081,2.514,5.366C21.176,51.199,21,52.095,21,53
	c0,3.859,3.14,7,7,7h1v2h6v-2h1c3.86,0,7-3.141,7-7c0-0.914-0.183-1.807-0.521-2.638C44.051,49.044,45,47.086,45,45
	c0-0.933-0.187-1.823-0.52-2.638C46.052,41.043,47,39.085,47,37c0-0.933-0.187-1.823-0.52-2.638C48.052,33.044,49,31.082,49,29
	c0-3.859-3.14-7-7-7h-2c-1.654,0-3,1.346-3,3s1.346,3,3,3h2c0.551,0,1,0.448,1,1s-0.449,1-1,1h-2h-5V20h14
	c2.446,0,4.479-1.768,4.908-4.092c2.028-0.375,3.625-1.972,4-4C60.232,11.479,62,9.446,62,7V6H44z M30.503,9.581
	C29.562,9.033,29,8.068,29,7c0-1.654,1.346-3,3-3s3,1.346,3,3c0,1.068-0.562,2.033-1.503,2.581L33,9.87V14h-2V9.87L30.503,9.581z
	 M28,58c-2.757,0-5-2.243-5-5c0-0.533,0.095-1.058,0.259-1.56c0.607,0.26,1.26,0.433,1.94,0.511C25.076,52.279,25,52.63,25,53
	c0,1.654,1.346,3,3,3h1c0.551,0,1,0.448,1,1s-0.449,1-1,1H28z M28,54c-0.551,0-1-0.448-1-1s0.449-1,1-1h1v2H28z M31,60v-0.78
	c0.609-0.549,1-1.337,1-2.22s-0.391-1.67-1-2.22V52h2v2v6H31z M35,52h1c0.551,0,1,0.448,1,1s-0.449,1-1,1h-1V52z M36,58h-1v-2h1
	c1.654,0,3-1.346,3-3s-1.346-3-3-3h-1h-1.938H33h-2h-2h-1h-2c-2.757,0-5-2.243-5-5c0-0.533,0.095-1.058,0.259-1.56
	c0.608,0.26,1.26,0.433,1.94,0.511C23.076,44.279,23,44.63,23,45c0,1.654,1.346,3,3,3h3h2h1h1h2h1c1.421,0,2.78,0.607,3.728,1.668
	C40.548,50.585,41,51.769,41,53C41,55.757,38.757,58,36,58z M38,46h-2h-1v-2h3c0.551,0,1,0.448,1,1S38.551,46,38,46z M33,46h-1h-1
	v-2h1h1V46z M29,46h-3c-0.551,0-1-0.448-1-1s0.449-1,1-1h2h1V46z M41.446,48.613c-0.075-0.093-0.147-0.189-0.227-0.279
	c-0.373-0.417-0.795-0.778-1.248-1.09C40.596,46.694,41,45.897,41,45c0-1.654-1.346-3-3-3h-3h-2h-1h-1h-2h-1h-2h-2
	c-2.757,0-5-2.243-5-5c0-0.534,0.095-1.06,0.26-1.562c0.605,0.258,1.251,0.436,1.928,0.515C21.066,36.279,21,36.632,21,37
	c0,1.654,1.346,3,3,3h5h2h2h2h3c2.757,0,5,2.243,5,5C43,46.378,42.421,47.679,41.446,48.613z M40,38h-2h-3v-2h5c0.551,0,1,0.448,1,1
	S40.551,38,40,38z M33,38h-2v-2h2V38z M29,38h-5c-0.551,0-1-0.448-1-1s0.449-1,1-1h5V38z M42,26h-2c-0.551,0-1-0.448-1-1
	s0.449-1,1-1h2c2.757,0,5,2.243,5,5c0,1.376-0.58,2.678-1.555,3.611c-0.423-0.524-0.919-0.985-1.473-1.368
	C44.597,30.693,45,29.896,45,29C45,27.346,43.654,26,42,26z M40,32c2.757,0,5,2.243,5,5c0,1.377-0.579,2.679-1.554,3.613
	c-0.423-0.524-0.919-0.986-1.474-1.37C42.597,38.693,43,37.896,43,37c0-1.654-1.346-3-3-3h-5h-2h-2h-2h-7c-2.757,0-5-2.243-5-5
	s2.243-5,5-5h2c0.551,0,1,0.448,1,1s-0.449,1-1,1h-2c-1.654,0-3,1.346-3,3s1.346,3,3,3h1h6h2h2h2H40z M33,30h-2V20h2V30z M57,10h-8
	v2h6.816c-0.414,1.161-1.514,2-2.816,2h-8v2h6.816c-0.414,1.161-1.514,2-2.816,2H35h-2h-2h-2H15c-1.302,0-2.402-0.839-2.816-2H19v-2
	h-8c-1.302,0-2.402-0.839-2.816-2H15v-2H7c-1.304,0-2.416-0.836-2.829-2H20c1.654,0,3,1.346,3,3c0,2.757,2.243,5,5,5h1h2h2h2h1
	c2.757,0,5-2.243,5-5c0-1.654,1.346-3,3-3h15.829C59.416,9.164,58.304,10,57,10z"/>
</svg>
