<?xml version="1.0" encoding="utf-8"?>
<!-- Generator: Adobe Illustrator 26.0.0, SVG Export Plug-In . SVG Version: 6.00 Build 0)  -->
<svg version="1.1" id="Layer_1" xmlns="http://www.w3.org/2000/svg" xmlns:xlink="http://www.w3.org/1999/xlink" x="0px" y="0px"
	 viewBox="0 0 106 106" style="enable-background:new 0 0 106 106;" xml:space="preserve">
<g>
	<path d="M50.1,29.98c2.91-2.22,7.15-3.13,10.7-3.34C57.1,25.57,52.34,26.67,50.1,29.98z"/>
	<path d="M46.93,29.62c4.01-3.15,9.75-4.38,14.74-4.62C56.52,23.95,50.29,25.35,46.93,29.62z"/>
	<path d="M41.05,98.4c0.5,0.79,0.07,0.91-0.79,0.65c-1.89-0.47-3.15-2.67-2.8-3.05c0.1-0.11-0.02-0.41-0.14-0.33
		c-0.76,0.64-1.24,1.28-0.57,2.07l0.52,2.68h0.25v-1.91c2.62,2.37,2.3,1.91,5.54,1.91C43.76,100.42,41.16,98.46,41.05,98.4z"/>
	<path d="M82.81,95.74c-0.21-0.81-0.69-1.68-1.1-1.82c-0.39-0.13-1,2.69-3.24,0.6c-0.12,0.66-0.37,1.34-0.73,1.88
		c-0.88,1.33-3.45,1.61-3.27,2.12c0,0,0,0,0,0l0.19,0.78c0.31,1.23,8.81-0.89,8.5-2.12L82.81,95.74
		C82.82,95.73,82.81,95.74,82.81,95.74z"/>
	<path d="M72.56,95.19c-0.35-0.22-1.61,2.37-3.29-0.19c-0.27,0.61-0.68,1.22-1.15,1.66c-1.17,1.08-3.73,0.75-3.68,1.29c0,0,0,0,0,0
		l0,0.8c0.01,1.26,8.77,1.23,8.76-0.04v-1.5c0,0,0,0-0.01,0C73.18,96.39,72.92,95.43,72.56,95.19z"/>
	<polygon points="73.99,18.58 75.78,16.76 74.04,15.48 72.78,17.68 	"/>
	<polygon points="83.41,7.72 80.46,5.54 74.84,14.05 76.89,15.57 	"/>
	<polygon points="71.38,13.59 70.4,13.39 70.3,14.56 70.98,14.7 	"/>
	<polygon points="72.82,8.31 71.16,7.97 70.45,12.63 71.61,12.87 	"/>
	<path d="M35.55,62.59c0.03-1.1,0.35-2.37,0.34-3.36c-0.47,0.48-0.64,1.05-0.72,1.62C35.13,61.3,35.14,62.23,35.55,62.59z"/>
	<path d="M34.33,62.34c0.04,0.27,0.19,0.81,0.48,0.96c-0.15-0.65-0.16-1.43-0.31-2.01C34.3,61.64,34.29,62,34.33,62.34z"/>
	<path d="M72.48,28.36c0.87,0.68,1.69,1.69,2.49,2.29C74.76,29.3,73.21,28.21,72.48,28.36z"/>
	<path d="M72.35,27.34c0.61,0.27,1.24,0.73,1.8,0.95C73.81,27.55,72.74,27.15,72.35,27.34z"/>
	<path d="M31.58,26.09c1.23,0.11,2.61,0.54,3.72,0.61c-0.51-0.56-1.12-0.78-1.75-0.91C33.05,25.71,32.02,25.65,31.58,26.09z"/>
	<path d="M31.94,24.75c-0.3,0.03-0.92,0.16-1.1,0.47c0.73-0.12,1.61-0.08,2.26-0.21C32.72,24.76,32.33,24.73,31.94,24.75z"/>
	<path d="M79.91,67.14c2.23-4.99,0.42-8.76-2.39-18.88c-2.24-8.37,2.85-11.29-5.36-18.53c-0.39-0.35-0.85-0.59-1.35-0.73
		c0.06-0.22-0.03-0.52,0-2.1c0.64-0.89,1.58-2.42,0.99-3.34c0.02-0.26,0.04-0.53,0.04-0.81l0.28,0.06c0.22-1.04-0.85-3.54-1.86-2.94
		c0.43-1.45-1.63-3.07-1.74-3.15c0.07,0.12,0.33,0.63,0.28,0.93c-1.24-1.17-3.01-1.42-4.69-1.36c0.32,0.45,0.51,0.98,0.89,1.4
		c-1.52-0.16-2.21,1.36-2.21,1.36s0.38,0.06,0.98-0.19c-1.3,0.88-1.87,2.72-1.55,3.64c0.11-0.2,0.21-0.32,0.32-0.42
		c0.02,1.11,0.26,3.28,0.76,4.61c0.34,0.93,1.27,2.03,2.56,2.41c-1.98,0.61-4,1.32-5.71,2.5c-0.18,0.12-0.39,0.34-0.49,0.74
		l-0.51,0.19l-9.4-0.74c-0.76-0.96-2.27-2.63-2.96-1.56c-2.13-0.94-2.84,0.71-2.42,1.69c0.61,1.51,3.73,2.28,4.2,2.39
		c0.31,0.15,2.35,1.14,4.68,2.09c5.47,2.26,6.55,2.17,8.91,1.54c0.18,0.18,0.34,0.35,0.59,0.37c-0.06,1.69,0.11,3.38,0.38,5.08
		l-0.98,0.74L51.87,45.5c-0.26-0.12-0.72-0.32-1.22-0.48c-1.92-7.36-5.09-11.52-12.42-9.52c0.04-0.09,0.08-0.17,0.12-0.27
		c0.27-0.77,0.55-1.83,0.55-3c0-0.38-0.03-0.77-0.1-1.17c-0.1-1.55-2.21-3.49-4.1-3.1c-3.32-1.78-7.2,0.47-7.2,3.22
		c-0.22,1.24-0.12,2.45,0.75,3.72l0.05,0.26l-3.49-2.46l2.46,3.46l-2.74-0.49l2.35,1.66l-4.29,0.77l4.21,0.75l-2.3,1.63l2.77-0.49
		l-2.46,3.49l3.49-2.46l-0.49,2.77l1.63-2.3l0.75,4.21l0.15-0.86c-0.02,2.13,0.42,4.35,0.69,5.5c0.39,1.68,1.72,2.98,3.38,3.32
		l1.77,0.36c1.3,5.81-0.39,5.72,1,6.57c-0.54,2.39-1.11,5.33-0.96,6.39c0.31,2.32,1.76,4.15,3.49,5.55l0.47,4.17
		c-2.16,5.6-3.09,11.55-2.9,17.82c0,1.02,2.44,1,2.63,0v-0.01l0.3-0.82c0.54,1.19,0.46,0.94,3.04,2.4c0.54,0.28-0.34-1.73-0.63-2.45
		c-0.14,0.98-1.46-0.53-1.86-1.46l0.48-1.3c1.31,0.57,2.02-1.18,6.61-6.66c3.65-4.35,7.07-7.65,4.97-13.05L46.93,59.9
		c0.5-0.37,0.46-0.37,0.97-2.51c0.43,0.2,0.67,0.33,0.96,0.37c0.16,0.52,0.14,0.6,0.41,0.85c0.2,1.29,0.55,3.2,1.6,2.45
		c0.32,0.72,0.22,2.13,0.95,2.28c1.06,0,0.95-0.82,0.88-2.86c-0.01-0.69-0.22-1.53-0.53-2.24c0.55-0.88-0.61-8.81-0.79-9.82
		c2.85,0.56,7.29,1.33,10.32,1.33c0.97,0,1.78-0.06,2.62-0.37c0.43,2,0.83,4.04,1.04,6.14c0.25,2.42,1.14,3.14,1.14,4.06l0.1,13.15
		l2.51,21.7c0.19,1.26,3.78,0.93,3.88-0.01l1.19-11.1l3.98,10.76c0.52,1.25,3.89,0.06,3.77-0.93
		C78.77,69.54,78.99,74.77,79.91,67.14z M74.95,40.84c0,0.01-0.01,0.01-0.01,0.01l-1.95,2.26l-1.72,2.01
		c-2.19-0.31-4.12-1.54-5.2-3.5l3.89-5.34L74.95,40.84z M64.24,26.34c-0.27-0.71-0.45-1.71-0.57-2.61c0.32,0.33,0.69,0.6,1.11,0.76
		c-0.16-0.79-0.29-1.58,0.03-2.28c0,0,0.03,0.35,0.19,0.41c0.35-0.9,1.06-1.56,1.63-2.25c0,0,0,0,0.01,0
		c-0.35,0.94-0.69,1.82-0.5,2.92c0.67-1.36,1.74-1.96,2.85-2.6c-0.25,0.35-0.41,0.79-0.41,1.24c0.38-0.21,0.72-0.46,1.04-0.74
		c0,0.13,0.05,0.24,0.13,0.33c-0.14,0.68-0.37,1.42-0.44,2.05c0.09-0.03,0.44-0.28,0.44-0.28c-0.02,1.1,0.04,2.15,0.28,2.97
		c-0.65,0.97-2.29,2.22-3.68,1.94C65.22,27.98,64.46,26.95,64.24,26.34z M67.23,29.21c0.73-0.1,1.6-0.45,2.58-1.29
		c0,0.42,0.01,0.76,0.02,0.91c-1.14,3.69-3.69,4.73-4.01,4.18C65.33,32.22,66.81,30.26,67.23,29.21z M59.7,37.34
		c-2.69-0.08-10.76-3.96-10.89-4c-1.22-0.28-4.11-1.26-3.43-2.34c0.09-0.14,0.64-0.11,1.55,0.42c0.3,0.17,0.69-0.01,0.74-0.36
		c0.39,0.31,1.01,0.97,1.42,1.51c0.09,0.12,0.24,0.19,0.38,0.2c10.86,0.86,9.68,0.84,10.2,0.63c0.2,1.13,0.91,2.62,1.73,3.7
		C60.51,37.32,59.99,37.36,59.7,37.34z M61.75,35.85c-0.64-1.05-1.15-2.3-1.14-3.05c0-0.23,0.06-0.34,0.1-0.38
		c1.41-0.96,3.08-1.61,4.75-2.15C63.62,31.83,62.11,33.56,61.75,35.85z M49.55,44.78c-0.28-0.02-0.53-0.01-0.73,0.07
		c-0.45-1.7-1.16-1.66-2.4-5.05c-0.34-0.94-0.69-1.89-1.23-2.82C47,38.23,48.46,40.84,49.55,44.78z M38.7,37.28
		c0.89,1.31-1.67,3.25-2.71,2.09c-0.12-0.45-0.26-0.85-0.43-1.21c0.63-0.58,0.99-1.25,1.19-1.87c0.22,0.2,0.47,0.51,0.85,0.2
		C37.95,36.77,38.31,37.04,38.7,37.28z M37.41,34.89c-0.01,0.03-0.02,0.05-0.03,0.07c-0.02-0.01-0.04-0.03-0.06-0.05
		c0.7-1.86,0.41-3.96-0.83-5.57c0-0.01-0.01-0.02-0.02-0.03C38.3,30.46,38.12,32.87,37.41,34.89z M29.2,32.65
		c-0.9-1.12,3.48-3.38,5.61,0.45c0.3,0.6,0.92-0.01,1.02-0.06c0.52,0.38,0.09,1.09,0.13,1.37c0.35,2.77-2.37,4.69-4.01,3.05
		C30.74,36.25,30.07,33.51,29.2,32.65z M34.61,52.68c-1.28-0.26-2.31-1.27-2.61-2.57c-0.82-3.49-0.89-6.41-0.2-8.05
		c3.04-1.58,4.41,1.97,3.9,5.6c-0.07,0.5-0.45,0.14,9.69,5.47c-0.18,0.57-0.76,1.39-0.97,1.54C42.28,54.24,36.76,53.12,34.61,52.68z
		 M45.87,78.22c0.11-0.4,0.21-0.78,0.28-1.14c0.07-0.33,0.13-0.7,0.18-1.09c0.31,0.1,0.5,0.15,0.5,0.15S46.45,76.98,45.87,78.22z
		 M45.62,59.44l-7.22,0.55c-0.46-0.09-0.73-0.2-0.81-0.29c0.25-1.86,0.1-3.39-0.3-5.31c2.26,0.83,4.54,1.23,6.99,1.44
		c0.43,0.09,0.65-0.17,0.78-0.29c0.66,0.73,1.25,1.08,1.92,1.4C46.49,59.22,46.57,59.1,45.62,59.44z M47.7,47.97
		c-0.34,1.79-0.57,3.67-0.59,5.47c-0.2-0.14-0.44-0.29-0.7-0.46c0-0.35-0.18-0.58-0.34-0.61c-2.13-1.13-5.6-2.51-9.39-7.87
		c-0.39-2.26-1.75-4.1-3.97-3.78c0.52-0.68,1.24-1.61,2.02-1.97c0.12,0.29,0.23,0.6,0.31,0.97c0.12,0.46,1.02,1.13,2.1,0.99
		c2.32-0.32,3.74-3.21,1.94-4.38c2.05-0.44,3.82-0.19,4.33-0.1c1.86,2.06,1.95,4.6,3.55,7.08c0.44,0.68,0.91,1.45,0.98,2.5
		C47.25,46.36,47.27,47.39,47.7,47.97z M50.66,58.01c-0.78,0.12-0.76-0.23-0.88-0.65c0.16-0.33,0.05-0.56-0.25-0.84l-0.76-2.54
		c0.16-1.16,0.39-3.25,0.34-5.35c0.37,0.03,0.8,0.01,1.28-0.07c0.84,4.71,0.93,9.02,0.93,9.12C51.34,57.76,51.09,57.96,50.66,58.01z
		 M63.55,48.58c-3.14,0.76-12.01-1.2-12.32-1.2c-0.13,0-2.05,0.58-2.66,0.07c-0.27-0.23-0.33-1.02,0.49-1.02
		c0.34,0,0.58-0.33,0.48-0.65c4.13,0.7-2.48,1.36,12.88-0.67c0.08-0.02,0.16-0.05,0.23-0.1l2.94-2.23c0.81,1.16,2.11,2.19,3.35,2.72
		C66.4,47.26,64.51,48.34,63.55,48.58z M72.02,94.03c-0.81,0.33-1.45,0.35-1.94,0.06L67.6,72.67c-0.14-18.01-0.11-11.8-0.11-13.14
		c0.36-0.12,0.5-0.37,1.96-0.37c3.69,0.32,6.86-0.07,9.5-1.34c1.05,2.43-0.15,7.21-2.59,10.29c-0.09,0.12,0.07-0.28-2.15,5.66
		C74.17,73.95,74.32,72.61,72.02,94.03z M79.03,93.54l-4.61-12.45c0.9-8.42,0.23-5.62,2.77-12.42c1.22-1.55,2.13-3.46,2.64-5.35
		c-0.22,2.38-0.85,3.32-0.91,3.62c-1.01,8.48-1.3,1.48,1.98,26.07C79.96,93.74,79.34,93.66,79.03,93.54z"/>
</g>
</svg>
