<svg id="ab6a8f29-b62d-42d2-9fd4-cd97f24139e3" data-name="line" xmlns="http://www.w3.org/2000/svg" viewBox="0 0 64 64"><path d="M54.91171,36.82476s-10.01306-2.59165-13.9482-3.61008a11.30212,11.30212,0,0,0,2.68587-7.4005v-4.3661c-.00978-.19264-.01161-.42265-.01833-.6602a.8941.8941,0,0,0,.01927-.09546V17.65408a3.68867,3.68867,0,0,0,1.95084-3.24035V12.19794A8.20742,8.20742,0,0,0,37.40322,4H31.4437A14.826,14.826,0,0,0,16.59551,16.96754c-.35771,2.371.64128,4.5789,3.56087,4.69181l.00655-.00142h.18769c0,.86593,0,4.15625.00012,4.15614a11.298,11.298,0,0,0,2.68552,7.40066l-13.948,3.61A3.73133,3.73133,0,0,0,6.29216,40.437V59.03448A.96556.96556,0,0,0,7.25768,60H56.74232a.96556.96556,0,0,0,.96552-.96552V40.437A3.73133,3.73133,0,0,0,54.91171,36.82476ZM26.87929,36.28a11.42533,11.42533,0,0,0,10.24118.00035L32,45.6978Zm2.17654,8.045-7.37291-5.48525,2.61793-3.25956ZM39.58176,35.7956l2.43454,4.08553-7.30267,4.8686ZM27.37,18.11409H41.71929v1.33872a1.11433,1.11433,0,0,0-.07649.27409H24.72373c.45789-.3326.95662-.717,1.46714-1.16777A1.7736,1.7736,0,0,1,27.37,18.11409Zm-8.857-.91979A12.89666,12.89666,0,0,1,31.4437,5.931h5.95952a6.27387,6.27387,0,0,1,6.2669,6.26691v2.21579a1.77044,1.77044,0,0,1-1.7507,1.76744H27.37089l-.0162.00324a3.70158,3.70158,0,0,0-2.44338.92869A14.358,14.358,0,0,1,21.232,19.558a.82046.82046,0,0,0-.43815.16895h-.64122l-.00347.00071C18.72213,19.78,18.23914,18.37939,18.51293,17.1943Zm3.76872,4.46363h19.4367c0,.86593,0,4.15625-.00012,4.15614a9.71833,9.71833,0,1,1-19.43658.00011ZM8.2232,40.437A1.80012,1.80012,0,0,1,9.572,38.6945s7.7678-2.01047,12.30981-3.18607c-1.1485,1.42989-2.33217,2.90368-2.33217,2.90368a.97129.97129,0,0,0,.17679,1.379l11.308,8.41292v9.865H28.0097V48.7075a.96557.96557,0,0,0-.96552-.96551H11.67464a.96556.96556,0,0,0-.96552.96551V58.069H8.2232ZM26.07866,51.24811H12.64015V49.673H26.07866Zm-13.43851,1.931H26.07866v1.38369H12.64015Zm0,4.88982v-1.5751H26.07866V58.069Zm25.28119-4.88982H51.35985v1.38369H37.92134Zm13.43851-1.931H37.92134V49.673H51.35985ZM37.92134,58.069v-1.5751H51.35985V58.069Zm17.85546,0H53.29088V48.7075a.96556.96556,0,0,0-.96552-.96551H36.95582a.96557.96557,0,0,0-.96552.96551V58.069H32.96552V48.23559l10.88564-7.25694a.96478.96478,0,0,0,.29371-1.29741l-2.57014-4.31342L54.428,38.6945A1.80012,1.80012,0,0,1,55.7768,40.437Z"/><path d="M34.312,13.86261a2.84629,2.84629,0,0,0,.00012-5.69222A2.84629,2.84629,0,0,0,34.312,13.86261Zm0-3.76118a.91525.91525,0,0,1,.00006,1.83014A.91525.91525,0,0,1,34.312,10.10143Z"/></svg>