<?xml version="1.0" encoding="utf-8"?>
<!-- Generator: Adobe Illustrator 25.0.0, SVG Export Plug-In . SVG Version: 6.00 Build 0)  -->
<svg version="1.1" id="Layer_1" xmlns="http://www.w3.org/2000/svg" xmlns:xlink="http://www.w3.org/1999/xlink" x="0px" y="0px"
	 viewBox="0 0 491.5 491.5" style="enable-background:new 0 0 491.5 491.5;" xml:space="preserve">
<style type="text/css">
	.st0{fill-rule:evenodd;clip-rule:evenodd;}
</style>
<g id="Layer_x0020_1">
	<g id="_581744376">
		<path id="_581746464" class="st0" d="M283.2,432.1c-2.3,0-4.3-1.6-4.7-3.9c-2.8-16.3-11.6-26.5-18.4-26.9
			c-5.6-0.3-8.5,6.5-9.8,10.6c-0.6,2-2.4,3.4-4.5,3.4c-2.1,0-3.9-1.4-4.5-3.4c-1.2-4-4-10.6-9.4-10.6c-0.1,0-0.3,0-0.4,0
			c-6.9,0.4-15.7,10.6-18.4,26.9c-0.4,2.6-2.9,4.3-5.5,3.9c-2.6-0.4-4.3-2.9-3.9-5.5c3.3-19.4,14.8-34,27.2-34.7
			c3.1-0.2,9.7,0.4,14.9,7.6c5.2-7.2,11.7-7.8,14.9-7.6c12.4,0.8,23.9,15.4,27.2,34.7c0.4,2.6-1.3,5-3.9,5.5
			C283.7,432.1,283.4,432.1,283.2,432.1L283.2,432.1z"/>
		<path id="_581745744" class="st0" d="M168.5,255.2c-15.5,0-28.2,19.1-28.2,42.5c0,23.4,12.7,42.5,28.2,42.5
			c15.5,0,28.2-19.1,28.2-42.5C196.7,274.3,184.1,255.2,168.5,255.2z M168.5,349.7c-20.8,0-37.7-23.3-37.7-52
			c0-28.7,16.9-52,37.7-52c20.8,0,37.7,23.3,37.7,52C206.2,326.4,189.3,349.7,168.5,349.7z"/>
		<path id="_581745696" class="st0" d="M323,255.2c-15.5,0-28.2,19.1-28.2,42.5c0,23.4,12.7,42.5,28.2,42.5
			c15.6,0,28.2-19.1,28.2-42.5C351.2,274.3,338.5,255.2,323,255.2L323,255.2z M323,349.7c-20.8,0-37.7-23.3-37.7-52
			c0-28.7,16.9-52,37.7-52c20.8,0,37.7,23.3,37.7,52C360.7,326.4,343.8,349.7,323,349.7L323,349.7z"/>
		<path id="_581745312" class="st0" d="M128.3,245.2c-1.5,0-3-0.7-3.9-2c-1.5-2.1-1-5.1,1.2-6.6c24.2-17,45.1-23.9,62.1-20.5
			c10.5,2.1,19,8.1,25.1,17.7c1.4,2.2,0.7,5.1-1.5,6.5c-2.2,1.4-5.1,0.7-6.5-1.5c-4.7-7.4-11-11.9-18.9-13.5
			c-14.2-2.8-33.1,3.7-54.8,18.9C130.2,244.9,129.2,245.2,128.3,245.2L128.3,245.2z"/>
		<path id="_581745192" class="st0" d="M363.2,245.2c-0.9,0-1.9-0.3-2.7-0.9c-21.7-15.2-40.7-21.8-54.8-18.9
			c-7.9,1.6-14.3,6.1-18.9,13.5c-1.4,2.2-4.3,2.9-6.5,1.5c-2.2-1.4-2.9-4.3-1.5-6.5c6.1-9.7,14.6-15.6,25.1-17.7
			c17-3.4,37.9,3.5,62.1,20.5c2.1,1.5,2.7,4.5,1.2,6.6C366.2,244.5,364.7,245.2,363.2,245.2L363.2,245.2z"/>
		<path id="_581745888" class="st0" d="M205.7,368.2c-15,0-27.2,12.2-27.2,27.2c0,15,12.2,27.2,27.2,27.2h80
			c15,0,27.2-12.2,27.2-27.2c0-15-12.2-27.2-27.2-27.2H205.7z M285.8,432.1h-80c-20.2,0-36.7-16.5-36.7-36.7
			c0-20.2,16.5-36.7,36.7-36.7h80c20.2,0,36.7,16.4,36.7,36.7C322.4,415.6,306,432.1,285.8,432.1L285.8,432.1z"/>
		<path id="_581745456" class="st0" d="M43.5,199.5c-3.4,15.1-5.2,30.7-5.2,46.3c0,114.4,93.1,207.5,207.5,207.5
			c114.4,0,207.5-93.1,207.5-207.5c0-15.6-1.7-31.2-5.2-46.3L43.5,199.5L43.5,199.5z M245.8,462.7c-58,0-112.4-22.6-153.4-63.5
			c-41-41-63.6-95.5-63.6-153.4c0-17.6,2.1-35.2,6.3-52.2c0.5-2.1,2.4-3.6,4.6-3.6l412.1,0c2.2,0,4.1,1.5,4.6,3.6
			c4.2,17,6.3,34.5,6.3,52.2c0,57.9-22.6,112.4-63.6,153.4C358.2,440.2,303.7,462.7,245.8,462.7L245.8,462.7z"/>
		<path id="_581745408" class="st0" d="M196.8,199.5c-0.6,0-1.2-0.1-1.8-0.3c-2.4-1-3.6-3.7-2.6-6.2c12-29.7,7-65.9-12.1-88.1
			c-1.7-2-1.5-5,0.5-6.7c2-1.7,5-1.5,6.7,0.5c21.4,24.7,27,65,13.7,97.8C200.5,198.4,198.7,199.5,196.8,199.5z"/>
		<path id="_581745624" class="st0" d="M294.7,199.5c-1.9,0-3.6-1.1-4.4-3c-13.3-32.9-7.6-73.1,13.7-97.8c1.7-2,4.7-2.2,6.7-0.5
			c2,1.7,2.2,4.7,0.5,6.7C292,127,287.1,163.3,299.1,193c1,2.4-0.2,5.2-2.6,6.2C295.9,199.4,295.3,199.5,294.7,199.5L294.7,199.5z"
			/>
		<path id="_581745384" class="st0" d="M372.1,163.1c-9,0-17.5-4-23.6-10.8c-9.8,6.5-21.8,8.4-33,5.2c-12.7-3.6-23.2-13.5-28-26.5
			c-0.9-2.5,0.4-5.2,2.8-6.1c2.4-0.9,5.2,0.4,6.1,2.8c3.7,10.2,11.8,17.9,21.7,20.7c9.8,2.8,20.3,0.4,28.3-6.3
			c1-0.9,2.4-1.3,3.8-1.1c1.4,0.2,2.6,1,3.3,2.1c4.6,7.1,12.4,11.1,20.4,10.4c8-0.7,15.2-5.9,18.7-13.7c3.6-7.9,2.9-17.3-1.8-24.5
			c-0.9-1.4-1-3.1-0.3-4.6c4.9-10.5,2.9-22.9-4.9-31.1c-7.7-8-19.2-9.7-28.7-4.3c-1.3,0.7-2.8,0.8-4.1,0.3c-1.4-0.6-2.4-1.7-2.8-3.1
			c-2.3-8.4-8.7-14.6-16.7-16.4c-7.9-1.7-16,1.3-21.2,8c-1.1,1.4-3,2.1-4.7,1.7c-1.8-0.4-3.2-1.7-3.6-3.5c-3-12.2-12.4-21.5-24-23.6
			c-11.6-2.1-23.3,3.3-29.9,13.7c-0.9,1.4-2.4,2.2-4,2.2c-1.6,0-3.1-0.8-4-2.2c-6.6-10.4-18.3-15.8-29.9-13.7
			c-11.6,2.1-21.1,11.4-24,23.6c-0.4,1.8-1.8,3.1-3.6,3.5c-1.8,0.4-3.6-0.3-4.7-1.7c-5.2-6.6-13.3-9.7-21.2-8
			c-8,1.7-14.4,8-16.7,16.4c-0.4,1.4-1.4,2.6-2.8,3.1c-1.4,0.6-2.9,0.5-4.1-0.3c-9.4-5.4-21-3.7-28.7,4.3c-7.9,8.1-9.9,20.6-5,31.1
			c0.7,1.5,0.6,3.2-0.3,4.6c-4.7,7.2-5.3,16.6-1.8,24.5c3.5,7.8,10.7,13,18.7,13.7c8,0.7,15.8-3.3,20.4-10.4
			c0.7-1.2,1.9-1.9,3.3-2.1c1.3-0.2,2.7,0.2,3.8,1.1c7.9,6.7,18.5,9.1,28.3,6.3c9.9-2.8,18-10.5,21.7-20.7c0.9-2.5,3.6-3.7,6.1-2.8
			c2.5,0.9,3.7,3.6,2.8,6.1c-4.8,13-15.2,22.9-28,26.5c-11.2,3.2-23.2,1.2-33-5.2c-6.6,7.5-16.2,11.5-26.1,10.7
			c-11.5-0.9-21.7-8.3-26.6-19.2c-4.5-10-4-21.8,1.1-31.3c-5.2-13.5-2.3-29,7.7-39.3c9.4-9.7,23-12.8,35.2-8.3
			c4.2-9.1,12.2-15.8,21.9-17.9c8.8-1.9,17.9,0.2,24.9,5.7c5.4-12.1,16.2-20.9,29-23.2c13.2-2.4,26.6,2.5,35.6,12.6
			c9-10.1,22.3-15,35.6-12.6c12.8,2.3,23.5,11.1,29,23.2c7.1-5.4,16.1-7.6,24.9-5.7c9.7,2.1,17.7,8.8,21.9,17.9
			c12.1-4.5,25.7-1.5,35.2,8.3c10,10.3,13,25.8,7.7,39.3c5.2,9.5,5.6,21.3,1.1,31.3c-4.9,10.9-15.1,18.3-26.6,19.2
			C373.8,163,372.9,163.1,372.1,163.1L372.1,163.1z"/>
		<path id="_581745264" class="st0" d="M260.8,95.6c-1.2,0-2.4-0.5-3.3-1.4c-12.9-12.9-33.7-13.6-47.4-1.6c-2,1.7-5,1.5-6.7-0.5
			c-1.7-2-1.5-5,0.4-6.7c17.4-15.3,44-14.4,60.4,2c1.9,1.8,1.9,4.8,0,6.7C263.2,95.1,262,95.6,260.8,95.6L260.8,95.6z"/>
		<path id="_581744400" class="st0" d="M237.3,150.6c-2.6,0-4.7-2.1-4.7-4.7c0-2.6,2.1-4.8,4.7-4.8c13.2-0.1,24.4-10.1,26.1-23.1
			c0.3-2.6,2.7-4.4,5.3-4.1c2.6,0.3,4.4,2.7,4.1,5.3C270.4,136.9,255.2,150.4,237.3,150.6C237.3,150.6,237.3,150.6,237.3,150.6
			L237.3,150.6z"/>
	</g>
</g>
</svg>
