<?xml version="1.0" encoding="utf-8"?>
<!-- Generator: Adobe Illustrator 24.0.0, SVG Export Plug-In . SVG Version: 6.00 Build 0)  -->
<svg version="1.1" id="icons" xmlns="http://www.w3.org/2000/svg" xmlns:xlink="http://www.w3.org/1999/xlink" x="0px" y="0px"
	 viewBox="0 0 500 500" style="enable-background:new 0 0 500 500;" xml:space="preserve">
<g>
	<path d="M422.4,181.6c12.2,3.5,26.2-4.2,26.1-15.8c0.4-12-15.7-20-27.4-15.3c-5.5,1.9-10.6,2.4-15.3,1.5
		c-2.2-10.8-4.8-18.5-10.5-26.4c6.9,1.3,14.6,1.7,22,0.2c4.3-0.5,8.5-0.4,12.6-2.4c9.9-4.6,14.8-15.1,11-23.4
		c-4.2-9.9-19.7-11.7-29-4.4c-13.8,9.9-27.5-9-55.3-2.2c11.9-6.6,13.1-5.3,29.8-10.6c3-0.9,6.4-1.3,9.9-1c7.7,0.6,16.4-3.5,20.4-9.9
		c9.1-14.3-6.3-28.5-22.1-22.8c-4.9,1.7-9.9,5.8-14.4,6.9c-23.9,6.8-37.2,10.1-53.2,25.2c5.7-12.9,14.1-23.8,28.6-27.8
		c1.8-0.5,3.5-1.3,5.2-2.2c22.3-13.7,6.4-41.2-16.6-28.8c-4.4,2.3-7.7,7.4-11.5,9.8c-21.9,15.5-34.9,38.3-38.3,66.4
		c-3.4-11.7-3.1-22.9-1.8-31.7c1.2-12.5,13.2-20.5,9.2-34c-5.2-17.1-25.9-13.4-31.7,1.5c-2.8,5.9-1.2,14-2.9,19.6
		c-2.8,12-3.7,24.1-2.4,36.2c0.6,4.9,7.9,4.1,7.5-0.8c-1.2-11.3-0.3-22.4,2.3-33.7c1.7-5.1,0.3-12.6,2.5-18.4
		c6.7-14.7,22.7-8,16.8,7.1c-14.2,22.5-14.2,55.3,7.1,82.6c-1.3,1-2.6,2-3.8,3.2c-14.5-5.7-28.2-31.9-44.6-40
		c-3.8-27.4-13.6-47.5-43.2-48.1c-11.8-0.3-20.3,5-21.6,13.4c-2,12.4,12.2,21.5,23.8,19.5c7-1.1,11.7,4.3,12,10.7
		c-2.6,0.3-5.7,1.5-8.3,1.3c-4.1-0.2-8.3,0.8-12.1,3c-14.1,7.6-15.1,28.6,2.5,31.7c4.7,0.7,9.7-0.3,14.1-2.9
		c3.4-2.1,6.5-5.2,10.5-5.8c2.7,7.6,5.6,13.8,9.5,19.9c-12.4,0.2-25.8,6.2-31.9,12c-3.6,2.7-7.4,3.7-10.5,7
		c-10.9,10.2-8,29.8,8.6,30c6.9,0.2,14.9-4.6,18.5-11.2c3.4-5.8,5.6-8.2,11.5-9.7c6.1-1.6,10.7-1.5,14.8-0.4
		c-18.8,8.2-31.9,23.8-37.3,43.9c-1.2,5.3-4.7,10.1-5.5,15.6c-3.2,31.6,36.4,27.2,32.9-1.7c-0.7-5-0.2-9.7,1.6-13.5
		c10.8-23.5,31.2-18,29-26.1c-0.6-2-2.6-3.2-4.6-2.6c-19.9,5.4-36.2,22-33.4,43.3c2.2,17.6-20,22.1-18.1,1.8c1-5.2,4.3-9.8,5.3-14.8
		c6.8-24.6,25.1-39.9,51-44.2c2,1.9,4.9,2.8,7.7,2.6c-0.4,25.4-1.5,43.6,17.6,57.6c0.6,4.4,1.3,10.5,1.6,16.4
		c-0.1,1.5-0.7,2.1-2.2,2.3c-2.9-6.5-14-7.1-17.8-1.3c-21.1-4-29.5,11.7-34.4,30.3c-5.1,18.8-15.7,37.6-20.8,46
		c-3.9-4.8-11.2-12.4-21.9-18c-10.8-5.6-25.8-20-33.8-28.2c-4.2-4.3-9.8-6.7-15.7-6.9c-0.1,0-15,0.2-15.2,0.2
		c-1.7,0-3.4-0.6-4.7-1.7l-14.1-12.4c-3.8-3.3-9.5-3.2-13.2,0.3c-3.5,3.3-3.9,8.8-1.2,12.7l13.1,18.3c7.9,10.5,17.5,8.4,28.8,7.1
		c3.8,0.1,7.3,2.1,9.5,5.2c9.9,14.2,31.2,41.5,61.8,64.6c7.2,5.4,17.3,4.9,23.9-1.3c3.7-3.5,7.2-7.2,10.6-11c7,7.3,17.4,9.3,23,9.6
		c-1.4,13-5.8,26-13,36.9c-33.1,50.8-32.3,90.6-24.8,89.4c47.4,0.6,93-6.3,130.7-28.6c41.9-27.1,48.4-47.7,23.3-72
		c15.9-21.4,41.1-44.1,24.9-65.2c-10.7-13.6-22.2-32.1-31.4-47c-14.9-22.1-18.3-36.9-35.6-30.4c-4.3-4-13.2-3.4-16.3,2
		c-1.3,0.2-2.6-0.6-2.7-1.9c-0.5-4.1-1.1-10.7-0.8-19.2c6.4-6.2,12.4-15.5,13.1-29c6.8,3.7,16.6,6.9,24.3,11.2
		c9.4,5.9,10.6,13.7,12.5,24.2c7.8,23.3,37,16.6,32.2-8c15.9,4,31-6,22.6-22.1c-2.4-4.1-6.4-7.3-11.2-9.1c-3.1-1-6.2-2.4-8.5-4.5
		C416.7,181,419.5,181,422.4,181.6z M300.8,113.8c-0.3-32.1,11.9-58.8,35.9-75.5c3.7-2.2,6.8-7,10.9-9.5c5.9-3.4,12.7-2.6,15.2,1.8
		c3.4,5.3-2.6,13.8-9.6,15.5c-26.2,8.1-37.4,32.6-39.7,59.9c-0.2,4.9,7.1,5.4,7.5,0.5c0.2-2.8,0.5-5.6,0.9-8.2
		c15.1-21.7,32.8-27.8,60.3-35.2c4.6-1.1,9.6-4.8,14.6-6.9c9.2-3.3,18.7,3.2,13.4,11.6c-6.4,9.7-17.2,4.6-26.2,7.8
		c-7.8,2.4-14.3,4.1-14.4,4.1c-15,4.1-28.2,13.1-37.1,25.4c-6.5,5.3-12,12-16.7,20c-2.5-1.4-5.4-1.9-8.1-1.5c-2.7-3.2-5-6.5-7-9.8
		C300.8,113.9,300.8,113.8,300.8,113.8z M309.7,131.1c6.8,0.8,21.9,16.9,11.4,26.3h-22.7C287.5,147.6,303.4,131.6,309.7,131.1z
		 M210.3,67.6c-4.6,0.7-10.1-1-13-4.3c-14.6-17.9,43.1-26.3,46.6,23.5c-4.2-1.2-8.5-1.8-13.1-1.7c-0.2-0.9-0.3-1.8-0.5-2.7
		C229.1,72.8,220.2,66.2,210.3,67.6z M268.6,155.3c-2.6,0.5-5.1,1.1-7.6,1.8c-8.5-4.9-16.6-5.9-26.9-3.2
		c-16.4,3.4-13.3,18.5-27,20.6c-10.6,1-10.9-11.4-4.5-17.2c2.9-3,6.5-3.6,9.8-6.4c14.3-12.3,37.2-14.2,56.3-2.1
		C268.4,151,268.4,153.2,268.6,155.3z M249.4,133.5c-4.7-5.9-8-12.2-10.9-19.5c6.4,3.5,10.2,8.6,16.4,15.4c3.3,3.6,8.8-1.2,5.6-4.9
		c-12.2-14.4-24.4-26.9-42.4-13.6c-3.1,2.7-7.7,4.1-11.5,3.5c-10.5-1.7-7.5-13.9,0.1-17.7c4.6-3,9.2-1.4,14.2-2.7
		c35.6-9.8,47.1,29.2,70.7,42.2c-5.9,6.5-13.4,1.9-19.3,6.1C264.1,137.5,256.7,134.6,249.4,133.5z M278.1,157.4
		c-0.9,0-1.7-0.7-1.9-1.6c-0.1-1.6-1.3-7.8,1.7-8c2.5-0.2,7-0.2,9.4-0.9c-0.5,3.4-0.2,7,1.6,10.5H278.1z M235.6,350.4
		c-3.9,3.7-9.9,4.1-14.3,0.8c-30.9-23.2-52.4-51.7-60.2-62.9c-12.8-17.5-28.6,0.6-38.3-12.3c0,0-13.1-18.3-13.1-18.3
		c-1.5-2,1.3-4.7,3.3-3c0,0,14.1,12.4,14.1,12.4c2.7,2.4,6.1,3.6,9.7,3.6l14.9-0.2c4,0.1,7.7,1.8,10.5,4.6
		c8.3,8.4,24,23.5,35.7,29.6c14.7,7.6,22.3,19.8,22.4,19.9c1.3,2.3,4.9,2.4,6.3,0.1c0.7-1.1,17.5-26.4,24.7-52.8
		c4-14,9.1-28.3,25.5-24.9c-1.2,15.6-3.8,26.2-14,37c-16.9,18.2-24.4,35.1-16,54.3C243.3,342.7,239.5,346.7,235.6,350.4z
		 M240.1,473.3c-0.3-8.9,1.2-36.2,25-73.9c0,17.7,4.1,46.1,26.5,70.4C276.6,472.2,259.5,473.5,240.1,473.3z M300.6,468.4
		c-34.4-33.8-27.6-79.4-26.8-84c0.5-1,0.9-2.1,1.4-3.1c10.6,29.9,24.6,55.1,60.1,77.8C325.4,462.6,313.9,465.9,300.6,468.4z
		 M362.9,446.1c-5.2,3.1-11.3,6.3-18.6,9.4c-51-27.2-63.4-80.3-64.8-87.2c0.4-1.7,0.8-3.3,1.1-5c21.4,32.4,42.9,53.2,95,74.2
		C371.9,440.3,367.7,443.2,362.9,446.1z M382.2,431.9c-53.8-20.3-78.4-43.9-98.1-77.7l3.1-0.2c4.9-0.4,4.4-7.8-0.6-7.5
		c-32.3,5.7-48.1-20.6-24.5-49.9c-0.5,9.8,0.6,24.5,9,37.7c1.1,1.8,3.4,2.3,5.2,1.2c1.8-1.1,2.3-3.4,1.2-5.2
		c-12.3-20.1-6.6-42.6-6.5-43.8c2.1-2.5,4-5.2,5.5-8c2,19.2,8.6,47.4,28.7,75.7c2.9,4,8.9-0.3,6.1-4.3
		c-36.8-57.3-26.6-89.1-26.8-105.1c0.3-1.9,2.7-1.2,4.2-1.1c0.6,0.1,1,0.6,1,1.2c-2.4,37.1,31.5,111.5,76.6,146.4
		c3.8,3,12,10.9,18.8,18.2c-17.4-8.3-32.8-18.2-46-29.4c-1.6-1.3-3.9-1.2-5.3,0.4c-1.3,1.6-1.2,3.9,0.4,5.3
		c16.2,13.9,35.8,25.7,58.2,35.2C390.4,423.6,387.1,427.4,382.2,431.9z M376.5,317.6l13.1,14.4c-4.5,6.4-16.8,23.9-25.9,39.8
		c-1,1.7-1.6,3.5-2,5.3c-4.2-3.9-8-8.1-11.7-12.3c0.9-5.5,3.4-10,7.6-12.9C372.9,345.6,379.6,333.5,376.5,317.6z M359.3,244.8
		c13.5,16,34.3,55.7,50.3,74.9c4,5.1,4.8,12,2.1,17.8c-5.2,11-15.9,24.5-29.3,41c-1.4,1.6-1,4.3,0.8,5.4c0.8,0.6,17.6,12.6,14,27.9
		c-8.6-10.3-20.9-22.3-28-27.9c-0.8-2.8-0.4-5.8,1-8.3c11.2-19.5,27.1-41.4,27.3-41.6c1-1.4,0.9-3.4-0.3-4.7
		c-0.3-0.3-39.3-43.4-39.6-43.6c-1.3-2.9-2.2-6-2.7-9.2c-1.1-7.5-2.6-19-3.5-31.8C354.5,243.2,357.1,243.2,359.3,244.8z
		 M338.8,243.3c0.3-0.8,2.8-0.5,3.4-0.6c0.8,0,1.5,0.6,1.5,1.4c0.3,27.4,14.3,51.5-9.7,83.1c-2.1,2.3-0.3,6.3,2.8,6.2
		c1.1,0,2.1-0.4,2.8-1.3c10.1-11.7,13.9-25.1,15.2-35.8c5.1,6.7,12,13.5,13.7,20.8c3.5,13.6-1.2,22.8-14.3,28.2
		c-4.8,2.8-8.3,7.4-10.3,12.7c-11.6-14.3-20.4-28.1-26.9-40.9C340.7,293.3,338.7,258.5,338.8,243.3z M331.2,247.6
		c0.8,13.9,0,41.8-16.7,61.3c-2-13.3,4.3-25,4.4-25.1c2.3-4.3-4.1-7.9-6.5-3.7c-0.2,0.4-3.5,6.4-5,14.9
		c-8.1-21.8-9.8-38.6-10.1-46.1l8.8,0.8c0.1,0,0.2,0,0.4,0c5.4-0.4,4.7-7.9-0.8-7.6c1.2-4.7-0.3-10.2-0.5-14.8
		c5.5,2.2,11.4,0.6,16.1-2.8c0.1,6,0.5,10.9,0.9,14.2c0.2,1.2,0.5,2.3,1.1,3.4c-4.3,1-3.4,7.4,0.9,7.4
		C324.6,249.5,330.5,247.7,331.2,247.6z M314.5,219.7c-2.4,1.3-5.4,1.4-7.8,0.1c-7.4-3.9-19.8-13.5-19.8-33.4v-21.5h47.6
		C335,191.8,335.9,207.4,314.5,219.7z M341.3,157.4c0,0-10.8,0-10.8,0c1.7-3.5,2-7.1,1.5-10.5c1.3,0.3,2.6,0.5,4,0.6l5.5,0.3
		c0.9,0,1.7,0.8,1.8,1.7c0,0,0,0,0,0C343.3,152.2,344.5,157.1,341.3,157.4z M361,159.1c6.3,4.9,12.7,10.8,19.8,14.3
		c0.2,1.5,0.4,3,0.6,4.4c-9.7-6-24.9-10.9-33.2-16c3.2-3.6,2.8-8.2,2.5-13.1c-0.8-6.3-5.9-8.8-11.7-8.6c1.2-2.1,2.5-4.9,5.3-4.7
		c16.8,1.1,30.9,12.9,35,28.4c-4.9-3-9.3-7.5-13.9-10.8C361.5,150.2,357.1,156.2,361,159.1z M398.2,231.6c-5.8,2.1-12.6-5.2-13-12.2
		c-1.2-13.6-9.7-24-21.9-28.6c-8.2-3.3-15.1-6.5-21.3-9.7v-14.3c22.9,13.3,44.4,15,56,40.8c1.6,3.8,4,5.8,5.2,9.5
		C405.2,223.6,403,230.1,398.2,231.6z M419.7,192.7c5.3,1.9,10.2,7.5,8.2,12.9c-2.7,6.7-15.3,5.1-21.5,1.8
		c-3.9-7.5-7.4-14.8-15.6-22.4c-1.3-4.6-2.3-9.9-2.8-15.7c-2-21.1-19.1-38.3-40.5-41c0.5-1.4,0.2-3-0.9-4.1
		c-1.5-1.4-3.9-1.4-5.3,0.1c-3.9,4-7.4,9.2-10,14.4c-4-1.9-6-6.3-9.3-9c12.9-24,39.3-36.7,65.4-27c3.4,1.2,6.7,2.2,9.8,2.9
		c6.8,1.4,13.7,0,19.1-4c5.5-4.4,15.4-4.1,17.7,1.5c2.1,4.6-1.2,10.6-7.3,13.4c-3.6,1.8-6.9,1.1-10.9,1.9c-11.6,2.4-24.2-0.9-32.8-4
		c-4-1.2-15.7-5.5-16.4,1.1c-0.1,2,1.4,3.8,3.4,4c18.1,1.5,27.7,17,30.3,48.8C400.7,179.6,408.4,189.5,419.7,192.7z M408.9,173.6
		c-1.3-4.4-1.1-9.5-1.9-13.9c5.3,0.6,10.8-0.2,16.6-2.2c1.6-0.6,3.3-0.9,5.1-0.9c6.8,0,12.3,4.1,12.3,9.1s-5.5,9.1-12.3,9.1
		c-0.4,0-1.7-0.1-4.9-0.7C418.7,173.1,414.1,173.9,408.9,173.6z"/>
	<path d="M62.6,207.8c23,0,32.8,18.3,57.5,18.3c24.7,0,34.5-18.3,57.5-18.3c4.9-0.1,5-7.3,0.1-7.5c-0.1,0-14-0.3-27.9-9.3
		c-5.4-3.5-11.4-6.2-17.7-7.9c-14.2-4-29.6-0.1-41.7,7.9c-13.8,8.9-27.8,9.3-27.9,9.3C57.6,200.5,57.7,207.8,62.6,207.8z
		 M145.7,197.3L145.7,197.3c4.5,2.9,9.1,5.1,13.2,6.6c-5.3,1.7-11.5,5.4-16.9,8.7c2.2-5.4,2.2-12,0-17.4
		C143.4,195.8,144.6,196.5,145.7,197.3z M111.8,190c5.5-1.2,11.1-1.2,16.6,0c10.4,5.9,10.4,21.8,0,27.7c-5.5,1.2-11.1,1.2-16.6,0
		C101.4,211.8,101.4,195.9,111.8,190z M94.5,197.3c1.2-0.8,2.4-1.5,3.6-2.2c-2.2,5.4-2.2,12,0,17.4c-5.4-3.3-11.5-7-16.9-8.7
		C85.4,202.4,89.9,200.3,94.5,197.3z"/>
	<path d="M303.5,180.5l-6.7-1c-2-0.3-4,1.1-4.3,3.2c-0.3,2,1.1,4,3.2,4.3c0.2,0,7.3,1.1,7.2,1C307.5,188,308,181.1,303.5,180.5z"/>
	<path d="M322.8,179.5l-5.5,0.8c-4.5,0.6-4,7.5,0.5,7.5c0.1,0.1,5.8-0.8,6.1-0.8C328.7,186.2,327.6,178.9,322.8,179.5z"/>
	<path d="M73.3,177.4c1.5,4.7,8.6,2.5,7.2-2.2c-2.7-9-14.1-12.2-14.6-12.3c-3.5-1-5.9-2.9-7.3-5.5c-2.3-4.4-8.8-1.1-6.7,3.4
		c1.6,3.2,4.9,7.4,12,9.4C66,170.7,72,173.2,73.3,177.4z"/>
	<path d="M121.2,131.3c-6.9-2.8-8.8,11.2-4.1,18.9c1.1,2,3.6,8,1.5,11.8c-2.3,4.3,4.3,7.9,6.6,3.5c4.4-8.3-1.4-18.6-1.6-19
		c-2-3.7-2.3-7.1-0.8-10.2C123.8,134.5,123.1,132.3,121.2,131.3z"/>
	<path d="M181.2,153.8c4.5-2,1.7-8.8-2.9-6.9c-12.7,5.3-8,17.8-17.5,22.2c-4,1.2-3,7.4,1.1,7.3c9-1.2,13.4-14.7,13.2-14.9
		C176.1,157.6,178.2,155,181.2,153.8z"/>
	<path d="M220.6,221.5c0.1,5.4,8.1,5.4,8.2,0C228.7,216.1,220.7,216.1,220.6,221.5z"/>
	<path d="M210.3,158.4c-5.4,0.1-5.4,8.1,0,8.2C215.7,166.5,215.7,158.4,210.3,158.4z"/>
	<path d="M212,100.5c-5.4,0.1-5.4,8.1,0,8.2C217.4,108.5,217.4,100.5,212,100.5z"/>
	<path d="M207.6,53.8c-5.4,0.1-5.4,8.1,0,8.2C213,61.9,213,53.8,207.6,53.8z"/>
	<path d="M289.3,40.4c-0.1-5.4-8.1-5.4-8.2,0C281.2,45.8,289.2,45.8,289.3,40.4z"/>
	<path d="M351.5,40.3c5.4-0.1,5.4-8.1,0-8.2C346.1,32.2,346.1,40.2,351.5,40.3z"/>
	<path d="M399.4,68.8c5.4-0.1,5.4-8.1,0-8.2C394,60.7,394,68.7,399.4,68.8z"/>
	<path d="M423.1,111.5c5.4-0.1,5.4-8.1,0-8.2C417.8,103.4,417.8,111.4,423.1,111.5z"/>
	<path d="M428.8,169.3c5.4-0.1,5.4-8.1,0-8.2C423.4,161.2,423.4,169.2,428.8,169.3z"/>
	<path d="M414.2,203.1c5.4-0.1,5.4-8.1,0-8.2C408.9,195,408.9,203,414.2,203.1z"/>
	<path d="M395.1,215c-5.4,0.1-5.4,8.1,0,8.2C400.4,223.1,400.4,215.1,395.1,215z"/>
	<path d="M120.1,208c5.4-0.1,5.4-8.1,0-8.2C114.7,199.9,114.7,207.9,120.1,208z"/>
	<path d="M321,363.6c-5.4,0.1-5.4,8.1,0,8.2C326.4,371.7,326.4,363.7,321,363.6z"/>
	<path d="M355.2,113.9c-5.4,0.1-5.4,8.1,0,8.2C360.6,122,360.6,114,355.2,113.9z"/>
</g>
</svg>
