<?xml version="1.0" encoding="utf-8"?>
<!-- Generator: Adobe Illustrator 24.0.0, SVG Export Plug-In . SVG Version: 6.00 Build 0)  -->
<svg version="1.1" id="stroke" xmlns="http://www.w3.org/2000/svg" xmlns:xlink="http://www.w3.org/1999/xlink" x="0px" y="0px"
	 viewBox="0 0 340 340" style="enable-background:new 0 0 340 340;" xml:space="preserve">
<g>
	<path d="M48,183.4c-1.9,0-3.5-1.6-3.5-3.5v-32.7c0-1.9,1.6-3.5,3.5-3.5h9.5c7.1,0,13.6,3.6,17.4,9.7l6,9.7c1,1.6,0.5,3.8-1.1,4.8
		c-1.6,1-3.8,0.5-4.8-1.1l-6-9.7c-2.5-4-6.8-6.4-11.5-6.4h-6v29.2C51.5,181.8,49.9,183.4,48,183.4z"/>
	<path d="M62,232.7h-7.2c-5.7,0-10.3-4.6-10.3-10.3v-10.3c0-1.9,1.6-3.5,3.5-3.5s3.5,1.6,3.5,3.5v10.3c0,1.8,1.5,3.3,3.3,3.3H62
		c1.9,0,3.5,1.6,3.5,3.5S64,232.7,62,232.7z"/>
	<path d="M241.3,159.7c-0.6,0-1.2-0.2-1.8-0.5c-6.8-4-10.6-9.3-12.5-13.1c-1.9-3.7-1.9-8.3,0-12.1l0.7-1.3c0.6-1.2,0.1-2.3-0.1-2.7
		c-0.2-0.4-1-1.3-2.3-1.3h-20c-2.9,0-5.2,2.3-5.2,5.2V156c0,1.9-1.6,3.5-3.5,3.5s-3.5-1.6-3.5-3.5v-22.1c0-6.7,5.5-12.2,12.2-12.2
		h20c3.4,0,6.5,1.7,8.3,4.6s1.9,6.5,0.4,9.5l-0.7,1.3c-0.9,1.8-0.9,4,0,5.7c1.5,3,4.5,7.1,9.8,10.2c1.7,1,2.2,3.1,1.3,4.8
		C243.6,159.1,242.5,159.7,241.3,159.7z"/>
	<path d="M331.1,199.4c-1.4,0-2.8-0.9-3.3-2.3l-0.7-1.9c-7.8-21.1-28.1-35.3-50.6-35.3H115c-10.5,0-20.6,2-30.3,5.9
		c-12,4.9-30.3,13.5-49.7,27.4c-1.6,1.1-3.8,0.8-4.9-0.8c-1.1-1.6-0.8-3.8,0.8-4.9c20-14.2,38.8-23.2,51.2-28.2
		c10.5-4.2,21.5-6.4,32.9-6.4h161.5c25.4,0,48.4,16,57.1,39.9l0.7,1.9c0.7,1.8-0.3,3.8-2.1,4.5C331.9,199.3,331.5,199.4,331.1,199.4
		z"/>
	<path d="M51.9,199.4H33.3c-1.9,0-3.5-1.6-3.5-3.5s1.6-3.5,3.5-3.5h18.6c1.9,0,3.5,1.6,3.5,3.5S53.8,199.4,51.9,199.4z"/>
	<path d="M276.5,238.8H115c-10.7,0-21.2-1.9-31.1-5.7c-1.8-0.7-2.7-2.7-2-4.5c0.7-1.8,2.7-2.7,4.5-2c9.2,3.5,18.8,5.2,28.6,5.2
		h161.5c21.5,0,41-12.9,49.4-32.4H96.4c-1.9,0-3.5-1.6-3.5-3.5s1.6-3.5,3.5-3.5h234.6c1.1,0,2.2,0.6,2.9,1.5
		c0.7,0.9,0.8,2.1,0.4,3.2l-0.7,1.9C324.9,222.8,301.9,238.8,276.5,238.8z"/>
	<path d="M65.8,224.7c-0.5,0-1.1-0.1-1.6-0.4c-11.5-5.8-22.6-12.5-33-19.9c-1.6-1.1-1.9-3.3-0.8-4.9c1.1-1.6,3.3-1.9,4.9-0.8
		c10.1,7.2,20.9,13.7,32.1,19.3c1.7,0.9,2.4,3,1.6,4.7C68.3,224,67.1,224.7,65.8,224.7z"/>
	<path d="M71,245.9c-0.2,0-0.3,0-0.5,0l-13.4-0.5c-1.2,0-2.2-0.7-2.8-1.6c-0.6-1-0.7-2.2-0.2-3.3l13-29.7c0.6-1.3,1.8-2.1,3.2-2.1
		h25.6c1.3,0,2.5,0.7,3.1,1.8c0.6,1.1,0.6,2.5-0.1,3.6l-16.4,25.6C79.9,243.5,75.6,245.9,71,245.9z M62.5,238.5l8.3,0.3
		c2.3,0.1,4.5-1.1,5.7-3l12.9-20.2H72.6L62.5,238.5z"/>
	<path d="M32.6,217.8c-0.3,0-0.7,0-1-0.1l-17.2-5.1c-5.3-1.6-9-6.5-9-12v-9.5c0-5.5,3.7-10.4,9-12l17.2-5.1c1.1-0.3,2.2-0.1,3.1,0.6
		c0.9,0.7,1.4,1.7,1.4,2.8v36.9c0,1.1-0.5,2.1-1.4,2.8C34.1,217.6,33.3,217.8,32.6,217.8z M29.1,182.1l-12.7,3.8
		c-2.3,0.7-3.9,2.9-3.9,5.3v9.5c0,2.4,1.6,4.6,3.9,5.3l12.7,3.8V182.1z"/>
	<path d="M89.4,205.8H74.6c-8.7,0-17.2-2.4-24.6-6.9c-1-0.6-1.7-1.8-1.7-3c0-1.2,0.6-2.3,1.7-3c7.4-4.5,15.9-6.9,24.6-6.9h14.8
		c5.5,0,9.9,4.4,9.9,9.9S94.9,205.8,89.4,205.8z M59.6,195.9c4.8,1.9,9.8,2.9,15,2.9h14.8c1.6,0,2.9-1.3,2.9-2.9s-1.3-2.9-2.9-2.9
		H74.6C69.4,192.9,64.4,193.9,59.6,195.9z"/>
	<path d="M115,238.8c-1.9,0-3.5-1.6-3.5-3.5v-26.8c0-1.9,1.6-3.5,3.5-3.5s3.5,1.6,3.5,3.5v26.8C118.5,237.2,116.9,238.8,115,238.8z"
		/>
	<path d="M115,198.5c-1.9,0-3.5-1.6-3.5-3.5v-37.3c0-1.9,1.6-3.5,3.5-3.5s3.5,1.6,3.5,3.5V195C118.5,196.9,116.9,198.5,115,198.5z"
		/>
	<path d="M285.8,236.6c-1.9,0-3.5-1.6-3.5-3.5v-24.7c0-1.9,1.6-3.5,3.5-3.5s3.5,1.6,3.5,3.5v24.7
		C289.3,235.1,287.7,236.6,285.8,236.6z"/>
	<path d="M285.8,198.5c-1.9,0-3.5-1.6-3.5-3.5v-37.3c0-1.9,1.6-3.5,3.5-3.5s3.5,1.6,3.5,3.5V195
		C289.3,196.9,287.7,198.5,285.8,198.5z"/>
	<path d="M209.2,128.1c-1.9,0-3.5-1.6-3.5-3.5v-27c0-1.9,1.6-3.5,3.5-3.5s3.5,1.6,3.5,3.5v27C212.7,126.6,211.2,128.1,209.2,128.1z"
		/>
	<path d="M223,128.1c-1.9,0-3.5-1.6-3.5-3.5V113c0-1.9,1.6-3.5,3.5-3.5s3.5,1.6,3.5,3.5v11.6C226.5,126.6,225,128.1,223,128.1z"/>
	<circle cx="131.9" cy="172" r="3.5"/>
	<circle cx="131.9" cy="208.6" r="3.5"/>
	<circle cx="150.3" cy="172" r="3.5"/>
</g>
</svg>
