<svg id="line" xmlns="http://www.w3.org/2000/svg" viewBox="0 0 64 64"><title>1</title><path d="M58.85465,58.647,54.45357,46.95506c-.41044-1.09248-2.49583-5.03855-3.93322-3.58034a.99922.99922,0,0,0,.08344,1.41129,7.33142,7.33142,0,0,1,1.97812,2.87513L56.47368,57.9995H44.40576l-6.23521-9.15843,5.99356-6.88166,3.276,1.098a1.00027,1.00027,0,0,0,.63572-1.89658c-2.94016-.96975-6.66959-1.93408-8.66431-4.46688l-.00009-1.81714a16.60392,16.60392,0,0,0,7.8998-13.0755,10.95786,10.95786,0,0,0,7.0833,2.13317.9997.9997,0,0,0,.98735-.84281,8.23712,8.23712,0,0,0-1.70662-6.2122A7.36908,7.36908,0,0,0,49.869,14.64c4.96036-3.43936,4.512-9.59766,4.50545-9.67121a1.00046,1.00046,0,0,0-.90336-.90824c-6.06375-.56412-8.96318,2.94355-10.16617,5.12108C35.68533.13167,21.9703,3.78345,18.56739,15.016c-2.69287,7.7805,1.16448,17.699,8.86413,20.70542l-.00016.964a10.98565,10.98565,0,0,1-4.6,3.09822l-3.62052-3.9793a2.122,2.122,0,0,0,.56925-3.2182L18.72735,31.427a2.00279,2.00279,0,0,0-2.79254-.15849l-4.81913-5.3066c-2.94067-3.19876-8.08629,1.45094-5.17447,4.6995l4.81673,5.30309a2.02372,2.02372,0,0,0-.2824,2.95894l1.05227,1.15923a2.121,2.121,0,0,0,3.2564-.25733l1.96918,2.16745a9.37955,9.37955,0,0,0-4.373,4.96323L7.98029,58.647a1.00768,1.00768,0,0,0,.9361,1.35258l4.84,0a1.00013,1.00013,0,0,0,0-2.00009H10.36125l3.8908-10.33738A7.396,7.396,0,0,1,18.7464,43.283c.03818-.01171,3.80919-1.28485,3.80919-1.28485l1.79213,2.87867a1.0001,1.0001,0,0,0,1.6983-1.0567l-1.57677-2.5327a12.98809,12.98809,0,0,0,3.88488-2.65118L41.9864,57.9995H34.86279L28.156,47.22069a1.00021,1.00021,0,0,0-1.69829,1.05673L32.507,57.9995H17.75661a1.00017,1.00017,0,0,0,.00005,2.00008H57.91857A1.00776,1.00776,0,0,0,58.85465,58.647ZM7.42118,29.31657c-1.17772-1.26585,1.08727-3.28563,2.214-2.00984l4.81661,5.30295-2.21366,2.01065Zm5.58668,9.42132-1.05181-1.15923c1.03322-.94081,5.29021-4.80478,5.29175-4.80686l1.05278,1.15728C17.27479,34.86265,13.00786,38.73789,13.00786,38.73789Zm5.70747,2.43969L16.265,38.48037c.21574-.19645,1.27335-1.15678,1.46577-1.33044l3.03773,3.33853ZM52.15562,18.18032a5.83338,5.83338,0,0,1,1.29254,3.7238c-4.60959-.29975-5.96066-2.74994-6.14786-3.14388a17.67978,17.67978,0,0,0-.42641-2.50633C49.284,16.29553,51.0642,16.93619,52.15562,18.18032Zm.05371-12.17926c.06055,0,.12208,0,.1836.002a8.62691,8.62691,0,0,1-6.12912,8.20581,16.871,16.871,0,0,0-1.62233-3.23519A7.79484,7.79484,0,0,1,52.20933,6.00106ZM19.724,20.40015a15.86347,15.86347,0,0,1,.50851-3.96209h17.7052a1.00015,1.00015,0,0,0,0-2.00009H20.89859c2.02854-4.93968,6.48205-8.38515,11.65116-8.38515S42.17238,9.49829,44.20091,14.438h-2.263a1.00014,1.00014,0,0,0,0,2.00009H44.867a15.91235,15.91235,0,0,1-.466,9.43414,19.37329,19.37329,0,0,1-6.02923-.98357C35.7337,24.33,33.39607,21.22382,30.69131,22.99a18.735,18.735,0,0,1-9.99268,2.88265A15.738,15.738,0,0,1,19.724,20.40015Zm1.881,7.441a20.62878,20.62878,0,0,0,10.18448-3.179,1.43785,1.43785,0,0,1,1.51374.00488,20.417,20.417,0,0,0,10.19363,3.16988C38.61328,36.99563,26.48971,36.996,21.605,27.8411ZM29.43145,36.748v-.37221a13.4146,13.4146,0,0,0,7.97985-.5504v.9369l-3.89654,5.36578Zm5.32348,7.07607,3.75017-5.16381a12.983,12.983,0,0,0,3.66722,2.54034l-5.16564,5.93093Z"/><path d="M22.68359,18.16372a1.00052,1.00052,0,0,0,1.16216,1.629,2.29764,2.29764,0,0,1,2.83851,0,1.00024,1.00024,0,0,0,1.16118-1.629A4.28567,4.28567,0,0,0,22.68359,18.16372Z"/><path d="M25.26464,20.423a1.00015,1.00015,0,0,0,0,2.00009A1.00015,1.00015,0,0,0,25.26464,20.423Z"/><path d="M37.93964,19.97826a1.00085,1.00085,0,0,0,.58011-.18556,2.29764,2.29764,0,0,1,2.83851,0,1.00044,1.00044,0,0,0,1.16113-1.629,4.28564,4.28564,0,0,0-5.1618,0A1.00669,1.00669,0,0,0,37.93964,19.97826Z"/><path d="M39.93858,20.423a1.00015,1.00015,0,0,0,0,2.00009A1.00015,1.00015,0,0,0,39.93858,20.423Z"/></svg>