<svg xmlns="http://www.w3.org/2000/svg" viewBox="0 0 64 64"><g id="Book"><path d="M57,3a1,1,0,0,0-1-1H14A7.009,7.009,0,0,0,7,9V55c0,.013.007.024.008.038a6.808,6.808,0,0,0,1.976,4.727A7.4,7.4,0,0,0,14.252,62H56a1,1,0,0,0,.832-1.555l-.3-.453a8.975,8.975,0,0,1,0-9.984l.3-.453a1.263,1.263,0,0,0,.057-.117c.013-.027.028-.052.039-.081A.994.994,0,0,0,57,49.018.149.149,0,0,0,57,49ZM55,48H15V4H55ZM9,9a5.009,5.009,0,0,1,4-4.9V48.078A6.885,6.885,0,0,0,9.056,50.05L9,50.105Zm5.252,51a5.4,5.4,0,0,1-3.836-1.631A4.491,4.491,0,0,1,9.058,54.4c.018-.147.023-.3.053-.439a4.739,4.739,0,0,1,.147-.484,4.53,4.53,0,0,1,.139-.432,4.739,4.739,0,0,1,.244-.455c.071-.128.129-.263.212-.385A5.03,5.03,0,0,1,14,50H54.22a10.99,10.99,0,0,0-.77,2H43a1,1,0,0,0,0,2H53.071a10.952,10.952,0,0,0,0,2H32a1,1,0,0,0,0,2H53.45a10.99,10.99,0,0,0,.77,2Z" style="fill:#231f20"/><path d="M31.516,31.875a1,1,0,0,0,1.014-.027l8-5a1,1,0,0,0,0-1.7l-8-5A1,1,0,0,0,31,21V31A1,1,0,0,0,31.516,31.875ZM33,22.805,38.113,26,33,29.2Z" style="fill:#231f20"/><path d="M35,37A11,11,0,1,0,24,26,11.013,11.013,0,0,0,35,37Zm0-20a9,9,0,1,1-9,9A9.01,9.01,0,0,1,35,17Z" style="fill:#231f20"/></g></svg>