<?xml version="1.0" encoding="utf-8"?>
<!-- Generator: Adobe Illustrator 24.3.0, SVG Export Plug-In . SVG Version: 6.00 Build 0)  -->
<svg version="1.1" id="Layer_1" xmlns="http://www.w3.org/2000/svg" xmlns:xlink="http://www.w3.org/1999/xlink" x="0px" y="0px"
	 viewBox="0 0 512 512" enable-background="new 0 0 512 512" xml:space="preserve">
<path d="M491.1,71.6c-3.5-1.5-7.6-0.2-9.7,2.9c-0.1,0.2-14.9,21.6-43.3,28.7c-31,7.8-66,7.8-94.1,7.8c-19.8,0-35.9,7.4-48.2,16.5
	c2.4-10.6,5.2-20.9,7.9-30.3c0.9-3.2-0.3-6.7-3-8.7c-1.6-1.2-3.6-1.6-5.5-1.4c4.5-11.1,4-24-2.4-34.6c-3.6-5.9-4.8-12.9-3.3-19.7
	l0.4-2c0.6-2.9-0.4-5.8-2.6-7.7c-2.2-1.9-5.3-2.5-8-1.5c-4,1.5-8.5,4.6-11.8,9c-9.1-9.2-18-17.2-19.7-18.1c-2.7-1.3-5.9-1.1-8.3,0.7
	c-2.4,1.8-3.7,4.7-3.2,7.6c2,13.9-0.1,21.1-2.9,25.5c-4.3-2.3-9.7-4.9-13.5-6.4c-0.3-0.2-0.6-0.3-0.9-0.4l0,0.1
	c-1.3-0.4-2.3-0.7-3-0.7c-3.8,0-7.1,2.7-7.8,6.4c-0.5,2.6,0.3,5.2,2,7c0.1,0.3,0.3,0.7,0.4,1c0.1,0.1,0.4,1,0.4,1.1
	c1.2,2.7,2,5.4,2.2,7.8c0.1,1.6-0.3,3.6-0.7,5.9c-0.4,1.8-0.7,3.6-0.9,5.5c-0.6,5.4-0.4,10.2,0.1,14.6c-0.1,0.1-0.3,0.1-0.4,0.2
	c-2.7,2-3.9,5.4-3,8.7c2.7,9.4,5.5,19.7,7.9,30.3c-12.3-9.1-28.4-16.5-48.2-16.5c-28.1,0-63,0-94.1-7.8
	c-28.4-7.1-43.2-28.5-43.3-28.7c-2.1-3.2-6.2-4.4-9.7-3c-3.5,1.5-5.5,5.2-4.8,9C16.3,81.4,34.2,167,104,167c26.6,0,44.9,4.4,57.5,10
	c-18.7,1-37.3,5.8-54.1,14.1c-11.5,5.7-23.9,11.6-36.8,16l-1.2,0.4c-2.8,1-4.9,3.4-5.3,6.4c-0.4,3,0.8,5.9,3.3,7.7
	c1.5,1.1,27.4,19.1,64.4,19.1c8.9,0,18.4-1.2,28.4-3.8l-15.3,30.6c-1.8,3.5-0.7,7.8,2.5,10.1c0.6,0.4,1.3,0.7,2,1
	c4.7,13.5,12,26.2,20.8,35.7c27.9,29.8,41.7,68.1,38,105l-0.2,1.6c-0.2,2.3,0.6,4.6,2.1,6.3l13.9,14.7c1.2,51.5,28.7,53.2,31.9,53.2
	s30.7-1.7,31.9-53.2l13.9-14.7c1.6-1.7,2.4-4,2.1-6.3l-0.2-1.6c-3.7-37,10.2-75.3,38-105c9.4-10.1,16.9-22.9,21.5-36.1
	c0.4-0.2,0.9-0.3,1.3-0.6c3.2-2.3,4.2-6.6,2.5-10.1l-15.3-30.7c10.3,2.6,20.4,3.9,29.9,3.9c38.9,0,68.7-17.7,70.4-18.8
	c2.8-1.7,4.2-4.8,3.8-8c-0.5-3.2-2.8-5.8-5.9-6.6l-10.9-2.8c-10.3-2.6-21.3-6.9-34.5-13.4c-16.8-8.3-35.4-13.1-54.1-14.1
	c12.6-5.5,30.9-10,57.5-10c69.8,0,87.7-85.6,87.8-86.4C496.6,76.8,494.6,73.1,491.1,71.6z M238.2,149.5c-0.7-0.9-1.4-1.8-2.1-2.7
	c-1.7-11.4-4.1-22.6-6.8-33.3l6.3,4.2c3.2,2.1,7.4,1.7,10.1-1l10.3-10.3l10.3,10.3c2.7,2.7,6.9,3.1,10.1,1l6.3-4.2
	c-2.7,10.7-5.1,21.9-6.8,33.3c-0.8,0.9-1.5,1.8-2.1,2.7l-14.8-5.9c-1.9-0.8-4-0.8-5.9,0L238.2,149.5z M280.1,62.5
	c4.8,9.8,1.4,22.6-8.3,29.8l-4.2,3.1l-6-6c-1-1-2.2-1.6-3.5-1.9C266.5,83.5,278.1,74.8,280.1,62.5z M227.5,75.4
	c0.1-1.4,0.4-2.7,0.7-4c0.5-2.7,1.1-5.7,1-9.1c0.6,0.4,1.2,0.8,1.8,1.1c0.1,0,0.2,0.1,0.2,0.1c0.1,0,0.1,0.1,0.1,0.1
	c0.6,0.4,2.9,2.1,2.9,3.9c0,4.4,3.6,8,8,8s8-3.6,8-8c0-4.9-1.9-8.7-4.1-11.6c3-4.4,5.5-9.9,6.5-17.5c3,3,6.4,6.5,9.8,10.1
	c0.2,2.2,0.7,4.6,1.5,7.1c3.4,10.5-13.3,17.8-13.7,17.9c-4.1,1.7-6,6.4-4.3,10.4c1,2.5,3.2,4.1,5.7,4.6c-0.4,0.3-0.8,0.4-1.2,0.8
	L239,100.7l-8.9-5.9C228.1,92,226.3,86.4,227.5,75.4z M42.2,106.7c7.6,4.9,16.8,9.3,27.9,12.1c33,8.2,69,8.2,97.9,8.2
	c24.2,0,41.7,13.7,52.7,26.3c0.1,1,0.3,2.1,0.4,3.1l-37.3,14.9c-13.7-9.8-38-20.3-79.8-20.3C71.1,151,52.3,127.2,42.2,106.7z
	 M91.2,216.2c8.3-3.5,16.2-7.3,23.3-10.8c16.6-8.2,35.1-12.5,53.5-12.6v24.8C135.6,230.2,107.4,223.1,91.2,216.2z M166.4,278.7
	c3.4,2,7.4,4.8,11.3,7.7c-1.2,0.5-2.3,1.2-3.2,2.2c-0.7,0.9-1.1,1.9-1.4,3C170.6,287.6,168.4,283.3,166.4,278.7z M256,479
	c-3.6,0-11.8-4.7-14.8-24h29.7C267.8,474.3,259.6,479,256,479z M287.7,418.8L268.5,439h-25.1l-19.1-20.2c3.2-38-10-76.8-36.3-108.2
	c4.2,1.1,8.1,0.4,10.3-2.3c1-1.2,1.5-2.7,1.6-4.3c11.2,8.5,21.9,15.1,32.1,15.1c4.4,0,8-3.6,8-8v-24c0-4.4-3.6-8-8-8s-8,3.6-8,8
	v13.6c-7.7-3.8-17.3-11.6-25.5-18.2c-11.1-9-22.4-18.1-32.7-21.3l17.3-34.6c0.1-0.1,0-0.2,0.1-0.3c0.4-0.9,0.6-1.8,0.7-2.8
	c0-0.2,0.1-0.3,0.1-0.4v-34.6l72-28.8l72,28.8V223c0,0.2,0.1,0.3,0.1,0.4c0.1,1,0.3,1.9,0.7,2.8c0,0.1,0,0.2,0.1,0.3l17.3,34.6
	c-10.3,3.2-21.6,12.3-32.7,21.3c-8.2,6.6-17.8,14.3-25.5,18.2V287c0-4.4-3.6-8-8-8s-8,3.6-8,8v24c0,4.4,3.6,8,8,8
	c10.2,0,20.9-6.6,32.1-15.1c0.1,1.6,0.6,3.1,1.6,4.3c2.2,2.7,6.1,3.4,10.3,2.3C297.7,342,284.5,380.8,287.7,418.8z M338.9,291.8
	c-0.2-1.2-0.7-2.3-1.5-3.3c-0.8-1-1.9-1.7-3.2-2.2c4.1-3.1,8.4-6.1,12-8C344.2,283.1,341.7,287.6,338.9,291.8z M424.5,216.8
	c-18.9,6.6-49.3,12.8-80.5,0.8v-24.8c18.5,0.1,37,4.4,53.5,12.6C407.4,210.3,416.2,214,424.5,216.8z M408,151
	c-41.8,0-66.1,10.4-79.8,20.3l-37.3-14.9c0.1-1,0.3-2.1,0.4-3.1c11-12.6,28.4-26.3,52.7-26.3c29,0,65,0,97.9-8.2
	c10.9-2.7,20.1-7.1,27.5-11.9C459.2,127.4,440.3,151,408,151z"/>
<path d="M275.1,399.6c-3-1.2-6.4-0.6-8.7,1.7L256,411.7l-10.3-10.3c-2.3-2.3-5.7-3-8.7-1.7c-3,1.2-4.9,4.2-4.9,7.4v8
	c0,4.4,3.6,8,8,8c1.4,0,2.6-0.3,3.8-0.9l6.6,6.6c1.6,1.6,3.6,2.3,5.7,2.3s4.1-0.8,5.7-2.3l6.6-6.6c1.1,0.6,2.4,0.9,3.8,0.9
	c4.4,0,8-3.6,8-8v-8C280,403.8,278,400.8,275.1,399.6z"/>
<path d="M294,266.5c0.6,0.4,1.3,0.5,2,0.5c0.9,0,1.9-0.3,2.6-1c1.3-1.1,1.7-3,1.1-4.5l-14.3-34.3l28.6-16.7c1.6-0.9,2.3-2.8,1.8-4.5
	c-0.5-1.7-2.1-3-3.9-3h-36.7l-15.6-37.5c-1.2-3-6.1-3-7.4,0L236.7,203H200c-1.8,0-3.4,1.2-3.9,3c-0.5,1.8,0.3,3.6,1.8,4.5l28.6,16.7
	l-14.3,34.3c-0.7,1.6-0.2,3.4,1.1,4.5c1.3,1.1,3.2,1.3,4.6,0.4l38-22.2L294,266.5z M297.2,211l-14.9,8.7l-3.6-8.7H297.2z
	 M278.4,231.2l9.3,22.3l-23.8-13.9L278.4,231.2z M256,177.4l10.7,25.6h-21.3L256,177.4z M242,211h28l5.3,12.8L256,235l-19.3-11.3
	L242,211z M214.8,211h18.5l-3.6,8.7L214.8,211z M224.3,253.5l9.3-22.3l14.5,8.4L224.3,253.5z"/>
</svg>
