<?xml version="1.0" encoding="UTF-8"?><svg id="outline" xmlns="http://www.w3.org/2000/svg" viewBox="0 0 960 960"><path d="M516.061,429.556c-21.854,1.258-48.225,10.137-68.82,23.172-25.789,16.322-41.032,37.918-42.923,60.81h0c-1.812,21.953,10.562,39.771,33.95,48.885,7.077,2.758,15.059,3.895,23.247,3.895,16.227,0,33.255-4.469,45.599-9.648,17.855-7.493,33.654-16.714,49.718-29.018,25.712-19.694,31.911-48.04,16.178-73.976-10.056-16.577-31.346-25.598-56.948-24.12Zm28.609,82.218c-14.668,11.235-29.062,19.641-45.296,26.454-15.796,6.628-39.385,11.196-53.844,5.561-15.198-5.923-22.358-15.547-21.28-28.604,3.061-36.988,57.1-63.596,92.96-65.661,26.791-1.544,36.396,10.729,38.699,14.526,14.096,23.237-.991,39.875-11.239,47.725Zm339.206-214.696c-2.618,4.863-8.682,6.684-13.545,4.066-28.108-15.127-56.982-25.047-85.821-29.484-117.597-18.709-216.753-9.125-303.188,29.29h0c-.291,.131-.71,.318-1.254,.555-20.458,8.896-90.875,42.396-138.043,99.969-22.899,27.952-31.139,55.689-24.492,82.441,2.104,7.639,7.2,17.736,19.531,22.695,5.124,2.061,7.607,7.885,5.547,13.009-1.569,3.901-5.319,6.271-9.281,6.271-1.242,0-2.504-.233-3.728-.725-15.608-6.277-26.756-19.093-31.392-36.088-.019-.068-.037-.137-.054-.206-8.313-33.255,1.241-66.924,28.398-100.072,50.01-61.042,124.04-96.287,145.538-105.635,.396-.172,.683-.296,.854-.373,.084-.041,.168-.079,.253-.117,90.079-40.034,192.92-50.1,314.403-30.773,31.047,4.776,62.087,15.421,92.208,31.632,4.863,2.617,6.684,8.682,4.066,13.545Zm-163.363,99.525c-16.162-13.813-33.756-22.067-53.783-25.229-.077-.012-.153-.025-.229-.039-12.788-2.325-24.061-3.419-35.476-3.443-.149,0-.305,0-.454,0-39.321,0-93.859,10.358-116.658,17.558-50.908,16.545-94.05,39.796-128.149,69.081-1.887,1.62-4.205,2.414-6.511,2.414-2.815,0-5.613-1.182-7.591-3.485-3.598-4.19-3.119-10.503,1.071-14.102,36.115-31.016,81.562-55.562,135.077-72.954,24.082-7.605,81.461-18.512,122.779-18.512,.16,0,.317,0,.477,0,12.597,.026,24.96,1.216,38.897,3.745,23.802,3.779,44.642,13.56,63.705,29.9,.093,.08,.185,.162,.275,.245,17.767,16.4,29.018,34.829,34.396,56.339,1.34,5.358-1.917,10.788-7.275,12.127-5.362,1.339-10.788-1.917-12.127-7.275-4.39-17.558-13.688-32.727-28.423-46.369Zm51.053,100.95c0,26.812-24.085,62.576-38.442,81.509-25.22,33.257-59.338,66.779-96.07,94.393-31.739,23.86-65.42,41.233-94.182,55.082-.15,.072-.303,.141-.457,.206-26.838,11.301-49.443,19.09-71.139,24.515-45.511,11.377-88.621,17.015-130.593,17.015-15.869,0-31.573-.806-47.186-2.412-5.494-.565-9.49-5.477-8.925-10.97,.565-5.494,5.48-9.497,10.971-8.924,54.56,5.609,110.456,.994,170.882-14.111,20.616-5.154,42.229-12.606,67.997-23.447,27.836-13.408,60.341-30.181,90.614-52.938,35.292-26.532,68.02-58.668,92.151-90.491,21.527-28.387,34.378-54.339,34.378-69.424,0-5.523,4.477-10,10-10s10,4.477,10,10Zm-512.176,255.984c-.895,4.812-5.096,8.175-9.82,8.175-.606,0-1.221-.056-1.838-.17-25.857-4.806-51.644-11.772-76.644-20.706-5.201-1.859-7.91-7.582-6.052-12.782,1.859-5.2,7.58-7.91,12.782-6.052,24.001,8.577,48.752,15.265,73.567,19.877,5.43,1.009,9.014,6.229,8.004,11.659Zm80.688-48.042c-24.508,0-48.917-1.838-73.153-5.519-68.524-10.409-131.65-35.007-187.624-73.113-4.565-3.108-5.747-9.328-2.639-13.894,3.108-4.565,9.329-5.746,13.894-2.639,53.48,36.408,113.83,59.916,179.373,69.872,64.288,9.763,129.953,5.997,195.171-11.196,5.339-1.411,10.811,1.78,12.219,7.12,1.408,5.34-1.78,10.811-7.12,12.219-43.326,11.422-86.869,17.149-130.12,17.149Zm327.25-164.744c9.31-13.19,13.492-29.437,11.474-44.574-.01-.072-.019-.145-.027-.217-.896-8.063-7.305-26.84-21.398-33.415-5.005-2.335-7.169-8.285-4.834-13.29,2.335-5.005,8.286-7.169,13.29-4.834,21.1,9.844,31.166,34.78,32.807,49.219,2.644,20.045-2.811,41.414-14.972,58.644-33.336,47.23-88.108,84.095-124.89,98.36-1.188,.461-2.411,.68-3.613,.68-4.008,0-7.79-2.426-9.326-6.387-1.997-5.149,.558-10.942,5.708-12.939,28.436-11.029,82.737-44.43,115.782-91.247Zm-283.637,77.475l.318-.014c15.297-.688,68.991-4.351,117.671-22.609,40.634-15.241,72.179-35.125,105.476-66.484,2.389-2.25,4.586-5.071,6.912-8.058,.497-.638,.993-1.275,1.492-1.909,3.418-4.337,9.706-5.083,14.044-1.665,4.338,3.418,5.083,9.706,1.665,14.044-.476,.604-.948,1.21-1.421,1.818-2.689,3.453-5.47,7.023-8.98,10.33-35.348,33.291-68.892,54.42-112.165,70.651-51.43,19.29-107.757,23.142-123.796,23.863l-.303,.014c-9.156,.418-18.802,.859-28.662,.859-14.896,0-30.284-1.005-45.24-4.612-23.41-5.646-42.702-11.612-60.765-22.375-33.353-19.874-53.15-52.493-55.744-91.849-2.134-32.396,6.476-67.933,24.245-100.064,2.673-4.834,8.759-6.584,13.59-3.912,4.833,2.673,6.584,8.757,3.912,13.59-15.937,28.819-23.675,60.451-21.79,89.07,2.148,32.594,18.493,59.579,46.024,75.983,15.903,9.476,33.575,14.894,55.217,20.114,22.09,5.328,45.582,4.254,68.299,3.216Zm73.401-365.394c-74.633,31.735-140.618,78.528-196.123,139.079-1.972,2.151-4.669,3.243-7.374,3.243-2.414,0-4.835-.869-6.755-2.628-4.071-3.732-4.346-10.058-.614-14.129,57.448-62.67,125.761-111.109,203.04-143.97,53.409-22.711,98.134-32.443,126.249-36.608,.048-.007,.096-.014,.144-.02,5.073-.676,10.042-1.465,14.847-2.227,12.545-1.99,24.395-3.87,37.695-3.877h.005c5.521,0,9.997,4.474,10,9.995,.003,5.523-4.472,10.002-9.995,10.005-11.729,.006-22.824,1.766-34.571,3.63-4.904,.778-9.974,1.582-15.267,2.289-38.089,5.65-81.154,18.156-121.279,35.218Zm280.288-59.566c5.486,.639,9.416,5.604,8.777,11.089-.593,5.093-4.915,8.845-9.92,8.845-.386,0-.776-.022-1.169-.068-17.922-2.086-36.427-3.228-55.002-3.393-5.522-.049-9.959-4.565-9.911-10.088,.049-5.493,4.517-9.912,9.998-9.912,.03,0,.06,0,.091,0,19.286,.171,38.509,1.357,57.137,3.525Zm112.718,389.288c-6.336,11.711-13.671,23.152-21.803,34.005-1.964,2.622-4.969,4.004-8.011,4.004-2.086,0-4.19-.65-5.988-1.998-4.42-3.312-5.318-9.579-2.007-13.999,7.545-10.071,14.347-20.679,20.218-31.53,2.628-4.858,8.696-6.665,13.554-4.037s6.665,8.696,4.037,13.554Zm23.551-154.235c6.704,27.289,7.186,57.073,1.394,86.134-.726,3.643-1.56,7.339-2.479,10.983-1.144,4.534-5.217,7.557-9.689,7.557-.81,0-1.632-.099-2.453-.306-5.355-1.351-8.601-6.787-7.25-12.142,.837-3.321,1.597-6.686,2.258-10.001,5.223-26.208,4.808-52.99-1.203-77.454-6.097-24.82-17.604-47.455-33.275-65.456-15.991-18.368-37.948-32.753-63.496-41.601-24.198-8.38-52.239-12.28-83.345-11.604-32.67,.715-65.747,6.115-97.734,11.337-5.455,.89-10.591-2.808-11.48-8.258-.89-5.451,2.807-10.591,8.258-11.48,32.668-5.333,66.448-10.848,100.52-11.594,33.485-.735,63.877,3.54,90.327,12.7,28.844,9.989,53.753,26.368,72.035,47.367,17.753,20.392,30.759,45.917,37.613,73.816ZM112.603,539.094c-1.969-5.16,.618-10.939,5.777-12.908,5.16-1.971,10.939,.618,12.908,5.777,13.41,35.142,36.835,61.86,65.96,75.233,5.019,2.305,7.22,8.242,4.915,13.261-1.684,3.667-5.307,5.83-9.094,5.83-1.396,0-2.814-.294-4.167-.915-33.914-15.572-61.011-46.213-76.3-86.278Zm.452-50.859c-.096,0-.192-.001-.288-.004-5.521-.156-9.87-4.758-9.713-10.279,.464-16.419,3.202-33.646,8.135-51.204,7.365-26.211,19.934-52.488,37.357-78.1,14.536-21.368,32.696-42.825,55.517-65.598,3.909-3.901,10.241-3.895,14.142,.015,3.901,3.909,3.895,10.241-.015,14.142-21.917,21.871-39.289,42.377-53.107,62.69-16.206,23.821-27.86,48.133-34.64,72.26-4.49,15.98-6.979,31.578-7.397,46.359-.153,5.424-4.599,9.717-9.991,9.717Zm125.632-224.669c-3.653-4.142-3.256-10.461,.887-14.114,8.817-7.775,17.858-15.351,26.872-22.515,4.322-3.437,10.613-2.718,14.051,1.605,3.437,4.323,2.718,10.614-1.605,14.051-8.748,6.954-17.526,14.309-26.089,21.86-1.901,1.676-4.26,2.5-6.61,2.5-2.771,0-5.528-1.145-7.504-3.386Z"/></svg>