<?xml version="1.0" encoding="UTF-8"?>
<!DOCTYPE svg PUBLIC "-//W3C//DTD SVG 1.1//EN" "http://www.w3.org/Graphics/SVG/1.1/DTD/svg11.dtd">
<!-- Creator: CorelDRAW -->
<svg xmlns="http://www.w3.org/2000/svg" xml:space="preserve" width="43.3492mm" height="43.3492mm" version="1.1" style="shape-rendering:geometricPrecision; text-rendering:geometricPrecision; image-rendering:optimizeQuality; fill-rule:evenodd; clip-rule:evenodd"
viewBox="0 0 4335 4335"
 xmlns:xlink="http://www.w3.org/1999/xlink">
 <defs>
  <style type="text/css">
   <![CDATA[
    .fil0 {fill:black}
   ]]>
  </style>
 </defs>
 <g id="Layer_x0020_1">
  <metadata id="CorelCorpID_0Corel-Layer"/>
  <path class="fil0" d="M2140 2828c-77,0 -77,-119 0,-119 246,0 527,-131 619,-178l0 -473 -593 -165 -592 165 0 499c11,67 189,405 592,661 294,-187 450,-392 528,-525 -140,60 -353,135 -554,135zm-603 -1489c-15,98 -7,321 -7,427 0,59 8,117 24,174 75,-21 581,-168 612,-168 31,0 539,148 614,168 37,-130 24,-361 24,-505 0,-32 -2,-64 -7,-96 -388,145 -872,147 -1260,0zm-112 -48c-308,-150 -495,-403 -489,-722 1,-43 50,-71 88,-50 126,69 313,123 541,159l96 -461c28,-134 115,-217 227,-217l558 0c113,0 200,83 228,217l95 461c228,-36 415,-90 541,-159 38,-21 86,7 87,50 10,318 -182,572 -487,722 24,125 14,344 14,475 0,89 -16,176 -47,259l0 526c383,113 654,472 654,873l0 852c0,32 -26,59 -59,59l-2609 0c-33,0 -60,-27 -60,-59l0 -852c0,-400 271,-758 652,-872l0 -146c-149,148 -330,150 -489,-5 -35,-33 -16,-90 30,-101 1,0 81,-16 141,-63 -103,-41 -192,-129 -195,-324 -1,-46 54,-77 93,-49 1,1 135,90 236,42 54,-25 103,-39 147,-41 -13,-99 -15,-458 7,-574zm1281 -330l-24 -116c-334,102 -695,101 -1030,0l-24 116c345,119 733,119 1078,0zm-1646 -294c109,885 2105,885 2216,0 -128,54 -292,97 -482,127l39 194c10,47 -30,65 -65,78 -395,141 -838,136 -1230,-11 -27,-10 -42,-39 -37,-67l40 -194c-190,-30 -353,-73 -481,-127zm1599 61l-101 -487c-6,-29 -32,-122 -112,-122l-558 0c-80,0 -105,93 -111,122l-101 487c319,99 664,99 983,0zm-1169 1937c-332,99 -568,410 -568,759l0 792 439 0 0 -627c0,-76 118,-76 118,0l0 627 1376 0 0 -627c0,-76 119,-76 119,0l0 627 439 0 0 -792c0,-349 -237,-661 -570,-760 -117,252 -366,503 -646,674 -19,12 -42,12 -61,0 -262,-160 -517,-393 -646,-673zm-35 -551c0,-65 7,-72 -11,-130 -107,-15 -164,103 -368,30 52,157 253,147 379,100zm461 -488l-149 0c-77,0 -77,-119 0,-119l149 0c77,0 77,119 0,119zm-82 193c-63,0 -59,-62 -59,-107 0,-76 119,-76 119,0 0,45 4,107 -60,107zm734 -193l-150 0c-76,0 -76,-119 0,-119l150 0c76,0 76,119 0,119zm-83 193c-63,0 -59,-62 -59,-107 0,-76 119,-76 119,0 0,45 4,107 -60,107zm-1211 444c-37,55 -92,91 -142,115 123,62 234,-29 303,-133 -52,13 -108,20 -161,18z"/>
 </g>
</svg>
