<?xml version="1.0" encoding="iso-8859-1"?>
<!-- Generator: Adobe Illustrator 23.1.0, SVG Export Plug-In . SVG Version: 6.00 Build 0)  -->
<svg version="1.1" id="Line-Black_expand" xmlns="http://www.w3.org/2000/svg" xmlns:xlink="http://www.w3.org/1999/xlink" x="0px"
	 y="0px" viewBox="0 0 504.067 470.008" style="enable-background:new 0 0 504.067 470.008;" xml:space="preserve">
<path d="M0.114,255.842c-0.595,5.82,1.149,11.493,4.91,15.973l49.451,58.922c-0.82,4.648-1.452,8.32-1.873,10.789
	c-2.222,0.021-4.337,0.09-6.325,0.198c-14.122,0.77-25.202,12.902-24.7,27.045c0.161,4.529,1.476,8.797,3.639,12.515
	c-10.777,3.551-18.452,13.963-18.033,25.784c0.436,12.283,9.329,22.669,20.746,25.257l-10.36,32.465
	c-0.672,2.104,0.49,4.355,2.595,5.026c0.404,0.129,0.814,0.19,1.217,0.19c1.694,0,3.267-1.085,3.81-2.785l10.912-34.195
	c11.332,0.444,27.341,2.843,44.007,11.1c12.168,6.029,23.031,14.292,32.286,24.557c0.79,0.875,1.879,1.321,2.972,1.321
	c0.955,0,1.912-0.34,2.677-1.029c1.641-1.479,1.771-4.008,0.292-5.649c-9.933-11.017-21.6-19.888-34.675-26.367
	c-19.51-9.667-38.181-11.868-50.408-12.012c-9.615-0.114-17.723-8.261-18.075-18.163c-0.331-9.311,6.575-17.355,15.718-18.619
	c4.543,3.964,10.373,6.409,16.656,6.483c11.396,0.134,28.792,2.183,46.951,11.181c18.138,8.987,30.301,21.568,37.311,30.54
	c4.847,6.205,12.368,9.484,20.3,9.521c0.525,0.74,1.057,1.478,1.562,2.221c3.197,4.706,4.01,11.069,2.122,16.606
	c-0.713,2.091,0.403,4.364,2.495,5.077c0.428,0.146,0.863,0.215,1.292,0.215c1.664,0,3.218-1.047,3.785-2.71
	c2.597-7.614,1.665-16.015-2.458-22.714c2.354-0.711,4.674-1.702,6.894-3.015c5.429-3.209,9.242-8.656,10.736-15.335
	c1.63-7.289,0.226-14.913-3.853-20.918c-0.867-1.276-1.798-2.599-2.792-3.957c7.178-4.342,22.683-15.129,40.537-36.186
	c5.75-6.782,10.305-15.029,14.075-24.004h59.412l-3.174,5.946c-2.815,5.275-3.313,11.3-1.4,16.965
	c1.913,5.666,5.96,10.156,11.397,12.646l4.166,1.907l-2.38,3.672c-3.252,5.018-4.258,10.979-2.833,16.786
	s5.079,10.625,10.285,13.565l78.709,44.452c3.316,1.873,6.936,2.767,10.515,2.767c7.058,0,13.955-3.477,18.039-9.779l91.361-140.952
	c3.182-4.909,4.215-10.752,2.911-16.455c-1.305-5.702-4.777-10.515-9.776-13.552l-17.968-10.914l6.116-11.457
	c2.754-5.161,3.29-11.071,1.507-16.642c-1.519-4.748-4.563-8.707-8.668-11.388V146.92c0-11.167-15.508-20.187-41.682-24.4
	c-0.023-0.734-0.058-1.481-0.118-2.248c-1.563-20.108-20.88-40.871-26.045-46.089V26.93c0-14.849-12.081-26.93-26.93-26.93H211.799
	c-14.849,0-26.93,12.081-26.93,26.93v70.351c-2.97,1.357-8.407,3.905-15.213,7.379V82.64c0-14.083-24.346-22.11-48.346-25.142
	c-0.019-0.485-0.029-0.959-0.061-1.458C119.774,33.47,99.237,9.919,98.363,8.928c-0.76-0.862-1.853-1.356-3.001-1.356
	c-1.149,0-2.242,0.494-3.001,1.356C91.487,9.919,70.95,33.47,69.475,56.04c-0.033,0.499-0.042,0.974-0.061,1.459
	C45.413,60.529,21.067,68.556,21.067,82.64v93.014c0,3.993,2.084,9.381,10.77,14.453l-0.868,0.359
	c-5.406,2.236-9.573,6.46-11.735,11.896s-2.035,11.369,0.358,16.707l4.329,9.658L8.152,241.192
	C3.563,244.82,0.708,250.023,0.114,255.842z M68.385,258.587l-18.801-41.939l31.917-13.703
	C76.907,219.954,72.419,239.516,68.385,258.587z M170.734,424.488c-1.007,4.5-3.493,8.121-7,10.194
	c-7.655,4.526-19.234,4.928-25.616-3.24c-7.521-9.626-20.577-23.127-40.063-32.782c-19.51-9.667-38.181-11.868-50.408-12.012
	c-9.615-0.114-17.723-8.262-18.075-18.164c-0.349-9.817,7.341-18.238,17.141-18.772c2.249-0.123,4.662-0.196,7.224-0.196
	c16.096,0,38.035,2.882,61.323,14.42c26.972,13.364,43.606,32.323,52.811,45.875C170.914,413.997,171.885,419.346,170.734,424.488z
	 M489.587,285.976c3.136,1.904,5.313,4.923,6.131,8.499c0.818,3.576,0.17,7.241-1.825,10.319l-91.361,140.952
	c-3.861,5.956-11.728,7.888-17.907,4.397l-78.709-44.452c-3.265-1.844-5.556-4.865-6.45-8.507c-0.894-3.642-0.263-7.38,1.776-10.527
	l3.019-4.657l70.672,32.354c2.878,1.317,5.907,1.943,8.896,1.943c7.698,0,15.123-4.156,18.962-11.348l69.208-129.656
	L489.587,285.976z M474.83,253l-79.097,148.183c-3.342,6.262-11.016,8.854-17.47,5.897l-82.19-37.627
	c-3.41-1.561-5.948-4.377-7.147-7.931c-1.199-3.553-0.887-7.331,0.878-10.639l5.185-9.713h14.009l-6.664,12.485
	c-0.523,0.979-0.615,2.132-0.254,3.183c0.36,1.05,1.141,1.903,2.155,2.355l77.303,34.447c0.528,0.235,1.081,0.347,1.626,0.347
	c1.435,0,2.814-0.775,3.531-2.117l74.409-139.398c0.505-0.946,0.609-2.054,0.289-3.078c-0.32-1.023-1.037-1.875-1.991-2.364
	l-52.521-26.971v-16.275l62.065,30.831c3.286,1.632,5.711,4.455,6.829,7.949C476.893,246.058,476.558,249.764,474.83,253z
	 M406.881,194.85v-21.264c23.722-0.484,47.758-5.257,59.845-13.894v64.886L406.881,194.85z M466.726,146.92
	c0,7.546-22.66,17.968-59.845,18.672v-9.91c6.99-0.896,13.429-4.112,18.084-9.142c3.009-3.252,6.307-8.409,7.568-15.997
	C454.774,134.271,466.726,141.588,466.726,146.92z M424.951,120.891c0.651,8.38-1.375,15.371-5.858,20.216
	c-3.153,3.408-7.469,5.67-12.212,6.491V86.055C413.889,94.267,423.958,108.12,424.951,120.891z M406.881,314.24v-85.19
	l45.251,23.238l-70.741,132.527l-69.978-31.182l6.653-12.463h61.884C394.801,341.17,406.881,329.089,406.881,314.24z M211.799,8
	h168.152c10.438,0,18.93,8.492,18.93,18.93V314.24c0,10.438-8.492,18.93-18.93,18.93H229.607c2.549-7.11,4.713-14.518,6.668-21.905
	h140.06c2.209,0,4-1.791,4-4V33.905c0-2.209-1.791-4-4-4H215.416c-2.209,0-4,1.791-4,4v160.667l-18.547,18.337V99.815
	c0-0.003,0-0.006,0-0.009V26.93C192.869,16.492,201.361,8,211.799,8z M337.723,303.265c-2.931-3.901-10.578-15.5-7.029-26.237
	c4.224-12.778,21.901-14.725,22.071-14.743c1.208-0.118,2.296-0.781,2.959-1.797s0.829-2.282,0.452-3.436
	c-0.047-0.145-4.659-14.555,1.603-23.251c3.975-5.52,10.233-8.7,14.556-10.352v79.816H337.723z M372.334,117.735
	c-4.311-1.639-10.555-4.809-14.556-10.367c-6.261-8.696-1.65-23.107-1.605-23.245c0.382-1.151,0.216-2.414-0.444-3.433
	c-0.659-1.018-1.75-1.683-2.956-1.806c-0.178-0.018-17.856-1.964-22.08-14.743c-3.549-10.74,4.102-22.342,7.028-26.237h34.612
	V117.735z M323.098,66.653c4.307,13.03,17.352,17.763,24.357,19.395c-1.234,6.166-2.294,17.489,3.831,25.996
	c6.16,8.556,16.002,12.571,21.048,14.154v40.388h-18.103c-1.975-29.077-25.278-52.381-54.356-54.356V69.492c0-2.209-1.791-4-4-4
	s-4,1.791-4,4v42.738c-29.077,1.975-52.381,25.278-54.356,54.356h-18.103v-40.388c5.046-1.583,14.889-5.598,21.048-14.154
	c6.125-8.507,5.064-19.831,3.831-25.996c7.005-1.632,20.05-6.364,24.357-19.395c3.656-11.062-0.957-22.018-4.988-28.748h64.421
	C324.055,44.634,319.442,55.591,323.098,66.653z M299.875,199.849c5.924-7.197,8.362-16.411,7.251-25.264h39.084
	c-1.944,24.664-21.671,44.391-46.335,46.335V199.849z M305.087,166.585c-1.237-3.147-2.971-6.139-5.212-8.851V120.25
	c24.664,1.944,44.391,21.671,46.335,46.335H305.087z M254.028,37.905c2.931,3.901,10.577,15.5,7.029,26.237
	c-4.224,12.779-21.901,14.725-22.07,14.743c-1.208,0.118-2.295,0.781-2.959,1.797c-0.664,1.016-0.829,2.282-0.452,3.436
	c0.047,0.145,4.658,14.555-1.603,23.251c-3.975,5.52-10.233,8.7-14.556,10.352V37.905H254.028z M219.416,174.585h12.216
	l-12.216,12.078V174.585z M291.875,120.25v30.467c-5.001-3.127-10.767-4.86-16.835-4.977c-9.027-0.187-17.484,3.215-23.886,9.545
	l-4.63,4.577C251.181,138.414,269.498,122.014,291.875,120.25z M291.875,220.922c-3.672-0.286-7.269-0.961-10.765-2.03
	c3.597-3.77,7.237-7.454,10.765-10.944V220.922z M275.122,225.301c5.379,2.044,10.991,3.255,16.753,3.641v42.736
	c0,2.209,1.791,4,4,4s4-1.791,4-4v-42.738c29.077-1.975,52.381-25.278,54.356-54.356h18.103v40.388
	c-5.046,1.583-14.889,5.598-21.048,14.154c-6.125,8.507-5.064,19.831-3.831,25.996c-7.005,1.632-20.051,6.365-24.357,19.395
	c-3.656,11.062,0.957,22.018,4.988,28.748h-64.421c4.031-6.73,8.644-17.686,4.988-28.748c-3.035-9.185-10.373-14.276-17.194-17.092
	c0.388-0.868,0.781-1.716,1.186-2.521C256.86,246.541,265.476,235.858,275.122,225.301z M248.552,264.88
	c5.086,2.135,10.414,5.821,12.505,12.148c3.549,10.74-4.102,22.342-7.028,26.237h-15.703c0.759-3.04,1.494-6.057,2.217-9.026
	C243.133,283.602,245.624,273.383,248.552,264.88z M184.869,220.818l-23.315,23.051c0.048-15.731,0.777-39.865,3.798-46.794
	c2.691-6.171,12.341-13.97,19.517-19.034V220.818z M184.869,168.379c-5.892,3.798-22.3,15.065-26.85,25.498
	c-5.107,11.713-4.492,54.719-4.405,59.584c0.029,1.6,1.009,3.029,2.491,3.633c1.483,0.604,3.182,0.265,4.321-0.86l96.352-95.26
	c4.853-4.798,11.29-7.374,18.106-7.235c6.823,0.132,13.15,2.949,17.813,7.932c9.295,9.932,8.881,25.718-0.924,35.188
	c-16.745,16.176-38.366,38.752-46.274,54.444c-5.297,10.512-8.908,25.342-12.731,41.043c-5.839,23.982-12.458,51.164-26.438,67.653
	c-17.813,21.009-33.305,31.375-39.383,34.98c-10.413-12.676-25.978-27.232-48.137-38.211
	c-21.509-10.658-41.937-14.331-58.115-15.091c4.391-25.481,26.69-151.296,43.306-178.328c15.07-24.516,64.176-49.317,80.867-57.23
	V168.379z M77.458,56.562c0.981-15.02,12.356-31.453,17.903-38.639c5.547,7.186,16.923,23.619,17.904,38.639
	c0.774,11.849-2.882,18.411-6.085,21.83c-3.187,3.402-7.384,5.275-11.819,5.275s-8.632-1.873-11.819-5.275
	C80.34,74.973,76.684,68.41,77.458,56.562z M69.708,65.524c1.117,9.059,4.733,14.854,7.997,18.337
	c4.715,5.033,10.986,7.805,17.657,7.805c6.671,0,12.942-2.772,17.657-7.805c3.264-3.483,6.88-9.278,7.997-18.338
	C149,69.131,161.657,77.548,161.657,82.64c0,7.813-25.221,18.712-66.295,18.712c-41.074,0-66.294-10.898-66.294-18.712
	C29.067,77.548,41.724,69.131,69.708,65.524z M29.067,175.654v-80.24c12.949,9.191,39.739,13.939,66.294,13.939
	c26.556,0,53.346-4.747,66.295-13.939v13.437c-22.177,11.92-52.475,30.797-64.469,50.31c-0.883,1.436-1.778,3.123-2.681,5.027
	L41.71,186.023C32.433,182.231,29.067,178.221,29.067,175.654z M26.667,205.318c1.356-3.409,3.969-6.058,7.359-7.46l56.199-23.243
	c-1.972,5.399-3.965,11.619-5.951,18.433L42.694,210.9c-0.985,0.423-1.759,1.224-2.148,2.222s-0.362,2.112,0.077,3.09l24.99,55.745
	c-1.471,7.228-2.862,14.268-4.152,20.952l-34.569-77.113C25.391,212.448,25.311,208.727,26.667,205.318z M13.113,247.468
	l14.183-11.213l31.555,70.391c-0.928,4.965-1.781,9.614-2.544,13.831l-45.156-53.804c-2.358-2.81-3.452-6.368-3.079-10.018
	C8.445,253.006,10.236,249.743,13.113,247.468z"/>
</svg>
