<?xml version="1.0" encoding="utf-8"?>
<!-- Generator: Adobe Illustrator 25.4.1, SVG Export Plug-In . SVG Version: 6.00 Build 0)  -->
<svg version="1.0" id="Layer_1" xmlns="http://www.w3.org/2000/svg" xmlns:xlink="http://www.w3.org/1999/xlink" x="0px" y="0px"
	 viewBox="0 0 800 800" enable-background="new 0 0 800 800" xml:space="preserve">
<path fill="#231F20" d="M486.821,309.101c6.094,2.46,11.606,5.939,16.315,10.543c3.298,3.225-1.764,8.282-5.06,5.06
	c-9.16-8.956-21.833-12.65-34.424-12.681c-5.316-0.013-10.618,0.567-15.772,1.884c-3.775,0.965-6.756,1.832-9.795,4.114
	c-1.557,1.169-3.983,0.238-4.895-1.284c-1.089-1.817-0.254-3.741,1.283-4.895c5.855-4.397,14.286-5.78,21.358-6.556
	C466.189,304.15,477.117,305.184,486.821,309.101z M504.54,351.628c0.982,1.281,0.418,3.265-0.56,4.336
	c-9.077,9.94-22.245,15.547-35.631,16.006c-12.607,0.433-29.244-4.112-35.39-16.263c-0.085-0.039-0.178-0.066-0.258-0.112
	c-1.829-1.042-2.063-3.14-1.283-4.895c5.428-12.196,21.093-16.835,33.314-17.593C480.287,332.143,495.123,339.349,504.54,351.628z
	 M469.027,364.787c10.26-0.504,20.139-4.628,27.608-11.624c-7.971-8.946-19.957-13.642-31.902-12.901
	c-8.989,0.558-20.442,3.589-25.737,11.564C444.098,362.147,458.52,365.303,469.027,364.787z M488.459,374.687
	c-13.94,6.036-30.651,6.612-43.222-2.82c-1.542-1.157-4.022-0.249-4.894,1.283c-1.034,1.817-0.274,3.727,1.283,4.895
	c14.694,11.026,34.329,9.798,50.444,2.82c1.77-0.767,2.184-3.391,1.283-4.895C492.276,374.173,490.244,373.914,488.459,374.687z
	 M423.027,337.12c1.056-1.938,2.227-3.809,3.369-5.695c2.396-3.952-3.794-7.544-6.178-3.611c-2.63,4.339-5.244,8.669-6.76,13.55
	c-2.104,6.772-1.871,13.877-0.699,20.795c0.324,1.915,2.684,2.971,4.4,2.499c1.996-0.548,2.821-2.498,2.499-4.4
	c-1.01-5.961-1.001-11.751,0.812-17.35C421.22,340.6,421.796,339.38,423.027,337.12z M418.86,390.959
	c-0.33-1.915-2.68-2.972-4.4-2.499c-1.992,0.548-2.827,2.499-2.499,4.401c1.17,6.796,4.332,12.799,7.638,18.761
	c0.571,1.03,1.139,2.065,1.626,3.139c0.013,0.027,0.018,0.036,0.025,0.053c0.01,0.032,0.018,0.058,0.034,0.105
	c0.075,0.226,0.151,0.449,0.223,0.676c0.199,0.628,0.147,0.472,0.195,1.062c0.27,3.194-0.288,6.6-2.473,9.069
	c-3.042,3.439,2.002,8.516,5.06,5.06c5.038-5.695,5.994-13.998,2.589-20.725C423.683,403.752,420.084,398.069,418.86,390.959z
	 M594.642,326.233c2.264,10.549,4.122,21.286,4.059,32.109c-0.058,9.811-1.517,19.677-4.293,29.086
	c-3.166,10.725-8.026,20.946-14.393,30.137c-0.082,0.119-0.178,0.21-0.267,0.315c0.495,1.489,0.961,2.989,1.354,4.513
	c1.474,5.706,2.235,11.595,2.734,17.458c0.83,9.74,1.242,20.017-2.348,29.309c-2.453,6.346-6.523,11.69-12.463,14.771
	c0.234,1.228,0.448,2.458,0.652,3.691c0.019,0.077,0.048,0.141,0.062,0.222c0.085,0.489,0.13,0.986,0.203,1.477
	c0.562,3.636,1.041,7.283,1.358,10.942c1.153,13.288,0.53,26.676-1.674,39.825c-1.287,7.686-3.16,15.272-5.577,22.681
	c-2.44,7.483-5.237,15.073-9.266,21.862c-6.58,11.091-15.834,20.117-25.058,29.049c0.04,0.408,0.023,0.842-0.098,1.31
	c-7.316,28.157-28.916,51.511-56.26,61.295c-0.966,0.346-1.799,0.257-2.479-0.082c-4.276,4.156-9.666,7.267-14.823,10.065
	c-0.103,0.056-0.205,0.091-0.309,0.137c-2.802,3.564-5.815,6.932-9.476,9.689c-4.963,3.738-11.398,6.155-17.667,5.324
	c-0.368-0.049-0.721-0.144-1.06-0.264c-1.932,1.658-4.074,3.065-6.549,4.077c-5.994,2.452-12.792,3.251-19.124,4.44
	c-0.693,0.131-1.326,0.077-1.883-0.109c-0.557,0.187-1.19,0.24-1.883,0.109c-6.332-1.19-13.13-1.988-19.124-4.44
	c-2.475-1.012-4.617-2.419-6.549-4.077c-0.339,0.119-0.692,0.215-1.061,0.264c-6.269,0.831-12.705-1.586-17.667-5.324
	c-3.662-2.758-6.674-6.126-9.476-9.689c-0.103-0.046-0.206-0.081-0.308-0.137c-5.157-2.798-10.547-5.908-14.823-10.065
	c-0.681,0.339-1.514,0.428-2.48,0.082c-27.344-9.784-48.943-33.138-56.259-61.295c-0.122-0.469-0.138-0.902-0.098-1.31
	c-9.224-8.932-18.478-17.958-25.058-29.049c-4.028-6.789-6.825-14.379-9.266-21.862c-2.417-7.408-4.289-14.994-5.577-22.681
	c-2.203-13.149-2.826-26.537-1.673-39.825c0.318-3.659,0.796-7.307,1.359-10.942c0.073-0.491,0.118-0.988,0.203-1.477
	c0.014-0.081,0.044-0.145,0.061-0.222c0.205-1.233,0.418-2.464,0.653-3.691c-5.94-3.081-10.01-8.426-12.463-14.771
	c-3.591-9.292-3.179-19.568-2.349-29.309c0.5-5.863,1.262-11.752,2.735-17.458c0.394-1.523,0.859-3.023,1.354-4.513
	c-0.089-0.105-0.185-0.195-0.267-0.315c-6.367-9.191-11.228-19.412-14.393-30.137c-2.777-9.41-4.236-19.276-4.294-29.086
	c-0.063-10.823,1.796-21.56,4.059-32.109c0.121-0.566,0.246-1.135,0.369-1.703c-10.159-30.177-6.656-64.354,9.338-91.88
	c0.256-0.441,0.566-0.775,0.9-1.04c0.002-0.012,0.003-0.023,0.005-0.035c0.223-1.139,0.828-1.867,1.593-2.25
	c-0.057-2.661,0.358-5.436,0.524-7.581c0.414-5.336,1.168-10.664,2.285-15.899c3.855-18.057,12.311-35.299,25.269-48.566
	c8.41-8.611,18.628-15.55,29.84-19.933c10.973-8.822,23.069-16.388,36.111-21.739c5.84-2.396,11.942-4.249,18.221-4.989
	c1.091-2.003,3.311-3.391,5.239-4.625c2.492-1.596,5.205-2.801,7.928-3.939c6.037-2.521,12.16-4.876,18.265-7.227
	c12.57-4.842,25.653-6.206,38.7-2.295c0.019,0.006,0.037,0.011,0.055,0.017c0.018-0.006,0.037-0.011,0.055-0.017
	c13.046-3.911,26.129-2.547,38.7,2.295c6.105,2.351,12.228,4.706,18.265,7.227c2.724,1.138,5.437,2.343,7.928,3.939
	c1.929,1.234,4.149,2.622,5.239,4.625c6.28,0.74,12.382,2.593,18.222,4.989c13.042,5.351,25.138,12.917,36.111,21.739
	c11.211,4.383,21.43,11.321,29.84,19.933c12.957,13.267,21.412,30.51,25.268,48.566c1.118,5.235,1.872,10.562,2.285,15.899
	c0.167,2.145,0.582,4.92,0.525,7.581c0.765,0.383,1.369,1.111,1.592,2.25c0.003,0.012,0.004,0.023,0.006,0.035
	c0.334,0.265,0.644,0.599,0.899,1.04c15.994,27.526,19.497,61.703,9.338,91.88C594.396,325.098,594.521,325.667,594.642,326.233z
	 M584.528,247.903c-0.589,4.433-1.754,8.795-3.573,12.981c-2.085,4.797-5.247,9.41-7.482,14.289
	c8.955,9.798,13.843,22.033,17.295,34.684C594.901,289.138,592.746,267.377,584.528,247.903z M559.844,475.714
	c-0.951-3.562-2.041-7.091-3.319-10.55c-0.24-0.65-0.487-1.299-0.743-1.943c-0.12-0.303-0.244-0.604-0.366-0.906
	c-0.011-0.025-0.015-0.038-0.024-0.06c-0.284-0.649-0.578-1.294-0.893-1.929c-2.639-2.792-5.415-5.476-7.611-8.645
	c-0.53-0.767-0.986-1.575-1.417-2.396c-0.615,3.576-1.416,7.119-2.427,10.602c-1.768,6.093-3.821,12.999-7.676,18.144
	c-3.086,4.119-6.799,8.066-10.904,11.543c4.683,5.854,8.761,12.244,10.808,19.525c1.941,6.902,1.775,14.039,0.61,21.054
	c-1.259,7.583-3.449,15.209-6.119,22.453c11.523-4.394,21.685-12.859,27.229-23.94c3.002-6.001,4.689-12.712,5.702-19.316
	c0.938-6.11,1.223-12.577,0.277-18.722C562.185,485.603,561.154,480.621,559.844,475.714z M519.448,559.082
	c3.533-7.785,6.14-15.979,8.169-24.28c1.572-6.432,2.688-13.208,1.64-19.82c-1.264-7.963-5.471-14.936-10.477-21.115
	c-2.729,1.845-5.56,3.483-8.474,4.779c-4.974,2.214-10.608,3.642-15.975,2.431c1.108,3.516,1.803,7.181,2.066,10.87
	c0.653,9.132-1.334,17.729-4.279,26.09c0.368,0.268,0.706,0.621,0.988,1.087c6.156,10.192,2.13,22.959,3.25,34.148
	c0.847,8.459,3.469,16.639,7.437,24.116c1.413-6.836,3.952-13.369,6.861-19.779c0.003-0.045,0.003-0.09,0.006-0.136
	c0.078-1.078,0.544-1.896,1.195-2.467C514.359,569.668,517.038,564.396,519.448,559.082z M475.974,561.141
	c1.063-7.069,4.944-13.415,7.557-19.978c5.008-12.583,8.176-26.544,3.441-39.696c-1.101-3.059-2.653-5.955-4.622-8.521
	c0.132,1.317,0.226,2.641,0.232,3.974c0.026,4.604-7.129,4.609-7.154,0c-0.085-15.059-9.98-28.386-22.774-35.602
	c-15.351-8.657-34.16-8.61-50.943-4.927c-0.623,0.137-1.196,0.122-1.71-0.009c-0.514,0.131-1.087,0.146-1.71,0.009
	c-16.783-3.684-35.593-3.73-50.943,4.927c-12.793,7.216-22.69,20.543-22.774,35.602c-0.025,4.609-7.181,4.604-7.155,0
	c0.007-1.333,0.101-2.656,0.233-3.974c-1.969,2.566-3.521,5.463-4.622,8.521c-4.735,13.152-1.566,27.113,3.441,39.696
	c2.612,6.562,6.493,12.908,7.557,19.978c0.429,2.849,0.424,5.698,0.051,8.491c11.007-9.696,17.773-23.816,18.358-38.543
	c-1.104,1.103-2.073,2.369-2.975,3.869c-2.231,3.711-3.643,7.775-4.454,12.019c-0.364,1.907-2.651,2.979-4.4,2.499
	c-1.968-0.541-2.861-2.506-2.499-4.401c1.528-7.999,5.434-17.095,12.405-21.83c1.893-1.286,4.133-1.967,5.989-3.312
	c1.721-1.247,3.147-2.961,4.5-4.585c1.644-1.975,3.118-4.083,4.468-6.27c-1.017,0.189-2.033,0.37-3.036,0.561
	c-4.923,0.938-9.863,1.846-14.677,3.258c-4.435,1.301-6.311-5.606-1.902-6.899c8.288-2.432,17.053-3.016,25.266-5.663
	c0.896-0.288,0.613-0.149,1.719-0.831c0.914-0.563,1.672-1.26,2.41-2.038c1.649-1.74,2.905-3.795,4.153-5.83
	c3.01-4.907,5.756-9.969,8.27-15.147c2.012-4.146,8.181-0.514,6.178,3.611c-2.732,5.629-5.728,11.139-9.066,16.433
	c-0.143,0.225-0.293,0.447-0.438,0.671c4.234-0.31,8.364-1.49,12.044-3.78c6.347-3.948,9.061-10.553,10.16-17.692
	c0.263-1.708,1.856-2.562,3.45-2.562c1.594,0,3.186,0.855,3.449,2.562c1.1,7.14,3.815,13.744,10.161,17.692
	c3.68,2.29,7.81,3.47,12.043,3.78c-0.145-0.224-0.295-0.446-0.438-0.671c-3.339-5.294-6.334-10.804-9.065-16.433
	c-2.003-4.125,4.165-7.757,6.178-3.611c2.514,5.179,5.26,10.24,8.27,15.147c1.248,2.035,2.504,4.09,4.153,5.83
	c0.738,0.778,1.495,1.475,2.41,2.038c1.106,0.682,0.822,0.543,1.719,0.831c8.213,2.647,16.979,3.231,25.266,5.663
	c4.409,1.293,2.533,8.2-1.901,6.899c-4.814-1.412-9.755-2.32-14.678-3.258c-1.003-0.19-2.018-0.372-3.036-0.561
	c1.351,2.186,2.824,4.295,4.469,6.27c1.353,1.624,2.779,3.338,4.5,4.585c1.855,1.346,4.096,2.026,5.989,3.312
	c6.972,4.735,10.877,13.831,12.405,21.83c0.362,1.896-0.531,3.86-2.499,4.401c-1.749,0.479-4.036-0.592-4.4-2.499
	c-0.811-4.244-2.224-8.309-4.455-12.019c-0.901-1.5-1.869-2.766-2.975-3.869c0.585,14.727,7.351,28.847,18.358,38.543
	C475.549,566.839,475.545,563.989,475.974,561.141z M455.435,584.523c-3.243,4.068-6.646,8.01-9.704,12.224
	c-0.856,1.18-2.041,1.938-3.564,1.708c-1.298-0.195-2.72-1.168-2.974-2.562c-0.94-5.146-2.26-10.227-3.901-15.199
	c-1.1,2.472-2.327,4.888-3.638,7.269c-2.34,4.255-5.414,9.205-4.549,14.284c0.284,1.663-0.477,2.976-1.587,3.743
	c1.475,5.449,4.104,10.58,7.836,14.877c3.395,3.909,7.729,6.438,11.521,9.876c0.439,0.397,0.852,0.816,1.255,1.244
	c0.721-6.373,2.556-12.675,4.464-18.828C453.445,603.961,456.823,594.202,455.435,584.523z M416.872,656.014
	c-1.483-1.356-2.799-2.907-3.857-4.748c-4.253-7.403-6.184-16.81-7.129-25.164c-0.289-2.559-0.42-5.147-0.37-7.729
	c-0.48,0.692-0.949,1.394-1.375,2.12c-0.195,0.334-0.382,0.673-0.559,1.017c-0.038,0.074-0.063,0.12-0.084,0.158
	c-0.012,0.036-0.024,0.078-0.05,0.148c-0.595,1.693-2.021,2.542-3.449,2.543c-1.427-0.001-2.855-0.85-3.45-2.543
	c-0.024-0.07-0.038-0.112-0.049-0.148c-0.021-0.038-0.046-0.084-0.084-0.158c-0.177-0.344-0.363-0.683-0.559-1.017
	c-0.426-0.727-0.896-1.427-1.375-2.12c0.05,2.583-0.081,5.17-0.37,7.729c-0.945,8.354-2.875,17.761-7.129,25.164
	c-1.058,1.841-2.373,3.392-3.856,4.748c-0.509,3.199,0.702,5.857,2.539,8.561c2.241,3.296,4.788,6.343,6.911,9.726
	c2.681,4.269,5.396,8.526,7.422,13.056c2.025-4.529,4.741-8.786,7.422-13.056c2.123-3.383,4.67-6.43,6.911-9.726
	C416.17,661.871,417.381,659.213,416.872,656.014z M349.406,613.159c1.908,6.153,3.743,12.455,4.464,18.828
	c0.402-0.428,0.815-0.847,1.254-1.244c3.792-3.439,8.127-5.967,11.521-9.876c3.732-4.297,6.361-9.428,7.836-14.877
	c-1.11-0.767-1.87-2.08-1.587-3.743c0.866-5.079-2.209-10.029-4.549-14.284c-1.31-2.382-2.537-4.798-3.638-7.269
	c-1.641,4.973-2.961,10.054-3.9,15.199c-0.255,1.395-1.677,2.367-2.974,2.562c-1.523,0.229-2.709-0.528-3.565-1.708
	c-3.057-4.214-6.46-8.155-9.704-12.224C343.177,594.202,346.554,603.961,349.406,613.159z M373.023,654.271
	c1.491-0.761,2.938-1.593,4.251-2.601c0.186-0.186,0.387-0.342,0.604-0.469c0.58-0.492,1.133-1.02,1.627-1.621
	c0.866-1.053,1.496-2.255,2.097-3.472c0.038-0.076,0.127-0.279,0.19-0.424c0.107-0.259,0.212-0.517,0.315-0.776
	c4.663-11.771,7.345-25.671,3.331-37.976c-0.094-0.289-0.148-0.565-0.174-0.831c-1.146-2.596-1.857-5.341-2.313-8.148
	c-0.423,9.247-3.699,18.267-9.348,25.626c-3.304,4.304-7.258,7.431-11.546,10.687c-0.263,0.199-0.496,0.418-0.745,0.626
	c0.091,0.362,0.14,0.757,0.097,1.209c-0.523,5.466-0.276,10.936,0.995,16.288c0.547,2.306,1.355,4.559,2.07,6.827
	c0.054,0.093,0.101,0.191,0.145,0.291C367.077,657.441,369.947,655.843,373.023,654.271z M426.977,654.271
	c3.077,1.572,5.946,3.171,8.404,5.237c0.044-0.1,0.09-0.198,0.145-0.291c0.716-2.269,1.523-4.521,2.07-6.827
	c1.27-5.352,1.517-10.822,0.995-16.288c-0.044-0.452,0.005-0.847,0.097-1.209c-0.25-0.208-0.481-0.427-0.745-0.626
	c-4.288-3.256-8.242-6.383-11.546-10.687c-5.65-7.359-8.926-16.379-9.349-25.626c-0.456,2.807-1.166,5.552-2.312,8.148
	c-0.026,0.266-0.081,0.542-0.175,0.831c-4.014,12.305-1.332,26.205,3.331,37.976c0.103,0.26,0.209,0.519,0.316,0.777
	c0.062,0.145,0.151,0.348,0.188,0.423c0.601,1.217,1.231,2.419,2.097,3.472c0.495,0.602,1.048,1.129,1.628,1.621
	c0.218,0.127,0.419,0.283,0.604,0.469C424.039,652.678,425.485,653.51,426.977,654.271z M459.745,562.555
	c0.071-0.233,0.166-0.44,0.267-0.639c-6.692-10.504-10.243-22.997-9.59-35.545c-2.869-1.86-5.397-4.323-7.622-7.083
	c-0.879,2.432-2.226,4.718-3.967,6.623c-5.658,6.189-13.473,7.501-21.403,8.5c-5.74,0.724-11.589,1.071-17.43,1.066
	c-5.841,0.005-11.689-0.343-17.43-1.066c-7.931-0.999-15.745-2.311-21.403-8.5c-1.741-1.905-3.088-4.191-3.967-6.623
	c-2.224,2.76-4.752,5.223-7.621,7.083c0.653,12.548-2.898,25.041-9.591,35.545c0.101,0.199,0.196,0.405,0.267,0.639
	c2.882,9.419,9.185,16.722,15.245,24.209c1.428-5.644,3.308-11.152,5.549-16.544c-2.496-9.657-2.82-19.733-1.153-29.578
	c0.768-4.537,7.662-2.602,6.899,1.902c-1.472,8.692-0.968,17.617,1.257,26.119c0.143,0.319,0.222,0.661,0.264,1.011
	c0.45,1.61,0.939,3.209,1.514,4.781c1.866,5.107,4.975,9.904,7.28,14.891c1.831-4.131,3.953-8.15,5.957-12.188
	c4.002-8.062,7.814-17.219,5.948-26.385c-0.917-4.502,5.982-6.41,6.899-1.902c2.048,10.059-0.951,19.783-5.197,28.858
	c-0.526,1.125-1.07,2.242-1.623,3.356c0.157,0.399,0.255,0.847,0.252,1.361c-0.019,3.788-0.012,7.581,0.319,11.358
	c0.29,3.312,0.78,6.963,2.368,9.922c1.328,2.475,3.832,4.709,5.7,7.097c0.754,0.965,1.526,1.942,2.263,2.947
	c0.001-0.001,0.001-0.002,0.002-0.003c0.001,0.001,0.001,0.002,0.002,0.003c0.737-1.005,1.508-1.982,2.263-2.947
	c1.866-2.388,4.371-4.622,5.699-7.097c1.587-2.959,2.077-6.61,2.368-9.922c0.331-3.777,0.337-7.57,0.318-11.358
	c-0.003-0.515,0.096-0.962,0.252-1.361c-0.552-1.113-1.096-2.231-1.622-3.356c-4.246-9.075-7.245-18.8-5.197-28.858
	c0.919-4.508,7.816-2.6,6.899,1.902c-1.866,9.166,1.946,18.322,5.948,26.385c2.004,4.037,4.126,8.057,5.956,12.188
	c2.307-4.986,5.415-9.783,7.281-14.891c0.574-1.572,1.065-3.171,1.514-4.78c0.042-0.351,0.121-0.692,0.265-1.012
	c2.225-8.502,2.728-17.428,1.257-26.119c-0.763-4.504,6.131-6.439,6.899-1.902c1.667,9.845,1.343,19.921-1.153,29.578
	c2.242,5.392,4.121,10.9,5.55,16.544C450.56,579.276,456.863,571.974,459.745,562.555z M393.259,497.194
	c2.257,0.311,4.505,0.739,6.741,1.319c2.235-0.58,4.483-1.009,6.74-1.319c-2.848-2.427-5.081-5.324-6.74-8.563
	C398.34,491.87,396.107,494.768,393.259,497.194z M371.136,524.648c1.558,0.811,4.507,1.428,6.718,1.85
	c3.675,0.702,7.397,1.123,11.127,1.395c3.649,0.267,7.332,0.405,11.019,0.408c3.686-0.003,7.37-0.142,11.019-0.408
	c3.73-0.271,7.452-0.692,11.127-1.395c2.211-0.423,5.161-1.039,6.718-1.85c6.186-3.224,11.669-12.093,4.945-17.691
	c-0.698-0.582-1.051-1.243-1.157-1.91c-0.36-0.254-0.699-0.533-1.039-0.811c-2.691,0.302-5.443,0.301-8.166-0.023
	c-0.419,0.044-0.852,0.04-1.286-0.022c-3.671-0.528-7.419-0.608-11.115-0.346c-1.841,0.132-3.66,0.372-5.472,0.722
	c-1.749,0.338-3.788,1.232-5.573,1.232c-1.785,0-3.824-0.894-5.573-1.232c-1.812-0.35-3.631-0.59-5.472-0.722
	c-3.696-0.263-7.445-0.183-11.115,0.346c-0.434,0.062-0.867,0.066-1.286,0.022c-2.723,0.324-5.475,0.325-8.165,0.023
	c-0.34,0.278-0.68,0.558-1.04,0.811c-0.106,0.667-0.459,1.328-1.157,1.91C359.467,512.555,364.95,521.424,371.136,524.648z
	 M307.881,538.036c-2.945-8.36-4.932-16.958-4.279-26.09c0.264-3.689,0.958-7.354,2.066-10.87
	c-5.366,1.211-11.001-0.217-15.975-2.431c-2.913-1.296-5.745-2.934-8.474-4.779c-5.006,6.179-9.213,13.152-10.477,21.115
	c-1.049,6.612,0.067,13.389,1.64,19.82c2.03,8.301,4.635,16.495,8.169,24.28c2.411,5.314,5.09,10.586,7.593,15.923
	c0.651,0.571,1.118,1.388,1.195,2.467c0.003,0.046,0.003,0.091,0.006,0.137c2.909,6.41,5.447,12.942,6.86,19.779
	c3.968-7.479,6.59-15.658,7.437-24.117c1.12-11.189-2.906-23.956,3.25-34.148C307.176,538.657,307.514,538.304,307.881,538.036z
	 M237.308,509.35c1.014,6.604,2.7,13.315,5.702,19.316c5.544,11.08,15.706,19.546,27.228,23.94
	c-2.669-7.244-4.86-14.87-6.119-22.453c-1.165-7.015-1.33-14.151,0.61-21.054c2.047-7.281,6.125-13.671,10.808-19.525
	c-4.105-3.477-7.817-7.424-10.904-11.543c-3.855-5.145-5.908-12.051-7.676-18.144c-1.01-3.482-1.812-7.025-2.427-10.602
	c-0.43,0.821-0.886,1.63-1.417,2.396c-2.196,3.169-4.972,5.853-7.611,8.645c-0.314,0.635-0.608,1.279-0.893,1.929
	c-0.009,0.021-0.014,0.034-0.024,0.06c-0.122,0.303-0.246,0.603-0.366,0.906c-0.256,0.645-0.503,1.293-0.743,1.943
	c-1.278,3.459-2.368,6.987-3.319,10.55c-1.312,4.909-2.343,9.895-3.128,14.921C236.085,496.776,236.37,503.241,237.308,509.35z
	 M226.902,260.805c2.466,4.803,5.365,9.48,7.29,14.475c0.094,0.087,0.179,0.18,0.26,0.277c9.701-17.993,16.03-37.741,18.425-58.07
	c-5.455,1.236-11.011,2.075-16.48,2.75c-0.003,0-0.006-0.001-0.009-0.001c-2.577,4.199-5.339,8.288-8.306,12.234
	c-0.454,0.603-1.028,1.092-1.665,1.405c-0.078,1.883-2.028,3.617-4.099,3.488C221.536,245.437,223.17,253.538,226.902,260.805z
	 M253.271,182.537c-3.121,10.381-7.309,20.405-12.436,29.927c6.176-0.915,12.314-2.166,18.254-4.094
	c6.295-2.043,12.47-4.932,17.64-9.116c5.236-4.239,9.144-9.631,12.245-15.571c4.272-8.185,7.113-16.996,10.582-25.532
	c-6.97,5.99-14.298,11.515-22.619,15.333c-6.831,3.134-14.033,5.36-21.482,6.409c-0.735,0.104-1.506,0.205-2.296,0.291
	C253.458,180.843,253.543,181.633,253.271,182.537z M323.927,134.65c-2.118,1.724-4.191,3.517-6.074,5.498
	c-0.371,0.39-0.807,0.841-1.247,1.327c0.029,0.84-0.302,1.709-1.155,2.456c-0.366,0.321-0.73,0.647-1.095,0.97
	c-0.064,0.207-0.122,0.413-0.149,0.618c-0.209,1.566-1.037,2.936-2.49,3.398c-0.081,0.302-0.19,0.608-0.366,0.919
	c-4.023,7.104-6.758,14.771-9.669,22.371c-5.217,13.619-11.454,26.614-23.853,35.084c-3.017,2.061-6.206,3.786-9.515,5.245
	c0.608,0.565,1.049,1.346,1.14,2.365c0.918,10.25,0.999,20.56,0.463,30.834c-1.028,19.725-4.183,39.425-9.333,58.493
	c-2.369,8.771-5.181,17.481-8.538,25.969c-2.914,20.007-4.394,40.845-1.164,60.913c1.013,6.297,2.504,12.481,4.627,18.418
	c0.036,0.08,0.082,0.148,0.114,0.233c0.098,0.265,0.178,0.539,0.268,0.809c1.72,4.616,3.822,9.08,6.453,13.3
	c2.561,4.106,4.896,7.099,8.339,10.59c3.037,3.08,5.747,5.303,8.838,7.426c3.058,2.102,6.283,3.952,9.608,5.595
	c1.552,0.767,3.127,1.484,4.715,2.174c0.171,0.074,0.344,0.147,0.516,0.22c0.016,0.007,0.023,0.01,0.041,0.018
	c0.386,0.159,0.772,0.318,1.158,0.476c0.948,0.385,1.898,0.766,2.861,1.111c1.825,0.655,3.687,1.188,5.567,1.65
	c6.969-0.063,14.056-0.906,20.529-3.632c3.685-1.552,6.899-3.623,9.592-6.161c1.031-0.972,1.998-2.009,2.909-3.095
	c0.389-0.463,0.762-0.938,1.139-1.412c0.004-0.006,0.018-0.022,0.024-0.031c-0.115,0.146,0.598-0.777,0.768-0.991
	c1.116-1.408,2.448-2.612,3.679-3.921c2.369-2.521,4.256-5.354,6.314-8.121c3.97-5.338,8.343-11.091,14.277-14.365
	c0.035-0.02,0.069-0.027,0.104-0.045c0.835-0.539,1.676-1.067,2.517-1.577c3.951-2.397,7.543,3.792,3.611,6.179
	c-0.84,0.509-1.695,1.025-2.539,1.564c-0.03,0.018-0.051,0.04-0.082,0.057c-0.104,0.058-0.198,0.134-0.301,0.192
	c-2.636,1.718-5.108,3.704-6.521,6.577c-1.541,3.132-1.669,7.021-0.366,10.257c1.243,3.085,3.654,5.918,6.002,8.217
	c2.146,2.101,4.903,4.27,7.777,4.082c0.285-0.019,0.56,0.018,0.828,0.078c1.715-0.069,3.434-0.08,5.152-0.048
	c-1.893-1.375-3.686-2.854-4.214-5.315c-0.994-4.639,3.954-7.964,8.15-6.651c1.843,0.576,3.319,1.88,4.546,3.323
	c0.536,0.63,1.052,1.272,1.635,1.86c0.257,0.26,0.523,0.51,0.797,0.751c0.157,0.139,0.322,0.267,0.477,0.405
	c0.004,0.004,0.004,0.005,0.009,0.009c0.004,0.003,0.005,0.003,0.01,0.006c0.656,0.434,1.292,0.876,1.985,1.25
	c0.302,0.162,0.611,0.309,0.921,0.453c0.072,0.024,0.514,0.211,0.656,0.262c0.787,0.278,1.594,0.499,2.413,0.659
	c0.26,0.051,1.139,0.13,0.44,0.084c0.417,0.027,0.831,0.07,1.249,0.087c0.553,0.022,1.066,0.152,1.522,0.371
	c0.455-0.219,0.969-0.349,1.521-0.371c0.418-0.017,0.832-0.06,1.249-0.087c-0.698,0.046,0.181-0.033,0.44-0.084
	c0.819-0.16,1.626-0.381,2.413-0.659c0.142-0.051,0.583-0.237,0.655-0.262c0.31-0.145,0.62-0.291,0.922-0.453
	c0.693-0.374,1.33-0.816,1.985-1.25c0.005-0.003,0.005-0.003,0.01-0.006c0.004-0.004,0.004-0.005,0.009-0.009
	c0.155-0.139,0.32-0.267,0.477-0.405c0.273-0.241,0.54-0.491,0.797-0.751c0.583-0.588,1.101-1.23,1.636-1.86
	c1.228-1.443,2.703-2.747,4.546-3.323c4.197-1.312,9.145,2.013,8.15,6.651c-0.527,2.462-2.321,3.94-4.214,5.315
	c1.719-0.032,3.438-0.021,5.152,0.048c0.268-0.061,0.543-0.097,0.828-0.078c2.873,0.188,5.631-1.982,7.777-4.082
	c2.348-2.299,4.76-5.132,6.002-8.217c1.303-3.235,1.175-7.125-0.366-10.257c-1.413-2.873-3.885-4.859-6.521-6.577
	c-0.104-0.059-0.197-0.135-0.301-0.192c-0.031-0.017-0.053-0.039-0.083-0.057c-0.844-0.539-1.699-1.056-2.539-1.564
	c-3.931-2.387-0.339-8.576,3.611-6.179c0.841,0.51,1.682,1.038,2.518,1.577c0.034,0.019,0.068,0.025,0.104,0.045
	c5.935,3.275,10.308,9.027,14.277,14.365c2.059,2.767,3.945,5.6,6.315,8.121c1.23,1.309,2.562,2.513,3.679,3.921
	c0.168,0.213,0.872,1.123,0.769,0.993c0.007,0.007,0.02,0.023,0.023,0.029c0.377,0.474,0.75,0.949,1.139,1.412
	c0.911,1.086,1.878,2.123,2.909,3.095c2.693,2.538,5.908,4.609,9.593,6.161c6.473,2.726,13.561,3.568,20.529,3.632
	c1.88-0.462,3.741-0.995,5.567-1.65c0.962-0.346,1.912-0.727,2.86-1.111c0.387-0.157,0.772-0.316,1.158-0.476
	c0.017-0.008,0.022-0.01,0.037-0.017c0.174-0.073,0.347-0.146,0.52-0.221c1.588-0.689,3.162-1.407,4.715-2.174
	c3.325-1.643,6.55-3.493,9.607-5.595c3.091-2.123,5.802-4.346,8.838-7.426c3.443-3.491,5.779-6.483,8.34-10.59
	c2.631-4.219,4.732-8.682,6.452-13.297c0.09-0.271,0.17-0.546,0.269-0.812c0.032-0.086,0.079-0.153,0.115-0.234
	c2.122-5.938,3.613-12.121,4.627-18.418c3.229-20.068,1.749-40.906-1.164-60.913c-3.357-8.488-6.169-17.198-8.539-25.969
	c-5.15-19.067-8.305-38.768-9.333-58.493c-0.535-10.274-0.455-20.584,0.464-30.834c0.091-1.02,0.532-1.8,1.14-2.365
	c-3.309-1.458-6.498-3.184-9.515-5.245c-12.398-8.47-18.636-21.465-23.852-35.084c-2.91-7.599-5.646-15.267-9.668-22.371
	c-0.176-0.311-0.285-0.617-0.366-0.919c-1.453-0.462-2.281-1.832-2.49-3.398c-0.027-0.205-0.085-0.411-0.149-0.618
	c-0.365-0.323-0.729-0.649-1.096-0.97c-0.852-0.748-1.184-1.616-1.154-2.456c-0.44-0.486-0.877-0.937-1.247-1.327
	c-1.883-1.981-3.956-3.774-6.074-5.498c-5.026-4.092-10.427-7.714-16.092-10.863c-11.611-6.454-24.338-10.78-37.452-12.879
	c-6.513-1.043-13.143-1.441-19.734-1.285c-0.933,0.022-1.863,0.036-2.794,0.045c-0.931-0.009-1.862-0.023-2.794-0.045
	c-6.592-0.156-13.221,0.243-19.734,1.285c-13.114,2.099-25.841,6.425-37.453,12.879C334.354,126.936,328.954,130.558,323.927,134.65
	z M546.841,180.183c-0.791-0.086-1.561-0.188-2.297-0.291c-7.449-1.048-14.651-3.274-21.482-6.409
	c-8.321-3.817-15.649-9.343-22.619-15.333c3.47,8.536,6.311,17.347,10.583,25.532c3.101,5.939,7.008,11.332,12.244,15.571
	c5.171,4.185,11.347,7.073,17.641,9.116c5.939,1.928,12.077,3.179,18.254,4.094c-5.127-9.521-9.314-19.545-12.436-29.927
	C546.457,181.633,546.542,180.843,546.841,180.183z M573.583,233.875c-0.638-0.313-1.212-0.801-1.665-1.405
	c-2.968-3.947-5.73-8.035-8.307-12.234c-0.003,0-0.006,0.001-0.009,0.001c-5.469-0.675-11.024-1.514-16.479-2.75
	c2.395,20.33,8.724,40.078,18.425,58.07c0.082-0.097,0.167-0.19,0.261-0.277c1.924-4.995,4.823-9.672,7.29-14.475
	c3.732-7.268,5.365-15.368,4.584-23.442C575.611,237.492,573.66,235.758,573.583,233.875z M567.766,289.148
	c-1.326,0.191-2.761-0.299-3.594-1.649c-13.333-21.613-21.574-45.975-24.352-71.199c-0.028-0.255-0.013-0.503,0.031-0.745
	c-0.722-0.223-1.438-0.459-2.152-0.701c-0.001,0.016,0.002,0.03,0.001,0.046c-1.636,18.251-0.74,36.77,1.899,54.885
	c2.779,19.073,7.403,37.973,14.302,55.985c0.195,0.512,0.417,1.013,0.617,1.523c0.097,0.172,0.167,0.355,0.222,0.548
	c2.146,5.417,4.541,10.73,7.204,15.91c1.699-9.782,3.417-19.565,4.907-29.378C568.12,306.03,568.901,297.471,567.766,289.148z
	 M528.981,474.675c0.295-0.365,0.509-0.625,1.023-1.387c0.33-0.489,0.631-0.987,0.903-1.511c1.857-3.572,3.249-7.463,4.473-11.29
	c2.83-8.85,4.292-18.004,4.407-27.289c-8.62,10.973-20.264,18.72-33.446,24.067c-2.729,1.107-5.531,1.975-8.373,2.684
	c-0.365,0.175-0.792,0.276-1.265,0.311c-6.125,1.409-12.438,2.024-18.729,2.185c-3.955,0.101-7.941,0.033-11.917-0.207
	c4.227,3.771,7.874,8.186,10.694,13.189c0.926,1.643,1.751,3.336,2.468,5.069c5.208,3.355,9.213,7.975,12.052,13.272
	c0.795-0.459,1.734-0.636,2.612-0.298c8.952,3.448,19.044-3.701,25.585-9.224C522.902,481.347,526.151,478.17,528.981,474.675z
	 M447.256,436.505c-1.62,4.369-4.704,8.352-8.036,11.562c-0.185,0.178-0.385,0.352-0.575,0.528c2.388,0.516,4.754,1.143,7.085,1.924
	c2.707,0.908,5.343,2.018,7.89,3.297c0.384-0.055,0.786-0.067,1.223,0.01c5.148,0.912,10.739,1.329,16.263,1.452
	c-2.784-1.306-5.443-2.904-7.919-4.86c-2.353-1.861-4.409-4.005-6.266-6.355c-0.155-0.196-0.309-0.396-0.462-0.594
	c-0.267-0.342-0.498-0.637-0.555-0.709c-0.194-0.248-0.385-0.498-0.593-0.733c-2.423-2.738-5.037-5.189-7.197-8.166
	c-0.034-0.048-0.069-0.099-0.104-0.146C447.825,434.661,447.592,435.598,447.256,436.505z M461.792,438.765
	c-0.026-0.034-0.059-0.075-0.116-0.149C461.341,438.184,461.655,438.59,461.792,438.765z M418.713,441.802
	c-0.024,0.001-0.051,0.001-0.071,0.005c0.003,0.002,0.006,0.004,0.009,0.005c0.007,0.002,0.014,0.003,0.021,0.004
	c0.011-0.003,0.022-0.006,0.034-0.009C418.707,441.805,418.71,441.803,418.713,441.802z M417.982,439.728
	c-0.016-0.005-0.036,0.038-0.057,0.095C417.957,439.771,417.983,439.728,417.982,439.728z M382.075,439.823
	c-0.021-0.057-0.041-0.1-0.058-0.095C382.017,439.728,382.042,439.772,382.075,439.823z M381.359,441.807
	c-0.021-0.004-0.047-0.004-0.072-0.005c0.003,0.001,0.005,0.003,0.008,0.005c0.011,0.003,0.023,0.006,0.034,0.009
	c0.007-0.001,0.014-0.002,0.02-0.003C381.352,441.81,381.355,441.809,381.359,441.807z M333.942,462.237
	c-3.976,0.24-7.961,0.308-11.917,0.207c-6.291-0.16-12.603-0.775-18.728-2.185c-0.473-0.034-0.899-0.136-1.265-0.311
	c-2.841-0.709-5.643-1.576-8.373-2.684c-13.182-5.348-24.826-13.095-33.446-24.067c0.115,9.286,1.578,18.439,4.407,27.289
	c1.224,3.827,2.616,7.718,4.473,11.29c0.272,0.523,0.573,1.021,0.903,1.511c0.513,0.762,0.728,1.022,1.023,1.387
	c2.83,3.495,6.079,6.672,9.512,9.57c6.542,5.523,16.632,12.672,25.585,9.224c0.877-0.338,1.817-0.161,2.612,0.298
	c2.838-5.297,6.843-9.916,12.051-13.272c0.717-1.733,1.542-3.426,2.468-5.069C326.068,470.424,329.716,466.008,333.942,462.237z
	 M245.259,327.842c0.055-0.193,0.126-0.376,0.222-0.548c0.2-0.51,0.421-1.012,0.617-1.523c6.898-18.013,11.523-36.913,14.302-55.985
	c2.639-18.115,3.535-36.634,1.9-54.885c-0.001-0.016,0.001-0.03,0-0.046c-0.714,0.242-1.431,0.478-2.152,0.701
	c0.044,0.242,0.06,0.49,0.032,0.745c-2.778,25.224-11.019,49.586-24.352,71.199c-0.833,1.35-2.268,1.841-3.594,1.649
	c-1.135,8.323-0.353,16.881,0.914,25.226c1.491,9.812,3.209,19.595,4.907,29.378C240.719,338.573,243.114,333.258,245.259,327.842z
	 M354.27,450.52c2.331-0.781,4.697-1.408,7.086-1.924c-0.191-0.177-0.392-0.351-0.576-0.528c-3.332-3.21-6.415-7.193-8.035-11.562
	c-0.336-0.907-0.569-1.844-0.754-2.791c-0.035,0.048-0.07,0.099-0.104,0.147c-2.161,2.977-4.774,5.428-7.197,8.166
	c-0.208,0.235-0.398,0.485-0.592,0.733c-0.057,0.072-0.289,0.367-0.555,0.709c-0.154,0.198-0.307,0.397-0.462,0.594
	c-1.856,2.351-3.913,4.494-6.266,6.355c-2.476,1.956-5.135,3.555-7.919,4.86c5.523-0.123,11.114-0.54,16.263-1.452
	c0.435-0.077,0.839-0.065,1.223-0.01C348.928,452.537,351.563,451.428,354.27,450.52z M338.324,438.615
	c-0.057,0.074-0.089,0.115-0.116,0.149C338.345,438.59,338.66,438.184,338.324,438.615z M232.499,403.42
	c1.046,9.191,1.317,18.547,2.988,27.654c1.391,7.579,4.216,14.542,7.818,21.241c1.34-1.391,2.63-2.802,3.629-4.245
	c2.124-3.066,3.15-6.533,3.713-10.196c0.704-4.574,0.676-9.178,0.281-13.775c-0.34-3.943-0.742-8.123-2.042-11.9
	c-2.95-8.216-4.747-16.844-5.782-25.518c-1.434-12.019-1.379-24.149-0.467-36.22c-1.054,1.939-2.139,3.861-3.271,5.754
	c-1.115,1.863-3.999,2.217-5.556,0.89c-0.561,6.765-0.143,13.652,0.155,20.46C234.344,386.242,234.392,394.957,232.499,403.42z
	 M564.513,431.074c1.671-9.107,1.942-18.463,2.988-27.654c-1.894-8.462-1.845-17.178-1.465-25.854
	c0.298-6.808,0.716-13.695,0.154-20.46c-1.556,1.327-4.441,0.973-5.556-0.89c-1.133-1.893-2.218-3.815-3.271-5.754
	c0.911,12.071,0.966,24.201-0.468,36.22c-1.034,8.674-2.832,17.302-5.782,25.518c-1.3,3.777-1.702,7.957-2.041,11.9
	c-0.396,4.598-0.424,9.201,0.28,13.775c0.564,3.663,1.589,7.13,3.713,10.196c1,1.443,2.29,2.854,3.629,4.245
	C560.298,445.616,563.123,438.653,564.513,431.074z M564.209,183.316c-1.15-2.257-2.428-4.439-3.763-6.583
	c-1.735,2.173-4.246,3.163-6.979,3.515c0.054,0.129,0.117,0.246,0.16,0.387c4.706,15.656,11.919,30.388,21.264,43.766
	c-0.078-1.429-0.142-2.859-0.272-4.284c-0.394-4.294-1.062-8.554-1.977-12.768C570.837,199.029,568.079,190.905,564.209,183.316z
	 M487.119,122.762c-5.576-2.363-11.554-4.376-17.595-5.072c-2.166-0.249-4.367-0.318-6.554-0.381
	c6.34,3.484,12.323,7.548,17.945,12.106c3.728,3.022,7.886,6.496,10.245,10.819c5.203,4.566,10.401,9.138,15.612,13.696
	c5.061,4.427,10.282,8.434,16.248,11.577c5.617,2.96,11.618,5.112,17.818,6.477c2.99,0.658,6.071,1.231,9.138,1.34
	c1.897,0.067,4.377,0.109,5.333-1.809c0.225-0.452,0.506-0.796,0.814-1.071c-6.533-8.688-14.645-16.128-24.144-21.612
	c-7.644-4.413-15.955-7.386-24.666-8.814c-3.694-0.606-3.099-5.296-0.31-6.611C500.666,129.305,494.005,125.68,487.119,122.762z
	 M342.306,110.01c2.338,0.164,4.584,0.629,6.561,1.601c10.224-4.214,20.992-7.006,32.003-8.342
	c6.395-0.776,12.736-0.675,19.13-0.752c6.395,0.077,12.735-0.024,19.13,0.752c11.012,1.336,21.779,4.128,32.003,8.342
	c1.978-0.972,4.224-1.437,6.561-1.601c-2.127-0.976-4.33-1.781-6.268-2.547c-5.393-2.13-10.765-4.329-16.197-6.354
	c-10.891-4.059-22.042-5.043-33.271-1.678c-0.726,0.218-1.384,0.213-1.957,0.048c-0.573,0.165-1.231,0.17-1.958-0.048
	c-11.229-3.366-22.38-2.381-33.27,1.678c-5.433,2.025-10.806,4.225-16.198,6.354C346.636,108.229,344.433,109.034,342.306,110.01z
	 M243.875,170.445c0.308,0.275,0.589,0.619,0.814,1.071c0.956,1.917,3.436,1.876,5.332,1.809c3.066-0.108,6.148-0.682,9.139-1.34
	c6.2-1.365,12.201-3.518,17.818-6.477c5.966-3.143,11.188-7.15,16.248-11.577c5.21-4.558,10.41-9.13,15.613-13.696
	c2.359-4.323,6.518-7.797,10.245-10.819c5.622-4.559,11.605-8.622,17.945-12.106c-2.186,0.063-4.388,0.132-6.554,0.381
	c-6.042,0.696-12.019,2.709-17.595,5.072c-6.885,2.918-13.546,6.543-19.886,10.645c2.789,1.315,3.385,6.005-0.31,6.611
	c-8.711,1.428-17.022,4.401-24.666,8.814C258.52,154.316,250.409,161.756,243.875,170.445z M225.38,220.116
	c-0.131,1.425-0.194,2.855-0.272,4.283c9.345-13.377,16.557-28.109,21.264-43.765c0.042-0.142,0.106-0.258,0.16-0.387
	c-2.732-0.352-5.243-1.342-6.977-3.515c-1.335,2.144-2.612,4.326-3.764,6.583c-3.869,7.589-6.627,15.713-8.433,24.032
	C226.442,211.562,225.774,215.822,225.38,220.116z M209.232,309.857c3.452-12.652,8.34-24.886,17.295-34.684
	c-2.235-4.879-5.397-9.491-7.482-14.289c-1.82-4.186-2.984-8.548-3.573-12.981C207.253,267.377,205.098,289.138,209.232,309.857z
	 M223.241,409.457c0.391-1.103,0.78-2.205,1.135-3.32c6.731-21.093-2.444-43.846,5.485-64.755c0.11-0.29,0.249-0.547,0.404-0.782
	c-1.518-8.667-3.017-17.341-4.271-26.043c-1.204-8.346-1.96-16.91-1.003-25.267c-2.926,5.003-5.161,10.42-6.943,15.957
	c-1.993,6.192-3.557,12.537-4.949,18.909c0.372,1.261,0.047,2.304-0.654,3.026c-0.382,1.821-0.761,3.643-1.124,5.463
	c-1.961,9.824-3.224,19.738-2.76,29.772C209.33,379.07,214.516,395.304,223.241,409.457z M232.55,476.698
	c0.475-1.938,0.96-3.875,1.518-5.791c1.224-4.198,2.618-8.461,4.454-12.467c-4.564-7.971-8.267-16.379-9.933-25.464
	c-0.759-4.136-1.251-8.314-1.657-12.506c-0.316,0.978-0.632,1.957-0.901,2.951c-1.42,5.228-2.198,10.589-2.672,15.978
	C222.352,450.815,221.376,469.673,232.55,476.698z M278.534,611.739c3.083-10.569,4.332-21.511,3.73-32.548
	c-2.814-6.023-5.853-11.942-8.56-18.012c-0.182-0.023-0.363-0.042-0.554-0.095c-6.861-1.882-13.415-4.967-19.154-9.181
	c-7.673-5.632-13.689-12.759-17.756-21.117c0.504,4.373,1.195,8.721,2.081,13.023c2.994,14.553,7.588,29.775,16.203,42.043
	C261.301,595.505,270.077,603.543,278.534,611.739z M322.785,667.033c-2.691-6.979-1.536-14.494-0.319-21.838
	c0.662-3.996,1.383-8.21,0.799-12.265c-0.563-3.907-2.495-7.317-4.727-10.505c-2.395-3.419-5.143-6.582-7.419-10.086
	c-2.333-3.59-4.159-7.533-5.497-11.599c-0.436-1.323-0.792-2.665-1.11-4.014c-2.084,4.587-4.612,8.973-7.604,13.035
	c-2.01,2.727-6.626,1.994-6.666-1.806c-0.04-3.728-0.554-7.377-1.399-10.951c-0.912,7.592-2.643,15.084-5.228,22.299
	c-0.559,1.559-1.984,2.574-3.465,2.615C287.866,641.714,303.39,658.273,322.785,667.033z M339.485,675.423
	c-1.945-11.489,2.215-23.195,7.316-33.884c1.316-9.916-2.262-19.891-5.161-29.273c-3.334-10.794-6.346-22.164-3.2-33.38
	c0.185-0.657,0.503-1.159,0.891-1.551c-1.718-2.72-3.206-5.564-4.423-8.542c-4.467,5.256-9.81,9.771-15.856,13.206
	c-3.117,1.77-6.679-1.775-4.895-4.895c4.141-7.239,3.643-14.979,0.448-22.463c-1.091-2.556-2.197-5.115-3.267-7.688
	c-1.004,3.856-0.754,8.014-0.517,12.01c0.306,5.149,0.338,10.2-0.184,15.302c0.396,0.691,0.583,1.532,0.396,2.502
	c-1.702,8.802-0.621,18.254,3.179,26.396c3.339,7.154,9.128,12.584,12.901,19.442c4.02,7.307,3.787,14.922,2.511,22.924
	c-1.174,7.364-2.964,15.195,1.371,21.893C333.12,670.706,336.171,673.244,339.485,675.423z M366.164,694.102
	c-0.02-0.027-0.041-0.054-0.06-0.08c-3.488-4.877-7.067-10.04-8.736-15.863c-1.635-5.705-1.515-11.851,0.211-17.517
	c-0.854-2.711-1.915-5.399-2.456-8.09c-0.522-2.599-0.853-5.222-1.01-7.853c-0.465,0.93-0.92,1.873-1.369,2.833
	c-0.388,0.829-0.965,1.33-1.615,1.591c-4.316,9.8-7.297,20.644-3.017,30.648C352.813,686.017,358.587,692.662,366.164,694.102z
	 M427.718,690.411c2.872-4.01,6.104-8.333,7.675-13.05c0.641-1.923,1.026-3.875,1.169-5.833c-0.855-0.195-1.621-0.715-2.065-1.651
	c-2.19-4.625-5.748-6.736-10.166-8.943c-0.164-0.082-0.323-0.171-0.487-0.255c-0.29,1.473-0.779,2.925-1.472,4.364
	c-1.732,3.598-4.521,6.59-6.796,9.837c-2.583,3.687-4.984,7.604-7.18,11.532c-2.196,3.932-4.05,8.14-4.423,12.678
	c-0.191,2.325-2.151,3.475-3.973,3.431c-1.822,0.044-3.781-1.106-3.973-3.431c-0.373-4.538-2.226-8.746-4.423-12.678
	c-2.195-3.929-4.597-7.846-7.18-11.532c-2.275-3.247-5.064-6.239-6.795-9.837c-0.692-1.44-1.183-2.892-1.472-4.364
	c-0.164,0.084-0.323,0.173-0.488,0.255c-4.418,2.207-7.977,4.318-10.166,8.943c-0.444,0.936-1.21,1.456-2.066,1.651
	c0.143,1.958,0.528,3.91,1.169,5.833c1.571,4.717,4.803,9.04,7.675,13.05c2.904,4.054,6.316,7.343,11.167,8.842
	c5.358,1.656,11.047,2.483,16.552,3.518c5.505-1.034,11.193-1.861,16.552-3.518C421.402,697.754,424.813,694.465,427.718,690.411z
	 M451.887,679.771c4.28-10.004,1.3-20.848-3.017-30.648c-0.649-0.261-1.228-0.762-1.615-1.591c-0.448-0.96-0.903-1.903-1.368-2.833
	c-0.157,2.632-0.487,5.255-1.011,7.853c-0.541,2.691-1.601,5.379-2.455,8.09c1.726,5.666,1.846,11.812,0.211,17.517
	c-1.669,5.823-5.248,10.986-8.735,15.863c-0.019,0.026-0.04,0.053-0.06,0.08C441.413,692.662,447.186,686.017,451.887,679.771z
	 M469.006,667.422c4.336-6.697,2.546-14.528,1.372-21.893c-1.276-8.002-1.51-15.617,2.51-22.924
	c3.774-6.858,9.562-12.288,12.901-19.442c3.8-8.142,4.881-17.594,3.18-26.396c-0.188-0.97-0.001-1.811,0.396-2.502
	c-0.522-5.102-0.49-10.152-0.185-15.302c0.238-3.996,0.487-8.153-0.517-12.01c-1.07,2.572-2.176,5.132-3.268,7.688
	c-3.194,7.483-3.692,15.224,0.448,22.463c1.784,3.119-1.778,6.665-4.895,4.895c-6.047-3.435-11.39-7.95-15.857-13.206
	c-1.217,2.979-2.704,5.822-4.422,8.542c0.388,0.392,0.706,0.893,0.89,1.551c3.146,11.216,0.136,22.586-3.199,33.38
	c-2.898,9.383-6.477,19.357-5.161,29.273c5.101,10.688,9.261,22.394,7.316,33.884C463.828,673.244,466.88,670.706,469.006,667.422z
	 M519.852,621.92c-1.481-0.041-2.906-1.057-3.465-2.615c-2.586-7.215-4.316-14.707-5.227-22.3c-0.846,3.574-1.36,7.224-1.399,10.952
	c-0.04,3.8-4.657,4.533-6.666,1.806c-2.993-4.062-5.521-8.448-7.604-13.035c-0.319,1.349-0.675,2.691-1.11,4.014
	c-1.338,4.065-3.163,8.009-5.497,11.599c-2.276,3.504-5.024,6.667-7.42,10.086c-2.232,3.188-4.163,6.598-4.727,10.505
	c-0.584,4.055,0.137,8.268,0.799,12.265c1.217,7.344,2.372,14.859-0.319,21.838C496.61,658.273,512.134,641.714,519.852,621.92z
	 M561.68,543.81c0.885-4.303,1.576-8.651,2.08-13.023c-4.067,8.357-10.083,15.485-17.756,21.117
	c-5.74,4.214-12.293,7.299-19.154,9.181c-0.191,0.053-0.372,0.071-0.554,0.095c-2.707,6.069-5.746,11.988-8.56,18.012
	c-0.602,11.037,0.648,21.979,3.729,32.548c8.457-8.195,17.233-16.234,24.011-25.886C554.091,573.586,558.685,558.363,561.68,543.81z
	 M576.643,439.399c-0.474-5.389-1.252-10.75-2.672-15.978c-0.27-0.994-0.586-1.973-0.901-2.951
	c-0.407,4.191-0.898,8.37-1.657,12.506c-1.666,9.085-5.369,17.493-9.934,25.464c1.836,4.006,3.23,8.269,4.454,12.467
	c0.559,1.915,1.043,3.853,1.518,5.791C578.624,469.673,577.648,450.815,576.643,439.399z M588.68,332.644
	c-0.364-1.82-0.742-3.642-1.125-5.463c-0.701-0.722-1.026-1.765-0.653-3.026c-1.393-6.372-2.956-12.716-4.949-18.909
	c-1.782-5.537-4.018-10.954-6.943-15.957c0.957,8.358,0.201,16.921-1.003,25.267c-1.254,8.702-2.754,17.375-4.271,26.043
	c0.155,0.235,0.294,0.492,0.404,0.782c7.93,20.91-1.245,43.663,5.485,64.755c0.355,1.115,0.744,2.218,1.135,3.32
	c8.726-14.153,13.911-30.387,14.681-47.041C591.903,352.382,590.641,342.467,588.68,332.644z M501.894,340.104
	c2.671,2.469,4.711,4.901,6.563,7.947c1.792,2.946,2.969,6.203,4.714,9.171c1.917,3.26,4.513,5.854,8.096,7.179
	c3.602,1.332,7.451,0.7,10.375-1.759c1.485-1.249,1.276-3.783,0-5.059c-1.449-1.449-3.582-1.243-5.06,0
	c0.361-0.304,0.079-0.105-0.154,0.055c-0.068,0.017-0.444,0.195-0.557,0.237c-0.076,0.028-0.121,0.049-0.16,0.067
	c-0.044-0.003-0.094-0.006-0.176-0.006c-0.276,0.001-0.545-0.005-0.817-0.018c-0.09-0.013-0.266-0.037-0.396-0.067
	c-0.337-0.079-0.662-0.182-0.99-0.292c-0.082-0.027-0.103-0.029-0.104-0.023c-0.034-0.021-0.062-0.039-0.159-0.092
	c-0.306-0.17-0.615-0.328-0.909-0.517c-0.037-0.024-0.479-0.38-0.521-0.398c-0.219-0.201-0.436-0.403-0.64-0.62
	c-0.509-0.541-0.568-0.614-1.021-1.293c-0.809-1.215-1.474-2.519-2.104-3.834c-1.332-2.781-2.621-5.54-4.366-8.095
	c-1.896-2.779-4.082-5.358-6.553-7.642c-1.424-1.315-3.647-1.414-5.06,0C500.565,336.374,500.474,338.793,501.894,340.104z
	 M301.923,324.703c9.16-8.956,21.833-12.65,34.424-12.681c5.316-0.013,10.618,0.567,15.773,1.884
	c3.774,0.965,6.755,1.832,9.794,4.114c1.557,1.169,3.983,0.238,4.895-1.284c1.089-1.817,0.253-3.741-1.283-4.895
	c-5.855-4.397-14.287-5.78-21.358-6.556c-10.356-1.136-21.285-0.103-30.988,3.814c-6.095,2.46-11.607,5.939-16.316,10.543
	C293.565,322.868,298.626,327.926,301.923,324.703z M368.581,350.7c0.781,1.755,0.546,3.854-1.283,4.895
	c-0.08,0.045-0.172,0.073-0.258,0.112c-6.145,12.151-22.782,16.696-35.389,16.263c-13.386-0.46-26.553-6.066-35.631-16.006
	c-0.978-1.071-1.542-3.055-0.559-4.336c9.417-12.279,24.252-19.486,39.807-18.521C347.488,333.866,363.153,338.504,368.581,350.7z
	 M361.005,351.826c-5.295-7.975-16.748-11.006-25.738-11.564c-11.945-0.741-23.931,3.955-31.901,12.901
	c7.468,6.996,17.347,11.119,27.607,11.624C341.479,365.303,355.902,362.147,361.005,351.826z M354.763,371.867
	c-12.57,9.432-29.282,8.856-43.221,2.82c-1.786-0.773-3.818-0.514-4.895,1.284c-0.9,1.503-0.487,4.128,1.284,4.895
	c16.115,6.978,35.749,8.207,50.444-2.82c1.557-1.168,2.317-3.078,1.283-4.895C358.785,371.618,356.305,370.71,354.763,371.867z
	 M379.781,327.814c-2.384-3.933-8.574-0.34-6.178,3.611c1.144,1.886,2.314,3.757,3.37,5.695c1.231,2.26,1.808,3.48,2.555,5.787
	c1.814,5.6,1.823,11.389,0.813,17.35c-0.322,1.902,0.503,3.852,2.499,4.4c1.717,0.472,4.076-0.583,4.401-2.499
	c1.172-6.917,1.404-14.022-0.699-20.795C385.025,336.482,382.411,332.152,379.781,327.814z M385.54,388.46
	c-1.721-0.473-4.071,0.584-4.401,2.499c-1.224,7.11-4.822,12.793-8.017,19.101c-3.406,6.727-2.45,15.029,2.589,20.725
	c3.057,3.456,8.102-1.62,5.059-5.06c-2.185-2.47-2.742-5.875-2.473-9.069c0.049-0.59-0.004-0.434,0.195-1.062
	c0.072-0.227,0.148-0.45,0.223-0.676c0.016-0.048,0.023-0.072,0.034-0.104c0.008-0.017,0.013-0.025,0.026-0.054
	c0.487-1.073,1.055-2.108,1.626-3.139c3.306-5.962,6.468-11.965,7.638-18.761C388.367,390.959,387.532,389.008,385.54,388.46z
	 M298.107,340.104c1.419-1.312,1.328-3.731,0-5.059c-1.414-1.414-3.636-1.315-5.06,0c-2.471,2.284-4.657,4.863-6.553,7.642
	c-1.745,2.556-3.034,5.315-4.367,8.095c-0.63,1.315-1.295,2.619-2.104,3.834c-0.452,0.679-0.513,0.752-1.021,1.293
	c-0.204,0.217-0.421,0.419-0.64,0.62c-0.042,0.018-0.484,0.374-0.521,0.398c-0.294,0.189-0.603,0.347-0.909,0.517
	c-0.098,0.054-0.126,0.071-0.16,0.092c0-0.006-0.023-0.004-0.105,0.023c-0.328,0.11-0.653,0.213-0.99,0.292
	c-0.13,0.03-0.305,0.054-0.396,0.067c-0.273,0.013-0.541,0.019-0.817,0.018c-0.082,0-0.132,0.003-0.176,0.006
	c-0.04-0.019-0.083-0.039-0.16-0.067c-0.112-0.042-0.489-0.221-0.557-0.237c-0.233-0.161-0.516-0.359-0.154-0.055
	c-1.478-1.243-3.61-1.449-5.059,0c-1.277,1.276-1.486,3.81,0,5.059c2.924,2.46,6.772,3.091,10.374,1.759
	c3.584-1.325,6.179-3.919,8.096-7.179c1.745-2.968,2.922-6.225,4.714-9.171C293.396,345.006,295.436,342.573,298.107,340.104z
	 M469.691,269.466c3.787,2.645,7.359-3.561,3.61-6.178c-5.372-3.751-11.842-5.804-18.393-5.931
	c-6.814-0.131-12.868,2.254-18.944,5.07c-5.893,2.733-11.469,5.076-18.003,3.279c-5.931-1.631-11.754-4.495-17.962-3.02
	c-6.208-1.475-12.031,1.389-17.962,3.02c-6.534,1.797-12.109-0.546-18.003-3.279c-6.076-2.817-12.129-5.202-18.944-5.07
	c-6.55,0.126-13.021,2.18-18.393,5.931c-3.749,2.617-0.176,8.823,3.611,6.178c8.008-5.59,17.583-6.227,26.504-2.495
	c4.611,1.93,9.009,4.458,13.864,5.762c4.715,1.267,9.363,1.02,14.024-0.346c4.375-1.282,8.986-3.708,13.64-2.761
	c0.573,0.117,1.122,0.147,1.659,0.131c0.537,0.016,1.086-0.015,1.659-0.131c4.653-0.947,9.265,1.478,13.64,2.761
	c4.661,1.366,9.309,1.612,14.023,0.346c4.855-1.304,9.253-3.832,13.864-5.762C452.107,263.238,461.684,263.875,469.691,269.466z
	 M457.332,232.311c-4.789,0.663-9.107,2.755-13.575,4.478c-4.449,1.715-10.065,3.755-14.714,1.726
	c-2.686-1.172-5.102-2.798-7.911-3.717c-2.565-0.839-5.373-1.093-8.059-1.024c-4.5,0.114-9.173,1.016-13.072,3.311
	c-3.899-2.295-8.572-3.196-13.072-3.311c-2.688-0.068-5.495,0.186-8.06,1.024c-2.811,0.919-5.226,2.545-7.911,3.717
	c-4.649,2.029-10.265-0.011-14.714-1.726c-4.468-1.722-8.786-3.815-13.576-4.478c-7.011-0.97-13.493,1.481-19.229,5.412
	c-3.775,2.587-0.2,8.79,3.611,6.178c5.604-3.841,11.249-5.766,17.899-3.797c5.5,1.628,10.543,4.507,16.194,5.677
	c3.405,0.705,7.028,1.097,10.418,0.105c3.147-0.922,5.778-2.967,8.84-4.066c4.898-1.758,12.918-1.39,17.048,2.097
	c0.807,0.681,1.699,0.938,2.549,0.892c0.851,0.046,1.742-0.21,2.549-0.892c4.131-3.487,12.15-3.855,17.049-2.097
	c3.062,1.099,5.692,3.144,8.841,4.066c3.39,0.992,7.014,0.6,10.418-0.105c5.65-1.17,10.694-4.049,16.194-5.677
	c6.649-1.969,12.294-0.043,17.898,3.797c3.811,2.612,7.386-3.591,3.611-6.178C470.825,233.792,464.343,231.341,457.332,232.311z
	 M337.675,218.294c4.46-2.039,9.398-2.783,14.27-2.353c4.964,0.438,9.384,3.148,14.378,3.302c5.121,0.158,9.761-2.205,14.744-2.865
	c5.508-0.73,10.999,1.182,16.157,2.863c1.104,0.359,2.049,0.192,2.776-0.283c0.727,0.475,1.672,0.643,2.775,0.283
	c5.158-1.681,10.648-3.593,16.157-2.863c4.983,0.661,9.623,3.023,14.744,2.865c4.993-0.154,9.413-2.864,14.378-3.302
	c4.872-0.43,9.81,0.314,14.271,2.353c1.747,0.799,3.861,0.533,4.895-1.283c0.887-1.558,0.487-4.085-1.283-4.895
	c-5.125-2.342-10.615-3.631-16.273-3.429c-2.586,0.092-5.209,0.458-7.712,1.115c-2.487,0.653-4.896,1.917-7.459,2.238
	c-5.428,0.68-10.906-2.479-16.306-2.891c-5.918-0.45-11.76,1.382-17.312,3.191c-0.325,0.106-0.616,0.243-0.874,0.404
	c-0.258-0.161-0.548-0.298-0.874-0.404c-5.553-1.81-11.395-3.642-17.313-3.191c-5.399,0.411-10.878,3.571-16.306,2.891
	c-2.563-0.321-4.972-1.585-7.458-2.238c-2.503-0.657-5.126-1.023-7.712-1.115c-5.659-0.203-11.149,1.086-16.274,3.429
	c-1.771,0.81-2.17,3.336-1.283,4.895C333.814,218.827,335.928,219.092,337.675,218.294z"/>
</svg>
