<?xml version="1.0" encoding="iso-8859-1"?>
<!-- Generator: Adobe Illustrator 23.1.1, SVG Export Plug-In . SVG Version: 6.00 Build 0)  -->
<svg version="1.1" id="Line-Expanded" xmlns="http://www.w3.org/2000/svg" xmlns:xlink="http://www.w3.org/1999/xlink" x="0px"
	 y="0px" viewBox="0 0 64 64" style="enable-background:new 0 0 64 64;" xml:space="preserve">
<path d="M61,33h-7.698l1.47-5.512l3.46,4.152c0.225,0.27,0.575,0.405,0.924,0.347c0.348-0.055,0.642-0.289,0.772-0.616l2-5
	c0.126-0.316,0.083-0.675-0.115-0.952l-5-7c-0.225-0.314-0.61-0.477-0.993-0.402c-0.381,0.068-0.688,0.352-0.788,0.726L51.232,33H44
	v-6c0-0.155-0.036-0.309-0.105-0.447l-2-4l-1.789,0.895L42,27.236V33h-4V21h7c0.265,0,0.52-0.105,0.707-0.293l8-8
	c0.391-0.391,0.391-1.023,0-1.414l-3-3c-0.369-0.37-0.962-0.391-1.358-0.052L42.63,14h-7.74C36.19,12.728,37,10.958,37,9
	c0-3.859-3.14-7-7-7s-7,3.141-7,7c0,1.958,0.81,3.728,2.111,5H24c-3.86,0-7,3.141-7,7v12h-4.232L8.966,18.742
	c-0.1-0.374-0.407-0.657-0.788-0.726c-0.381-0.074-0.767,0.088-0.993,0.402l-5,7c-0.198,0.277-0.241,0.636-0.115,0.952l2,5
	c0.131,0.327,0.424,0.562,0.772,0.616c0.35,0.059,0.699-0.077,0.924-0.347l3.46-4.152L10.698,33H3c-0.552,0-1,0.447-1,1v14
	c0,0.553,0.448,1,1,1h2.142l1.87,12.152C7.087,61.64,7.506,62,8,62h48c0.494,0,0.913-0.36,0.988-0.848L58.858,49H61
	c0.552,0,1-0.447,1-1V34C62,33.447,61.552,33,61,33z M56.419,21.308l3.449,4.829l-1.174,2.935l-3.292-3.95L56.419,21.308z
	 M5.306,29.071l-1.174-2.935l3.449-4.829l1.017,3.813L5.306,29.071z M32.461,16L30,21.538L27.539,16H32.461z M25,9
	c0-2.757,2.243-5,5-5s5,2.243,5,5s-2.243,5-5,5S25,11.757,25,9z M19,21c0-2.757,2.243-5,5-5h1.35l3.736,8.406
	C29.247,24.768,29.605,25,30,25s0.753-0.232,0.914-0.594L34.65,16H43c0.239,0,0.47-0.085,0.651-0.241l6.297-5.396L51.586,12l-7,7H37
	c-0.552,0-1,0.447-1,1v13H24V20h-2v13h-3V21z M7.166,49H20v11H8.858L7.166,49z M42,49v11h-2V49H42z M38,60H26V49h12V60z M24,60h-2
	V49h2V60z M55.142,60H44V49h12.834L55.142,60z M60,47H4V35h56V47z"/>
<path d="M32,45c2.206,0,4-1.794,4-4s-1.794-4-4-4s-4,1.794-4,4S29.794,45,32,45z M32,39c1.103,0,2,0.897,2,2s-0.897,2-2,2
	s-2-0.897-2-2S30.897,39,32,39z"/>
<rect x="29" y="27" width="2" height="2"/>
</svg>
