<?xml version="1.0" encoding="UTF-8"?>
<svg id="Layer_1" data-name="Layer 1" xmlns="http://www.w3.org/2000/svg" viewBox="0 0 2500 2500">
  <path d="m2200,1156.91l-.34-292.28c0-93.67-68.45-170.86-157.29-184.72,2.05-16.16,3.45-32.53,3.45-49.25V36.28c0-14.79-8.98-28.08-22.66-33.64-13.69-5.53-29.41-2.21-39.69,8.44l-101.15,104.71c-76.18,78.84-182.74,124.07-292.33,124.07h-763.65c-215.4,0-390.66,175.3-390.66,390.79,0,17.46,1.47,34.81,3.79,52.02-79.8,19.8-139.47,93.61-139.47,181.95v292.31h0s0,.03,0,.03l.34,292.29c0,90.7,63.96,166.53,148.65,183.86v85.47c0,15.57.55,31.24,1.5,46.87l-16.3,3.33h-.05s-.03.01-.03.01l-.62.13c-.76.16-1.31.67-2.05.87-88.86,21.94-52.47,274.5-32.43,383.12,19.63,106.27,73.75,347.1,161.15,347.1,2.92,0,5.9-.28,8.9-.82.03,0,.06-.02.06-.02.11-.02.18-.02.25-.03l199.11-38.63c31.12-5.75,48.62-35.44,57.11-78.48,105.98,97.86,282.04,112.29,428.41,112.29s322.21-14.39,428.29-112.35c8.43,43.06,25.87,72.74,56.89,78.49l199.45,38.68c.07.01.14,0,.21.02.04.01.06.03.1.04,3.01.54,5.98.82,8.89.82,87.32,0,141.52-240.82,161.15-347.1,16.66-90.31,25.18-176.92,23.99-243.82-1.06-59.3-8.71-127.95-56.6-139.36-.68-.18-1.2-.66-1.9-.81l-.66-.13h-.02s-.01,0-.01,0l-26.82-5.47c.87-14.8,1.37-29.7,1.37-44.72v-85.19c85.97-16.3,151.32-92.5,151.32-184.11l.34-292.31v-.03s0-.02,0-.03Zm-1751,110.52v290.09c-44.16-15.66-76.13-58.04-76.13-108.3l-.34-292.31v-292.28c0-63.45,49.01-115.06,109.25-115.06,1.46,0,2.71-.66,4.13-.83,1.46-.18,2.85.18,4.32-.19.97-.24,1.67-.91,2.61-1.21,2.5-.81,4.71-1.92,6.94-3.23,1.87-1.1,3.64-2.15,5.26-3.55,1.9-1.63,3.44-3.45,4.97-5.43,1.31-1.7,2.54-3.34,3.53-5.23,1.14-2.18,1.87-4.46,2.56-6.87.61-2.18,1.13-4.28,1.32-6.58.1-1.1.64-2.04.64-3.16,0-1.63-.72-3.02-.93-4.6-.17-1.31.17-2.58-.14-3.89-5.81-24.12-8.76-49.06-8.76-74.14,0-175.47,142.71-318.24,318.13-318.24h763.65c129.14,0,254.7-53.27,344.49-146.2l38.81-40.19v504.63c0,175.48-142.74,318.22-318.16,318.22h-828.78c-79.1,0-155.08-29.55-213.96-83.26-.95-.88-2.16-1.17-3.17-1.91-.99-.73-1.61-1.78-2.69-2.42-1.01-.6-2.15-.63-3.19-1.11-2.42-1.16-4.81-1.99-7.38-2.57-2.01-.45-3.93-.78-5.97-.88-2.62-.15-5.12.03-7.72.45-2.01.33-3.89.77-5.82,1.42-2.42.82-4.62,1.9-6.85,3.23-1.9,1.13-3.6,2.38-5.29,3.87-1,.88-2.23,1.31-3.15,2.31-.96,1.05-1.29,2.39-2.11,3.51-.66.92-1.64,1.47-2.23,2.47-70.54,119.02-107.83,255.08-107.83,393.46Zm72.53,330.23v-330.23c0-111.28,28.03-220.28,78.73-318.94,65.92,47.1,144.54,72.93,226.09,72.93h828.78c89.92,0,172.6-30.85,238.71-82.1,53.65,100.94,81.98,213.45,81.98,328.11v451.15c0,10.07-.28,20.08-.71,30.06l-100.38-20.48c-35.06-6.34-64.77,21.4-89.87,67.27l-106.94-19.75c-107.31-202.25-264.41-323.06-423.91-323.06-187.47,0-341.21,164.18-426.41,323.52l-104.54,19.31c-25.25-46.08-55.16-73.87-90.47-67.15l-110.29,22.5c-.49-10.69-.77-21.42-.77-32.22v-115.03c.09-1.02.59-1.9.59-2.95s-.51-1.92-.59-2.95Zm30.65,810.24c-22.3-39.31-56.16-129.08-81.82-268.14-25.67-139.06-26.12-235.01-19.33-279.71,22.3,39.31,56.15,129.09,81.82,268.15,25.67,139.06,26.12,235.01,19.32,279.7Zm197.16-17.6l-125.52,24.34c14.45-89.47-6.2-226.8-19.63-299.59-13.56-73.43-43.55-210.55-89.65-288.63l126.05-25.7c21.05,18.68,63.3,117.6,94.63,287.3,31.39,170.09,27.17,277.67,14.11,302.29Zm57.2-315.44c-13.18-71.39-30.8-148.01-53.5-211.17l100.84-18.64c15.81,11.87,51.31,80.23,74.77,207.16,23.43,126.96,14.7,203.5,4.17,220.25l-100.9,18.62c-1.35-67.03-12.18-144.83-25.38-216.23Zm447.47,346.9c-168.42,0-280.15-22.22-351.18-69.98l47.21-8.72c17.12-3.17,40.35-14.88,53.8-52.77,37.54-105.79-17.11-401.76-89.98-487.23-4.08-4.78-8.1-7.78-12.14-11.28,76.46-134.43,203.61-266.62,352.29-266.62s275.05,132.69,351.24,267.6c-3.7,3.29-7.36,5.93-11.09,10.3-72.87,85.47-127.52,381.44-89.98,487.23,13.46,37.89,36.69,49.59,53.8,52.77l47.11,8.71c-71.02,47.76-182.42,69.99-351.08,69.99Zm447.44-346.9c-13.19,71.4-24.03,149.19-25.4,216.23l-100.84-18.62c-10.54-16.75-19.27-93.29,4.16-220.25,23.29-126.01,58.41-194.15,74.37-206.75.63.04,1.15.5,1.78.5.52,0,1.02-.35,1.54-.37l97.84,18.08c-22.65,63.12-40.26,139.7-53.45,211.18Zm202.34,40.18c-16.66,90.31-25.18,176.92-23.99,243.86.32,18.33,1.46,37.46,4.01,55.66l-125.16-24.27c-13.06-24.63-17.29-132.2,14.11-302.29,31.34-169.7,73.58-268.6,94.63-287.3l126.21,25.74c-46,78.13-76.26,215.26-89.81,288.59Zm153.19-255.02c6.8,44.67,6.37,140.65-19.32,279.71-25.7,139.06-59.56,228.86-81.85,268.17-6.77-44.66-6.34-140.64,19.32-279.7,25.67-139.09,59.56-228.9,81.85-268.18Zm70.15-410.77c0,51.24-33.28,94.26-78.79,109.12v-290.94c0-133.09-34.83-263.49-100.16-379.21,34.83-39.59,61.9-86.08,78.53-137.36,56.32,6.45,100.42,54.69,100.42,113.8l.34,292.28-.34,292.31Z"/>
  <path d="m878.62,1513.55c20.03,0,36.26-16.24,36.26-36.27v-135.49c0-20.03-16.23-36.27-36.26-36.27s-36.26,16.24-36.26,36.27v135.49c0,20.03,16.23,36.27,36.26,36.27Z"/>
  <path d="m1668.56,1513.55c20.04,0,36.26-16.24,36.26-36.27v-135.49c0-20.03-16.23-36.27-36.26-36.27s-36.26,16.24-36.26,36.27v135.49c0,20.03,16.23,36.27,36.26,36.27Z"/>
  <path d="m1254.01,1602.22c-92.33,0-173.05,72.61-200.87,180.66-4.98,19.38,6.68,39.16,26.09,44.18,19.29,5.02,39.15-6.66,44.17-26.1,19.41-75.47,71.91-126.19,130.61-126.19s111.17,50.7,130.58,126.19c4.22,16.38,18.96,27.24,35.1,27.24,3,0,6.03-.37,9.06-1.14,19.38-4.99,31.08-24.77,26.09-44.18-27.79-108.06-108.51-180.66-200.84-180.66Z"/>
</svg>