<?xml version="1.0" encoding="utf-8"?>
<!-- Generator: Adobe Illustrator 24.0.0, SVG Export Plug-In . SVG Version: 6.00 Build 0)  -->
<svg version="1.1" id="outline" xmlns="http://www.w3.org/2000/svg" xmlns:xlink="http://www.w3.org/1999/xlink" x="0px" y="0px"
	 viewBox="0 0 340 340" style="enable-background:new 0 0 340 340;" xml:space="preserve">
<g>
	<path d="M159.1,243.9c1,2.8,2.4,5.4,4.2,7.7c10.9,14.1,33.5,14.4,41.6,14c-0.2-2-0.7-4.7-2.3-7.1c-1.1-1.6-0.6-3.7,0.9-4.8
		c1.6-1.1,3.7-0.6,4.8,0.9c4.3,6.5,3.5,14,3.5,14.5c0,0,0,0,0,0c0,0,0,0,0,0c0,0,0,0,0,0c0,0,0,0,0,0c-1.3,11.2-8.7,18.7-13.1,22.2
		c-1.3,1-1.9,2.6-1.5,4.2c0.3,1.4,1.3,2.6,2.7,3.1c11.2,3.8,17.8,11.2,21.4,16.7c1.6,2.5,4.7,3.5,7.7,2.7c9.6-2.7,17.3,0.3,21,2.4
		c0.4,0.2,0.8,0.3,1.2,0.2c0.8-0.2,1.3-1,1.1-1.8c-1.7-8.5-8.5-11-13.9-11.6c-6.8-0.8-12.8-4.6-16-10.2c-1.3-2.2-1.8-3.9-1.8-4.1
		c-0.2-0.9-0.1-1.8,0.3-2.6c4.9-8.9,13-17,18.9-22.1c4.6-4,7.2-9.8,7.1-16l-0.1-4c-0.1-4-0.7-7.9-2-11.6
		c-4.4-12.7-16.2-33.9-46.2-33.1c-13.9,0.4-24.7,3.9-31.9,10.5c-1.4,1.3-3.6,1.2-4.8-0.2c-1.3-1.4-1.2-3.6,0.2-4.8
		c6.2-5.7,14.4-9.4,24.5-11.2c3.2-4.3,14.9-17.4,47.1-31l-0.8-0.9c-1.2-1.5-1-3.6,0.4-4.8c1.5-1.2,3.6-1,4.8,0.4l7.2,8.6
		c1.2,1.5,1,3.6-0.4,4.8c-0.6,0.5-1.4,0.8-2.2,0.8c-1,0-2-0.4-2.6-1.2l-1.8-2.1c-23,9.5-35.3,18.7-41.5,24.4c0.5,0,1-0.1,1.6-0.1
		c30.7-0.8,44.8,19.1,50.6,32.1c6-7.7,10.2-14.6,12.8-19.3c3.9-7.1,7.3-12.9,10.6-18c0.4-0.7,0.9-1.4,1.3-2.1c1-1.6,3.1-2.1,4.7-1.1
		c1.6,1,2.1,3.1,1.1,4.7c-0.5,0.7-0.9,1.5-1.4,2.2c-3.2,5-6.5,10.6-10.4,17.6c-3,5.6-8.3,14.1-15.9,23.4c1.1,3.8,1.7,7.8,1.8,11.9
		l0.1,4c0.1,8.2-3.3,15.9-9.4,21.3c-5.2,4.5-12.1,11.4-16.6,18.9c0.2,0.4,0.4,0.8,0.7,1.3c2.2,3.8,6.2,6.3,10.8,6.8
		c10.7,1.2,18,7.4,19.9,17.1c0.9,4.3-1.8,8.6-6,9.8c-0.7,0.2-1.5,0.3-2.2,0.3c-1.4,0-2.8-0.4-4.1-1.1c-2.8-1.6-8.6-3.9-15.8-1.8
		c-5.9,1.7-12.1-0.5-15.3-5.5c-3-4.6-8.5-10.8-17.8-14c-3.6-1.2-6.3-4.3-7.1-8.1c-0.9-4.1,0.6-8.3,3.9-11c2.9-2.4,7.6-7,9.7-13.6
		c-10.1,0.4-33.7-0.6-46.2-16.7c-1.3-1.6-2.3-3.4-3.3-5.2c-8.1,6.3-28.8,19.7-56,15.8c-1.3-0.2-2.4,0.6-2.8,1.8l-0.3,0.9
		c-0.4,1.5-1.8,2.5-3.3,2.5c-0.3,0-0.6,0-1-0.1c-1.8-0.5-2.9-2.4-2.3-4.2l0.3-0.9c1.3-4.4,5.7-7.3,10.3-6.6
		c31.3,4.4,54-17.1,54-17.1C155.1,241,158.4,241.4,159.1,243.9z"/>
	<path d="M116.1,294.5c-1.7,2.1-2.7,4.6-2.7,7.4c0,4.1,2.3,8,6,10.1c2.1,1.2,5,3.3,7.3,7c2.8,4.6,8.2,6.6,13.2,5
		c4-1.3,10.2-2.2,17,0.7c1.3,0.5,2.6,0.8,3.9,0.8c2.7,0,5.4-1.1,7.4-3.3c1.8-2,2.8-4.8,2.5-7.5c-0.2-2.7-1.6-5.3-3.8-7
		c-3.3-2.6-7.2-4.6-11.5-6c-1.2-0.4-2.2-1.3-2.5-2.6c-0.4-1.3-0.1-2.6,0.8-3.6c1.3-1.5,2.8-3,4.5-4.5c0,0,0.1-0.1,0.1-0.1
		c9.7-1.9,19.1-4.5,28-7.9c1.8-0.7,2.7-2.6,2-4.4c-0.7-1.8-2.6-2.7-4.4-2c-19.6,7.4-41.5,11.1-65,10.9c-0.5,0-51.9-1.1-81.1-30.3
		c-17.5-17.4-23.4-43.7-15.1-67c7.1-19.9,22.7-33.6,46.5-40.6c0,0,0,0,0,0c9.4-2.7,19.3-4.1,29.3-4c0,0,0.1,0,0.1,0
		c5.6,0,18-2.7,23.1-6.4c7-5,9.4-12.5,9.8-19.5c3.5,8.3,4.1,15.6,1.7,21.9c-5.5,14.6-25.6,19.4-25.8,19.4
		c-19.9,4.3-33.3,12.9-39.9,25.4c-2.7,5.2-3.9,10.4-4.2,15.2c-1.5-4.8-2.4-9.9-2.6-15.2c-0.1-1.9-1.7-3.4-3.5-3.3
		c-1.9,0.1-3.4,1.6-3.3,3.5c0.4,13.2,4.7,25.3,12.8,36c0,0,0.1,0.1,0.1,0.1c0,0,0,0,0.1,0.1c7.1,9.2,20.1,14.5,33,14.5
		c5.8,0,11.5-1.1,16.7-3.3c14-6,22.6-16.2,26.5-31.3c0-0.1,3.6-14.9,15.4-31.4c15.7-22,37.8-36.4,65.6-42.9
		c2.5-0.4,23.1-4.4,29.1-27.3l2.1,0.3c1.1,0.2,2.2,0.3,3.4,0.3c4.7,0,9.4-1.5,13.2-4.4c4.6-3.5,7.6-8.5,8.3-14.2
		c0.2-1.5,0.3-3.1,0.2-4.7c2.3,1.3,5,3.4,6.8,6.7c0.9,1.7,3,2.2,4.7,1.3c1.7-0.9,2.2-3,1.3-4.7c-5.5-9.9-15.8-11.8-16.2-11.9
		c-1.1-0.2-2.3,0.2-3.1,1c-0.8,0.8-1.1,2-0.9,3.1c0.6,3.1,0.7,5.9,0.4,8.4c-0.5,3.8-2.5,7.2-5.6,9.5c-3.2,2.4-7.4,3.4-11.3,2.8
		l-5.3-0.8c0,0,0,0-0.1,0c0,0,0,0-0.1,0c0,0-4.8-0.6-10.7-2.9c-9.1-3.6-22.1-3.8-27.7-3.9c-0.8,0-3.1-0.1-3.6-0.2
		c-4-0.7-6.9-3-8.8-7.1c-0.6-1.3-0.1-2.3,0.2-2.7c0.6-0.9,1.6-1.4,2.6-1.3l18.5,1c0.1,0,0.1,0,0.2,0c0,0,0,0,0,0c0,0,0,0,0,0
		c0,0,0,0,0,0c3.6,0,7-0.8,10-2.3c2-1,3.8-2.3,5.4-3.9c1.3-1.3,1.4-3.5,0-4.8c-1.3-1.3-3.5-1.4-4.8,0c-1.1,1.1-2.3,1.9-3.6,2.6
		c-1.2,0.6-2.5,1-3.9,1.3c-0.1-1-0.2-2.1-0.3-3.1c-0.1-1.9-1.7-3.4-3.6-3.3c-1.9,0.1-3.4,1.7-3.3,3.6c0,0.9,0.1,1.9,0.2,2.9
		l-7.4-0.4c-0.2-0.8-0.3-1.8-0.4-2.9c-0.2-1.9-1.8-3.3-3.7-3.1c-1.9,0.2-3.3,1.8-3.1,3.7c0.1,0.7,0.1,1.4,0.2,2
		c-2.5-0.1-4.8,0.7-6.6,2.2c-0.2-0.9-0.4-1.8-0.6-2.8c-0.3-1.9-2.1-3.1-3.9-2.8c-1.9,0.3-3.1,2.1-2.8,3.9c1.2,7.5,4.2,12.6,4.9,13.5
		c2.9,5.9,7.6,9.5,13.7,10.6c0.9,0.2,3.7,0.3,4.6,0.3c5.2,0.1,17.3,0.3,25.3,3.5c3.4,1.3,6.5,2.2,8.7,2.7
		c-5.3,19.2-22.6,21.6-23.4,21.7c-0.1,0-0.2,0-0.4,0.1c-36.9,8.6-58.4,29.7-69.9,45.9c-12.5,17.6-16.2,32.9-16.3,33.5
		c-4.4,17-15,23.3-22.5,26.6c-13.8,5.9-33,1.8-41.4-8.9c-0.9-2.5-5.5-16.4,1.2-29.3c5.6-10.7,17.4-18,35.3-21.9
		c1-0.2,23.8-5.6,30.7-23.7c4.5-12,0.9-26.4-10.9-42.7c-1-1.4-2.8-1.8-4.3-1c-1.5,0.8-2.2,2.5-1.7,4.1c0.1,0.2,6.9,20.8-5,29.2
		c-3.5,2.5-14.3,5.2-19.3,5.1c-10.7-0.1-21.2,1.4-31.3,4.3c0,0,0,0,0,0c0,0,0,0,0,0c-25.6,7.6-43.2,23.1-51,44.9
		c-9.2,25.8-2.6,54.9,16.7,74.2C60.6,289.9,104.8,293.9,116.1,294.5z M146.3,301.2c1,3.5,3.7,6.2,7.1,7.2c3.6,1.1,6.7,2.7,9.3,4.8
		c0.7,0.5,1.1,1.3,1.2,2.2c0.1,0.9-0.2,1.7-0.8,2.3c-0.9,1-2.3,1.3-3.5,0.8c-8.7-3.8-16.7-2.6-21.8-1c-2,0.6-4.1-0.2-5.3-2.1
		c-3-4.9-7-7.8-9.7-9.4c-1.5-0.9-2.5-2.4-2.5-4.1c0-1.2,0.5-2.4,1.4-3.3c1.2-1.2,2.4-2.6,3.4-4c7.6-0.2,14.9-0.7,22.1-1.7
		C145.8,295.4,145.5,298.4,146.3,301.2z"/>
	<path d="M154.9,226.7c0.4,0.2,0.8,0.2,1.2,0.2c1.4,0,2.7-0.8,3.2-2.2c0.1-0.3,0.2-0.6,0.4-0.9c0.7-1.7-0.1-3.8-1.8-4.5
		c-1.7-0.7-3.8,0.1-4.5,1.8c-0.2,0.4-0.3,0.8-0.5,1.1C152.3,224,153.2,226,154.9,226.7z"/>
	<path d="M259.4,151.4c0.4,0.2,0.9,0.3,1.3,0.3c1.4,0,2.6-0.8,3.2-2.1c5.9-14.7,1.8-30.4-0.3-36.5c-0.6-1.8-2.6-2.8-4.3-2.1
		c-1.8,0.6-2.8,2.6-2.1,4.3c1.4,4.2,5.6,18.8,0.4,31.7C256.8,148.7,257.6,150.7,259.4,151.4z"/>
	<path d="M253,163.9c0.8,0,1.5-0.3,2.2-0.8c1.5-1.2,1.7-3.4,0.5-4.8l-2.5-3c-1.2-1.5-3.4-1.7-4.8-0.5c-1.5,1.2-1.7,3.4-0.5,4.8
		l2.5,3C251,163.5,252,163.9,253,163.9z"/>
	<path d="M255,35.2c-1.9,0-3.4,1.5-3.4,3.4c0,1.9,1.5,3.4,3.4,3.4h2.3c1.9,0,3.4-1.5,3.4-3.4c0-1.9-1.5-3.4-3.4-3.4H255z"/>
	<path d="M192.7,43.4c0.4,0.2,0.8,0.2,1.2,0.2c1.4,0,2.7-0.8,3.2-2.2c0.5-1.2,1-2.5,1.7-3.7c0.7,0.9,1.6,1.8,2.7,2.4
		c0.7,0.4,1.5,0.9,2.4,1.5l-1.3,3c-0.8,1.7,0,3.8,1.7,4.5c0.5,0.2,0.9,0.3,1.4,0.3c1.3,0,2.6-0.8,3.1-2l1.1-2.5
		c1.6,0.7,3.3,1.5,5.1,2.2l-1.1,2.7c-0.7,1.8,0.2,3.8,1.9,4.4c0.4,0.2,0.8,0.2,1.3,0.2c1.4,0,2.7-0.8,3.2-2.2l1.3-3.2
		c0.5,0.1,1,0.2,1.6,0.4c1.6,0.3,3,0.7,4.3,1.2l-1.3,3c-0.8,1.7,0,3.8,1.7,4.5c0.5,0.2,0.9,0.3,1.4,0.3c1.3,0,2.6-0.8,3.1-2l1.2-2.7
		c2.7,1.9,3.6,3.6,3.7,3.8c0,0.1,0.1,0.1,0.1,0.2c0,0.1,0,0.1,0.1,0.2c0.3,0.4,6.6,10.6,16.6,11.6c0.6,0.1,1.2,0.1,1.7,0.1
		c5.1,0,10.1-2.5,14.7-7.3c0.6-0.6,0.9-1.3,1.1-1.7l0.1-0.1c0.9-1.7,0.2-3.7-1.5-4.6c-1.7-0.9-3.7-0.2-4.6,1.5
		c-0.1,0.1-0.1,0.3-0.2,0.4c-3.5,3.6-7.1,5.3-10.5,4.9c-6.2-0.6-10.8-7.4-11.4-8.3c-0.9-1.7-5.2-8.6-18.8-11.5
		c-9.4-2-15.9-6.2-19.4-8.4c-0.9-0.6-1.6-1.5-1.8-2.6c-0.2-1.1,0-2.2,0.6-3c0,0,0,0,0,0c1.4-2.1,3-3.9,4.6-5.6
		c3.5-3.5,8.8-4.7,13.6-3.2l16.1,5.2c3.8,1.2,7.8,1.7,11.8,1.3l4.6-0.4c3.1-0.3,6.2,0.3,9,1.7l0.7,0.4c2.4,1.2,5.1,2,7.9,2.5
		c8.6,1.4,28.7,8.5,30.3,43c0,0.3,0.1,0.6,0.2,0.9c0.1,0.3,9.6,30.1-7.8,73.6c-0.1,0.3-1.1,2.6-2.8,6.1c-0.6-0.5-1.3-1-1.8-1.5
		c-1.8-1.9-3.9-3.4-6.3-4.4c-1.7-0.8-3.8,0-4.5,1.8c-0.8,1.7,0,3.8,1.8,4.5c1.6,0.7,2.9,1.6,4.1,2.8c2.3,2.4,5.1,4.1,8.1,5.1
		c3.3,1,6.6,3,9.9,5.8c5.8,5,8.5,12.5,7,19.6c-0.6,2.9-1.8,5.3-3.5,7c-0.6,0.6-1.2,0.5-1.6,0.3c-0.3-0.2-1-0.6-0.8-1.6l0.1-0.3
		c1.2-7.4-3.3-14.5-10.6-16.6c-5.4-1.5-9.7-0.9-10.6-0.7c-2.5,0.4-4.9,0.5-7.1,0.3c-3.9-0.3-7.4-2.3-9.4-5.4c-1.1-1.6-3.2-2-4.8-0.9
		c-1.6,1.1-2,3.2-0.9,4.8c3.2,4.8,8.7,7.9,14.6,8.4c2.7,0.2,5.7,0.1,8.8-0.3c0.1,0,0.1,0,0.2,0c0,0,3.3-0.6,7.5,0.5
		c3.9,1.1,6.4,5,5.8,8.9l0,0.2c-0.7,3.6,1.1,7.2,4.3,8.9c1.2,0.7,2.6,1,3.9,1c2.1,0,4.2-0.8,5.8-2.5c2.7-2.7,4.5-6.2,5.4-10.5
		c2-9.5-1.6-19.6-9.3-26.2c-3.1-2.7-6.3-4.7-9.5-6.1c1.8-3.8,2.8-6.1,2.8-6.3c0,0,0-0.1,0-0.1c0.4-0.9,0.7-1.8,1-2.7
		c1.9,2,4.3,3.8,6.9,5.4c5.1,3,13.3,9.6,11.4,20.1c0,0.2-0.1,0.5-0.2,0.7c-0.5,1.8,0.5,3.7,2.4,4.2c0.3,0.1,0.6,0.1,0.9,0.1
		c1.5,0,2.9-1,3.3-2.5c0.1-0.4,0.2-0.9,0.3-1.4c2.7-15.1-9.3-24-14.6-27.2c-2.6-1.6-4.8-3.4-6.5-5.3c-0.4-0.5-0.9-1.1-1.2-1.6
		c12.4-38,5.6-63.8,4.4-67.7c-2.1-40.2-28.1-47.7-36-49c-2.2-0.4-4.2-1-6-1.9l-0.7-0.4c-3.9-1.9-8.2-2.7-12.5-2.3l-4.6,0.4
		c-3.1,0.3-6.2-0.1-9.1-1l-16.1-5.2c-7.3-2.4-15.2-0.5-20.5,4.8c-2,1.9-3.8,4.1-5.5,6.6c0,0,0,0,0,0c0,0,0,0,0,0
		c-0.2,0.3-5.2,7.7-7.6,14.2C190,40.8,190.9,42.7,192.7,43.4z"/>
	<path d="M76.8,258.6c0,1.9,1.5,3.4,3.4,3.4c1.9,0,3.4-1.5,3.4-3.4c0-1.9-1.5-3.4-3.4-3.4C78.3,255.2,76.8,256.7,76.8,258.6z"/>
	<circle cx="68.2" cy="253.9" r="3.4"/>
	<circle cx="215.6" cy="28.8" r="3.4"/>
</g>
</svg>
