<?xml version="1.0" encoding="iso-8859-1"?>
<!-- Generator: Adobe Illustrator 23.1.0, SVG Export Plug-In . SVG Version: 6.00 Build 0)  -->
<svg version="1.1" id="Liune-Black_expand" xmlns="http://www.w3.org/2000/svg" xmlns:xlink="http://www.w3.org/1999/xlink" x="0px"
	 y="0px" viewBox="0 0 478.546 504" style="enable-background:new 0 0 478.546 504;" xml:space="preserve">
<path d="M462.026,0H16.52C7.411,0,0,7.411,0,16.521V60.81c0,9.109,7.411,16.52,16.52,16.52h9.256v313.377H16.52
	c-9.109,0-16.52,7.411-16.52,16.521v44.289c0,9.109,7.411,16.52,16.52,16.52h152.15v16.541c0,10.71,8.714,19.424,19.424,19.424
	h102.356c10.71,0,19.424-8.714,19.424-19.424v-16.541h152.15c9.109,0,16.52-7.41,16.52-16.52v-44.289
	c0-9.109-7.411-16.521-16.52-16.521h-9.256V77.329h9.256c9.109,0,16.52-7.41,16.52-16.52V16.521C478.546,7.411,471.135,0,462.026,0z
	 M33.776,77.329h37.754v313.377H33.776V77.329z M328.356,390.706V279.962c16.722-0.412,30.201-14.132,30.201-30.951v-39.123
	c0-16.819-13.479-30.54-30.201-30.951V77.329h70.659v313.377H328.356z M284.524,374.109h-20.636v-28.681
	c0-13.573-11.042-24.616-24.616-24.616s-24.616,11.043-24.616,24.616v28.681h-20.636v-28.681c0-24.952,20.3-45.252,45.251-45.252
	s45.251,20.3,45.251,45.252V374.109z M255.889,374.109h-33.231v-28.681c0-9.162,7.454-16.616,16.616-16.616
	s16.616,7.454,16.616,16.616V374.109z M150.96,271.981c-12.667,0-22.971-10.305-22.971-22.971v-39.123
	c0-12.666,10.305-22.971,22.971-22.971h32.01c11.302,0,20.716,8.206,22.615,18.971h-41.612c-2.209,0-4,1.791-4,4s1.791,4,4,4h41.968
	v11.562h-41.968c-2.209,0-4,1.791-4,4s1.791,4,4,4h41.968v11.562h-41.968c-2.209,0-4,1.791-4,4s1.791,4,4,4h41.612
	c-1.899,10.765-11.314,18.971-22.615,18.971H150.96z M203.944,178.428c1.85-0.964,3.787-1.456,5.778-1.456
	c9.466,0,17.167,10.992,17.167,24.503c0,11.388-5.525,21.04-12.949,23.743v-15.331c0-8.993-3.856-17.099-9.997-22.762V178.428z
	 M272.961,253.011h41.612c2.209,0,4-1.791,4-4s-1.791-4-4-4h-41.968v-11.562h41.968c2.209,0,4-1.791,4-4s-1.791-4-4-4h-41.968
	v-11.562h41.968c2.209,0,4-1.791,4-4s-1.791-4-4-4h-41.612c1.899-10.765,11.314-18.971,22.615-18.971h32.01
	c12.667,0,22.971,10.305,22.971,22.971v39.123c0,12.666-10.305,22.971-22.971,22.971h-32.01
	C284.275,271.981,274.86,263.776,272.961,253.011z M274.602,187.125c-6.141,5.663-9.997,13.77-9.997,22.762v15.331
	c-7.424-2.703-12.949-12.355-12.949-23.743c0-13.511,7.701-24.503,17.167-24.503c1.992,0,3.928,0.491,5.778,1.456V187.125z
	 M320.356,178.917h-24.78c-4.631,0-9.025,1.029-12.974,2.859V77.329h37.754V178.917z M274.602,169.844
	c-1.886-0.567-3.825-0.871-5.778-0.871c-13.877,0-25.167,14.581-25.167,32.503c0,16.296,8.929,29.52,20.949,32.06v15.476
	c0,8.993,3.856,17.099,9.997,22.762v33.858c-9.408-8.361-21.782-13.454-35.329-13.454s-25.921,5.093-35.329,13.454v-33.858
	c6.141-5.663,9.997-13.77,9.997-22.762v-15.476c12.02-2.539,20.949-15.763,20.949-32.06c0-17.922-11.29-32.503-25.167-32.503
	c-1.953,0-3.892,0.304-5.778,0.871V77.329h70.658V169.844z M195.944,181.776c-3.949-1.83-8.343-2.859-12.974-2.859h-24.78V77.329
	h37.754V181.776z M150.189,178.937c-16.722,0.412-30.201,14.132-30.201,30.951v39.123c0,16.819,13.479,30.54,30.201,30.951v110.744
	H79.531V77.329h70.659V178.937z M16.52,460.035c-4.698,0-8.52-3.822-8.52-8.52v-44.289c0-4.698,3.822-8.521,8.52-8.521h152.15
	v61.329H16.52z M168.9,390.706h-10.711V279.981h24.78c4.631,0,9.025-1.029,12.974-2.859v37.407
	c-6.237,8.721-9.922,19.384-9.922,30.899v28.795C177.219,375.162,170.177,382.008,168.9,390.706z M301.875,484.576
	c0,6.299-5.125,11.424-11.424,11.424H188.095c-6.299,0-11.424-5.125-11.424-11.424v-91.043c0-6.299,5.125-11.424,11.424-11.424
	h102.356c6.299,0,11.424,5.125,11.424,11.424V484.576z M292.524,374.224v-28.795c0-11.515-3.686-22.178-9.922-30.899v-37.407
	c3.949,1.83,8.343,2.859,12.974,2.859h24.78v110.725h-10.711C308.368,382.008,301.326,375.162,292.524,374.224z M470.546,407.227
	v44.289c0,4.697-3.822,8.52-8.52,8.52h-152.15v-61.329h152.15C466.724,398.706,470.546,402.528,470.546,407.227z M444.77,390.706
	h-37.754V77.329h37.754V390.706z M470.546,60.81c0,4.697-3.822,8.52-8.52,8.52H16.52c-4.698,0-8.52-3.822-8.52-8.52V16.521
	C8,11.822,11.822,8,16.52,8h445.506c4.698,0,8.52,3.822,8.52,8.521V60.81z M243.273,439.023v-22.644c0-2.209-1.791-4-4-4
	s-4,1.791-4,4v22.644c-9.423,1.867-16.552,10.191-16.552,20.154c0,11.332,9.22,20.552,20.552,20.552s20.552-9.22,20.552-20.552
	C259.825,449.215,252.696,440.891,243.273,439.023z M239.273,471.729c-6.921,0-12.552-5.631-12.552-12.552
	s5.631-12.552,12.552-12.552s12.552,5.631,12.552,12.552S246.194,471.729,239.273,471.729z"/>
</svg>
