<svg id="Layer_1" data-name="Layer 1" xmlns="http://www.w3.org/2000/svg" viewBox="0 0 512 512"><title>Counseling</title><path d="M321.578,131.212h28.944a6.071,6.071,0,0,1,6.058,6.058,10.351,10.351,0,1,0,20.7,0,6.071,6.071,0,0,1,6.059-6.058H412.26v-28.92a6.072,6.072,0,0,1,6.058-6.058h.1a10.386,10.386,0,0,0,10.376-10.351,10.343,10.343,0,0,0-10.376-10.351,6.379,6.379,0,0,1-1.373-.172,6.018,6.018,0,0,1-4.759-5.814v-.073h-.024V40.53H321.578V69.473a6.051,6.051,0,0,1-6.034,6.059,10.351,10.351,0,1,0,0,20.7,6.051,6.051,0,0,1,6.034,6.058Zm-12.093-80.16a239.251,239.251,0,0,0-58.721-5.445c-21.707.589-42.483,3.949-58.843,9.787C174.9,61.477,160.279,69.866,148.579,81.64,136.9,93.413,128,108.67,122.333,128.562c-13.417,47.1-10.13,53.3-7.53,58.206,2.478,4.71,4.562,8.659,1.08,22.444-2.871,11.356-10.254,20.849-17.514,30.2-7.849,10.056-15.526,19.941-15.159,30.219,2.4,1.446,5.74,2.967,9.076,4.513a107.968,107.968,0,0,1,11.062,5.641,6.051,6.051,0,0,1,2.821,4.489c1.889,10.817-.908,16.532-3.262,21.266-1.643,3.336-2.821,5.74,4.734,14.129a6.048,6.048,0,0,1-.442,8.536c-.123.1-.221.2-.319.269-3.532,3.165-2.747,4.219-1.619,5.715,2.282,3.042,5,6.624,5.912,12.584.76,5.077-.025,9.492-.859,14.2-.833,4.685-1.716,9.688-.588,15.207,2.4,11.774,24.945,9.591,41.281,8.021,2.821-.294,5.077-.515,5.3-.54,14.57-1.251,24.259-.1,31.4,5.029,7.26,5.2,10.964,13.76,13.515,27.3,4.807,25.411,1.251,36.621-4.611,55.14l-.1.294,182.271-1.275c-1.644-4.833-3.533-10.13-5.5-15.674-12.338-34.56-28.134-78.883-16.851-114.155,3.924-12.338,12.142-24.382,20.065-36.032,4.1-5.986,8.094-11.872,11.209-17.342,13.883-24.382,23.2-50.5,26.957-76.407,3.335-23.1,2.207-45.991-4.072-67.208H388.565a22.624,22.624,0,0,1-5.739,9.837,22.5,22.5,0,0,1-31.789,0,22.16,22.16,0,0,1-5.74-9.837H315.544a6.041,6.041,0,0,1-6.059-6.058V107.517a22.452,22.452,0,0,1-9.835-37.529,22.016,22.016,0,0,1,9.835-5.739Zm113.15,90.486c6.4,22.493,7.482,46.531,4,70.715-3.974,27.374-13.785,54.969-28.4,80.65-3.434,6.01-7.555,12.043-11.75,18.2-7.456,10.964-15.183,22.3-18.568,32.844-10.032,31.372,5.029,73.585,16.778,106.5,3.017,8.488,5.838,16.361,8.07,23.768a5.96,5.96,0,0,1,.319,1.864,6.03,6.03,0,0,1-6.01,6.059l-198.68,1.423a6.133,6.133,0,0,1-1.865-.27,6.024,6.024,0,0,1-4.022-7.53c1.422-4.685,2.011-6.525,2.551-8.266,5.322-16.753,8.535-26.908,4.292-49.278-1.962-10.375-4.391-16.655-8.683-19.745-4.391-3.14-11.675-3.754-23.3-2.747-3.581.318-4.39.392-5.224.49C131.262,398.228,102.49,401,97.9,378.581c-1.619-7.849-.515-13.981.49-19.7.663-3.7,1.276-7.187.785-10.3-.441-2.968-2.133-5.2-3.556-7.114-4.464-5.911-7.726-10.228-.687-18.151-8.708-11.258-6.206-16.335-2.845-23.13a19.883,19.883,0,0,0,2.5-11.5c-2.208-1.178-4.783-2.355-7.359-3.556-4.906-2.257-9.762-4.514-13.2-7.138a5.883,5.883,0,0,1-2.5-3.974c-2.674-16.409,7.187-29.091,17.268-42.041,6.5-8.365,13.1-16.852,15.355-25.706,2.354-9.321,1.251-11.406-.049-13.859-3.606-6.819-8.144-15.428,6.6-67.159,6.23-21.929,16.189-38.9,29.311-52.123,13.1-13.172,29.214-22.492,47.831-29.139,17.489-6.255,39.589-9.837,62.621-10.45a254.969,254.969,0,0,1,59.015,5.1V34.495a6.041,6.041,0,0,1,6.059-6.058H418.318a6.041,6.041,0,0,1,6.059,6.058V64.2a22.468,22.468,0,0,1,0,43.341V137.27a6.065,6.065,0,0,1-1.742,4.268ZM263.151,178.674v-19.23a19.982,19.982,0,0,1-8.315-5.053,20.367,20.367,0,0,1,8.315-33.8V101.36H238.77a6.071,6.071,0,0,1-6.058-6.058,8.11,8.11,0,0,0-2.405-5.814,8.2,8.2,0,0,0-5.812-2.4,8.247,8.247,0,0,0-8.242,8.217,6.051,6.051,0,0,1-6.034,6.058H185.813v77.314h24.406a6.051,6.051,0,0,1,6.034,6.058,8.23,8.23,0,1,0,16.459,0,6.071,6.071,0,0,1,6.058-6.058Zm-89.43,6.058V95.3a6.051,6.051,0,0,1,6.033-6.059h25.314a20.365,20.365,0,0,1,38.853,0H269.21a6.072,6.072,0,0,1,6.059,6.059v30.44a6.072,6.072,0,0,1-6.059,6.058,8.217,8.217,0,1,0,0,16.434,6.072,6.072,0,0,1,6.059,6.059v24.381H299.65a6.072,6.072,0,0,1,6.058,6.058,8.214,8.214,0,0,0,2.4,5.839,8.3,8.3,0,0,0,5.813,2.4,8.247,8.247,0,0,0,8.242-8.242,6.051,6.051,0,0,1,6.034-6.058h30.464a6.051,6.051,0,0,1,6.034,6.058v89.456a6.051,6.051,0,0,1-6.034,6.059H333.352a20.365,20.365,0,0,1-38.853,0H179.754a6.051,6.051,0,0,1-6.033-6.059V248.874a20.333,20.333,0,0,1-8.34-33.8,20.438,20.438,0,0,1,8.34-5.028Zm101.548,83.4H299.65a6.072,6.072,0,0,1,6.058,6.059,8.23,8.23,0,0,0,16.459,0,6.051,6.051,0,0,1,6.034-6.059h24.4V190.791H333.352a20.353,20.353,0,0,1-38.853,0h-19.23v24.381a6.056,6.056,0,0,1-6.059,6.059,8.229,8.229,0,1,0,0,16.458,6.072,6.072,0,0,1,6.059,6.059Zm-89.456,0h77.338V248.874a19.932,19.932,0,0,1-8.315-5.028,20.338,20.338,0,0,1,8.315-33.8V190.791h-19.23a20.49,20.49,0,0,1-5.053,8.34,20.326,20.326,0,0,1-33.8-8.34H185.813v24.381a6.04,6.04,0,0,1-6.059,6.059,8.229,8.229,0,1,0,0,16.458,6.056,6.056,0,0,1,6.059,6.059Z"/></svg>