<?xml version="1.0" encoding="utf-8"?>
<!-- Generator: Adobe Illustrator 26.5.3, SVG Export Plug-In . SVG Version: 6.00 Build 0)  -->
<svg version="1.1" id="Layer_1" xmlns="http://www.w3.org/2000/svg" xmlns:xlink="http://www.w3.org/1999/xlink" x="0px" y="0px"
	 viewBox="0 0 2000 2000" style="enable-background:new 0 0 2000 2000;" xml:space="preserve">
<g>
	<path d="M1594,872.3c-11.5-38.2-17-77.1-19-117.1c-2.8-54.6-3.2-110.3-15.1-163.1c-14.3-64.1-37-127-86.3-175.1
		c-10.4-10.1-21.7-20.5-34.6-26.7c-33.5-16.3-56.6-43.3-78.7-71.5c-25.8-32.9-59.5-55.8-94.7-76.8c-35.2-21-74.3-31.5-114.2-39.5
		c-22.3-4.5-44.1-11.8-66.5-16.2c-9.6-1.9-19.3-3.1-29.1-4.4c-4.5-0.6-9-1.3-13.4-2h0c-23.5-1.5-64.3,1.6-68.4,1.9
		c-0.1,0-0.2,0-0.3,0c0,0-0.1,0-0.1,0c-4.5,0.5-9,1-13.4,1.7c-36.2,5.4-73.5,7.1-108.3,17.4c-64.5,18.9-127.1,43.8-180.8,86.3
		c-27,21.4-55.7,41.2-73.5,71.9c-9.1,15.6-17.9,31.5-25.2,48.1c-20.6,46.7-47.9,87.7-87.9,120.9c-70.1,58.3-95.6,135.2-83.2,224.3
		c4.2,30.6,13.7,60.4,21.5,90.5c13.6,52.5,27.9,104.4,27.2,159.9c-0.6,45.5,16.6,86.1,55.1,114.6c3.8,2.8,7.1,6.2,10.6,9.5
		c18.7,17.9,30.1,39.4,31.3,65.7c1.2,27.5,1.3,55.2,3.1,82.7c2.2,33.4,22.4,58.6,54.3,68.2c11.4,3.5,23.5,4.9,35.5,6.1
		c29.8,3.1,39.7,9.9,43.6,39.5c3.3,24.6,5.8,50.3,2.2,74.6c-7.3,49.5-6.9,98.8-4.3,148.3c1.3,24,7.6,46.7,20.6,67.3
		c14.9,23.6,39.9,31.2,65.1,19.5c19.6-9.1,29-26.8,32-46c5-31.8,7.2-64.1,9.4-96.2c1.6-23.6,0.7-47.4,2.1-71.1
		c0.9-15.7,4.3-31.2,20-39.7c9.5-5.1,14.2-2.8,16.3,7.8c1.2,5.9,2.3,11.9,2.7,17.9c1.7,25.8,2,51.7,5.1,77.3
		c2.7,22.4,10.6,43.5,34.6,51.9c27.4,9.5,51.7,2.9,69.4-20.1c10.3-13.4,18.2-28.9,25.7-44.2c8.7-17.7,14-37.2,23.7-54.3
		c13.5-23.8,43.4-25.1,60.6-4c5.6,6.9,11.3,14.6,14.2,23c18.8,55.3,29.2,111.2,17,170.1c-6.6,31.9-9.6,64.7-11.6,97.3
		c-1.4,23.7,10.2,39.2,31,46.8c0,0,29.5,7.6,41.3,4.5c0,0,0,0,0,0c0.5-0.2,1-0.3,1.5-0.5c38-13.1,51.5-42.8,54.6-76.7
		c4.4-48,4.3-96.4,6.3-144.6c1.2-27.1,2.6-54.1,4.4-81.2c0.4-6.2,3.2-12.3,5.6-21.3c4.4,6.7,7.5,10.7,9.8,15.1
		c10.6,19.5,28.3,27,49,28.8c15.6,1.3,27.9-6,34.2-20.3c5.7-13,9.6-26.9,16.1-39.5c9.1-17.5,18.9-34.7,30-50.9
		c16-23.4,27-48.1,25.3-77c-1.3-22.4,6.8-39.3,24.9-53.4c24.6-19.1,39-45.5,45.6-76.1c2.3-10.5,5.4-20.9,7.1-31.5
		c7.1-43.9,31.2-79.6,54.4-116.1c21.9-34.4,43.1-69.6,61.1-106.1C1605.6,938,1603.8,904.7,1594,872.3z M1540.2,1000.8
		c-18.3,27.2-35.3,55.2-54.1,82c-25.4,36.2-37.9,77.1-46.2,119.6c-6.3,31.9-19.3,58.5-46.5,79.1c-21.6,16.4-30,41.8-27.6,69.3
		c1.8,20.6-4.3,39.6-16.5,54.4c-21.6,26.3-35,56.1-46.8,87.3c-2.1,5.5-8.3,14.7-9.8,14.2c-8-2.7-16.2-7-22.2-12.8
		c-6-5.8-9.4-14.4-14.3-21.4c-14.9-21.4-37.4-19.5-48.6,3.8c-10.8,22.6-15.5,46.6-16.1,71.3c-0.3,15.2-0.2,30.6,0.9,45.7
		c1.7,23.5-0.4,47.1-1.7,70.6c-1.4,24.6-2.9,49.1-5.3,73.6c-1.3,12.8-6.9,25.8-13.4,37.1c-8.3,14.6-30.8,19.2-44.2,9.4
		c-4.8-3.5-8.5-12.6-8-18.7c2.7-29.6,4.9-59.4,11.1-88.3c14.2-66.3,2.8-129.6-20.4-191.3c-5.6-15-17.8-28.9-30-39.8
		c-28.3-25.1-78.3-16.5-98.1,17.2c-11.4,19.5-17.7,41.9-27.8,62.3c-7,14-15.5,27.5-25.1,39.9c-9.7,12.6-38.2,10.7-41.2-11.2
		c-1.7-12.8-3.4-25.5-4.6-38.3c-2.2-23.1-2.6-46.5-6.2-69.4c-5.4-33.9-36.3-46-65.4-27c-24.5,16-32.6,40.5-34,67.7
		c-1.2,23.7,0.1,47.5-1.5,71.1c-2.1,30-5.7,59.8-9.3,89.7c-0.6,5.3-3.7,10.6-6.8,15.2c-8.1,12.4-24.5,13.3-30.5,0
		c-7.7-16.9-14.9-35.3-16.5-53.6c-4-46.8-2.8-93.6,3.3-140.6c4.8-37.4,5-75.4-10.1-112.1c-10.3-25.1-29.9-34-53.8-37.9
		c-11-1.8-22.5-1.5-33.3-4.1c-25.2-6-37.3-20.8-38.5-46.7c-1.2-24.1-2.2-48.3-1.9-72.4c0.6-43.5-19.2-76.3-52.4-101.5
		c-36.4-27.7-47.2-65.8-45.9-108.4c1.4-45.8-11.3-88.7-22.3-132.1c-9-35.5-20.5-70.6-25.9-106.7c-11.4-76.5,11.1-142.6,70.5-193.7
		c37.4-32.2,68.9-67.9,88.9-114c12.4-28.7,28.9-55.8,45.6-82.4c23-36.5,60.5-56,97-75.2c71.7-37.6,148.1-58.6,228.9-67.7
		c65.7-7.5,127.3,6.4,189.9,21.1c36.8,8.7,72.9,19.2,104.7,39.2c27.9,17.5,54.8,36.8,76.5,62.9c18.9,22.7,40.7,43.1,61.3,64.3
		c2.6,2.7,6.2,4.9,9.6,6.4c46.6,21.1,74,59.4,93.2,104.6c10.1,23.8,18.7,48.2,27,72.7c13.2,39.1,9.1,80.1,12.6,120.4
		c5.1,58.7,4.6,118.3,24.7,174.8C1579.4,925.2,1565.1,963.8,1540.2,1000.8z"/>
	<path d="M597.3,880.2c-8.7-0.8-17.6-1.4-26.6-2.4c-10.6-1.1-17.2-7.1-16.2-17.8c1-10.9,8.7-15.5,19.2-14.3
		c29.5,3.2,59.1,6.6,88.5,10.2c10.4,1.3,17,7.5,15.6,18.4c-1.5,10.9-9.5,14.8-19.9,13.6c-8.4-1-16.8-2.5-25.7-3.9
		c-8,27.4,1.2,49.3,18.4,68.4c9.5,10.5,20.2,20.1,31.2,29c35.5,28.4,53.6,68.2,70.2,108.4c13.5,32.6,38.3,53.4,69.8,62.1
		c53.4,14.9,101,39.1,143.6,73.8c23.5,19.1,49.1,25.5,79.6,20.5c19.1-3.1,40.4-3,58.8,2.3c32,9.2,60.1-7.1,73.5-34.7
		c11.6-24,24.3-47.7,34.3-72.4c16.8-41.3,46.4-69.2,84.8-90.3c19.8-10.9,38.4-24.9,55.3-40.1c27.2-24.4,37.5-57.6,43.7-94.1
		c-7.7,2-14,4.3-20.6,5.1c-8.8,1.1-16.6-3.4-17.2-11.8c-0.4-5.9,3.6-14.7,8.4-17.8c22.5-14.2,46-26.8,69.1-40
		c3.7-2.1,7.4-4.7,11.4-6c8.4-2.9,15.6-0.6,19.8,7.4c4.2,8,2.7,17-5.1,20.3c-25.9,10.9-33.6,29.5-36.7,57.3
		c-6.3,56.3-35.7,100.7-85,130.7c-16.9,10.3-33.3,21.6-50.4,31.5c-25.1,14.5-37,38.8-48.7,63.5c-11.8,24.9-23.7,49.8-36.1,74.4
		c-20,39.5-63.4,61.6-108.3,48.4c-18.1-5.4-39.4-3.1-58.8-0.5c-32.6,4.3-60.3-5.1-85.9-24c-14.6-10.7-29-21.6-43.9-31.9
		c-27.3-18.9-58.5-28.7-89.8-38.6c-47.6-15-82.7-44.4-100.5-92.7c-13.6-36.9-33.6-69.4-65.4-94.3c-27.7-21.6-50-47.9-54.3-84.8
		C596.3,902.5,597.3,891.7,597.3,880.2z"/>
	<path d="M907.1,517.5c-3.7,15.4-6.5,31.1-11.6,46c-3.5,10.5-3.6,19.2,0.8,29.6c23.1,54,20,108.8-0.5,162.4
		c-7.5,19.5-11.4,36.9-5.9,57.3c3,11.2,3.8,24.1,1.6,35.5c-3.5,18.4-15.2,26.4-34,28c-16,1.3-35-8.3-39.6-23.5
		c-4.1-13.6-4.1-28.5-5.8-42.8c-0.5-4.5,0.7-9.9-1.4-13.6c-19.1-34.2-19.9-69.3-4.2-104.3c9-20.1,15-38.7,7.6-61.2
		c-7.2-21.8-0.8-44.3,3.1-66.4c1.5-8.2-0.5-17.5-2.5-25.8c-4.3-17.4-11.2-34.4-14.4-52c-3.1-16.9,0.6-34.4,17.1-42.7
		c18.3-9.3,38.3-10.6,56.3,2.9C897.2,464.3,905.4,488.7,907.1,517.5z"/>
	<path d="M1237.6,611.2c0,21.9-2.7,44.3,0.6,65.7c6.6,43.8-6.4,82.2-25.3,120.3c-10.6,21.3-8.4,44.1-4.6,67.1
		c3.1,19.3,5.1,39.2,4.1,58.6c-0.8,15.8-14.3,25.9-29.7,27.7c-14.1,1.7-26-5-32.4-20.2c-4.8-11.4-7.9-23.5-11.4-35.4
		c-4.8-16-7.2-33.1-14.4-48c-14.3-29.7-11.3-58,3.2-85.5c12.9-24.2,13-48.7,10.2-75.1c-2.3-21.9,0.4-44.5,3-66.5
		c1.4-11.7,2.8-22.4-1.7-33.9c-3.8-9.8-6.9-20.7-7.1-31.1c-0.5-27.4,30.5-47.1,53.9-32.2c32.5,20.7,51.6,49.6,54.9,88.1
		C1239.8,610.9,1238.7,611,1237.6,611.2z"/>
</g>
</svg>
