<svg id="Line" xmlns="http://www.w3.org/2000/svg" viewBox="0 0 64 64"><defs><style>.cls-1{fill:#231f20;}</style></defs><title>1</title><path class="cls-1" d="M59.97852,10.43066a1.00819,1.00819,0,0,0-1.14163-1.19333,32.28674,32.28674,0,0,0-8.8632,3.29435A7.95741,7.95741,0,0,0,42.39014,6.9502H7.7002A3.704,3.704,0,0,0,4,10.6499V12.71a3.00328,3.00328,0,0,0,3,3h5.97021v34.5332c-.21275,3.32465,2.815,7.00421,5.76969,6.8065.00948.01412,35.40448-.00993,35.42027.00018A5.07575,5.07575,0,0,0,59.23,51.98V50.3501a2.002,2.002,0,0,0-2-2H50.6814a42.94165,42.94165,0,0,1-.3313-5.01027V27.0451A29.578,29.578,0,0,0,59.97852,10.43066ZM48.87891,25.78375a30.97846,30.97846,0,0,1-9.80348,5.61277L52.98,17.43115a1.00008,1.00008,0,0,0-1.417-1.41108L37.93115,29.71149c3.2957-10.57613,11.54912-15.89792,19.73-18.16668A27.54911,27.54911,0,0,1,48.87891,25.78375ZM7,13.71a1.0013,1.0013,0,0,1-1-1V10.6499A1.702,1.702,0,0,1,7.7002,8.9502,5.29715,5.29715,0,0,1,12.94529,13.71ZM57.23,51.98a3.07308,3.07308,0,0,1-3.06982,3.06982H22.55176c.98456-1.23484.84083-3.20738.828-4.69974l33.8502,0Zm-8.69482-4.937.13556,1.30713H23.37988a2.002,2.002,0,0,0-2,2c-.03139,1.17059.2616,3.0581-.78228,3.92817-2.56371,2.34838-5.8439-1.10591-5.62721-4.03513L14.97021,14.71a7.28845,7.28845,0,0,0-2.2784-5.75976H42.39014A5.93517,5.93517,0,0,1,48.163,13.58112,27.78819,27.78819,0,0,0,35.20636,32.44818L32.14307,35.5249a1.00008,1.00008,0,0,0,1.417,1.41109l2.66109-2.67275a32.91509,32.91509,0,0,0,12.12894-5.6156C48.41238,31.45938,48.18451,44.49621,48.53516,47.043Z"/><path class="cls-1" d="M19.91406,22.51514H34.56543a1.0002,1.0002,0,0,0-.00007-2H19.91406A1.0002,1.0002,0,0,0,19.91406,22.51514Z"/><path class="cls-1" d="M19.91406,28.1958h12.6294a1.00019,1.00019,0,0,0-.00007-2H19.91406A1.0002,1.0002,0,0,0,19.91406,28.1958Z"/><path class="cls-1" d="M19.91406,33.876h8.57617a1.00019,1.00019,0,0,0-.00006-2H19.91406A1.00019,1.00019,0,0,0,19.91406,33.876Z"/><path class="cls-1" d="M19.91406,39.55664H30.45654a1.00019,1.00019,0,0,0-.00006-2H19.91406A1.00019,1.00019,0,0,0,19.91406,39.55664Z"/><path class="cls-1" d="M44.54346,43.23682H19.91406a1.0002,1.0002,0,0,0,.00007,2H44.54346A1.0002,1.0002,0,0,0,44.54346,43.23682Z"/></svg>