<?xml version="1.0" encoding="utf-8"?>
<!-- Generator: Adobe Illustrator 22.0.1, SVG Export Plug-In . SVG Version: 6.00 Build 0)  -->
<svg version="1.1" id="Layer_1" xmlns="http://www.w3.org/2000/svg" xmlns:xlink="http://www.w3.org/1999/xlink" x="0px" y="0px"
	 viewBox="0 0 105 105" style="enable-background:new 0 0 105 105;" xml:space="preserve">
<g>
	<g>
		<g>
			<g>
				<path d="M11.8593931,91.2529297c-3.972168,0-7.2036133-4.6791992-7.2036133-10.4306641
					s3.2314453-10.4306641,7.2036133-10.4306641s7.2041006,4.6791992,7.2041006,10.4306641
					S15.8315611,91.2529297,11.8593931,91.2529297z M11.8593931,71.8916016c-3.1450195,0-5.7036133,4.0063477-5.7036133,8.9306641
					s2.5585938,8.9306641,5.7036133,8.9306641s5.7041006-4.0063477,5.7041006-8.9306641
					S15.0044127,71.8916016,11.8593931,71.8916016z"/>
			</g>
			<g>
				<path d="M11.8593931,85.6848145c-1.9580078,0-3.4916992-2.1359863-3.4916992-4.8625488s1.5336914-4.8625488,3.4916992-4.8625488
					s3.4916992,2.1359863,3.4916992,4.8625488S13.8174009,85.6848145,11.8593931,85.6848145z M11.8593931,77.4597168
					c-1.0795898,0-1.9916992,1.5397949-1.9916992,3.3625488s0.9121094,3.3625488,1.9916992,3.3625488
					s1.9916992-1.5397949,1.9916992-3.3625488S12.938983,77.4597168,11.8593931,77.4597168z"/>
			</g>
			<g>
				<path d="M12.0117369,91.251709l-0.2011719-0.0119629c-0.4033203-0.0275879-0.7119141-0.369873-0.6982422-0.7739258
					c0.0146484-0.4216309,0.3979492-0.7246094,0.8017578-0.7243652c0.0703125,0,0.140625-0.0004883,0.2109375-0.0068359
					c0.3969727-0.0375977,0.7597656,0.2526855,0.8105469,0.6530762c0.050293,0.4003906-0.2246094,0.7687988-0.6230469,0.8342285
					C12.2085142,91.2390137,12.1098814,91.251709,12.0117369,91.251709z"/>
			</g>
			<g>
				<path d="M16.201189,88.7316895c-0.1640625,0-0.3295889-0.0537109-0.4672842-0.1638184
					c-0.3139648-0.2502441-0.375-0.7033691-0.1381836-1.027832c1.2431631-1.7058105,1.9560537-4.1582031,1.9560537-6.7282715
					c0-4.9240723-2.5527334-8.9301758-5.6899405-8.9301758c-0.4140625,0-0.75-0.3356934-0.75-0.75s0.3359375-0.75,0.75-0.75
					h11.159667c0.2109375,0,0.4121094,0.0888672,0.5541992,0.2446289s0.2119141,0.3642578,0.1923828,0.5742188
					c-0.8876953,9.6179199-4.1865234,14.5705566-6.8208008,17.0393066
					c-0.0766602,0.1069336-0.1245117,0.1706543-0.1801758,0.2348633
					C16.6191578,88.6442871,16.41115,88.7316895,16.201189,88.7316895z M15.5732603,71.8815918
					c2.0834951,1.8288574,3.4785147,5.1474609,3.4785147,8.9301758c0,0.8706055-0.074707,1.7312012-0.2182617,2.5627441
					c1.472168-2.5871582,2.7841797-6.2722168,3.3583984-11.4929199H15.5732603z"/>
			</g>
			<g>
				<path d="M15.6299009,38.3220215c-0.3525391,0-0.6669922-0.25-0.7358398-0.6091309l-0.2543945-1.3269043
					c-0.0776367-0.4069824,0.1889648-0.7998047,0.5957031-0.8776855c0.4052734-0.0791016,0.7998037,0.1887207,0.8779287,0.595459
					l0.2543945,1.3269043c0.0776367,0.4067383-0.1889648,0.7998047-0.5957022,0.8776855
					C15.7246275,38.317627,15.6767759,38.3220215,15.6299009,38.3220215z"/>
			</g>
			<g>
				<path d="M18.970232,60.3083496c-0.3852539,0-0.7128906-0.295166-0.7460938-0.6862793
					c-0.5673828-6.6506348-1.6674805-13.0437012-2.6689444-18.4204102
					c-0.0756836-0.4072266,0.1928711-0.7988281,0.6000967-0.8747559c0.4057617-0.0739746,0.7983398,0.1923828,0.8745117,0.5998535
					c1.0083008,5.4130859,2.1162109,11.8520508,2.6884766,18.5678711c0.0356445,0.4125977-0.2705078,0.7758789-0.6831055,0.8110352
					C19.0132008,60.307373,18.9917164,60.3083496,18.970232,60.3083496z"/>
			</g>
			<g>
				<path d="M30.4516773,95.986084c-0.0083008,0-0.0166016,0-0.0244141-0.0004883l-1.9140625-0.0629883
					c-0.4140625-0.013916-0.7382813-0.3608398-0.7241211-0.7749023s0.3618164-0.7348633,0.7749023-0.7241211l1.9111328,0.0629883
					c0.4140625,0.0131836,0.7387695,0.3596191,0.7255859,0.7736816
					C31.1875172,95.6660156,30.8545094,95.986084,30.4516773,95.986084z"/>
			</g>
			<g>
				<path d="M51.2710152,96.4401855c-0.0024414,0-0.0043945,0-0.0068359,0
					c-4.9951172-0.0458984-10.527832-0.1542969-16.4438477-0.3217773c-0.4135742-0.0117188-0.7397461-0.3569336-0.7280273-0.7709961
					s0.3725586-0.7397461,0.7709961-0.7285156c5.90625,0.1674805,11.4287109,0.2753906,16.4145508,0.3212891
					c0.4140625,0.0039063,0.7470703,0.3427734,0.7431641,0.7568359
					C52.0171089,96.1088867,51.682148,96.4401855,51.2710152,96.4401855z"/>
			</g>
			<g>
				<path d="M16.3818531,88.4916992c-0.2011719,0-0.4023428-0.0805664-0.5498037-0.2399902
					c-0.2817383-0.3037109-0.2636719-0.7783203,0.0400391-1.0600586c2.4511709-2.2729492,5.5517569-6.9165039,6.4028311-16.1286621
					c0.3251953-3.5263672,0.3017578-7.4885254-0.0703125-11.7766113c-0.7192383-8.439209-2.2709961-16.5209961-3.6401367-23.651123
					c-2.4453125-12.7321777-4.3759756-22.7885742-0.3642578-28.0961914
					c1.7099609-2.2619629,4.3613281-3.5195313,8.1064453-3.8444824c0.4057617-0.0356445,0.7763672,0.269043,0.8120117,0.6821289
					c0.0361328,0.4128418-0.2695313,0.7763672-0.6821289,0.8122559c-3.2978516,0.2861328-5.6005859,1.3508301-7.0395508,3.2546387
					c-3.6098623,4.7753906-1.734375,14.5427246,0.6401367,26.9086914
					c1.3764648,7.1665039,2.9360352,15.2890625,3.6616211,23.8056641c0.3798828,4.3757324,0.4033203,8.4277344,0.0693359,12.0427246
					c-0.894043,9.6850586-4.2329102,14.6398926-6.8764648,17.0910645
					C16.7475758,88.4255371,16.5644703,88.4916992,16.3818531,88.4916992z"/>
			</g>
			<g>
				<path d="M89.1811676,70.3120117c-0.3320313,0-0.6352539-0.222168-0.7246094-0.5581055
					c-0.9643555-3.6411133-2.3330078-8.0944824-4.3061523-14.0151367c-0.6513672-1.9436035-1.2539063-3.8894043-1.7905273-5.7824707
					c-0.112793-0.3986816,0.1186523-0.8132324,0.5170898-0.9262695c0.3950195-0.1120605,0.8129883,0.1184082,0.9262695,0.5170898
					c0.5302734,1.8706055,1.1254883,3.7937012,1.7695313,5.7163086c1.9838867,5.9521484,3.3608398,10.434082,4.3339844,14.1062012
					c0.105957,0.4003906-0.1328125,0.8110352-0.5332031,0.9172363
					C89.3095856,70.3037109,89.2446442,70.3120117,89.1811676,70.3120117z"/>
			</g>
			<g>
				<path d="M56.6015816,92.4624023c-5.5986328,0-12.0571289-0.09375-19.3295898-0.2810059
					c-0.1376953-0.0012207-0.2856445-0.0004883-0.4438477-0.0117188
					c-7.7963886-0.2050781-16.1010761-0.5117188-24.6489258-0.9094238l-0.2021484-0.0092773
					c-0.4072266-0.019043-0.7592773-0.359375-0.75-0.7666016c0.0092773-0.4074707,0.3076172-0.732666,0.7148438-0.732666
					l0.3071289,0.0102539c8.538085,0.3972168,16.8320313,0.7033691,24.652832,0.9099121
					c0.1552734,0.010498,0.2719727,0.0092773,0.3896484,0.0097656c13.0961914,0.3374023,23.5341797,0.3713379,31.0434532,0.1005859
					c0.3984375-0.0166016,0.7617188,0.3085938,0.7763672,0.7224121c0.0151367,0.4140625-0.3085938,0.7617188-0.7226563,0.7766113
					C65.0322418,92.4020996,61.0937691,92.4624023,56.6015816,92.4624023z"/>
			</g>
			<g>
				<path d="M11.8632994,91.2426758h-0.3466797c-0.4140625,0-0.75-0.3356934-0.75-0.75
					c0-0.2243652,0.1005859-0.4492188,0.2739258-0.5915527c0.1733398-0.1428223,0.4013672-0.2116699,0.621582-0.1687012
					c0.0327148,0.0065918,0.0629883,0.0092773,0.0927734,0.0102539h0.1083984c0.4140625,0,0.75,0.3356934,0.75,0.75
					S12.2773619,91.2426758,11.8632994,91.2426758z"/>
			</g>
			<g>
				<path d="M80.7714996,23.4516602H26.3715992c-0.4135742,0-0.7495117-0.3352051-0.75-0.7487793
					c-0.0004883-0.4138184,0.3339844-0.75,0.7475586-0.7512207c2.9404297-0.0087891,5.3325195-3.7724609,5.3325195-8.3898926
					c0-4.6064453-2.3920898-8.3613281-5.3325195-8.3701172c-0.4130859-0.0012207-0.7475586-0.3366699-0.7475586-0.75
					c0-0.4143066,0.3359375-0.7600098,0.75-0.7600098h61.7299805c2.9326172,0,5.2299805,4.3398438,5.2299805,9.880127
					c0,0.4572754-0.0205078,0.9147949-0.0517578,1.3618164c-0.0288086,0.4130859-0.3916016,0.7226563-0.7998047,0.6965332
					c-0.4130859-0.0288086-0.7250977-0.3869629-0.6962891-0.8000488c0.0283203-0.4133301,0.0478516-0.8356934,0.0478516-1.2583008
					c0-4.9384766-1.9658203-8.380127-3.7299805-8.380127H29.9692554c1.9389648,1.7453613,3.2324238,4.8508301,3.2324238,8.380127
					c0,3.5314941-1.290041,6.6396484-3.2246113,8.3898926h50.7944336c0.4140625,0,0.75,0.3356934,0.75,0.75
					S81.1855621,23.4516602,80.7714996,23.4516602z"/>
			</g>
			<g>
				<path d="M26.3715992,23.4538574c-3.7817383,0-6.8476563-4.4353027-6.8476563-9.887207
					c0-5.4455566,3.065918-9.8757324,6.8339844-9.8757324c3.7807617,0.012207,6.8452168,4.442627,6.8452168,9.8757324
					C33.2031441,19.0056152,30.138689,23.440918,26.3715992,23.4538574z M26.3667164,5.190918
					c-2.9501953,0-5.3427734,3.7573242-5.3427734,8.3757324c0,4.6247559,2.3925781,8.387207,5.3339844,8.387207
					c2.9511719-0.0100098,5.3452148-3.7724609,5.3452148-8.387207C31.7031422,8.9577637,29.3090992,5.2004395,26.3667164,5.190918z"
					/>
			</g>
			<g>
				<path d="M26.3603687,18.8771973c-2.1245117,0-3.7890625-2.3320313-3.7890625-5.3088379
					c0-2.9770508,1.6645508-5.309082,3.7890625-5.309082c2.125,0,3.7895508,2.3320313,3.7895508,5.309082
					C30.1499195,16.545166,28.4853687,18.8771973,26.3603687,18.8771973z M26.3603687,9.7592773
					c-1.2407227,0-2.2890625,1.7443848-2.2890625,3.809082s1.0483398,3.8088379,2.2890625,3.8088379
					c1.2412109,0,2.2895508-1.7441406,2.2895508-3.8088379S27.6015797,9.7592773,26.3603687,9.7592773z"/>
			</g>
		</g>
		<g>
			<g>
				<path d="M36.0952339,33.0981445c-0.4135742,0-0.7495117-0.3352051-0.75-0.7490234
					c-0.0004883-0.4143066,0.3349609-0.7504883,0.7490234-0.7509766c5.0556641-0.0061035,10.2353516-1.0734863,15.2441406-2.105957
					c6.6113281-1.3623047,13.4443321-2.770752,20.2348595-1.8276367c0.4101563,0.0571289,0.6962891,0.4360352,0.6391602,0.8461914
					c-0.0566406,0.4106445-0.4350586,0.6972656-0.8461914,0.6396484c-6.5307617-0.907959-13.2382774,0.4741211-19.7250938,1.8110352
					c-5.0820313,1.0473633-10.3374023,2.1303711-15.5449219,2.1367188
					C36.0957222,33.0981445,36.0957222,33.0981445,36.0952339,33.0981445z"/>
			</g>
			<g>
				<path d="M32.8598824,32.9526367c-0.0234375,0-0.0473633-0.0009766-0.0712891-0.0031738
					c-1.7558613-0.1650391-3.4711933-0.4758301-5.0976582-0.9238281c-0.3994141-0.1101074-0.6337891-0.5229492-0.5239258-0.9223633
					c0.1103516-0.3994141,0.5229492-0.6335449,0.9223633-0.5239258c1.5419922,0.4250488,3.1704102,0.7197266,4.8398457,0.8764648
					c0.4121094,0.0388184,0.715332,0.404541,0.6762695,0.8168945C33.569355,32.661377,33.2422066,32.9526367,32.8598824,32.9526367z
					"/>
			</g>
			<g>
				<path d="M55.0898628,40.7331543c-0.3515625,0-0.6655273-0.2485352-0.7353516-0.6066895
					c-0.0791016-0.4067383,0.1865234-0.8005371,0.5927734-0.8796387c2.4560547-0.4787598,5.690918-1.0583496,8.9291992-1.2924805
					c0.4125938-0.0234375,0.7729454,0.2805176,0.8022423,0.6938477c0.0297852,0.4133301-0.2807617,0.7724609-0.6938438,0.8022461
					c-3.1586914,0.2285156-6.3359375,0.7980957-8.7504883,1.2685547
					C55.1860542,40.7285156,55.1377144,40.7331543,55.0898628,40.7331543z"/>
			</g>
			<g>
				<path d="M36.0385933,43.5783691c-2.6694336,0-5.3447285-0.277832-8.0151386-0.9780273
					c-0.4003906-0.1052246-0.6401367-0.5151367-0.5351563-0.9157715c0.1054688-0.4008789,0.5136719-0.6403809,0.9160156-0.5351563
					c7.5888691,1.9902344,15.3891621,0.3825684,22.9335957-1.1723633l1.2319336-0.253418
					c0.4013672-0.0812988,0.8017578,0.1779785,0.8852539,0.5844727c0.0830078,0.4057617-0.1787109,0.802002-0.5844727,0.8852539
					l-1.2294922,0.2526855C46.5254097,42.5004883,41.2944527,43.5783691,36.0385933,43.5783691z"/>
			</g>
			<g>
				<path d="M46.4673042,52.9455566c-0.3544922,0-0.6699219-0.2529297-0.7368164-0.6142578
					c-0.074707-0.4074707,0.1943359-0.798584,0.6020508-0.8735352c1.668457-0.3076172,3.3369141-0.6516113,5.0053711-0.9953613
					c2.9213867-0.6020508,5.9414063-1.2246094,8.9248047-1.6362305c0.40625-0.0593262,0.7885742,0.2299805,0.8457031,0.6403809
					c0.0566406,0.4104004-0.2304688,0.7888184-0.640625,0.845459c-2.934082,0.4047852-5.9296875,1.0222168-8.8271484,1.6193848
					c-1.6787109,0.3461914-3.3574219,0.6921387-5.0366211,1.0014648
					C46.5581245,52.9414063,46.5127144,52.9455566,46.4673042,52.9455566z"/>
			</g>
			<g>
				<path d="M36.0097847,54.0710449c-2.7509766,0-5.2402363-0.2990723-7.6528339-0.9006348
					c-0.4018555-0.1003418-0.6464844-0.5073242-0.5458984-0.9091797c0.1000977-0.4020996,0.5063477-0.6459961,0.9091797-0.5463867
					c4.2343769,1.0559082,8.7524433,1.1311035,14.645998,0.2434082c0.4130859-0.0603027,0.7915039,0.220459,0.8535156,0.6298828
					c0.0615234,0.409668-0.2202148,0.791748-0.6298828,0.8535156
					C40.8076363,53.8605957,38.3169136,54.0710449,36.0097847,54.0710449z"/>
			</g>
			<g>
				<path d="M36.038105,64.5532227c-0.40625,0-0.8120117-0.0065918-1.2172852-0.0202637
					c-0.4140625-0.0136719-0.7387695-0.3605957-0.7246094-0.7746582c0.0141602-0.4135742,0.3540039-0.7416992,0.7744141-0.7243652
					c5.465332,0.1833496,11.0556641-0.9709473,16.4677734-2.0866699c2.6889648-0.5541992,5.4697266-1.1274414,8.215332-1.534668
					c0.4082031-0.0603027,0.7905273,0.222168,0.8515625,0.6318359s-0.2216797,0.7912598-0.6318359,0.8520508
					c-2.7036133,0.401123-5.4633789,0.9699707-8.1323242,1.5200195
					C46.5385933,63.4682617,41.2749214,64.5532227,36.038105,64.5532227z"/>
			</g>
			<g>
				<path d="M32.0410347,64.3200684c-0.0302734,0-0.0605488-0.001709-0.0913105-0.0053711
					c-1.109375-0.1342773-2.206543-0.3288574-3.2597656-0.5783691c-0.402832-0.095459-0.6523438-0.4995117-0.5571289-0.9025879
					c0.0957031-0.4030762,0.496582-0.6540527,0.902832-0.5568848c0.9990234,0.2363281,2.0400391,0.4211426,3.0947285,0.548584
					c0.4111328,0.0498047,0.7041016,0.423584,0.6542969,0.8347168
					C32.7387886,64.0407715,32.4150581,64.3200684,32.0410347,64.3200684z"/>
			</g>
			<g>
				<path d="M53.4160347,72.5217285c-0.3491211,0-0.6621094-0.2453613-0.7338867-0.6010742
					c-0.0825195-0.4060059,0.1796875-0.8017578,0.5859375-0.8842773c6.6186523-1.3432617,13.1074181-2.4462891,19.7187462-1.2011719
					c0.4072266,0.0766602,0.6748047,0.46875,0.5981445,0.8757324c-0.0761719,0.4077148-0.4702148,0.6757813-0.8754883,0.5983887
					c-6.3432617-1.1938477-12.6738243-0.1154785-19.1435509,1.1972656
					C53.5156441,72.5166016,53.4658394,72.5217285,53.4160347,72.5217285z"/>
			</g>
			<g>
				<path d="M36.0268745,75.0395508c-2.3427734,0-4.6660175-0.2180176-7.0039082-0.7414551
					c-0.4038086-0.0905762-0.6582031-0.4916992-0.5678711-0.895752c0.090332-0.4042969,0.4921875-0.6569824,0.8959961-0.5681152
					c6.6943378,1.4992676,13.3906269,0.3605957,20.8232441-1.1625977c0.4033203-0.0842285,0.8022461,0.1777344,0.8852539,0.5839844
					c0.0830078,0.4057617-0.1787109,0.8022461-0.5844727,0.8852539
					C45.4160347,74.1777344,40.6836128,75.0395508,36.0268745,75.0395508z"/>
			</g>
			<g>
				<path d="M41.2905464,85.1972656c-0.3754883,0-0.699707-0.2814941-0.7441406-0.6635742
					c-0.0478516-0.411377,0.2470703-0.7836914,0.6586914-0.831543c3.3666992-0.3908691,6.8071289-1.0998535,10.1337891-1.7856445
					c5.5698242-1.1474609,11.3300781-2.3325195,17.0405235-2.1081543c0.4140625,0.0166016,0.7358398,0.3654785,0.7197266,0.7792969
					c-0.0166016,0.4140625-0.3681641,0.7263184-0.7792969,0.7197266
					c-5.5297813-0.2231445-11.1967735,0.9489746-16.6782188,2.0783691
					c-3.3583984,0.6921387-6.8310547,1.407959-10.2636719,1.8063965
					C41.3486519,85.1955566,41.319355,85.1972656,41.2905464,85.1972656z"/>
			</g>
			<g>
				<path d="M36.0478706,85.5227051c-2.3740234,0-4.5786152-0.2209473-6.6918964-0.6682129
					c-0.4052734-0.0856934-0.6640625-0.4836426-0.5786133-0.888916s0.4858398-0.6643066,0.8891602-0.5783691
					c2.58008,0.5458984,5.3125019,0.7370605,8.3530293,0.5849609c0.4091797-0.0236816,0.7661133,0.2978516,0.7866211,0.7114258
					c0.0205078,0.4138184-0.2978516,0.7658691-0.7114258,0.7866211
					C37.3979683,85.505127,36.7163277,85.5227051,36.0478706,85.5227051z"/>
			</g>
		</g>
		<g>
			<g>
				<path d="M63.9843941,62.3225098c-0.3256836,0-0.6538086-0.1018066-0.9257813-0.2941895
					c-0.3515625-0.248291-0.5820313-0.6184082-0.6494141-1.0415039c-0.9790039-6.0217285,0.4506836-12.0769043,1.1108398-14.4006348
					c0.144043-0.4943848,0.5004845-0.8779297,0.9790001-1.057373c0.4780273-0.1791992,0.9985352-0.1235352,1.4272461,0.1525879
					l0.5043945,0.3183594c0.1040039,0,0.1469727-0.017334,0.168457-0.0700684
					c0.6333008-1.6081543,0.7202148-3.4375,0.2553711-5.4289551c-0.081543-0.3491211-0.0522461-0.6975098,0.0839844-1.0075684
					c1.7231445-4.0385742,4.3251953-8.0021973,7.7304688-11.7729492c0.3334961-0.3718262,0.8183594-0.559082,1.3271484-0.512207
					c0.5820313,0.0541992,1.0693359,0.3952637,1.3041992,0.9123535c-0.0004883-0.0002441-0.0004883-0.0002441-0.0004883-0.0002441
					c0.0009766-0.0002441,0.0288086,0.0419922,0.1000977,0.0351563c0.0668945-0.0075684,0.0766602-0.0466309,0.0825195-0.0698242
					l0.9541016-3.8422852c0.0825195-0.302002,0.230957-0.559082,0.4335938-0.7602539
					c6.434082-6.418457,14.6220703-10.8007813,24.3344727-13.0246582c0.6772461-0.1508789,1.3500977,0.1264648,1.7158203,0.7099609
					c0.3691406,0.5898438,0.3256836,1.3244629-0.1103516,1.871582c-0.0014648,0.001709-0.0029297,0.003418-0.0043945,0.0048828
					c-2.5161133,3.0991211-4.3007813,6.7502441-5.6162109,11.4909668c-0.1850586,0.6462402-0.7382813,1.1035156-1.4116211,1.1704102
					c-1.0209961,0.1188965-2.1401367,0.4936523-3.3144531,1.1125488c-0.0400391,0.0205078-0.0869141,0.0444336-0.065918,0.1279297
					c0.019043,0.0756836,0.0620117,0.0727539,0.0957031,0.0737305l1.284668-0.0373535
					c0.5170898-0.0073242,1.0073242,0.2207031,1.3198242,0.6254883c0.3154297,0.4077148,0.4145508,0.9250488,0.2724609,1.4194336
					c-1.3110352,4.5107422-2.9047852,8.2106934-4.8730469,11.3132324c-0.2958984,0.4611816-0.8037109,0.7368164-1.3603516,0.7404785
					c-2.5966797-0.0319824-5.2875977,0.4487305-8.2915039,1.4709473c-0.0336914,0.0112305-0.0878906,0.0292969-0.0834961,0.1115723
					c0.003418,0.072998,0.0454102,0.0822754,0.0761719,0.0891113c1.4458008,0.322998,2.8740234,0.4802246,4.3686523,0.4814453
					c0.65625,0.0119629,1.1791992,0.3459473,1.4501953,0.9074707c0.269043,0.5568848,0.1967773,1.2028809-0.1884766,1.6860352
					c-1.9580078,2.4187012-4.2802734,4.3269043-6.9057617,5.6757813c-0.3393555,0.1843262-0.7685547,0.2280273-1.1640625,0.114502
					c-1.3305664-0.3496094-2.6435547-0.385498-3.8867188-0.1010742c-0.0527344,0.0124512-0.0698242,0.0634766-0.0737305,0.1037598
					c0.3164063,0.208252,0.6293945,0.3195801,1.0268555,0.4279785c0.4921875,0.1196289,0.9013672,0.4970703,1.0756836,1.0043945
					c0.1806641,0.5285645,0.0825195,1.1037598-0.2631836,1.5383301c-4.4418945,5.5441895-11.28125,7.2355957-14.015625,7.7055664
					C64.1704254,62.314209,64.0771637,62.3225098,63.9843941,62.3225098z M63.8901558,60.7487793
					c0.0039063,0,0.1137657,0.0700684,0.117672,0.0700684l0,0c2.0019531-0.3439941,8.862793-1.8771973,13.097168-7.1628418
					c0.0361328-0.0454102,0.0214844-0.1005859,0.0161133-0.1164551c-0.5366211-0.1757813-0.9287109-0.3164063-1.2856445-0.4863281
					c-0.6000977-0.2695313-0.9555664-0.8901367-0.890625-1.5739746c0.0668945-0.7036133,0.5488281-1.262207,1.2270508-1.4228516
					c1.4868164-0.3395996,3.0405273-0.300293,4.625,0.1159668c2.5532227-1.2731934,4.6538086-3.0007324,6.5019531-5.2839355
					c-0.0214844-0.151123-0.0698242-0.1538086-0.0898438-0.1538086c0,0-0.0004883,0-0.0009766,0
					c-1.5859375-0.0012207-3.1645508-0.175293-4.6948242-0.5170898c-0.7084961-0.1560059-1.2114258-0.7487793-1.2495117-1.4748535
					c-0.0385742-0.7314453,0.4047852-1.3791504,1.1030273-1.6118164c3.1640625-1.076416,6.0483398-1.5786133,8.7744141-1.5493164
					c0.0224609-0.0002441,0.0693359-0.0126953,0.0913086-0.0471191c1.8896484-2.9782715,3.4262695-6.5522461,4.6967773-10.9230957
					c-0.0341797-0.1066895-0.0761719-0.1264648-0.1103516-0.1289063l-1.2841797,0.0373535
					c-0.765625,0.0205078-1.4023438-0.463623-1.5908203-1.2036133c-0.1894531-0.7446289,0.144043-1.4794922,0.8291016-1.8291016
					c1.3295898-0.7009277,2.6259766-1.1306152,3.84375-1.2722168c0.0351563-0.0036621,0.1088867-0.0163574,0.1289063-0.0861816
					c1.3706055-4.9387207,3.2436523-8.7619629,5.8930664-12.0258789c0.0161133-0.0202637,0.0532227-0.0700684,0.0102539-0.1386719
					c-0.0380859-0.0600586-0.0834961-0.0490723-0.1123047-0.0429688c-9.4311523,2.1591797-17.3754883,6.4072266-23.6083984,12.625
					l-0.9897461,3.8996582c-0.1611328,0.6533203-0.699707,1.125-1.371582,1.2001953
					c-0.6782227,0.0751953-1.3144531-0.2692871-1.6201172-0.8796387l-0.0200195-0.8115234l-0.0693359,0.7468262
					c-3.3691406,3.6711426-5.8813477,7.4946289-7.5424805,11.3881836c0.5356445,2.3635254,0.4267578,4.4924316-0.3232422,6.3972168
					c-0.1855469,0.4567871-0.5532227,0.7995605-1.0107422,0.9482422c-0.4511719,0.1464844-0.9418945,0.0869141-1.3466797-0.1643066
					l-0.5141602-0.324707l-0.878418-0.1550293l0.7216797,0.204834
					C64.3305817,49.2233887,62.9594917,55.0219727,63.8901558,60.7487793L63.8901558,60.7487793z M104.2236481,12.5720215h0.0097656
					H104.2236481z"/>
			</g>
			<g>
				<path d="M61.4126167,71.1186523c-0.0317383,0-0.0634766-0.0019531-0.0957031-0.0061035
					c-0.4111328-0.0522461-0.7016602-0.4279785-0.6494141-0.8388672
					c2.4428711-19.1577148,24.9692345-42.1499023,25.926754-43.1193848
					c0.2915039-0.2946777,0.7661133-0.2976074,1.0605469-0.0063477c0.2949219,0.2910156,0.2978516,0.7658691,0.0068359,1.0605469
					c-0.230957,0.2338867-23.1279297,23.6022949-25.5058556,42.255127
					C62.1074409,70.8422852,61.784687,71.1186523,61.4126167,71.1186523z"/>
			</g>
		</g>
		<g>
			<g>
				<g>
					<path d="M84.8623199,101.1833496c-14.2675781,0-17.2626953-5.079834-17.2626953-9.3410645
						c0-4.9916992,3.9306641-10.7697754,9.3461914-13.7387695c0.2265625-0.1240234,0.5004883-0.1230469,0.7250977,0.0024414
						c1.8999023,1.0578613,4.4506836,1.6403809,7.1835938,1.6403809c2.7109375,0,5.3310547-0.6000977,7.1879883-1.6462402
						c0.2260742-0.1271973,0.5019531-0.1289063,0.7290039-0.0041504c5.4155273,2.9731445,9.3461914,8.7543945,9.3461914,13.7463379
						C102.117691,96.1035156,99.1240387,101.1833496,84.8623199,101.1833496z M77.3164215,79.6162109
						c-4.7822266,2.7712402-8.2167969,7.8549805-8.2167969,12.2260742c0,5.2028809,5.3032227,7.8410645,15.7626953,7.8410645
						c10.4545898,0,15.7553711-2.6381836,15.7553711-7.8410645c0-4.3710938-3.434082-9.4572754-8.2158203-12.232666
						c-2.0585938,1.0576172-4.71875,1.6367188-7.5473633,1.6367188
						C82.0434723,81.2463379,79.386734,80.6696777,77.3164215,79.6162109z"/>
				</g>
				<g>
					<path d="M84.8540192,81.2487793c-6.3261719,0-11.2817383-2.8459473-11.2817383-6.4790039
						c0-3.6293945,4.9555664-6.4724121,11.2817383-6.4724121c6.3300781,0,11.2885742,2.8430176,11.2885742,6.4724121
						C96.1425934,78.402832,91.1840973,81.2487793,84.8540192,81.2487793z M84.8540192,69.7973633
						c-5.3022461,0-9.7817383,2.2770996-9.7817383,4.9724121c0,2.6989746,4.4794922,4.9790039,9.7817383,4.9790039
						c5.3061523,0,9.7885742-2.2800293,9.7885742-4.9790039C94.6425934,72.0744629,90.1601715,69.7973633,84.8540192,69.7973633z"/>
				</g>
				<g>
					<path d="M84.855484,81.2487793c-3.8984375,0-6.9526367-1.8115234-6.9526367-4.1242676
						c0-2.3103027,3.0541992-4.1201172,6.9526367-4.1201172c3.9008789,0,6.956543,1.8098145,6.956543,4.1201172
						C91.812027,79.4372559,88.7563629,81.2487793,84.855484,81.2487793z M84.855484,74.5043945
						c-3.2133789,0-5.4526367,1.3808594-5.4526367,2.6201172c0,1.2412109,2.2392578,2.6242676,5.4526367,2.6242676
						c3.2158203,0,5.456543-1.3830566,5.456543-2.6242676C90.312027,75.8852539,88.0713043,74.5043945,84.855484,74.5043945z"/>
				</g>
			</g>
		</g>
	</g>
	<g>
		<g>
			<path d="M96.3496246,57.5935059c-2.5708008,0-4.6625977-2.0917969-4.6625977-4.6630859
				c0-2.5668945,2.0917969-4.6552734,4.6625977-4.6552734c2.5673828,0,4.6557617,2.0883789,4.6557617,4.6552734
				C101.0053864,55.501709,98.9170074,57.5935059,96.3496246,57.5935059z M96.3496246,49.7751465
				c-1.7436523,0-3.1625977,1.4155273-3.1625977,3.1552734c0,1.7441406,1.4189453,3.1630859,3.1625977,3.1630859
				c1.7402344,0,3.1557617-1.4189453,3.1557617-3.1630859C99.5053864,51.1906738,98.089859,49.7751465,96.3496246,49.7751465z"/>
		</g>
	</g>
	<g>
		<g>
			<path d="M11.9482603,102.8884277c-2.5708008,0-4.6625977-2.0917969-4.6625977-4.6630859
				c0-2.5668945,2.0917969-4.6552734,4.6625977-4.6552734c2.5673828,0,4.6557608,2.0883789,4.6557608,4.6552734
				C16.6040211,100.7966309,14.5156431,102.8884277,11.9482603,102.8884277z M11.9482603,95.0700684
				c-1.7436523,0-3.1625977,1.4155273-3.1625977,3.1552734c0,1.7441406,1.4189453,3.1630859,3.1625977,3.1630859
				c1.7402344,0,3.1557617-1.4189453,3.1557617-3.1630859C15.104022,96.4855957,13.6884947,95.0700684,11.9482603,95.0700684z"/>
		</g>
	</g>
	<g>
		<path d="M6.8086119,16.3564453c-0.4365234,0-0.8037109-0.3017578-0.8930664-0.7338867
			c-0.2753906-1.355957-0.940918-2.5881348-1.9257815-3.565918c-0.9833984-0.9899902-2.2124023-1.6555176-3.5585938-1.9287109
			c-0.40625-0.0825195-0.668457-0.4782715-0.5859375-0.8842773c0.0004883-0.0031738,0.0009766-0.0063477,0.0019531-0.0097656
			c-0.0009766-0.0031738-0.0014648-0.0063477-0.0019531-0.0095215c-0.0825195-0.4060059,0.1796875-0.8017578,0.5859375-0.8842773
			c1.34375-0.2727051,2.5761719-0.9389648,3.5644531-1.9267578c0.9814456-0.9816895,1.6450198-2.2143555,1.9194338-3.5646973
			c0.0898438-0.4350586,0.4570313-0.7370605,0.8935547-0.7370605s0.8037109,0.302002,0.8930664,0.7341309
			c0.2749023,1.3535156,0.9389648,2.5861816,1.9204102,3.567627c0.987793,0.987793,2.2202148,1.6540527,3.5644531,1.9267578
			c0.4355469,0.0910645,0.7368164,0.458252,0.7368164,0.8937988c0,0.435791-0.3012695,0.8029785-0.7324219,0.8930664
			c-2.7651367,0.5693359-4.9189453,2.7260742-5.4892578,5.494873C7.6123228,16.0546875,7.2451353,16.3564453,6.8086119,16.3564453z
			 M2.5161312,9.2338867c0.9370117,0.4228516,1.7944338,1.017334,2.5341799,1.7619629
			c0.7426758,0.7373047,1.3364258,1.5961914,1.7592773,2.536377c0.8569336-1.909668,2.3857422-3.4401855,4.2929688-4.2976074
			C10.1660337,8.8125,9.3056822,8.2185059,8.5615416,7.473877c-0.7402344-0.7397461-1.331543-1.5979004-1.7529297-2.5351563
			C6.3872252,5.8754883,5.7964048,6.7336426,5.0561705,7.473877C4.3120298,8.2180176,3.4526546,8.8115234,2.5161312,9.2338867z"/>
	</g>
</g>
</svg>
