<?xml version="1.0" encoding="utf-8"?>
<!-- Generator: Adobe Illustrator 25.3.1, SVG Export Plug-In . SVG Version: 6.00 Build 0)  -->
<svg version="1.1" id="Outline" xmlns="http://www.w3.org/2000/svg" xmlns:xlink="http://www.w3.org/1999/xlink" x="0px" y="0px"
	 viewBox="0 0 64 64" enable-background="new 0 0 64 64" xml:space="preserve">
<g>
	<path d="M25.4,12.8l4,3c0.18,0.135,0.391,0.2,0.599,0.2c0.304,0,0.604-0.138,0.801-0.4c0.332-0.442,0.242-1.069-0.2-1.4
		L29.399,13.3c2.38,0.408,4.662,1.241,6.751,2.476c-0.42,0.465-0.838,0.932-1.234,1.417c-0.204,0.249-0.275,0.581-0.192,0.892
		l0.658,2.457l-1.293-0.747c-0.456-0.261-1.037-0.127-1.331,0.309c-0.529,0.789-0.976,1.5-1.366,2.176
		c-1.135,1.966-1.437,4.257-0.849,6.45c0.456,1.701,1.409,3.181,2.73,4.291l-4.069,7.048c-0.276,0.479-0.112,1.09,0.366,1.366
		c0.158,0.091,0.33,0.134,0.499,0.134c0.346,0,0.682-0.179,0.867-0.5l4.016-6.956c1.191,0.598,2.478,0.921,3.787,0.921
		c0.738,0,1.481-0.097,2.213-0.293c2.193-0.587,4.026-1.994,5.162-3.96l2.583-4.475c0.215-0.373,0.167-0.841-0.118-1.164
		l-1.724-1.944l3.901-1.045c0.256-0.068,0.475-0.236,0.607-0.466l2.966-5.138c0.276-0.479,0.112-1.09-0.366-1.366
		c-0.48-0.277-1.09-0.112-1.366,0.366l-2.759,4.779l-5.064,1.357c-0.335,0.09-0.599,0.346-0.699,0.678
		c-0.1,0.332-0.021,0.692,0.209,0.951l2.319,2.615l-2.223,3.851c-0.868,1.504-2.27,2.579-3.947,3.029
		c-1.505,0.401-3.067,0.254-4.459-0.406c5.691-9.544,12.877-17.982,21.393-25.117l-2.892,5.009c-0.276,0.478-0.112,1.09,0.366,1.366
		c0.479,0.275,1.089,0.112,1.366-0.366L61.866,3.5c0.004-0.006,0.004-0.013,0.007-0.019c0.013-0.024,0.018-0.05,0.029-0.075
		c0.038-0.085,0.066-0.171,0.079-0.261c0.006-0.037,0.006-0.073,0.007-0.111c0.003-0.083-0.005-0.163-0.022-0.243
		c-0.008-0.037-0.014-0.072-0.026-0.109c-0.034-0.1-0.082-0.194-0.148-0.281c-0.007-0.01-0.009-0.022-0.017-0.032
		c-0.001-0.002-0.004-0.002-0.005-0.004c-0.002-0.003-0.003-0.006-0.005-0.008c-0.078-0.092-0.172-0.162-0.272-0.22
		c-0.031-0.018-0.063-0.027-0.095-0.041c-0.077-0.034-0.155-0.059-0.237-0.072c-0.039-0.006-0.076-0.011-0.116-0.013
		c-0.082-0.004-0.163,0.005-0.245,0.022c-0.036,0.007-0.071,0.01-0.107,0.022c-0.013,0.004-0.026,0.003-0.038,0.008l-9.32,3.428
		c-2.531,0.931-4.98,2.142-7.279,3.599c-0.3,0.19-0.477,0.525-0.464,0.88l0.042,1.188l-0.654-0.495
		c-0.354-0.267-0.841-0.27-1.199-0.006c-1.497,1.109-2.899,2.336-4.216,3.646c-2.441-1.513-5.129-2.526-7.942-2.992l0.826-0.413
		c0.494-0.247,0.694-0.848,0.447-1.342c-0.247-0.494-0.847-0.694-1.342-0.447l-4,2c-0.31,0.155-0.518,0.459-0.549,0.805
		C24.973,12.255,25.123,12.592,25.4,12.8z M42.375,12.712l1.728,1.308c0.308,0.233,0.721,0.268,1.064,0.09
		c0.342-0.178,0.552-0.537,0.539-0.923l-0.095-2.711c2.038-1.248,4.193-2.292,6.415-3.109l3.814-1.403
		c-8.549,7.21-15.776,15.711-21.517,25.314c-0.883-0.822-1.525-1.871-1.846-3.065c-0.449-1.677-0.219-3.429,0.65-4.933
		c0.235-0.408,0.494-0.831,0.782-1.28l2.566,1.481c0.351,0.202,0.788,0.174,1.109-0.073c0.321-0.246,0.462-0.662,0.357-1.052
		l-1.149-4.29C38.452,16.092,40.326,14.294,42.375,12.712z"/>
	<path d="M45.917,34.68c-0.265,3.168-1.304,6.263-3.003,8.952c-0.295,0.467-0.156,1.084,0.311,1.379
		c0.166,0.105,0.351,0.155,0.533,0.155c0.332,0,0.656-0.165,0.846-0.466c1.871-2.959,3.014-6.366,3.306-9.853
		c0.046-0.55-0.363-1.034-0.913-1.08C46.447,33.717,45.963,34.129,45.917,34.68z"/>
	<path d="M10.253,47.855c0.235,0,0.471-0.083,0.662-0.25c0.414-0.366,0.453-0.998,0.087-1.412C7.776,42.541,6,37.855,6,33
		c0-7.503,4.142-14.311,10.808-17.768c0.49-0.254,0.682-0.858,0.427-1.348c-0.253-0.49-0.855-0.681-1.348-0.427
		C8.555,17.259,4,24.747,4,33c0,5.343,1.954,10.499,5.503,14.517C9.701,47.741,9.976,47.855,10.253,47.855z"/>
	<path d="M36.566,43.678c0.19,0.168,0.426,0.25,0.662,0.25c0.277,0,0.552-0.114,0.75-0.338c1.458-1.651,2.542-3.546,3.221-5.633
		c0.17-0.525-0.117-1.089-0.642-1.26c-0.522-0.169-1.088,0.117-1.26,0.642c-0.198,0.609-0.45,1.193-0.727,1.763l-1.677-0.968
		c-0.481-0.277-1.09-0.112-1.366,0.366c-0.276,0.479-0.112,1.09,0.366,1.366l1.679,0.969c-0.335,0.495-0.692,0.977-1.093,1.43
		C36.113,42.68,36.152,43.312,36.566,43.678z"/>
	<path d="M27,19.037c0.927,0.066,1.843,0.221,2.734,0.466c0.531,0.148,1.083-0.166,1.23-0.698c0.147-0.532-0.166-1.083-0.698-1.23
		C28.883,17.194,27.447,17,26,17c-8.822,0-16,7.178-16,16c0,5.15,2.508,10.015,6.71,13.012c0.176,0.125,0.379,0.186,0.58,0.186
		c0.312,0,0.62-0.146,0.815-0.419c0.321-0.449,0.216-1.074-0.233-1.395c-1.37-0.977-2.532-2.182-3.454-3.541l1.691-0.976
		c0.479-0.276,0.642-0.888,0.366-1.366c-0.277-0.478-0.888-0.643-1.366-0.366l-1.681,0.971c-0.773-1.586-1.236-3.316-1.366-5.104H14
		c0.552,0,1-0.448,1-1s-0.448-1-1-1h-1.949c0.13-1.821,0.609-3.543,1.371-5.107l1.686,0.973C15.266,27.957,15.437,28,15.607,28
		c0.346,0,0.682-0.179,0.867-0.5c0.276-0.479,0.112-1.09-0.366-1.366l-1.696-0.979c0.999-1.472,2.271-2.743,3.743-3.743l0.979,1.696
		c0.186,0.321,0.521,0.5,0.867,0.5c0.169,0,0.341-0.043,0.499-0.134c0.479-0.276,0.642-0.888,0.366-1.366l-0.973-1.686
		c1.564-0.763,3.286-1.241,5.107-1.371V21c0,0.552,0.448,1,1,1s1-0.448,1-1V19.037z"/>
	<path d="M26,24c-0.552,0-1,0.448-1,1v7.667L22.2,36.4c-0.332,0.442-0.242,1.069,0.2,1.4c0.18,0.135,0.391,0.2,0.599,0.2
		c0.304,0,0.604-0.138,0.801-0.4l3-4c0.13-0.173,0.2-0.384,0.2-0.6v-8C27,24.448,26.552,24,26,24z"/>
	<path d="M61.203,56.021l-28.199-5.834c0.01-0.928,0.433-1.782,1.171-2.348c0.747-0.572,1.695-0.76,2.605-0.516l18.74,5.045
		c0.087,0.023,0.174,0.035,0.26,0.035c0.441,0,0.845-0.294,0.965-0.741c0.144-0.533-0.172-1.082-0.706-1.226L37.3,45.391
		c-1.513-0.405-3.096-0.094-4.342,0.86c-0.37,0.284-0.687,0.615-0.958,0.976c-0.271-0.361-0.588-0.693-0.958-0.976
		c-1.245-0.954-2.829-1.266-4.342-0.86L7.96,50.437C6.217,50.906,5,52.494,5,54.299v1.266l-2.203,0.456C2.333,56.117,2,56.526,2,57
		v4c0,0.283,0.12,0.553,0.33,0.743c0.21,0.19,0.487,0.279,0.773,0.252l13.067-1.352c0.549-0.057,0.949-0.548,0.892-1.098
		s-0.537-0.953-1.098-0.892L4,59.891v-2.077l27-5.587V56c0,0.552,0.448,1,1,1s1-0.448,1-1v-3.772l27,5.587v2.077l-23.897-2.472
		c-0.285-0.025-0.562,0.062-0.773,0.252c-0.21,0.19-0.33,0.459-0.33,0.743V59c0,0.551-0.449,1-1,1h-4c-0.551,0-1-0.449-1-1v-0.586
		c0-0.283-0.12-0.553-0.33-0.743c-0.21-0.19-0.488-0.278-0.773-0.252l-7.953,0.822c-0.549,0.057-0.948,0.548-0.892,1.098
		c0.057,0.549,0.545,0.952,1.098,0.892l6.895-0.713C27.291,60.926,28.522,62,30,62h4c1.478,0,2.709-1.074,2.955-2.482l23.942,2.477
		C60.932,61.998,60.966,62,61,62c0.246,0,0.485-0.091,0.67-0.257C61.88,61.553,62,61.283,62,61v-4
		C62,56.526,61.667,56.117,61.203,56.021z M7,54.299c0-0.903,0.608-1.697,1.48-1.931l18.74-5.045
		c0.909-0.245,1.859-0.056,2.605,0.516c0.738,0.565,1.161,1.42,1.171,2.348L7,55.151V54.299z"/>
</g>
</svg>
