<?xml version="1.0" encoding="utf-8"?>
<!-- Generator: Adobe Illustrator 24.0.1, SVG Export Plug-In . SVG Version: 6.00 Build 0)  -->
<svg version="1.1" id="Layer_1" xmlns="http://www.w3.org/2000/svg" xmlns:xlink="http://www.w3.org/1999/xlink" x="0px" y="0px"
	 viewBox="0 0 4000 4000" style="enable-background:new 0 0 4000 4000;" xml:space="preserve">
<g>
	<path d="M1995.02,1077.09c82.66,0,165.32-0.88,247.96,0.27c69.37,0.97,124.41,32.84,165.31,87.32
		c40.43,53.85,71.45,114,108.71,170.04c3.86,5.81,5.99,15.96,14.26,14.92c7.66-0.97,8.45-11.02,11.73-17.4
		c2.74-5.33,4.95-10.95,7.81-16.21c11.5-21.09,31.14-28.37,50.1-18.74c19.05,9.67,26.04,29.77,16.44,51.18
		c-25.08,55.91-50.7,111.57-76.13,167.31c-24.05,52.72-48.46,105.27-71.95,158.23c-5.5,12.39-11.75,18.08-26.44,17.99
		c-120.65-0.67-241.31-0.32-361.96-0.39c-27.31-0.01-42.55-13.3-42.5-36.49c0.04-21.69,15.63-36.17,41.12-36.94
		c18.64-0.57,37.35-0.45,55.98,0.47c17.26,0.85,17.85-4.89,9.88-18.1c-54.36-90.14-108.35-180.51-162.42-270.82
		c-15.74-26.29-30.51-53.21-47.23-78.87c-53.8-82.59-147.15-117.37-242.01-91.6c-40.12,10.9-69.94,34.7-91.06,69.91
		c-60.31,100.52-120.48,201.14-180.72,301.7c-14.39,24.02-14.59,24.29,10.28,38.59c77.39,44.49,155.13,88.39,232.21,133.43
		c13.93,8.14,19.42,3.5,26.2-8.05c66.52-113.18,133.4-226.15,200.07-339.24c13.41-22.74,10.69-20.71,26.9-1.6
		c29.63,34.92,25.08,63.3,1.09,101.47c-69.8,111.06-134.52,225.32-200.39,338.82c-8.81,15.18-15.36,16.78-30.42,8.1
		c-121.79-70.2-243.95-139.74-366.37-208.83c-13.9-7.84-15.3-14.09-7.21-27.51c75.33-124.98,149.89-250.43,225-375.54
		c45.17-75.25,114.75-109.78,199.84-112.28c85.24-2.5,170.62-0.55,255.93-0.55C1995.01,1077.49,1995.02,1077.29,1995.02,1077.09z
		 M1949.83,1155.63c39.25,25.64,56.51,67.03,79.02,104.42c69.01,114.65,137.63,229.53,206.24,344.42
		c5.06,8.47,10.04,14.3,21.52,14.12c46.61-0.73,93.25-0.87,139.86-0.18c12.36,0.18,17.69-5.32,22.28-15.38
		c22.39-49.08,45.1-98.01,68.06-146.82c4.01-8.52,5-15.6-0.32-24.2c-45.17-73.03-88.78-147.07-135.38-219.18
		c-25.1-38.85-63.06-61.13-110.52-61.79c-92.56-1.27-185.13-1.42-277.69-1.97C1958.96,1149.05,1954.81,1149.02,1949.83,1155.63z"/>
	<path d="M2742.29,2437.11c-25.62,1.92-49.91,5.18-74.23,5.32c-115.97,0.68-231.95,0.54-347.92,0.61
		c-22.4,0.01-22.63-0.51-14.07-20.73c22.6-53.4,22.6-53.33,81.39-53.22c85.31,0.16,170.77-2.8,255.9,1.11
		c94.93,4.36,159.52-41.73,210.91-114.02c42.03-59.13,45.16-121.68,8.54-184.16c-57.61-98.28-116.96-195.54-175.24-293.43
		c-6.38-10.72-11.87-11.2-22-4.53c-74.53,49.13-149.18,98.08-224.39,146.16c-13.54,8.65-7.7,15.08-2.41,23.96
		c62.06,104.17,123.64,208.63,186.31,312.44c9.69,16.06,7.63,22.19-9.2,30.07c-47.46,22.21-46.71,22.8-73.69-22.48
		c-65.47-109.9-131.39-219.52-196.94-329.36c-20.99-35.17-19.99-28,10.29-47.82c110.95-72.63,222.2-144.79,332.89-217.8
		c12.99-8.56,18.13-6.59,25.72,6.27c68.76,116.47,138.18,232.54,207.47,348.7c53.38,89.5,53.88,178.88-0.43,268.17
		c-88.28,145.12-176.72,290.16-264.85,435.37c-47.34,78.01-117.08,115.52-207.52,116.03c-52.65,0.29-105.31-0.02-157.96,0.27
		c-7.69,0.04-18.1-4.02-22.5,3.11c-4.88,7.93,5.59,13.54,9.19,20.19c4.11,7.59,9.75,14.36,13.82,21.97
		c9.9,18.52,6.24,37.23-8.86,48.19c-15.16,11.01-39.95,8.66-52.95-5.4c-4.03-4.36-7.38-9.45-10.5-14.54
		c-60.56-98.85-120.86-197.85-181.77-296.48c-7.23-11.71-7.68-20.35-0.32-32.46c63.63-104.81,126.54-210.06,189.68-315.16
		c2.4-4,4.84-8,7.62-11.73c14-18.74,32.79-23.25,50.48-12.28c17.72,10.98,23.72,32.99,12.54,52.18
		c-21.46,36.83-43.9,73.1-65.89,109.62c-36.08,59.92-71.87,120.02-108.48,179.62c-5.79,9.42-5.85,16.14-0.23,25.27
		c29.03,47.07,57.68,94.37,86.05,141.83c5.35,8.95,11.44,13,22.33,12.91c73.31-0.62,146.63-1.03,219.94-0.59
		c58.35,0.34,104.02-24.17,134.57-72.35c52.44-82.72,102.26-167.1,153.08-250.85C2740.29,2444.4,2740.87,2441.1,2742.29,2437.11z"/>
	<path d="M1362.43,2316.02c36.09-60.17,69.28-115.53,102.51-170.86c15.78-26.27,31.38-52.66,47.67-78.62
		c5.23-8.34,5.77-15.16,0.8-23.85c-22.45-39.34-44.56-78.87-66.29-118.6c-5.18-9.47-11.87-12.93-22.46-12.54
		c-55.92,2.03-111.86,3.65-167.8,5.25c-16.2,0.47-27.82,5.52-36.83,21.19c-30.86,53.68-64.13,105.96-95.44,159.39
		c-29.64,50.57-30.5,102.55-2.37,154.1c16.28,29.83,34.3,58.7,58.79,82.83c29.97,29.52,67.01,38.9,107.82,38.83
		c191.27-0.32,382.53-0.34,573.8-0.47c29.63-0.02,29.85-0.02,29.85,28.94c0,139.95-0.52,279.91,0.24,419.85
		c0.11,19.42-6.85,22.88-24.16,22.8c-111.96-0.56-223.94-1.25-335.88,0.27c-83.47,1.13-148.35-34.22-192.68-101.46
		c-61.92-93.93-118.34-191.48-177.37-287.32c-31.43-51.04-62.76-102.16-95.29-152.5c-52.65-81.46-53.96-163.47-5.06-246.67
		c22.96-39.05,46.4-77.82,69.52-116.78c2.97-5,8.99-10.12,5.81-16.07c-3.87-7.23-12-3.36-18.15-3.17
		c-11.29,0.34-22.54,2.69-33.81,2.73c-22.15,0.08-38.79-16.52-38.59-37.37c0.19-19.99,15.81-35.54,37.45-36.32
		c128.5-4.6,257.01-8.92,385.51-13.66c10.36-0.38,15.73,4.1,20.4,12.44c54.95,98.25,110.23,196.31,165.09,294.6
		c12.18,21.83,7.81,42.07-9.81,52.24c-18.81,10.86-40.08,4.63-52.96-16.1c-7.02-11.3-13.59-22.94-19.55-34.84
		c-7.07-14.13-12.92-12.07-20.18-0.11c-31.11,51.24-63.1,101.94-93.38,153.66c-8.21,14.02-16.96,19.75-33.1,18.55
		C1406.85,2314.9,1386.97,2316.02,1362.43,2316.02z M1652.69,2770.18c47.32,0,94.66-0.88,141.94,0.43
		c18.85,0.52,23.81-5.95,23.71-23.86c-0.48-89.3,0.07-178.6,0.39-267.91c0.11-31.22,0.29-31.22-31.53-31.23
		c-167.94-0.07-335.89-0.3-503.83,0.11c-12.05,0.03-29.13-9.83-34.69,0.81c-4.69,8.97,10.77,20.92,17.16,31.57
		c42.1,70.29,84.37,140.5,127.4,210.23c32.74,53.04,77.89,83.99,143.5,80.25C1575.28,2768.38,1614.03,2770.18,1652.69,2770.18z"/>
</g>
</svg>
