<?xml version="1.0" encoding="UTF-8"?>
<svg id="Layer_1" data-name="Layer 1" xmlns="http://www.w3.org/2000/svg" viewBox="0 0 64 64">
  <path d="M24,17c-4.96,0-9,4.04-9,9s4.04,9,9,9,9-4.04,9-9-4.04-9-9-9Zm-7,9c0-3.86,3.14-7,7-7,.31,0,.62,.03,.93,.07,.19,.03,.38,.06,.57,.1,.54,.18,1.02,.47,1.42,.86,.63,.64,1.02,1.51,1.02,2.48s-.39,1.84-1.02,2.48c-.64,.63-1.51,1.02-2.48,1.02s-1.84,.39-2.48,1.02c-.63,.64-1.02,1.51-1.02,2.48,0,1.87,1.47,3.4,3.32,3.49-.09,0-.17,.01-.26,.01-3.86,0-7-3.14-7-7Zm7.47,4.67c-.52,0-.93-.42-.93-.93s.42-.93,.93-.93,.93,.42,.93,.93-.42,.93-.93,.93Z"/>
  <path d="M60,22h-3.5v-2.5c0-.83-.67-1.5-1.5-1.5s-1.5,.67-1.5,1.5v2.5h-3.5c-.83,0-1.5,.67-1.5,1.5s.67,1.5,1.5,1.5h3.5v7.5c0,.83,.67,1.5,1.5,1.5s1.5-.67,1.5-1.5v-7.5h3.5c.83,0,1.5-.67,1.5-1.5s-.67-1.5-1.5-1.5Z"/>
  <path d="M10,18c1.74,0,3.36-.56,4.67-1.51-.06,.01-.11,.01-.17,.01-3.87,0-7-3.13-7-7,0-3.4,2.41-6.22,5.62-6.87-.96-.41-2.02-.63-3.12-.63C5.58,2,2,5.58,2,10s3.58,8,8,8Z"/>
  <rect x="8" y="37" width="2" height="2"/>
  <rect x="23" y="37" width="2" height="2"/>
  <rect x="54" y="37" width="2" height="2"/>
  <rect x="8" y="32" width="2" height="2"/>
  <rect x="8" y="27" width="2" height="2"/>
  <rect x="8" y="22" width="2" height="2"/>
  <rect x="39" y="37" width="2" height="2"/>
  <rect x="39" y="32" width="2" height="2"/>
  <rect x="39" y="27" width="2" height="2"/>
  <rect x="39" y="22" width="2" height="2"/>
  <path d="M11.25,50H6.75c-2.07,0-3.75,1.68-3.75,3.75v7.75c0,.28,.22,.5,.5,.5H14.5c.28,0,.5-.22,.5-.5v-7.75c0-2.07-1.68-3.75-3.75-3.75Z"/>
  <circle cx="9" cy="45" r="3.5"/>
  <path d="M26.25,50h-4.5c-2.07,0-3.75,1.68-3.75,3.75v7.75c0,.28,.22,.5,.5,.5h11c.28,0,.5-.22,.5-.5v-7.75c0-2.07-1.68-3.75-3.75-3.75Z"/>
  <circle cx="24" cy="45" r="3.5"/>
  <path d="M42.25,50h-4.5c-2.07,0-3.75,1.68-3.75,3.75v7.75c0,.28,.22,.5,.5,.5h11c.28,0,.5-.22,.5-.5v-7.75c0-2.07-1.68-3.75-3.75-3.75Z"/>
  <circle cx="40" cy="45" r="3.5"/>
  <path d="M57.25,50h-4.5c-2.07,0-3.75,1.68-3.75,3.75v7.75c0,.28,.22,.5,.5,.5h11c.28,0,.5-.22,.5-.5v-7.75c0-2.07-1.68-3.75-3.75-3.75Z"/>
  <circle cx="55" cy="45" r="3.5"/>
  <circle cx="24.47" cy="22.27" r=".93"/>
  <path d="M16.85,8.49c.09-.09,.04-.25-.09-.27l-1.9-.28c-.05,0-.1-.04-.12-.09l-.85-1.72c-.06-.12-.23-.12-.28,0l-.85,1.72s-.07,.08-.12,.09l-1.9,.28c-.13,.02-.18,.18-.09,.27l1.37,1.34s.05,.09,.05,.14l-.32,1.89c-.02,.13,.11,.23,.23,.17l1.7-.89s.1-.02,.15,0l1.7,.89c.12,.06,.25-.04,.23-.17l-.32-1.89c0-.05,0-.1,.05-.14l1.37-1.34Z"/>
  <path d="M45.91,10.84c2.42-4.44,2.17-4.9,1.94-5.29-.18-.32-.58-.55-.94-.55h-4.13l-1.86-3.47c-.17-.32-.49-.52-.85-.53-.38,0-.7,.17-.88,.48-.79,1.3-1.5,2.46-2.13,3.52h-4.06c-.35,0-.68,.18-.86,.49s-.19,.68-.02,.99l1.97,3.69c-2.42,4.44-2.17,4.9-1.94,5.29,.18,.32,.58,.55,.94,.55h4.13l1.86,3.47c.17,.32,.49,.52,.85,.53h.03c.35,0,.67-.18,.85-.48,.79-1.3,1.5-2.46,2.13-3.52h4.06c.35,0,.68-.18,.86-.49s.19-.68,.02-.99l-1.97-3.69Zm-.27-3.84c-.21,.45-.51,1.04-.87,1.71l-.92-1.71h1.79Zm-2.02,3.8c-.56,.99-1.18,2.07-1.84,3.2h-3.37l-2.04-3.8c.56-.99,1.18-2.07,1.84-3.2h3.37l2.04,3.8Zm-3.63-6.79l.53,.98h-1.11c.2-.33,.39-.66,.59-.98Zm-5.32,2.98h1.21c-.22,.38-.43,.74-.63,1.09l-.58-1.09Zm-.31,7c.21-.45,.51-1.04,.87-1.71l.92,1.71h-1.79Zm5.65,2.98l-.53-.98h1.11c-.2,.33-.39,.66-.59,.98Zm4.11-2.98c.22-.38,.43-.74,.63-1.09l.58,1.09h-1.21Z"/>
</svg>