<?xml version="1.0" encoding="iso-8859-1"?>
<!-- Generator: Adobe Illustrator 23.1.0, SVG Export Plug-In . SVG Version: 6.00 Build 0)  -->
<svg version="1.1" id="Line-Black_Expand" xmlns="http://www.w3.org/2000/svg" xmlns:xlink="http://www.w3.org/1999/xlink" x="0px"
	 y="0px" viewBox="0 0 469.899 504" style="enable-background:new 0 0 469.899 504;" xml:space="preserve">
<g>
	<path d="M255.315,232.489c1.13,1.897,3.586,2.52,5.483,1.388c1.897-1.131,2.52-3.586,1.388-5.483
		c-0.361-0.607-9.115-14.883-30.412-14.883s-30.051,14.274-30.413,14.883c-1.132,1.897-0.51,4.353,1.388,5.483
		c0.642,0.383,1.348,0.565,2.044,0.565c1.363,0,2.691-0.697,3.439-1.953c0.065-0.109,6.739-10.979,23.542-10.979
		C248.365,221.511,255.053,232.064,255.315,232.489z"/>
	<circle cx="185.725" cy="178" r="14"/>
	<circle cx="277.725" cy="178" r="14"/>
	<path d="M174.311,132.98l34.693,13.116c0.465,0.177,0.943,0.26,1.413,0.26c1.616,0,3.138-0.985,3.742-2.587
		c0.781-2.066-0.261-4.374-2.327-5.155l-34.693-13.116c-2.063-0.784-4.375,0.261-5.155,2.327
		C171.202,129.892,172.244,132.199,174.311,132.98z"/>
	<path d="M252.651,158.66c0.631,0,1.271-0.15,1.868-0.466l37.222-19.715c1.952-1.034,2.696-3.455,1.663-5.407
		c-1.035-1.952-3.455-2.697-5.407-1.663l-37.222,19.715c-1.952,1.034-2.696,3.455-1.663,5.407
		C249.831,157.887,251.217,158.66,252.651,158.66z"/>
	<path d="M353.689,355.076c-9.474-14.138-27.214-23.683-47.508-23.683c-13.918,0-26.633,4.494-36.31,11.873
		c-1.429-2.358-2.147-4.758-2.147-7.267v-18.267c25.851-3.649,44.252-11.732,55.789-24.44
		c10.735-11.822,16.721-37.692,20.054-63.756c2.565,1.62,5.31,2.463,8.156,2.463c13.458,0,24-19.327,24-44s-10.542-44-24-44
		c-1.411,0-2.831,0.213-4.222,0.62c-0.867-32.146-5.001-97.002-23.989-117.913C307.197,8.735,277.172,0,231.725,0
		c-45.448,0-75.473,8.736-91.788,26.707c-18.989,20.912-23.123,85.768-23.99,117.913c-1.391-0.407-2.811-0.62-4.222-0.62
		c-13.458,0-24,19.327-24,44s10.542,44,24,44c2.847,0,5.591-0.843,8.156-2.463c3.333,26.064,9.32,51.934,20.054,63.756
		c11.537,12.707,29.938,20.791,55.789,24.44V336c0,13.188-21.808,20.538-44.896,28.319c-19.264,6.492-39.183,13.205-52.629,24.633
		c-31.249,26.56-30.011,107.687-29.942,111.127c0.043,2.178,1.82,3.921,3.999,3.921h260.338c2.209,0,4-1.791,4-4v-37.632
		c26.922-6.907,46.761-29.906,46.761-57.155C383.355,384.693,372.28,366.019,353.689,355.076z M347.725,160
		c0-1.665-0.01-3.964-0.048-6.782c1.322-0.782,2.736-1.218,4.048-1.218c7.567,0,16,14.784,16,36s-8.433,36-16,36
		c-2.853,0-5.29-1.998-7.045-4.053C347.457,193.429,347.725,168.492,347.725,160z M111.725,224c-7.567,0-16-14.784-16-36
		s8.433-36,16-36c1.312,0,2.726,0.436,4.048,1.218c-0.037,2.818-0.048,5.116-0.048,6.782c0,8.492,0.268,33.429,3.045,59.947
		C117.015,222.002,114.578,224,111.725,224z M306.182,339.394c25.811,0,46.81,17.563,46.81,39.15
		c0,12.234-6.671,23.548-18.302,31.04c-0.258,0.166-0.522,0.323-0.783,0.484v-27.903c0-2.209-1.791-4-4-4s-4,1.791-4,4v31.889
		c-4.934,1.928-10.229,3.114-15.725,3.499v-35.388c0-2.209-1.791-4-4-4s-4,1.791-4,4v35.388c-5.496-0.385-10.79-1.571-15.725-3.499
		v-31.889c0-2.209-1.791-4-4-4s-4,1.791-4,4v27.903c-0.262-0.162-0.528-0.319-0.787-0.486
		c-11.629-7.491-18.298-18.804-18.298-31.038C259.372,356.956,280.371,339.394,306.182,339.394z M255.567,396.731
		c-2.266,1.355-4.749,2.069-7.317,2.069c-9.198,0-16.682-9.087-16.682-20.256s7.483-20.256,16.682-20.256
		c2.584,0,5.082,0.722,7.357,2.092c-2.725,5.593-4.235,11.729-4.235,18.164C251.372,384.923,252.832,391.072,255.567,396.731z
		 M248.25,350.288c-10.824,0-20.036,8.021-23.356,19.142l-28.645-17.489c4.684-4.383,7.476-9.552,7.476-15.941v-17.299
		c8.587,0.866,17.912,1.299,28,1.299s19.413-0.433,28-1.299V336c0,4.434,1.396,8.67,4.11,12.645
		c-1.48,1.549-2.839,3.185-4.084,4.889C256.234,351.406,252.328,350.288,248.25,350.288z M145.859,32.084
		C160.369,16.104,189.258,8,231.725,8c42.466,0,71.356,8.104,85.867,24.084c9.234,10.171,15.386,35.92,18.812,66.072
		c-4.158,2.242-14.238,6.629-24.746,3.378c-13.42-4.152-18.839-20.794-18.89-20.953c-0.479-1.534-1.832-2.629-3.432-2.784
		s-3.139,0.664-3.905,2.077c-0.102,0.187-10.281,18.604-26.216,17.223c-16.096-1.352-23.705-19.716-23.776-19.893
		c-0.607-1.52-2.078-2.517-3.715-2.517s-3.107,0.997-3.715,2.517c-0.074,0.185-7.584,18.532-23.776,19.893
		c-15.922,1.363-26.115-17.036-26.212-17.216c-0.761-1.416-2.291-2.242-3.896-2.085c-1.6,0.149-2.956,1.245-3.442,2.777
		c-0.053,0.167-5.472,16.809-18.892,20.961c-10.435,3.229-20.563-1.153-24.744-3.389C130.473,67.997,136.625,42.253,145.859,32.084z
		 M145.858,287.915c-15.29-16.838-22.134-76.378-22.134-127.915c0-17.526,0.792-35.976,2.438-53.359
		c4.261,1.93,10.59,4.056,17.794,4.056c3.258,0,6.694-0.436,10.199-1.52c11.03-3.413,17.656-12.623,21.109-19.164
		c5.335,6.738,15.483,16.237,29.638,15.057c13.716-1.152,22.357-10.962,26.821-17.926c4.464,6.964,13.105,16.773,26.821,17.926
		c14.17,1.192,24.304-8.319,29.637-15.057c3.454,6.541,10.08,15.751,21.11,19.164c11.254,3.484,21.804,0.265,27.993-2.538
		c1.646,17.384,2.438,35.835,2.438,53.361c0,51.537-6.844,111.076-22.133,127.916C303.081,303.896,274.19,312,231.725,312
		C189.258,312,160.369,303.896,145.858,287.915z M319.725,456.499c-14.382,0-28.027-5.044-38.424-14.203
		c-1.661-1.463-4.188-1.301-5.646,0.356c-1.461,1.658-1.301,4.186,0.356,5.646c11.858,10.447,27.383,16.201,43.713,16.201
		c3.011,0,5.969-0.21,8.87-0.588V496H193.069l7.282-12.375c18.769-3.982,32.896-20.676,32.896-40.614
		c0-22.896-18.627-41.522-41.522-41.522s-41.522,18.627-41.522,41.522c0,0.994,0.048,1.976,0.117,2.953
		c-4.876,2.287-9.574,4.817-14.088,7.586c3.452-10.467,4.715-21.571,3.738-33.167c-0.187-2.202-2.137-3.813-4.322-3.65
		c-2.201,0.186-3.835,2.121-3.65,4.322c1.235,14.649-1.459,28.408-7.988,40.915c-9.195,7.097-17.467,15.329-24.736,24.657
		c-1.357,1.743-1.046,4.256,0.696,5.614c0.73,0.569,1.597,0.845,2.456,0.845c1.19,0,2.369-0.529,3.158-1.541
		c12.417-15.935,27.929-28.491,46.149-37.393c4.781,17.139,20.3,29.834,38.82,30.351L183.787,496H76.254
		c0.153-16.449,2.377-79.916,27.128-100.952c12.275-10.434,31.454-16.896,50.002-23.147c13.462-4.537,26.526-8.946,35.975-14.793
		l34.209,21.437c0,15.58,11.072,28.256,24.682,28.256c4.056,0,7.943-1.107,11.447-3.213c3.534,4.839,8.111,9.158,13.641,12.72
		c9.533,6.142,20.891,9.388,32.844,9.388c11.952,0,23.308-3.245,32.84-9.385c13.962-8.993,21.97-22.758,21.97-37.766
		c0-2.975-0.337-5.882-0.952-8.705c9.759,9.409,15.316,21.947,15.316,35.374C375.355,433.492,350.399,456.499,319.725,456.499z
		 M191.725,476.532c-18.484,0-33.522-15.038-33.522-33.521c0-18.484,15.038-33.522,33.522-33.522s33.522,15.038,33.522,33.522
		C225.247,461.494,210.209,476.532,191.725,476.532z"/>
	<path d="M437.477,288.592c-0.019,0-0.038,0-0.057,0c-0.236,0.01-23.607,0.267-35.52-5.029
		c-11.253-5.004-17.922-19.463-18.024-19.687c-0.727-1.612-2.429-2.551-4.178-2.32c-1.754,0.234-3.146,1.597-3.422,3.345
		c-0.019,0.117-1.928,11.814-8.417,18.206c-6.568,6.471-15.636,8.443-15.717,8.461c-1.61,0.331-2.849,1.616-3.13,3.235
		c-0.282,1.619,0.461,3.249,1.864,4.104c0.088,0.054,8.834,5.468,10.213,13.529c1.429,8.353-4.632,17.999-4.688,18.089
		c-0.973,1.516-0.811,3.493,0.393,4.832c1.204,1.339,3.155,1.708,4.767,0.904c0.119-0.06,11.983-5.924,21.629-4.574
		c9.317,1.299,17.42,11.076,17.496,11.169c0.776,0.955,1.926,1.477,3.104,1.477c0.502,0,1.009-0.095,1.495-0.29
		c1.627-0.656,2.637-2.297,2.49-4.045c-0.405-4.813-0.353-19.02,4.685-26.864c5.021-7.819,20.732-14.761,26.362-16.775
		c1.842-0.659,2.938-2.553,2.589-4.478C441.067,289.975,439.408,288.592,437.477,288.592z M405.728,308.812
		c-4.192,6.53-5.573,15.427-5.962,22.162c-4.009-3.146-9.417-6.366-15.471-7.21c-1.35-0.188-2.717-0.271-4.083-0.271
		c-4.508,0-8.995,0.913-12.748,2.004c1.394-4.199,2.378-9.342,1.511-14.409c-1.036-6.061-4.607-10.865-7.881-14.131
		c3.763-1.629,8.381-4.211,12.381-8.15c3.87-3.813,6.428-8.804,8.069-13.135c3.712,5.329,9.459,11.802,17.106,15.202
		c6.281,2.793,14.894,4.228,22.42,4.963C415.178,299.205,409.048,303.641,405.728,308.812z"/>
	<path d="M46.76,30.945c5.257-2.144,11.276-1.646,16.947,1.403c5.924,3.185,10.728,8.721,13.527,15.589
		c0.835,2.047,3.171,3.026,5.214,2.194c2.046-0.834,3.028-3.168,2.194-5.214c-3.5-8.586-9.59-15.552-17.147-19.615
		c-7.812-4.199-16.247-4.826-23.755-1.766C28.854,29.605,22.393,48.57,28.979,66.234C12.327,68.896,0,81.02,0,95.717
		c0,16.561,16.088,30.033,35.862,30.033c2.209,0,4-1.791,4-4s-1.791-4-4-4C20.499,117.75,8,107.866,8,95.717
		c0-11.796,12.131-21.672,27.041-22.016c1.394-0.032,2.67-0.787,3.369-1.993c0.698-1.206,0.72-2.688,0.055-3.914
		c-0.615-1.133-1.158-2.275-1.614-3.394C31.181,50.492,35.626,35.484,46.76,30.945z"/>
	<path d="M54.637,70.592c-0.879,2.027,0.053,4.383,2.079,5.261l39.885,17.286c0.519,0.225,1.058,0.331,1.589,0.331
		c1.546,0,3.019-0.901,3.672-2.41c0.879-2.027-0.053-4.383-2.079-5.261L59.897,68.513C57.869,67.635,55.515,68.564,54.637,70.592z"
		/>
	<path d="M88.739,115.273c1.546,0,3.019-0.901,3.672-2.41c0.879-2.027-0.053-4.383-2.079-5.261L50.447,90.316
		c-2.026-0.879-4.383,0.052-5.261,2.079c-0.879,2.027,0.053,4.383,2.079,5.261l39.885,17.286
		C87.669,115.167,88.208,115.273,88.739,115.273z"/>
	<path d="M440.92,103.814c3.078-8.246,3.436-17.014,0.99-24.828c-2.648-8.463-8.242-14.81-15.751-17.87
		c-7.505-3.06-15.943-2.435-23.755,1.766c-7.558,4.063-13.647,11.029-17.147,19.615c-0.834,2.046,0.148,4.38,2.194,5.214
		c2.044,0.832,4.379-0.147,5.214-2.194c2.8-6.868,7.604-12.404,13.527-15.589c5.671-3.048,11.688-3.547,16.947-1.403
		c5.258,2.144,9.213,6.707,11.136,12.852c2.009,6.419,1.573,13.736-1.227,20.604c-0.456,1.118-0.999,2.261-1.614,3.394
		c-0.665,1.226-0.644,2.708,0.055,3.914c0.699,1.206,1.976,1.961,3.369,1.993c14.91,0.344,27.041,10.219,27.041,22.015
		c0,12.149-12.499,22.033-27.862,22.033c-2.209,0-4,1.791-4,4s1.791,4,4,4c19.774,0,35.862-13.473,35.862-30.033
		C469.899,118.599,457.572,106.476,440.92,103.814z"/>
	<path d="M371.71,131.049c0.531,0,1.07-0.106,1.589-0.331l39.885-17.286c2.026-0.878,2.958-3.233,2.079-5.261
		c-0.878-2.027-3.234-2.958-5.261-2.079l-39.885,17.286c-2.026,0.878-2.958,3.233-2.079,5.261
		C368.691,130.147,370.164,131.049,371.71,131.049z"/>
	<path d="M377.488,150.443c0.653,1.509,2.126,2.41,3.672,2.41c0.531,0,1.07-0.106,1.589-0.331l39.885-17.286
		c2.026-0.878,2.958-3.233,2.079-5.261c-0.878-2.027-3.234-2.956-5.261-2.079l-39.885,17.286
		C377.541,146.061,376.609,148.416,377.488,150.443z"/>
</g>
</svg>
