<svg id="bb1783af-6460-416e-9640-3866932bfb1f" data-name="line" xmlns="http://www.w3.org/2000/svg" viewBox="0 0 64 64"><title>1</title><path d="M33.09521,33.28271c-.05346-.99371-.29553-2.96594-1.68353-2.7359a11.67153,11.67153,0,0,1-6.40155-.17791.996.996,0,0,0-1.17718.41467,4.86228,4.86228,0,0,0,4.27288,7.335A4.92,4.92,0,0,0,33.09521,33.28271Zm-7.97753,0c.009-.72436.04657-.84991.7774-.61785a13.6855,13.6855,0,0,0,5.1283.01263C31.75061,36.79456,25.3053,37.40192,25.11768,33.28271Z"/><path d="M28.11548,24.915c8.60724-.1134,10.66247-5.40308,11.12109-8.54559A1.00106,1.00106,0,0,0,37.25562,16.08c-.65217,4.46246-3.736,6.76117-9.1391,6.83258-7.95881.06695-9.90857-5.637-9.14392-10.25879.453-8.76892,17.35076-8.94965,18.21655-.33515a1.00133,1.00133,0,0,0,1.99261-.19769c-.97546-10.9212-21.45971-10.8031-22.18628.20868C15.99677,18.16223,18.919,24.9801,28.11548,24.915Z"/><path d="M33.00134,9.50751a4.10944,4.10944,0,0,0-2.44244.12909,6.56987,6.56987,0,0,1-4.72937.17694A4.2955,4.2955,0,0,0,22.06024,9.97c-4.11847,2.54657-1.5199,10.54987,6.023,10.60663C36.42145,20.54877,38.57159,10.87933,33.00134,9.50751Zm.90351,5.39624c-1.63129,4.85821-9.94007,4.84326-11.59034.04876-.751-3.25347,1.08283-3.8861,2.76508-3.28234a8.45468,8.45468,0,0,0,6.1579-.15046C32.86127,11.06549,34.64722,11.8634,33.90485,14.90375Z"/><path d="M33.35144,48.47119a1.00218,1.00218,0,0,0-.98071,1.02179,11.58648,11.58648,0,0,1-1.79029,6.31732,8.69229,8.69229,0,0,0-1.63971-4.30023,1.00739,1.00739,0,0,0-1.70025.24054l-1.365,3.23053a7.7222,7.7222,0,0,1-2.03864-5.50873,1.0013,1.0013,0,0,0-2.00238,0c-.00006,1.628.38025,5.66028,3.90509,7.95215a1.00625,1.00625,0,0,0,1.46759-.44983l1.05109-2.48834a6.95668,6.95668,0,0,1,.06946,4.23175,1.00094,1.00094,0,0,0,1.61719,1.03644A14.07389,14.07389,0,0,0,34.37317,49.4519,1.00755,1.00755,0,0,0,33.35144,48.47119Z"/><path d="M55.86139,25.99451H43.25122a1.00122,1.00122,0,0,0,0,2.00244H46.12a3.71065,3.71065,0,0,0,1.45288,3.47772l-2.75367,2.31677a2.91832,2.91832,0,0,0-2.9682-.30084l-2.58227-3.35449A5.85684,5.85684,0,0,0,36.006,23.66254a1.03073,1.03073,0,0,0-1.27692.29528c-2.85113,3.655-11.40362,2.89045-13.20947.078a1.0598,1.0598,0,0,0-1.29754-.38208,5.84746,5.84746,0,0,0-3.361,5.76574l-3.82714.00007a2.97432,2.97432,0,1,0-3.825,4.32647l.3133,4.124a3.42823,3.42823,0,0,0-2.3689,3.24841,1.00134,1.00134,0,0,0,2.0025-.00006,1.43241,1.43241,0,0,1,2.86481.00006,1.00134,1.00134,0,0,0,2.0025-.00006,3.42922,3.42922,0,0,0-2.49573-3.28778l-.2893-3.80658A2.97561,2.97561,0,0,0,13.53961,31.422h3.58228c.13342.826.3219,1.81909.58734,2.88635a1.00145,1.00145,0,0,0,1.94379-.483,33.44505,33.44505,0,0,1-.79883-4.55835A3.89854,3.89854,0,0,1,20.4303,25.8194c1.69855,2.03149,7.055,3.24987,10.30859,2.37091a9.88377,9.88377,0,0,0,5.02173-2.37476,3.77491,3.77491,0,0,1,1.58984,3.46222c-.5061,4.139-2.045,13.15247-8.23553,13.60077l-1.984.00085c-2.61652-.10363-4.71381-1.90368-6.23224-5.35125a1.00129,1.00129,0,0,0-1.83227.80761,14.76765,14.76765,0,0,0,1.82422,3.10254l.45489,3.27539c.44922,3.17426,4.28357,3.13916,6.75928,3.23932,2.46344-.11078,6.28595-.04333,6.78167-3.18359l.55439-3.49451A22.26548,22.26548,0,0,0,38.82,32.83563l1.58709,2.06171a2.97616,2.97616,0,1,0,5.55317.55127l4.01489-3.37793a3.55582,3.55582,0,0,0,3.01349-4.07379l2.87274.00006A1.00135,1.00135,0,0,0,55.86139,25.99451ZM10.5882,32.09766a.97981.97981,0,0,1,.00006-1.95942A.97981.97981,0,0,1,10.5882,32.09766ZM32.90948,44.45654a1.27748,1.27748,0,0,1-.95233,1.04035,16.58932,16.58932,0,0,1-7.67444.00781,1.2711,1.2711,0,0,1-.95434-1.06574l-.11237-.80957a9.68947,9.68947,0,0,0,9.8288-.02575ZM44.01,36.49854a.97933.97933,0,0,1-1.86353-.60236A.97933.97933,0,0,1,44.01,36.49854Zm6.97632-7.81916a1.43207,1.43207,0,0,1-2.86383-.00006V27.997h2.86383Z"/><path d="M46.67145,24.36456a1.00131,1.00131,0,0,0,.9787.78907h3.28723a1.00134,1.00134,0,0,0,.97876-.78907l1.69446-7.82013a1.008,1.008,0,0,0-.97876-1.21338H50.32343l.33825-1.69055H53.1579a1.00133,1.00133,0,0,0,0-2.00244H49.84033a1.00178,1.00178,0,0,0-.98163.80469l-.57739,2.8883h-2.3266a1.008,1.008,0,0,0-.97864,1.21338Zm4.71863-7.03106-1.26032,5.81768h-1.672L47.19647,17.3335Z"/></svg>