<?xml version="1.0" encoding="utf-8"?>
<!-- Generator: Adobe Illustrator 25.3.1, SVG Export Plug-In . SVG Version: 6.00 Build 0)  -->
<svg version="1.1" id="Outline" xmlns="http://www.w3.org/2000/svg" xmlns:xlink="http://www.w3.org/1999/xlink" x="0px" y="0px"
	 viewBox="0 0 64 64" enable-background="new 0 0 64 64" xml:space="preserve">
<g>
	<path d="M37.194,50.991C35.876,49.746,33.999,49,32,49c-1.993,0-3.864,0.741-5.181,1.979c-0.23-0.397-0.432-0.813-0.566-1.265
		c-0.158-0.529-0.717-0.83-1.244-0.673c-0.529,0.158-0.831,0.715-0.673,1.244C25.337,53.65,28.489,56,32,56c4.411,0,8-3.589,8-8v-2
		c0-0.446-0.296-0.839-0.725-0.961c-4.76-1.36-9.79-1.36-14.55,0c-0.531,0.152-0.838,0.705-0.687,1.236
		c0.151,0.531,0.705,0.839,1.236,0.687c4.158-1.189,8.542-1.253,12.725-0.195V48C38,49.09,37.703,50.109,37.194,50.991z
		 M28.096,52.52C29.044,51.572,30.465,51,32,51c1.543,0,2.971,0.577,3.918,1.534C34.866,53.445,33.498,54,32,54
		C30.534,54,29.164,53.44,28.096,52.52z"/>
	<path d="M35,39c0-0.552-0.448-1-1-1s-1,0.448-1,1c0,0.551-0.449,1-1,1s-1-0.449-1-1c0-0.552-0.448-1-1-1s-1,0.448-1,1
		c0,1.654,1.346,3,3,3S35,40.654,35,39z"/>
	<path d="M41,41c0,0.552,0.448,1,1,1h4c0.552,0,1-0.448,1-1s-0.448-1-1-1h-4C41.448,40,41,40.448,41,41z"/>
	<path d="M18,40c-0.552,0-1,0.448-1,1s0.448,1,1,1h4c0.552,0,1-0.448,1-1s-0.448-1-1-1H18z"/>
	<path d="M42.039,28.698c0.541-0.112,0.888-0.641,0.776-1.182c-0.112-0.541-0.641-0.888-1.182-0.776
		c-2.087,0.433-3.834,1.859-4.673,3.816l-0.879,2.05c-0.171,0.399-0.065,0.862,0.261,1.147C36.529,33.917,36.764,34,37,34
		c0.177,0,0.355-0.047,0.515-0.143l1.362-0.817c1.748-1.048,3.976-0.774,5.417,0.667c0.391,0.391,1.023,0.391,1.414,0
		s0.391-1.023,0-1.414c-1.756-1.757-4.318-2.317-6.595-1.552C39.76,29.697,40.815,28.952,42.039,28.698z"/>
	<path d="M25.124,33.04l1.362,0.817C26.645,33.953,26.823,34,27,34c0.236,0,0.471-0.083,0.658-0.247
		c0.327-0.285,0.432-0.749,0.261-1.147l-0.879-2.05c-0.838-1.957-2.585-3.383-4.673-3.816c-0.544-0.111-1.07,0.235-1.182,0.776
		c-0.112,0.541,0.235,1.07,0.776,1.182c1.224,0.254,2.279,1,2.927,2.043c-2.277-0.767-4.838-0.205-6.595,1.552
		c-0.391,0.391-0.391,1.023,0,1.414s1.023,0.391,1.414,0C21.148,32.267,23.376,31.992,25.124,33.04z"/>
	<path d="M55.316,57.051l-6-2c-0.527-0.175-1.09,0.109-1.265,0.632c-0.175,0.524,0.108,1.09,0.632,1.265l6,2
		C54.789,58.984,54.896,59,55,59c0.419,0,0.809-0.265,0.949-0.684C56.124,57.792,55.84,57.226,55.316,57.051z"/>
	<path d="M47.707,58.293c-0.391-0.391-1.023-0.391-1.414,0s-0.391,1.023,0,1.414l2,2C48.488,61.902,48.744,62,49,62
		s0.512-0.098,0.707-0.293c0.391-0.391,0.391-1.023,0-1.414L47.707,58.293z"/>
	<path d="M57,52h-3c-0.552,0-1,0.448-1,1s0.448,1,1,1h3c0.552,0,1-0.448,1-1S57.552,52,57,52z"/>
	<path d="M14.949,55.684c-0.175-0.523-0.738-0.807-1.265-0.632l-6,2c-0.524,0.175-0.807,0.741-0.632,1.265
		C7.191,58.735,7.581,59,8,59c0.104,0,0.211-0.017,0.316-0.052l6-2C14.84,56.774,15.124,56.208,14.949,55.684z"/>
	<path d="M15.293,58.293l-2,2c-0.391,0.391-0.391,1.023,0,1.414C13.488,61.902,13.744,62,14,62s0.512-0.098,0.707-0.293l2-2
		c0.391-0.391,0.391-1.023,0-1.414S15.684,57.902,15.293,58.293z"/>
	<path d="M10,53c0-0.552-0.448-1-1-1H6c-0.552,0-1,0.448-1,1s0.448,1,1,1h3C9.552,54,10,53.552,10,53z"/>
	<path d="M5.729,43.848c0.16,0,0.321-0.038,0.472-0.119c0.487-0.261,0.669-0.868,0.409-1.354C4.902,39.194,4,35.606,4,32
		C4,16.561,16.561,4,32,4c7.26,0,14.146,2.774,19.389,7.811c0.398,0.382,1.031,0.37,1.414-0.028c0.383-0.398,0.37-1.031-0.028-1.414
		C47.157,4.972,39.779,2,32,2C15.458,2,2,15.458,2,32c0,3.935,0.984,7.85,2.847,11.321C5.028,43.657,5.373,43.848,5.729,43.848z"/>
	<path d="M48.162,53.733C56.574,49.792,62,41.294,62,32c0-6.803-2.228-13.222-6.442-18.564c-0.342-0.434-0.971-0.507-1.405-0.166
		c-0.434,0.342-0.507,0.971-0.166,1.405C57.921,19.66,60,25.651,60,32c0,7.415-3.771,14.276-9.833,18.313
		C51.332,47.778,52,44.968,52,42v-1.08c3.387-0.488,6-3.401,6-6.92v-2c0-2.757-2.243-5-5-5h-1.163
		c-0.446-1.81-1.855-3.251-3.753-3.672l-1.034-0.229c-2.623-0.583-4.711-2.55-5.449-5.134l-0.64-2.239
		c-0.151-0.531-0.705-0.839-1.236-0.687c-0.531,0.152-0.838,0.705-0.687,1.236l0.64,2.239c0.94,3.29,3.599,5.794,6.938,6.537
		l1.034,0.229C49.034,25.587,50,26.792,50,28.208V42c0,9.925-8.075,18-18,18s-18-8.075-18-18V32c0-0.552-0.448-1-1-1s-1,0.448-1,1
		v6.899C9.721,38.434,8,36.414,8,34v-2c0-1.654,1.346-3,3-3l1.903-0.004c0.268,0.034,0.531-0.041,0.741-0.205
		s0.345-0.405,0.376-0.67c0.119-1.007,0.731-1.878,1.638-2.332c2.121-1.061,3.746-2.895,4.564-5.082
		C21.154,22.701,23.161,24,25.403,24c2.826,0,5.361-1.6,6.597-4.073C33.236,22.4,35.771,24,38.597,24H39c0.552,0,1-0.448,1-1
		s-0.448-1-1-1h-0.403c-2.318,0-4.369-1.478-5.102-3.677l-0.546-1.639C32.812,16.275,32.431,16,32,16s-0.813,0.275-0.949,0.684
		l-0.546,1.639C29.772,20.522,27.722,22,25.403,22c-1.604,0-3.023-1.022-3.531-2.545l-0.924-2.771
		c-0.145-0.436-0.558-0.715-1.027-0.681c-0.458,0.036-0.833,0.379-0.908,0.833l-0.304,1.822c-0.384,2.302-1.859,4.299-3.946,5.343
		c-1.237,0.619-2.146,1.706-2.543,3H11c-2.757,0-5,2.243-5,5v2c0,3.519,2.613,6.432,6,6.92V42c0,2.966,0.667,5.773,1.83,8.307
		c-1.933-1.292-3.673-2.886-5.122-4.727c-0.342-0.433-0.969-0.509-1.404-0.167c-0.434,0.342-0.509,0.97-0.167,1.404
		c2.326,2.954,5.333,5.338,8.704,6.918C19.48,58.733,25.359,62,32,62C38.643,62,44.522,58.732,48.162,53.733z M56,32v2
		c0,2.414-1.721,4.434-4,4.899V29h1C54.654,29,56,30.346,56,32z"/>
</g>
</svg>
