<?xml version="1.0" encoding="UTF-8"?><svg id="Outline_2px" xmlns="http://www.w3.org/2000/svg" viewBox="0 0 64 64"><path d="m61.4707031,39.1181641c-.0600586-.0351562-1.4707031-.8789062-1.4707031-4.1181641,0-1.5625.4404297-2.9326172.9067383-4.3833008.5375977-1.6713867,1.0932617-3.3994141,1.0932617-5.6166992,0-4.4487305-2.5512695-7-7-7h-3c-2.1791992,0-3.6928711,1.0336914-4.6630859,2.2246094l-.3666992-1.4672852c-.0439453-.1757812-.1347656-.3364258-.2631836-.4643555l-2.8070068-2.8070068c1.3960571-.8215942,2.0999756-2.4471436,2.0999756-3.4859619,0-2.5048828-2.2431641-4-6-4-2.0804443,0-4.8932495,1.8452759-8.3690796,5.4752808-.7530518-2.28125-2.6589966-3.4752808-5.6309204-3.4752808-4.1445312,0-6,3.515625-6,7,0,1.7143555.2998047,2.8696289.6147461,3.6103516-1.0548096.7163086-2.5057373,2.2359619-2.5975952,5.1151123-.3843994.7633057-.7680664,1.4936523-1.1358032,2.19104-1.4885254,2.8218994-2.7694092,5.2744751-2.8634033,7.7926025l-4.7581787,8.5643311c-1.6635742.9765625-7.2597656,4.5019531-7.2597656,7.7265625,0,2.3466797,1.1606445,3.5751953,1.2929688,3.7070312.1923828.1923828.4482422.2929688.7075195.2929688.1655273,0,.3330078-.0410156.4853516-.1259766l9-5c.1035156-.0576172.1962891-.1328125.2734375-.2236328l5.2470703-6.1203003c.324707.3148193.614624.5847168.8383789.7863159-.5375977,1.6689453-1.8447266,5.9130859-1.8447266,7.6835938,0,3.7382812,4.5629883,4.921875,4.7573242,4.9697266.081543.0205078.1630859.0302734.2431641.0302734.4208984,0,.809082-.2675781.9482422-.6835938l2.9385376-8.8066406c1.8395386,2.0085449,4.1171265,4.0728149,5.4540405,5.2431641.1865234.1630859.4213867.2470703.6586914.2470703.1523438,0,.3051758-.0341797.4472656-.1054688.0819092-.0407715,1.6150513-.8406372,2.2637329-2.9247437l7.6244507,6.7772827c.1875.1669922.4248047.2529297.6645508.2529297.1523438,0,.3051758-.0341797.4472656-.1054688.1040039-.0517578,2.5527344-1.3066406,2.5527344-3.8945312,0-2.4394531-3.3168945-5.8505859-4.7929688-7.2470703.5698242-1.3554688,1.7177734-4.5458984,1.7895508-8.3789062l4.1307983-4.8192749c.6463013,6.5875854,3.8560181,10.4452515,8.8726196,10.4452515,3.9550781,0,5-2.6162109,5-4,0-.3583984-.2177734-.7041016-.5292969-.8818359ZM22.3164062,21.9487305c.3164062-.1054688.546875-.3759766.6352539-.6977539s-.0019531-.6801758-.2202148-.9326172c-.0073242-.0083008-.7314453-.8735352-.7314453-3.3183594,0-.8349609.1928711-5,4-5,2.8037109,0,4,1.1962891,4,4,0,1.9335938-.7880859,4-3,4-.5522461,0-1,.4477539-1,1s.4477539,1,1,1c2.9844971,0,4.9900513-2.4020996,4.9984741-5.9784546,3.453186-3.8233643,6.3618164-6.0215454,8.0015259-6.0215454,1.2026367,0,4,.1948242,4,2,0,.4819336-.6015625,2-2,2-.8535156,0-1.1445312-.2055664-1.4814453-.4438477-.3320312-.2348633-.7866211-.5561523-1.5185547-.5561523-.1552734,0-.3085938.0361328-.4472656.1054688-.0985107.0494995-2.2979736,1.1796265-2.529541,3.4990845-4.8678589,5.6965332-6.4239502,8.097229-7.9226074,10.4130249l-.1102905.1694336c-1.2883301-.8460083-2.4896851-1.8012695-3.1748657-2.7661133-.3208008-.4501953-.9443359-.5556641-1.3945312-.2363281-.4501953.3198242-.5561523.9443359-.2363281,1.3945312.9951782,1.4012451,2.788208,2.7293091,4.5459595,3.8068237.0040894.0028076.0060425.0073242.0101929.0100708.0073242.0047607.015686.0061035.0230713.0106812.3397827.2077026.6762695.4059448,1.006958.5933228h-1.770752c-.5522461,0-1,.4477539-1,1,0,.305603.0348511.6605225.1104126,1.0357666-2.6848145-1.383667-6.1104126-3.6885986-6.1104126-6.0357666,0-3.1875,2.230957-4.0205078,2.3164062-4.0512695Zm17.6835938,2.2207031c-2.5942383.8085938-5.4436646,4.3843384-6.5107422,5.8305664h-.2789307c-.4782104-.211792-1.9119873-.8669434-3.5110474-1.7721558l.0805054-.1238403c1.3747559-2.1245117,2.7987671-4.3215942,6.9331665-9.2221069.8959351,1.3894043,2.4210815,2.8199463,3.2870483,3.5770874v1.7104492Zm-13.9235229,15.5280762l-.9871216-2.6398926,1.3239746-2.6479492c.5982666.272644,1.0419922.4512329,1.2233887.5219727.0512085.0201416.1038208.0183716.1560059.0294189.3687744.3010254.8026123.5567017,1.3181152.7376709-.9034424,1.1026611-2.0535278,2.5654907-3.0343628,3.9987793Zm-13.7190552,9.5153809l-8.0263672,4.4589844c-.1699219-.3818359-.3310547-.9375-.3310547-1.671875,0-1.6660156,3.7988281-4.5888672,6.496582-6.1318359.1582031-.0908203.2890625-.2226562.3774414-.3828125l3.7745361-6.7941284c.6911011,1.5846558,1.8341064,3.1210938,2.9661255,4.3900146l-5.2572632,6.1316528Zm10.0161133,6.5048828c-.9609375-.4169922-2.3735352-1.2753906-2.3735352-2.7177734,0-1.5068359,1.4067383-6.0576172,1.9487305-7.6835938.1298828-.3896484.0078125-.8193359-.3066406-1.0830078-.0087891-.0078125-.8974609-.7539062-1.9672852-1.8632812-2.3696289-2.4921875-3.6748047-4.7539062-3.6748047-6.3701172,0-2.1259766,1.1694336-4.3432617,2.6503906-7.1503906.0418091-.0793457.0856934-.1635132.1278687-.2435913,1.2545166,2.1100464,3.7883911,3.802002,5.8451538,4.9108887l-1.5179443,3.0358276c-.1240234.2480469-.1396484.5371094-.0419922.7978516l1.6827393,4.4998169c-.4560547.8548584-.7462158,1.6097412-.7462158,2.1495972,0,.6760864.5473633,1.6452026,1.3739624,2.725708l-3.0004272,8.9920654Zm10.2124023-11.5292969l2.6901855-1.6817017-.763916,3.8284912c-.4749756-.5819702-1.0986328-1.2862549-1.9262695-2.1467896Zm9.6547852-6.8388672c-.1552734.1806641-.2407227.4121094-.2407227.6503906,0,4.6875-1.8759766,8.515625-1.8950195,8.5537109-.2001953.4023438-.1074219.890625.2275391,1.1904297,1.9379883,1.7392578,4.6674805,4.8291016,4.6674805,6.2558594,0,.7949219-.5043945,1.3847656-.9174805,1.7353516l-7.9897461-7.1015625,1.5127563-7.583252,1.9242554-1.2028809c.46875-.2919922.6108398-.9091797.3183594-1.3779297-.2929688-.46875-.909668-.6113281-1.3779297-.3173828l-8,5c-.2587891.1611328-.4291992.4316406-.4638672.734375-.0341797.3027344.0712891.6044922.2866211.8203125,1.6220703,1.6230469,3.46875,3.734375,3.706543,4.3681641-.0185547,1.3759766-.5429688,2.1953125-.9550781,2.6289062-3.4174805-3.0566406-6.9267578-6.734375-7.0444336-7.7041016,0-.9401245,2.770874-4.8133545,5.4633789-8h4.5366211c2.3793945,0,5.2490234-3.6650391,5.7998047-4.3999023.331543-.4418945.2421875-1.0683594-.199707-1.3994141-.4414062-.331543-1.0678711-.2416992-1.3999023.1987305-1.3007812,1.7319336-3.2768555,3.6005859-4.2001953,3.6005859h-5c-1.8808594,0-2.5844727-1.1113281-2.8466797-2h4.843811c.0007935,0,.0015869.0004883.0023804.0004883.0011597,0,.0021973-.0004883.0033569-.0004883h.9971313c.324707,0,.6289062-.1577148.8164062-.4228516,1.6381836-2.315918,4.6396484-5.5771484,6.1835938-5.5771484.8134766,0,1.0917969.4277344,1.1054688.4472656.2470703.4941406.8481445.6953125,1.3417969.4472656.4941406-.2470703.6943359-.8476562.4472656-1.3417969-.2244873-.4485474-.845459-1.1331787-1.8945312-1.4176636v-2.1350708c0-.2949219-.1298828-.574707-.3554688-.7646484-1.9047852-1.605957-3.6420898-3.625-3.6445312-4.2353516,0-.9760742.7607422-1.6435547,1.1791992-1.9370117.0439453.027832.1025391.0683594.1845703.1259766.4093628.2897949,1.0116577.7089233,2.2042847.7931519l3.5291138,3.5291138.9326172,3.7314453c.1108398.4433594.5087891.7529297.9658203.7548828h.0048828c.4550781,0,.8540039-.3095703.9682617-.7504883.034668-.1328125.8813477-3.2470703,4.03125-3.2470703h2.9921875c.4604492.0126953,1.0078125.1967773,1.0078125,1,0,1.5922852-1.0073242,2.1591797-2.9375,3.1040039-2.0708008,1.013855-4.8757324,2.3995972-5.0461426,6.506897l-5.7756348,6.7387085Zm14.7592773,4.6503906c-6.3178711,0-7-7.6923828-7-11,0-3.1699219,1.8266602-4.0639648,3.9418945-5.0996094,1.9023438-.9311523,4.0581055-1.9863281,4.0581055-4.9003906,0-.1118164-.0043945-.2197266-.0136719-.3242188,1.3383789.7768555,2.0136719,2.2226562,2.0136719,4.3242188,0,1.9033203-.484375,3.409668-.9970703,5.0048828-.4931641,1.5332031-1.0029297,3.1191406-1.0029297,4.9951172,0,3.1894531,1.1572266,4.7568359,1.9204102,5.4433594-.1870117.5898438-.8149414,1.5566406-2.9204102,1.5566406Z"/></svg>