<?xml version="1.0" encoding="UTF-8"?>
<svg id="Line" xmlns="http://www.w3.org/2000/svg" viewBox="0 0 64 64">
  <path d="m4.82422,44.39307c.32373.12354.68994.07129.96631-.13916,2.27705-1.73823,5.04565-2.64452,7.84625-2.43658-.52521,1.57141-1.4613,3.1651-2.87067,4.87603-1.48389,1.82422-1.9375,3.76465-1.34814,5.76709.12842.43555.52686.71826.95898.71826.65822.005,1.15297-.65268.95996-1.28273-.39795-1.35106-.07666-2.64012.97705-3.93602,1.57812-1.91553,2.6377-3.73389,3.23779-5.55518.03717-.11176.06256-.20471.09436-.30743,1.79169.42065,3.19513,1.17395,4.10425,1.77368-1.45593,4.81198.17189,9.85825,2.87738,13.40951-2.44653-.19406-5.97546-.72946-8.49542-2.19412-.47705-.27686-1.08984-.11475-1.36719.3623-.27734.47754-.11523,1.08936.3623,1.36719,3.58405,2.08289,8.65973,2.50073,11.37994,2.56421.67629.07465,1.231-.68935.98086-1.31881-.59599-1.09905-1.364-2.09786-2.03703-3.16632-.10393-.15518-.21044-.32706-.31682-.5015,5.55347-2.88068,12.1792-2.88055,17.73254.00043-.10809.17737-.21637.35168-.32202.5094-.62004,1.12422-1.78964,2.29866-2.10419,3.48966-.01127.57601.53954,1.06171,1.10957.98787,3.99511-.0996,13.26903-.98192,15.03173-6.9204.58936-2.00244.13574-3.94287-1.35205-5.77197-1.40466-1.70502-2.34021-3.29773-2.86652-4.87158,2.79931-.20797,5.57082.70007,7.84601,2.43701.556.45295,1.48404.10441,1.5908-.61282.07473-.40427.68996-4.06345-.71092-7.97702-.45884-1.23358-2.31131-.55684-1.8828.67388.73192,2.04536.82909,4.03559.77928,5.35737-2.71819-1.61879-6.03279-2.27466-9.11048-1.7401-2.44855.39434-4.38086,1.37609-5.60437,2.16295-1.62226-2.01487-2.90229-4.35368-3.65233-6.80585,2.79668-1.27917,5.8795-3.29711,8.56102-6.43627,1.71185.29773,3.98999,1.04596,6.02002,2.90619.56617.55904,1.19042,1.37056,2.00882.69134.82404-.74673-.02987-1.6687-.67298-2.17958-1.97781-1.81218-4.1614-2.72166-5.98879-3.17424,6.53661-8.73696,4.1783-20.08141,3.49017-21.79795-.56054-1.60415-4.10077-.22744-5.00514.46325-1.70316,1.20664-2.36088,2.95469-2.6143,4.14609-1.01953-.16797-2.52979-.18945-4.06836.6123-2.82031,1.46436-3.3208,4.3667-3.36816,4.69287-.06982.47461.20752.93164.66016,1.08936,2.39546.75782,5.69832,3.17008,3.72417,6.63915-5.60674-5.25617-15.12404-5.25678-20.73075.00017-1.96912-3.44598,1.31211-5.88813,3.72449-6.63925.45251-.15778.72985-.61481.66003-1.08942-.04736-.32617-.54785-3.22852-3.3667-4.69189-1.54004-.80273-3.04834-.78125-4.06982-.61328-.40675-2.77577-3.29395-5.57611-6.69982-5.31918-.42372.01596-.79139.29721-.91737.70199-.33105,1.06348-1.375,4.91699-.91113,9.87061.14769,1.31459,2.0894,1.11917,1.99121-.18656-.35498-3.78952.26074-6.92526.62598-8.36178,2.8576.20331,4.10517,3.05571,4.06924,4.57723.00474.67153.74382,1.15652,1.36144.89981,1.89522-.80565,4.89163.08148,5.73285,2.66224-7.59432,3.31006-5.0969,10.13205.55053,14.07943,2.2715,1.69304,4.77377,2.69771,7.61455,2.98639,2.19496-.21416,4.26214-.90427,6.11231-1.98536.48721-.3958,1.87914-.86196,1.90779-1.80462-.00008-.55232-.44784-1.00007-1.00008-1.00007-.71758.06039-1.42195.8855-1.91655,1.07754-1.52778.89707-3.28999,1.48594-5.10347,1.70566-3.78367-.4954-6.64184-2.24501-9.22036-5.20131,5.16802-5.03898,14.20701-4.77,19.06409.59551.39297.38152.9902.39432,1.41358.03839,3.43424-4.30712,1.23251-8.79075-3.09244-10.49159.81949-2.54729,3.83122-3.48551,5.73312-2.66206.30367.11755.64254.08142.91353-.09827.27051-.17871.4375-.47754.44775-.80176.01318-.41553.16895-2.54932,1.92383-3.79297.74219-.51904,1.52734-.71729,2.14258-.78369.71875,2.84521,2.12402,11.08887-3.04688,18.82812-5.46289,8.16748-14.26221,9.75684-16.27881,10.01855-4.7821-.3769-15.91507-4.9277-19.0291-15.77856-.16328-.52711-.72334-.82252-1.25166-.65845-.52734.16357-.82227.72363-.65869,1.25146.68848,2.21875,1.69727,4.33154,2.99854,6.2793.12769.19086.26489.36005.39557.54437-1.82452.45093-4.00629,1.35889-5.98785,3.16998-5.70605,5.20508-4.32812,13.021-4.2666,13.35107.06348.34131.2998.62549.62402.75049Zm47.83984,7.50049c-1.18701,3.99902-7.5625,5.09375-11.29492,5.38916.61644-.94852,1.19026-1.72919,1.73761-2.78717,1.50032-2.56909,2.24698-7.26261,1.14284-10.62458.90849-.59911,2.31065-1.35179,4.10435-1.77349.03149.10162.05664.19373.09332.30389.60107,1.82471,1.66064,3.64307,3.23486,5.55371,1.05762,1.30078,1.37891,2.58984.98193,3.93848Zm-20.66406-14.40234c1.19036-.12479,3.15545-.46807,5.74067-1.40642.93,2.85827,2.47613,5.54804,4.44604,7.84947.38916,1.21893.59588,2.47455.60382,3.73517.01031,1.91632-.43353,3.58148-1.01208,4.94531-6.12494-3.17487-13.43091-3.17505-19.55597-.00049-.57825-1.36316-1.02252-3.0293-1.01251-4.94727.00751-1.2594.21393-2.51385.60345-3.73285,1.96969-2.3012,3.51594-4.99143,4.44592-7.84937,2.58595.93777,4.54979,1.28293,5.74066,1.40643Zm-22.18457-5.72266c2.02283-1.849,4.29865-2.59454,6.00684-2.89032,2.68097,3.13794,5.76306,5.15527,8.55908,6.43414-.75077,2.45254-2.0294,4.79046-3.65235,6.80578-3.78672-2.69648-10.40165-3.24525-14.71727-.42113-.08789-2.3235.28467-6.71851,3.80371-9.92848Z"/>
</svg>