<?xml version="1.0" encoding="UTF-8"?>
<!DOCTYPE svg PUBLIC "-//W3C//DTD SVG 1.1//EN" "http://www.w3.org/Graphics/SVG/1.1/DTD/svg11.dtd">
<!-- Creator: CorelDRAW -->
<svg xmlns="http://www.w3.org/2000/svg" xml:space="preserve" width="43.3492mm" height="43.3492mm" version="1.1" style="shape-rendering:geometricPrecision; text-rendering:geometricPrecision; image-rendering:optimizeQuality; fill-rule:evenodd; clip-rule:evenodd"
viewBox="0 0 4335 4335"
 xmlns:xlink="http://www.w3.org/1999/xlink">
 <defs>
  <style type="text/css">
   <![CDATA[
    .fil0 {fill:black}
   ]]>
  </style>
 </defs>
 <g id="Layer_x0020_1">
  <metadata id="CorelCorpID_0Corel-Layer"/>
  <path class="fil0" d="M3114 1250l-205 0 0 341c0,139 -39,270 -106,382 70,120 119,253 146,396 405,139 686,526 686,956l0 779c0,127 -104,231 -231,231l-2473 0c-127,0 -231,-104 -231,-231l0 -779c0,-430 280,-817 686,-956 27,-143 76,-276 146,-396 -67,-112 -106,-243 -106,-382l0 -341 -204 0c-136,0 -38,-351 231,-369 -26,-473 299,-881 715,-881 415,0 740,408 714,881 269,18 366,369 232,369zm-388 828c-296,339 -821,339 -1117,0 -91,176 -131,383 -129,581 170,-83 207,-106 381,-142 318,-66 714,-27 994,142 1,-202 -38,-405 -129,-581zm-549 134c341,-5 613,-282 613,-621l0 -341 -1245 0 0 341c0,345 282,626 632,621zm679 2004l0 -743c0,-77 119,-77 119,0l0 743 429 0c62,0 112,-50 112,-112l0 -779c0,-359 -221,-685 -549,-822 2,26 22,274 -16,308 -22,19 -54,23 -79,4 -155,-124 -388,-198 -645,-208l0 738c0,77 -119,77 -119,0l0 -738c-172,6 -349,41 -504,119 -62,31 -136,88 -152,96 -35,18 -82,-6 -85,-49 -7,-93 -7,-184 1,-270 -328,137 -549,463 -549,822l0 779c0,62 50,112 112,112l429 0 0 -743c0,-77 119,-77 119,0l0 743 1377 0zm-689 -2081c-117,0 -260,-93 -192,-162 62,-63 89,43 192,43 104,0 131,-106 193,-43 68,69 -75,162 -193,162zm205 -210c-87,0 -156,-36 -205,-75 -144,116 -319,94 -477,-43 -59,-51 18,-140 77,-89 130,112 269,117 354,14 25,-31 68,-31 93,0 86,103 224,98 354,-14 59,-51 137,38 77,89 -90,78 -182,118 -273,118zm221 -477c-82,0 -184,19 -184,-59 0,-78 102,-60 184,-60 78,0 78,119 0,119zm-62 219c-72,0 -60,-82 -60,-132 0,-78 119,-78 119,0 0,50 13,132 -59,132zm-664 -219c-83,0 -184,19 -184,-59 0,-78 101,-60 184,-60 78,0 78,119 0,119zm-63 219c-72,0 -59,-82 -59,-132 0,-78 119,-78 119,0 0,49 12,132 -60,132zm-232 -787l1191 0c26,-407 -245,-761 -596,-761 -350,0 -621,355 -595,761zm-281 252l1753 0c-25,-77 -97,-133 -183,-133l-1388 0c-85,0 -157,56 -182,133z"/>
 </g>
</svg>
