<?xml version="1.0" encoding="iso-8859-1"?>
<!-- Generator: Adobe Illustrator 23.1.0, SVG Export Plug-In . SVG Version: 6.00 Build 0)  -->
<svg version="1.1" id="Line-Black_Expand" xmlns="http://www.w3.org/2000/svg" xmlns:xlink="http://www.w3.org/1999/xlink" x="0px"
	 y="0px" viewBox="0 0 392 504" style="enable-background:new 0 0 392 504;" xml:space="preserve">
<g>
	<path d="M375.998,195.275h-3.89l0.518-7.48c1.459-24.706-2.215-48.959-10.922-72.085c-8.361-22.21-20.932-42.315-37.361-59.755
		C290.872,20.425,244.176,0.031,196.228,0c-0.038,0-0.071,0-0.109,0c-47.95,0-94.658,20.363-128.156,55.874
		c-16.453,17.443-29.043,37.556-37.42,59.781c-8.722,23.142-12.403,47.414-10.94,72.181l0.515,7.44h-4.115
		C7.179,195.275,0,202.436,0,211.238v26.847c0,8.802,7.179,15.962,16.002,15.962h8.181l1.62,23.417
		c1.086,15.693,5.123,30.946,11.999,45.335c9,18.831,17.47,38.212,25.174,57.607c5.152,12.971,10.076,26.236,14.636,39.425
		c12.291,35.559,39.019,63.282,73.329,76.062c14.447,5.38,29.643,8.108,45.173,8.108c0.037,0,0.077,0,0.114,0
		c8.103-0.007,16.184-0.761,24.02-2.24c43.577-8.227,79.748-39.657,94.397-82.023c4.547-13.152,9.46-26.385,14.603-39.331
		c7.704-19.395,16.174-38.776,25.174-57.607c6.876-14.389,10.913-29.642,11.999-45.335l1.62-23.417h7.957
		c8.823,0,16.002-7.161,16.002-15.962v-26.847C392,202.436,384.821,195.275,375.998,195.275z M16.002,246.047
		c-4.412,0-8.002-3.572-8.002-7.962v-26.847c0-4.391,3.59-7.962,8.002-7.962h4.668l2.96,42.772H16.002z M364.643,187.283
		l-6.202,89.629c-1.016,14.684-4.797,28.961-11.237,42.438c-9.076,18.993-17.619,38.542-25.391,58.103
		c-5.187,13.057-10.142,26.404-14.728,39.669c-13.714,39.661-47.557,69.081-88.321,76.776c-7.35,1.388-14.934,2.095-22.543,2.102
		c-0.036,0-0.07,0-0.106,0c-14.572,0-28.832-2.559-42.38-7.605c-32.064-11.942-57.054-37.886-68.562-71.178
		c-4.599-13.303-9.564-26.682-14.761-39.765c-7.771-19.562-16.314-39.11-25.391-58.103c-6.44-13.476-10.222-27.754-11.237-42.438
		l-6.199-89.589c-2.76-46.719,13.646-91.453,46.197-125.96C105.775,27.446,150.358,8,196.118,8c0.033,0,0.07,0,0.104,0
		c45.756,0.029,90.331,19.508,122.298,53.44C351.019,95.938,367.397,140.644,364.643,187.283z M384,238.085
		c0,4.391-3.59,7.962-8.002,7.962h-7.403l2.96-42.772h4.443c4.412,0,8.002,3.572,8.002,7.962V238.085z"/>
	<path d="M168.571,371.023c-8.688,0-15.755,7.05-15.755,15.717c0,8.666,7.067,15.716,15.755,15.716s15.755-7.05,15.755-15.716
		C184.326,378.074,177.259,371.023,168.571,371.023z M168.571,394.457c-4.276,0-7.755-3.461-7.755-7.716s3.479-7.717,7.755-7.717
		s7.755,3.462,7.755,7.717S172.848,394.457,168.571,394.457z"/>
	<path d="M168.571,410.079c-8.688,0-15.755,7.05-15.755,15.717c0,8.666,7.067,15.716,15.755,15.716s15.755-7.05,15.755-15.716
		C184.326,417.129,177.259,410.079,168.571,410.079z M168.571,433.512c-4.276,0-7.755-3.461-7.755-7.716s3.479-7.717,7.755-7.717
		s7.755,3.462,7.755,7.717S172.848,433.512,168.571,433.512z"/>
	<path d="M168.571,449.134c-8.688,0-15.755,7.05-15.755,15.717c0,8.666,7.067,15.716,15.755,15.716s15.755-7.05,15.755-15.716
		C184.326,456.184,177.259,449.134,168.571,449.134z M168.571,472.567c-4.276,0-7.755-3.461-7.755-7.716s3.479-7.717,7.755-7.717
		s7.755,3.462,7.755,7.717S172.848,472.567,168.571,472.567z"/>
	<path d="M223.429,371.023c-8.688,0-15.755,7.05-15.755,15.717c0,8.666,7.067,15.716,15.755,15.716s15.755-7.05,15.755-15.716
		C239.184,378.074,232.116,371.023,223.429,371.023z M223.429,394.457c-4.276,0-7.755-3.461-7.755-7.716s3.479-7.717,7.755-7.717
		s7.755,3.462,7.755,7.717S227.705,394.457,223.429,394.457z"/>
	<path d="M223.429,410.079c-8.688,0-15.755,7.05-15.755,15.717c0,8.666,7.067,15.716,15.755,15.716s15.755-7.05,15.755-15.716
		C239.184,417.129,232.116,410.079,223.429,410.079z M223.429,433.512c-4.276,0-7.755-3.461-7.755-7.716s3.479-7.717,7.755-7.717
		s7.755,3.462,7.755,7.717S227.705,433.512,223.429,433.512z"/>
	<path d="M223.429,449.134c-8.688,0-15.755,7.05-15.755,15.717c0,8.666,7.067,15.716,15.755,15.716s15.755-7.05,15.755-15.716
		C239.184,456.184,232.116,449.134,223.429,449.134z M223.429,472.567c-4.276,0-7.755-3.461-7.755-7.716s3.479-7.717,7.755-7.717
		s7.755,3.462,7.755,7.717S227.705,472.567,223.429,472.567z"/>
	<path d="M222.706,322.751c1.328-1.765,0.974-4.273-0.791-5.601c-1.765-1.327-4.272-0.974-5.602,0.792
		c-7.402,9.837-19.014,10.121-20.313,10.121c-12.343,0-19.534-9.085-20.313-10.121c-1.328-1.766-3.837-2.12-5.601-0.792
		c-1.766,1.328-2.12,3.835-0.792,5.601c1.672,2.223,10.819,13.312,26.706,13.312C198.787,336.063,213.173,335.421,222.706,322.751z"
		/>
	<path d="M164.653,160.315c10.848,0,19.673-8.802,19.673-19.622s-8.825-19.622-19.673-19.622c-10.849,0-19.674,8.802-19.674,19.622
		S153.805,160.315,164.653,160.315z M164.653,129.071c6.437,0,11.673,5.214,11.673,11.622s-5.236,11.622-11.673,11.622
		s-11.674-5.214-11.674-11.622S158.217,129.071,164.653,129.071z"/>
	<path d="M172.446,217.813c-5.133-20.077-23.479-40.26-47.331-38.144c-22.255,1.982-38.085,21.737-38.906,38.943
		c-0.838,17.525,13.382,32.556,26.969,40.777c10.327,6.25,21.157,9.498,30.547,9.498c5.72,0,10.905-1.206,15.114-3.673
		C172.846,257.005,176.757,234.666,172.446,217.813z M154.794,258.313c-8.492,4.977-23.55,2.659-37.475-5.768
		c-11.616-7.029-23.79-19.535-23.12-33.551c0.648-13.557,13.795-29.769,31.625-31.356c0.873-0.078,1.738-0.116,2.597-0.116
		c17.601,0,32.102,15.95,36.275,32.272C168.195,233.477,165.404,252.093,154.794,258.313z"/>
	<path d="M227.347,160.315c10.849,0,19.674-8.802,19.674-19.622s-8.825-19.622-19.674-19.622c-10.848,0-19.673,8.802-19.673,19.622
		S216.499,160.315,227.347,160.315z M227.347,129.071c6.437,0,11.674,5.214,11.674,11.622s-5.237,11.622-11.674,11.622
		s-11.673-5.214-11.673-11.622S220.91,129.071,227.347,129.071z"/>
	<path d="M266.885,179.669c-23.852-2.114-42.197,18.066-47.331,38.143c-4.311,16.854-0.399,39.193,13.607,47.402
		c4.21,2.468,9.394,3.674,15.114,3.673c9.389,0,20.221-3.249,30.547-9.498c13.587-8.222,27.807-23.252,26.969-40.777
		C304.97,201.406,289.14,181.651,266.885,179.669z M274.681,252.545c-13.924,8.426-28.984,10.743-37.475,5.768
		c-10.61-6.22-13.401-24.836-9.902-38.519c4.174-16.323,18.674-32.272,36.275-32.272c0.857,0,1.725,0.038,2.597,0.116
		c17.83,1.588,30.977,17.8,31.625,31.356C298.471,233.011,286.297,245.516,274.681,252.545z"/>
</g>
</svg>
