<svg id="Layer_1" data-name="Layer 1" xmlns="http://www.w3.org/2000/svg" viewBox="0 0 1000 1000"><title>7634-Chef Knife</title><path d="M815,899.35a380.75,380.75,0,0,1-83.49-9.67c-62.23-14-126.48-42.84-190.94-85.79C460.71,750.7,380.19,675.55,301.21,580.52a16,16,0,0,1-.8-19.4L354.47,484c.33-.47.1-.23.26-.41,3.34-5.79,2.77-20.47-19.88-40.51-8.72-7.73-18-16.5-29.29-27.62L201.11,312.25c-11.33-11.19-24.61-24.59-37.13-39.11-9.62-11.14-27.56-3.23-40.91,5.37a16,16,0,0,1-22.62-5.63A148.06,148.06,0,0,1,84.9,222.7c-4.61-38.74,8.36-72.2,37.5-96.76l1.81-1.53c1.49-1.25,3-2.49,4.45-3.77,5.34-4.63,16.31-13,29.79-17.3,19-6,37-1.78,50.63,11.86l.15.15L501.18,415l.28.3L911.74,858.44a16,16,0,0,1-5.06,25.4C904.78,884.72,872,899.35,815,899.35ZM333.66,569.43c169,200.16,311.53,267.36,401.9,288.36,62.89,14.62,109.66,9.39,135.36,3.66L478.12,437.2,186.39,137.76c-5.19-5.14-10.67-6.31-18.31-3.9-8.27,2.61-15.66,8.53-18.45,10.95-1.6,1.39-3.23,2.75-4.85,4.12L143,150.4c-35.67,30.07-28.39,70.73-20.93,92.23,37.23-16.73,58.24.48,66.11,9.61,11.8,13.66,24.51,26.49,35.4,37.24L328.05,392.65c11,10.85,19.62,19,28,26.43,49.21,43.55,28.2,78.11,24.61,83.24h0Z"/><path d="M370.61,502.86a16,16,0,0,1-11.32-27.31l90.28-90.28a16,16,0,1,1,22.62,22.63l-90.27,90.27A15.92,15.92,0,0,1,370.61,502.86Z"/><path d="M900,885.31a16,16,0,0,1-3-.28A891.79,891.79,0,0,1,581,759.71a891.88,891.88,0,0,1-244.57-231.3,16,16,0,0,1,26-18.7,860.23,860.23,0,0,0,235.84,223A859.91,859.91,0,0,0,903,853.58a16,16,0,0,1-3,31.73Z"/><path d="M321.77,424.92a16,16,0,0,1-14.66-22.4L353.88,295.4a16,16,0,1,1,29.32,12.8L336.44,415.32A16,16,0,0,1,321.77,424.92Z"/><path d="M205.29,309.86a16,16,0,0,1-14.65-22.4l48.11-110.23A16,16,0,0,1,268.08,190L220,300.26A16,16,0,0,1,205.29,309.86Z"/></svg>