<?xml version="1.0" encoding="utf-8"?>
<!-- Generator: Adobe Illustrator 25.4.1, SVG Export Plug-In . SVG Version: 6.00 Build 0)  -->
<svg version="1.1" id="Layer_1" xmlns="http://www.w3.org/2000/svg" xmlns:xlink="http://www.w3.org/1999/xlink" x="0px" y="0px"
	 viewBox="0 0 520 520" enable-background="new 0 0 520 520" xml:space="preserve">
<g>
	<path fill="#9C1C1C" d="M202.91,144.05c-0.3,0.14-0.59,0.28-0.89,0.41c-0.99-0.03-1.93-0.2-2.9-0.43
		c-3.04-0.72-3.49-0.31-3.48,2.79c-0.51,0.3-1.04,0.15-1.58,0.13c-1.59-0.07-1.91,0.41-1.26,1.8c0.18,0.39,0.51,0.71,0.76,1.06
		c-0.28,0.93-0.91,1.74-0.79,2.81c0.06,0.53,0.11,1.28-0.19,1.59c-2.25,2.28-1.39,4.27,1.02,6.28c-4.31-0.5-5.99,0.69-7.88,5.16
		c-0.25,0.6-0.37,1.26-0.53,1.9c-0.65,2.52-1.07,2.83-3.62,2.41c-0.52-0.09-1.03-0.52-1.4,0.15c-0.33,0.59-0.49,1.3-0.18,1.9
		c0.27,0.52,0.91,0.58,1.47,0.47c0.43-0.08,0.86-0.2,1.26-0.37c1-0.42,1.83-0.21,2.05,0.87c0.29,1.42,1.38,2.17,2.45,2.41
		c2.19,0.5,2.39,1.93,2.24,3.67c-0.07,0.84-0.76,1.93,0.28,2.38c2.1,0.92,1.51,2.14,0.85,3.66c-0.51,1.17,0.53,2.59-0.38,3.81
		c-0.17,0.22-0.09,0.64-0.1,0.97c-0.08,1.58-3.18,0.31-2.53,2.88c0.49,1.93-2.36,1.52-2.92,3.05c-0.18,0.49-0.9-0.08-1.39-0.3
		c-2.32-1-2.34-0.97-3.58,1.59c-1.15-0.72-2.33-1.4-3.44-2.18c-0.61-0.42-1.18-0.7-1.74-0.11c-1.46,1.52-2.71-0.17-2.72-0.77
		c-0.03-2.25-2.32-2.63-3.07-4.23c-0.23-0.5-0.99-0.87-0.78-1.57c0.37-1.24,1.12-2.48-0.53-3.42c-0.06-0.03,0.13-0.57,0.27-0.85
		c0.46-0.98,2.33-2.1-0.56-2.54c-0.93-0.14-0.3-1.52,0.23-1.82c2.9-1.68,1.3-4.53,1.9-6.8c0.07-0.25-0.15-0.8-0.36-0.87
		c-2.12-0.74-3.43-2.28-4.49-4.16c-0.28-0.49-0.9-0.54-1.49-0.45c-1.02,0.16-1.63-0.34-2.07-1.24c-0.62-1.25-1.04-2.61-2.5-3.33
		c-0.93-0.46-0.44-1.55-0.39-2.42c0.13-2.19,0.09-2.21-2.31-2.26c-1.14-0.02-1.45-0.86-0.98-1.51c1.16-1.61,0.49-2.88-0.43-4.14
		c-0.34-0.47-0.73-0.89-0.55-1.46c0.49-1.56-0.76-2.12-1.65-2.97c1.79-2.08,2.58-4.36,1.78-7.15c-0.46-1.61,0.13-3.27,0.57-4.86
		c0.71-2.57,2.14-4.93,2.04-7.74c-0.04-1.18,0.62-1.49,1.97-1.36c2.23,0.22,3.36-1.35,2.88-3.59c-0.31-1.45-0.8-2.86-1.22-4.29
		c0.16-0.15,0.32-0.3,0.49-0.46c1.79,0.29,2.46,2.04,3.82,2.92c1.65,1.08,3.14,2.67,5.16,0.66c0.35-0.35,0.92-0.36,1.15,0.03
		c0.86,1.54,2.9,0.82,3.87,2.13c0.32,0.43,0.82,0.39,1.11-0.01c1.17-1.57,2.69-1.58,4.36-1.08c0.1,0.03,0.23,0.06,0.33,0.02
		c3.96-1.66,6.65,1.26,9.75,2.69c0.63,0.29,1.14,0.75,1.33,1.4c0.64,2.15,2.28,3.2,4.22,3.8c1.51,0.46,1.67,1.18,1.43,2.67
		c-0.27,1.67-0.04,3.42-0.11,5.15c-0.11,2.53,1.31,3.42,4.04,3.03c0.97-0.14,2.07-0.32,2.93,0.01c1.19,0.46,1,1.26-0.17,1.74
		C203.45,143.85,203.18,143.95,202.91,144.05z"/>
	<path fill="#9C1C1C" d="M213.39,341.78c-0.04,0.39-0.25,0.61-0.63,0.66c-0.15-0.04-0.31-0.04-0.47,0.01
		c-0.4-0.24-0.81-0.47-1.21-0.71c-0.23,0.01-0.45,0.03-0.68,0.04c-0.28,0.26-0.55,0.53-0.83,0.79c-1.23-0.3-2.29,0.48-3.45,0.52
		c-0.82,0.03-1.97,0.42-2.33-0.53c-0.7-1.86-2-1.59-3.4-1.31c-0.35,0.18-0.69,0.37-1.04,0.55c-0.65-0.05-1.15,0.33-1.68,0.62
		c0,0-0.14-0.03-0.14-0.03c-0.78-0.98-1.87-0.54-2.84-0.6c-0.66-0.56-1.45-1.03-1.96-1.71c-1.4-1.87-2.91-2.9-5.34-1.71
		c-0.89,0.44-1.83,0.34-2.23-1.08c-0.69-2.46-2.17-3.45-4.99-3.54c1.41-2.25-0.22-4.38-0.01-6.65c0.1-1.05,0.02-2.14,0.28-3.2
		c0.34-1.41,1.29-2.72-0.23-4.22c-0.66-0.66-0.23-2.19,0.26-3.14c0.74-1.42,0.09-2.02-1.06-2.28c-0.03-0.98,0.64-1.01,1.06-1.25
		c2.24-1.32,2.37-1.73,0.59-3.54c-0.76-0.77-0.85-1.28,0.02-1.77c1.06-0.58,0.65-2.3,2.32-2.53c1.02-0.14,0.94-1.4,0.41-2.2
		c-1.02-1.53-0.8-2.5,1.11-2.67c1.9-0.17,2.36-1.45,2.37-2.96c0-0.78-0.36-1.81,0.7-1.74c1.38,0.09,1.86-2.34,3.41-1.11
		c1.92,1.52,3.02,0.24,3.99-1.13c0.62-0.87,1.15-1.41,2.04-0.53c0.85,0.84,1.65,0.13,2.47,0.04c1.37-0.14,2.57-1.17,4.12,0.16
		c0.85,0.73,2.32-0.98,3.7-0.66c0.69,2.71,0.72,2.85,3.31,2.19c1.28-0.33,2.06,0.43,3.05,0.71c0.94,0.26,1.75,0.79,2.83,0.46
		c2.65-0.82,2.66-0.77,3.09,1.92c0.05,0.32,0.14,0.63,0.2,0.91c0.59,0.26,1.12,0.22,1.66,0.04c0.51-0.17,1.02-0.36,1.62-0.57
		c0.48,0.82,1.26,1.56,1.27,2.3c0.03,1.63,0.43,2.74,2.12,3.17c0.4,0.1,0.86,0.52,0.72,0.97c-0.88,2.88,1.27,2.69,2.96,3
		c0.3,0.05,0.58,0.21,0.95,0.36c-0.14,0.31-0.27,0.72-0.49,1.06c-1.69,2.65-1.5,3.37,1.4,4.4c1.46,0.52,1.25,1.12,0.51,2.15
		c-1.05,1.46-0.98,1.51,0.77,2.85c-2.08,1.33-2.41,3.19-1.77,5.45c0.33,1.13,0.12,1.04-1.28,2.03c-1.33,0.95-2.44,2.2-3.65,3.32
		c0.73,2.24-0.99,2.1-2.29,2.33c-1.19,0.21-1.61,1.06-1.79,2.09c-0.17,0.98-0.62,1.6-1.69,1.7c-1.38,0.13-1.61,1.05-1.24,2.13
		c0.34,0.99-0.19,1.68-0.53,2.47c-0.03,0.06,0.09,0.19,0.16,0.27c0.02,0.03,0.11,0,0.16-0.01c-0.05-0.09-0.08-0.2-0.15-0.28
		c-0.45-0.47-1.33-0.26-1.59-1.03c-0.33-0.12-0.65-0.23-0.98-0.35c-0.74,0.51-0.55,1.47-1.02,2.11
		C215.01,340.65,213.62,340.01,213.39,341.78z"/>
	<path fill="#9C1C1C" d="M111.66,171.03c0.08,0.34,0.16,0.69,0.24,1.03c-0.52,2.07-0.52,2.06,1.31,1.7c0.43-0.08,0.87-0.07,1.31-0.1
		c0.32,0.62,0.14,1.12-0.4,1.52c0,0,0.02-0.13,0.02-0.13c-0.04,0.71-0.09,1.42-0.13,2.14c0.61,2.09,0.42,4.27,0.74,6.39
		c-0.74-0.05-1.2-0.39-1.38-1.15c-0.18-0.75-0.46-1.54-1.17-1.9c-0.54-0.28-1.27-0.47-1.68,0.35l0.66,3.65
		c0.27,0.85,0.32,1.7-0.91,1.39c-1.29-0.33-1.86,0.19-2.18,1.3c-0.28,0.97-1.05,0.9-1.82,1.02c-0.84,0.13-1.59-0.86-2.62,0
		c0.73,0.79,1.71,1.73,2.4,1.95c2.64,0.83,1.18,2.25,0.98,3.69c-0.19,1.33-1.14,1.18-1.57,0.81c-2.01-1.69-4.08-0.99-6.22-0.51
		c-0.75,0.17-1.75,0.08-1.53,1.18c0.24,1.21,1.3,0.13,1.91,0.44c0.24,0.12,0.3,0.32,0.14,0.66c-1.17,0.66-2.46,1.16-3.93,0.97
		c-0.53-0.36-1.06-0.71-1.59-1.07c-0.43-1.5-4.26-0.21-2.73-3.33c-0.21-0.05-0.41-0.13-0.62-0.15c-0.65-0.08-1.33-0.1-1.43-0.98
		c0.82-0.95,2.41,0.33,3.19-1.25c-0.93-0.49-2.24-0.69-2.6-1.72c-0.75-2.14-2.48-2.75-4.38-3.21c0.17-0.25,0.34-0.51,0.51-0.76
		c1.48-1.25,0.17-1.53-0.68-1.97c0,0,0.01,0.03,0.01,0.03c0.12-0.17,0.14-0.35,0.05-0.54c0.08-0.45,0.07-0.98-0.36-1.18
		c-1.73-0.8-3.98-0.25-5.34-2.06c-0.09-0.12-0.66-0.02-0.89,0.15c-1.57,1.11-2.38-0.16-2.77-1.17c-0.49-1.3-1.24-2.23-2.18-3.18
		c-1.65-1.69-1.03-4.38-2.5-6.2c-0.09-0.12-0.07-0.5,0.02-0.56c1.96-1.27,0.65-3.73,1.98-5.38c0.54-0.67,0.7-1.67,1.68-2.14
		c0.58-0.27,1.38-0.75,1.47-1.25c0.78-4.4,4.13-3.39,6.99-3.45c0.11,0,0.23,0.06,0.33,0.03c3.86-1.03,6.52,0.85,8.78,3.64
		c0.38,0.47,0.97,0.95,1.34,0.8c2.3-0.98,3.02,1.17,3.77,2.22c1.54,2.14,2.89,3.8,5.87,2.78c0.67-0.23,0.83,0.86,1.04,1.46
		c0.43,0.75,0.87,0.73,1.33,0.02c0.67-0.73,1.33-0.53,1.78,0.17c0.39,0.59,0.57,1.31,0.85,1.97c0.16,0.47,0.52,0.61,0.97,0.58
		c0.13,0.18,0.27,0.35,0.4,0.53C110.37,171.03,111.03,171,111.66,171.03z"/>
	<path fill="#9C1C1C" d="M111.22,161.74c-4.98,0.08-6.63-1.34-7.88-5.14c-0.1-0.29-0.18-0.54-0.42-0.81
		c-2.07-2.38-2.26-3.86-0.82-6.8c0.29-0.59,0.01-1.04,0.08-1.51c0.13-0.92,0.24-1.82,1.12-2.58c1.51-1.31,1.22-2.7-0.78-3.19
		c-1.09-0.27-1.11-0.5-1-1.37c0.06-0.51-0.07-1.19-0.38-1.56c-1.16-1.36-0.61-2.89-0.83-4.32c-0.33-2.12,0.54-2.88,1.79-3.86
		c0.26-0.2,0.66-0.5,0.64-0.72c-0.24-2.8,2.8-2.06,3.77-3.54c0.18-0.27,0.62-0.34,0.86-0.08c1.42,1.59,2.78,0.62,4.16-0.04
		c0.29-0.14,0.74-0.42,0.89-0.31c2.04,1.38,5.12,1.69,5.98,4.17c0.52,1.5,1.27,2.62,2.12,3.81c0.9,1.26,1.88,1.39,2.51-0.01
		c0.54-1.21,1.58-1.45,2.37-2.12c2.95-2.48,6.21-0.96,9.38-0.63c0.59,0.06,0.59,0.58,0.59,0.98c0,0.77,0.56,1.16,1.03,1.61
		c2.43,2.37,2.18,5.33,1.37,8.12c-0.38,1.33-1.77,2.36-1.58,4.04c0.04,0.38-0.46,0.78-0.91,0.83c-1.2,0.14-2.44,0.13-3.19,1.34
		c-2.4-0.68-4.93,0.29-7.31-0.59c-0.43-0.16-0.77-0.59-0.72-1.02c0.24-2.26-1.86-3.06-2.86-4.52c-0.83-1.21-2.66-0.99-3.41,0.09
		c-0.81,1.17-0.59,2.54,0.77,2.93c2.22,0.65,2.76,1.97,2.53,4.1c-0.25,2.33,0.63,4.74-0.46,7.03c-0.17,0.37,0.09,1-0.43,1.15
		c-2.22,0.64-2.16,4.33-5.18,3.85c-0.9-0.14-1.34,0.66-2.03,0.94C112.37,162.25,111.82,161.36,111.22,161.74z M120.7,134.8
		c-0.95,0.32-1.09,1.08-1,1.86c0.05,0.47,0.1,1.25,0.88,1.1c0.94-0.19,1.04-1.01,0.92-1.8C121.43,135.47,121.45,134.82,120.7,134.8z
		 M121.16,139.51c-0.13-0.34-0.43-0.36-0.71-0.33c-0.28,0.03-0.69,0.02-0.6,0.43c0.04,0.18,0.43,0.36,0.68,0.39
		C120.82,140.03,121.13,139.9,121.16,139.51z"/>
	<path fill="#9C1C1C" d="M268.92,356.75c-0.84-1.67-0.84-3.3-0.12-5.07c0.83-2.04,1.1-2.34,3.07-1.78c0.62,0.18,1.61,0.85,1.8,0.44
		c0.72-1.56,2.14-0.13,3.19-1.04c1.79-1.55,4.28-1.95,6.6-2.3c3.05-0.46,5.49,1.16,7.7,2.95c2.44,1.98,3.09,5,4.03,7.82
		c0.5,1.51,0.85,3.01-1.06,3.89c-0.28,0.13-0.66,0.41-0.7,0.67c-0.39,2.5-2.13,2.95-4.22,2.8c-1.54-0.11-0.99,2.38-2.56,2.04
		c-1.05-0.23-2.11-1.42-3.07-0.88c-1.6,0.9-2.45,0.32-3.74-0.61c-1.08-0.78-2.69-0.83-4.31-1.28c-0.47,1.13-0.91,2.21-1.35,3.28
		c-0.71,1.72-0.87,3.67-3.02,4.61c-1.19,0.52-0.81,2.36-1.56,3.46c-1.71,0.16-3.71-1.03-5.08,1.03c-0.23,0.35-0.96,0.26-1.17-0.12
		c-1.11-2.01-3.89-0.73-4.98-2.52c-0.97-1.61-2.34-2.84-3.56-4.19c-0.78-0.86-2.03-2.59-2.62-2.16c-1.96,1.45-2.59-0.8-3.85-1.08
		c-1.78-0.4-2.29-1.8-1.65-3.7c0.34-1.02-0.13-1.5-0.64-1.97c-1.16-1.07-0.55-1.86,0.26-2.69c0.12-0.01,0.21-0.08,0.25-0.19
		c0.06-0.59,0.13-1.18,0.19-1.77c0.16-0.2,0.31-0.4,0.47-0.6c0.08-0.4,0.3-0.66,0.73-0.69c0.57,0.01,1.03-0.14,1.21-0.76
		c0,0-0.03,0.03-0.03,0.03c0.52-0.64,2.75,1.03,1.94-1.42c0,0-0.01,0.01-0.01,0.01c0.76,0.13,1.53,0.35,2.1-0.43
		c0.11-0.19,0.26-0.26,0.48-0.2c0.29,0.03,0.59,0.06,0.88,0.09c0.22,0.27,0.45,0.54,0.67,0.81c0.58,0.74,1.36,0.52,2.11,0.45
		c0.38,0.03,0.52,0.29,0.55,0.63c0.09,0.41,0.34,0.65,0.76,0.7c0.22-0.04,0.4,0.03,0.54,0.2c0.31,0.5,0.79,0.56,1.31,0.52
		c0.67,0.42,0.48,1.12,0.57,1.73c1.21,1.58,1.91,0.34,2.69-0.49c0,0-0.01,0-0.01,0c0.57,0.21,1.13,0.42,1.7,0.62
		c0.17-0.08,0.28-0.04,0.35,0.13c0.65,0.88,1.31,0.88,1.98,0.01c0,0,0.04-0.01,0.04-0.01C268.42,357.76,268.91,357.54,268.92,356.75
		z M252.7,354.8c-0.04-0.07-0.06-0.17-0.12-0.19c-0.07-0.03-0.2-0.02-0.24,0.03c-0.14,0.16-0.08,0.28,0.16,0.29
		C252.56,354.93,252.63,354.85,252.7,354.8z"/>
	<path fill="#9C1C1C" d="M453.53,259.33c-2.85,0.39-5.59-0.71-8.48-0.16c-1.89,0.36-3.92-0.84-5.92,0.51
		c-0.8,0.54-1.81-0.43-2.37-1.33c-0.66-1.06-1.57-1.62-2.8-2.07c-2.55-0.92-3.79-3.54-5.83-5.16c-0.2-0.16-0.28-0.63-0.23-0.92
		c0.28-1.64-0.29-2.75-1.41-4.07c-1.38-1.62-0.72-3.93-0.5-5.96c0.03-0.3,0.44-0.68,0.35-0.86c-1.78-3.59,1.23-5.51,2.84-7.81
		c1.11-1.58,2.85-2.72,4.08-4.23c0.84-1.04,2.08-0.06,2.67-0.73c1.43-1.61,2.79,0.94,4.25-0.14c1.67-1.24,2.64,0.77,3.89,1.06
		c2.8,0.65,4.17,3.86,7.3,3.65c0.71-0.05,1.15,0.61,1.31,1.3c0.38,1.61,1.59,2.87,1.86,4.55c0.19,1.17,0.8,2.05,1.99,2.79
		c2.09,1.3,2.37,2.68,1.08,4.61c-1.06,1.58-0.45,2.57,0.5,3.79c1.61,2.05,1.58,2.14-0.83,3.08c-1.29,0.5-1.29,1.32-0.9,2.36
		c0.35,0.94,0.47,1.77-0.89,1.86c-3.12,0.21-3.15,0.25-2.15,3C453.43,258.74,453.47,259.06,453.53,259.33z"/>
	<path fill="#9C1C1C" d="M95.82,197.41c1.47,0.19,2.76-0.31,3.93-0.97c0.16-0.34,0.1-0.53-0.14-0.66c-0.61-0.31-1.67,0.77-1.91-0.44
		c-0.22-1.1,0.79-1.01,1.53-1.18c2.13-0.48,4.21-1.18,6.22,0.51c0.44,0.37,1.38,0.53,1.57-0.81c0.2-1.43,1.66-2.85-0.98-3.69
		c-0.68-0.22-1.66-1.16-2.4-1.95c1.02-0.86,1.78,0.13,2.62,0c0.77-0.12,1.55-0.05,1.82-1.02c0.31-1.1,0.89-1.62,2.18-1.3
		c1.23,0.31,1.18-0.54,0.91-1.39l-0.66-3.65c0.41-0.82,1.14-0.63,1.68-0.35c0.71,0.37,0.99,1.15,1.17,1.9
		c0.18,0.76,0.64,1.1,1.38,1.15l-0.01-0.01c0.2,0.22,0.41,0.44,0.61,0.65c-0.48,0.81-1.57,1.5-0.52,2.62
		c-0.78,0.17-1.69,0.35-0.88,1.4c0.37,0.47,1.04,0.74,1.62,1.01c0.55,0.26,1.16,0.1,1.35-0.45c0.21-0.62-0.79-0.63-0.86-1.21
		c2.92-0.87,5.67,0.24,8.44,0.8c0.56,0.11,1.42,0.76,1.5,1.59c0.1,0.94,0.66,1.3,1.41,1.6c0.39,0.16,1.08,0.44,1.06,0.61
		c-0.21,2.33,1.66,4.08,1.61,6.48c-0.03,1.7-1.95,1.92-1.78,3.64c0.12,1.22-0.49,2.8-2.39,2.77c-0.42-0.01-0.58,0.36-0.63,0.65
		c-0.35,1.79-1.42,1.07-2.64,1.13c-1.89,0.1-3.8,0.65-5.61-0.04c-2.15-0.82-4.19-1.93-6.28-2.92c0-2.15-1.74-3.7-1.99-5.76
		c0.55-0.32,1.29-0.62,1.03-1.4c-0.25-0.77-1.05-0.67-1.63-0.46c-0.7,0.25-0.51,0.8-0.18,1.29c-0.46,0.03-0.96-0.03-0.99-0.57
		c-0.06-1.21-0.38-1.69-1.54-0.81c-0.42,0.32-0.93,0.6-1.44,0.73c-1.66,0.42-2.13,1.35-1.42,2.91c0.37,0.81,0.35,1.64-0.2,2.46
		c-0.03-0.6-0.06-1.2-0.08-1.8c-0.1-2.78-1.86-3.92-4.28-2.49C96.76,198.77,96.34,198.39,95.82,197.41z M120.69,188.88
		c-0.23-0.18-0.43-0.42-0.7-0.53c-0.27-0.11-0.61-0.1-0.72,0.28c-0.01,0.02,0.33,0.18,0.51,0.21
		C120.08,188.87,120.39,188.86,120.69,188.88c-1.42,1.08-2.51,2.4-2.82,4.31c-1.19-0.37-2.35-0.48-2.8-1.67
		c-0.29-0.75-0.88-0.76-1.28-0.45c-0.97,0.77-2.51,1.09-2.53,2.75c3.01,0.78,3.49,1.61,2.01,4.19c-0.68,1.18-1.19,2.56-2.65,3.18
		c2.14,1.67,3.99,0.55,5.44,0.02c1.49,1-0.62,1.5,0.13,2.04c0.54,0.39,1.45,0.28,2.27,0.41c0.17-0.7,0.19-1.42,0.51-1.95
		c0.98-1.63,2.25-3.06,3.2-4.74c0.32-0.55,0.99-0.94,0.41-1.47c-1.03-0.94-0.56-1.5,0.07-2.43
		C123.9,191.25,123.01,189.52,120.69,188.88z"/>
	<path fill="#9C1C1C" d="M153.85,470.25c0.96-1.62,0.97-3.13,0.66-4.79c-0.6-3.23-0.34-6.31,2.17-8.83c0.42-0.43,0.87-0.75,1.41-0.7
		c2.09,0.2,2.59-1.05,2.55-3.04c0.72,3.07,2.94,3.96,5.35,4c1.86,0.02,2.58,1.82,4.3,1.98c1.14,0.11,2.21,0.53,2.71-0.85
		c0.46-1.28,1.7-1.37,2.62-1.79c2.01-0.91,4.53,0.19,5.2,2.04c0.98,2.69-0.11,5.3-2.62,5.93c-0.89,0.22-1.79,0.8-2.81,0.36
		c-1.92-0.84-2.82,0.51-3.67,1.81c-2.94,4.5-9.35,6.76-14.12,4.66C156.41,470.49,155.67,468.78,153.85,470.25z"/>
	<path fill="#9C1C1C" d="M232.32,439.84c0.12,0.18,0.24,0.36,0.36,0.55c-0.09,0.61-0.07,1.18,0.6,1.49
		c0.62,0.55,0.81,1.21,0.51,1.99c-0.81,2.26-0.9,4.65-1.26,6.99c-0.08,0.21-0.23,0.3-0.46,0.3c0,0-0.12,0.14-0.12,0.14
		c0,0.26-0.13,0.42-0.38,0.48c-0.32,0.37-0.65,0.75-0.97,1.12c0,0-0.2,0.14-0.2,0.14s-0.24-0.05-0.24-0.05
		c-3.24-0.01-6.5,0.46-9.72-0.33c-0.24-0.06-0.58,0.26-0.87,0.4c-0.31-0.3-0.61-0.59-0.92-0.89c-0.31-0.43-0.75-0.43-1.21-0.4
		c0,0-0.04-0.03-0.04-0.03c0.25-1.43-0.75-2.34-1.42-3.39c-0.04-0.25-0.08-0.49-0.12-0.74c0.3-2.25,0.38-4.5,0.16-6.76l-0.07-0.17
		c0,0,0.14-0.13,0.14-0.13c1.72-0.03,1.16-1.81,1.97-2.54c0.14-0.4,0.36-0.7,0.82-0.74c0.22-0.01,0.39-0.11,0.52-0.29
		c-0.06-0.18,0-0.29,0.18-0.33c0.75-0.07,1.55-0.02,1.87-0.94c-0.05-0.18,0.02-0.31,0.2-0.37c1.63-0.01,3.26-0.03,4.9-0.04
		c0,0,0.08,0.07,0.08,0.07c0.35,0.8,1,1.2,1.83,1.34c0.12,0.78,0.66,1.16,1.36,1.36C230.66,438.65,231.49,439.24,232.32,439.84z"/>
	<path fill="#9C1C1C" d="M176.12,264.49c0.61,0.94,1.03,1.82,2.56,1.97c2.22,0.21,4.09,3.41,4.01,6.46
		c-0.05,1.77,0.94,3.81-0.87,5.35c-1.43,1.22-1.21,3.74-3.61,4.3c-1.16,0.27-0.2,2.31-1.48,2.69c-1.45,0.43-1.07-1.78-2.3-1.84
		c-0.22-0.01-0.45-0.1-0.65-0.05c-3.32,0.91-4.15-2.09-5.64-3.79c-0.88-1-1.24-2.56-1.57-3.94c-0.38-1.62-0.29-3.14,0.45-4.85
		c1.29-2.98,3.24-4.49,6.4-4.45C174.74,266.34,175.12,265.16,176.12,264.49z"/>
	<path fill="#9C1C1C" d="M425.11,356.28c-0.5,0.3-1.28,0.5-1.57,0.99c-0.96,1.63-2.45,2.62-3.91,3.69
		c-0.87,0.64-1.72,1.44-0.69,2.59c0.9,1.01,0.41,2.15,0.22,3.14c-0.36,1.82-2.19,2.76-4,2.34c-2.12-0.49-3.64-2.18-2.79-3.9
		c1.43-2.89,0.93-5.18-0.1-8.11c-1.49-4.22,0.5-8.55,4.95-11.5c0.54-0.36,0.67-0.09,1.03,0.17c1.18,0.83,2.6,1.2,3.88,1.86
		c3.17,1.62,4.09,2.9,3.8,6.5c-0.02,0.22-0.12,0.54-0.02,0.64C427.31,356.02,425.5,355.77,425.11,356.28z"/>
	<path fill="#9C1C1C" d="M411.37,415.37c-0.35-0.55-0.84-0.55-1.43-0.46c-4.04,0.57-6.61-1.75-8.81-4.65
		c-0.35-0.46-0.86-0.95-0.64-1.75c0.84-3.07,1.82-6.09,4.26-8.3c1.03-0.93,2.23-1.45,3.83-1.1c5.93,1.32,8.73,4.11,8.86,9.92
		c0.01,0.57-0.2,1.31-0.86,1.68c-0.33,0.17-0.49,0.43-0.47,0.8c0.06,0.26-0.03,0.43-0.29,0.52c-0.46-0.04-0.86,0.06-1.07,0.53
		c-0.77,0.87-2.01,0.81-2.89,1.48c-0.45,0.34-0.9,0.65-0.45,1.29L411.37,415.37z"/>
	<path fill="#9C1C1C" d="M78.38,328.95c-0.17,1.02-0.89,1.55-0.34,2.23c0.43,0.54,1.07,0.97-0.35,0.92
		c-1.12-0.04-2.03,0.67-2.71,1.59c-0.58,0.79-1.27,1.32-2.22,1.75c-1.24,0.57-2.21,1.43-1.41,3.34c0.57,1.35-0.04,2.98-1.59,3.92
		c-1.4,0.85-2.5,0.26-3.58-0.58c-1.27-0.99-1.61-2.29-0.52-4.04c1.02-1.63,1.12-2.79,0.3-4.67c-1.52-3.48-0.14-8.59,4.21-10.65
		c0.78-0.37,1.08-0.59,1.87-0.06c1.19,0.8,2.6,1.25,3.86,1.96C77.72,325.68,78.01,327.55,78.38,328.95z"/>
	<path fill="#9C1C1C" d="M387.8,43.3c0.4,0.13,0.99,0.19,1.43,0.48c1.02,0.67,1.82,0.28,2.7-0.28c4.06-2.62,7.39-2.2,10.82,1.06
		c0.83,0.79,1.12,1.04,0.47,2.18c-0.4,0.7-0.65,1.74-0.9,2.65c-0.74,2.7-1.73,3.49-4.49,3.76c-0.43,0.04-0.9-0.12-1.22,0.28
		c-0.5,0.63-0.76,0.99-0.83-0.24c-0.05-0.9-0.75-1.56-1.56-1.97c-0.88-0.45-1.62-0.94-2.23-1.82c-0.78-1.11-1.8-1.64-3.34-0.66
		c-1.27,0.8-2.77,0.36-3.83-0.88c-0.84-0.99-0.53-1.99-0.1-3.05C385.29,43.44,386.39,43.24,387.8,43.3z"/>
	<path fill="#9C1C1C" d="M180.32,494.64c-0.21,0.5-0.43,1.01-0.64,1.51c-0.94,0.47-0.68,1.36-0.75,2.13
		c-2.43,2.33-4.71,2.48-7.11,0.46c-1.26-1.06-1.51-2.91-0.97-3.85c1.85-3.22,2.24-7.16,4.92-9.94c0.46,0.01,0.91-0.01,1.18-0.47
		c0.21-0.09,0.41-0.18,0.62-0.27c2.49-0.14,3.69,2.72,6.19,2.69c0.26,0,0.54,0.86,0.79,1.33c0.48,0.89,0.29,1.9,0.47,2.85
		c0.13,0.43,0.17,0.83-0.27,1.12c-0.17,0.16-0.35,0.33-0.52,0.49c0,0-0.15,0.12-0.15,0.12c-0.19,0.01-0.32,0.09-0.41,0.26
		c-0.26,0.15-0.52,0.29-0.78,0.44c-0.23-0.03-0.41,0.05-0.54,0.24c-0.26,0.14-0.53,0.28-0.79,0.42
		C181.06,494.09,180.61,494.16,180.32,494.64z"/>
	<path fill="#9C1C1C" d="M66.35,379.89c-0.25,0.35-0.5,0.7-0.74,1.05c-0.85,0.36-1.7,0.71-2.55,1.07c-0.06,0.14-0.17,0.21-0.32,0.21
		c-2.33,0.84-4.59,1.09-6.69-0.66c-0.39-0.33-0.99-0.41-1.5-0.61c-0.22-0.4-0.44-0.8-0.66-1.21c-0.16-0.52-0.5-0.82-1.06-0.83
		c-0.09-0.29-0.18-0.59-0.27-0.88c-0.05-0.41-0.09-0.81-0.14-1.22c-0.03-0.47,0.09-0.89,0.44-1.22c0.2-0.1,0.3-0.25,0.32-0.48
		c0.17-0.49,0.1-1.07,0.56-1.44c1.28-0.49,1.57-1.69,2-2.79c0.16-0.17,0.32-0.34,0.48-0.51c2.6-0.94,5.05-0.93,7.21,1.09
		c0.2,0.18,0.62,0.13,0.93,0.19c0,0,0.03,0.02,0.03,0.02c0.22,0.73,0.78,1.11,1.43,1.39c0.15,0.19,0.29,0.39,0.44,0.58
		c0.34,1.52-0.46,3.2,0.68,4.6c0.05,0.16,0.12,0.32,0.13,0.48c0.01,0.07-0.11,0.15-0.17,0.22
		C66.47,379.11,66.33,379.46,66.35,379.89z"/>
	<path fill="#9C1C1C" d="M227.33,344.53c0.08-0.22,0.17-0.44,0.25-0.66c1.71,0.08,2.69-1.12,3.77-2.15
		c1.66-1.59,3.49-2.75,5.92-2.53c0,0,0,0,0,0c1.18,1.09,2.09,2.36,2.91,3.75c1.37,2.32,1.33,5.45-0.3,7.74
		c-0.05,0.46-0.18,0.88-0.64,1.1c-1.1-0.05-2.17,0.1-3.27,0.25c-2.85,0.37-5.68,0.38-7.52-2.49c-0.15-0.24-0.55-0.33-0.83-0.49
		c0,0-0.24-0.08-0.24-0.08C227.36,347.49,227.34,346.01,227.33,344.53z"/>
	<path fill="#9C1C1C" d="M238.89,414.65c-0.74,1.8,0.1,2.16,1.3,2.63c3.56,1.4,4.01,3.18,1.77,6.16c-0.52,0.69-1,1.32-1.24,2.24
		c-0.46,1.78-2.19,2.56-3.76,1.97c-1.74-0.66-2.26-2.04-1.5-4.04c0.27-0.7,0.88-1.26,0.78-2.12c-0.09-0.85,0.12-1.81-1.31-1.63
		c-1,0.13-1.67-0.26-1.7-1.45c-0.03-1.03-0.79-1.79-1.18-2.69c-1.13-2.58,0.6-5.71,3.35-5.96c1.65-0.15,2.53,1.15,3.09,2.44
		C238.87,413.02,238.81,414.04,238.89,414.65z"/>
	<path fill="#9C1C1C" d="M185.06,367.47c-3.15,0.04-5.53-3.33-4.45-6.55c1.14-3.39,3.57-5.05,6.91-5.79c1.58-0.35,2.4,1.1,3.77,1.3
		c1,0.15,0.55,1.26,0.65,1.96c0.29,1.96,1.15,3.84-0.49,5.81C189.8,366.19,187.87,367.28,185.06,367.47z"/>
	<path fill="#9C1C1C" d="M347.51,42.61c-0.21-0.57-0.1-1.05,0.43-1.39c2.55-2.54,5.35-2.54,8.34-0.87c0.25,0.14,0.63,0.07,0.95,0.09
		c0,0-0.03-0.03-0.03-0.03c0.31,1.09,1.06,1.73,2.09,2.09l0.05,0.2c0,0-0.18,0.1-0.18,0.1c0.35,2.65-1.62,4.61-2.07,7.02
		c-0.22,0.21-0.44,0.42-0.66,0.62c-0.2,0.13-0.4,0.25-0.6,0.38c-0.28,0.08-0.56,0.16-0.85,0.24c-1.85-0.15-3.79,0.55-5.52-0.65
		l-0.19-0.08c0,0,0-0.21,0-0.21c-0.03-0.85-0.19-1.62-1.22-1.79c-0.16-0.71-0.04-1.57-0.96-1.89c-0.79-0.79-0.48-1.7-0.3-2.59
		C347.49,43.72,348.13,43.53,347.51,42.61z"/>
	<path fill="#9C1C1C" d="M389.44,359.92c-1.19-0.96-1.02-2.3-1.02-3.59c0-0.73,0.48-1.48-0.15-2.17c-0.05-0.85-0.58-1.12-1.34-1.11
		c-0.82-0.71-0.82-1.64-0.66-2.6c0.6-0.36,0.65-0.92,0.56-1.52c-0.04-0.22,0.04-0.37,0.24-0.46c0.18-0.18,0.36-0.36,0.54-0.55
		c0,0,0.11-0.07,0.11-0.07c0.19,0.01,0.34-0.07,0.44-0.23c0.25-0.16,0.5-0.32,0.74-0.48c0.66,0,1.31,0,1.97,0.01
		c0,0,0.03,0.01,0.03,0.01c0.29,0.55,0.77,0.68,1.34,0.63c0.88,0.89,1.69,1.82,2.26,2.96c0.45,0.91,0.96,2,2.32,1.06l0.02,0.02
		c-0.9,0.65,0.3,1.23,0.06,1.86c-0.01,0.35,0.14,0.6,0.46,0.74c0.19,0.14,0.26,0.33,0.21,0.56c-0.88,3.91-2.83,5.36-7.28,5.39
		c-0.3-0.2-0.6-0.4-0.89-0.59C389.39,359.79,389.44,359.92,389.44,359.92z"/>
	<path fill="#9C1C1C" d="M396.82,351.82c0.87-0.6-0.04-1.11-0.12-1.65c-0.11-0.75-0.64-1.58-0.23-2.23
		c0.99-1.56,1.72-3.08,1.56-5.04c-0.09-1.09,1.12-1.67,2.04-1.82c1.17-0.19,2.38,0.06,3.27,1.08c0.62,0.7,0.53,1.65,0.94,2.51
		c1.66-0.15,3.57-0.92,4.47,1.34c0.51,1.28-0.23,3.05-1.45,3.67c-1.16,0.59-2.53-0.01-4.06-1.8c-0.65,0.24-0.38,0.89-0.56,1.33
		c-1.03,2.51-1.86,2.99-4.52,2.48c-0.47-0.09-0.96-0.65-1.32,0.15C396.83,351.83,396.82,351.82,396.82,351.82z"/>
	<path fill="#9C1C1C" d="M272.31,280.83c0.07,2.87-2.5,5.43-5.43,5.42c-2.79-0.01-4.9-2.11-5.03-5.02c-0.13-2.93,2.4-5.55,5.26-5.72
		C269.31,275.39,272.46,277.93,272.31,280.83z"/>
	<path fill="#9C1C1C" d="M427.69,430.16c0.03,0.01-0.38,0.04-0.58-0.15c-1.85-1.74-3.33-0.8-5,0.43c-1.24,0.91-2.98,0.36-3.33-0.91
		c-0.59-2.13-4.06-3.38-2.03-6.26c0.8-1.13,2.36-1.21,3.45-0.23c0.57,0.51,0.97,1.22,1.57,1.67c0.57,0.43,1.04,0.68,1.85-0.18
		c1.87-1.96,6.42-0.69,7.28,1.84C431.7,428.72,430.55,430.25,427.69,430.16z"/>
	<path fill="#9C1C1C" d="M265.37,152.09c-2.29,0.51-4.69-2.89-4.56-5.02c0.16-2.67,2.75-5.23,5.41-5.25
		c2.57-0.02,4.84,2.43,4.83,5.24C271.04,150.06,268.71,152.13,265.37,152.09z"/>
	<path fill="#9C1C1C" d="M51.8,326.66c0.28,1.52,1.98,2.81,0.73,4.57c-1.57,2.3-3.78,3.02-6.45,2.62c-0.65-0.41-1.71-0.9-1.46-1.6
		c1.09-3.06-2.33-5.07-1.69-7.95c0.33-1.46,1.5-2.19,2.78-2.55c1.27-0.35,2.38,0.29,3.14,1.32c0.58,0.78,0.99,1.7,1.46,2.56
		C50.65,326.22,50.98,326.78,51.8,326.66L51.8,326.66z"/>
	<path fill="#9C1C1C" d="M481.33,410.49c0.04-2.89,1.47-4.72,3.86-5.13c1.82-0.31,4.49,1.34,5.02,3.47
		c0.48,1.93,1.02,4.05-0.33,5.88c-1.44,1.97-5.29,1.78-7.04-0.25C481.81,413.26,480.98,412,481.33,410.49z"/>
	<path fill="#9C1C1C" d="M67.29,390.3c1.18,0.13,1.67,0.87,2.18,1.6c0.68,0.97,1.24,1.72,2.53,0.42c0.86-0.87,4.63,0,5.44,0.96
		c0.93,1.11,1.25,2.49,0.47,3.67c-0.84,1.26-2.43,1.42-3.52,0.55c-1.5-1.2-2.65-1.12-3.94,0.1c-0.08,0.07-0.19,0.12-0.29,0.16
		c-1.55,0.63-2.8-0.03-3.14-1.42c-0.44-1.78-3.46-3.16-1.04-5.43C66.35,390.57,66.95,390.45,67.29,390.3z"/>
	<path fill="#9C1C1C" d="M131.98,384.72c0.04,2.21-1.61,4.36-3.35,4.37c-2.32,0.02-4.82-2.45-4.91-4.85
		c-0.1-2.79,1.61-5.01,3.97-5.14C129.83,378.98,131.93,381.73,131.98,384.72z"/>
	<path fill="#9C1C1C" d="M397.11,27.23c-0.31,0.53-1.1,0.9-0.73,1.66c0.43,0.89,1.14,0.33,1.69,0.14c2.06-0.71,3.82,0.87,5.94,0.67
		c1.62-0.15,2.12,2.97,0.48,4.11c-1.17,0.82-1.45,1.4-1.23,2.8c0.22,1.4-0.96,2.19-2.33,2.02c-1.38-0.17-2.35-1.13-1.97-2.42
		c0.43-1.45,0.55-2.29-1.21-2.82c-1.15-0.35-1.35-1.59-1.21-2.78c0.21-1.75-0.94-0.93-1.69-0.86C395.25,28.6,396,27.75,397.11,27.23
		z"/>
	<path fill="#9C1C1C" d="M47.83,216.91c0.04,2.42-1.99,4.37-4.63,4.45c-1.98,0.06-3.99-2.09-4.05-4.31
		c-0.06-2.47,1.99-4.56,4.46-4.55C46.14,212.52,47.79,214.23,47.83,216.91z"/>
	<path fill="#9C1C1C" d="M169.72,489.58c-0.68,1.08-1.83,0.87-2.6,0.51c-1.47-0.7-2.36,0.34-3.47,0.76
		c-0.98-0.02-1.97-0.04-2.95-0.06c0,0-0.24-0.09-0.24-0.09c-0.13-0.31-0.35-0.47-0.68-0.48c0,0-0.01-0.02-0.01-0.02
		c0.18-1.25-0.57-2.31-0.75-3.49c-0.04-0.5,0.02-0.96,0.51-1.24c0.42-0.02,0.7-0.23,0.87-0.61c0,0-0.01,0.01-0.01,0.01
		c1.49,0.03,3.7,0.7,4.33-0.02c1.57-1.78,3.39-0.94,5.06-1.33c0,0-0.02-0.02-0.02-0.02c0.15,0.57,0.56,0.76,1.1,0.77
		c0.22,0.08,0.3,0.24,0.25,0.47c-0.05,1.31-0.1,2.62-0.15,3.92c0,0-0.17,0.15-0.17,0.15C170.26,488.84,169.86,489.02,169.72,489.58z
		"/>
	<path fill="#9C1C1C" d="M397.11,27.23c-1.11,0.52-1.87,1.36-2.27,2.52c0,0-0.19,0.11-0.19,0.11c-2.08,0.11-4.27,0.54-5.37-2.01
		c-0.1-0.24-0.52-0.34-0.79-0.5c-0.06-0.34-0.12-0.68-0.18-1.02c0,0,0,0.01,0,0.01c0.15-0.38,0.29-0.75,0.44-1.13
		c0.13-0.09,0.19-0.21,0.16-0.37c0.11-0.39,0.28-0.72,0.7-0.86c0.51,0.04,0.97-0.06,1.27-0.53c1.14-0.43,2.41-0.14,3.3-1.64
		c0.94-1.58,2.95-1.48,4.29-0.35c1.48,1.25,1.5,2.26,0.08,4.43c-0.68,0.07-1.03,0.46-1.11,1.13
		C397.42,27.21,397.31,27.29,397.11,27.23z"/>
	<path fill="#9C1C1C" d="M237.26,339.19c-2.43-0.22-4.26,0.94-5.92,2.53c-1.07,1.03-2.06,2.23-3.77,2.15
		c-0.72-1.91,1.01-2.67,1.92-3.69c0.79-0.89,1.2-1.46,0.19-2.37c-0.23-0.2-0.29-0.58-0.47-0.85c-0.93-1.5-0.82-2.9,0.39-4.2
		c1.02-1.09,2.47-1.26,3.62-0.81c1.4,0.55,2.49,1.73,2.49,3.48c0,0.22,0.03,0.44,0.02,0.65
		C235.61,338.23,235.61,338.23,237.26,339.19z"/>
	<path fill="#9C1C1C" d="M185.02,491.08c-0.18-0.95,0.01-1.95-0.47-2.85c-0.25-0.47-0.53-1.34-0.79-1.33
		c-2.49,0.03-3.69-2.83-6.19-2.69c0.79-1.02,2.09-0.33,3.16-0.95c0-0.59,0.02-1.24,0-1.89c-0.06-1.53,1.28-3.23,2.88-3.59
		c1.48-0.32,2.86,0.19,3.82,1.4c0.86,1.09,0.85,4.16-0.36,4.9c-2.32,1.39-2.17,3.13-1.51,5.2
		C185.77,489.96,185.51,490.57,185.02,491.08z"/>
	<path fill="#9C1C1C" d="M336.53,61.88c1.25-1.45,0.39-2.61-0.86-3.9c-0.91-0.94-0.52-2.37,0.51-2.82c1.57-0.69,2.15-3.49,4.59-2.23
		c1.21,0.62,1.46,1.75,0.46,2.99c-0.91,1.12-1.45,1.74-0.15,3.17c0.77,0.84,0.59,2.71,0.23,4.09c-0.31,1.17-1.98,2.01-3.2,1.79
		C337.01,64.78,336.35,63.61,336.53,61.88z"/>
	<path fill="#9C1C1C" d="M51.8,326.66c0.51-0.11,0.76-0.44,0.6-0.93c-0.5-1.58-0.48-3.04,0.87-4.22c0.62-0.54,0.37-1.21,0.36-1.83
		c-0.02-1.31,0.68-2.11,1.83-2.4c1.26-0.32,2.91,0.05,3.08,1.19c0.37,2.37,2.08,1.97,3.51,2.33c0.16,0.04,0.26,0.32,0.39,0.49
		c-3.23-0.3-3.23-0.3-3.32,3.21c-0.48-0.04-1.1-0.61-1.41,0.06c-1.2,2.63-3.08,2.59-5.33,1.54C52,325.91,51.93,326.4,51.8,326.66
		C51.8,326.66,51.8,326.66,51.8,326.66z"/>
	<path fill="#9C1C1C" d="M357.24,111.36c-1.89-0.04-3.49-1.5-3.42-3.11c0.13-2.8,2.13-4.8,4.78-4.78c2.17,0.02,3.96,1.64,3.95,3.58
		C362.55,109.12,359.73,111.41,357.24,111.36z"/>
	<path fill="#9C1C1C" d="M272.33,293.19c0-2.35,1.87-4.22,4.19-4.2c1.74,0.02,3.81,2.36,3.79,4.29c-0.02,2.03-2.04,4.15-3.94,4.15
		C274.12,297.42,272.33,295.55,272.33,293.19z"/>
	<path fill="#9C1C1C" d="M232.32,439.84c-0.83-0.6-1.67-1.19-2.5-1.79l0.14-0.16c1.01,0.41,1.89,0.44,2.37-0.78
		c0.23-0.59,0.58-1.19,0.05-1.78c-0.69-0.77-1.46-0.64-2.32-0.25c-0.35,0.16-0.87-0.08-1.25,0.03c-1.08,0.32-0.35,0.92-0.15,1.43
		l-0.19,0.13c-0.84-0.14-1.48-0.54-1.83-1.34c0.76,0.09,1.81,0.93,1.91-0.72c0.06-1.14-0.34-2.58,1.72-2.25
		c0.21,0.03,0.56-0.6,0.79-0.96c1.45-2.23,4.1-2.13,5.34,0.25c0.37,0.71,0.04,1.88,1.38,1.87c0,0,0-0.01,0-0.02
		c-1.76,0.15-2.68,2.35-4.75,1.87c-0.78-0.18-0.99,0.56-1.18,1.26C231.5,437.83,231.96,438.81,232.32,439.84z"/>
	<path fill="#9C1C1C" d="M169.77,483.51c-1.67,0.39-3.49-0.45-5.06,1.33c-0.64,0.72-2.84,0.06-4.33,0.02
		c0.98-0.89,0.53-1.52-0.17-2.42c-1.3-1.69-1.21-2.94-0.11-4.13c1-1.08,2.67-1.33,4.23-0.63c1.69,0.76,1.96,2.86,0.6,5.4
		C166.53,483.71,168.34,481.91,169.77,483.51z"/>
	<path fill="#9C1C1C" d="M246.84,199.61c-0.01,2.01-1.29,3.38-3.16,3.4c-2.29,0.02-3.98-1.49-3.91-3.51
		c0.06-1.74,1.65-3.5,3.22-3.54C245.03,195.9,246.85,197.62,246.84,199.61z"/>
	<path fill="#9C1C1C" d="M390.28,360.39c4.45-0.03,6.4-1.48,7.28-5.39c0.77,0.5,0.39,1.32,0.17,1.74c-0.88,1.71-0.86,2.86,1.12,3.85
		c1.2,0.61,1.6,2.07,1.14,3.45c-0.37,1.09-1.25,1.87-2.38,2.02c-1.55,0.2-3.34-0.67-3.42-1.89
		C394.02,361.4,391.8,361.39,390.28,360.39z"/>
	<path fill="#9C1C1C" d="M63.05,382.01c0.85-0.36,1.7-0.71,2.55-1.07c-0.12,1.79-0.09,3.56,0.43,5.31c0.26,0.89-0.06,1.7-0.8,2.34
		c-1.02,0.89-2.37-0.44-3.35,0.56c0.06-0.21,0.21-0.46,0.15-0.64c-0.51-1.5,0.98-3.04,0.19-4.35c-0.94-1.57-2.91-0.29-4.27-1.01
		c-0.47-0.25-1.05-0.34-1.48-0.63c-1.45-0.97-2.18-0.18-3.12,1.57c0.54-1.43,0.86-2.28,1.19-3.14c0.5,0.2,1.1,0.28,1.5,0.61
		c2.1,1.75,4.36,1.49,6.69,0.66c0,0-0.04,0.25-0.04,0.25c-0.59,0.28-1.08,0.64-0.84,1.41c0.14,0.43,0.45,0.68,0.91,0.65
		c0.82-0.06,0.94-0.65,0.95-1.31C64.51,382.27,63.64,382.22,63.05,382.01z"/>
	<path fill="#9C1C1C" d="M174.63,54.51c-0.7-1.34-0.89-2.62-0.97-3.93c-0.2-3.29,0.52-6.61-0.35-9.88
		c-0.16-0.59,0.11-1.14,0.71-1.31c0.65-0.18,1.14,0.32,1.14,0.86c0.03,4.59,1.27,9.18,0.09,13.78
		C175.23,54.11,175.09,54.16,174.63,54.51z"/>
	<path fill="#9C1C1C" d="M227.61,349.05c0.28,0.16,0.67,0.25,0.83,0.49c1.84,2.87,4.67,2.86,7.52,2.49c1.09-0.14,2.17-0.3,3.27-0.25
		c-0.31,0.6-1.38,0.4-1.41,1.21c-0.06,1.46-0.57,1.75-1.8,0.92c-0.57-0.38-1.39-0.48-1.83,0.09c-0.74,0.96-1.13,1.04-1.87-0.03
		c-0.32-0.46-1.27-0.19-1.83,0.17c-0.77,0.49-0.15,1.15-0.1,1.76c0.12,1.5,1.47,2.68,1.2,4.81c-1.65-1.77-1.38-3.99-2.67-5.4
		c-0.06-0.07,0.11-0.37,0.2-0.54c1.09-1.9,1.23-2.47,0.03-2.85C227.41,351.37,228.05,350.02,227.61,349.05z"/>
	<path fill="#9C1C1C" d="M213.64,457.12c0.08,1.76-1.99,3.83-3.8,3.8c-1.39-0.02-3.04-1.8-3.08-3.32c-0.03-1.46,1.27-2.64,3.08-2.79
		C211.38,454.69,213.59,456.03,213.64,457.12z"/>
	<path fill="#9C1C1C" d="M46.08,333.85c2.67,0.4,4.88-0.32,6.45-2.62c0.1,1.09-0.61,2.3,0.93,3.13c1.16,0.62,1.42,2.01,0.9,3.21
		c-0.44,1.03-1.34,1.8-2.61,1.63c-1.29-0.17-2.68-0.95-2.62-2.12C49.27,334.65,47.21,334.79,46.08,333.85z"/>
	<path fill="#9C1C1C" d="M164.11,82.88c0.19,0.71,0.16,1.47-0.64,1.6c-0.73,0.11-1.14-0.66-1.29-1.28c-0.28-1.17-0.41-2.37-0.6-3.56
		c-0.37-2.38-0.75-4.76-1.11-7.14c-0.09-0.57,0.02-1.15,0.65-1.34c0.64-0.2,1.02,0.26,1.27,0.77c0.19,0.39,0.4,0.83,0.38,1.24
		C162.6,76.49,163.38,79.68,164.11,82.88z"/>
	<path fill="#9C1C1C" d="M412.11,416.04c0.29,0.64,0.73,0.69,1.3,0.35c0.68-0.4,0.48-1.18,0.82-1.71c0.53-0.82,1.75-0.79,1.83-0.19
		c0.24,1.7,1.27,3.39,0.56,5.13c-0.61,1.49-1.99,1.65-3.28,1.1c-0.22-0.09-1.13,1.74-0.93-0.29c0.12-1.22-0.25-2.51,0.32-3.76
		c0.16-0.35-0.3-0.5-0.58-0.64C412.13,416.02,412.11,416.04,412.11,416.04z"/>
	<path fill="#9C1C1C" d="M232.98,125.88c1.25,0.07,2.83,1.86,2.79,3.16c-0.04,1.22-1.8,2.99-2.99,2.98c-1.53,0-2.86-1.41-2.82-2.98
		C230,127.24,231.4,125.78,232.98,125.88z"/>
	<path fill="#9C1C1C" d="M388.49,27.35c0.27,0.16,0.69,0.26,0.79,0.5c1.1,2.55,3.29,2.12,5.37,2.01c-0.36,0.62-0.92,0.94-1.62,0.88
		c-1.6-0.15-3-0.44-3.89,1.67c-0.58,1.37-2.6,1.19-3.65,0.06c-0.93-1-0.72-2.73,0.44-3.77C386.68,28.03,387.83,28.16,388.49,27.35z"
		/>
	<path fill="#9C1C1C" d="M240.3,186.89c-0.06-1.86,1-3.14,2.58-3.12c1.45,0.02,2.83,1.46,2.93,3.05c0.09,1.55-1.26,3.06-2.76,3.06
		C241.36,189.88,240.36,188.79,240.3,186.89z"/>
	<path fill="#9C1C1C" d="M85.66,185.7c1.9,0.46,3.63,1.07,4.38,3.21c0.36,1.03,1.67,1.22,2.6,1.72c-0.78,1.58-2.37,0.3-3.19,1.25
		c0.1,0.88,0.78,0.9,1.43,0.98c0.21,0.03,0.41,0.1,0.62,0.15c-1.54,3.11,2.29,1.83,2.73,3.33c-0.22,0-0.44,0-0.66-0.01
		c-0.87-0.03-1.76-0.17-2.62-0.09c-2.08,0.21-0.43-1.47-1.06-1.99c-0.63-0.51-1.3-0.81-1.49-1.9c-0.25-1.52-1.85-2.66-1.46-4.5
		c0.14-0.63-0.46-0.86-1.03-1.03C85.32,186.63,84.98,186.25,85.66,185.7z"/>
	<path fill="#9C1C1C" d="M241.19,129.43c-1.38,0.01-2.63-1.28-2.66-2.75c-0.03-1.56,1.35-2.91,2.9-2.85
		c1.35,0.06,2.57,1.46,2.5,2.88C243.87,128.15,242.59,129.42,241.19,129.43z"/>
	<path fill="#9C1C1C" d="M407.45,391.05c-0.03,1.42-1.88,3.42-3.08,3.32c-1-0.08-2.07-1.64-2.07-3.01c0-1.63,1-2.63,2.63-2.61
		C406.57,388.77,407.48,389.59,407.45,391.05z"/>
	<path fill="#9C1C1C" d="M222.79,168.46c0.02,1.72-0.85,2.71-2.46,2.79c-1.37,0.07-2.81-1.27-2.8-2.6c0.01-1.18,1.77-3.02,2.87-3.01
		C221.99,165.67,222.76,166.58,222.79,168.46z"/>
	<path fill="#9C1C1C" d="M228.46,111.33c1.48-1.06,2.87-2.26,4.45-3.13c1.56-0.86,2.83-2.01,4.15-3.15
		c0.42-0.36,1.03-0.63,1.46-0.13c0.43,0.5,0.13,1-0.39,1.34c-1,0.67-1.93,1.49-3.01,1.99c-2.24,1.03-3.82,3.21-6.31,3.78
		C228.69,111.79,228.58,111.56,228.46,111.33z"/>
	<path fill="#9C1C1C" d="M348.04,48.35c1.03,0.17,1.19,0.93,1.22,1.79c-0.6-0.18-1.02-0.05-1.19,0.64
		c-0.23,0.91-0.71,1.02-1.73,1.19c-3.45,0.59-3.42,0.77-4.08-2.63c1.28-1.07,3.01,0.3,4.29-0.8c0,0-0.02-0.06-0.02-0.06
		c-0.4,0.24-0.73,0.6-0.35,0.99c0.59,0.62,1.4,0.57,2,0.09c0.33-0.26,0.02-0.79-0.33-1.09L348.04,48.35z"/>
	<path fill="#9C1C1C" d="M249.85,23.4c0.95-4.44,4.84-7.02,6.17-11.23C256.69,14.04,254.68,17.61,249.85,23.4z"/>
	<path fill="#9C1C1C" d="M152.99,215.22c-3.88-1.49-6.36-4.35-9.93-6.18c2.86-1.2,4.15,0.94,5.52,2.05
		C150,212.22,152.37,212.36,152.99,215.22z"/>
	<path fill="#9C1C1C" d="M193.55,149.82c-0.26-0.35-0.58-0.67-0.76-1.06c-0.65-1.39-0.33-1.87,1.26-1.8
		c0.55,0.02,1.07,0.17,1.58-0.13c-0.01-3.1,0.44-3.51,3.48-2.79c0.97,0.23,1.92,0.41,2.9,0.43c-0.4,0.14-0.81,0.43-1.2,0.4
		c-2.95-0.16-2.95-0.18-3.2,2.62c-0.14,1.55-0.94,2.13-2.38,1.22C193.39,147.53,193.98,149.28,193.55,149.82z"/>
	<path fill="#9C1C1C" d="M153.67,107.78c-3.86-3.51-5.26-6.3-4.87-9.64C150.86,101.16,152.5,104.06,153.67,107.78z"/>
	<path fill="#9C1C1C" d="M56.56,364.61c-1.22-0.22-1.64-1.14-1.68-2.36c-0.05-1.68,0.78-2.59,2.32-2.51
		c1.26,0.07,2.1,0.64,2.16,1.99C59.4,363.07,57.92,364.62,56.56,364.61z"/>
	<path fill="#9C1C1C" d="M365.67,37.96c1.1,0.15,1.79,0.84,1.83,2.12c0.04,1.27-0.74,2.01-2.01,1.96c-1.22-0.05-2.49-1.1-2.52-2.1
		C362.93,38.94,364.26,37.9,365.67,37.96z"/>
	<path fill="#9C1C1C" d="M163.85,24.54c-0.65-2.35-1.42-4.67-0.64-7.3C164.6,19.01,164.79,20.85,163.85,24.54z"/>
	<path fill="#9C1C1C" d="M210.18,423.97c-0.16,1.08-0.93,1.57-2.07,1.51c-1.16-0.06-1.85-0.73-1.9-1.88
		c-0.05-1.11,1.11-1.98,2.28-1.82C209.56,421.93,210.28,422.81,210.18,423.97z"/>
	<path fill="#9C1C1C" d="M170.74,90.64c0.1,0.61-0.18,1.15-0.74,1.24c-0.59,0.09-0.95-0.4-1.04-1c-0.2-1.28-0.43-2.56-0.62-3.85
		c-0.07-0.47,0.09-0.87,0.62-0.94c0.57-0.07,1.14,0.03,1.25,0.7C170.43,88.06,170.57,89.36,170.74,90.64z"/>
	<path fill="#9C1C1C" d="M161.18,430.39c-0.16,1.06-0.81,1.72-1.99,1.61c-1.12-0.1-1.9-0.79-1.87-1.92
		c0.02-1.18,0.92-1.74,2.03-1.71C160.51,428.4,161.1,429.14,161.18,430.39z"/>
	<path fill="#9C1C1C" d="M239.87,350.69c1.63-2.3,1.67-5.42,0.3-7.74c-0.82-1.39-1.73-2.66-2.91-3.75c3.47,1.19,4.31,4.13,4.51,7.26
		c0.06,0.96,0.52,2.01-0.13,3.14C241.16,350.43,240.63,350.6,239.87,350.69z"/>
	<path fill="#9C1C1C" d="M102.34,80.54c1.04,0.29,1.83,0.83,1.66,2.04c-0.14,1.01-0.84,1.5-1.86,1.39
		c-1.04-0.11-1.54-0.74-1.49-1.78C100.72,81.15,101.34,80.65,102.34,80.54z"/>
	<path fill="#9C1C1C" d="M169.58,238.6c1.18,0.04,1.72,0.69,1.72,1.68c0,0.97-0.43,1.62-1.59,1.64c-1.04,0.02-1.76-0.27-1.83-1.38
		C167.8,239.34,168.64,238.85,169.58,238.6z"/>
	<path fill="#9C1C1C" d="M154.37,444.1c-0.55-0.02-1.25-0.25-1.16-0.53c0.41-1.39,0.1-2.37-1.18-3.1c-0.32-0.18-0.07-0.64,0.17-0.84
		c0.22-0.19,0.55-0.34,0.84-0.35c0.49-0.01,0.95,0.38,0.79,0.8c-0.48,1.22-0.2,1.95,1.05,2.41c0.43,0.16,0.46,0.75,0.21,1.13
		C154.93,443.87,154.57,443.97,154.37,444.1z"/>
	<path fill="#9C1C1C" d="M445.15,365.6c-1.1-0.25-1.81-0.73-1.65-1.77c0.15-0.95,0.83-1.52,1.82-1.43c0.87,0.08,1.29,0.68,1.29,1.55
		C446.61,365.02,445.86,365.36,445.15,365.6z"/>
	<path fill="#9C1C1C" d="M219.57,453.05c0.29-0.14,0.63-0.46,0.87-0.4c3.22,0.78,6.48,0.32,9.72,0.33
		C226.64,453.81,223.11,454.47,219.57,453.05z"/>
	<path fill="#9C1C1C" d="M431.22,401.46c1.03,0.17,1.54,0.8,1.45,1.79c-0.1,1.01-0.83,1.54-1.78,1.47
		c-0.97-0.07-1.59-0.73-1.44-1.75C429.59,402.02,430.21,401.46,431.22,401.46z"/>
	<path fill="#9C1C1C" d="M200.39,341.26c1.41-0.28,2.7-0.55,3.4,1.31c0.36,0.95,1.51,0.56,2.33,0.53c1.16-0.04,2.23-0.82,3.45-0.52
		c-1.48,0.89-3.13,1.11-4.8,1.23c-1.05,0.07-2.05,0.43-1.82-1.56C203.14,340.65,201.27,341.62,200.39,341.26z"/>
	<path fill="#9C1C1C" d="M195.12,506.81c0.93,0.22,1.55,0.8,1.43,1.78c-0.1,0.75-0.55,1.44-1.48,1.41
		c-0.99-0.04-1.63-0.61-1.63-1.61C193.46,507.39,194.1,506.87,195.12,506.81z"/>
	<path fill="#9C1C1C" d="M59.13,324.5c0.09-3.5,0.09-3.5,3.32-3.21c0,0,0,0,0,0c-0.02,1.04-0.04,2.08-0.06,3.12
		c-0.06,0.22-0.2,0.33-0.44,0.32c-0.9-0.05-1.79-0.1-2.69-0.15L59.13,324.5z"/>
	<path fill="#9C1C1C" d="M357.22,40.44c-0.32-0.03-0.69,0.05-0.95-0.09c-2.99-1.67-5.79-1.67-8.34,0.87
		C350.56,37.62,352.77,37.44,357.22,40.44z"/>
	<path fill="#9C1C1C" d="M64.38,371.66c-0.32-0.06-0.74-0.01-0.93-0.19c-2.17-2.02-4.61-2.03-7.21-1.09
		c1.63-2.26,3.67-1.41,5.68-0.73C62.98,370,63.68,370.84,64.38,371.66z"/>
	<path fill="#9C1C1C" d="M81.05,374.2c-0.13,0.81-0.72,1.29-1.54,1.25c-0.86-0.04-1.37-0.63-1.29-1.52c0.08-0.89,0.7-1.39,1.53-1.34
		C80.59,372.65,81.1,373.21,81.05,374.2z"/>
	<path fill="#9C1C1C" d="M114.74,183.58c-0.31-2.12-0.13-4.3-0.74-6.39c0.61,0.18,1.22,0.37,1.94,0.59
		c-0.69,1.5-1.85,3.05,0.47,4.11c0.23,0.1,0.24,0.3-0.07,0.45c-0.58,0.27-0.76,0.73-0.89,1.27
		C115.2,183.58,114.97,183.58,114.74,183.58L114.74,183.58z"/>
	<path fill="#9C1C1C" d="M213.41,359.6c0.75,1.9,0.97,3.35,0.48,4.95C212.96,363.05,213.72,361.53,213.41,359.6z"/>
	<path fill="#9C1C1C" d="M212.25,421.19c-0.82-0.12-1.45-0.59-1.45-1.46c0.01-0.86,0.64-1.47,1.49-1.44c0.8,0.03,1.54,0.53,1.5,1.44
		C213.77,420.56,213.21,421.12,212.25,421.19z"/>
	<path fill="#9C1C1C" d="M124.25,468.58c1.52-0.54,2.99-1.1,5.26-0.75c-1.54,0.87-3.32,0.15-3.58,1.93
		C125.38,469.38,124.84,468.99,124.25,468.58z"/>
	<path fill="#9C1C1C" d="M374.12,360.44c-0.11,0.76-0.41,1.3-1.23,1.34c-0.77,0.03-1.31-0.3-1.38-1.09
		c-0.08-0.92,0.42-1.51,1.34-1.5C373.59,359.19,374,359.73,374.12,360.44z"/>
	<path fill="#9C1C1C" d="M89.14,332.41c-0.2,0.03-0.51,0.08-0.83,0.15c-0.67,0.13-1.11-0.12-0.94-0.81
		c0.18-0.74,0.76-0.59,1.28-0.34c0.27,0.13,0.53,0.42,0.8,0.42c0.55,0.01,1.52-0.74,1.47,0.32
		C90.85,333.55,89.87,332.49,89.14,332.41z"/>
	<path fill="#9C1C1C" d="M170.6,45.98c-1.4-0.7-0.84-1.88-0.79-2.88c0.02-0.5,0.46-0.77,0.91-0.66c0.22,0.05,0.51,0.47,0.51,0.73
		C171.25,44.1,171.34,45.08,170.6,45.98z"/>
	<path fill="#9C1C1C" d="M94.36,338.71c0.73,0.09,1.23,0.42,1.31,1.19c0.09,0.91-0.34,1.49-1.23,1.55
		c-0.84,0.06-1.51-0.33-1.51-1.27C92.92,339.28,93.59,338.91,94.36,338.71z"/>
	<path fill="#9C1C1C" d="M236.29,331.03c1.93,0.46,2.49,1.56,3.01,2.71C238.04,333.46,237.24,332.64,236.29,331.03z"/>
	<path fill="#9C1C1C" d="M438.69,355.2c-0.19,0.1-0.39,0.18-0.57,0.3c-0.56,0.38-1.13,0.79-1.54-0.15
		c-0.08-0.17-0.06-0.49,0.05-0.62c0.42-0.46,0.91-0.52,1.43-0.12c0.17,0.13,0.36,0.24,0.55,0.35c0.64,0.37,2.32-1.47,1.96,0.57
		C440.31,356.98,439.35,355.39,438.69,355.2z"/>
	<path fill="#9C1C1C" d="M160.03,176.02c1.65-0.68,2.62,0.33,3.76,0.95C162.14,177.84,161.07,176.93,160.03,176.02z"/>
	<path fill="#9C1C1C" d="M195.13,349.9c0.12,1.88-1.06,2.94-1.74,4.19C194.14,352.87,193.14,351,195.13,349.9z"/>
	<path fill="#9C1C1C" d="M433.66,407.67c-0.14,0.69-0.51,1.2-1.26,1.2c-0.75,0.01-1.19-0.45-1.19-1.19c0-0.75,0.52-1.2,1.21-1.23
		C433.15,406.42,433.5,407,433.66,407.67z"/>
	<path fill="#9C1C1C" d="M392.88,69.7c-0.14,0.78-0.65,1.15-1.35,1.1c-0.69-0.05-1.21-0.5-1.21-1.23c0-0.71,0.38-1.25,1.16-1.26
		C392.37,68.31,392.82,68.85,392.88,69.7z"/>
	<path fill="#9C1C1C" d="M158.19,64.29c0.73,0.15,0.99,0.72,0.98,1.4c-0.02,0.68-0.59,0.87-1.12,0.84c-0.77-0.04-1.12-0.56-1-1.31
		C157.14,64.65,157.54,64.32,158.19,64.29z"/>
	<path fill="#9C1C1C" d="M153.75,180.23c-0.21,0.83-0.9,0.87-1.51,0.82c-0.59-0.04-0.94-0.54-0.91-1.11
		c0.03-0.77,0.6-1.11,1.31-1.04C153.37,178.99,153.66,179.56,153.75,180.23z"/>
	<path fill="#9C1C1C" d="M179.5,434.75c0.73,0.04,1.27,0.41,1.3,1.15c0.04,0.88-0.46,1.42-1.39,1.39c-0.6-0.02-1.03-0.32-1.13-0.94
		C178.13,435.42,178.66,434.96,179.5,434.75z"/>
	<path fill="#9C1C1C" d="M30.24,333.95c-0.55-0.02-0.99-0.42-0.96-1.22c0.02-0.67,0.51-0.98,1.09-1c0.76-0.02,1.24,0.45,1.19,1.22
		C31.51,333.54,31.15,333.96,30.24,333.95z"/>
	<path fill="#9C1C1C" d="M359.92,62.39c-0.08,0.77-0.48,1.3-1.25,1.29c-0.91-0.01-1.44-0.62-1.35-1.51c0.07-0.71,0.6-1.16,1.38-1.08
		C359.48,61.17,359.85,61.65,359.92,62.39z"/>
	<path fill="#9C1C1C" d="M397.94,64.92c0.43-1.06-1.47-2.29-0.1-3.01c0.6-0.32,0.7,0.6,0.33,1.29
		C397.92,63.68,398,64.34,397.94,64.92z"/>
	<path fill="#9C1C1C" d="M232.53,450.86c0.36-2.34,0.45-4.73,1.26-6.99c-0.03,0.51-0.45,0.95-0.18,1.53
		c0.63,1.39,0.79,2.68-0.69,3.75C232.44,449.5,233.3,450.41,232.53,450.86z"/>
	<path fill="#9C1C1C" d="M211.28,175.27c0.1,0.79-0.25,1.29-1.03,1.29c-0.68,0-1.3-0.32-1.29-1.13c0.01-0.58,0.38-1.03,0.98-1.11
		C210.62,174.23,211.24,174.37,211.28,175.27z"/>
	<path fill="#9C1C1C" d="M357.08,49.83c0.46-2.41,2.42-4.37,2.07-7.02C360.23,45.68,358.85,47.81,357.08,49.83z"/>
	<path fill="#9C1C1C" d="M433.93,376.93c-0.07,0.63-0.51,0.99-1.06,0.97c-0.54-0.01-1.02-0.37-1.04-1c-0.03-0.79,0.46-1.2,1.19-1.1
		C433.57,375.87,433.92,376.31,433.93,376.93z"/>
	<path fill="#9C1C1C" d="M136.6,472c1.1-1.17,2.68-0.95,4.01-1.46C139.6,472.01,137.92,471.47,136.6,472z"/>
	<path fill="#9C1C1C" d="M66.96,378.25c-1.15-1.4-0.34-3.08-0.68-4.6C67.45,375.05,67.3,376.64,66.96,378.25z"/>
	<path fill="#9C1C1C" d="M81.64,378.3c-0.14,0.63-0.59,0.91-1.15,0.89c-0.6-0.02-1.01-0.4-0.94-1.05c0.08-0.73,0.48-1.22,1.28-1.04
		C81.41,377.23,81.69,377.69,81.64,378.3z"/>
	<path fill="#9C1C1C" d="M387.86,11c-0.04,0.51-0.26,0.98-0.91,1.05c-0.65,0.07-1.07-0.31-1.15-0.91c-0.08-0.62,0.3-1.04,0.91-1.12
		C387.36,9.92,387.73,10.3,387.86,11z"/>
	<path fill="#9C1C1C" d="M116.06,187.59c0.06,0.58,1.07,0.59,0.86,1.21c-0.19,0.55-0.81,0.71-1.35,0.45
		c-0.58-0.27-1.25-0.54-1.62-1.01c-0.81-1.05,0.1-1.23,0.88-1.4C115.34,186.92,115.8,187.1,116.06,187.59z"/>
	<path fill="#9C1C1C" d="M223.01,339.18c0.26,0.17,0.67,0.3,0.74,0.53c0.17,0.62,0.85,1.05,0.65,2
		C222.94,341.57,223.18,340.22,223.01,339.18z"/>
	<path fill="#9C1C1C" d="M175.94,436.85c-0.14,0.52-0.47,0.94-1.1,0.94c-0.63,0.01-1.05-0.41-1.05-1c0-0.62,0.48-0.95,1.09-0.97
		C175.52,435.81,175.91,436.13,175.94,436.85z"/>
	<path fill="#9C1C1C" d="M228.57,406.34c0.33,0.68-0.2,0.95-0.6,1.28c-0.41,0.34-0.89,0.86-1.35,0.23c-0.29-0.4,0.18-0.78,0.56-1.02
		C227.6,406.58,227.93,406.04,228.57,406.34z"/>
	<path fill="#9C1C1C" d="M349.46,50.43c1.72,1.2,3.67,0.5,5.52,0.65C352.16,52.43,351.66,52.37,349.46,50.43z"/>
	<path fill="#9C1C1C" d="M170.19,445.76c0.07,0.63-0.31,0.94-0.72,1.02c-0.57,0.11-1.1-0.14-1.21-0.78
		c-0.09-0.49,0.18-0.84,0.71-0.91C169.59,444.99,170.02,445.21,170.19,445.76z"/>
	<path fill="#9C1C1C" d="M356.03,64.08c-0.17,0.53-0.52,0.96-1.13,0.79c-0.53-0.15-0.91-0.55-0.76-1.19
		c0.12-0.48,0.5-0.68,0.96-0.66C355.75,63.04,356.04,63.43,356.03,64.08z"/>
	<path fill="#9C1C1C" d="M226.55,435.28c-1.63,0.01-3.26,0.03-4.9,0.04C223.33,434.26,224.5,434.25,226.55,435.28z"/>
	<path fill="#9C1C1C" d="M247.23,321.81c-1.54,0.31-2.22-0.55-2.8-0.96C245.09,321.03,246.15,320.86,247.23,321.81z"/>
	<path fill="#9C1C1C" d="M216.03,440.84c0.22,2.26,0.14,4.51-0.16,6.76C214.56,445.32,215.96,443.09,216.03,440.84z"/>
	<path fill="#9C1C1C" d="M83.68,350.86c-0.03,0.48-0.2,0.86-0.73,0.93c-0.69,0.08-1.05-0.32-1.1-0.93
		c-0.04-0.47,0.32-0.88,0.75-0.94C83.22,349.82,83.6,350.22,83.68,350.86z"/>
	<path fill="#9C1C1C" d="M434.89,373.18c-0.12,0.42-0.35,0.79-0.82,0.75c-0.61-0.05-0.91-0.45-0.78-1.07
		c0.1-0.51,0.52-0.66,0.94-0.6C434.71,372.32,434.88,372.72,434.89,373.18z"/>
	<path fill="#9C1C1C" d="M212.29,342.45c0.16-0.05,0.31-0.05,0.47-0.01c-0.29,0.47-0.56,0.95-0.32,1.51
		c0.19,0.46,0.71,0.86,0.07,1.62C211.55,344.53,213.11,343.34,212.29,342.45z"/>
	<path fill="#9C1C1C" d="M114.51,173.67c-0.44,0.03-0.88,0.02-1.31,0.1c-1.83,0.36-1.83,0.37-1.31-1.7
		C112.98,172.26,114.12,172.34,114.51,173.67z"/>
	<path fill="#9C1C1C" d="M380.78,61.12c-0.01,0.45-0.36,0.72-0.82,0.74c-0.45,0.01-0.85-0.21-0.87-0.74
		c-0.01-0.52,0.34-0.82,0.81-0.83C380.36,60.28,380.73,60.51,380.78,61.12z"/>
	<path fill="#9C1C1C" d="M227.33,344.53c0.02,1.48,0.03,2.96,0.05,4.44C226.75,347.98,226.72,345.68,227.33,344.53z"/>
	<path fill="#9C1C1C" d="M143.54,493.16c-0.16,0.34-0.46,0.46-0.76,0.31c-0.26-0.12-0.45-0.38-0.67-0.58
		c0.27-0.11,0.54-0.31,0.81-0.32C143.23,492.57,143.5,492.79,143.54,493.16z"/>
	<path fill="#9C1C1C" d="M170.95,488.65c0.05-1.31,0.1-2.62,0.15-3.92C172.17,486.08,172.29,487.39,170.95,488.65z"/>
	<path fill="#9C1C1C" d="M84.83,347.34c-0.01,0.6-0.26,0.96-0.75,1.03c-0.38,0.06-0.58-0.23-0.65-0.59c-0.1-0.54,0.15-0.9,0.66-0.91
		C84.35,346.88,84.61,347.2,84.83,347.34z"/>
	<path fill="#9C1C1C" d="M107.97,197.59c-0.33-0.49-0.52-1.03,0.18-1.29c0.59-0.21,1.38-0.31,1.63,0.46
		c0.25,0.77-0.49,1.07-1.03,1.4C108.5,197.97,108.24,197.78,107.97,197.59z"/>
	<path fill="#9C1C1C" d="M62.39,324.41c0.02-1.04,0.04-2.08,0.06-3.12C63.7,322.35,63.58,323.39,62.39,324.41z"/>
	<path fill="#9C1C1C" d="M218.06,438c-0.8,0.73-0.25,2.51-1.97,2.54c0.39-0.89,1.17-1.78,0-2.67l-0.02-0.03
		C216.64,439.08,217.4,437.9,218.06,438z"/>
	<path fill="#9C1C1C" d="M188.17,201.72c-0.47-0.03-0.65-0.29-0.64-0.61c0.01-0.31,0.23-0.64,0.57-0.55
		c0.24,0.06,0.59,0.37,0.59,0.57C188.68,201.35,188.32,201.55,188.17,201.72z"/>
	<path fill="#9C1C1C" d="M429.24,366.05c-0.41-0.16-0.69-0.46-0.46-0.93c0.12-0.25,0.44-0.53,0.68-0.56
		c0.51-0.05,0.72,0.38,0.67,0.82C430.09,365.83,429.8,366.13,429.24,366.05z"/>
	<path fill="#9C1C1C" d="M242.4,338.93c0.26,0.15,0.6,0.32,0.49,0.66c-0.1,0.31-0.46,0.42-0.77,0.3c-0.16-0.06-0.38-0.31-0.36-0.43
		C241.82,339.16,242.02,338.9,242.4,338.93z"/>
	<path fill="#9C1C1C" d="M143.2,468.09c-0.36,0.29-0.79,0.4-1.23,0.29c-0.26-0.06-0.28-0.34-0.04-0.45
		c0.29-0.13,0.63-0.18,0.95-0.22C143.17,467.67,143.28,467.83,143.2,468.09z"/>
	<path fill="#9C1C1C" d="M197.95,461.73c-0.18-0.08-0.44-0.11-0.51-0.24c-0.16-0.31,0-0.62,0.29-0.77c0.09-0.04,0.35,0.12,0.44,0.26
		C198.38,461.28,198.28,461.55,197.95,461.73z"/>
	<path fill="#9C1C1C" d="M215.98,448.35c0.67,1.05,1.67,1.96,1.42,3.39C216.44,450.81,216.04,449.65,215.98,448.35z"/>
	<path fill="#9C1C1C" d="M173.51,96.93c-0.02,0.36-0.25,0.54-0.59,0.47c-0.49-0.1-0.59-0.51-0.5-0.93c0.03-0.15,0.25-0.37,0.39-0.37
		C173.33,96.09,173.5,96.45,173.51,96.93z"/>
	<path fill="#9C1C1C" d="M323.86,394.21c0.01,0.38-0.19,0.63-0.54,0.68c-0.53,0.08-0.82-0.19-0.76-0.73
		c0.04-0.36,0.29-0.58,0.66-0.57C323.59,393.61,323.82,393.83,323.86,394.21z"/>
	<path fill="#9C1C1C" d="M213.39,341.78c0.24-1.78,1.63-1.13,2.65-1.26C215.6,341.89,213.93,340.66,213.39,341.78z"/>
	<path fill="#9C1C1C" d="M116.45,473.81c0.91-0.83,1.44-0.62,2-0.43C117.94,473.49,117.44,473.6,116.45,473.81z"/>
	<path fill="#9C1C1C" d="M55.75,370.89c-0.43,1.1-0.72,2.3-2,2.79C53.9,372.39,54.63,371.5,55.75,370.89z"/>
	<path fill="#9C1C1C" d="M178.93,498.27c0.08-0.77-0.18-1.66,0.75-2.13C179.57,496.9,180.39,497.99,178.93,498.27z"/>
	<path fill="#9C1C1C" d="M159.02,486.7c0.18,1.18,0.93,2.23,0.75,3.49C158.73,489.19,158.51,488.03,159.02,486.7z"/>
	<path fill="#9C1C1C" d="M81.02,340.44c-0.07,0.31-0.17,0.62-0.55,0.62c-0.5,0-0.78-0.32-0.67-0.76c0.04-0.19,0.44-0.38,0.7-0.42
		C80.86,339.81,81.02,340.09,81.02,340.44z"/>
	<path fill="#9C1C1C" d="M359.29,42.51c-1.03-0.36-1.79-1-2.09-2.09C358.45,40.56,358.87,41.52,359.29,42.51z"/>
	<path fill="#9C1C1C" d="M251.04,352.98c0.81,2.46-1.41,0.78-1.94,1.42C249.24,353.24,250.13,353.09,251.04,352.98z"/>
	<path fill="#9C1C1C" d="M221.46,435.69c-0.32,0.92-1.13,0.87-1.87,0.94C219.59,435.08,220.85,436.05,221.46,435.69z"/>
	<path fill="#9C1C1C" d="M263.69,357c-0.77,0.83-1.47,2.07-2.69,0.49C261.9,357.32,262.79,357.16,263.69,357z"/>
	<path fill="#9C1C1C" d="M59.26,324.58c0.9,0.05,1.79,0.1,2.69,0.15C60.98,326.02,60.12,325.34,59.26,324.58z"/>
	<path fill="#9C1C1C" d="M347.08,46.46c0.92,0.33,0.8,1.18,0.96,1.89c0,0-0.19,0.13-0.19,0.13c-0.44-0.67-0.88-0.91-1.32,0.01
		c0,0,0.02,0.06,0.02,0.06C347.65,48.07,346.79,47.12,347.08,46.46z"/>
	<path fill="#9C1C1C" d="M383.12,62.3c-0.36-0.01-0.61-0.2-0.66-0.56c-0.05-0.39,0.18-0.61,0.56-0.62c0.36-0.01,0.63,0.17,0.65,0.54
		C383.69,62,383.55,62.3,383.12,62.3z"/>
	<path fill="#9C1C1C" d="M386.93,353.06c0.76-0.01,1.29,0.26,1.34,1.11C387.67,353.99,387.1,353.76,386.93,353.06z"/>
	<path fill="#9C1C1C" d="M65.84,373.07c-0.65-0.28-1.21-0.66-1.43-1.39C65.08,371.94,65.97,371.98,65.84,373.07z"/>
	<path fill="#9C1C1C" d="M194.69,341.8c0.98,0.07,2.06-0.38,2.84,0.6C196.65,341.9,195.54,342.44,194.69,341.8z"/>
	<path fill="#9C1C1C" d="M233.28,441.88c-0.66-0.31-0.69-0.88-0.6-1.49C233.55,440.61,233.58,441.18,233.28,441.88z"/>
	<path fill="#9C1C1C" d="M160.7,490.77c0.98,0.02,1.97,0.04,2.95,0.06C162.65,491.69,161.66,491.93,160.7,490.77z"/>
	<path fill="#9C1C1C" d="M85.49,182.97c0.85,0.44,2.16,0.72,0.68,1.97C86.35,184.14,85.72,183.62,85.49,182.97z"/>
	<path fill="#9C1C1C" d="M397.44,27.02c0.07-0.67,0.43-1.05,1.11-1.13C398.31,26.39,398.08,26.9,397.44,27.02z"/>
	<path fill="#9C1C1C" d="M347.51,42.61c0.62,0.92-0.01,1.11-0.73,1.25C346.62,43.21,347.24,43.01,347.51,42.61z"/>
	<path fill="#9C1C1C" d="M386.83,348.94c0.08,0.61,0.04,1.17-0.56,1.52C386,349.79,386.01,349.21,386.83,348.94z"/>
	<path fill="#9C1C1C" d="M197.67,342.43c0.53-0.3,1.02-0.67,1.68-0.62C198.92,342.37,198.45,342.83,197.67,342.43z"/>
	<path fill="#9C1C1C" d="M52.42,376.82c0.05,0.41,0.09,0.81,0.14,1.22C51.75,377.71,51.78,377.3,52.42,376.82z"/>
	<path fill="#9C1C1C" d="M52.82,378.91c0.56,0.02,0.9,0.31,1.06,0.83C53.43,379.6,52.69,379.81,52.82,378.91z"/>
	<path fill="#9C1C1C" d="M388.92,57.65c-0.39-0.03-0.65-0.18-0.57-0.57c0.06-0.32,0.26-0.59,0.64-0.43
		c0.16,0.07,0.32,0.26,0.39,0.43C389.56,57.53,389.16,57.55,388.92,57.65z"/>
	<path fill="#9C1C1C" d="M111.66,171.03c-0.63-0.03-1.29-0.01-1.53-0.8C110.64,170.51,111.64,169.82,111.66,171.03z"/>
	<path fill="#9C1C1C" d="M265.38,357.62c-0.57-0.21-1.13-0.42-1.7-0.62C264.7,355.97,265.04,356.8,265.38,357.62z"/>
	<path fill="#9C1C1C" d="M253.13,352.56c-0.57,0.78-1.34,0.56-2.1,0.43C251.55,351.95,252.44,352.71,253.13,352.56z"/>
	<path fill="#9C1C1C" d="M230.6,452.89c0.32-0.37,0.65-0.75,0.97-1.12C231.43,452.3,231.63,453.13,230.6,452.89z"/>
	<path fill="#9C1C1C" d="M390.88,347.15c-0.66,0-1.31,0-1.97-0.01C389.57,346.29,390.22,346.64,390.88,347.15z"/>
	<path fill="#9C1C1C" d="M257.27,353.7c-0.75,0.08-1.53,0.29-2.11-0.45C255.89,353.28,256.7,352.9,257.27,353.7z"/>
	<path fill="#9C1C1C" d="M267.71,357.76c-0.66,0.88-1.32,0.87-1.98-0.01C266.39,357.76,267.05,357.76,267.71,357.76z"/>
	<path fill="#9C1C1C" d="M109.73,169.71c-0.46,0.03-0.81-0.11-0.97-0.58C109.14,169.21,109.58,169.22,109.73,169.71z"/>
	<path fill="#9C1C1C" d="M106.12,166.99c-0.45,0.71-0.9,0.73-1.33-0.02C105.24,166.97,105.68,166.98,106.12,166.99z"/>
	<path fill="#9C1C1C" d="M414.75,412.56c0.21-0.47,0.61-0.57,1.07-0.53C415.62,412.53,415.22,412.61,414.75,412.56z"/>
	<path fill="#9C1C1C" d="M202.91,144.05c0.27-0.1,0.54-0.2,0.81-0.3C203.53,144.08,203.25,144.15,202.91,144.05z"/>
	<path fill="#9C1C1C" d="M388.31,26.34C388.31,26.34,388.31,26.33,388.31,26.34c-0.2-0.31-0.46-0.37-0.76-0.16
		c-0.04,0.03-0.05,0.17-0.02,0.2C387.8,26.64,388.07,26.6,388.31,26.34z"/>
	<path fill="#9C1C1C" d="M260.43,355.76c-0.52,0.04-1-0.02-1.31-0.52C259.65,355.18,260.19,355.1,260.43,355.76z"/>
	<path fill="#9C1C1C" d="M249.13,354.37c-0.17,0.62-0.64,0.77-1.21,0.76C248.2,354.66,248.64,354.47,249.13,354.37z"/>
	<path fill="#9C1C1C" d="M268.92,356.75c-0.01,0.78-0.5,1.01-1.18,1C268.14,357.42,268.53,357.09,268.92,356.75z"/>
	<path fill="#9C1C1C" d="M390.88,23.45c-0.3,0.47-0.76,0.57-1.27,0.53C389.85,23.35,390.34,23.33,390.88,23.45z"/>
	<path fill="#9C1C1C" d="M170.86,484.26c-0.54-0.01-0.95-0.2-1.1-0.77C170.25,483.56,170.77,483.6,170.86,484.26z"/>
	<path fill="#9C1C1C" d="M176.96,484.47c-0.27,0.46-0.72,0.48-1.18,0.47C175.89,484.08,176.49,484.44,176.96,484.47z"/>
	<path fill="#9C1C1C" d="M66.35,379.89c-0.02-0.44,0.12-0.78,0.57-0.94C66.96,379.41,66.79,379.73,66.35,379.89z"/>
	<path fill="#9C1C1C" d="M217.05,338.42c0.33,0.12,0.65,0.23,0.98,0.35C217.71,338.65,217.38,338.53,217.05,338.42z"/>
	<path fill="#9C1C1C" d="M169.72,489.58c0.14-0.55,0.54-0.74,1.06-0.77C170.6,489.3,170.18,489.47,169.72,489.58z"/>
	<path fill="#9C1C1C" d="M210.4,341.79c0.23-0.01,0.45-0.03,0.68-0.04C210.86,341.96,210.64,341.98,210.4,341.79z"/>
	<path fill="#9C1C1C" d="M392.25,347.8c-0.57,0.05-1.05-0.09-1.34-0.63C391.46,347.14,391.99,347.19,392.25,347.8z"/>
	<path fill="#9C1C1C" d="M180.32,494.64c0.29-0.47,0.74-0.54,1.24-0.48C181.2,494.44,180.82,494.69,180.32,494.64z"/>
	<path fill="#9C1C1C" d="M217.44,451.77c0.46-0.04,0.91-0.03,1.21,0.4C218.21,452.16,217.71,452.33,217.44,451.77z"/>
	<path fill="#9C1C1C" d="M254.49,352.45c-0.29-0.03-0.59-0.06-0.88-0.09c0.13-0.27,0.29-0.56,0.64-0.41
		C254.38,352,254.41,352.27,254.49,352.45z"/>
	<path fill="#9C1C1C" d="M53.18,375.12c-0.02,0.22-0.12,0.38-0.32,0.48C52.74,375.29,52.89,375.16,53.18,375.12z"/>
	<path fill="#9C1C1C" d="M397.35,354.43c-0.32-0.15-0.47-0.4-0.46-0.74C397.23,353.82,397.46,354.02,397.35,354.43z"/>
	<path fill="#9C1C1C" d="M219.4,436.96c-0.12,0.18-0.3,0.28-0.52,0.29C218.96,437,219.14,436.9,219.4,436.96z"/>
	<path fill="#9C1C1C" d="M258.58,355.04c-0.42-0.06-0.67-0.29-0.76-0.7C258.21,354.42,258.47,354.65,258.58,355.04z"/>
	<polygon fill="#9C1C1C" points="216.09,437.87 215.97,437.79 216.07,437.84 	"/>
	<path fill="#9C1C1C" d="M411.41,415.33c-0.07,0.53,0.17,0.76,0.69,0.71c0,0,0.02-0.01,0.02-0.01c0-0.51-0.23-0.75-0.76-0.65
		C411.37,415.37,411.41,415.33,411.41,415.33z"/>
	<path fill="#9C1C1C" d="M114.73,183.57c0.24,0.01,0.48,0.01,0.71,0.02c0.15,0.24,0.13,0.45-0.1,0.64
		C115.14,184.01,114.93,183.79,114.73,183.57z"/>
	<path fill="#9C1C1C" d="M160.03,119.04c-0.27-0.13-0.52-0.41-0.35-0.63c0.29-0.39,0.63-0.26,0.83,0.18
		C160.36,118.73,160.19,118.89,160.03,119.04z"/>
	<path fill="#9C1C1C" d="M388.91,24.84c0.02,0.16-0.03,0.28-0.16,0.37c0,0-0.1-0.25-0.1-0.25L388.91,24.84z"/>
	<path fill="#9C1C1C" d="M389.44,359.92c0,0-0.05-0.13-0.05-0.13S389.44,359.92,389.44,359.92z"/>
	<path fill="#9C1C1C" d="M160.4,484.85c-0.16,0.38-0.44,0.6-0.87,0.61C159.65,485.02,159.97,484.86,160.4,484.85z"/>
	<path fill="#9C1C1C" d="M355.82,50.83c0.2-0.13,0.4-0.25,0.6-0.38C356.4,50.87,356.18,50.97,355.82,50.83z"/>
	<path fill="#9C1C1C" d="M85.55,182.46c0.09,0.19,0.07,0.37-0.05,0.54c-0.25-0.06-0.33-0.21-0.2-0.43
		C85.33,182.5,85.46,182.49,85.55,182.46z"/>
	<path fill="#9C1C1C" d="M114.13,175.05c0,0-0.02,0.13-0.02,0.13C114.12,175.19,114.13,175.05,114.13,175.05z"/>
	<polygon fill="#9C1C1C" points="231.95,451.3 232.08,451.15 232.13,451.31 	"/>
	<path fill="#9C1C1C" d="M159.78,490.2c0.33,0.02,0.56,0.18,0.68,0.48C160.09,490.73,159.81,490.65,159.78,490.2z"/>
	<path fill="#9C1C1C" d="M387.62,347.93c-0.18,0.18-0.36,0.37-0.54,0.55C387.02,348.06,387.22,347.9,387.62,347.93z"/>
	<path fill="#9C1C1C" d="M388.16,347.63c-0.1,0.16-0.25,0.24-0.44,0.23C387.77,347.58,387.88,347.45,388.16,347.63z"/>
	<path fill="#9C1C1C" d="M184.23,492.69c0.17-0.16,0.35-0.33,0.52-0.49C184.76,492.55,184.57,492.7,184.23,492.69z"/>
	<path fill="#9C1C1C" d="M183.67,493.07c0.08-0.17,0.22-0.25,0.41-0.26c0,0-0.12,0.26-0.12,0.26L183.67,493.07z"/>
	<path fill="#9C1C1C" d="M182.35,493.74c0.13-0.19,0.31-0.27,0.54-0.24C182.8,493.78,182.62,493.86,182.35,493.74z"/>
	<path fill="#9C1C1C" d="M247.2,355.82c-0.16,0.2-0.31,0.4-0.47,0.6C246.63,356.02,246.86,355.88,247.2,355.82z"/>
	<path fill="#9C1C1C" d="M246.54,358.19c-0.05,0.12-0.13,0.18-0.25,0.19c0,0,0.05-0.2,0.05-0.2L246.54,358.19z"/>
	<path fill="#9C1C1C" d="M416.11,411.51c-0.02-0.37,0.14-0.64,0.47-0.8C416.57,411.06,416.43,411.34,416.11,411.51z"/>
	<path fill="#9C1C1C" d="M252.7,354.8c-0.07,0.05-0.14,0.13-0.2,0.13c-0.24-0.01-0.3-0.14-0.16-0.29c0.04-0.05,0.17-0.06,0.24-0.03
		C252.64,354.63,252.66,354.73,252.7,354.8z"/>
	<path fill="#9C1C1C" d="M120.69,188.88c2.32,0.65,3.21,2.37,1.96,4.21c-0.63,0.93-1.1,1.48-0.07,2.43c0.58,0.53-0.1,0.92-0.41,1.47
		c-0.96,1.67-2.22,3.11-3.2,4.74c-0.32,0.53-0.33,1.24-0.51,1.95c-0.83-0.13-1.73-0.02-2.27-0.41c-0.75-0.55,1.36-1.04-0.13-2.04
		c-1.45,0.53-3.3,1.66-5.44-0.02c1.46-0.63,1.97-2,2.65-3.18c1.48-2.57,1.01-3.41-2.01-4.19c0.02-1.66,1.56-1.98,2.53-2.75
		c0.39-0.31,0.99-0.3,1.28,0.45c0.45,1.19,1.61,1.3,2.8,1.67C118.18,191.27,119.27,189.95,120.69,188.88L120.69,188.88z
		 M121.11,191.74c0.04-0.44-0.17-0.66-0.54-0.65c-0.47,0.01-0.79,0.31-0.93,0.74c-0.11,0.32-0.01,0.67,0.34,0.74
		C120.64,192.69,120.92,192.23,121.11,191.74z"/>
	<path fill="#9C1C1C" d="M120.7,188.87c-0.3-0.01-0.61,0-0.91-0.04c-0.18-0.03-0.52-0.19-0.51-0.21c0.11-0.38,0.45-0.39,0.72-0.28
		C120.26,188.45,120.46,188.69,120.7,188.87C120.69,188.88,120.7,188.87,120.7,188.87z"/>
	<path fill="#9C1C1C" d="M229.82,438.05c-0.7-0.2-1.24-0.58-1.36-1.36c0,0,0.18-0.13,0.18-0.13c0.09,0.79,1.19,0.58,1.31,1.33
		L229.82,438.05z"/>
	<path fill="#9C1C1C" d="M121.11,191.74c-0.19,0.49-0.47,0.95-1.12,0.83c-0.35-0.07-0.45-0.42-0.34-0.74
		c0.14-0.43,0.46-0.73,0.93-0.74C120.94,191.08,121.15,191.3,121.11,191.74z"/>
</g>
</svg>
