<?xml version="1.0" encoding="utf-8"?>
<!-- Generator: Adobe Illustrator 24.0.0, SVG Export Plug-In . SVG Version: 6.00 Build 0)  -->
<svg version="1.1" id="icons" xmlns="http://www.w3.org/2000/svg" xmlns:xlink="http://www.w3.org/1999/xlink" x="0px" y="0px"
	 viewBox="0 0 340 340" style="enable-background:new 0 0 340 340;" xml:space="preserve">
<g>
	<path d="M323.5,13.9l-0.2-0.2c-6.9-5.1-16.6-4.8-23.5,0.7l-91.2,72.1C125.9,151.9,20.2,235,19.1,235.9c-0.1,0.1-0.3,0.2-0.4,0.3
		C8,247.4,12.1,272,14,283.8l0.1,0.5c0.8,5.1,5.2,8.7,10.3,8.7c5.5,0,10.1-4.4,10.4-9.9l0-0.6c0.5-6.8,5.6-10.1,9.9-10.7
		c4.2-0.6,9.9,0.8,12.4,7.1l0.1,0.3c2.2,5.9,8,9.9,14.3,9.9c7.6,0,14.1-5.7,15.1-13.3l0.5-3.7c0.7-5.4,4.8-9.9,10.1-11.1
		c2.3-0.5,4.5-1.2,6.7-2c9.8-3.7,17.2-12.3,19.2-22.5c0.3-1.6,0.5-3.2,0.7-4.8c55.6-24,95.3-68,97.2-70.2c0.7-0.8,1-2,0.8-3.1
		c-1.8-8.1-2.2-15-1.7-20.9c0-0.2,0-0.3,0-0.5c1.2-15.5,8-23.5,9.7-25.2c0.3-0.2,0.6-0.5,0.8-0.9c0,0,0,0,0,0c0,0,0,0,0,0
		c0,0,3.2-4.1,13.7-6c4.9-0.9,9-4.3,10.9-9c1.5-3.6,4.7-9,11.9-14.1c4.1-2.9,8.9-5.1,14.3-6.3c14-3.3,46.5-15,46.9-51.5
		C328.4,19.9,326.6,16.2,323.5,13.9z M119.6,225.7c-0.4,0.1-0.7,0.2-1,0.4c-9.3,3.9-19,7.2-29,9.5c-1.9,0.4-3,2.3-2.6,4.2
		c0.4,1.9,2.3,3,4.2,2.6c8.7-2,17.1-4.7,25.2-7.9c0,0.1,0,0.3-0.1,0.4c-1.6,7.8-7.2,14.5-14.8,17.3c-1.9,0.7-3.8,1.3-5.8,1.8
		c-8.1,1.9-14.3,8.8-15.4,17l-0.5,3.7c-0.5,4.1-4,7.2-8.2,7.2c-3.5,0-6.5-2.1-7.7-5.4l-0.1-0.4c-3.2-8.2-11.2-12.8-20-11.4
		c-7.4,1.1-15.1,6.9-15.8,17.1c0,0.2,0,0.5,0,0.7c-0.1,1.8-1.6,3.3-3.4,3.3c-1.7,0-3.1-1.2-3.4-2.9l-0.1-0.5
		c-1.5-9.3-5-30.4,1.7-40.1c10.7,2.7,21.7,4.1,32.9,4.1c0,0,0,0,0,0c1.9,0,3.5-1.6,3.5-3.5c0-1.9-1.6-3.5-3.5-3.5
		c-8.9,0-17.8-0.9-26.4-2.8c10.8-8.5,36.3-28.6,67.6-53.2c-1.9,5.3-3.2,11.6-2.9,18.9c0.2,5.2,3.8,9.7,8.9,11.1
		c2.7,0.7,5.6,1.2,8.7,1.4c1.7,0.1,3.3,1,4.2,2.3c0.7,1,1.8,1.6,2.9,1.6c0.7,0,1.3-0.2,1.9-0.6c1.6-1.1,2-3.2,1-4.9
		c-2.1-3.2-5.8-5.2-9.7-5.4c-2.6-0.1-5-0.5-7.2-1.1c-2.1-0.6-3.6-2.5-3.7-4.7c-0.8-18.1,10.6-29.9,11.7-31c31-24.4,66-52,97.8-77.2
		l12.8,14.6c-3.2,4-8.7,12.7-10,26.8c-30.4,35.9-84.1,63.6-84.6,63.9c-1.7,0.9-2.4,3-1.5,4.7c0.6,1.2,1.8,1.9,3.1,1.9
		c0.5,0,1.1-0.1,1.6-0.4c2.1-1.1,49.6-25.6,81.3-59.4c0.2,3.7,0.7,7.6,1.5,11.9C207.5,165.5,169.6,204.4,119.6,225.7z M279.9,68.4
		c-6.3,1.5-11.9,4-16.8,7.5c-8.6,6.1-12.5,12.7-14.3,17.2c-1,2.5-3.1,4.3-5.7,4.8c-7.7,1.4-12.3,3.8-15,5.8l-12.3-13.9l88.3-69.8
		c4.5-3.5,10.7-3.8,15.1-0.5l0.1,0.1c1.3,1,2.1,2.6,2.1,4.2C321.1,55.2,292.2,65.4,279.9,68.4z"/>
	<path d="M27.7,304.9c-6.9,0-12.5,5.6-12.5,12.5s5.6,12.5,12.5,12.5s12.5-5.6,12.5-12.5S34.6,304.9,27.7,304.9z M27.7,322.9
		c-3,0-5.5-2.5-5.5-5.5s2.5-5.5,5.5-5.5c3,0,5.5,2.5,5.5,5.5S30.7,322.9,27.7,322.9z"/>
	<path d="M73.6,238.5l-1.1,0.1c-1.9,0.2-3.3,2-3,3.9c0.2,1.8,1.7,3,3.5,3c0.2,0,0.3,0,0.5,0l1.1-0.1c1.9-0.3,3.3-2,3-3.9
		C77.3,239.6,75.5,238.3,73.6,238.5z"/>
	<path d="M306.3,31.4c-0.9,0-1.8,0.4-2.5,1c-0.6,0.7-1,1.5-1,2.5c0,0.9,0.4,1.8,1,2.5c0.7,0.7,1.6,1,2.5,1c0.9,0,1.8-0.4,2.5-1
		c0.7-0.7,1-1.5,1-2.5c0-0.9-0.4-1.8-1-2.5C308.2,31.7,307.3,31.4,306.3,31.4z"/>
</g>
</svg>
