<?xml version="1.0" encoding="iso-8859-1"?>
<!-- Generator: Adobe Illustrator 23.0.5, SVG Export Plug-In . SVG Version: 6.00 Build 0)  -->
<svg version="1.1" xmlns="http://www.w3.org/2000/svg" xmlns:xlink="http://www.w3.org/1999/xlink" x="0px" y="0px"
	 viewBox="0 0 512 512" style="enable-background:new 0 0 512 512;" xml:space="preserve">
<g id="_x33_8_Chainsaw">
	<g>
		<path d="M40.882,489.555c18.14,18.234,47.703,18.278,65.973,0.008l52.312-52.32c10.778,7.3,25.958,6.659,36.058-3.44
			l97.314-97.321c11.118-11.102,11.126-29.096,0-40.223l-0.426-0.426l19.351-19.351l11.822,11.822
			c1.141,1.141,2.631,1.711,4.13,1.711c1.498,0,2.989-0.57,4.13-1.711c2.281-2.282,2.281-5.978,0-8.259l-11.822-11.822
			l21.362-21.362l11.822,11.822c1.141,1.141,2.631,1.711,4.13,1.711c1.498,0,2.989-0.57,4.13-1.711c2.282-2.281,2.282-5.978,0-8.259
			l-11.822-11.822l13.822-13.822l18.975-18.974c2.775-2.775,7.521-0.837,7.521,3.118v19.035c0,8.867,7.217,16.085,16.085,16.085
			c8.875,0,16.092-7.217,16.092-16.085v-55.045c0-4.388,1.704-8.51,4.806-11.613l8.54-8.54c1.871-1.878,3.977-1.293,4.799-0.958
			c0.639,0.266,2.723,1.346,2.723,4.076v5.095c0,8.875,7.217,16.092,16.085,16.092c8.875,0,16.092-7.217,16.092-16.092v-47.805
			c0-1.034,0.479-1.97,0.882-2.578c5.924-8.898,9.058-19.279,9.058-30.009c0-30.711-24.922-53.952-53.646-54.346V14.592
			c0-3.225-2.616-5.841-5.841-5.841s-5.841,2.616-5.841,5.841v12.706c-10.364,2.103-19.896,7.183-27.545,14.832l-1,1l-11.837-11.837
			c-2.282-2.282-5.978-2.282-8.259,0c-2.281,2.282-2.281,5.978,0,8.259l11.837,11.837l-21.362,21.362l-11.837-11.837
			c-2.281-2.282-5.978-2.282-8.259,0c-2.282,2.282-2.282,5.978,0,8.259l11.837,11.837l-21.362,21.362l-11.837-11.837
			c-2.281-2.282-5.978-2.282-8.259,0s-2.281,5.978,0,8.259l11.837,11.837l-21.362,21.362l-11.837-11.837
			c-2.281-2.282-5.978-2.282-8.259,0c-2.281,2.282-2.281,5.978,0,8.259l11.837,11.837l-21.416,21.416l-11.837-11.837
			c-2.281-2.282-5.978-2.282-8.259,0c-2.281,2.281-2.281,5.978,0,8.259l11.837,11.837l-21.362,21.362l-11.837-11.837
			c-2.281-2.282-5.978-2.282-8.259,0c-2.282,2.282-2.282,5.978,0,8.259l11.837,11.837l-19.351,19.351l-0.418-0.418
			c-12.648-12.648-33.915-10.707-43.894,4.55l-51.959-51.959c-19.644-19.651-51.592-19.636-71.221,0
			c-19.686,19.686-19.688,51.541,0,71.229l39.516,39.516c2.282,2.282,5.978,2.282,8.259,0c2.282-2.281,2.282-5.978,0-8.259
			l-39.516-39.516c-15.116-15.116-15.124-39.587,0-54.71c15.088-15.073,39.614-15.073,54.703,0l53.735,53.735l-57.279,89.064
			c-5.787,9.012-6.054,20.359-0.692,29.629l2.344,4.052L40.912,423.65C22.48,441.908,22.723,471.585,40.882,489.555z
			 M466.048,104.118c-1.863,2.791-2.844,5.917-2.844,9.05v47.805c0,2.434-1.977,4.411-4.411,4.411c-2.426,0-4.403-1.977-4.403-4.411
			v-5.095c0-6.632-3.81-12.328-9.94-14.868c-6.145-2.532-12.852-1.202-17.522,3.491l-8.54,8.54
			c-5.308,5.308-8.229,12.366-8.229,19.872v55.045c0,2.426-1.977,4.403-4.411,4.403c-2.426,0-4.403-1.977-4.403-4.403v-19.035
			c0-14.362-17.329-21.51-27.462-11.377l-9.605,9.605c0.814-19.857,9.347-39.128,23.317-51.425
			c17.124-15.035,22.87-18.243,20.115-42.329c-1.872-16.303-0.381-19.598,15.362-27.545c15.967-8.088,27.977-19.275,33.603-38.709
			c11.281,8.883,16.468,20.827,16.468,33.439C473.143,89,470.687,97.145,466.048,104.118z M400.211,50.389
			c12.183-12.183,30.141-15.747,45.975-9.46c-3.817,17.247-14.056,27.249-28.377,34.488c-7.514,3.795-16.031,8.099-20.092,17.165
			c-3.316,7.362-2.411,15.218-1.612,22.153c2.182,19.03-1.162,19.017-16.221,32.215c-19.083,16.803-29.355,44.561-26.843,71.44
			l-69.185,69.185L223.44,227.16C227.019,223.581,406.685,43.915,400.211,50.389z M116.932,328.443l55.903-86.926l48.331,48.331
			c2.282,2.282,5.977,2.282,8.259,0c2.281-2.282,2.281-5.978,0-8.259l-50.125-50.125l1.247-1.939
			c5.806-9.005,18.406-10.334,25.956-2.783c22.317,22.317,39.205,39.205,77.776,77.776c6.604,6.62,6.503,17.202,0,23.705
			l-97.314,97.321c-7.669,7.653-20.776,6.216-26.359-3.46l-44.079-76.179C113.365,340.444,113.525,333.752,116.932,328.443z
			 M114.813,366.274l35.68,61.665c0.178,0.306,0.435,0.54,0.622,0.838l-52.519,52.526c-13.685,13.669-35.803,13.708-49.471-0.023
			c-13.646-13.506-13.745-35.707,0.023-49.349L114.813,366.274z"/>
		<path d="M443.339,239.617c-3.225,0-5.841,2.616-5.841,5.841v19.682c0,8.769,7.134,15.902,15.902,15.902
			c8.761,0,15.894-7.134,15.894-15.902v-31.234c0-3.225-2.616-5.841-5.841-5.841s-5.841,2.616-5.841,5.841v31.234
			c0,2.327-1.894,4.221-4.213,4.221c-2.327,0-4.221-1.894-4.221-4.221v-19.682C449.18,242.233,446.564,239.617,443.339,239.617z"/>
		<path d="M377.145,293.688c-3.225,0-5.841,2.616-5.841,5.841v19.689c0,8.761,7.134,15.894,15.894,15.894
			c8.769,0,15.902-7.134,15.902-15.894v-31.241c0-3.225-2.616-5.841-5.841-5.841s-5.841,2.616-5.841,5.841v31.241
			c0,2.32-1.894,4.213-4.221,4.213c-2.32,0-4.213-1.894-4.213-4.213v-19.689C382.986,296.305,380.37,293.688,377.145,293.688z"/>
	</g>
</g>
<g id="Layer_1">
</g>
</svg>
