<svg id="Outline" xmlns="http://www.w3.org/2000/svg" viewBox="0 0 512 512"><title>lightsaber-sword-weapon-space-war</title><path d="M403.633,373.269l11.313-11.313-11.313-11.314-11.314,11.313-11.314-11.314a8,8,0,0,0,0-11.314L358.377,316.7a8,8,0,0,0-8.186-1.932l-3.795,1.265L288.153,257.79l192.8-192.813a23.995,23.995,0,1,0-33.924-33.943L254.22,223.856l-190-190A24,24,0,0,0,30.28,67.8L220.273,257.793,181.161,296.9l-5.661-5.661a8,8,0,0,0-11.313,0L141.56,313.872a8,8,0,0,0-.912,10.214L108.625,346.96a8,8,0,0,0-1.007,12.167l5.657,5.657L101.962,376.1,90.647,364.783,79.334,376.1l11.314,11.313L68.02,410.039l-5.657-5.657A8,8,0,0,0,50.2,405.389l-28.284,39.6a8,8,0,0,0,.853,10.308l33.941,33.941a8,8,0,0,0,10.306.853l39.6-28.284a8,8,0,0,0,1.007-12.167l-5.657-5.657,22.628-22.628L135.9,432.666l11.314-11.314L135.9,410.039l11.313-11.314,5.657,5.657a8,8,0,0,0,5.656,2.343q.33,0,.66-.028a8,8,0,0,0,5.851-3.322l22.873-32.023a7.987,7.987,0,0,0,10.215-.911l22.627-22.628a8,8,0,0,0,0-11.314l-5.66-5.66,39.112-39.112,41.955,41.955a7.967,7.967,0,0,0-.01,11.3l39.6,39.6a8,8,0,0,0,11.314,0L448.887,486.406a8,8,0,0,0,11.314,0l22.627-22.627a8,8,0,0,0,0-11.314Zm0,22.628L392.319,407.21,381.005,395.9l11.314-11.314Zm-33.941-11.314-11.313-11.314,11.313-11.314,11.314,11.314Zm88.66-342.24a7.995,7.995,0,1,1,11.3,11.31L276.84,246.476,265.533,235.17ZM39.25,50.828a8,8,0,0,1,13.658-5.656L329.425,321.69l-16.97,5.656L41.594,56.486A7.949,7.949,0,0,1,39.25,50.828ZM152.008,335.635l6.521,6.521L135.9,364.783,125.609,354.49Zm-94.28,86.739L68.02,432.667,45.392,455.294l-6.521-6.522Zm5.5,50.755-6.521-6.521L79.334,443.98l10.293,10.293Zm27.419-40.463L79.334,421.353l22.628-22.628,11.313,11.313Zm33.942-33.941-11.313-11.314L124.589,376.1,135.9,387.411Zm32.92-12.335L147.216,376.1l22.627-22.627,6.522,6.522Zm34.962-32.919L158.53,319.529l11.314-11.314,33.941,33.941Zm11.31-33.946-11.306-11.306,39.112-39.112,11.306,11.306Zm112.838,23.3,33.941-11.313,13.475,13.473-22.628,22.628ZM454.544,469.436l-50.911-50.912,11.313-11.313,50.911,50.911Z"/><rect x="88" y="248" width="96" height="16"/><rect x="132" y="194.459" width="16" height="43.081" transform="matrix(0.371, -0.928, 0.928, 0.371, -112.546, 265.763)"/><rect x="119.384" y="292.8" width="17.233" height="16" transform="translate(-102.564 69.057) rotate(-21.803)"/><rect x="376" y="292.183" width="16" height="17.233" transform="matrix(0.371, -0.928, 0.928, 0.371, -37.902, 545.616)"/><rect x="328" y="248" width="96" height="16"/><rect x="350.459" y="208" width="43.081" height="16" transform="translate(-53.614 153.606) rotate(-21.801)"/><rect x="248" y="88" width="16" height="96"/><rect x="274.459" y="132" width="43.081" height="16" transform="translate(56.092 362.845) rotate(-68.201)"/><rect x="208" y="118.459" width="16" height="43.081" transform="translate(-36.546 90.234) rotate(-21.801)"/><rect x="248" y="328" width="16" height="96"/><rect x="292.8" y="375.384" width="16" height="17.232" transform="translate(-121.099 139.177) rotate(-21.801)"/><rect x="202.584" y="376" width="17.232" height="16" transform="translate(-223.77 437.5) rotate(-68.201)"/></svg>