<?xml version="1.0" encoding="utf-8"?>
<!-- Generator: Adobe Illustrator 24.0.0, SVG Export Plug-In . SVG Version: 6.00 Build 0)  -->
<svg version="1.1" id="icons" xmlns="http://www.w3.org/2000/svg" xmlns:xlink="http://www.w3.org/1999/xlink" x="0px" y="0px"
	 viewBox="0 0 340 340" style="enable-background:new 0 0 340 340;" xml:space="preserve">
<g>
	<path d="M281.6,254c-2.6-1.5-5.9-0.6-7.5,2l-3.4,5.4c-1.4,2.2-1,5.1,0.8,7c5.2,5.3,14.3,17.9,9.7,38.3c-0.9,4.1,2.2,7.9,6.3,8
		l24.7,0.5c3.8,0.1,6.7-3.4,5.9-7.1C315.4,295.2,306.7,268,281.6,254z"/>
	<path d="M259.8,20.5c-15.1-11.4-45.1-2.9-46.4-2.6c-5.4,1.6-10.6,2.3-15.4,2.1c-18.5-13.1-34-12.4-44.4-8.8
		c-7.4,2.5-12.6,9.3-13.1,17.3l-2.8,42.7c-0.1,1.8-1.5,3.3-3.3,3.7c0,0,0,0,0,0c-3.5,0.7-6.4,2.9-8.1,6v0
		c-2.6,4.7-1.9,10.5,1.9,14.5c1.4,1.4,35.5,34.4,91.6,37.9c36.4,2.3,56.5-11.8,60.2-14.7c4.8-3.8,6.1-10.5,3.2-15.9l-0.1-0.2
		c-1.7-3.1-4.4-5.2-7.8-6.1c-0.4-0.1-0.7-0.2-1.1-0.2c-3.4-0.6-5.9-3.5-5.9-6.9v-16c28.6,15.3,46.5,35.3,53.1,59.7
		c5,18.4,12.1,65.7-59.2,65.1c-1.7,0-3.2,1.1-3.6,2.7c-0.5,2.2,1.2,4.2,3.3,4.3c0.9,0,1.8,0,2.7,0c34.4,0,79.3-12.4,63.6-73.6
		c-4.9-18.9-19.6-45.6-60-66.1v-26C268.3,31,265.4,24.7,259.8,20.5z M145,99.8c-7.6-5.3-11.8-9.3-11.9-9.4c-1.6-1.7-2.1-4.2-0.8-6.2
		c2.6-4,6.5-2.6,7.8-1.6c1.9,1.4,4.2,3,6.7,4.7C145.8,89.7,144.3,94.2,145,99.8z M154,105.6c0-0.1-0.1-0.2-0.1-0.3
		c-3.1-6.2-2.1-11.4-1.1-14.1c6.3,3.9,13.8,8,22.3,11.7c-0.4,2.7-0.8,8,0.7,13.4C167.4,112.9,160.1,109.2,154,105.6z M185.1,119.6
		c-3.4-4.6-3.5-10.5-3.2-14c8.8,3.4,18.5,6.2,28.9,7.9c-0.1,2.6,0.1,7.4,2.6,12.2C203.1,124.5,193.6,122.3,185.1,119.6z M144.3,77
		l3.1-48.1c0.3-5.1,3.6-9.5,8.4-11.1c10.8-3.7,28.1-3.6,49.5,17.6c24.1,23.9,44.5,17.9,55.9,10.7V100c-9,4.6-24.2,9.8-44.2,7.3
		C183.6,103.2,157.2,86.5,144.3,77z M222.6,126.4c-0.1-0.2-0.3-0.4-0.5-0.6c-3.9-3.8-4.4-8.8-4.3-11.3c11.5,1.2,21.6,0.1,29.9-2
		c0.4,3,1.4,7.7,4.4,11.4C244.2,125.8,234.5,126.9,222.6,126.4z M268.9,103.7c1.4-0.8,3-1.1,4.5-0.7c1.5,0.4,2.7,1.4,3.4,2.7
		l0.1,0.2c1.3,2.4,0.7,5.4-1.4,7.1c-3.2,2.5-8.2,5.8-15.5,8.4c-4.6-2-5.5-8.6-5.6-11C260.7,108.3,265.6,105.8,268.9,103.7z"/>
	<path d="M94,112.7c4.3,1.1,9.4,2,15.1,2.7c0.1,0,0.2,0,0.3,0c0.5,0,54,1.5,80.2,46.5c1,1.7,3.2,2.3,4.9,1.2c1.6-1,2-3.2,1-4.8
		C180.9,133,158.3,120.8,142,115c-4.9-1.8-9.6-3-13.8-4l0,0c0,0-37.9-9.6-47.5-36.4c-8.6-24.1,5.9-29.1,8.9-29.9
		c1.6-0.3,3.3-0.5,5-0.7c7.2-0.5,14.8,1.1,22,4.7c3.2,1.6,6.6,3.1,10.3,4.4c1.8,0.7,3.9-0.1,4.6-1.8c0.8-1.9-0.1-4-2-4.7
		c-3.5-1.3-6.7-2.7-9.7-4.2c-8.3-4.2-17.1-6-25.6-5.4c-9.6,0.7-18.2,3.9-25.3,9.7c-8,6.4-11.8,16.7-9.9,26.9
		c1.9,10.3,6.3,20.2,13,29.4c18.8,28.6,43.8,50.2,61.5,63.4c0.6,0.5,1.4,0.7,2.1,0.7c1.2,0,2.4-0.6,3-1.8c0.9-1.6,0.4-3.6-1.1-4.6
		c-13.2-9.8-30.6-24.5-46.2-43.4C89.4,115.1,91.3,112,94,112.7z"/>
	<path d="M251.8,229.8c-6.6-2.2-8.7-8.7-9.2-10.8c1.2-5.4,1.6-10.3,1.4-14.7c-0.3-5.8,1.9-11.6,6.2-15.6c2.1-2,4.5-3.7,6.9-5.2
		c3.3-2.1,1.7-7.2-2.2-7c-5.2,0.3-11.4,2-17,7.4c-1.2-1.3-6-6.6-7.1-7.5c-4.3-3.6-9.9-5.6-15.7-5.6h-68.4c-3.3,0-6.2,1.4-8.3,3.7
		H55.5v-9.3c0-1.9-1.6-3.5-3.5-3.5H37.7c-5.2,0-9.8,3.2-11.6,8l-1.9,4.8H10c-1.9,0-3.5,1.6-3.5,3.5v23.4c0,1.9,1.6,3.5,3.5,3.5h12.2
		v4c0,6.2,5,11.2,11.2,11.2h101.9v1c0,1.4,0.8,2.6,2.1,3.2c7.2,3.2,10.6,11,12.2,17.1c1.6,6.2,7.2,10.4,13.6,10.4h8
		c2.8,2.8,4.3,6.2,4.3,10v9c0,10.6,8.6,19.3,19.3,19.3H214c12.6,0,22.9-10.2,22.9-22.9v-0.3c0.9,0.2,1.9,0.3,2.9,0.3h10.5
		c4.2,2.1,26.8,15.2,13.1,46.5c-1.1,1.5-4.5,6.9-3.8,14.3c0.2,1.8,1.7,3.1,3.5,3.1h67c1.9,0,3.5-1.5,3.5-3.4
		c0-0.9,0.4-22.3-9.5-45.1C314.9,261.3,294.9,235,251.8,229.8z M33.4,213.1c-2.3,0-4.2-1.9-4.2-4.2v-4h86.2l3.5,8.3H33.4z
		 M135.3,182.1v15.8H13.5v-16.4h121.8C135.3,181.7,135.3,181.9,135.3,182.1z M194.7,283c-6.8,0-12.3-5.5-12.3-12.3v-9
		c0-4-1.1-7.3-2.6-10h10.8c-2.8,4.3-3.8,9.6-3.8,13.3c0,8,3.9,13.9,8.8,17.9H194.7z M229.8,267.2c-0.7,6.2-3.8,9.9-7.3,12.2
		c-6.8,4.5-15.7,3.6-22-1.4c-3.6-2.8-6.6-6.9-6.6-12.9c0-0.5,0.3-13.3,9.8-13.3h12.3c0.3,7-3,12.7-5.9,16.4c-1.3,1.7,0.3,4,2.3,3.4
		c5-1.6,11.1-5.3,12.5-14.1c0.6,0.6,4.4,5.9,5,6.4V267.2z M247.4,260.1h-7.8c-2.8,0-5.4-1.2-7.2-3.4l-3.3-4
		c-4.2-5-10.3-7.9-16.8-7.9h-49.2c-3.2,0-6-2.2-6.8-5.2c-1.8-6.9-5.7-15.9-14-20.6v-36.9c0-2.3,1.9-4.3,4.3-4.3h68.4
		c4.1,0,8.1,1.4,11.2,4c6.8,5.7,14,16.6,9.4,36.2c-0.2,0.7-2.3,6.6-7.2,8.3c-1.8,0.6-2.8,2.7-2.1,4.5c1.2,3.3,4.1,2.3,4.5,2.1
		c3.4-1.2,5.9-3.5,7.7-5.8c1.8,3.1,4.6,6.3,9,8.3V260.1z M322.5,324.1H272c-2.7,0-4.4-2.8-3.3-5.2c3.3-7.2,8.7-20.3,3.5-37.4
		c-3.5-11.7-13.6-17.6-17.7-19.9v-24.3c30.1,4.6,51.3,20.6,63.1,47.9c5.9,13.7,8,27.1,8.7,35C326.3,322.2,324.6,324.1,322.5,324.1z"
		/>
	<path d="M191.8,185.6h-25.7c-1.9,0-3.5,1.6-3.5,3.5v46.6c0,1.9,1.6,3.5,3.5,3.5h28.6c12.7,0,23.1-10.3,23.1-23.1v-4.4
		C217.9,197.3,206.2,185.6,191.8,185.6z M169.7,204.1h16c1.3,0,2.4,1.1,2.4,2.4s-1.1,2.4-2.4,2.4h-16V204.1z M169.7,232.1v-4.8H183
		c2.7,0,4.9,2.1,5.1,4.8H169.7z M193.2,220.3h-23.5v-4.4h15.7c5,0,9.4-3.8,9.7-8.8c0.4-5.5-4-10-9.4-10h-16v-4.5h22.2
		c10.5,0,19,8.5,19,19C209.1,220.7,193.2,220.3,193.2,220.3z"/>
</g>
</svg>
