<svg xmlns="http://www.w3.org/2000/svg" viewBox="0 0 64 64"><g id="Cartoon_Outline" data-name="Cartoon Outline"><path d="M48.77,25.72a11.738,11.738,0,0,0-7.47-4.7,3.943,3.943,0,0,0-1.83-3.86,9.034,9.034,0,0,0-3.87-1.15c-.97-.12-1.94-.22-2.91-.29a39.955,39.955,0,0,0,3-3.58,6.935,6.935,0,0,0,1.57-3.2,3.259,3.259,0,0,0-2.03-3.6,4.117,4.117,0,0,0-3.36.8,16.724,16.724,0,0,0-2.02,1.65,9.271,9.271,0,0,0-.13-2.51,4.641,4.641,0,0,0-.88-2.1,3.032,3.032,0,0,0-2.37-1.19c-1.72.05-2.69,1.7-3.1,2.4-4.35,7.38-6.49,13.63-6.74,19.68a17.175,17.175,0,0,0-2.38,4.1c-1.02,2.72-.9,5.68-.8,8.29l.74,19.14c.06,1.69.13,3.81,1.82,4.99a7.627,7.627,0,0,0,3.65,1.09c1.66.17,3.33.24,4.96.31.26.01.57.02.91.02a5.5,5.5,0,0,0,4.18-1.44,6.246,6.246,0,0,0,1.26-3.68c.04-.32.07-.64.12-.95a7.455,7.455,0,0,1,6.02-6.09,2.871,2.871,0,0,0,2.1,1.6,1.953,1.953,0,0,0,.34.03,3.057,3.057,0,0,0,2.66-1.95,5.1,5.1,0,0,0,.34-1.82,4.705,4.705,0,0,0,2.98-5.57c2.39-1.83,3.94-3.56,4.7-6.64A12.649,12.649,0,0,0,48.77,25.72ZM28.4,13.49c.17-.47.33-.95.5-1.45a.462.462,0,0,0,.07-.07A13.9,13.9,0,0,1,32.99,7.8a2.206,2.206,0,0,1,1.64-.55c.48.15.72.87.65,1.42a5.286,5.286,0,0,1-1.18,2.27,42.422,42.422,0,0,1-4.13,4.72,18.319,18.319,0,0,0-2.36.2C27.84,15.06,28.11,14.29,28.4,13.49ZM25.09,5.41c.35-.6.89-1.4,1.44-1.42a.88.88,0,0,1,.74.43,2.938,2.938,0,0,1,.49,1.24,10.759,10.759,0,0,1-.66,5.46c-.19.59-.39,1.15-.58,1.7a27.012,27.012,0,0,0-1.1,3.56,11.427,11.427,0,0,0-2.45,1.1,16.793,16.793,0,0,0-4.04,3.69C19.65,16.36,21.64,11.27,25.09,5.41Zm4.03,50.2c-.06.35-.1.7-.14,1.06a4.561,4.561,0,0,1-.75,2.55c-.74.81-2.21.82-3.53.77-1.59-.07-3.24-.14-4.84-.3a5.712,5.712,0,0,1-2.7-.75c-.88-.6-.93-2.03-.97-3.41l-.74-19.14c-.1-2.55-.2-5.18.68-7.52a19.276,19.276,0,0,1,3.25-5.07,18.77,18.77,0,0,1,4.63-4.61c3.32-2.01,7.59-1.67,11.34-1.19a7.06,7.06,0,0,1,3.02.84,1.917,1.917,0,0,1,.95,1.94c-.17.52-.75.98-1.72,1.37a11.1,11.1,0,0,1-4.63.77c-.26-.01-.52-.03-.79-.05a7.54,7.54,0,0,0-3.43.28c-1.73.67-2.72,2.31-3.45,3.51-1.19,1.96-2.54,4.18-2.72,6.76a13.32,13.32,0,0,0,1.1,5.59,9.121,9.121,0,0,0,2.95,4.45,7.149,7.149,0,0,0,5.1,1.1,17.805,17.805,0,0,0,4.23-1.22l.09.15.05.1a2.919,2.919,0,0,1,.14,1.37,11.53,11.53,0,0,0,.21,2.96A9.507,9.507,0,0,0,29.12,55.61ZM26.54,36.72a9.214,9.214,0,0,0,5.72,5.71,7.144,7.144,0,0,1-.78.15,5.211,5.211,0,0,1-3.68-.74,7.468,7.468,0,0,1-2.25-3.54,11.457,11.457,0,0,1-.97-4.74c.15-2.1,1.36-4.1,2.43-5.86.22-.37.44-.72.67-1.04-.18.3-.35.61-.51.91A12.381,12.381,0,0,0,26.54,36.72Zm16.75,7.95a2.9,2.9,0,0,1-.71.77,4.554,4.554,0,0,1,.27-1.4,2.011,2.011,0,0,1,.81-.72A2.793,2.793,0,0,1,43.29,44.67Zm.79-3.93a7.373,7.373,0,0,1-.87.53,4.586,4.586,0,0,0-2.18,1.94,9.238,9.238,0,0,0-.48,3.5,5.177,5.177,0,0,1-.19,2.06c-.17.42-.57.75-.87.7-.36-.05-.74-.61-.96-1.42a9.259,9.259,0,0,1-.29-3.01,4.648,4.648,0,0,0-.39-2.42l-.05-.09a2.252,2.252,0,0,0-1.61-1.36c-.94-.19-1.66-.31-2.13-.36a6.442,6.442,0,0,1-3.56-1.66A8.622,8.622,0,0,1,32,37.87a3.605,3.605,0,0,1,2.52-.63,5.6,5.6,0,0,1,2.09,1.06,10.8,10.8,0,0,0,1.62.96,5.013,5.013,0,0,0,2.86.31,8.6,8.6,0,0,0,1.28-.36,4.575,4.575,0,0,1,1.97-.35,1.953,1.953,0,0,1,1.21.68C45.11,39.94,44.63,40.33,44.08,40.74Zm4.2-5.71a8.027,8.027,0,0,1-2.02,3.82,2.914,2.914,0,0,0-1.78-.98,5.347,5.347,0,0,0-2.42.39,7.732,7.732,0,0,1-1.15.33,4.043,4.043,0,0,1-2.28-.25,8.914,8.914,0,0,1-1.46-.87,6.457,6.457,0,0,0-2.48-1.21,4.536,4.536,0,0,0-3.23.77,9.38,9.38,0,0,0-1.66,1.41,7,7,0,0,1-1.36-2.34A10.513,10.513,0,0,1,28,31.98a1.921,1.921,0,0,1,1.52-.32,4.651,4.651,0,0,1,.98.39c.21.11.41.21.63.3a3.023,3.023,0,0,0,1.13.24,1.837,1.837,0,0,0,1.1-.33.5.5,0,1,0-.58-.81,1.432,1.432,0,0,1-1.28-.03c-.19-.08-.37-.17-.56-.26a5.1,5.1,0,0,0-1.2-.48,3.036,3.036,0,0,0-1.58.1,8.471,8.471,0,0,1,.77-2.26,11.543,11.543,0,0,1,2.74-3.68c.12.01.24.01.36.02.28.03.56.05.85.06a14.119,14.119,0,0,0,1.72-.05,2.471,2.471,0,0,1,.49.33,1.1,1.1,0,0,1,.39.57,1.519,1.519,0,0,1,.03.49,2.2,2.2,0,0,0,.19,1.07.5.5,0,0,0,.44.27.465.465,0,0,0,.23-.06.49.49,0,0,0,.21-.67,1.5,1.5,0,0,1-.07-.6,2.388,2.388,0,0,0-.06-.74,1.991,1.991,0,0,0-.49-.85,12.831,12.831,0,0,0,2.37-.67,6.109,6.109,0,0,0,1.91-1.13,10.837,10.837,0,0,1,3.07.86,4.794,4.794,0,0,0-.03.63l.02.86a.5.5,0,0,0,.5.49h.01a.508.508,0,0,0,.49-.51l-.02-.86c0-.03.01-.06.01-.1a8.892,8.892,0,0,1,2.82,2.59A10.538,10.538,0,0,1,48.28,35.03Z"/><path d="M41.23,57.4a9.512,9.512,0,0,0-.53-2.1,3.329,3.329,0,0,0-.97-1.5,2.461,2.461,0,0,0-2.29-.45,2.5,2.5,0,0,0-1.25.92,2.249,2.249,0,0,0-.35.87l-.04.15a9.316,9.316,0,0,0-.42,2.61,4.758,4.758,0,0,0,.18,1.28,2.585,2.585,0,0,0,.91,1.32,2.869,2.869,0,0,0,1.42.52,4.321,4.321,0,0,0,.5.03,2.906,2.906,0,0,0,2.3-.98A3.27,3.27,0,0,0,41.23,57.4Zm-2.09,1.4a1.19,1.19,0,0,1-1.01.23.9.9,0,0,1-.47-.14.552.552,0,0,1-.19-.31,2.4,2.4,0,0,1-.09-.69,7.444,7.444,0,0,1,.34-2.05c.03-.09.05-.18.07-.26q.015-.09.03-.15a.481.481,0,0,1,.23-.17.43.43,0,0,1,.12-.02.508.508,0,0,1,.29.1,1.677,1.677,0,0,1,.37.66,8.014,8.014,0,0,1,.42,1.67C39.35,58.37,39.25,58.67,39.14,58.8Z"/><path d="M48.33,51.63a8.494,8.494,0,0,0-.37-2.12,3.052,3.052,0,0,0-1.4-1.89,2.179,2.179,0,0,0-2.24.18,2.574,2.574,0,0,0-.92,1.7c-.03.1-.05.21-.07.3a10.274,10.274,0,0,0-.36,2.33v.18a2.122,2.122,0,0,0,.37,1.29,2.289,2.289,0,0,0,1.31.79,4.384,4.384,0,0,0,1.09.15,2.957,2.957,0,0,0,.52-.05,2.46,2.46,0,0,0,1.67-1.04A2.95,2.95,0,0,0,48.33,51.63Zm-2.07.72a.528.528,0,0,1-.33.17,2.119,2.119,0,0,1-.79-.07c-.08-.02-.13-.04-.17-.05v-.2a7.747,7.747,0,0,1,.28-1.86c.04-.14.07-.28.1-.42a1.763,1.763,0,0,1,.15-.5.171.171,0,0,1,.17-.01c.06.03.21.15.38.69a6.324,6.324,0,0,1,.28,1.62A1.233,1.233,0,0,1,46.26,52.35Z"/><path d="M43.74,30.73a2.41,2.41,0,0,0-2.14-1.27,2.311,2.311,0,0,0-2.09,1.31,2.393,2.393,0,0,0,.67,2.87,2.318,2.318,0,0,0,1.46.49,2.327,2.327,0,0,0,2.1-3.4Zm-1.25,2.11a1.357,1.357,0,0,1-2.08-1.64,1.316,1.316,0,0,1,1.2-.74h.02a1.36,1.36,0,0,1,1.22.72A1.412,1.412,0,0,1,42.49,32.84Z"/><path d="M46.29,29.25a5.584,5.584,0,0,0-5.04-3.03h-.07a5.546,5.546,0,0,0-5,3.11,5.837,5.837,0,0,0,1.6,6.87,5.817,5.817,0,0,0,7.05-.06A5.8,5.8,0,0,0,46.29,29.25Zm-1.27,5.19a1.7,1.7,0,0,1-.34-.5.5.5,0,0,0-.92.39,2.793,2.793,0,0,0,.61.87c-.06.05-.11.12-.17.17a4.685,4.685,0,0,1-2.27.95l.14-.99a.5.5,0,0,0-.42-.57.513.513,0,0,0-.57.43l-.16,1.15a4.467,4.467,0,0,1-2.52-.93.138.138,0,0,1-.04-.03l.77-.87a.493.493,0,0,0-.04-.7.484.484,0,0,0-.7.04l-.73.8a4.863,4.863,0,0,1-.96-2.41,3.886,3.886,0,0,0,.49-.04.514.514,0,0,0,.4-.59.5.5,0,0,0-.59-.39c-.11.02-.21.01-.32.02a4.521,4.521,0,0,1,.4-1.48,3.984,3.984,0,0,1,.69-1.02,4.528,4.528,0,0,0,.54.62.513.513,0,0,0,.34.14.485.485,0,0,0,.37-.16.5.5,0,0,0-.02-.71,3.158,3.158,0,0,1-.48-.55,4.671,4.671,0,0,1,2.57-.85l.06.96a.5.5,0,0,0,.5.47h.03a.5.5,0,0,0,.47-.53l-.05-.82a4.626,4.626,0,0,1,2.28,1.09l-.7.65a.5.5,0,0,0-.03.71.485.485,0,0,0,.37.16.46.46,0,0,0,.33-.13l.71-.65a3.479,3.479,0,0,1,.34.56,4.067,4.067,0,0,1,.35,1.07c-.3.06-.61.12-.91.16a.5.5,0,0,0-.45.55.506.506,0,0,0,.5.44h.05c.31-.03.61-.1.91-.15A4.866,4.866,0,0,1,45.02,34.44Z"/><path d="M19.28,55.41a7.112,7.112,0,0,0-.25,2.05.508.508,0,0,1-.49.51h-.01a.493.493,0,0,1-.5-.49,7.966,7.966,0,0,1,.29-2.33.5.5,0,1,1,.96.26Z"/><path d="M21.21,55.67a5.871,5.871,0,0,0-.27,2.08.5.5,0,0,1-.48.52h-.02a.5.5,0,0,1-.5-.47,6.865,6.865,0,0,1,.32-2.43.506.506,0,0,1,.63-.33A.5.5,0,0,1,21.21,55.67Z"/><path d="M22.74,56.9l-.18.91a.511.511,0,0,1-.49.4.34.34,0,0,1-.1-.01.5.5,0,0,1-.39-.59l.18-.91a.5.5,0,0,1,.98.2Z"/></g></svg>