<?xml version="1.0" encoding="UTF-8"?>
<!DOCTYPE svg PUBLIC "-//W3C//DTD SVG 1.1//EN" "http://www.w3.org/Graphics/SVG/1.1/DTD/svg11.dtd">
<!-- Creator: CorelDRAW -->
<svg xmlns="http://www.w3.org/2000/svg" xml:space="preserve" width="1.70666in" height="1.70666in" version="1.1" style="shape-rendering:geometricPrecision; text-rendering:geometricPrecision; image-rendering:optimizeQuality; fill-rule:evenodd; clip-rule:evenodd"
viewBox="0 0 1707 1707"
 xmlns:xlink="http://www.w3.org/1999/xlink">
 <defs>
  <style type="text/css">
   <![CDATA[
    .fil0 {fill:black}
   ]]>
  </style>
 </defs>
 <g id="Layer_x0020_1">
  <metadata id="CorelCorpID_0Corel-Layer"/>
  <g id="_488278296">
   <g>
    <g>
     <g>
      <path class="fil0" d="M681 1185l-129 0c-11,0 -20,-9 -23,-18l-39 -161c-26,-10 -53,-21 -79,-36l-133 84c-10,6 -22,5 -31,-2l-91 -92c-9,-8 -10,-21 -4,-29l86 -141c-13,-25 -24,-53 -31,-82l-152 -35c-12,-3 -20,-12 -20,-24l0 -129c0,-11 7,-20 18,-23l162 -40c10,-28 23,-54 35,-78l-83 -134c-6,-10 -4,-23 4,-31l92 -92c8,-9 20,-11 30,-5l143 87c26,-12 53,-23 80,-30l36 -154c3,-11 13,-20 24,-20l129 0c11,0 21,9 24,18l38 163c27,8 53,21 79,36l134 -85c8,-5 20,-4 29,4l91 92c9,8 10,21 4,29l-86 141c13,25 24,53 31,82l152 36c12,3 20,13 20,24l0 127c0,12 -7,21 -18,24l-162 40c-10,28 -23,54 -37,79l84 133c5,10 4,23 -3,31l-92 90c-8,8 -20,10 -29,4l-144 -87c-25,12 -53,23 -80,30l-36 154c-2,11 -12,20 -23,20zm-111 -49l91 0 36 -150c1,-8 8,-15 18,-18 33,-8 66,-20 95,-37 7,-4 17,-4 24,1l137 84 64 -64 -80 -129c-6,-8 -6,-18 0,-25 18,-28 31,-60 43,-94 2,-9 9,-14 18,-17l156 -39 0 -90 -148 -35c-10,-3 -17,-9 -18,-18 -8,-34 -20,-66 -36,-95 -4,-9 -4,-17 0,-25l83 -138 -64 -64 -130 82c-8,6 -18,6 -25,0 -32,-19 -64,-33 -94,-41 -9,-3 -16,-10 -17,-18l-39 -157 -90 0 -35 150c-2,9 -9,16 -18,18 -32,7 -65,19 -95,36 -7,4 -17,4 -24,-2l-137 -83 -64 64 80 130c6,9 5,18 0,27 -16,27 -32,58 -41,93 -3,8 -10,14 -18,16l-157 38 0 90 148 33c10,2 17,10 18,18 9,35 20,67 36,96 5,8 5,17 0,25l-83 137 64 64 129 -82c8,-5 18,-5 25,0 32,20 62,33 94,43 9,3 14,10 17,18l37 158z"/>
     </g>
     <g>
      <path class="fil0" d="M627 816c-118,0 -213,-96 -213,-214 0,-118 95,-213 213,-213 118,0 214,95 214,213 0,118 -96,214 -214,214zm0 -380c-91,0 -165,75 -165,165 0,90 75,165 165,165 92,0 165,-75 165,-165 0,-90 -73,-165 -165,-165z"/>
     </g>
    </g>
    <g>
     <g>
      <path class="fil0" d="M1332 1706l-79 0c-11,0 -21,-8 -24,-18l-22 -94c-15,-6 -29,-11 -42,-18l-77 48c-10,6 -22,5 -31,-4l-55 -55c-9,-9 -10,-20 -3,-29l50 -84c-6,-13 -11,-27 -15,-41l-91 -21c-11,-3 -19,-12 -19,-24l0 -79c0,-11 8,-20 18,-23l94 -22c5,-14 11,-28 18,-42l-48 -76c-6,-10 -4,-22 3,-31l55 -55c8,-9 20,-10 29,-4l83 50c14,-6 28,-12 42,-16l21 -90c3,-11 12,-19 23,-19l80 0c11,0 20,8 23,18l22 94c14,6 28,11 40,18l78 -48c10,-6 22,-5 31,2l55 56c8,8 10,21 4,30l-51 82c7,14 12,28 15,42l93 25c11,2 20,12 20,23l0 79c0,11 -9,21 -18,24l-95 22c-5,14 -11,28 -18,40l49 78c5,10 4,22 -3,31l-55 55c-9,8 -21,10 -31,4l-82 -51c-14,7 -28,12 -43,16l-19 89c-4,10 -14,18 -25,18zm-60 -48l40 0 20 -83c1,-10 10,-17 18,-19 21,-4 39,-11 57,-22 8,-4 16,-4 25,0l77 47 29 -29 -45 -73c-6,-9 -6,-18 0,-27 11,-16 19,-34 25,-55 2,-8 9,-14 18,-17l88 -20 0 -41 -84 -19c-10,-3 -17,-10 -18,-18 -4,-20 -11,-39 -22,-57 -5,-8 -5,-17 0,-25l47 -78 -29 -29 -74 46c-8,6 -18,6 -26,0 -17,-11 -35,-19 -56,-25 -8,-3 -14,-10 -16,-18l-21 -89 -40 0 -20 85c-3,10 -9,17 -18,18 -19,4 -37,11 -57,21 -7,4 -16,2 -23,-2l-79 -47 -29 29 45 72c6,9 6,18 0,27 -11,18 -19,37 -25,55 -2,9 -9,15 -18,17l-88 21 0 44 84 19c10,3 17,10 18,18 4,20 11,38 21,57 4,7 3,17 -1,24l-48 78 28 29 74 -46c8,-6 18,-6 26,0 17,10 35,18 57,25 8,3 14,10 17,18l23 89z"/>
     </g>
     <g>
      <path class="fil0" d="M1299 1480c-78,0 -141,-64 -141,-141 0,-78 63,-142 141,-142 77,0 141,64 141,142 0,79 -64,141 -141,141zm0 -233c-50,0 -92,42 -92,93 0,51 42,93 92,93 51,0 92,-42 92,-93 0,-51 -41,-93 -92,-93z"/>
     </g>
    </g>
   </g>
  </g>
 </g>
</svg>
