<svg id="Layer_1" data-name="Layer 1" xmlns="http://www.w3.org/2000/svg" viewBox="0 0 512 512"><circle cx="256" cy="464" r="8"/><circle cx="96" cy="504" r="8"/><path d="M508.249,457.393l2.907-5.815a7.984,7.984,0,0,0,.836-3.921l-7.964-183.168,7.863-47.173a8,8,0,0,0-4.316-8.474l-31.991-16a8.019,8.019,0,0,0-5.154-.69l-40,8A8,8,0,0,0,424,208v34.422l13.706,20.559-11.362,11.363a8,8,0,0,0-2.336,5.316l-6.891,161.461A30.5,30.5,0,0,0,421.108,456H398.526A23.731,23.731,0,0,0,400,448V432a7.994,7.994,0,0,0-.844-3.575l-6.515-13.035,7.5-22.537L384.787,254.619A31.943,31.943,0,0,0,408,224V184a8,8,0,0,0-3-6.249l-40-32a8.17,8.17,0,0,0-5.836-1.711L208.375,159.918,168,151.842l-41.568,8.314a8,8,0,0,0-4.088,2.188l-24,24a8.006,8.006,0,0,0-2.265,6.787l6.015,42.31a23.926,23.926,0,0,0,17.6,19.674l-7.69,184.554a7.992,7.992,0,0,0,1.336,4.769L121.052,456H92.945l2.211-4.422a8.025,8.025,0,0,0,.821-4.215l-16-200a8,8,0,0,0-6.665-7.254l-48-8a8,8,0,0,0-7.967,3.452l-16,24A8,8,0,0,0,0,264V440a31.675,31.675,0,0,0,4.8,16.685A7.989,7.989,0,0,0,8,472H224a8,8,0,0,0,0-16H210.422S216,453.819,216,448V272a8,8,0,0,0-1.343-4.437L206.948,256H307.055s-3,6.527-3.047,7.652l-8,184a7.93,7.93,0,0,0,.836,3.926L299.055,456H288a8,8,0,0,0,0,16H504a8,8,0,0,0,8-8A7.865,7.865,0,0,0,508.249,457.393ZM440,214.559l30.875-6.176,24.266,12.129L489.224,256H452.281L440,237.578ZM112.484,194.832l19.461-19.461L168,168.16l39.631,7.924L357.57,160.3,392,187.844V224a16,16,0,0,1-16,16H125.844a8.031,8.031,0,0,1-7.922-6.887ZM32,456a16.03,16.03,0,0,1-16-16V266.422l11.789-17.68,36.734,6.121L79.852,446.418,75.055,456ZM200,274.422v169.3L181.578,456h-41.3L128.1,437.73,135.673,256h52.046ZM316.945,456l-4.859-9.723,7.836-180.226L324.946,256h43.891l15.015,135.137-7.438,22.332a8.011,8.011,0,0,0,.43,6.109L384,433.887V448a8.008,8.008,0,0,1-8,8ZM448,456a14.9,14.9,0,0,1-14.883-14.879l6.742-157.668L451.312,272h37.032l7.57,174.277L491.055,456Z"/><path d="M192,496H128a8,8,0,0,0,0,16h64a8,8,0,0,0,0-16Z"/><circle cx="416" cy="504" r="8"/><circle cx="448" cy="504" r="8"/><path d="M384,496H320a8,8,0,0,0,0,16h64a8,8,0,0,0,0-16Z"/></svg>