<?xml version="1.0" encoding="utf-8"?>
<!-- Generator: Adobe Illustrator 27.1.1, SVG Export Plug-In . SVG Version: 6.00 Build 0)  -->
<svg version="1.1" id="Layer_1" xmlns="http://www.w3.org/2000/svg" xmlns:xlink="http://www.w3.org/1999/xlink" x="0px" y="0px"
	 viewBox="0 0 2000 2000" style="enable-background:new 0 0 2000 2000;" xml:space="preserve">
<style type="text/css">
	.st0{fill:none;}
	.st1{fill:#231F20;}
</style>
<g>
	<path class="st0" d="M638.1,463.1"/>
</g>
<g>
	<path class="st0" d="M691.4,608.2"/>
</g>
<g>
	<path class="st1" d="M1439.1,894.9c-11-15.9-32.8-20-48.8-9l-122.5,84.2c-3.1-1.7-6.3-3.2-9.6-4.5V711.4
		c0-14.3-11.6-25.8-25.8-25.8s-25.8,11.6-25.8,25.8v254.1c-27.5,10.6-46.2,37.3-46.2,67.2c0,39.7,32.3,72,72,72
		c39.7,0,72-32.3,72-72c0-0.9,0-1.8-0.1-2.7l125.7-86.4C1446,932.7,1450,910.9,1439.1,894.9L1439.1,894.9z"/>
	<path class="st1" d="M1685.7,824.3c-25-59-60.7-112-106.2-157.6c-45.5-45.5-98.5-81.2-157.6-106.2c-47.6-20.1-97.5-32.5-148.9-37
		v-84.1h110.4c26.7,0,48.3-21.6,48.3-48.3c0-26.7-21.6-48.3-48.3-48.3h-300c-26.7,0-48.3,21.6-48.3,48.3c0,26.7,21.6,48.3,48.3,48.3
		H1185v69.4h-47h-70.9H817.8c-22.8,0-41.2,18.5-41.2,41.2c0,22.8,18.5,41.2,41.2,41.2H855c16.1,0,29.2,13.1,29.2,29.2
		c0,16.1-13.1,29.2-29.2,29.2H520.5c-22.6,0-41,19.4-41,43.3c0,23.9,18.4,43.3,41,43.3h153.8c23.7,0,42.9,19.2,42.9,42.9
		c0,23.7-19.2,42.9-42.9,42.9H169.5c-23.6,0-43.6,18.5-44.2,42.1c-0.7,24.5,19,44.6,43.3,44.6h388.9c20.7,0,37.5,16.8,37.5,37.5
		s-16.8,37.5-37.5,37.5H439.2c-22.6,0-41,19.4-41,43.3c0,23.9,18.4,43.3,41,43.3h94.9c20.7,0,37.5,16.8,37.5,37.5
		c0,20.7-16.8,37.5-37.5,37.5H320.2c-23.6,0-43.6,18.5-44.2,42.1c-0.7,24.5,19,44.6,43.3,44.6h426.1c20.4,0,37.7,16,38.3,36.5
		c0.6,21.2-16.4,38.6-37.5,38.6H615.8c-23.6,0-43.6,18.5-44.2,42.1c-0.7,24.5,19,44.6,43.3,44.6h291.9c6.8,5.8,13.7,11.4,20.7,16.8
		c-0.7,7.9-7.3,14.1-15.4,14.1h-93.5c-22.5,0-41.4,17.6-42.1,40.1c-0.6,23.3,18.1,42.4,41.2,42.4h196.3h77h62.7
		c24.7,3.8,49.8,5.7,75.2,5.7c66.9,0,131.8-13.1,193-39c59-25,112-60.7,157.6-106.2c45.5-45.5,81.2-98.5,106.2-157.6
		c25.9-61.1,39-126.1,39-193C1724.7,950.4,1711.6,885.5,1685.7,824.3z M1229,1424.9c-224.7,0-407.6-182.8-407.6-407.6
		c0-224.7,182.8-407.6,407.6-407.6s407.6,182.8,407.6,407.6C1636.6,1242,1453.8,1424.9,1229,1424.9z"/>
</g>
</svg>
