<?xml version="1.0" encoding="iso-8859-1"?>
<!-- Generator: Adobe Illustrator 22.1.0, SVG Export Plug-In . SVG Version: 6.00 Build 0)  -->
<svg version="1.1" id="Layer_5" xmlns="http://www.w3.org/2000/svg" xmlns:xlink="http://www.w3.org/1999/xlink" x="0px" y="0px"
	 viewBox="0 0 64 64" style="enable-background:new 0 0 64 64;" xml:space="preserve">
<g>
	<path d="M46.465,23H57c3.309,0,6-2.691,6-6c0-2.983-2.191-5.458-5.046-5.917C57.485,5.446,52.756,1,47,1
		c-4.167,0-7.912,2.336-9.776,5.955C35.821,5.74,33.997,5,32,5c-1.2,0-2.334,0.273-3.356,0.748C26.99,4.618,25.014,4,23,4
		c-4.822,0-8.872,3.376-9.801,8.003c-3.225-0.086-6.053,2.034-6.923,5.057C3.347,17.456,1.081,19.965,1.081,23c0,3.309,2.691,6,6,6
		h8.97C16.021,29.33,16,29.662,16,30v7.5c0,1.213,0.622,2.283,1.562,2.911L13.701,55H16c1,0,1.446,0.335,2.065,0.8
		c0.712,0.535,1.599,1.2,3.265,1.2c1.667,0,2.553-0.666,3.266-1.2c0.14-0.105,0.273-0.202,0.405-0.292l0,3.538
		c0,2.18,1.774,3.954,4.044,3.954c1.173,0,2.228-0.513,2.953-1.327c0.051,0.057,0.104,0.113,0.159,0.168
		c0.747,0.747,1.739,1.158,2.886,1.158c0,0,0.001,0,0.001,0c2.18,0,3.954-1.774,3.954-3.954v-3.53
		c0.128,0.088,0.258,0.183,0.394,0.285c0.713,0.535,1.601,1.2,3.269,1.2s2.555-0.666,3.269-1.2C46.551,55.335,46.999,55,48,55h2.336
		l-8.445-28.716C43.69,25.602,45.258,24.457,46.465,23z M47,3c4.658,0,8.5,3.557,8.954,8.097C53.143,11.594,51,14.049,51,17h2
		c0-2.206,1.794-4,4-4s4,1.794,4,4s-1.794,4-4,4h-9.205C48.565,19.499,49,17.799,49,16V8.5C49,6.57,47.43,5,45.5,5S42,6.57,42,8.5
		V15c0,2.206-1.794,4-4,4h-0.726C38.941,17.533,40,15.39,40,13c0-1.627-0.491-3.141-1.329-4.405C40.046,5.227,43.321,3,47,3z M38,13
		c0,3.309-2.691,6-6,6s-6-2.691-6-6s2.691-6,6-6S38,9.691,38,13z M16.426,27H7.081c-2.206,0-4-1.794-4-4s1.794-4,4-4s4,1.794,4,4h2
		c0-2.87-2.026-5.272-4.722-5.86C9.106,15.279,10.936,14,13,14c0.274,0,0.559,0.027,0.873,0.082l1.061,0.186l0.107-1.072
		C15.449,9.094,18.871,6,23,6c1.344,0,2.628,0.328,3.781,0.95C25.082,8.418,24,10.583,24,13c0,2.397,1.065,4.546,2.741,6.013
		C21.831,19.128,17.714,22.47,16.426,27z M23.396,54.2c-0.619,0.464-1.066,0.8-2.066,0.8c-0.999,0-1.446-0.335-2.065-0.8
		c-0.669-0.502-1.491-1.119-2.968-1.193l3.179-12.01c0.008,0,0.016,0.002,0.024,0.002c1.93,0,3.5-1.57,3.5-3.5V30
		c0-1.304,0.836-2.416,2-2.829l0.002,26.101C24.315,53.517,23.816,53.885,23.396,54.2z M37,25v34.045
		c0,1.078-0.876,1.954-2.046,1.954c0,0,0,0,0,0c-0.521,0-1.012-0.203-1.381-0.572C33.203,60.058,33,59.567,33,59.045V41h-2v18.045
		c0,0,0,0,0,0C31,60.123,30.124,61,28.956,61c-1.078,0-1.954-0.876-1.954-1.954L27,25h-1c-2.757,0-5,2.243-5,5v7.5
		c0,0.827-0.673,1.5-1.5,1.5S18,38.327,18,37.5V30c0-4.962,4.038-9,9-9h11c3.309,0,6-2.691,6-6V8.5C44,7.673,44.673,7,45.5,7
		S47,7.673,47,8.5V16c0,4.962-4.038,9-9,9H37z M47.666,53.009c-1.455,0.082-2.27,0.693-2.934,1.19c-0.62,0.465-1.068,0.8-2.069,0.8
		c-1.001,0-1.449-0.335-2.069-0.8c-0.417-0.313-0.914-0.677-1.594-0.922V26.955c0.326-0.029,0.647-0.076,0.964-0.134L47.666,53.009z
		"/>
	<polygon points="32.949,23.316 31.051,22.684 28.613,30 32.382,30 29.105,36.553 30.895,37.447 35.618,28 31.387,28 	"/>
	<rect x="49" y="27" width="2" height="2"/>
	<rect x="46" y="30" width="2" height="2"/>
	<rect x="49" y="33" width="2" height="2"/>
	<rect x="52" y="30" width="2" height="2"/>
	<rect x="7" y="37" width="2" height="2"/>
	<rect x="4" y="40" width="2" height="2"/>
	<rect x="7" y="43" width="2" height="2"/>
	<rect x="10" y="40" width="2" height="2"/>
	<rect x="53" y="44" width="2" height="2"/>
	<rect x="50" y="47" width="2" height="2"/>
	<rect x="53" y="50" width="2" height="2"/>
	<rect x="56" y="47" width="2" height="2"/>
	<rect x="58" y="35" width="2" height="2"/>
	<rect x="55" y="38" width="2" height="2"/>
	<rect x="58" y="41" width="2" height="2"/>
	<rect x="61" y="38" width="2" height="2"/>
</g>
</svg>
