<?xml version="1.0" encoding="utf-8"?>
<!-- Generator: Adobe Illustrator 27.0.0, SVG Export Plug-In . SVG Version: 6.00 Build 0)  -->
<svg version="1.1" xmlns="http://www.w3.org/2000/svg" xmlns:xlink="http://www.w3.org/1999/xlink" x="0px" y="0px"
	 viewBox="0 0 64 64" enable-background="new 0 0 64 64" xml:space="preserve">
<g id="Layer_1">
</g>
<g id="Layer_2">
</g>
<g id="Layer_3">
</g>
<g id="Layer_4">
</g>
<g id="Layer_5">
</g>
<g id="Layer_6">
</g>
<g id="Layer_7">
</g>
<g id="Layer_8">
</g>
<g id="Layer_9">
</g>
<g id="Layer_10">
	<path d="M54.7197266,2.8081055c-0.0202026-0.0212402-0.0462036-0.0315552-0.0689087-0.0485229
		c-0.019104-0.0144043-0.0354614-0.0282593-0.0564575-0.0397949c-0.072998-0.0402832-0.151001-0.0658569-0.2323608-0.0668335
		c-0.0020142,0-0.00354-0.0015869-0.0055542-0.0015869H11.5556641c-0.1367188,0-0.2675781,0.0561523-0.3623047,0.1552734
		L5.0263672,9.2822266C4.9858398,9.3248291,4.9556274,9.3735962,4.9329224,9.4248047
		C4.9316406,9.4276733,4.9290771,9.4296875,4.9278564,9.4325562C4.9031982,9.4910889,4.8922119,9.5534058,4.8908691,9.6160889
		c-0.000061,0.0038452-0.0021973,0.007019-0.0021973,0.0108643c0,0.0172729,0.0081177,0.0318604,0.0098267,0.048645
		C4.9026489,9.7175293,4.9084473,9.7584839,4.9232788,9.798645C4.9331665,9.8253784,4.947998,9.8480225,4.9620972,9.8723755
		c0.0118408,0.0206299,0.0179443,0.043457,0.03302,0.0626831L22.7192993,32.572876L4.9990234,54.5810547
		c-0.0080566,0.0100708-0.0072021,0.0238647-0.0144043,0.0344238c-0.0422974,0.0613403-0.0714111,0.1273804-0.0831299,0.1988525
		c-0.001709,0.010376-0.0071411,0.0189819-0.0082397,0.02948c-0.0082397,0.0809937,0.0078125,0.1612549,0.0395508,0.2382812
		c0.0037231,0.0090942,0.0004272,0.0192871,0.0046997,0.0282593c0.0064697,0.0135498,0.0212402,0.0195923,0.0288086,0.0323486
		c0.0145874,0.0249023,0.0222168,0.0523682,0.0415039,0.0750732L10.1875,61.3232422
		C10.2822266,61.4355469,10.421875,61.5,10.5683594,61.5h42.9248047c0.081665,0,0.1601562-0.0272827,0.2341309-0.0671387
		c0.0210571-0.0113525,0.0380859-0.0240479,0.057312-0.0383301c0.0213013-0.015564,0.0457764-0.0241699,0.0650024-0.043457
		l4.3164062-4.3789062c0.1767578-0.1791992,0.1923828-0.4624023,0.0361328-0.6601562L39.2830811,32.2655029L59,7.9682617
		c0.1572266-0.1943359,0.1464844-0.4760742-0.0253906-0.6582031L54.7197266,2.8081055z M56.4224243,9.557251l-3.6212769-3.6514282
		l0.3378296-0.4241333l3.6243896,3.6554565L56.4224243,9.557251z M24.3913574,49.0288086h-5.9401855l33.722229-42.3349609
		l3.6148682,3.6448975L24.3913574,49.0288086z M26.1107178,54.3945312l1.4961548-4.3657227h0.7824097l-1.4961548,4.3657227
		H26.1107178z M29.4457397,50.0288086h7.7797852l3.5586548,4.3657227H27.949585L29.4457397,50.0288086z M25.6798706,49.0288086
		l5.3532715-6.5968018l5.3772583,6.5968018H25.6798706z M36.0527344,9.1269531l2.8001099-5.4755859h0.8132935l-2.7993164,5.4755859
		H36.0527344z M11.7695312,3.6513672h25.9599609l-2.8001099,5.4755859H6.5551758L11.7695312,3.6513672z M6.4154663,10.1269531
		h34.3765259l-3.8583374,4.7919922H17.4140625c-0.1923828,0-0.3681641,0.1103516-0.4511719,0.2841797
		c-0.0830078,0.1733398-0.0585938,0.3793945,0.0615234,0.5292969l9.6275635,11.9561768l-3.2890015,4.0848389L6.4154663,10.1269531z
		 M27.2940063,26.8911743l-6.2172852-7.7212524h6.2172241c0.0132446,0,0.0244141-0.0065308,0.0374146-0.0075684l3.1045532,3.8266602
		L27.2940063,26.8911743z M24.6999512,15.9189453l0.4983521,0.6142578h-6.2446899l-0.4946289-0.6142578H24.6999512z
		 M26.0095825,17.5332031l0.5166016,0.6367188h-6.1072388c-0.0449829,0-0.0853271,0.0144653-0.1268311,0.0255737
		l-0.5333252-0.6622925H26.0095825z M31.0776367,22.1919556l-5.0892944-6.2730103H36.128479L31.0776367,22.1919556z
		 M42.2265625,9.9404297c0.1201172-0.1499023,0.1445312-0.355957,0.0615234-0.5292969
		c-0.0830078-0.1738281-0.2587891-0.2841797-0.4511719-0.2841797h-3.8468018l2.7993164-5.4755859h12.5299072l-36.2958984,45.565918
		c-0.1201172,0.1503906-0.1435547,0.3554688-0.0595703,0.5288086c0.0830078,0.1728516,0.2578125,0.2827148,0.4501953,0.2827148
		h9.1363525l-1.4961548,4.3657227H6.4335938L42.2265625,9.9404297z M14.5046387,60.5l-3.1570435-5.1054688h1.270813L15.7754517,60.5
		H14.5046387z M6.4680176,55.3945312h3.7050171L13.3284302,60.5h-2.5286255L6.4680176,55.3945312z M16.9500122,60.5
		l-3.1553955-5.1054688h28.0422974c0.1933594,0,0.3691406-0.1113281,0.4511719-0.2856445
		c0.0830078-0.1743164,0.0585938-0.3808594-0.0634766-0.5302734L31.6768799,41.6386719l3.1002197-3.8204346L52.46875,60.5
		H16.9500122z M41.0947876,36.1843872l-3.4147339,3.7286987l-0.7286987-0.9341431l3.4098511-3.7269897L41.0947876,36.1843872z
		 M53.5370483,60.2428589L38.3042603,40.7134399l3.4177246-3.7319336l15.4225464,19.602478L53.5370483,60.2428589z
		 M39.734375,34.4553223l-3.4069214,3.7237549l-0.9033203-1.1581421l3.2133789-3.9598389L39.734375,34.4553223z
		 M57.397583,8.3556519l-3.6309204-3.6619873l0.6218872-0.7807007l3.5587158,3.7652588L57.397583,8.3556519z"/>
</g>
<g id="Layer_11">
</g>
<g id="Layer_12">
</g>
<g id="Layer_13">
</g>
<g id="Layer_14">
</g>
<g id="Layer_15">
</g>
<g id="Layer_16">
</g>
<g id="Layer_17">
</g>
<g id="Layer_18">
</g>
<g id="Layer_19">
</g>
<g id="Layer_20">
</g>
<g id="Layer_21">
</g>
<g id="Layer_22">
</g>
<g id="Layer_23">
</g>
<g id="Layer_24">
</g>
<g id="Layer_25">
</g>
<g id="Layer_26">
</g>
<g id="Layer_27">
</g>
<g id="Layer_28">
</g>
<g id="Layer_29">
</g>
<g id="Layer_30">
</g>
</svg>
