<?xml version="1.0" encoding="utf-8"?>
<!-- Generator: Adobe Illustrator 25.4.1, SVG Export Plug-In . SVG Version: 6.00 Build 0)  -->
<svg version="1.1" id="Layer_1" xmlns="http://www.w3.org/2000/svg" xmlns:xlink="http://www.w3.org/1999/xlink" x="0px" y="0px"
	 viewBox="0 0 3873 3873" style="enable-background:new 0 0 3873 3873;" xml:space="preserve">
<style type="text/css">
	.st0{fill-rule:evenodd;clip-rule:evenodd;}
</style>
<g id="Layer_1_00000181809519945899799980000016051191605987690152_">
	<g>
		<path class="st0" d="M2062.4,3543.9L2062.4,3543.9L2062.4,3543.9L2062.4,3543.9z M1792.4,3546.3L1792.4,3546.3L1792.4,3546.3
			L1792.4,3546.3z M2067.2,3621.9c14.2,0,27.6-3.9,38.6-11.8c199.9-128.3,276.3-317.2,305.4-432.2l97.6,140.1
			c7.1,11,19.7,17.3,32.3,17.3l0,0c12.6,0,25.2-6.3,32.3-16.5c135.4-191.3,128.3-433.7,111-566.8l103.9,72.4
			c11,7.9,25.2,9.4,37.8,3.9c12.6-5.5,21.3-16.5,23.6-29.9c52-301.5,19.7-366.8-15-436.1c-5.5-11-10.2-20.5-15-31.5
			c-15-37-22.8-76.4-22.8-117.3v-635.3c0-22-18.1-40.1-40.1-40.1c-22,0-39.4,18.1-39.4,40.1v635.3c0,52,9.4,101.5,29.1,148
			c5.5,13.4,11.8,25.2,17.3,36.2c26,52.7,51.2,102.3,18.1,325.1l-131.5-91.3c-13.4-9.4-31.5-9.4-45.7,0
			c-13.4,9.4-19.7,26.8-15.7,42.5c0.8,3.1,78.7,312.5-50.4,549.5l-118.9-170c-9.4-14.2-26.8-20.5-43.3-15.7
			c-16.5,4.7-27.6,18.9-29.1,36.2c0,3.1-20.5,293.6-278.7,465.2l-101.5-229.1c-6.3-14.2-20.5-23.6-36.2-23.6
			c-15.7,0-29.9,9.4-36.2,23.6L1794,3539.2c-257.4-169.2-278.7-462.1-278.7-465.2c-0.8-16.5-12.6-31.5-29.1-36.2
			c-16.5-4.7-33.8,1.6-43.3,15.7l-118.9,170c-128.3-236.9-51.2-546.3-50.4-549.5c3.9-15.7-2.4-33.1-15.7-42.5
			c-13.4-9.4-31.5-9.4-45.7,0l-127.5,88.2c-18.9-225.9,3.1-277.9,24.4-329c4.7-11.8,10.2-23.6,14.2-37c14.2-40.1,21.3-82.7,21.3-126
			v-649.4c0-22-18.1-40.1-40.1-40.1s-39.4,18.1-39.4,40.1v649.4c0,34.6-5.5,67.7-16.5,100c-3.9,11-7.9,21.3-12.6,32.3
			c-26.8,64.5-55.1,131.5-24.4,435.3c1.6,14.2,10.2,26,22.8,32.3c12.6,5.5,27.6,4.7,39.4-3.1l103.9-72.4
			c-17.3,133-24.4,376.3,110.2,566.8c7.1,11,19.7,16.5,32.3,16.5s25.2-6.3,32.3-17.3l97.6-140.1c28.3,114.9,104.7,303.9,305.4,432.2
			c18.1,11,40.1,14.2,59.8,7.9c20.5-6.3,37-21.3,45.7-40.9l66.9-153.5l67.7,153.5c9.4,19.7,26,34.6,47.2,40.9
			C2053.8,3621.1,2060.9,3621.9,2067.2,3621.9z"/>
		<path class="st0" d="M2784.3,2385.2c-6.3,0-12.6-1.6-18.9-4.7l-362.1-197.6c-19.7-10.2-26.8-34.6-15.7-54.3
			c10.2-18.9,34.6-26.8,54.3-15.7l362.1,197.6c18.9,10.2,26.8,34.6,15.7,53.5C2811.8,2377.3,2798.5,2385.2,2784.3,2385.2z"/>
		<path class="st0" d="M2097.1,2010.5c-6.3,0-13.4-1.6-18.9-4.7l-832.1-455c-18.9-10.2-26.8-34.6-15.7-53.5
			c10.2-18.9,34.6-26,54.3-15.7l832.1,455c18.9,10.2,26,34.6,15.7,54.3C2124.6,2002.6,2111.2,2010.5,2097.1,2010.5z"/>
		<path class="st0" d="M2185.2,1968c-40.1,0-72.4,32.3-72.4,72.4c0,65.3,53.5,118.9,118.9,118.9h72.4c32.3,0,62.2-12.6,85-35.4
			c22-22,33.8-52,33.8-83.4c0-40.1-32.3-72.4-72.4-72.4L2185.2,1968L2185.2,1968z M2304.1,2238.8h-72.4
			c-109.4,0-198.4-89-198.4-198.4c0-83.4,68.5-151.9,151.9-151.9h166.1c83.4,0,151.9,68.5,151.9,151.9
			c0.8,52.7-19.7,102.3-56.7,139.3C2408,2218.3,2357.6,2238.8,2304.1,2238.8z"/>
		<path class="st0" d="M1108.4,1616.9c-15,0-29.1-8.7-36.2-22.8l-83.4-177.9c-9.4-19.7-0.8-43.3,18.9-52.7s43.3-0.8,52.7,18.9
			l67.7,144.1c10.2-3.9,20.5-7.9,31.5-12.6c184.2-74,463.7-185,780.1-185c310.2,0,579.4,108.6,757.3,181.1
			c15,6.3,29.1,11.8,43.3,17.3l77.9-147.2c10.2-19.7,34.6-26.8,53.5-16.5c19.7,10.2,26.8,34.6,16.5,53.5l-94.5,178.7
			c-9.4,18.1-30.7,26-49.6,18.1c-23.6-9.4-49.6-19.7-77.1-30.7c-172.4-69.3-433-174.8-727.4-174.8c-300.7,0-571.5,107.8-750.2,179.5
			c-23.6,9.4-46.4,18.1-66.9,26C1117.8,1616.1,1113.1,1616.9,1108.4,1616.9z"/>
		<path class="st0" d="M1509,303.1L1509,303.1L1509,303.1L1509,303.1z M3674.6,1098.9v-0.8c0-3.1-0.8-7.1-1.6-10.2
			c-3.1-12.6-12.6-22-25.2-26.8c-0.8,0-76.4-26.8-177.1-69.3c-211-88.2-408.6-225.9-569.1-399.9
			c-114.9-124.4-299.1-281.8-525.8-326.7c-34.6-7.1-69.3,13.4-78.7,48.8c-18.9,70.8-167.7,147.2-359,147.2
			c-190.5,0-339.3-76.4-359-148c-9.4-34.6-44.1-55.1-78.7-48C1276,309.4,1091,466.8,974.5,591.2c-161.4,174-358.2,311.7-569.9,399.9
			c-100.8,42.5-176.3,69.3-177.1,69.3c-11.8,3.9-21.3,14.2-25.2,26.8c-3.1,12.6-0.8,26,7.1,35.4c9.4,11.8,236.9,290.5,599.1,330.6
			c144.1,15.7,290.5-16.5,423.5-92.1c43.3-24.4,84.2-44.9,125.2-63c372.3-166.1,799-163.7,1171.3,6.3c44.1,20.5,82.7,40.1,115.7,59
			c107.1,62.2,229.1,94.5,350.3,94.5c27.6,0,54.3-1.6,81.1-4.7c356.6-44.1,579.4-317.2,588.8-329
			C3671.5,1116.2,3674.6,1107.6,3674.6,1098.9L3674.6,1098.9z M1936.5,1094.2c-208.6,0-416.4,43.3-610.1,129.9
			c-44.1,19.7-86.6,40.9-132.2,66.9c-118.9,67.7-248.8,96-375.5,82.7c-248-27.6-431.4-183.4-507.7-259.8
			c31.5-11.8,74.8-29.1,125.2-50.4c222-92.1,428.2-237.7,597.5-419.6c106.3-114.1,273.9-258.2,473.1-299.9
			c40.1,111.8,222,195.2,432.2,195.2S2331.7,455.8,2371,344c200.7,43.3,367.6,187.4,473.1,300.7c171.6,185,372.3,325.9,597.5,419.6
			c50.4,21.3,93.7,37.8,125.2,50.4c-74.8,74.8-253.5,227.5-498.3,258.2c-129.9,15.7-266.1-12.6-382.6-79.5
			c-34.6-20.5-75.6-40.9-122-62.2C2363.9,1139.9,2149.8,1094.2,1936.5,1094.2z"/>
		<path class="st0" d="M2149.8,986.4c-7.1,0-14.2-1.6-21.3-6.3l-421.9-260.6c-18.9-11.8-24.4-36.2-12.6-55.1
			c11.8-18.9,36.2-24.4,55.1-12.6l421.9,260.6c18.9,11.8,24.4,36.2,12.6,55.1C2176.6,979.3,2163.2,986.4,2149.8,986.4z"/>
		<path class="st0" d="M1728.7,986.4c-13.4,0-26-7.1-33.8-18.9c-11.8-18.9-5.5-43.3,12.6-55.1l421.9-260.6
			c18.9-11.8,43.3-5.5,55.1,12.6c11.8,18.9,5.5,43.3-12.6,55.1l-421.9,260.6C1742.8,984,1735.8,986.4,1728.7,986.4z"/>
	</g>
</g>
<g id="Master_Layer_2">
</g>
</svg>
