<?xml version="1.0" encoding="UTF-8"?>
<!DOCTYPE svg PUBLIC "-//W3C//DTD SVG 1.1//EN" "http://www.w3.org/Graphics/SVG/1.1/DTD/svg11.dtd">
<!-- Creator: CorelDRAW -->
<svg xmlns="http://www.w3.org/2000/svg" xml:space="preserve" width="1.70666in" height="1.70666in" version="1.1" style="shape-rendering:geometricPrecision; text-rendering:geometricPrecision; image-rendering:optimizeQuality; fill-rule:evenodd; clip-rule:evenodd"
viewBox="0 0 1707 1707"
 xmlns:xlink="http://www.w3.org/1999/xlink">
 <defs>
  <style type="text/css">
   <![CDATA[
    .fil0 {fill:black}
   ]]>
  </style>
 </defs>
 <g id="Layer_x0020_1">
  <metadata id="CorelCorpID_0Corel-Layer"/>
  <g id="_261176536">
   <g>
    <g id="_261175336">
     <path class="fil0" d="M778 1562c-208,0 -403,-81 -550,-228 -147,-147 -228,-342 -228,-550 0,-207 81,-403 228,-550 147,-146 342,-227 550,-227 207,0 403,81 550,227 147,147 227,343 227,550 0,51 -4,101 -14,150 -1,7 -6,13 -13,15 -6,3 -13,2 -19,-3 -69,-52 -152,-80 -239,-80 -219,0 -398,178 -398,397 0,91 31,177 88,248 4,6 5,13 3,19 -2,7 -8,12 -15,13 -55,13 -113,19 -170,19zm0 -1515c-407,0 -738,331 -738,737 0,407 331,738 738,738 44,0 88,-4 131,-12 -49,-72 -77,-159 -77,-247 0,-241 197,-437 438,-437 85,0 166,24 237,70 6,-37 8,-74 8,-112 0,-406 -330,-737 -737,-737z"/>
    </g>
    <g id="_261175912">
     <path class="fil0" d="M778 1426c-354,0 -642,-288 -642,-642 0,-354 288,-642 642,-642 171,0 332,67 454,188 121,122 188,283 188,454 0,28 -2,56 -6,83 0,6 -4,12 -9,15 -5,3 -11,4 -16,2 -39,-12 -79,-18 -119,-18 -219,0 -398,178 -398,397 0,44 8,88 22,129 2,6 1,12 -2,17 -3,5 -8,9 -14,10 -33,5 -67,7 -100,7zm0 -1244c-332,0 -602,270 -602,602 0,332 270,602 602,602 23,0 47,-1 71,-4 -11,-38 -17,-79 -17,-119 0,-241 197,-437 438,-437 36,0 72,4 107,13 2,-18 3,-36 3,-55 0,-332 -270,-602 -602,-602z"/>
    </g>
    <g id="_261176080">
     <path class="fil0" d="M778 274c-11,0 -20,-9 -20,-20l0 -92c0,-11 9,-20 20,-20 11,0 20,9 20,20l0 92c0,11 -9,20 -20,20z"/>
    </g>
    <g id="_261176104">
     <path class="fil0" d="M1043 345c-3,0 -7,-1 -10,-3 -10,-5 -13,-18 -7,-27l45 -79c6,-10 18,-13 28,-8 9,6 13,18 7,28l-46 79c-3,6 -10,10 -17,10z"/>
    </g>
    <g id="_261176056">
     <path class="fil0" d="M1237 539c-7,0 -13,-4 -17,-10 -6,-10 -2,-22 7,-27l79 -46c10,-6 22,-2 28,7 5,10 2,22 -8,28l-79 45c-3,2 -6,3 -10,3z"/>
    </g>
    <g id="_261176320">
     <path class="fil0" d="M1400 804l-92 0c-11,0 -20,-9 -20,-20 0,-11 9,-20 20,-20l92 0c11,0 20,9 20,20 0,11 -9,20 -20,20z"/>
    </g>
    <g id="_261176872">
     <path class="fil0" d="M778 1426c-11,0 -20,-9 -20,-20l0 -91c0,-11 9,-20 20,-20 11,0 20,9 20,20l0 91c0,11 -9,20 -20,20z"/>
    </g>
    <g id="_261176704">
     <path class="fil0" d="M467 1343c-4,0 -7,-1 -10,-3 -10,-5 -13,-17 -8,-27l46 -79c6,-10 18,-13 27,-7 10,5 13,17 8,27l-46 79c-4,6 -10,10 -17,10z"/>
    </g>
    <g id="_261176944">
     <path class="fil0" d="M239 1115c-7,0 -14,-3 -17,-10 -6,-9 -3,-21 7,-27l79 -46c10,-5 22,-2 28,8 5,9 2,21 -8,27l-79 46c-3,1 -7,2 -10,2z"/>
    </g>
    <g id="_261176416">
     <path class="fil0" d="M247 804l-91 0c-11,0 -20,-9 -20,-20 0,-11 9,-20 20,-20l91 0c11,0 20,9 20,20 0,11 -9,20 -20,20z"/>
    </g>
    <g id="_261176392">
     <path class="fil0" d="M318 539c-3,0 -7,-1 -10,-3l-79 -45c-10,-6 -13,-18 -7,-28 5,-9 17,-13 27,-7l79 46c10,5 13,17 8,27 -4,6 -11,10 -18,10z"/>
    </g>
    <g id="_261177040">
     <path class="fil0" d="M512 345c-6,0 -13,-4 -17,-10l-46 -79c-5,-10 -2,-22 8,-28 9,-5 22,-2 27,8l46 79c5,9 2,22 -8,27 -3,2 -6,3 -10,3z"/>
    </g>
    <g>
     <g id="_261176608">
      <path class="fil0" d="M778 913c-71,0 -129,-58 -129,-129 0,-71 58,-129 129,-129 71,0 129,58 129,129 0,71 -58,129 -129,129zm0 -218c-49,0 -89,40 -89,89 0,49 40,89 89,89 49,0 89,-40 89,-89 0,-49 -40,-89 -89,-89z"/>
     </g>
     <g id="_261176824">
      <path class="fil0" d="M721 711c-4,0 -7,0 -10,-2 -6,-4 -10,-10 -10,-18l0 -217c0,-4 1,-8 3,-11l57 -80c3,-5 9,-8 16,-8 0,0 0,0 0,0 6,0 12,3 16,8l58 79c2,4 4,8 4,12l0 217c0,8 -4,14 -11,18 -6,3 -14,3 -20,0 -14,-9 -30,-14 -46,-14 -17,0 -33,5 -47,14 -3,1 -7,2 -10,2zm57 -56c12,0 25,2 37,6l0 -180 -38 -52 -36 51 0 181c12,-4 24,-6 37,-6z"/>
     </g>
     <g id="_261176296">
      <path class="fil0" d="M580 1030c-4,0 -8,-1 -11,-4 -6,-3 -9,-10 -9,-16l1 -97c0,-4 1,-8 4,-12l88 -123c5,-7 13,-10 22,-7 8,2 13,9 14,18 2,35 24,66 58,79 6,2 10,7 12,13 2,6 1,12 -3,17l-66 93c-3,3 -6,6 -10,7l-93 31c-2,1 -5,1 -7,1zm21 -111l-1 63 61 -20 49 -68c-22,-14 -40,-34 -50,-57l-59 82z"/>
     </g>
    </g>
    <g id="_261177112">
     <path class="fil0" d="M1270 1700c-241,0 -438,-196 -438,-437 0,-241 197,-437 438,-437 241,0 437,196 437,437 0,241 -196,437 -437,437zm0 -834c-219,0 -398,178 -398,397 0,219 179,397 398,397 218,0 397,-178 397,-397 0,-219 -179,-397 -397,-397z"/>
    </g>
    <g id="_261177448">
     <path class="fil0" d="M1366 1547l-153 0c-11,0 -20,-9 -20,-20l0 -103c0,-11 9,-20 20,-20l153 0c55,0 99,-45 99,-100 0,-55 -44,-100 -99,-100l-210 0 0 63c0,8 -4,14 -11,18 -6,3 -14,3 -21,-2l-172 -126c-5,-4 -8,-10 -8,-16 -1,-6 2,-12 7,-16l173 -142c6,-4 14,-5 21,-2 7,3 11,10 11,18l0 62 210 0c134,0 242,109 242,243 0,134 -108,243 -242,243zm-133 -40l133 0c111,0 202,-91 202,-203 0,-112 -91,-203 -202,-203l-230 0c-11,0 -20,-9 -20,-20l0 -40 -120 99 120 88 0 -44c0,-11 9,-20 20,-20l230 0c77,0 139,63 139,140 0,77 -62,140 -139,140l-133 0 0 63z"/>
    </g>
   </g>
  </g>
 </g>
</svg>
