<?xml version="1.0" encoding="utf-8"?>
<!-- Generator: Adobe Illustrator 24.0.0, SVG Export Plug-In . SVG Version: 6.00 Build 0)  -->
<svg version="1.1" id="outline" xmlns="http://www.w3.org/2000/svg" xmlns:xlink="http://www.w3.org/1999/xlink" x="0px" y="0px"
	 viewBox="0 0 512 512" enable-background="new 0 0 512 512" xml:space="preserve">
<g>
	<path d="M456,120h-32c-4.4,0-8,3.6-8,8v40h-24c-2.1,0-4.2,0.8-5.7,2.3l-8.2,8.2l-3-6.1c-1.4-2.7-4.1-4.4-7.2-4.4h-33.6
		c6.2-12,9.6-25.6,9.6-40c0-48.5-39.5-88-88-88s-88,39.5-88,88c0,14.4,3.5,28,9.6,40H136c-3.4,0-6.5,2.2-7.6,5.5l-0.4,1.2l-0.4-1.2
		c-1.1-3.3-4.1-5.5-7.6-5.5H96v-40c0-4.4-3.6-8-8-8H56c-22.1,0-40,17.9-40,40v272c0,22.1,17.9,40,40,40h16c3.4,0,6.5-2.2,7.6-5.5
		l0.4-1.2l0.4,1.2c1.1,3.3,4.1,5.5,7.6,5.5h328c3.4,0,6.5-2.2,7.6-5.5l0.4-1.2l0.4,1.2c1.1,3.3,4.1,5.5,7.6,5.5h24
		c22.1,0,40-17.9,40-40V160C496,137.9,478.1,120,456,120z M432,136h24c13.2,0,24,10.8,24,24v240c-6.7-5-15-8-24-8h-24v-52.7
		l13.7-13.7c3.1-3.1,3.1-8.2,0-11.3L432,300.7V136z M171.6,271.2c1.2-0.6,2.3-1.6,3.1-2.7l13.6-20.4H232c1.8,0,3.6-0.6,5-1.8
		l37.8-30.2h62.9l14.5,57.9c0.1,0.6,0.3,1.1,0.6,1.6l15.2,30.3v40.3l-40.3,13.4l-26.7-6.7l-14.3-21.4c-1.5-2.2-4-3.6-6.7-3.6h-48
		c-1,0-2,0.2-3,0.6L192.9,343l-40.2-26.8l6.5-38.9L171.6,271.2z M264,199.5V192c0-4.4-3.6-8-8-8s-8,3.6-8,8v7.5
		c-13.9-1.5-26.5-7-36.9-15.3l5.3-5.3c3.1-3.1,3.1-8.2,0-11.3c-3.1-3.1-8.2-3.1-11.3,0l-5.3,5.3c-8.3-10.4-13.8-23-15.3-36.9h7.5
		c4.4,0,8-3.6,8-8s-3.6-8-8-8h-7.5c1.5-13.9,7-26.5,15.3-36.9l5.3,5.3c1.6,1.6,3.6,2.3,5.7,2.3s4.1-0.8,5.7-2.3
		c3.1-3.1,3.1-8.2,0-11.3l-5.3-5.3c10.4-8.3,23-13.8,36.9-15.3V64c0,4.4,3.6,8,8,8s8-3.6,8-8v-7.5c13.9,1.5,26.5,7,36.9,15.3
		l-5.3,5.3c-3.1,3.1-3.1,8.2,0,11.3c1.6,1.6,3.6,2.3,5.7,2.3s4.1-0.8,5.7-2.3l5.3-5.3c8.3,10.4,13.8,23,15.3,36.9H320
		c-4.4,0-8,3.6-8,8s3.6,8,8,8h7.5c-1.5,13.9-7,26.5-15.3,36.9l-5.3-5.3c-3.1-3.1-8.2-3.1-11.3,0c-3.1,3.1-3.1,8.2,0,11.3l5.3,5.3
		C290.5,192.5,277.9,198,264,199.5z M32,160c0-13.2,10.8-24,24-24h24v100.7l-13.7,13.7c-3.1,3.1-3.1,8.2,0,11.3L80,275.3V392H56
		c-9,0-17.3,3-24,8V160z M123.3,456L123.3,456c3-3,4.7-7,4.7-11.3V440c0-8.8,7.2-16,16-16s16,7.2,16,16v4.7c0,4.3,1.7,8.3,4.7,11.3
		H123.3z M138.2,400h11.5l-2.1,8.2c-1.2-0.1-2.4-0.2-3.7-0.2c-1.3,0-2.5,0.1-3.7,0.2L138.2,400z M296,404v4h-24v-4
		c0-6.6,5.4-12,12-12S296,397.4,296,404z M368,432h-12.9l2.7-8h12.5l2.7,8H368z M338.2,432H312v-8h28.9L338.2,432z M256,404v4h-56
		v-4c0-6.6,5.4-12,12-12h46.7C257,395.6,256,399.7,256,404z M200,424h20v11.8c0,4.4,3.6,8,8,8s8-3.6,8-8V424h20v32h-56V424z
		 M272,424h24v16v16h-24V424z M312,448h32h12.9l-2.7,8H312V448z M371.1,456l2.7-8H384h2.2l2.7,8H371.1z M456,456h-18.2l-6.2-18.5
		c-1.1-3.3-4.1-5.5-7.6-5.5s-6.5,2.2-7.6,5.5l-6.2,18.5h-4.5l-6.2-18.5c-1.1-3.3-4.1-5.5-7.6-5.5h-2.2l-6.2-18.5
		c-1.1-3.3-4.1-5.5-7.6-5.5h-24h-40v-4c0-15.4-12.6-28-28-28h-72c-15.4,0-28,12.6-28,28v52h-3.3c0-4.3-1.7-8.3-4.7-11.3V440
		c0-10.7-5.2-20.1-13.3-25.9l5-20.1c0.6-2.4,0.1-4.9-1.5-6.9s-3.8-3.1-6.3-3.1h-32c-2.5,0-4.8,1.1-6.3,3.1s-2.1,4.5-1.5,6.9l5,20.1
		c-8,5.8-13.3,15.3-13.3,25.9l0,4.7c-3,3-4.7,7-4.7,11.3H93.8l-6.2-18.5c-1.1-3.3-4.1-5.5-7.6-5.5s-6.5,2.2-7.6,5.5L66.2,456H56
		c-13.2,0-24-10.8-24-24c0-13.2,10.8-24,24-24h32c4.4,0,8-3.6,8-8V272c0-2.1-0.8-4.2-2.3-5.7L83.3,256l10.3-10.3
		c1.5-1.5,2.3-3.5,2.3-5.7v-56h18.2l6.2,18.5c1.1,3.3,4.1,5.5,7.6,5.5s6.5-2.2,7.6-5.5l6.2-18.5h46.4c14.9,18,36.7,30,61.3,31.8
		L229.2,232H184c-2.7,0-5.2,1.3-6.7,3.6l-14.8,22.2l-14.1,7.1c-2.3,1.1-3.9,3.3-4.3,5.8l-8,48c-0.5,3.1,0.8,6.2,3.5,8l48,32
		c2.2,1.5,5,1.8,7.4,0.8l38.6-15.4h42.2l13.6,20.4c1.1,1.7,2.8,2.8,4.7,3.3l32,8c0.6,0.2,1.3,0.2,1.9,0.2c0.9,0,1.7-0.1,2.5-0.4
		l48-16c3.3-1.1,5.5-4.1,5.5-7.6v-48c0-1.2-0.3-2.5-0.8-3.6l-15.6-31.2l-15.8-63.1c-0.9-3.6-4.1-6.1-7.8-6.1h-37.5
		c6.5-4.5,12.3-9.9,17.3-16h39.2l5.8,11.6c1.1,2.3,3.3,3.9,5.9,4.3c0.4,0.1,0.9,0.1,1.3,0.1c2.1,0,4.1-0.8,5.7-2.3l13.7-13.7H416
		v120c0,2.1,0.8,4.2,2.3,5.7l10.3,10.3l-10.3,10.3c-1.5,1.5-2.3,3.5-2.3,5.7v64c0,4.4,3.6,8,8,8h32c13.2,0,24,10.8,24,24
		C480,445.2,469.2,456,456,456z"/>
	<path d="M186.3,309.7c1.6,1.6,3.6,2.3,5.7,2.3s4.1-0.8,5.7-2.3l6.3-6.3l6.3,6.3c1.6,1.6,3.6,2.3,5.7,2.3s4.1-0.8,5.7-2.3
		c3.1-3.1,3.1-8.2,0-11.3l-6.3-6.3l6.3-6.3c3.1-3.1,3.1-8.2,0-11.3c-3.1-3.1-8.2-3.1-11.3,0l-6.3,6.3l-6.3-6.3
		c-3.1-3.1-8.2-3.1-11.3,0c-3.1,3.1-3.1,8.2,0,11.3l6.3,6.3l-6.3,6.3C183.2,301.5,183.2,306.5,186.3,309.7z"/>
	<path d="M248,304h5c4.4,0,8-3.6,8-8s-3.6-8-8-8h-5c-4.4,0-8,3.6-8,8S243.6,304,248,304z"/>
	<path d="M274,304h9.1c4.4,0,8-3.6,8-8s-3.6-8-8-8H274c-4.4,0-8,3.6-8,8S269.5,304,274,304z"/>
	<path d="M304,304h9.1c4.4,0,8-3.6,8-8s-3.6-8-8-8H304c-4.4,0-8,3.6-8,8S299.6,304,304,304z"/>
	<path d="M327.9,311c0.5,4.1,3.9,7,7.9,7c0.3,0,0.7,0,1-0.1c4.4-0.5,7.5-4.5,7-8.9c-0.6-4.6-2.4-8.8-5.3-12.4
		c-2.8-3.4-7.9-3.9-11.3-1.1c-3.4,2.8-3.9,7.9-1.1,11.3C327.1,308.1,327.8,309.5,327.9,311z"/>
	<path d="M336,323c-4.4,0-8,3.6-8,8v5c0,4.4,3.6,8,8,8s8-3.6,8-8v-5C344,326.6,340.4,323,336,323z"/>
	<path d="M128,216c-4.4,0-8,3.6-8,8v8c0,4.4,3.6,8,8,8s8-3.6,8-8v-8C136,219.6,132.4,216,128,216z"/>
	<path d="M128,256c-4.4,0-8,3.6-8,8v24c0,4.4,3.6,8,8,8s8-3.6,8-8v-24C136,259.6,132.4,256,128,256z"/>
</g>
<path d="M287,91.4c-2.5-2.1-6-2.5-8.9-1L240,110.6c-1.8,1-3.1,2.5-3.8,4.4c0,0-13.7,41-13.7,41c-1,3.1-0.1,6.5,2.4,8.6
	c1.5,1.2,3.3,1.9,5.2,1.9c1.3,0,2.6-0.3,3.7-0.9c0,0,38.1-20.2,38.1-20.2c1.8-1,3.1-2.5,3.8-4.5l13.6-40.9
	C290.5,96.9,289.5,93.5,287,91.4z M267.9,113.9l-3.6,10.7l-6.4-5.4L267.9,113.9z M247.6,131.4l6.4,5.4l-9.9,5.3L247.6,131.4z"/>
</svg>
