<?xml version="1.0" encoding="UTF-8"?>
<!DOCTYPE svg PUBLIC "-//W3C//DTD SVG 1.1//EN" "http://www.w3.org/Graphics/SVG/1.1/DTD/svg11.dtd">
<!-- Creator: CorelDRAW -->
<svg xmlns="http://www.w3.org/2000/svg" xml:space="preserve" width="1.70666in" height="1.70666in" version="1.1" style="shape-rendering:geometricPrecision; text-rendering:geometricPrecision; image-rendering:optimizeQuality; fill-rule:evenodd; clip-rule:evenodd"
viewBox="0 0 1707 1707"
 xmlns:xlink="http://www.w3.org/1999/xlink">
 <defs>
  <style type="text/css">
   <![CDATA[
    .fil0 {fill:black}
   ]]>
  </style>
 </defs>
 <g id="Layer_x0020_1">
  <metadata id="CorelCorpID_0Corel-Layer"/>
  <g id="_276713888">
   <g>
    <g id="_276711872">
     <path class="fil0" d="M467 946c-10,0 -19,-4 -25,-14l-240 -365c-4,-7 -6,-15 -4,-23 1,-9 7,-16 13,-20l127 -74c14,-8 30,-4 40,9l151 216 866 -499c13,-9 33,-3 41,11l74 126c4,7 5,15 3,22 -2,9 -7,14 -14,18l-1017 589c-5,3 -9,4 -15,4zm-197 -386l207 315 966 -558 -43 -75 -865 500c-14,8 -31,4 -40,-8l-150 -217 -75 43z"/>
    </g>
    <g id="_276713216">
     <path class="fil0" d="M386 1535c-9,0 -18,-4 -23,-12l-356 -467c-5,-7 -7,-15 -5,-24 1,-8 7,-15 14,-19l161 -93c12,-7 28,-4 37,7l246 287 1108 -640c7,-4 15,-5 22,-3 9,2 14,7 18,14l93 161c9,14 3,34 -11,42l-1291 746c-1,0 -7,1 -13,1zm-309 -489l318 420 1243 -718 -64 -110 -1104 639c-13,7 -28,4 -38,-7l-246 -286 -109 62z"/>
    </g>
   </g>
  </g>
 </g>
</svg>
