<?xml version="1.0" encoding="utf-8"?>
<!-- Generator: Adobe Illustrator 16.0.0, SVG Export Plug-In . SVG Version: 6.00 Build 0)  -->
<!DOCTYPE svg PUBLIC "-//W3C//DTD SVG 1.1//EN" "http://www.w3.org/Graphics/SVG/1.1/DTD/svg11.dtd">
<svg version="1.1" id="Layer_1" xmlns="http://www.w3.org/2000/svg" xmlns:xlink="http://www.w3.org/1999/xlink" x="0px" y="0px"
	 width="1000px" height="1000px" viewBox="0 0 1000 1000" style="enable-background:new 0 0 1000 1000;" xml:space="preserve">
<path d="M376.7,709.4c34.8-48.1,36.3-49,37.5-49.7c21.9-13.7,34.6-33.8,45.2-57.7c25,45.6,51.4,92.4,46.2,141.5
	c-5.6,47.7-43.5,70.2-46,127.6c-0.1,2.5-0.4,4.9-0.8,7.3c57.4-34.8,132.4-25.8,202.4-23.4c55.4,1.9,104.8,2.6,154-25.8
	c28.3-16.4,55.3-34.8,82.9-52.2c-23.7-3.3-45.9-8.2-64.6-14.9c11.2-6,27.1-8.8,40.1-13.9c-2.2-1.1-10.7,4.2-12.2,0.2l20.1-7.9
	l-8-0.2l14-6.8c-0.3-1.8-8.2-0.5-10.2-0.5c0.7-9.9,4.9-9.5,13.6-13c-0.8-0.7-1.5-1.1-4-2.1l27.2-17.6l-21.1,3.4
	c-0.1-1.5,0.3-2.9,0.5-4.7l-15.1,3.5c-0.2-0.3-0.3-0.6,7.9-5.7c-4.7-0.5-8.9,0.3-13.1,0.7l17.7-12.1c-10.5,0.4-20.2,2.1-30.2,3.4
	c11.4-7.8,4-11,1.6-15.2l40.4,1.9l-32-5.9c7.4-2.3,15.5-2.1,21.7-5.7c-3.9-0.5-18-1.6-18.1-3.9c22.7-7.5,17.8-18.9,50.5-23.4
	c-2.5-0.2-4.4-0.7-6.1-0.9c7-6.4,16.2,1.9,32.3-1.8l-47.5-8.1c17.5-1.3,33.8-1.9,50-2.9c-22.7-2.9-51.6-0.6-70.5-7.2l29.7-0.8
	c-8-4.9-16.5-1.7-24.8-4.4l17.8-6.3c-0.9-2.3-7.5,1.5-6.6-1.8l42.4-12c0,0,0,0,0.1-0.5l-11.1,0.8c6.4-4.8,20.8-4,30.5-6.4
	c-3.8,0.2-7.7-0.3-8.9-2.4l18.3-2.1c-10.7-1.4-21.8-2.6-32.2-1.4c-16.4,1.8-28.2,8.2-41,8.8c-1.3-3.6,7.2-6.1,10.1-7.4
	c-10.5,2.5-20.7,5.5-30.8,8.6c21.1-14.5,43.4-24.1,68.4-23.4c-0.4-1.4-6.5-1-6-2.9c4.6-0.3,9.4-0.2,14.2-0.2
	c-2.9-1.5-6.2-2.4-9.1-2.7c-15-1.3-30-0.3-44.2,4.7c-6.5,2.5-12.7,4.1-19.4,6.4l-0.6-2.4c15.2-6.7,30.2-9.7,37.2-21.7
	c-11.6,5.4-22.2,7.6-33.4,2.1l27.4-6.2c-13.7,1.1-26.7,2.6-39.9,4.6c0-0.8-0.2-1.1-0.6-1.7c12.8-6.1,21.8-16,29.1-27.4
	c4.6-6.6,10.6-9.2,17.9-10.3c-2.5-0.2-3.5,0-4.4-1.4l9.1-2.8c-0.4-2.1-8.2-1.2-10.1-1l3.6-2.8c-1.6,0.1-3.1,0.2-5.2,0.6l6.3-16.7
	c-2.4,1.4-3.6,4.1-5.2,4.2c-7.8,0.9-15.9,0.7-24.5,0.9c20.4-26,43.7-47.7,61.7-73.9c-19.8,25.7-49.5,52.2-71,74.9l12.1-34.3
	c-22.8,35.7-8.6,36.3-40.3,43.3c-0.3-0.6-0.7-1.2-0.7-2c5.9-4.2,11.9-8.4,18.2-13.2c-5.7-0.3-9.6,5.5-15.6,3.3
	c2.9-6,4.9-11.5,7.4-16.9c-1-1-7.4,10.6-10.5,15.6l-0.1-5.1l-13.1,7.5c0.6-3.1,1.5-5.6,3.3-7.4l53.8-55.8c-7,4.4-15.7,10.6-16.1,10
	c2.1-3.2,3.8-6.5,6.6-11.3L865.2,433c1.9-4.3,7.1-14,3.7-16.4c-4,13-13,20.9-24.8,27.3c-0.7-6.8,2.1-12.3,4.5-18.5
	c4.7-11.8,14.3-19.3,22.6-28.4c8.6-9.3,20.7-19.4,25.1-30.3c-8.1,8.6-14.9,16.9-22.5,24.4c-11.5,11.8-25.3,25.2-36.4,32l1.8-5.8
	c3.2-8.2-1.8-8.1,12.2-20.9c15.7-14.2,26.9-34.9,38.4-52.2c-14.7,18.7-31,40.8-49.9,59.2c0.1-1.2-0.1-2.3-0.1-2.3
	c-3.2,4.2-14,19.9-17.3,19l1.1-5L813,426.4c0.8-7.6,1.2-14.6,4.3-20.3c2.9-6,8.5-10.8,13.1-15.9c-0.5-0.1-0.6-0.4-7.1,2.9l1.5-12
	c-3.5,5.6-5.4,10.6-8.7,14.5c-3.6,4.1-8.4,6.8-12.4,10.3c14.9-20.4,25.5-42.8,31.7-67.4c-6.3,16.7-12.3,34-23.5,48.4
	c-6.2,7.9-16.3,17.3-24.4,18.4l5.2-15.3c-4.3,7.7-6.8,16.6-12.8,21.3c-6.1,4.7-15.2,4.7-22.9,7.2c-0.3-1.8,14.8-8.1,17.5-9.6
	c-2.7,0.8-5.2,1.4-7.7,2.5c2.7-3.6,5.8-6.5,8.9-9.5l-8.8,3.4c-1.5-1.9,4.3-6.4,6.2-7.9c-3.6,1.3-6.7,3.5-10,5.4
	c8.2-10.7,30.6-40.2,43.6-41.7c-1.2-0.1-2.5-0.2-3.9-0.6l17.3-21.8c-7.9,4.2-13.3,16.3-20.4,16.4l65.6-80.1
	c-7.6,4.7-16.6,18.2-24,26.1c-17.3,19-29.4,30.4-44.5,50.5c2.9-4,4-10.3,7.2-14.5c-4.1,3.9-5.6,10.4-9.8,9.2
	c1.8-6.6,4.1-12.3,5.9-18.1c0.7-1.6,1.8-3.8,3.6-4.8c6-3.4,12.7-5.7,18.6-9.8c6.4-4.1,11.9-9.6,18-14.3l-19.6,12.8
	c9.8-9.2,21.8-16,29.9-27.5l-45.3,31.1l2-10.3c-2,2.7-3.5,4.4-4.4,6.1c-3,6.5-3.7,7.3-10.5,6l4.7-4.3c-2.3,0.1-4.1,1.2-5.6,2
	c-8.8,3.4-17.9,2.7-26.3,4l39-42.2c-7.3,5.3-14.2,11.3-20.8,17.9c-7.3,7.4-14.2,15.3-21.7,22.4c-2.5,2.6-6.4,1.3-8.6-2.6
	c8.6-5.7,16.3-11,23.6-17.1c10.2-8.6,25.1-22,3.5-5.6c-10,8.1-20.8,13.5-31,19.4l2.5-10.2c-2.4,3.4-4.3,5.6-5.1,8.5
	c-1.1,3-2.1,3.2-5.4,2.3c-10.5-3.1-20.7-6.4-31-7.7c0.3-2.2,4.1-3.2,5.8-3.7c-4.7-0.5-9.2,0.5-13.5,0.6c-5-0.3-9.7-1.6-14.3-2.1
	c4.1-1.9,5.6-2,1.9-7.8c11.5,0.6,22,0.9,32.8,1.1c-16.8-7.8-35.3-9.6-52.8-11.8c0.3-2.2,4.8-2,7.1-2.1c-4.1-5.2-7.9-1.4-12.9-4.5
	c20.2-5.6,41.5-5.9,61.9-8.5c-14.8-2.2-37.2-0.5-54.1,0.5c-22.4,2.5-43.8,8-64.6,14c6.5-2.5,4.7-6.3,11.8-9.9l-26.1,8.6
	c15.4-12,32-21.1,51-26.1c19-4.9,38.2-1.2,57.4-0.3c-13.3-3.9-26.8-6.5-39.6-9.5c5.6-5.6,13.2-3.2,20.4-5.3l-26.4-1.1l6.9-3.9
	c-18.5,2.3-36,10.7-55.1,7.8l28-7.3c-18.1-0.4-40.4,8.5-58.5,16.4c15.7-11.4,31.9-19.9,48.1-28.4c11.7-6.7,28.1-5,40-7.1
	c5.8-1,10.9-3.1,15.3-4.4c-22.3-0.7-53.1,7.8-72.8,4c22.1-7.1,44.2-10.2,66.4-12.3c-19.9-0.1-39.4,2.7-58.3,8.4
	c-2.1-2.4,3.6-4.1,4.4-6.9l-30.4,11.4c12.9-7.4,26.5-14,40.1-20.2c-12.7,4.1-25.2,9.3-37.5,14.3c33-24.9,66.1-48.2,105.8-61.4
	c-22.9,3.6-49.5,19.6-69.1,31.2c-28.8,17.7-56.5,28.8-83.1,42.8c5.6-4.8,11.8-9.2,17.6-13.7c-7.3,2.6-13.2,6.8-19.2,11.4
	c1.4-2.4,2.3-3.7,3.3-4.7c-1.3-0.9-5.6,2.8-6.4,1.3c8.2-7.1,16.5-14.2,25.4-20.9c8.6-6.5,17.8-12.6,27-18.7
	c-21.4,12.6-43.4,24.1-68.7,29.1c8.4-8.8,18.2-16,27.4-25.6c-6.5,5.3-13.7,8.7-19.5,13.1c19.4-22.2,45.2-27.1,73.3-27.3
	c-1.3-0.9-2.8-0.8-4.1-0.8c-26.1-2.5-42.1,2.7-61.9,15.2c-8.9,5.9-30.3,33.7-32,34.2c-34.3,12.1-58.2,32.9-86.9,49.4
	c-2.3-4.7,3.6-7.6,5.5-11.1c-19.7,0.2-27.9,16.4-47.7,35.3c-2.3-2.6,6.7-11.8,8.9-14.2c-7.1,4.9-14.7,9.6-19.4,16.7
	c-7,10-27.8,42.2-22.1,30.1c16.5-33.6,18.1-75.1,112-101.1c-61.3-5.8-105.8,40-118.4,89.3c-5.6,20.7-6.3,40.9-18.6,55.5
	c-2,2.7-4.5,5.3-6.9,8.7c-2.6-21.9,1-46.7,8.7-66.5c-15.8,23-14.3,31.2-17.1,52.7c-2.5,18.5-13.5,15.3-16.5,27.3c0,0,0,0-0.2-0.3
	c-2.1-10.7-3.2-21.6-1.9-33.1c-3.9,5-9.1,9.2-9.1,15.9c-0.1,3.2-0.1,6.8,0.3,10.2c-3.5-2-7.1-3.5-11.8-4
	c-13.4-1.9-22.6,4.2-28.6,2.1c-5.8-1.8-11.9-11.1-23.9-13.3c-12-2.3-21.8,4.2-27.7,3.6c-5.8-1.1-13.6-11.3-23.7-12.2
	c-9.8-1.2-16.8,3.3-23.3,2.2c-6.5-1-11.7-10-18.9-10.2c-7.7-0.3-15.7,3-19.9,2.7c-4.5-0.2-8.8-7.7-13.9-7.5
	c-5.4,0.3-9.3,1.8-13.4,0.9c-4.1-0.8-10.9-5.2-15.7-5.3c-5.1,0.1-19.9-0.1-20.2,0.8c0.2,1.1,10.7,1.4,13.4,2.6
	c2.5,0.9,7.8,4.6,10.8,5c2.9,0.3,7.6,0,9.6,0.8c2.1,0.8,8.8,10.5,19.6,11.4c10.8,0.9,12.6-0.9,16.6,1.2c3.8,1.8,6.6,10.1,16.1,12.2
	c9.8,1.9,20.4-1.8,26.7,0.2c6.4,1.5,12.1,16.9,26.7,18.9c14.6,1.9,20.6-3.5,26-1.8c5.2,1.4,15.8,16.4,31.2,19.1
	c15.6,2.2,21.8-2.2,29.2,0.3l-1.5,11.2c-1.7-2.2-1.8-3.8-2.4-7c-0.6,5.1-0.2,9.3-1.4,12.7c-4.1,11.5,0,22.2,3.6,32.5
	c2.3,7.4,10.8,10.5,14.2,16.5c-5.2,8.9-34.7,25.4-60.1,45.5l15.9-7.5c-12.1,14.9-20.6,31.3-27.3,48.6c3.2-4.2,6.3-8.4,9.6-12.3
	c0.2,0.3,0.6,0.4,1,4.6c2.9-8,8.1-14.2,16.6-19.5l-12.3,24.9l4-0.7l-1.3,9.5c0.6,0.4,1.4,0.4,9.3-16.4c0.2,0.3,0.5,0.1-7.4,51.5
	l6.1-14.2c4.4-7.7,7.1-4.9,13-19c0.2,5.9-0.5,11-1.7,15.7c-1.6,4.9-4,9-5.7,13.6c6-3.4,6.6-12.1,14.1-14.9
	c2.6-10.6,3.1-10.5,3.6-10.4l2.8,49.2l3.3-17.8c1.3,1.6,2.1,2.3,2.3,2.6l8.8-26.9l-1.1,32.8c3.6-9.6,15.4-32.7,13.2-41.3
	c-0.2-3.1,12.1-21.2,12.2-18.1c-0.7,17.5-0.9,35.1-2.4,52.6c-2.9,31-6.7,61.8-9.7,92.5c-1.5,14.7,2.8,27,14.6,36.5
	c9.9,9,16.1,22.5,29.7,23.5c14.4,0.1,27.2-4.5,39.1-12.1c9.1-5.6,14-16.4,9.1-27.1C373.6,716.4,374.3,712.8,376.7,709.4z
	 M866.7,443.2l1.3,0.9c-3.3,3.9-6.5,7.3-10,10.9c-0.2-0.3-0.8-0.7-1-1L866.7,443.2z M891.1,555.1c0.2,0.3,0.2,1.1,0.4,1.4
	c-5.2,0.6-10.6,1.7-15.8,1.5c0-0.8,0.1-1.2-0.3-1.8C880.8,555.9,886,555.2,891.1,555.1z M882.3,560.5l-23.5,8.3
	C861.6,562.5,872.4,559.9,882.3,560.5z M874,501c6.9-6.7,16.6-6.3,25.6-8.7l-5.4-0.5c-0.3-1.8,14.8-2.5,17.4-2.8
	c-0.7,7.1-3.6,9.6-8.4,11.6c-12.3,4.2-23.1,10.9-34.5,12.6C868.1,508,876.5,507.5,874,501z M894.4,518.6c-4.2,8-11.7,11.5-18.1,16.3
	c-5,3.7-10.6,6.5-17.6,3.3C876.4,523.9,883.6,520.5,894.4,518.6z M862.3,542.2c-0.1,0.5-0.1,1.2,0.3,1.8c-4,0.7-7.9,1.4-12.1,1.8
	c-0.3-0.6-0.4-1.4-0.4-2.1L862.3,542.2z M854.2,676.4c-0.3,0.9,0.2,1.8,0.5,2.9c-3.1,0.2-6.2,0.4-9.1,0.8c0-0.8-0.2-1.1-0.6-1.7
	L854.2,676.4z M839.9,490.7l2.3,1.9l-5.9,7l-2.1-1.6C836,495.7,838.2,493.3,839.9,490.7z M813.3,458.8c9.3-9.3,18-25.4,28.4-30.2
	c-3,7.3-4.7,15.4-9.2,22c-5.5,7.1-16.5,13.4-24.3,15.1l11.1-8.4C817.7,456.2,814.6,461.2,813.3,458.8z M812.3,408.5
	c-0.2,10-8.1,21.3-23.5,32.5c-7.6,4.8-8.8,5.4-11,1.6C786.9,429.4,799.9,419.6,812.3,408.5z M793.9,408.3c0.3,0.6,0.5,0.9,1.1,1.3
	c-7,10.7-18.3,17.3-27.2,25.9C776.6,426.6,785.3,417.6,793.9,408.3z M704.2,340.6c4.5-4.6,15.3-7.2,27.7-6.4
	C725.9,346.5,716.7,348.5,704.2,340.6z M737.1,362.6c0.2,0.3,0.2,1.1,0.1,1.5c-5,2.4-8.6-2.6-13.1-2
	C724.7,359,734.8,362,737.1,362.6z M713.2,372.8c3.3-6.7,6.7-9.8,13.2-6c1.1,0.6,3.2,0.1,4.8,0C726.4,375.9,719,370.6,713.2,372.8z
	 M731.4,383.8c-2,0.7-5.7-2.3-9.5-4.1c5.5-4.3,9.4-8.6,14.2-10.5c3.9-1.5,12.9-0.3,13.3,3.1C743.6,376,737.8,380.5,731.4,383.8z
	 M740.3,364.8l13.6,0.9C751.1,369.7,749.1,369.7,740.3,364.8z M763.6,380.4c-0.3-0.6-1-1-1.1-1.3c3.7-2.5,7.7-5.2,11.3-8.1l0.9,1.5
	L763.6,380.4z M779.6,355l11.1-11.1C790.3,352.8,787.9,355,779.6,355z M798,325.4c-3.1,16.1-16.3,30.4-32,30.7c4-9,7.8-17.6,12.1-26
	C779.7,326.7,786.6,329.1,798,325.4z M750.5,334.7c3-4.5,8.5-3.3,12.7-4.1c4-0.7,8-0.6,12.9-1c-3.6,6.8-6.2,13.5-9.9,19.5
	c-4.3,8.4-9.9,7.7-17.3,7.2c3.9-5,8.2-2.3,11.7-3.1c-6.1-1.7,6-14.5,0.7-13.9C755.2,344.3,746.1,339.6,750.5,334.7z M753.8,345.9
	c-3.1,7-5.6,7.6-17.3,5.2L753.8,345.9z M699.8,308.6c10.4-2,26.8,3.7,39.6,4.7c-6.1,3.9-29.4,3.4-43.2,0.9c4.8-2.7,12-2.5,14.9-3
	L699.8,308.6z M687.8,367.4c-6,6.2-7.7,6-13.8-2L687.8,367.4z M461,272.3c-11.4,5.8-20.7,13.1-31.9,17.1
	C434.5,276,449.6,267.7,461,272.3z M453.1,266.2l16.8-8.1C466.2,266.9,465.6,267.3,453.1,266.2z M459.1,288.5
	c3.5-8.4,12.2-21.7,25.1-17.9L459.1,288.5z M483.9,268l-6.8-2.9l9-9.2C488.4,257,484.7,265.9,483.9,268z M615.3,221.6l-61.3,26.8
	c7.1-11.2,20.5-12.1,30.1-19.6c-4.7,1.5-9.6,2.7-14.7,4.1C575.7,222.4,598.7,216,615.3,221.6z M566.6,216.2l1,1.8l-25.8,18.8
	c-0.6-0.4-0.8-0.7-1.1-1.3C547.8,227,557.7,222.1,566.6,216.2z M551.8,200.8c-20.6,11.8-25.8,21.5-32.3,28.8
	C516.8,215.3,538.1,199.1,551.8,200.8z M522,211.9l-19.9,26.9C499.3,237.3,515.8,210.7,522,211.9z M500.8,221.3
	c0.2,8.6-15.6,29.6-22.7,31.7c1.6-2.1,2.6-3.8,4-5.5c-5.9,5.7-15.3,7.2-23.2,10.1c-10.4,4-20.9,10-30.1,10.5
	C454.5,255.4,475.2,234,500.8,221.3z M272.6,450.2c-12.5-11.5-6.9-26.6-6.5-40.4c2.7,2,6,5.7,10.5,8.7L272.6,450.2z M297.8,442.1
	c-0.8,0-1.1,0.2-1.4,0.4l-3.9-14.4C298,431.3,299.5,436,297.8,442.1z M298.9,388.7c-0.3-2.6,3.9-9.8,5.9-12.5l1.2,13.2L298.9,388.7z
	"/>
</svg>
