<?xml version="1.0" encoding="utf-8"?>
<!-- Generator: Adobe Illustrator 24.0.0, SVG Export Plug-In . SVG Version: 6.00 Build 0)  -->
<svg version="1.1" id="Master_Line" xmlns="http://www.w3.org/2000/svg" xmlns:xlink="http://www.w3.org/1999/xlink" x="0px"
	 y="0px" viewBox="0 0 512 512" style="enable-background:new 0 0 512 512;" xml:space="preserve">
<g>
	<path d="M193.1,407.11c-0.77-0.56-1.81,0.17-1.55,1.09c1.13,4.02,0.76,8.39-1.19,12.24l-4.56,8.99c-0.2,0.39-0.79,0.19-0.71-0.24
		l0.21-1.12c0.51-2.67,0.38-5.43-0.37-8.05c-0.09-0.33-0.56-0.32-0.64,0.01l-0.7,2.8c-0.67,2.69-2.04,5.12-3.78,7.27
		c-2.55,3.14-3.49,7.29-2.55,11.22l0.49,2.06c0.08,0.33-0.28,0.59-0.57,0.41l-3.88-2.4c-4.9-3.03-7.78-8.46-7.55-14.22l0.22-5.4
		c0.02-0.37-0.47-0.54-0.69-0.24c-1.29,1.78-1.99,3.93-1.99,6.14v0.54c0,0.39-0.51,0.53-0.71,0.19l-3.21-5.46
		c-2.65-4.52-3.48-9.84-2.39-14.89c0.06-0.28,0.18-0.69,0.31-1.13c0.26-0.85-0.65-1.6-1.44-1.18c-4.78,2.6-9.01,6.25-12.3,10.77
		c-7.26,9.97-8.33,23.16-2.75,34.16l8.82,17.4c0.38,0.76,1.54,0.37,1.38-0.47l-0.41-2.17c-0.98-5.18-0.73-10.51,0.71-15.58
		c0.18-0.63,1.08-0.61,1.24,0.02l1.1,4.4c1.38,5.51,3.95,10.64,7.53,15.04c4.96,6.09,6.8,14.14,4.97,21.78l-0.96,3.99
		c-0.15,0.64,0.54,1.14,1.1,0.8l7.51-4.65c9.48-5.87,15.07-16.39,14.62-27.53l-0.42-10.45c-0.03-0.73,0.91-1.04,1.34-0.45
		c2.5,3.45,3.84,7.6,3.84,11.87v1.04c0,0.75,0.99,1.02,1.37,0.37l6.21-10.57c6.08-10.35,7.21-22.88,3.08-34.16
		C201.7,415.52,197.9,410.62,193.1,407.11z"/>
	<path d="M356.15,405.77c-0.78-0.43-1.7,0.32-1.44,1.17c0.06,0.2,0.11,0.38,0.15,0.51c1.3,5.23,0.51,10.8-2.25,15.49l-3.21,5.46
		c-0.2,0.33-0.71,0.19-0.71-0.19v-0.54c0-2.2-0.7-4.35-1.99-6.14c-0.22-0.3-0.7-0.13-0.69,0.24l0.22,5.4
		c0.23,5.75-2.65,11.19-7.55,14.22l-3.88,2.4c-0.29,0.18-0.65-0.08-0.57-0.41l0.49-2.06c0.95-3.96-0.04-8.13-2.6-11.29
		c-1.83-2.26-3.15-4.9-3.86-7.72l-0.57-2.27c-0.08-0.33-0.55-0.34-0.64-0.01c-0.75,2.62-0.87,5.37-0.37,8.05l0.21,1.12
		c0.08,0.43-0.51,0.63-0.71,0.24l-4.56-8.99c-1.95-3.85-2.32-8.22-1.19-12.24c0.26-0.92-0.77-1.66-1.55-1.09
		c-4.81,3.51-8.61,8.41-10.75,14.26c-4.13,11.27-3,23.8,3.08,34.16l6.21,10.57c0.38,0.65,1.37,0.38,1.37-0.37v-1.04
		c0-4.26,1.34-8.41,3.84-11.87c0.43-0.6,1.37-0.29,1.34,0.45l-0.42,10.45c-0.45,11.14,5.13,21.66,14.62,27.53l7.51,4.65
		c0.56,0.35,1.25-0.16,1.1-0.8l-0.96-3.99c-1.83-7.64,0.01-15.69,4.97-21.78c3.59-4.4,6.16-9.53,7.53-15.04l1.1-4.4
		c0.16-0.63,1.06-0.65,1.24-0.02c1.45,5.07,1.69,10.4,0.71,15.58l-0.41,2.17c-0.16,0.84,0.99,1.23,1.38,0.47l8.82-17.4
		c5.58-11,4.51-24.2-2.75-34.16C365.14,412.01,360.93,408.37,356.15,405.77z"/>
	<path d="M470.11,319.52l-11.05-28.95c-2.27-5.95-8.08-9.95-14.45-9.95h-56.61v-71.78c0-4.2-3.42-7.63-7.62-7.63h-9l-5.88-69.42
		c18.64-3.32,31.17-11.38,31.17-21.3c0-10.56-14.18-19.01-34.83-21.88l-0.66-7.84c-0.41-4.9-4.43-8.59-9.35-8.59h-2.27v-6.83
		c0-1.93-1.57-3.5-3.5-3.5s-3.5,1.57-3.5,3.5v6.83h-2.27c-4.92,0-8.94,3.69-9.35,8.59l-0.66,7.84
		c-20.64,2.87-34.83,11.33-34.83,21.88c0,9.92,12.53,17.98,31.17,21.3l-1.67,19.72c-6.23-2.45-12.96-3.79-19.91-3.79
		c-13.24,0-25.39,4.73-34.87,12.58V52.63c0-2.95-1.63-5.63-4.26-6.98c-2.63-1.35-5.75-1.13-8.16,0.59l-66.73,47.57
		c-2.92,2.08-4.67,5.47-4.67,9.06v11.59h-51.84c-4.2,0-7.62,3.42-7.62,7.62v6.45c0,4.2,3.42,7.62,7.62,7.62h59.53v144.49h-56.37
		V142.3c0-1.93-1.57-3.5-3.5-3.5s-3.5,1.57-3.5,3.5v138.32H67.39c-0.75,0-1.48,0.06-2.21,0.17v-72.48
		c0.53-50.55,20.61-97.99,56.55-133.58C157.7,39.12,205.38,19.5,256,19.5s98.3,19.62,134.27,55.23
		c35.94,35.59,56.02,83.03,56.55,133.54v56.23c0,1.93,1.57,3.5,3.5,3.5s3.5-1.57,3.5-3.5v-56.26
		c-0.55-52.4-21.37-101.58-58.62-138.48C357.91,32.83,308.48,12.5,256,12.5c-52.48,0-101.91,20.33-139.19,57.26
		c-37.25,36.9-58.07,86.07-58.62,138.51v75.43c-2.32,1.72-4.18,4.08-5.24,6.88l-11.05,28.95c-2.67,7,0.04,14.88,6.45,18.76
		c2.41,1.46,5.18,2.23,8,2.23h378.04l-25.24,16.14c-6.5,4.16-14.01,6.35-21.72,6.35c0,0-156.43,0-156.44,0H124.58
		c-7.71,0-15.22-2.2-21.72-6.35l-7.14-4.57c-1.63-1.04-3.79-0.56-4.83,1.06c-1.04,1.63-0.57,3.79,1.06,4.83l7.14,4.57
		c7.63,4.88,16.44,7.45,25.49,7.45h1.19l13.55,20.71c2,3.05,5.36,4.87,9.01,4.87h62.04c3.65,0,7.01-1.82,9.01-4.87l13.55-20.71
		h46.14l13.55,20.71c2,3.05,5.36,4.87,9.01,4.87h62.04c3.65,0,7.01-1.82,9.01-4.87l6.22-9.5c1.06-1.62,0.61-3.79-1.01-4.85
		c-1.61-1.06-3.79-0.61-4.84,1.01l-6.22,9.5c-0.7,1.07-1.88,1.7-3.15,1.7h-62.04c-1.28,0-2.45-0.64-3.15-1.7l-11.04-16.88h99.99
		c9.05,0,17.87-2.58,25.49-7.45l34.47-22.04h8.28c2.82,0,5.59-0.77,8-2.23C470.07,334.41,472.78,326.52,470.11,319.52z
		 M139.24,129.14h-4.73c-0.34,0-0.62-0.28-0.62-0.62v-6.45c0-0.34,0.28-0.62,0.62-0.62h8.01
		C140.57,123.45,139.34,126.15,139.24,129.14z M213.52,386.88c-0.7,1.07-1.88,1.7-3.15,1.7h-62.04c-1.28,0-2.45-0.64-3.15-1.7
		l-11.04-16.88h90.43L213.52,386.88z M380.37,208.22c0.34,0,0.62,0.28,0.62,0.63v71.78h-21.3v-72.41H380.37z M337.91,81.36
		c0.11-1.24,1.13-2.18,2.38-2.18h11.54c1.25,0,2.27,0.94,2.38,2.18l0.55,6.51c-2.81-0.2-5.71-0.31-8.7-0.31
		c-2.98,0-5.88,0.11-8.7,0.31L337.91,81.36z M314.08,121c-7.28-3.01-11.63-6.93-11.63-10.51c0-3.58,4.35-7.5,11.63-10.51
		c8.48-3.5,19.84-5.43,31.98-5.43s23.49,1.93,31.98,5.43c7.28,3.01,11.63,6.93,11.63,10.51c0,3.57-4.35,7.5-11.63,10.51
		c-8.48,3.5-19.84,5.43-31.98,5.43S322.56,124.5,314.08,121z M305.03,154.73c13.21,0,25.52,5.52,34.32,14.61h-45.29
		c-1.93,0-3.5,1.57-3.5,3.5s1.57,3.5,3.5,3.5h50.91c2.03,3.09,3.72,6.44,5,10H276.4c-1.93,0-3.5,1.57-3.5,3.5s1.57,3.5,3.5,3.5
		h76.75c1.48,0,2.84-0.68,3.73-1.86c0.88-1.17,1.17-2.71,0.76-4.12c-4.06-14.16-13.63-25.72-25.95-32.63l1.86-21.95
		c3.97,0.42,8.15,0.65,12.5,0.65c4.35,0,8.53-0.23,12.5-0.65l5.8,68.44H257.34C258,175.47,279.13,154.73,305.03,154.73z
		 M324.39,218.76h-38.84c-6.47,0-11.74,5.27-11.74,11.74v50.13h-16.56v-72.41h95.45v72.41h-16.56V230.5
		C336.13,224.02,330.87,218.76,324.39,218.76z M329.13,230.5v1.2c-0.8-0.38-1.7-0.61-2.65-0.61c-20.72,0-38.43,12.82-45.67,30.96
		V230.5c0-2.61,2.13-4.74,4.74-4.74h38.84C327.01,225.76,329.13,227.88,329.13,230.5z M244.37,201.22v-8.59h6.83
		c-0.51,2.8-0.8,5.66-0.87,8.59H244.37z M250.25,208.22v72.41h-21.3v-71.78c0-0.34,0.28-0.63,0.63-0.63H250.25z M244.37,185.63
		v-19.6h18.79v1.24c-4.5,5.35-8,11.57-10.2,18.36H244.37z M263.16,139.43v19.6h-18.79v-19.6H263.16z M244.37,132.43v-18.98
		c0-0.34,0.28-0.62,0.62-0.62h18.17v19.6H244.37z M193.35,114.45v-11.59c0-1.33,0.65-2.58,1.73-3.36l66.73-47.57
		c0.35-0.25,0.68-0.17,0.89-0.06c0.21,0.11,0.46,0.33,0.46,0.76v53.19h-18.17c-4.2,0-7.62,3.42-7.62,7.62v87.77h-7.8
		c-4.2,0-7.63,3.42-7.63,7.63v71.78h-20.91V135.09c2.26-1.32,3.78-3.77,3.78-6.57v-6.45c0-4.2-3.42-7.62-7.62-7.62H193.35z
		 M460.04,332.29c-1.32,0.8-2.84,1.22-4.38,1.22H56.34c-1.54,0-3.06-0.42-4.38-1.22c-3.51-2.12-4.99-6.44-3.53-10.27l11.05-28.95
		c1.24-3.26,4.42-5.45,7.91-5.45h377.21c3.49,0,6.67,2.19,7.91,5.45l11.05,28.95C465.03,325.85,463.55,330.17,460.04,332.29z"/>
	<path d="M356.93,116.21c0,1.93,1.57,3.5,3.5,3.5s3.5-1.57,3.5-3.5v-2.22h13.11c1.93,0,3.5-1.57,3.5-3.5s-1.57-3.5-3.5-3.5h-13.11
		v-2.22c0-1.93-1.57-3.5-3.5-3.5s-3.5,1.57-3.5,3.5v2.22h-21.76v-2.22c0-1.93-1.57-3.5-3.5-3.5s-3.5,1.57-3.5,3.5v2.22h-13.11
		c-1.93,0-3.5,1.57-3.5,3.5s1.57,3.5,3.5,3.5h13.11v2.22c0,1.93,1.57,3.5,3.5,3.5s3.5-1.57,3.5-3.5v-2.22h21.76V116.21z"/>
	<path d="M149.46,157.03h32.79c1.93,0,3.5-1.57,3.5-3.5s-1.57-3.5-3.5-3.5h-32.79c-1.93,0-3.5,1.57-3.5,3.5
		S147.53,157.03,149.46,157.03z"/>
	<path d="M149.46,179.22h32.79c1.93,0,3.5-1.57,3.5-3.5s-1.57-3.5-3.5-3.5h-32.79c-1.93,0-3.5,1.57-3.5,3.5
		S147.53,179.22,149.46,179.22z"/>
	<path d="M149.46,201.42h32.79c1.93,0,3.5-1.57,3.5-3.5s-1.57-3.5-3.5-3.5h-32.79c-1.93,0-3.5,1.57-3.5,3.5
		S147.53,201.42,149.46,201.42z"/>
	<path d="M149.46,223.61h32.79c1.93,0,3.5-1.57,3.5-3.5s-1.57-3.5-3.5-3.5h-32.79c-1.93,0-3.5,1.57-3.5,3.5
		S147.53,223.61,149.46,223.61z"/>
	<path d="M149.46,245.81h32.79c1.93,0,3.5-1.57,3.5-3.5s-1.57-3.5-3.5-3.5h-32.79c-1.93,0-3.5,1.57-3.5,3.5
		S147.53,245.81,149.46,245.81z"/>
	<path d="M149.46,268h32.79c1.93,0,3.5-1.57,3.5-3.5s-1.57-3.5-3.5-3.5h-32.79c-1.93,0-3.5,1.57-3.5,3.5S147.53,268,149.46,268z"/>
</g>
</svg>
