<?xml version="1.0" encoding="utf-8"?>
<!-- Generator: Adobe Illustrator 24.0.0, SVG Export Plug-In . SVG Version: 6.00 Build 0)  -->
<svg version="1.1" id="icons" xmlns="http://www.w3.org/2000/svg" xmlns:xlink="http://www.w3.org/1999/xlink" x="0px" y="0px"
	 viewBox="0 0 340 340" style="enable-background:new 0 0 340 340;" xml:space="preserve">
<g>
	<path d="M293.2,332.3c0.1,0,0.3,0,0.4,0c1.8,0,3.3-1.3,3.5-3.1c0.1-0.5,5.3-50.7-0.1-98.8c-2.9-25.7-16.2-49.4-36.6-65.2
		c-1.5-1.2-3.7-0.9-4.9,0.6c-1.2,1.5-0.9,3.7,0.6,4.9c18.9,14.6,31.2,36.6,33.9,60.4c5.3,47.3,0.1,96.8,0.1,97.3
		C289.9,330.4,291.3,332.1,293.2,332.3z"/>
	<path d="M42,248.7l0.3,0.7c1.1,2.5,1.9,4.9,2.5,7.3c3.2,13.1,10.6,46.3,10.6,72.1c0,1.9,1.6,3.5,3.5,3.5s3.5-1.6,3.5-3.5
		c0-26.6-7.6-60.5-10.8-73.8c-0.7-2.7-1.6-5.6-2.8-8.4l-0.3-0.6c-7.6-18.3-2.3-39.8,12.9-52.4c14.4-11.9,33.1-21.7,55.7-29
		c16.2,20,23.8,38.5,25.2,41.9h-25.2c-1.9,0-3.5,1.6-3.5,3.5s1.6,3.5,3.5,3.5h43.4h44h13.5c17.9,0,32.7,14.1,33.5,32
		c1.1,24.1,2.1,58.1,0.3,83c-0.1,1.9,1.3,3.6,3.2,3.7c0.1,0,0.2,0,0.3,0c1.8,0,3.4-1.4,3.5-3.2c1.9-25.3,0.9-59.5-0.3-83.8
		c-0.9-20.1-16.3-36.2-35.9-38.4c1.8-4.6,23.4-58.2,77.5-84.5c1.2-0.6,2-1.8,2-3.1c0-1.3-0.7-2.5-1.9-3.2c-0.7-0.3-16-8.1-42.3-14.7
		c2.7-14.9-1.3-28.5-1.5-29.3c-0.4-1.2-1.3-2.1-2.5-2.4c-1.2-0.3-2.5,0.1-3.3,0.9L239.1,82l0.3-13.5c0.4-15.6-5.3-30.6-16-42
		c-10.7-11.4-25.2-18.1-40.8-18.8c-0.1,0-0.2,0-0.3,0c-15.6,0.7-30.1,7.4-40.8,18.8c-10.7,11.4-16.4,26.3-16,42l0.3,13.5l-11.3-11.3
		c-0.9-0.9-2.1-1.2-3.3-0.9c-1.2,0.3-2.1,1.2-2.5,2.4c-0.3,1-7.2,24.3,3.4,43.6c3.8,6.9,9.8,12.2,16.7,14.7c3.2,1.2,6.3,1.8,9.4,1.8
		c0,0,0.1,0,0.1,0c0.7,14.6,8.5,27.4,20,34.9c-3.5,13.6-2.5,31.7-1.8,39.5h-7.4c0.1-0.6,0.1-1.2-0.1-1.8
		c-0.9-2.4-20.8-55.9-74.6-85.4c5.3-2.2,13.8-5.5,24.9-8.7c1.9-0.5,2.9-2.5,2.4-4.3c-0.5-1.9-2.5-2.9-4.3-2.4
		c-20.4,6-32.1,11.9-32.6,12.1c-1.2,0.6-1.9,1.8-1.9,3.2c0,1.3,0.8,2.5,2,3.1c20,9.7,35.6,23.2,47.3,36.6
		c-22.2,7.5-40.8,17.3-55.3,29.3C39.4,202.7,33.2,227.6,42,248.7z M290.4,119.4c-53.8,29.5-73.8,83-74.6,85.4
		c-0.2,0.6-0.2,1.2-0.1,1.8h-7.4c0.7-7.9,1.7-25.9-1.8-39.5c11.5-7.5,19.3-20.3,20-34.9c0,0,0.1,0,0.1,0c3.1,0,6.3-0.6,9.4-1.8
		c6.9-2.6,12.9-7.8,16.7-14.7c1.4-2.5,2.4-5,3.3-7.5C271.8,112.1,283.7,116.6,290.4,119.4z M250.8,80.1c1.2,7.6,2.1,20.9-4.2,32.1
		c-3,5.5-7.6,9.6-13,11.6c-2.4,0.9-4.8,1.3-7.1,1.3v-5.1c1.1-1.9,4.9-7.6,12.1-10.8c1.8-0.8,2.6-2.9,1.8-4.6
		c-0.8-1.8-2.9-2.6-4.6-1.8c-3.8,1.7-6.8,4-9.2,6.2v-4.5L250.8,80.1z M132.4,68.3c-0.6-28.3,21.8-52.3,50-53.6
		c28.2,1.3,50.7,25.3,50,53.6L232,89.2l-5.5,5.5c-0.4-6.4-2.5-12.4-6.2-17.9c-2.9-4.2-7.6-6.8-12.7-7c-5.3-0.2-10.2,2-13.6,6.1
		l-11.5,14l-11.5-14c-3.3-4.1-8.3-6.3-13.6-6.1c-5.2,0.2-9.8,2.8-12.7,7c-3.8,5.4-5.8,11.4-6.2,17.9l-5.5-5.5L132.4,68.3z
		 M131.2,123.8c-5.4-2-10-6.1-13-11.6c-6.2-11.2-5.4-24.6-4.1-32.1l24.3,24.5v4.5c-2.4-2.2-5.4-4.5-9.2-6.2c-1.8-0.8-3.8,0-4.6,1.8
		c-0.8,1.8,0,3.8,1.8,4.6c7.1,3.2,11,8.9,12.1,10.8v5.1C136,125.1,133.6,124.7,131.2,123.8z M145.3,130.1V96.8c0-5.8,1.7-11.2,5-16
		c1.7-2.4,4.3-3.9,7.3-4c0.1,0,0.3,0,0.4,0c2.9,0,5.6,1.3,7.5,3.5l14.2,17.3c0.7,0.8,1.7,1.3,2.7,1.3s2-0.5,2.7-1.3l14.2-17.3
		c1.9-2.4,4.8-3.7,7.9-3.5c3,0.1,5.6,1.6,7.3,4c3.4,4.9,5.1,10.2,5.1,16v6.3c0,0,0,0,0,0v25.3c0,0,0,0,0,0v1.6
		c0,20.5-16.6,37.1-37.1,37.1S145.3,150.5,145.3,130.1z M164.8,170.5c4.4,1.9,9.2,3.2,14.2,3.6v21.2c0,1.9,1.6,3.5,3.5,3.5
		s3.5-1.6,3.5-3.5V174c5-0.4,9.8-1.6,14.2-3.6c2.7,12.6,1.7,29.3,1.1,36.1h-37.6C163,199.8,162,183.1,164.8,170.5z"/>
	<path d="M169.6,120.3c5.1-1.7,7.3-5.8,7.7-7.9c0.3-1.4-0.3-2.8-1.5-3.6l-18.2-12c-0.9-0.6-2-0.7-3.1-0.4c-1,0.4-1.8,1.2-2.2,2.2
		c-1.7,5.1-1.4,10.2,0.9,14.7c2.4,4.8,7.3,7.6,12.4,7.6C166.9,120.9,168.3,120.7,169.6,120.3z M159.5,110.1
		c-0.7-1.4-1.1-2.9-1.2-4.5l10.8,7.1c-0.4,0.3-1,0.7-1.7,0.9C164.4,114.6,161,113,159.5,110.1z"/>
	<path d="M195.3,120.3c1.3,0.4,2.6,0.6,4,0.6c5,0,9.9-2.9,12.4-7.6c2.3-4.5,2.6-9.6,0.9-14.7c-0.3-1-1.1-1.8-2.2-2.2
		c-1-0.4-2.2-0.2-3.1,0.4l-18.2,12c-1.2,0.8-1.8,2.2-1.5,3.6C188,114.5,190.2,118.6,195.3,120.3z M206.6,105.6
		c-0.1,1.6-0.5,3.1-1.2,4.5c-1.5,3-4.9,4.5-7.9,3.5c-0.7-0.2-1.3-0.6-1.7-0.9L206.6,105.6z"/>
	<path d="M175.5,127.6c-1.2,1.5-0.9,3.7,0.6,4.9l4.2,3.2c0.6,0.5,1.4,0.7,2.1,0.7s1.5-0.2,2.1-0.7l4.2-3.2c1.5-1.2,1.8-3.4,0.6-4.9
		c-1.2-1.5-3.4-1.8-4.9-0.6l-2,1.6l-2-1.6C178.9,125.7,176.7,126,175.5,127.6z"/>
	<path d="M198.6,152.3c1.9,0,3.5-1.6,3.5-3.5v-6.3c0-1.4-0.8-2.6-2-3.2c-1.2-0.6-2.7-0.4-3.7,0.5c0,0-1.7,1.4-4.4,2.9
		c-5.9,3.3-13.2,3.3-19.1,0c-2.7-1.5-4.3-2.9-4.3-2.9c-1-0.9-2.5-1.1-3.7-0.5c-1.2,0.6-2,1.8-2,3.2v6.3c0,1.9,1.6,3.5,3.5,3.5
		c1.9,0,3.4-1.5,3.5-3.3c7.8,4.2,17.5,4.2,25.3,0C195.2,150.8,196.7,152.3,198.6,152.3z"/>
</g>
</svg>
