<?xml version="1.0" encoding="UTF-8"?>
<svg id="Layer_1" data-name="Layer 1" xmlns="http://www.w3.org/2000/svg" viewBox="0 0 1945.15 2109.11">
  <defs>
    <style>
      .cls-1 {
        stroke-width: 0px;
      }
    </style>
  </defs>
  <path class="cls-1" d="m930.51,2050.65c-9.44-3.27-10.78-11.75-17.05-17.63-5.31,11.32-2,22.68-2.27,34.64-16.04-3.43-20.31-18.44-30.3-28.01-10.59,10.26-5.98,24.68-10.92,36.31-24.27-25.01-26.92-70.27-5.37-97.25,6.03-7.55,10.19-14.85,10.61-24.61.55-12.96,7.1-22.77,18.09-29.45,5.74-3.49,10.2-7.36,11.49-14.59,5.69-31.98,9.09-64.09,6.02-96.58-4.31-45.76-26.52-82.4-60.07-112.19-46.5-41.28-99.83-69.7-161.58-80.93-14.4-2.62-28.54-2.08-42.3,3.24-11.59,4.49-23.42,4.78-35.48,2.52-20.88-3.9-22.52-2.6-22.25,18.23-11.4-4.13-19.06-12.95-27.82-20.15-9.99-8.22-19.74-16.74-29.82-24.85-5.84-4.7-12.53-8.69-20.2-8.09-22.94,1.81-37.68-10.21-48.49-28.38-4.72-7.93-10.27-11.57-19.77-11.91-15.79-.55-31.07-4.42-45.13-12.17-2.34-1.29-5.17-4.3-7.47-2.4-11.62,9.6-11.84-1.74-14.82-7.8-2.04-4.14-3.81-8.42-5.5-12.72-3.25-8.25-6.96-14.05-14.14-2.81-5.07-3.94-3.13-8.99-3.96-13.18-3.62-18.15-12.06-32.24-31.2-30.16-8.33.9-9.38-3.36-6.7-10.09,23.42-58.85,44.58-118.85,96.42-160.92,19.73-16.01,36.97-34.92,52.08-55.54,2.71-3.7,4.92-7.81,7.05-11.89,1.55-2.97,2.33-6.6-.78-8.85-3.12-2.26-6.08-.1-8.71,1.98-7.65,6.07-11.9,15.05-19.59,24.69,1.08-17.87,8.24-29.98,17.36-41.09,16.42-20,36.82-35.49,60.11-46,17.96-8.11,26.98-23.08,37.06-37.95,4.09-6.04-.7-6.99-4.45-8.61-7.94-3.42-16.75-5.06-24.38-12.07,5.86-3.61,11.78-2.95,17.34-3.26,22.65-1.26,45.12-3.91,67.38-8.32,9.19-1.82,18.08-4.01,23.04-13.37,3.46-6.54,9.96-3.72,15-3.58,36.53,1,70.65-6.4,101.59-26.76,7.63-5.02,13.36-10.41,11.04-20.09-1.78-7.42,2.11-7.67,7.39-7.2,15.27,1.36,30.13,4.54,44.58,9.75,8.21,2.96,12.96,1.51,10.07-8.7-2.01-7.1-1.9-12.51,8.09-9.27,6.35,2.06,7.04-2.63,7.48-6.79.97-9.22,5.06-16.63,11.74-22.9,1.98-1.86,5.03-4.76,4.66-6.58-3.25-15.9,5.44-30.1,5.97-45.1.43-12.13-7.66-22.38-19.59-26.15-25.99-8.21-42.66-26.79-56.91-48.33-6.85-10.36-14.48-19.1-27.47-21.5-6.69-1.23-10.62-6.2-11.73-12.34-3.24-17.99-20.98-25.32-28.69-39.99-2.34-4.46-5.53-1.38-7.76.93-5.43,5.62-10.7,11.39-17.15,18.29-2.28-8.64-4.01-16.35-6.43-23.84-.92-2.86-2.7-6.23-6.8-5.8-3.19.33-4.27,3.18-5.59,5.59-4.15,7.59-5.48,16.71-13.84,24.58-6.66-24.57-24.89-40.4-38.33-59.53-2.1-2.99-2.61-10.56-8.71-2.19-3.26,4.47-4.73-1.45-5.67-3.69-5.06-12.06-7.27-24.77-7.9-37.8-.59-12.13-22.48-33.37-34.39-33.34-5.25.01-8,4.25-11.18,7.43-15.54,15.52-26.31,34.5-37.85,52.89-14.53,23.16-29.72,45.79-49.19,65.16-16.23,16.15-34.26,29.69-56.6,36.28-4.78,1.41-7.98,4.22-11.02,7.83-16.36,19.47-32.62,39.06-56,53.34,4.01,3.66,7.16,6.52,11.4,10.39-7.69,2.89-12.99,6.07-12.5,15.21.31,5.8-6.46,9.71-10.55,14.03-2.73,2.88-4.4,1.53-5.82-1.84-4.16-9.93-11.1-6.59-14.64-.86-12.31,19.9-30,19.78-49.85,16.4-18.11-3.09-35.75-.33-52.85,7.05-15.58,6.72-31.44,13.07-49.59,15.27,3.22-7.75,12.12-12.4,8.51-21.24-3.49-8.55-11.81-11.29-19.49-14.41-9-3.66-18.04-7.19-26.12-12.71-.76-.52-1.86-1.64-2.28-1.43-13.69,6.83-13.6-6.12-18.1-12.49-.78-1.11-2.52-2.96-2.8-2.79-15.73,9.53-13.13-7.86-17.05-12.88-10.83-13.85-21.19-28.04-34.1-40.04-3.72-3.46-6.67-10.55-14.67-4.31-4.53,3.54-5.81-3.26-6.6-6.02-3.07-10.63-4.91-21.62-8.22-32.16-1.19-3.8.54-13.08-9.57-8.34-4.45,2.08-3.47-2.57-3.77-4.86-1.28-9.9,5.66-20.91-4.06-29.81-.47-.43,1.07-3.21,1.85-4.8,22.77-46.17,28.47-96.19,32.44-146.47.73-9.29,3.15-16.38,9.11-23.57,14.86-17.93,24.7-38.94,34.11-60.1,10.92-24.57,16.22-27.35,41.41-18.61,9.34,3.24,10.02-3.53,12.98-8.05,12.64-19.29,35.06-24.34,55.58-12.22-.87,5.72-6.21,4.35-9.58,5.69-6.58,2.62-12.64,5.77-16.65,11.84-1.82,2.76-3.21,5.87-1.14,9.04,2.24,3.41,5.68,2.62,8.75,1.57,10.64-3.64,21.47-5.53,32.73-4.34,11.03,1.17,20.53,4.95,27.71,18.1-25.65-4.07-42.35,6.74-52.94,28.69,6.44,0,13.12.29,19.77-.07,9.28-.49,18.57-.72,27.6,1.51,5.73,1.41,13.82,3.3,13.65,9.68-.16,5.9-8.4,3.2-12.94,4.41-10.14,2.71-19.68,5.12-21.71,17.91-1.2,7.61-8.23,6.88-13.43,6.28-22.17-2.55-31.62,13.81-42.6,27.95-1.34,1.73-2.65,4.24-.67,6.31,2.74,2.86,5.68.69,7-1.34,9.32-14.33,23.23-17.66,39.17-18.7,11.18-.73,19.94-9.31,30.2-13.45,13.88-5.61,27.74-8.52,43.35,1.49-6.99,3.48-12.27,5.97-17.41,8.71-4.06,2.17-8.98,4.16-10.11,8.94-4.09,17.38-16.84,22.16-32.48,25.23-27.38,5.38-39.26,27.5-45.61,50.84-7.42,27.29-14.38,54.47-27.57,79.61-4.09,7.8.82,9.89,6.52,11.49,18.25,5.11,35.74,2.91,52.22-6.37,7.24-4.08,14.12-8.81,21.31-12.99,14.13-8.23,28.91-10.17,43.57-2.03,10.67,5.93,15.1,1.76,17.14-8.47.63-3.17,1.55-6.34,1.75-9.54,3.42-55.69,34.39-95.23,75.57-128.67,8.6-6.98,17.21-14.51,27.04-19.28,14.91-7.24,21.8-18.43,24.09-34.21,1.25-8.61,4.74-16.88,7.11-25.34,4.14-14.77.09-21.73-14.74-24.03-4.58-.71-9.53,1.09-6.37-6.76.49-1.22-2.79-4.41-4.8-6.13-13.8-11.79-19.69-27.32-22.75-48.31,13.42,11.59,23.28,22.94,36.04,30.12,4.06-2.19.17-6.5,3.76-9.1,3.78,2.4,7.85,4.98,12.08,7.67,4.95-5.08-2.25-10.27,1.36-14.6q14.91,4.68,11.04-12.98c3.3-1.67,4.85,1.53,7.09,2.64,3,1.48,5.85,3.09,8.71-.11,2.24-2.51,1.44-5.16.2-7.73-2.02-4.18-4.34-12.5-3.43-12.55,12.33-.65,8.32-10.3,11.67-16.56,6.27-11.68,8.87-16.08.53-27.9-1.84-2.61-4-6.92-7.31-4.42-12.59,9.53-7.9-5.35-11.78-7.93-13.82,9.08-14.28,8.88-18.55-8.35-5.49.74-3.31,8.32-9.69,10.05-.55-5.1-1-9.83-1.6-14.53-.59-4.61-2.42-8.25-7.94-7.19-4.61.89-7.26,3.54-6.65,8.8.64,5.5.92,11.06,1.17,16.6.14,3.23.31,7.16-4.39,6.91-3.81-.2-3.07-3.83-3.3-6.46-.04-.46.11-.95,0-1.38-1.16-4.55,2.93-13.16-2.45-13.08-7.37.12-3.96,8.29-3.75,13.44.14,3.37,2.4,7.76-3.22,8.99-6.6,1.44-4.06,6.16-3.59,9.91,1.63,12.84,6.14,24.98,10.18,37.8-5.65,2.42-9.17-1.34-12.74-3.47-14.98-8.93-26.92-21.08-35.73-36.1-10.13-17.27-23.74-30.83-41.01-40.97-10.72-6.29-12.17-15.88-3.54-25.37,9.14-10.04,20.15-17.89,33.31-21.7,11.67-3.38,14.91-13.55,17.84-22.67,2.09-6.5-1.86-14.41-9.28-16.71-14.35-4.45-12.74-13.02-6.34-22.24,17.2-24.8,29.53-52.29,44.2-78.48,11.11-19.84,16.95-40.54,13.93-63.75-2.09-16.02,3.95-30.51,14.27-46.44,5.9,20.82,2.12,40.71,10.42,58.5,17.21-14.78,33.13-29.21,39.84-52.98,6.39,8.93,4.67,17.06,5.67,24.36.9,6.59,3.12,7.21,9.58,7.61,18.17,1.11,27.66-9.14,34.68-25.6,5.97,12.11,2.29,23.09,4.98,33.44,7.41,1.06,9.01-5.57,11.68-9.66,11.84-18.21,26.94-32.72,45.89-43.38,19.06-10.73,36.02-24.21,51.23-39.95,6.83-7.06,14.56-12.9,24.64-14.58,2.71-.45,5.98-1.42,7.8,1.06,1.9,2.58-.43,5.23-1.75,7.52-9.01,15.71-15.65,32.37-21.22,49.6-3.39,10.51-2.89,17.72,9.5,20.62,3.36.79,7.17,2.15,9.09,5.95-2.16,5.01-8.04,3.8-11.35,6.68-3.97,3.46-12.95,7.27-.06,11.08,5.79,1.71,2.69,5.61,1.96,9-1.93,8.91-7.86,20.35-2.04,26.28,5.04,5.13,14.38-4.97,22.34-6.77,2.62-.59,5.23-1.21,7.63-1.77,3.87,4.97-2.05,9.28,1.27,15.49,22.55-8.21,42.31-24.96,68.99-27.7-8.1,11.93-20.39,18.08-27.11,30.63,10.13.41,21.51-.14,11.9,16.5,18.91-21.96,37.22-41.91,63.62-52.19-5.72,12.64-17.41,22.11-19.02,38.72,11.36-5.32,18.85-13.6,29.54-15.81q-.38,13.3,13.76,12.33c11.37-.8,22.72-1.43,36.29,2.75-10.78,6.32-19.33,11.33-28.88,16.93,4.15,3.57,7.74,2.32,10.88,1.74,18.2-3.35,35.59-1.62,52.96,5.36,18.95,7.61,19.41,6.8,20.97-13.33.14-1.75.53-3.48.8-5.18,1.3.07,2.64-.21,2.91.21,17.85,27.41,24.92,28.82,51.77,10.16,5.24-3.64,10.38-7.41,17.79-12.72-2.26,12.78,3.37,15.69,11.92,12.67,30.09-10.61,58.53-1.92,86.64,7.46,15.27,5.09,29.92,12.24,44.49,19.19,6.38,3.04,11.2,3.5,17.88.04,69.71-36.12,138.37-34.92,205.3,7.33,9.94,6.27,19.83,12.07,31.8,12.44,10.77.33,13.56,5.12,8.62,14.59,25.17,2.86,25.8,2.42,24.81-17.44,11.1,1.75,17.61,9.59,24.24,16.96,5.92,6.59,11.06,10.11,15.95-.87,1.1-2.46,3.04-4.7,5.04-6.57,3.62-3.4,7.38-9.1,12.44-7.15,4.83,1.87,2.36,8.3,2.33,12.65-.15,25.93,6.38,50.03,18.63,74.07,3.89-4.25,6.86-7.49,11.38-12.43,1.46,18.24.16,34.87,6.84,50.45,9.32,21.76,8.92,21.85,26.32,7.12,9.82-8.31,20.2-15.72,35.75-19.92-4.73,8.41-8.32,14.55-11.68,20.82-12.42,23.14-19.57,47.82-11.3,73.41,14.46,44.74,17.59,91.57,27.68,137.08,5.11,23.06,12.82,45.33,20.13,67.73,3.74,11.47,6.5,22.93,20.35,27,4.14,1.22,7.67,6.18-.13,7.82-10.02,2.11-8.58,6.6-4.76,13.4,2.34,4.18,3.15,9.23,5.58,16.79-15.26-9.22-15.03-.4-15.87,8.49-2.08,22.07-6.06,43.94-6.38,66.21-.27,18.98,1.13,37.72,6.47,56.15-6.47,1.02-6.37-7.28-12.14-6.26-3.03,4.03-2.23,9.15-.8,12.96,7.56,20.18-3.35,33-16.92,44.91-5.72,5.02-9.04,11.62-12.7,18.03-2.52,4.41-4.68,9.07-7.59,13.2-5.37,7.64-57.08,28.44-66.23,26.42-6.73-1.49-12.65-.19-18.85,2.21-18.98,7.34-22.71,6.3-32.18-11.22-3.5-6.47-6.71-6.76-13.06-4.77-38.46,12.04-55.64.92-60.72-39.08-.97-7.62-2.66-15.43.68-24.51,8.42,7.28,9.96,19.24,20.14,25.02,2.37-7.79,4.43-15.11,6.88-22.31,1.03-3.02,2.55-6.5,6.05-7.06,4.13-.66,4.73,3.63,6.43,6.14,1.29,1.9,2.34,3.99,3.36,6.06,3.9,7.92,8.33,8.5,14.72,2.12,30.55-30.46,39.3-65.86,24.66-106.65-7.18-20.02-21.85-24.25-38.86-11.34-10.18,7.73-17.05,18.05-22.53,29.47-3.79,7.91-6.96,16.39-12.16,23.3-11.85,15.75-22.62,31.48-17.48,52.72-2.45-.11-3.74.19-4.09-.24-23.72-29.6-20.63-88.68,6.27-114.63,14.15-13.65,24.94-29.75,34.96-46.37,7.25-12.01,17.05-18.82,31.12-20.27,11.99-1.23,23.63-4.53,34.51-9.85,24.07-11.76,33.35-33.33,25.35-58.91-5.36-17.15-14.25-32-28.92-42.99-11.87-8.89-22.64-18.98-32.44-30.17-13.9-15.87-20.1-17.09-40-8.96-5.06,2.07-10.09,4.21-15.86,6.62-1.7-9.01,2.76-16.09,3.8-23.67,1.64-11.96,3.42-23.84-.95-35.59-1.82-4.89-4.34-9.97-9.7-10.91-6.24-1.1-8.24,4.88-10.71,9.13-2.51,4.32-4.49,8.95-7.44,14.96-3.99-9.97-2.42-19.1-2.75-27.91-.48-12.48-.11-25.09-4.06-37.08-3-9.08-8.5-14.97-18.63-8.27-38.96,25.75-81.18,24.35-124.38,15.33-13.14-2.75-26.32-4.97-39.88-4-8.18.58-12.72,3.05-7.44,11.76,9.21,15.17,10.96,31.69,11.39,49.16.72,28.64,12.15,54.88,22.41,81.1,8.16,20.87,17.71,41.19,26.96,62.5-9.08-.05-13.4-7.76-23.28-9.64,18.59,65.28,59.62,121.76,66.13,192.26-5.22-4.94-8.74-8.27-14.45-13.66-4.9,30.47,22.09,50.24,19.79,77.37-6.2.74-9.85-5.91-16.8-6.34-1.29,13.98,5.3,25.51,10.92,37.23,1.92,4,4.76,3.68,7.41.26,2.51-3.24,5.13-6.39,8.78-10.92,4.03,11.94,1.29,22.93,2.95,33.44,1.38,8.72,3.88,11.75,11.92,4.91,11.14-9.49,24.02-15.21,40.3-15.53-6.58,10.23-12.85,19.17-18.25,28.62-4.11,7.2-5.27,13.87,6.6,10.84,1.94,2.58.85,4.2-.27,5.63-6.84,8.74-5.27,13.32,4.87,19.73,37.93,23.97,62.03,59.73,79.62,100.62-15.84-13.96-29.53-30.27-49.99-45.04,12.73,37.33,6.29,72.71,10.17,107.39,3.43,30.71,16.08,55.97,42.01,73.18,17.03,11.31,31.05,24.39,38.05,44.17,4.01,11.32,14.43,16.58,23.95,22.13,28.08,16.34,55.02,34.14,77.32,58.12,22.88,24.6,38.19,52.82,39.88,87.76-3.85-5.79-7.4-11.81-11.61-17.33-29.15-38.22-68.82-59.16-114.79-69.86-7.16-1.67-9.48-.68-7.15,7.08,11.3,37.66,24.1,74.73,40.36,110.59,4.96,10.94,11.03,14.91,23.7,11.7,20.01-5.08,22.73-1.76,18.36,19.36,19.18-4.97,37.94-1.69,59.93-.31-19.05-29.66-44.14-50.19-64.96-74.69,37.87,21.26,70.37,49.87,105.02,78.35v-18c7.52,4.34,10.52,11.26,14.88,16.81,11.73,14.95,23.86,29.54,38.87,41.33,17.49,13.74,28.43,11.5,38.94-7.84,3.91-7.18,6.93-14.84,12.81-21.89-1.3,14.68-2.17,29.41-3.97,44.02-7.17,58.07,13.52,103.95,59.44,139.47,24.54,18.98,49.22,37.67,76.9,51.88,25.32,13,39.57,9.21,55.52-14.12,2.61-3.81,4.96-7.81,7.57-11.62,1.02-1.49,2.45-2.71,3.69-4.06,4.64,5.23,9.62,6.1,16.17,2.82,5.63-2.82,11.56-5.81,19.78-5.38-6.92,7.83-13.57,14.54-19.24,21.99-5.62,7.38-11.47,15.94-6.85,25.42,4.63,9.5,14.8,7.63,23.5,7.73,1.78.02,3.57,0,9.58,0-15.3,11.12-8.28,22.16-5.6,33.51,8.43,35.73,8.21,70.87-11.81,103.24-17.9,28.93-23.71,60.78-25.18,93.97-.82,18.47-1.68,36.95-2.96,55.4-2.17,31.51-18.83,47.58-50.5,49.27-14.91.8-29.7.02-43.67-5.62-6.64-2.68-11.25-1.57-15.7,3.84-9.42,11.46-21.76,13.49-35.15,9.12-16.26-5.31-30.78-4.04-43.78,8.12-6.49,6.07-8.75,2.04-8.52-4.72.17-5.06.44-10.2,1.44-15.14,2.52-12.34.87-14.14-11.79-12.09-11.85,1.92-21.95,8.56-36.19,14.52,14.69-32.69,31.09-59.12,62.31-72.92,11.66-5.16,23.41-3.14,35.26.24,22.36,6.38,26.3,4.03,32.99-17.91,2.83-9.28,5.52-18.62,8.86-27.72,13.32-36.34,4.94-69.14-16.3-99.66-21.89-31.45-51.54-54.17-84.75-72.27-59.42-32.38-122.86-55.61-185.69-80.18-10.5-4.11-21.85-3.86-32.85-4.63-24.42-1.71-45.93-9.85-64.08-26.42-9.46-8.64-19.35-13.11-30.55-3-4.4,3.97-6.49.7-8.59-2.43-10.84-16.15-24.94-28.46-42.89-36.1-9.67-4.12-10.31-12.37-9.51-20.89.82-8.71-2.35-12.06-11.24-12.95-30.29-3.04-52.17-20.01-68.55-44.5-8.72-13.04-15.95-27.06-24.02-40.54-7.37-12.32-14.99-23.84-29.44-29.96-10.94-4.64-16.43-15.97-21.6-26.34-4.09-8.21-7.13-16.95-11.11-26.59-13.93,9.96-24.43,23.97-41.82,32.29,3.22-8.63,5.87-15.66,8.46-22.71,12.96-35.34,5.56-66.35-20.19-93.23-23-24.01-51.08-41.04-79.8-57.06-23.24-12.96-23.27-12.67-41.83,5.65-33.45,33.03-70.41,61.29-112.84,81.94-6.06,2.95-12.08,6.52-22.93,6.88,15.14-9.61,27.55-17.48,40.43-25.66-4.71-4.53-9.08-2.94-12.88-2.84-40.64,1.12-81.42.95-121.3,10.69-18.56,4.53-36.01,11.69-52.05,22.16-12.1,7.89-12.16,9.18.2,17.6,18.89,12.87,40.09,15.7,62.3,14.11,20.19-1.45,40.3-6.48,60.65-1.07,8.9,2.37,17.45,5.15,27.14,13.06-13.72.82-24.85-5.04-36.24.8,6.03,6.65,16.05,5.97,21.17,14.64-14.12,1.99-27.99.43-41.05,4.65-4.35,1.4-10.32,1.73-11.65,6.29-1.24,4.24,4.43,6.37,7.3,9.01,18.74,17.19,37.48,34.39,56.63,51.11,39.89,34.82,87.09,53.32,138.93,61.12,26.59,4,47.44-3.86,59.91-29.06.95-1.91,2.58-3.49,4.11-5.5,6.43,6.87,3.88,15.73,7.68,23.42,6.73-2.67,9.76-9.27,14.57-13.75,6.55-6.09,13.62-9.54,22.63-6.73,4.88,1.52,11,2.95,12.22,8.03,1.09,4.56-5.82,4.81-8.34,7.91-.87,1.07-2.08,1.85-2.96,2.91-7.07,8.6-17.23,18.53-13.66,28.71,2.86,8.16,16.91,5.93,26.31,6.98,1.84.21,3.75.02,5.52.47,4.7,1.19,11.72-1.51,13.66,3.75,1.8,4.9-3.54,9.32-7.22,12.51-6.28,5.43-5.11,9.93-1.57,16.65,10.84,20.6,8.82,33.2-7.65,49.92-24.42,24.79-47.22,50.79-64.46,81.25-18.52,32.71-26.96,66.79-21.19,105.07,5.13,34.01-10.13,62.11-36.76,82.74-15.34,11.88-27.98,24.07-28.98,44.61-.13,2.73-.04,6.1-4.01,5.93-17.22-.74-18.56,11.76-20.37,24.01-.33,2.24-.93,4.44-1.58,7.49Zm544.49-1193.2c-.16-2.4,1.24-5.67-1.8-7.23-3.43-1.77-6.26.55-8.51,2.85-9.06,9.23-13.59,20.59-14.96,33.28-.29,2.68-.26,5.81,2.67,7.22,3.66,1.77,6.25-.62,8.15-3.29,7.01-9.86,11.68-20.8,14.45-32.82ZM430.12,261.99c9.3-.25,22.67-11.21,23.08-18.75.3-5.56-3.8-4.08-6.57-4.08-7.91,0-22.64,13.08-22.44,19.6.14,4.51,3.49,3.01,5.93,3.23ZM125.8,591.15c6.45-.66,18.31-15.32,17.37-21.45-.61-4-3.01-6.07-6.74-4.53-9.45,3.91-13.26,12.34-15.52,21.49-.81,3.27,1.25,5.17,4.89,4.48Zm220.8-200.42c1.02-6.65,12.87,1.38,12.01-8.49-.31-3.58-.91-9.82-6.19-9.04-6.54.96-8.32,7.68-10.16,13.24-.79,2.39.41,4.4,4.35,4.29Z"/>
</svg>