<?xml version="1.0" encoding="iso-8859-1"?>
<!-- Generator: Adobe Illustrator 23.1.0, SVG Export Plug-In . SVG Version: 6.00 Build 0)  -->
<svg version="1.1" id="line-Black" xmlns="http://www.w3.org/2000/svg" xmlns:xlink="http://www.w3.org/1999/xlink" x="0px" y="0px"
	 viewBox="0 0 315.505 503.913" style="enable-background:new 0 0 315.505 503.913;" xml:space="preserve">
<g>
	<path d="M123.851,138.103c-0.557-0.097-13.78-2.327-23.762,4.705c-1.806,1.272-2.239,3.768-0.966,5.574
		c0.779,1.106,2.017,1.697,3.273,1.697c0.796,0,1.6-0.237,2.3-0.73c7.199-5.072,17.595-3.394,17.775-3.364
		c2.167,0.376,4.242-1.074,4.625-3.247C127.479,140.561,126.027,138.487,123.851,138.103z"/>
	<path d="M188.527,145.984c0.104-0.017,10.551-1.726,17.776,3.364c0.7,0.493,1.504,0.73,2.3,0.73c1.257,0,2.495-0.591,3.273-1.697
		c1.272-1.806,0.84-4.301-0.966-5.574c-9.98-7.032-23.205-4.802-23.762-4.705c-2.171,0.383-3.618,2.45-3.241,4.622
		S186.354,146.356,188.527,145.984z"/>
	<path d="M308.688,488.625c-1.197-5.197-2.371-9.862-3.573-14.194c10.451-12.733,10.412-32.203,10.387-44.12l-0.002-1.669
		c0-16.589-17.878-100.916-21.019-115.604l14.395-15.215c0.226-0.239,0.421-0.504,0.582-0.791c0.28-0.499,0.472-1.045,0.583-1.662
		c0.102-0.342,0.204-0.693,0.306-1.089c0.014-0.056,0.027-0.111,0.039-0.167c1.186-5.612-1.13-12.032-6.105-16.814
		c-1.786-1.643-3.788-2.963-5.908-3.908c0.049-4.864-2.242-10.018-6.355-13.909c-3.127-3.01-7.033-4.915-10.919-5.449
		c-0.373-4.454-2.634-9.011-6.381-12.503c-3.236-3.062-7.106-4.914-10.888-5.452c4.008-3.675,7.294-8.477,9.356-14.056
		c6.144-16.7-0.334-34.833-14.384-40.397c-0.244-0.101-0.49-0.189-0.736-0.279c4.619-11.865,6.59-27.233,5.651-43.778
		c0.834,0.022,1.667,0.033,2.501,0.033c1.256,0,2.517-0.025,3.771-0.076c14.853-0.602,23.042-4.335,25.037-11.415
		c3.997-14.185-22.853-34.326-32.351-40.927c0.367-3.137,0.369-6.524-0.046-10.073c-0.986-8.437-4.711-21.382-16.861-35.138
		C234.069,26.731,217.393,15.989,196.2,8.046c-29.908-11.208-50.813-8.998-64.493-3.654c-0.036,0.014-0.072,0.026-0.107,0.042
		c-8.691,3.415-14.459,8.087-17.729,11.373c-6.457,6.488-10.146,14.348-9.869,20.411c-24.493,13.451-42.711,38.052-51.476,69.656
		c-7.286,26.272-7.168,55.681,0.215,75.55c-0.167,0.061-0.337,0.119-0.5,0.184c-14.077,5.604-20.54,23.735-14.406,40.418
		c4.126,11.222,12.83,19.107,22.634,21.268c-5.636,8.549-13.524,25.726-10.583,52.323c3.471,31.382-24.712,44.03-25.905,44.549
		c-1.576,0.678-2.544,2.285-2.407,3.994c0.137,1.71,1.349,3.142,3.012,3.56c0.82,0.206,10.761,2.631,23.484,2.631
		c13.165,0,29.308-2.598,41.399-12.938c11.615-9.934,17.303-25.125,16.978-45.214c6.508,4.201,13.585,7.848,21.064,10.569v14.316
		l-14.6,18.917c-24.048,10.896-45.172,27.346-62.787,48.932c-9.659,11.836-18.135,25.146-25.439,39.81
		c-0.033,0.054-0.076,0.098-0.107,0.153c-0.089,0.16-0.148,0.327-0.213,0.493c-4.635,9.377-8.786,19.312-12.444,29.792
		c-0.133,0.274-0.235,0.561-0.303,0.859c-4.66,13.491-8.524,27.857-11.542,43.096c-0.044,0.222-0.057,0.443-0.063,0.662
		C0.01,499.836,0,499.873,0,499.912c0,0.001,0,0.002,0,0.003c0,0.811,0.246,1.584,0.682,2.231c0.022,0.032,0.051,0.059,0.074,0.09
		c0.408,0.57,0.962,1.034,1.625,1.328c0.022,0.01,0.04,0.024,0.062,0.034c0.046,0.019,0.097,0.027,0.144,0.045
		c0.202,0.077,0.407,0.147,0.623,0.19c0.004,0.001,0.007,0.003,0.011,0.003c0.262,0.052,0.523,0.077,0.781,0.077
		c0.004,0,0.007-0.001,0.011-0.001h18.673c0.002,0,0.004,0,0.005,0c0.002,0,0.004,0,0.006,0h14.219c0.002,0,0.005,0,0.007,0
		c0.003,0,0.005,0,0.008,0h243.821c0.004,0,0.008,0.001,0.011,0.001c0.003,0,0.006-0.001,0.009-0.001h26.201
		c0.281,0,0.554-0.03,0.818-0.085c0.003-0.001,0.006,0,0.009-0.001c2.167-0.43,3.575-2.535,3.145-4.702
		C310.242,495.578,309.482,492.043,308.688,488.625z M283.843,495.912c-1.079-3.501-2.557-6.507-4.374-9.318
		c7.446-0.517,13.802-2.558,18.996-6.086c0.808,3.094,1.612,6.376,2.428,9.92c0.418,1.801,0.824,3.636,1.219,5.484H283.843z
		 M269.362,486.387c2.552,3.083,4.562,6.036,5.983,9.525h-19.017v-12.724C260.415,484.818,264.765,485.886,269.362,486.387z
		 M307.502,430.329c0.024,11.293,0.058,30.101-9.801,40.408c-0.037,0.042-0.08,0.079-0.115,0.122
		c-0.075,0.077-0.146,0.159-0.222,0.236c-5.128,5.139-12.253,7.637-21.783,7.637c-1.289,0-2.555-0.053-3.802-0.149
		c-0.088-0.009-0.174-0.013-0.262-0.016c-6.19-0.51-11.845-2.209-16.922-5.066c-0.072-0.05-0.152-0.087-0.227-0.132
		c-2.543-1.453-4.943-3.191-7.185-5.23c-1.635-1.486-4.165-1.367-5.651,0.269c-1.486,1.634-1.366,4.164,0.268,5.65
		c2.069,1.882,4.25,3.544,6.528,5.009v16.845h-88.8v-82.079c2.683-1.226,5.38-2.417,7.974-3.55h67.405l-0.361,10.6
		c-0.075,2.208,1.653,4.059,3.861,4.134c0.046,0.002,0.093,0.002,0.139,0.002c2.146,0,3.921-1.703,3.995-3.864l1.99-58.386
		c8.975,4.48,17.785,6.724,26.387,6.724c8.76,0,17.306-2.331,25.595-6.978c5.434,27.344,10.987,57.422,10.987,66.127
		L307.502,430.329z M26.084,495.912l-5.248-31.391c9.205,5.052,18.46,9.585,27.646,13.556c-5.214,5.838-9.751,11.739-13.723,17.834
		H26.084z M14.312,474.014l3.661,21.898h-9.07C10.524,488.264,12.335,480.971,14.312,474.014z M29.788,432.347
		c7.012,3.789,14.073,7.261,21.157,10.408c-1.387,8.461-2.496,17.2-3.328,26.198c-9.063-4.078-18.182-8.722-27.238-13.862
		C23.288,446.995,26.44,439.427,29.788,432.347z M46.046,403.67c3.971,2.346,7.95,4.574,11.937,6.669
		c-2.146,7.799-4.016,15.899-5.602,24.289c-6.374-2.885-12.73-6.036-19.047-9.457C37.352,417.385,41.609,410.23,46.046,403.67z
		 M64.164,380.878c1.019,0.654,2.039,1.296,3.06,1.929c-2.541,6.308-4.862,12.874-6.958,19.69c-3.199-1.707-6.395-3.501-9.585-5.376
		C55.054,391.197,59.568,385.797,64.164,380.878z M86.31,360.974c3.07,2.142,6.147,4.143,9.231,6.001
		c-2.165,6.428-4.081,12.82-5.762,19.187c-6.633-3.227-13.273-6.941-19.895-11.125C75.313,369.751,80.819,365.084,86.31,360.974z
		 M114.468,344.078l12.392,14.128c-1.71,4.132-3.282,8.389-4.715,12.768c-5.627-2.035-11.255-4.578-16.874-7.625
		c2.187-6.071,4.601-12.182,7.236-18.338C113.163,344.694,113.817,344.383,114.468,344.078z M135.51,305.261
		c6.709,1.758,13.415,2.661,20,2.661c6.586,0,13.293-0.904,20-2.661v11.009l-20.095,12.139l-19.905-12.186V305.261z M78.94,253.866
		c-2.415-4.028-4.689-9.16-6.773-15.174c-0.025-0.088-0.044-0.178-0.074-0.263c-0.026-0.074-0.059-0.144-0.09-0.217
		c-5.031-14.703-8.927-34.589-10.945-56.649c1.875-16.966,4.541-29.915,10.97-41.07c-0.125,6.951,1.618,14.194,5.232,22.496
		c0.724,1.664,2.475,2.634,4.271,2.357c1.793-0.274,3.178-1.721,3.373-3.525c1.215-11.26,11.213-19.591,20.882-27.647
		c4.577-3.814,8.984-7.486,12.504-11.445c5.513,9.958,15.77,16.218,25.013,21.86c7.332,4.476,14.257,8.703,18.308,14.163
		c0.9,1.213,2.409,1.816,3.896,1.557c1.489-0.258,2.705-1.333,3.144-2.778c3.75-12.348,1.209-26.901-6.278-38.934
		c40.61,10.467,77.522,26.228,87.645,62.303c-0.096,1.013-0.192,2.009-0.287,2.997c-0.002,0.021-0.004,0.042-0.006,0.063
		c-1.783,18.164-4.783,34.592-8.737,47.956l-9.413-7.929c3.54-6.754,5.383-14.318,5.311-22.159
		c-0.115-12.525-5.101-24.256-14.039-33.031s-20.738-13.586-33.284-13.429c-12.525,0.115-24.256,5.101-33.031,14.039
		c-8.775,8.938-13.544,20.758-13.429,33.284c0.007,0.729,0.034,1.454,0.073,2.177c-3.875,0.119-7.811,0.736-11.72,1.848
		c-2.125,0.604-3.358,2.816-2.754,4.941c0.5,1.759,2.103,2.907,3.846,2.907c0.362,0,0.73-0.049,1.096-0.153
		c3.579-1.017,7.166-1.536,10.667-1.559c1.982,8.623,6.366,16.522,12.832,22.871c8.833,8.672,20.479,13.431,32.841,13.431
		c0.147,0,0.295,0,0.443-0.002c7.451-0.069,14.615-1.873,21.049-5.196l13.443,15.068c0.087,0.125,0.182,0.244,0.284,0.358
		l1.703,1.916c-9.911,12.693-27.28,27.803-48.648,34.826c-7.642,2.521-15.295,3.799-22.747,3.799c-7.452,0-15.105-1.278-22.751-3.8
		C108.398,288.116,87.784,268.605,78.94,253.866z M250.264,299.519c0.627,0.829,1.325,1.561,1.94,2.207
		c0.048,0.051,0.097,0.1,0.148,0.148c3.768,3.564,8.554,5.576,13.111,5.576c0.107,0,0.212-0.016,0.319-0.018
		c1.891,4.679,6.236,9.018,11.005,11.24c-0.736,0.509-1.358,0.894-1.769,1.079c-0.034,0.016-0.068,0.032-0.102,0.048
		c-1.758,0.854-5.416,2.631-13.03-3.679c-0.049-0.04-0.099-0.08-0.149-0.118l-7.931-5.96l-5.377-3.964l-2.522-1.937
		c-4.212-3.459-7.247-9.584-7.224-14.632c-0.006-0.948,0.116-1.825,0.353-2.635c2.233,1.309,4.642,2.165,7.039,2.503
		c0.003,0.043,0.006,0.086,0.009,0.13c0.001,0.017,0.007,0.033,0.009,0.05c0.002,0.018-0.002,0.035,0,0.053
		C246.423,292.943,247.912,296.472,250.264,299.519z M294.849,354.208c-15.781,9.83-32.189,9.722-50.015-0.333l0.483-14.169
		c7.662,3.697,15.249,5.552,22.831,5.552c7.866,0,15.727-1.997,23.657-5.977C292.763,343.929,293.792,348.965,294.849,354.208z
		 M55.866,470.277c-0.002,0.002-0.004,0.004-0.006,0.006c0,0-0.001,0.001-0.001,0.001c-0.123,0.122-0.238,0.245-0.36,0.367
		c0.762-8.462,1.775-16.682,3.034-24.652c5.887,2.416,11.782,4.603,17.672,6.557C68.703,458.344,61.931,464.242,55.866,470.277z
		 M87.806,394.083c-1.522,6.522-2.788,13.023-3.805,19.512c-5.503-2.209-11.005-4.681-16.5-7.391
		c2.011-6.666,4.233-13.092,6.675-19.255C78.716,389.541,83.261,391.92,87.806,394.083z M228.8,271.48
		c0.278,3.317,1.623,6.76,3.965,9.821c-0.24,0.414-0.462,0.835-0.654,1.265c-0.963,2.112-1.444,4.465-1.429,6.95
		c-0.03,6.4,2.984,13.465,7.71,18.51l-0.831,24.39c-0.06,0.35-0.069,0.701-0.036,1.049l-0.742,21.757
		c-0.106,0.481-0.12,0.966-0.049,1.443l-0.124,3.636c-2.907-2.437-5.958-4.826-9.219-7.207c-9.158-6.699-19.017-12.446-29.31-17.11
		l-14.572-18.979v-14.241C202.435,295.881,218.249,283.275,228.8,271.48z M148.778,390.958c1.502,0,2.724,1.222,2.724,2.723
		c0,1.502-1.222,2.724-2.724,2.724c-1.501,0-2.723-1.222-2.723-2.724C146.055,392.179,147.276,390.958,148.778,390.958z
		 M184.189,380.982c3.099,5.474,5.309,11.19,6.44,16.791c-6.596,1.718-13.276,2.952-19.94,3.698V383.91
		C175.184,383.235,179.685,382.258,184.189,380.982z M191.944,378.504c5.185-1.864,10.368-4.139,15.543-6.792
		c5.322,3.902,10.767,8.257,16.492,13.192c-8.492,4.339-17.091,7.909-25.671,10.642C197.074,389.838,194.92,384.061,191.944,378.504
		z M196.464,344.048c7.473,3.494,14.691,7.595,21.548,12.241c-3.305,2.185-6.612,4.187-9.92,6.029
		c-6.16-4.283-12.239-8.028-18.152-11.187L196.464,344.048z M184.336,357.215c5.09,2.624,10.333,5.729,15.663,9.269
		c-4.112,1.942-8.223,3.619-12.328,5.027c-2.29-3.344-4.863-6.554-7.706-9.551L184.336,357.215z M215.189,367.475
		c3.258-1.919,6.512-3.999,9.759-6.229c4.065,3.067,7.793,6.159,11.31,9.377l-0.26,7.621c-1.363,0.828-2.824,1.68-4.482,2.613
		C225.853,375.888,220.458,371.465,215.189,367.475z M178.601,323.749l11.676,15.208l-18.285,19.851l-11.431-24.162L178.601,323.749
		z M167.298,367.593c0.569,1.203,1.698,2.043,3.013,2.244c0.201,0.03,0.402,0.045,0.603,0.045c1.108,0,2.178-0.461,2.941-1.29
		l0.672-0.729c1.818,1.943,3.516,3.973,5.077,6.075c-4.144,1.069-8.281,1.865-12.406,2.383l-5.894-4.828l5.27-5.427L167.298,367.593
		z M155.652,385.065c2.342,0,4.688-0.108,7.036-0.273v17.332c-2.513,0.126-5.029,0.184-7.547,0.169
		c2.639-1.955,4.361-5.082,4.361-8.612c0-3.538-1.73-6.673-4.381-8.627c0.15,0.001,0.301,0.01,0.452,0.011
		C155.6,385.065,155.624,385.065,155.652,385.065z M141.484,401.52c-6.044-0.645-12.081-1.692-18.086-3.144
		c1.124-5.959,2.474-11.731,4.04-17.315c5.379,1.516,10.761,2.598,16.139,3.25c-3.29,1.833-5.523,5.344-5.523,9.371
		C138.055,396.776,139.38,399.56,141.484,401.52z M115.648,396.291c-6.135-1.816-12.305-4.067-18.489-6.742
		c1.593-6.157,3.401-12.338,5.46-18.556c5.716,3.032,11.449,5.59,17.191,7.645C118.202,384.339,116.809,390.222,115.648,396.291z
		 M114.282,404.234c-0.932,5.99-1.657,12.141-2.17,18.448c-6.807-1.665-13.635-3.74-20.467-6.193
		c0.952-6.339,2.142-12.69,3.59-19.063C101.6,400.124,107.956,402.403,114.282,404.234z M82.851,421.733
		c-0.996,7.99-1.616,15.972-1.859,23.966c-7.024-2.257-14.062-4.86-21.089-7.797c1.512-8.254,3.298-16.223,5.359-23.887
		C71.117,416.861,76.982,419.435,82.851,421.733z M90.547,424.596c6.362,2.229,12.721,4.13,19.069,5.702
		c-7.304,4.256-14.138,8.56-20.531,12.923C89.341,437.013,89.819,430.807,90.547,424.596z M120.039,424.43
		c-0.013-0.003-0.026-0.005-0.039-0.008c0.479-6.206,1.162-12.258,2.056-18.141c8.783,2.09,17.636,3.353,26.491,3.809
		C138.41,414.823,128.912,419.598,120.039,424.43z M230.4,390.57c1.689,1.538,3.367,3.11,5.02,4.666l-0.24,7.046h-31.792
		C212.444,399.228,221.493,395.305,230.4,390.57z M245.619,330.852l0.562-16.491l2.847,2.099l7.828,5.883
		c5.169,4.266,9.897,6.368,14.471,6.367c2.375,0,4.709-0.567,7.04-1.693c2.709-1.244,6.806-4.566,9.418-7.004
		c0.632,2.989,1.427,6.767,2.334,11.12C275.037,339.375,260.779,339.282,245.619,330.852z M235.684,257.521l-0.733,0.787
		l-3.487-3.923c-0.089-0.126-0.186-0.249-0.29-0.366l-12.839-14.391c1.797-1.369,3.51-2.874,5.122-4.516
		c1.352-1.377,2.597-2.831,3.756-4.337l13.216,11.141l1.435,1.202c0.12,0.104,0.247,0.199,0.379,0.286l3.675,3.1L235.684,257.521z
		 M210.106,235.564c-5.901,3.577-12.673,5.522-19.754,5.588c-10.412,0.072-20.192-3.86-27.605-11.139
		c-5.992-5.882-9.839-13.367-11.146-21.506c-0.006-0.05-0.018-0.098-0.026-0.148c-0.295-1.883-0.454-3.802-0.472-5.743
		c-0.095-10.388,3.86-20.192,11.139-27.605c7.278-7.413,17.007-11.548,27.396-11.644c0.123-0.001,0.245-0.001,0.367-0.001
		c10.251,0,19.913,3.948,27.238,11.14c7.413,7.278,11.548,17.007,11.644,27.396c0.069,7.548-2.01,14.782-5.938,21.02
		c-0.013,0.023-0.029,0.044-0.042,0.067c-1.469,2.323-3.188,4.511-5.159,6.518c-2.224,2.265-4.679,4.22-7.309,5.852
		C210.325,235.42,210.216,235.491,210.106,235.564z M155.291,342.213l7.631,16.131l-7.608,7.835l-8.124-7.852L155.291,342.213z
		 M138.914,369.883c0.168,0,0.338-0.011,0.507-0.032c1.32-0.168,2.469-0.982,3.067-2.171l0.938-1.865l9.054,8.75
		c0.044,0.047,0.077,0.102,0.124,0.147c0.091,0.089,0.195,0.154,0.292,0.232l2.586,2.118c-8.535-0.016-17.118-1.247-25.715-3.656
		c0.942-2.874,1.946-5.693,3.012-8.454l3.129,3.567C136.671,369.392,137.771,369.883,138.914,369.883z M98.254,359.262
		c-1.665-1.029-3.33-2.091-4.992-3.208c2.74-1.835,5.465-3.539,8.165-5.122C100.325,353.717,99.265,356.494,98.254,359.262z
		 M54.688,483.136v12.776H44.427C47.499,491.591,50.907,487.351,54.688,483.136z M62.688,474.793
		c7.107-6.943,15.198-13.714,24.34-20.35c0.076-0.049,0.145-0.105,0.217-0.159c8.621-6.244,18.176-12.368,28.705-18.405
		c1.122-0.124,2.113-0.701,2.761-1.568c10.056-5.66,20.981-11.246,32.816-16.783v78.384h-88.84V474.793z M272.936,257.006
		c-0.372,1.337-0.024,2.771,0.918,3.79s2.345,1.478,3.707,1.208c2.793-0.548,6.289,0.726,8.933,3.27
		c2.99,2.829,4.488,6.82,3.643,9.706c-0.309,1.052-0.171,2.184,0.378,3.132c0.55,0.948,1.465,1.629,2.531,1.884
		c2.073,0.495,4.084,1.6,5.754,3.134c3.254,3.129,4.237,6.885,3.774,9.256c-0.061,0.23-0.123,0.443-0.186,0.657l-18.219,19.256
		c-0.458-0.001-0.966-0.026-1.288-0.073c-0.052-0.007-0.104-0.014-0.156-0.019c-3.617-0.376-8.35-4.39-9.637-8.028l2.365-2.422
		l1.003-0.997c0.029-0.029,0.057-0.058,0.085-0.087l4.909-5.125c1.53-1.594,1.478-4.126-0.116-5.656
		c-1.593-1.529-4.125-1.478-5.656,0.116l-4.218,4.395l-1.681,1.714c-0.007,0.007-0.011,0.015-0.018,0.022
		c-0.007,0.007-0.016,0.012-0.024,0.02l-3.138,3.213c-0.041,0.005-0.083,0.009-0.126,0.012c-0.06,0.004-0.119,0.01-0.179,0.018
		c-2.659,0.322-5.865-0.93-8.374-3.271c-0.487-0.511-0.944-0.997-1.302-1.47c-1.454-1.884-2.359-3.934-2.558-5.78
		c-0.038-0.557-0.007-1.111,0.059-1.66l9.289-9.948c0.72-0.771,1.076-1.751,1.076-2.729c0-1.07-0.426-2.137-1.27-2.925
		c-1.615-1.507-4.146-1.42-5.654,0.194l-9.082,9.727c-2.557,0.051-5.509-1.198-7.811-3.376c-3.687-3.488-5.032-8.675-2.879-11.102
		c0.057-0.065,0.107-0.135,0.16-0.203c0.07-0.082,0.144-0.161,0.207-0.248l15.769-16.988l4.053-4.347
		c0.213-0.225,0.463-0.451,0.595-0.549c2.216-1.568,6.804-1.017,10.667,2.638C272.72,250.607,273.596,254.635,272.936,257.006z
		 M265.678,219.256c-3.207,8.676-10.048,14.907-17.435,16.299c3.932-12.888,6.982-28.556,8.922-45.87
		C266.284,194.33,270.116,207.192,265.678,219.256z M287.324,123.942c-0.87,3.088-7.472,5.178-17.66,5.591
		c-45.083,1.821-79.966-32.044-95.962-51.146c3.671,1.656,7.375,3.287,11.093,4.88c13.429,5.753,33.588,13.817,49.188,17.601
		c0.07,0.02,0.14,0.036,0.21,0.052c5.35,1.288,10.158,2.07,13.958,2.07c1.923,0,3.591-0.2,4.939-0.634
		c0.356-0.114,0.694-0.278,1.004-0.486c2.788-1.872,4.972-4.763,6.478-8.36C273.729,103.07,289.158,117.43,287.324,123.942z
		 M111.977,35.933c-0.124-1.975,0.809-5.62,3.644-9.772c4.873,3.155,9.798,6.241,14.785,9.238c-2.124,2.648-4.18,5.491-6.167,8.534
		C119.685,41.173,115.548,38.486,111.977,35.933z M132.801,12.579c4.25,2.726,8.558,5.397,12.934,7.999
		c-3.454,2.502-6.772,5.403-9.953,8.708c-4.995-2.983-9.93-6.05-14.81-9.193C123.589,17.734,127.465,14.909,132.801,12.579z
		 M250.094,94.885c-1.961,0.429-5.082,0.202-9.101-0.568c1.138-2.503,2.028-5.044,2.689-7.623c3.232,1.044,6.477,2.06,9.737,3.048
		C252.534,92.104,251.353,93.857,250.094,94.885z M197.78,79.968c1.98-2.728,3.775-5.42,5.403-8.089
		c10.786,4.428,21.753,8.537,32.894,12.309c-0.678,2.798-1.702,5.539-3.049,8.231C223.454,89.786,211.111,85.382,197.78,79.968z
		 M206.252,42.245c-6.844-2.917-13.583-5.958-20.2-9.138c5.578-6.128,11.921-9.997,20.061-10.821
		C207.182,29.261,207.256,35.825,206.252,42.245z M204.441,50.174c-1.157,3.852-2.72,7.696-4.71,11.589
		c-8.558-3.644-16.998-7.491-25.305-11.55c2.159-3.886,4.315-7.47,6.551-10.679C188.647,43.255,196.471,46.803,204.441,50.174z
		 M195.738,68.756c-1.661,2.642-3.512,5.323-5.563,8.06c-7.901-3.341-16.018-6.971-24.008-10.744
		c1.533-3.041,3.02-5.982,4.482-8.801C178.889,61.302,187.256,65.127,195.738,68.756z M254.681,76.04c0.242,2.071,0.3,4,0.225,5.792
		c-3.33-1.015-6.645-2.06-9.946-3.134c0.292-4.454-0.084-9.021-1.136-13.711c3.004,0.998,6.023,1.974,9.061,2.925
		C253.971,71.358,254.462,74.163,254.681,76.04z M237.09,76.075c-10.146-3.469-20.146-7.218-29.992-11.24
		c1.943-3.881,3.525-7.738,4.737-11.606c7.525,3.046,15.179,5.932,22.949,8.665C236.388,66.797,237.153,71.515,237.09,76.075z
		 M213.785,45.383c0.951-5.077,1.326-10.217,1.107-15.511c6.733,7.738,11.907,15.037,15.568,21.971
		C224.834,49.774,219.276,47.62,213.785,45.383z M192.723,17.812c-5.381,2.654-9.969,6.642-14.133,11.628
		c-5.643-2.833-11.191-5.769-16.654-8.793C171.256,16.898,181.493,15.954,192.723,17.812z M173.731,35.948
		c-2.229,3.302-4.366,6.891-6.479,10.708c-8.259-4.191-16.382-8.595-24.37-13.195c3.35-3.304,6.85-6.119,10.51-8.432
		C160.039,28.809,166.818,32.451,173.731,35.948z M137.362,39.518c8.552,4.963,17.262,9.696,26.121,14.195
		c-1.493,2.877-2.995,5.851-4.53,8.897c-9.865-4.815-19.358-9.782-27.806-14.612C133.153,44.946,135.223,42.118,137.362,39.518z
		 M248.774,58.21c-2.649-0.866-5.286-1.75-7.908-2.653c-2.587-6.468-6.373-13.162-11.365-20.099
		C239.097,43.271,245.065,51.261,248.774,58.21z M172.424,9.573c-6.696,0.99-13.036,3.071-19.017,6.225
		c-3.595-2.093-7.158-4.219-10.669-6.397C150.559,7.707,160.366,7.316,172.424,9.573z M60.235,108.011
		c8.22-29.642,25.195-52.605,47.946-64.968c4.277,3.002,9.431,6.271,15.255,9.695c0.013,0.008,0.023,0.019,0.036,0.027
		c0.018,0.011,0.038,0.016,0.056,0.027c9.924,5.83,21.771,12.104,34.5,18.268c2.646,3.93,13.179,18.839,30.103,33.669
		c21.355,18.712,44.446,29.699,67.54,32.277c0.697,11.004,0,21.64-1.948,30.782c-16.229-35.275-57.706-49.65-100.757-59.735
		c-1.735-0.407-3.534,0.387-4.404,1.944c-0.87,1.558-0.603,3.504,0.655,4.77c8.889,8.947,13.747,21.725,13.06,33.139
		c-4.408-3.799-9.666-7.008-14.806-10.146c-10.948-6.683-21.288-12.996-24.324-24.177c-0.425-1.564-1.751-2.717-3.359-2.92
		c-1.606-0.205-3.179,0.583-3.979,1.993c-2.97,5.228-8.883,10.155-15.144,15.372c-7.218,6.014-15.107,12.588-19.771,20.9
		c-1.909-8.498-0.778-15.664,3.371-23.889c0.876-1.738,0.375-3.854-1.188-5.014s-3.735-1.026-5.143,0.317
		c-12.475,11.891-18.417,24.476-21.859,40.804C53.936,144.948,55.309,125.775,60.235,108.011z M45.344,219.264
		c-4.435-12.063-0.608-24.931,8.5-29.584c1.951,17.433,5.006,33.109,8.891,45.909C55.385,234.154,48.533,227.936,45.344,219.264z
		 M84.29,331.314c-13.871,11.882-35.063,11.728-47.551,10.33c9.98-7.486,23.801-22.475,21.098-46.908
		c-2.686-24.291,4.388-39.602,9.215-46.94c1.587,3.83,3.266,7.246,5.028,10.185c1.727,2.878,3.824,5.88,6.238,8.919
		c1.782,12.728,0.513,24.005-2.98,25.929c-1.935,1.066-2.64,3.499-1.574,5.434c0.729,1.323,2.097,2.071,3.507,2.071
		c0.652,0,1.314-0.16,1.926-0.497c6.694-3.686,8.061-14.251,7.908-23.177c3.362,3.323,7.063,6.583,11.055,9.671
		C99.707,306.951,95.057,322.091,84.29,331.314z M132.473,323.744l17.701,10.836l-12.167,24.201l-17.329-19.755L132.473,323.744z"/>
	<path d="M212.1,179.744c-6.014-5.904-13.958-9.115-22.395-9.036c-8.428,0.078-16.321,3.432-22.226,9.446
		c-12.188,12.415-12.004,32.432,0.411,44.621c6.133,6.021,14.119,9.022,22.102,9.022c8.177,0,16.351-3.151,22.519-9.433
		c5.904-6.014,9.113-13.967,9.036-22.395S218.114,185.649,212.1,179.744z M213.547,202.043c0.032,3.494-0.695,6.878-2.102,9.967
		l-18.875-33.139c5.075,0.553,10.008,2.736,13.925,6.582C210.985,189.861,213.489,195.752,213.547,202.043z M183.764,179.573
		l22.567,39.621c-2.891,2.789-6.321,4.696-9.96,5.713l-23.344-38.964c0.057-0.059,0.105-0.125,0.163-0.184
		C176.209,182.683,179.877,180.633,183.764,179.573z M168.176,193.413l19.314,32.238c-5.1-0.541-10.061-2.721-13.996-6.585
		C166.495,212.194,164.712,201.99,168.176,193.413z"/>
	<path d="M123.082,182.353c-3.834-2.271-8.405-3.433-13-3.507c-5.085-0.805-8.299-2.836-10.395-6.583
		c-1.079-1.929-3.518-2.615-5.444-1.538c-1.928,1.079-2.616,3.516-1.538,5.444c1.213,2.168,2.693,4.003,4.445,5.521
		c-5.342-0.531-7.506-1.783-9.227-5.12c-1.012-1.964-3.424-2.734-5.388-1.722c-1.963,1.012-2.735,3.425-1.722,5.388
		c4.106,7.965,10.972,9.105,17.084,9.549c0.093,0.006,0.184,0.009,0.276,0.01c0.006,0,0.012,0.001,0.017,0.001
		c0.226,0,0.452-0.027,0.678-0.065c0.06-0.01,0.118-0.023,0.177-0.035c0.178-0.039,0.353-0.091,0.527-0.155
		c0.041-0.015,0.084-0.026,0.125-0.043c0.179-0.073,0.356-0.158,0.528-0.26c2.703-1.601,6.013-2.405,9.327-2.415
		c0.022,0,0.046,0.005,0.068,0.005c0.019,0,0.038-0.005,0.057-0.005c3.314,0.01,6.624,0.814,9.328,2.415
		c1.899,1.125,4.354,0.497,5.48-1.404C125.611,185.932,124.983,183.479,123.082,182.353z"/>
</g>
</svg>
