<?xml version="1.0" encoding="utf-8"?>
<!-- Generator: Adobe Illustrator 25.2.3, SVG Export Plug-In . SVG Version: 6.00 Build 0)  -->
<svg version="1.1" id="Layer_1" xmlns="http://www.w3.org/2000/svg" xmlns:xlink="http://www.w3.org/1999/xlink" x="0px" y="0px"
	 viewBox="0 0 512 440.2" enable-background="new 0 0 512 440.2" xml:space="preserve">
<g>
	<path d="M240.1,64C136.4,64,52,148.4,52,252.1s84.4,188.1,188.1,188.1s188.1-84.4,188.1-188.1S343.8,64,240.1,64z M240.1,424.2
		C145.2,424.2,68,347,68,252.1S145.2,80,240.1,80s172.1,77.2,172.1,172.1S335,424.2,240.1,424.2z"/>
	<path d="M397.8,214.4c-3.1-3.1-8.2-3.1-11.3,0l-16,16c-0.7,0.7-1.3,1.6-1.7,2.5l-11.4,26.6l-18.9,18.9c-1.8,1.8-2.7,4.4-2.2,7
		l7.1,42.5l-23.2,13.2c-1.2,0.7-2.3,1.7-3,3l-14.8,25.9l-15.7,7.9l-11.7-16.2c20.9-19.5,21.2-52.2,21.2-53.6c0-4.4-3.6-8-8-8h-32
		v-7.1c0-6.1-3.4-11.6-8.8-14.3l-21-10.5l2.9-7.2l41.7,6.9c3,0.5,5.9-0.7,7.7-3.1l10.4-13.9l25.4-7.3c2.9-0.8,5.1-3.2,5.6-6.1
		c4.2-21-11.8-33.4-20.9-37c-2-0.8-4.2-0.8-6.2,0.1l-33.2,14.7l-25-8.3l3.6-9.1l33-14.7c0.7-0.3,1.3-0.7,1.9-1.2l24-20
		c2.2-1.8,3.2-4.7,2.8-7.5l-3.7-22.1l7.4-22.1c1.4-4.2-0.9-8.7-5.1-10.1c-4.2-1.4-8.7,0.9-10.1,5.1l-8,24c-0.4,1.2-0.5,2.6-0.3,3.8
		l3.2,19.5l-19.6,16.4l-35,15.6c-1.9,0.8-3.4,2.4-4.2,4.3l-8,20c-0.8,2-0.8,4.3,0.2,6.3c0.9,2,2.6,3.5,4.7,4.2l36,12
		c1.9,0.6,4,0.5,5.8-0.3l32.5-14.5c3.3,2,8.2,6.2,8.7,13l-22.7,6.5c-1.7,0.5-3.2,1.5-4.2,2.9l-9.1,12.1l-43.2-7.2
		c-3.7-0.6-7.3,1.4-8.7,4.9l-5.3,13.2c-3.1,7.7,0.3,16.6,7.7,20.3l21,10.5v7.1c0,8.8,7.2,16,16,16h23.3c-1.3,9.2-5,24.2-15.4,33.9
		c-5.8,5.4-6.7,14.4-2,20.9l11.6,16.3c3.1,4.3,8,6.7,13,6.7c2.4,0,4.9-0.6,7.2-1.7l17.9-8.9c1.4-0.7,2.6-1.8,3.4-3.2L330,354
		l26.1-14.9c2.9-1.7,4.5-5,3.9-8.3l-7.3-44l17.1-17.1c0.7-0.7,1.3-1.6,1.7-2.5l11.4-26.6l14.9-14.9
		C400.9,222.6,400.9,217.6,397.8,214.4z"/>
	<path d="M192.4,160.1h43.7c3.1,0,6-1.8,7.3-4.7l20-44c1.8-4,0-8.8-4-10.6c-4-1.8-8.8,0-10.6,4l-17.9,39.3h-30.2l5.6-7
		c1.6-2,2.1-4.5,1.5-6.9l-8-32c-1.1-4.3-5.4-6.9-9.7-5.8c-4.3,1.1-6.9,5.4-5.8,9.7l7,28.2l-8.3,10.4c-2.9,3.6-3.5,8.5-1.4,12.7
		C183.6,157.5,187.7,160.1,192.4,160.1z"/>
	<path d="M88,208.1c1.2,0,2.4-0.3,3.6-0.8l24-12c2.7-1.4,4.4-4.1,4.4-7.2v-18.5l26.8-10.1c2.3-0.8,4-2.7,4.8-5l8-24
		c1.4-4.2-0.9-8.7-5.1-10.1c-4.2-1.4-8.7,0.9-10.1,5.1l-6.8,20.4l-28.4,10.7c-3.1,1.2-5.2,4.2-5.2,7.5v19.1l-19.6,9.8
		c-4,2-5.6,6.8-3.6,10.7C82.3,206.5,85.1,208.1,88,208.1z"/>
	<path d="M155.1,312.7c-1.8-0.7-7.2-3.7-8.6-7.5c-0.4-1-0.7-2.7,0.7-5.6c10-19.9-0.1-35.4-0.5-36c-1.3-1.9-3.3-3.2-5.5-3.5
		c-10.3-1.5-20.3-5.8-21.1-8.1c0-18-29.1-23.1-34.9-23.9c-4.4-0.6-8.4,2.4-9,6.8c-0.6,4.4,2.4,8.4,6.8,9.1
		c10.3,1.5,20.3,5.8,21.1,8.1c0,15.2,20.5,21.2,30.5,23.2c1.1,3.4,2.1,9.7-1.7,17.3c-3.1,6.2-3.6,12.6-1.3,18.4
		c2.5,6.7,8,11.2,12.2,13.8c-0.8,8-4,23.4-15.7,23.4c-4.4,0-8,3.6-8,8c0,4.4,3.6,8,8,8c25.3,0,32-28.8,32-44
		C160.1,316.9,158.1,314,155.1,312.7z"/>
	<path d="M235.1,376.7c-2.1-0.8-4.5-0.8-6.6,0.3c-8.9,4.4-20.4,7.2-22.8,5.5c-10.7-10.7-33.5-4.2-40.2-1.9
		c-4.2,1.4-6.5,5.9-5.1,10.1c1.4,4.2,5.9,6.5,10.1,5.1c9.8-3.2,21.6-4.2,23.8-1.9c9.7,9.7,28.5,3.3,37.7-0.8c5.7,2.9,12,7.6,12,11.2
		c0,4.4,3.6,8,8,8c4.4,0,8-3.6,8-8C260.1,387.2,237.6,377.8,235.1,376.7z"/>
	<path d="M66,140.4c-0.8-2.5-2.8-4.5-5.3-5.2l-24.3-7.2l24.3-7.2c2.5-0.7,4.5-2.7,5.3-5.2c0.8-2.5,0.3-5.3-1.3-7.4L49.2,88.2
		l23.9,8.5c2.5,0.9,5.3,0.5,7.4-1.1c2.1-1.6,3.4-4.1,3.3-6.7l-0.7-25.3l14.3,20.9c1.5,2.2,4,3.5,6.6,3.5s5.1-1.3,6.6-3.5L125,63.7
		l-0.2,8.2c-0.1,4.4,3.4,8.1,7.8,8.2c4.4,0.2,8.1-3.4,8.2-7.8l1-35.3c0.1-3.5-2.1-6.7-5.5-7.8c-3.4-1.1-7.1,0.2-9.1,3.1L104,65.9
		L81,32.2c-2-2.9-5.7-4.2-9.1-3.1c-3.4,1.1-5.6,4.3-5.5,7.8l1.1,40.8L29,64c-3.3-1.2-7.1,0-9.2,2.8c-2.1,2.9-2,6.8,0.1,9.6
		l24.9,32.4L5.7,120.4c-3.4,1-5.7,4.1-5.7,7.7c0,3.5,2.3,6.7,5.7,7.7l39.2,11.5L20,179.6c-2.7,3.5-2,8.5,1.5,11.2
		c1.5,1.1,3.2,1.7,4.9,1.7c2.4,0,4.8-1.1,6.4-3.1l32-41.6C66.3,145.7,66.8,142.9,66,140.4z"/>
	<path d="M507.6,327.6l-36.4-18.5l30.4-27.3c2.6-2.4,3.4-6.2,1.9-9.4s-5-5-8.5-4.5l-51.8,8.3c-4.4,0.7-7.3,4.8-6.6,9.2
		c0.7,4.4,4.8,7.3,9.2,6.6l25-4L451.8,305c-2,1.8-2.9,4.4-2.6,7c0.3,2.6,2,4.9,4.3,6.1l22.6,11.5l-25.2,2.6
		c-2.6,0.3-4.9,1.8-6.2,4.1c-1.3,2.3-1.3,5.1-0.1,7.5l11.5,22.5l-21.9-12.7c-2.3-1.3-5.1-1.4-7.5-0.3c-2.4,1.1-4.1,3.4-4.5,6
		l-3.9,25l-3.3-7.5c-1.8-4-6.5-5.9-10.6-4.1c-4,1.8-5.9,6.5-4.1,10.6l14.3,32.3c1.3,2.9,4.2,4.8,7.3,4.8c0.3,0,0.7,0,1-0.1
		c3.5-0.5,6.3-3.2,6.9-6.7l6.3-40.3l35.3,20.5c3.1,1.8,7,1.3,9.5-1.1c2.6-2.4,3.2-6.3,1.6-9.5l-18.6-36.3l40.6-4.2
		c3.5-0.4,6.4-3,7-6.5C512.5,332.7,510.8,329.2,507.6,327.6z"/>
	<path d="M166.6,27.3c0.8,0,1.6-0.1,2.4-0.4c4.9-1.5,9.9-2.9,14.9-4.2c4.3-1,6.9-5.4,5.9-9.7c-1.1-4.3-5.4-6.9-9.7-5.9
		c-5.3,1.3-10.7,2.8-15.9,4.4c-4.2,1.3-6.6,5.8-5.2,10C160,25.1,163.2,27.3,166.6,27.3z"/>
	<path d="M385.6,66.1c8,6.2,15.6,13.1,22.7,20.3c1.6,1.6,3.6,2.4,5.7,2.4c2,0,4.1-0.8,5.6-2.3c3.1-3.1,3.2-8.2,0.1-11.3
		c-7.6-7.7-15.8-15-24.3-21.7c-3.5-2.7-8.5-2.1-11.2,1.4C381.5,58.4,382.1,63.4,385.6,66.1z"/>
	<path d="M445.1,134.9c1.5,2.6,4.2,4,7,4c1.4,0,2.7-0.3,4-1.1c3.8-2.2,5.2-7.1,3-10.9c-5.4-9.4-11.4-18.5-18-27.1
		c-2.7-3.5-7.7-4.2-11.2-1.5c-3.5,2.7-4.2,7.7-1.5,11.2C434.4,117.6,440.1,126.1,445.1,134.9z"/>
	<path d="M458.5,162.2c3.9,9.4,7.1,19.1,9.7,28.9c1,3.6,4.2,5.9,7.7,5.9c0.7,0,1.4-0.1,2.1-0.3c4.3-1.1,6.8-5.5,5.7-9.8
		c-2.8-10.4-6.3-20.8-10.4-30.8c-1.7-4.1-6.4-6-10.4-4.4C458.8,153.5,456.8,158.2,458.5,162.2z"/>
	<path d="M274.7,18.5c10,1.5,20.1,3.6,29.8,6.4c0.7,0.2,1.5,0.3,2.2,0.3c3.5,0,6.7-2.3,7.7-5.8c1.2-4.3-1.3-8.7-5.5-9.9
		c-10.4-2.9-21.1-5.2-31.8-6.8c-4.4-0.7-8.4,2.4-9.1,6.8C267.3,13.8,270.4,17.9,274.7,18.5z"/>
	<path d="M333.3,35.1c9.3,4,18.4,8.7,27.2,13.8c1.3,0.8,2.7,1.1,4.1,1.1c2.7,0,5.4-1.4,6.9-3.9c2.3-3.8,1-8.7-2.8-11
		c-9.3-5.5-19.1-10.5-29-14.8c-4.1-1.7-8.8,0.1-10.5,4.2C327.3,28.6,329.2,33.4,333.3,35.1z"/>
	<path d="M213,17.5c0.3,0,0.6,0,0.9,0c10-1.1,20.4-1.6,30.5-1.4c4.4,0.2,8.1-3.4,8.1-7.9c0.1-4.4-3.4-8.1-7.9-8.1
		c-10.8-0.2-21.8,0.3-32.5,1.5c-4.4,0.5-7.6,4.4-7.1,8.8C205.5,14.5,209,17.5,213,17.5z"/>
	<path d="M481.1,212.2c-4.4,0.6-7.5,4.6-6.9,9c0.7,5.1,1.2,10.3,1.5,15.4c0.3,4.2,3.8,7.5,8,7.5c0.2,0,0.3,0,0.5,0
		c4.4-0.3,7.8-4.1,7.5-8.5c-0.4-5.5-0.9-11-1.6-16.5C489.5,214.7,485.5,211.6,481.1,212.2z"/>
</g>
</svg>
