<svg id="Outline" xmlns="http://www.w3.org/2000/svg" viewBox="0 0 512 512"><g id="Outline-2" data-name="Outline"><path d="M462.625,19.43,448.484,33.57l-5.656-5.664a24,24,0,0,0-33.937,33.953l5.656,5.657L385.211,96.845C361.753,49.058,312.726,16.006,256,16c-79.461-.009-143.938,64.831-144,144-.044,56,0,224,0,224h-8a24.027,24.027,0,0,0-24,24v24H40a24.027,24.027,0,0,0-24,24v16a24.027,24.027,0,0,0,24,24H472a24.027,24.027,0,0,0,24-24V456a24.027,24.027,0,0,0-24-24H432V408a24.027,24.027,0,0,0-24-24h-8V160c0-3.23-.274-6.392-.485-9.57l48.969-48.977,5.657,5.656a24,24,0,1,0,33.945-33.937l-5.656-5.656,14.148-14.141A24.006,24.006,0,1,0,462.625,19.43ZM480,456v16a8.005,8.005,0,0,1-8,8H40a8.005,8.005,0,0,1-8-8V456a8.005,8.005,0,0,1,8-8H472A8.005,8.005,0,0,1,480,456Zm-64-48v24H96V408a8.005,8.005,0,0,1,8-8H408A8.005,8.005,0,0,1,416,408ZM222.3,297.633l-36.32-46.406a8.006,8.006,0,0,1,.984-11.266c3.391-2.844,8.445-2.406,11.617,1.359l11.633,12.2a11.7,11.7,0,0,0,4.219,2.321c14.273,2.851,24.383,10.281,30.015,22.086a8,8,0,0,0,14.438-6.907c-5.1-10.647-15.682-23.981-36.781-29.669L200,180.289a8.028,8.028,0,0,1,5.664-9.812,8.2,8.2,0,0,1,9.945,6.148l16.813,49.93A8,8,0,0,0,248,224V160a8,8,0,0,1,16,0v64a8,8,0,0,0,15.578,2.555l16.961-50.414A8,8,0,1,1,312,180.281l-13.867,51.727a8,8,0,0,0,13.851,7.211s7.69-9.092,10.211-12.156a8,8,0,0,1,12.258,10.289c-11.264,13.18-44.578,53.125-44.578,53.125a7.974,7.974,0,0,0-1.875,5.14V384H224V302.563A8,8,0,0,0,222.3,297.633ZM368.926,384l-11.535-23.133,6.953-20.859a8,8,0,0,0-15.172-5.063L343.7,351.361l-16.411-5.47a8,8,0,1,0-5.062,15.172l20.851,6.953L351.051,384H304V298.531l42.711-50.9a23.995,23.995,0,0,0-25.961-38.2l6.7-25.024a24.037,24.037,0,0,0-16.976-29.391c-12.782-3.406-25.969,4.2-29.243,16.493L280,175.172V160a24,24,0,0,0-48,0v15.219L230.914,172a24.032,24.032,0,0,0-29.4-16.977c-12.774,3.43-20.383,16.61-16.766,30.047l13.688,37.875A24.276,24.276,0,0,0,176.68,227.7c-9.868,8.06-11.158,23.9-3.125,33.594C182.469,272.059,208,305.32,208,305.32V384H128V160a127.266,127.266,0,0,1,27.7-79.284L162.5,94.3l-6.95,20.849a8,8,0,1,0,15.172,5.063c1.358-4.107,5.471-16.416,5.471-16.416s12.314,4.087,16.412,5.471a8,8,0,0,0,5.062-15.172l-20.859-6.953-9.575-19.15A127.847,127.847,0,0,1,384,160V384ZM485.258,42.063s-14.8,14.9-19.805,19.8a8.1,8.1,0,0,0,0,11.313c2.857,2.8,11.313,11.312,11.313,11.312A8,8,0,1,1,465.453,95.8L454.141,84.484a8.235,8.235,0,0,0-11.313,0l-45.916,45.923a142.178,142.178,0,0,0-5.024-17.615s29.621-29.816,39.628-39.62a8.1,8.1,0,0,0,0-11.313c-2.857-2.8-8.463-8.506-11.313-11.312a8,8,0,0,1,11.313-11.32s8.513,8.462,11.312,11.32a8.1,8.1,0,0,0,11.313,0c4.9-5,19.8-19.8,19.8-19.8a8,8,0,1,1,11.32,11.313Z"/><path d="M292.367,54.063a8,8,0,1,0-5.2,15.125,96.445,96.445,0,0,1,41.93,28.656,8,8,0,1,0,12.187-10.375A112.337,112.337,0,0,0,292.367,54.063Z"/><circle cx="352" cy="120" r="8"/></g></svg>