<?xml version="1.0" encoding="UTF-8" standalone="no"?>
<svg
   xmlns:dc="http://purl.org/dc/elements/1.1/"
   xmlns:cc="http://creativecommons.org/ns#"
   xmlns:rdf="http://www.w3.org/1999/02/22-rdf-syntax-ns#"
   xmlns:svg="http://www.w3.org/2000/svg"
   xmlns="http://www.w3.org/2000/svg"
   xmlns:sodipodi="http://sodipodi.sourceforge.net/DTD/sodipodi-0.dtd"
   xmlns:inkscape="http://www.inkscape.org/namespaces/inkscape"
   width="48"
   height="48"
   viewBox="0 0 12.7 12.7"
   version="1.1"
   id="svg8"
   sodipodi:docname="clapperboard, 1.svg"
   inkscape:version="1.0 (4035a4fb49, 2020-05-01)">
  <defs
     id="defs2" />
  <sodipodi:namedview
     inkscape:snap-global="true"
     id="base"
     pagecolor="#ffffff"
     bordercolor="#666666"
     borderopacity="1.0"
     inkscape:pageopacity="0.0"
     inkscape:pageshadow="2"
     inkscape:zoom="8"
     inkscape:cx="43.391716"
     inkscape:cy="22.589795"
     inkscape:document-units="px"
     inkscape:current-layer="layer1"
     inkscape:document-rotation="0"
     showgrid="false"
     units="px"
     inkscape:window-width="1920"
     inkscape:window-height="1018"
     inkscape:window-x="-6"
     inkscape:window-y="-6"
     inkscape:window-maximized="1" />
  <metadata
     id="metadata5">
    <rdf:RDF>
      <cc:Work
         rdf:about="">
        <dc:format>image/svg+xml</dc:format>
        <dc:type
           rdf:resource="http://purl.org/dc/dcmitype/StillImage" />
        <dc:title></dc:title>
      </cc:Work>
    </rdf:RDF>
  </metadata>
  <g
     inkscape:label="Layer 1"
     inkscape:groupmode="layer"
     id="layer1">
    <g
       style="fill:#000000"
       transform="matrix(0.84371606,0,0,0.84371606,45.414907,19.598353)"
       id="g860">
      <g
         style="fill:#000000"
         id="g832">
        <g
           style="fill:#000000"
           id="g805">
          <g
             style="fill:#000000"
             id="g779">
            <g
               style="fill:#000000"
               transform="translate(-43.030394,17.118613)"
               id="g754">
              <g
                 style="fill:#000000"
                 id="g730">
                <path
                   d="m -7.7829531,-34.342627 c -0.2871916,0 -0.5183145,0.231123 -0.5183145,0.518315 v 0.558622 0.374654 5.1139 c 0,1.027709 0.8274746,1.855183 1.855184,1.855183 h 6.8833004 c 1.0277098,0 1.8551838,-0.827474 1.8551838,-1.855183 v -5.1139 -0.374654 -0.558622 c 0,-0.287193 -0.231122,-0.518315 -0.518314,-0.518315 z m 0.058911,0.577226 h 9.4392167 v 0.499711 0.374654 5.1139 c 0,0.717835 -0.560121,1.277958 -1.277958,1.277958 h -6.8833004 c -0.7178361,0 -1.2779583,-0.560123 -1.2779583,-1.277958 v -5.1139 -0.374654 z"
                   style="fill:#000000;stroke:none;stroke-width:0.286594"
                   id="path128" />
                <g
                   transform="rotate(-23.428701,-75.655678,2.2944241)"
                   style="fill:#000000"
                   id="g334">
                  <g
                     style="fill:#000000"
                     id="g320">
                    <g
                       style="fill:#000000"
                       id="g307">
                      <g
                         style="fill:#000000"
                         id="g295">
                        <g
                           style="fill:#000000"
                           id="g284">
                          <g
                             style="fill:#000000"
                             id="g274">
                            <path
                               d="m 1.5136027,-6.2326941 c -0.53806576,0 -0.97039056,0.4256188 -0.98650296,0.9596313 h -0.0031 v 0.029972 0.260966 0.6423379 c 0,0.287192 0.2311229,0.5183148 0.51831456,0.5183148 h 9.5570387 c 0.287192,0 0.518314,-0.2311228 0.518314,-0.5183148 v -0.6423377 -0.260966 -0.029972 h -0.0031 c -0.01611,-0.5340125 -0.448437,-0.9596313 -0.986503,-0.9596313 z m 0,0.5772256 h 8.6144613 c 0.233638,0 0.402273,0.1678664 0.409277,0.3999756 a 0.57734403,0.57734403 0 0 0 0.0031,0.042891 v 0.230477 0.5834269 H 1.1012248 V -4.9821246 -5.213635 a 0.57734403,0.57734403 0 0 0 0.0031,-0.041858 c 0.007,-0.2321078 0.17564,-0.3999756 0.4092779,-0.3999755 z"
                               style="fill:#000000;stroke:none;stroke-width:0.286594"
                               id="rect51" />
                            <g
                               style="fill:#000000"
                               transform="translate(-0.7421314,-0.796075)"
                               id="g169">
                              <g
                                 style="fill:#000000"
                                 id="g162">
                                <path
                                   transform="scale(0.26458333)"
                                   d="m 15.257812,-20.240234 -7.0039058,6.949218 1.5351563,1.548828 8.5664065,-8.498046 z"
                                   style="fill:#000000;stroke:none;stroke-width:1.08319"
                                   id="path144" />
                                <path
                                   id="path152"
                                   style="fill:#000000;stroke:none;stroke-width:0.286594"
                                   d="m 6.1536295,-5.3552285 -1.8531167,1.8386472 0.4061767,0.4097941 2.2665284,-2.2484413 z" />
                                <path
                                   d="m 8.2702963,-5.3552285 -1.8531167,1.8386472 0.4061767,0.4097941 2.2665284,-2.2484413 z"
                                   style="fill:#000000;stroke:none;stroke-width:0.286594"
                                   id="path154" />
                                <path
                                   id="path156"
                                   style="fill:#000000;stroke:none;stroke-width:0.286594"
                                   d="m 10.386963,-5.3552285 -1.8531166,1.8386472 0.4061767,0.4097941 2.2665289,-2.2484413 z" />
                              </g>
                            </g>
                          </g>
                        </g>
                      </g>
                    </g>
                  </g>
                </g>
                <rect
                   ry="0.28861341"
                   y="-32.470074"
                   x="-8.0689907"
                   height="0.57722682"
                   width="10.247103"
                   id="rect238"
                   style="fill:#000000;stroke:none;stroke-width:0.440373" />
                <g
                   style="fill:#000000"
                   id="g542">
                  <path
                     d="m -5.3981438,-34.219838 -1.8531167,1.838647 0.4061768,0.409794 2.2665283,-2.248441 z"
                     style="fill:#000000;stroke:none;stroke-width:0.286594"
                     id="path255" />
                  <path
                     id="path257"
                     style="fill:#000000;stroke:none;stroke-width:0.286594"
                     d="m -3.281477,-34.219838 -1.8531167,1.838647 0.4061767,0.409794 2.2665284,-2.248441 z" />
                  <path
                     d="m -1.1648102,-34.219838 -1.8531167,1.838647 0.4061767,0.409794 2.2665284,-2.248441 z"
                     style="fill:#000000;stroke:none;stroke-width:0.286594"
                     id="path259" />
                  <path
                     id="path261"
                     style="fill:#000000;stroke:none;stroke-width:0.286594"
                     d="m 0.9518566,-34.219838 -1.8531167,1.838647 0.4061767,0.409794 2.266529,-2.248441 z" />
                </g>
                <rect
                   style="fill:#000000;stroke:none;stroke-width:0.440373"
                   id="rect371"
                   width="10.247103"
                   height="0.57722682"
                   x="-8.0689907"
                   y="-28.422026"
                   ry="0.28861341" />
              </g>
            </g>
          </g>
        </g>
      </g>
    </g>
  </g>
</svg>
