<?xml version="1.0" encoding="UTF-8"?>
<svg id="Layer_1" data-name="Layer 1" xmlns="http://www.w3.org/2000/svg" viewBox="0 0 64 64">
  <defs>
    <style>
      .cls-1 {
        stroke-width: 0px;
      }
    </style>
  </defs>
  <path class="cls-1" d="m6.93,57.09h1.54v3.91c0,.55.44,1,1,1h3.56c.38,0,.72-.21.89-.54l2.23-4.37h31.7l2.23,4.37c.17.33.51.54.89.54h3.56c.56,0,1-.45,1-1v-3.91h1.54c1.21,0,2.19-.98,2.19-2.18V22.64c0-1.21-.98-2.19-2.19-2.19h-16.98c-.26-2.08-1.31-3.93-2.84-5.22l4.73-11.86c.21-.51-.04-1.09-.56-1.3-.51-.21-1.09.05-1.29.56l-4.59,11.49c-1.07-.52-2.27-.82-3.54-.82s-2.47.3-3.54.82l-4.59-11.49c-.2-.51-.78-.77-1.29-.56-.52.21-.77.79-.56,1.3l4.73,11.86c-1.53,1.29-2.58,3.14-2.84,5.22H6.93c-1.21,0-2.19.98-2.19,2.19v32.27c0,1.2.98,2.18,2.19,2.18ZM45.53,22.45h11.54c.11,0,.19.09.19.19v32.27c0,.1-.08.18-.19.18h-11.54V22.45Zm-38.79.19c0-.1.08-.19.19-.19h36.6v32.64H6.93c-.11,0-.19-.08-.19-.18V22.64Z"/>
  <path class="cls-1" d="m9.365,53.473h31.544c.552,0,1-.448,1-1v-27.397c0-.552-.448-1-1-1H9.365c-.552,0-1,.448-1,1v27.397c0,.552.448,1,1,1Zm1-27.397h29.544v25.397H10.365v-25.397Z"/>
  <path class="cls-1" d="m51.39,24.08c-2.06,0-3.74,1.67-3.74,3.74s1.68,3.74,3.74,3.74,3.75-1.68,3.75-3.74-1.68-3.74-3.75-3.74Z"/>
  <path class="cls-1" d="m51.39,33.79c-2.06,0-3.74,1.68-3.74,3.74s1.68,3.75,3.74,3.75,3.75-1.68,3.75-3.75-1.68-3.74-3.75-3.74Z"/>
  <path class="cls-1" d="m13.311,31.207l2.437-2.437c.391-.391.391-1.023,0-1.414s-1.023-.391-1.414,0l-2.437,2.437c-.391.391-.391,1.023,0,1.414.195.195.451.293.707.293s.512-.098.707-.293Z"/>
  <path class="cls-1" d="m19.983,28.278l-7.165,7.165c-.391.391-.391,1.023,0,1.414.195.195.451.293.707.293s.512-.098.707-.293l7.165-7.165c.391-.391.391-1.023,0-1.414s-1.023-.391-1.414,0Z"/>
</svg>